%TF.GenerationSoftware,KiCad,Pcbnew,(6.99.0-2452-gdb4f2d9dd8)*%
%TF.CreationDate,2022-08-01T20:20:22-05:00*%
%TF.ProjectId,council of matts,636f756e-6369-46c2-906f-66206d617474,rev?*%
%TF.SameCoordinates,Original*%
%TF.FileFunction,Drillmap*%
%TF.FilePolarity,Positive*%
%FSLAX45Y45*%
G04 Gerber Fmt 4.5, Leading zero omitted, Abs format (unit mm)*
G04 Created by KiCad (PCBNEW (6.99.0-2452-gdb4f2d9dd8)) date 2022-08-01 20:20:22*
%MOMM*%
%LPD*%
G01*
G04 APERTURE LIST*
%ADD10C,1.536607*%
%ADD11C,0.100000*%
%ADD12C,0.200000*%
G04 APERTURE END LIST*
D10*
X13876830Y-6100000D02*
G75*
G03*
X13876830Y-6100000I-76830J0D01*
G01*
X9876830Y-6100000D02*
G75*
G03*
X9876830Y-6100000I-76830J0D01*
G01*
D11*
X6520000Y-5880000D02*
X14110000Y-5880000D01*
X14110000Y-5880000D02*
X14110000Y-10340000D01*
X14110000Y-10340000D02*
X6520000Y-10340000D01*
X6520000Y-10340000D02*
X6520000Y-5880000D01*
D10*
X11876830Y-6100000D02*
G75*
G03*
X11876830Y-6100000I-76830J0D01*
G01*
X7876830Y-6100000D02*
G75*
G03*
X7876830Y-6100000I-76830J0D01*
G01*
X6876830Y-6100000D02*
G75*
G03*
X6876830Y-6100000I-76830J0D01*
G01*
X10876830Y-6100000D02*
G75*
G03*
X10876830Y-6100000I-76830J0D01*
G01*
X12876830Y-6100000D02*
G75*
G03*
X12876830Y-6100000I-76830J0D01*
G01*
X8876830Y-6100000D02*
G75*
G03*
X8876830Y-6100000I-76830J0D01*
G01*
D12*
X6762619Y-10638476D02*
X6762619Y-10438476D01*
X6762619Y-10438476D02*
X6810238Y-10438476D01*
X6810238Y-10438476D02*
X6838809Y-10448000D01*
X6838809Y-10448000D02*
X6857857Y-10467048D01*
X6857857Y-10467048D02*
X6867381Y-10486095D01*
X6867381Y-10486095D02*
X6876905Y-10524190D01*
X6876905Y-10524190D02*
X6876905Y-10552762D01*
X6876905Y-10552762D02*
X6867381Y-10590857D01*
X6867381Y-10590857D02*
X6857857Y-10609905D01*
X6857857Y-10609905D02*
X6838809Y-10628952D01*
X6838809Y-10628952D02*
X6810238Y-10638476D01*
X6810238Y-10638476D02*
X6762619Y-10638476D01*
X6962619Y-10638476D02*
X6962619Y-10505143D01*
X6962619Y-10543238D02*
X6972143Y-10524190D01*
X6972143Y-10524190D02*
X6981667Y-10514667D01*
X6981667Y-10514667D02*
X7000714Y-10505143D01*
X7000714Y-10505143D02*
X7019762Y-10505143D01*
X7086428Y-10638476D02*
X7086428Y-10505143D01*
X7086428Y-10438476D02*
X7076905Y-10448000D01*
X7076905Y-10448000D02*
X7086428Y-10457524D01*
X7086428Y-10457524D02*
X7095952Y-10448000D01*
X7095952Y-10448000D02*
X7086428Y-10438476D01*
X7086428Y-10438476D02*
X7086428Y-10457524D01*
X7210238Y-10638476D02*
X7191190Y-10628952D01*
X7191190Y-10628952D02*
X7181667Y-10609905D01*
X7181667Y-10609905D02*
X7181667Y-10438476D01*
X7315000Y-10638476D02*
X7295952Y-10628952D01*
X7295952Y-10628952D02*
X7286428Y-10609905D01*
X7286428Y-10609905D02*
X7286428Y-10438476D01*
X7511190Y-10638476D02*
X7511190Y-10438476D01*
X7511190Y-10438476D02*
X7577857Y-10581333D01*
X7577857Y-10581333D02*
X7644524Y-10438476D01*
X7644524Y-10438476D02*
X7644524Y-10638476D01*
X7825476Y-10638476D02*
X7825476Y-10533714D01*
X7825476Y-10533714D02*
X7815952Y-10514667D01*
X7815952Y-10514667D02*
X7796905Y-10505143D01*
X7796905Y-10505143D02*
X7758809Y-10505143D01*
X7758809Y-10505143D02*
X7739762Y-10514667D01*
X7825476Y-10628952D02*
X7806428Y-10638476D01*
X7806428Y-10638476D02*
X7758809Y-10638476D01*
X7758809Y-10638476D02*
X7739762Y-10628952D01*
X7739762Y-10628952D02*
X7730238Y-10609905D01*
X7730238Y-10609905D02*
X7730238Y-10590857D01*
X7730238Y-10590857D02*
X7739762Y-10571810D01*
X7739762Y-10571810D02*
X7758809Y-10562286D01*
X7758809Y-10562286D02*
X7806428Y-10562286D01*
X7806428Y-10562286D02*
X7825476Y-10552762D01*
X7920714Y-10505143D02*
X7920714Y-10705143D01*
X7920714Y-10514667D02*
X7939762Y-10505143D01*
X7939762Y-10505143D02*
X7977857Y-10505143D01*
X7977857Y-10505143D02*
X7996905Y-10514667D01*
X7996905Y-10514667D02*
X8006428Y-10524190D01*
X8006428Y-10524190D02*
X8015952Y-10543238D01*
X8015952Y-10543238D02*
X8015952Y-10600381D01*
X8015952Y-10600381D02*
X8006428Y-10619429D01*
X8006428Y-10619429D02*
X7996905Y-10628952D01*
X7996905Y-10628952D02*
X7977857Y-10638476D01*
X7977857Y-10638476D02*
X7939762Y-10638476D01*
X7939762Y-10638476D02*
X7920714Y-10628952D01*
X8101667Y-10619429D02*
X8111190Y-10628952D01*
X8111190Y-10628952D02*
X8101667Y-10638476D01*
X8101667Y-10638476D02*
X8092143Y-10628952D01*
X8092143Y-10628952D02*
X8101667Y-10619429D01*
X8101667Y-10619429D02*
X8101667Y-10638476D01*
X8101667Y-10514667D02*
X8111190Y-10524190D01*
X8111190Y-10524190D02*
X8101667Y-10533714D01*
X8101667Y-10533714D02*
X8092143Y-10524190D01*
X8092143Y-10524190D02*
X8101667Y-10514667D01*
X8101667Y-10514667D02*
X8101667Y-10533714D01*
M02*
