G04 #@! TF.GenerationSoftware,KiCad,Pcbnew,(6.99.0-2452-gdb4f2d9dd8)*
G04 #@! TF.CreationDate,2022-08-01T20:20:20-05:00*
G04 #@! TF.ProjectId,council of matts,636f756e-6369-46c2-906f-66206d617474,rev?*
G04 #@! TF.SameCoordinates,Original*
G04 #@! TF.FileFunction,Legend,Top*
G04 #@! TF.FilePolarity,Positive*
%FSLAX46Y46*%
G04 Gerber Fmt 4.6, Leading zero omitted, Abs format (unit mm)*
G04 Created by KiCad (PCBNEW (6.99.0-2452-gdb4f2d9dd8)) date 2022-08-01 20:20:20*
%MOMM*%
%LPD*%
G01*
G04 APERTURE LIST*
%ADD10C,0.040000*%
%ADD11C,0.150000*%
%ADD12R,1.700000X1.700000*%
%ADD13O,1.700000X1.700000*%
G04 APERTURE END LIST*
D10*
G36*
X85964983Y-97803052D02*
G01*
X85894623Y-97897778D01*
X85824683Y-97992800D01*
X85755216Y-98088050D01*
X85753850Y-98082507D01*
X85720527Y-97897981D01*
X85720331Y-97896716D01*
X85720165Y-97895517D01*
X85699268Y-97708614D01*
X86035764Y-97708614D01*
X85964983Y-97803052D01*
G37*
X85964983Y-97803052D02*
X85894623Y-97897778D01*
X85824683Y-97992800D01*
X85755216Y-98088050D01*
X85753850Y-98082507D01*
X85720527Y-97897981D01*
X85720331Y-97896716D01*
X85720165Y-97895517D01*
X85699268Y-97708614D01*
X86035764Y-97708614D01*
X85964983Y-97803052D01*
G36*
X112909170Y-93806315D02*
G01*
X112975377Y-93807647D01*
X113038980Y-93811580D01*
X113100014Y-93818016D01*
X113158510Y-93826858D01*
X113214502Y-93838009D01*
X113268022Y-93851371D01*
X113319103Y-93866848D01*
X113367777Y-93884342D01*
X113414078Y-93903756D01*
X113458039Y-93924993D01*
X113499691Y-93947956D01*
X113539068Y-93972547D01*
X113576203Y-93998669D01*
X113611128Y-94026225D01*
X113643876Y-94055119D01*
X113674479Y-94085252D01*
X113702971Y-94116528D01*
X113729385Y-94148849D01*
X113753752Y-94182118D01*
X113776106Y-94216238D01*
X113796480Y-94251112D01*
X113814905Y-94286643D01*
X113831416Y-94322733D01*
X113846045Y-94359286D01*
X113858824Y-94396203D01*
X113869786Y-94433389D01*
X113878964Y-94470745D01*
X113886391Y-94508175D01*
X113896122Y-94582866D01*
X113899241Y-94656686D01*
X113896035Y-94730558D01*
X113886239Y-94805401D01*
X113869589Y-94880422D01*
X113845820Y-94954830D01*
X113814670Y-95027833D01*
X113796243Y-95063560D01*
X113775872Y-95098640D01*
X113753523Y-95132973D01*
X113729163Y-95166460D01*
X113702760Y-95199002D01*
X113674279Y-95230501D01*
X113643689Y-95260857D01*
X113610955Y-95289971D01*
X113576046Y-95317746D01*
X113538927Y-95344080D01*
X113499566Y-95368877D01*
X113457930Y-95392036D01*
X113413986Y-95413459D01*
X113367701Y-95433048D01*
X113319042Y-95450702D01*
X113267975Y-95466323D01*
X113214468Y-95479812D01*
X113158487Y-95491071D01*
X113100000Y-95500000D01*
X113038974Y-95506500D01*
X112975375Y-95510473D01*
X112909170Y-95511819D01*
X111728599Y-95511819D01*
X111728599Y-96317211D01*
X111183558Y-96317211D01*
X111183558Y-95036627D01*
X111729129Y-95036627D01*
X112794339Y-95036627D01*
X112834999Y-95036019D01*
X112873572Y-95034227D01*
X112910111Y-95031294D01*
X112944666Y-95027269D01*
X112977291Y-95022195D01*
X113008038Y-95016120D01*
X113036958Y-95009089D01*
X113064105Y-95001148D01*
X113089531Y-94992343D01*
X113113287Y-94982719D01*
X113135426Y-94972323D01*
X113155999Y-94961199D01*
X113175061Y-94949395D01*
X113192661Y-94936956D01*
X113208854Y-94923927D01*
X113223690Y-94910355D01*
X113237223Y-94896285D01*
X113249504Y-94881763D01*
X113260586Y-94866836D01*
X113270521Y-94851548D01*
X113279361Y-94835946D01*
X113287158Y-94820075D01*
X113293964Y-94803982D01*
X113299833Y-94787712D01*
X113304815Y-94771311D01*
X113308964Y-94754825D01*
X113314969Y-94721780D01*
X113318266Y-94688945D01*
X113319272Y-94656686D01*
X113318266Y-94625265D01*
X113314969Y-94593163D01*
X113308964Y-94560754D01*
X113299833Y-94528412D01*
X113287158Y-94496511D01*
X113270521Y-94465423D01*
X113260586Y-94450301D01*
X113249504Y-94435523D01*
X113237223Y-94421135D01*
X113223690Y-94407184D01*
X113208854Y-94393716D01*
X113192661Y-94380779D01*
X113175061Y-94368419D01*
X113155999Y-94356683D01*
X113135426Y-94345618D01*
X113113287Y-94335269D01*
X113089531Y-94325685D01*
X113064105Y-94316911D01*
X113036958Y-94308994D01*
X113008038Y-94301982D01*
X112977291Y-94295920D01*
X112944666Y-94290856D01*
X112910111Y-94286835D01*
X112873572Y-94283906D01*
X112834999Y-94282114D01*
X112794339Y-94281506D01*
X111729129Y-94281506D01*
X111729129Y-95036627D01*
X111183558Y-95036627D01*
X111183558Y-93806315D01*
X112909170Y-93806315D01*
G37*
X112909170Y-93806315D02*
X112975377Y-93807647D01*
X113038980Y-93811580D01*
X113100014Y-93818016D01*
X113158510Y-93826858D01*
X113214502Y-93838009D01*
X113268022Y-93851371D01*
X113319103Y-93866848D01*
X113367777Y-93884342D01*
X113414078Y-93903756D01*
X113458039Y-93924993D01*
X113499691Y-93947956D01*
X113539068Y-93972547D01*
X113576203Y-93998669D01*
X113611128Y-94026225D01*
X113643876Y-94055119D01*
X113674479Y-94085252D01*
X113702971Y-94116528D01*
X113729385Y-94148849D01*
X113753752Y-94182118D01*
X113776106Y-94216238D01*
X113796480Y-94251112D01*
X113814905Y-94286643D01*
X113831416Y-94322733D01*
X113846045Y-94359286D01*
X113858824Y-94396203D01*
X113869786Y-94433389D01*
X113878964Y-94470745D01*
X113886391Y-94508175D01*
X113896122Y-94582866D01*
X113899241Y-94656686D01*
X113896035Y-94730558D01*
X113886239Y-94805401D01*
X113869589Y-94880422D01*
X113845820Y-94954830D01*
X113814670Y-95027833D01*
X113796243Y-95063560D01*
X113775872Y-95098640D01*
X113753523Y-95132973D01*
X113729163Y-95166460D01*
X113702760Y-95199002D01*
X113674279Y-95230501D01*
X113643689Y-95260857D01*
X113610955Y-95289971D01*
X113576046Y-95317746D01*
X113538927Y-95344080D01*
X113499566Y-95368877D01*
X113457930Y-95392036D01*
X113413986Y-95413459D01*
X113367701Y-95433048D01*
X113319042Y-95450702D01*
X113267975Y-95466323D01*
X113214468Y-95479812D01*
X113158487Y-95491071D01*
X113100000Y-95500000D01*
X113038974Y-95506500D01*
X112975375Y-95510473D01*
X112909170Y-95511819D01*
X111728599Y-95511819D01*
X111728599Y-96317211D01*
X111183558Y-96317211D01*
X111183558Y-95036627D01*
X111729129Y-95036627D01*
X112794339Y-95036627D01*
X112834999Y-95036019D01*
X112873572Y-95034227D01*
X112910111Y-95031294D01*
X112944666Y-95027269D01*
X112977291Y-95022195D01*
X113008038Y-95016120D01*
X113036958Y-95009089D01*
X113064105Y-95001148D01*
X113089531Y-94992343D01*
X113113287Y-94982719D01*
X113135426Y-94972323D01*
X113155999Y-94961199D01*
X113175061Y-94949395D01*
X113192661Y-94936956D01*
X113208854Y-94923927D01*
X113223690Y-94910355D01*
X113237223Y-94896285D01*
X113249504Y-94881763D01*
X113260586Y-94866836D01*
X113270521Y-94851548D01*
X113279361Y-94835946D01*
X113287158Y-94820075D01*
X113293964Y-94803982D01*
X113299833Y-94787712D01*
X113304815Y-94771311D01*
X113308964Y-94754825D01*
X113314969Y-94721780D01*
X113318266Y-94688945D01*
X113319272Y-94656686D01*
X113318266Y-94625265D01*
X113314969Y-94593163D01*
X113308964Y-94560754D01*
X113299833Y-94528412D01*
X113287158Y-94496511D01*
X113270521Y-94465423D01*
X113260586Y-94450301D01*
X113249504Y-94435523D01*
X113237223Y-94421135D01*
X113223690Y-94407184D01*
X113208854Y-94393716D01*
X113192661Y-94380779D01*
X113175061Y-94368419D01*
X113155999Y-94356683D01*
X113135426Y-94345618D01*
X113113287Y-94335269D01*
X113089531Y-94325685D01*
X113064105Y-94316911D01*
X113036958Y-94308994D01*
X113008038Y-94301982D01*
X112977291Y-94295920D01*
X112944666Y-94290856D01*
X112910111Y-94286835D01*
X112873572Y-94283906D01*
X112834999Y-94282114D01*
X112794339Y-94281506D01*
X111729129Y-94281506D01*
X111729129Y-95036627D01*
X111183558Y-95036627D01*
X111183558Y-93806315D01*
X112909170Y-93806315D01*
G36*
X102175025Y-100926252D02*
G01*
X104005413Y-100926252D01*
X104005413Y-101396153D01*
X101629983Y-101396153D01*
X101629983Y-98885256D01*
X102175025Y-98885256D01*
X102175025Y-100926252D01*
G37*
X102175025Y-100926252D02*
X104005413Y-100926252D01*
X104005413Y-101396153D01*
X101629983Y-101396153D01*
X101629983Y-98885256D01*
X102175025Y-98885256D01*
X102175025Y-100926252D01*
G36*
X96982842Y-96317211D02*
G01*
X96372713Y-96317211D01*
X96092254Y-95891761D01*
X94725946Y-95891761D01*
X95018575Y-95446731D01*
X95802271Y-95446731D01*
X95242413Y-94591598D01*
X94682025Y-95446731D01*
X94682554Y-95446731D01*
X94389925Y-95891761D01*
X94386750Y-95891761D01*
X94111583Y-96317211D01*
X93501454Y-96317211D01*
X95242413Y-93766098D01*
X96982842Y-96317211D01*
G37*
X96982842Y-96317211D02*
X96372713Y-96317211D01*
X96092254Y-95891761D01*
X94725946Y-95891761D01*
X95018575Y-95446731D01*
X95802271Y-95446731D01*
X95242413Y-94591598D01*
X94682025Y-95446731D01*
X94682554Y-95446731D01*
X94389925Y-95891761D01*
X94386750Y-95891761D01*
X94111583Y-96317211D01*
X93501454Y-96317211D01*
X95242413Y-93766098D01*
X96982842Y-96317211D01*
G36*
X109501694Y-98846205D02*
G01*
X109589622Y-98849679D01*
X109676654Y-98855424D01*
X109762695Y-98863403D01*
X109847651Y-98873581D01*
X109931427Y-98885921D01*
X110013929Y-98900386D01*
X110095062Y-98916940D01*
X110174731Y-98935547D01*
X110252842Y-98956170D01*
X110329301Y-98978772D01*
X110404013Y-99003318D01*
X110476883Y-99029771D01*
X110547816Y-99058094D01*
X110616719Y-99088251D01*
X110683496Y-99120206D01*
X110683496Y-99605452D01*
X110550297Y-99545158D01*
X110412447Y-99488919D01*
X110341502Y-99462705D01*
X110269065Y-99437964D01*
X110195024Y-99414852D01*
X110119271Y-99393521D01*
X110041694Y-99374124D01*
X109962184Y-99356816D01*
X109880631Y-99341749D01*
X109796925Y-99329078D01*
X109710955Y-99318955D01*
X109622612Y-99311535D01*
X109531785Y-99306970D01*
X109438365Y-99305414D01*
X109341155Y-99307648D01*
X109241611Y-99314603D01*
X109140919Y-99326661D01*
X109040267Y-99344201D01*
X108940843Y-99367604D01*
X108891963Y-99381623D01*
X108843834Y-99397250D01*
X108796607Y-99414534D01*
X108750429Y-99433522D01*
X108705448Y-99454261D01*
X108661813Y-99476798D01*
X108619673Y-99501182D01*
X108579176Y-99527460D01*
X108540470Y-99555679D01*
X108503704Y-99585888D01*
X108469026Y-99618133D01*
X108436585Y-99652463D01*
X108406529Y-99688924D01*
X108379006Y-99727565D01*
X108354166Y-99768433D01*
X108332156Y-99811576D01*
X108313125Y-99857040D01*
X108297221Y-99904874D01*
X108284593Y-99955126D01*
X108275389Y-100007843D01*
X108269758Y-100063071D01*
X108267848Y-100120860D01*
X108269288Y-100170369D01*
X108273568Y-100218574D01*
X108280631Y-100265456D01*
X108290417Y-100311000D01*
X108302869Y-100355186D01*
X108317927Y-100397998D01*
X108335534Y-100439418D01*
X108355632Y-100479428D01*
X108378160Y-100518012D01*
X108403062Y-100555151D01*
X108430279Y-100590827D01*
X108459752Y-100625024D01*
X108491423Y-100657724D01*
X108525234Y-100688909D01*
X108561126Y-100718562D01*
X108599040Y-100746665D01*
X108638918Y-100773201D01*
X108680703Y-100798152D01*
X108769755Y-100843229D01*
X108865730Y-100881756D01*
X108968159Y-100913592D01*
X109076575Y-100938598D01*
X109190512Y-100956634D01*
X109309501Y-100967558D01*
X109433075Y-100971230D01*
X109507382Y-100969839D01*
X109583633Y-100965512D01*
X109661188Y-100958013D01*
X109739412Y-100947112D01*
X109817667Y-100932573D01*
X109895316Y-100914164D01*
X109971722Y-100891651D01*
X110046247Y-100864802D01*
X110082605Y-100849678D01*
X110118254Y-100833382D01*
X110153114Y-100815885D01*
X110187106Y-100797158D01*
X110220150Y-100777172D01*
X110252167Y-100755898D01*
X110283076Y-100733306D01*
X110312798Y-100709367D01*
X110341254Y-100684053D01*
X110368363Y-100657333D01*
X110394047Y-100629179D01*
X110418224Y-100599562D01*
X110440817Y-100568453D01*
X110461745Y-100535821D01*
X110480928Y-100501639D01*
X110498288Y-100465876D01*
X109633098Y-100465876D01*
X109633098Y-100060534D01*
X111108415Y-100060534D01*
X111108642Y-100076794D01*
X111109242Y-100092185D01*
X111111060Y-100122447D01*
X111112031Y-100138359D01*
X111112879Y-100155487D01*
X111113478Y-100174351D01*
X111113705Y-100195472D01*
X111111367Y-100270804D01*
X111104439Y-100343896D01*
X111093051Y-100414739D01*
X111077330Y-100483323D01*
X111057408Y-100549638D01*
X111033411Y-100613673D01*
X111005471Y-100675419D01*
X110973716Y-100734866D01*
X110938275Y-100792004D01*
X110899277Y-100846823D01*
X110856852Y-100899313D01*
X110811129Y-100949463D01*
X110762236Y-100997264D01*
X110710303Y-101042707D01*
X110655460Y-101085780D01*
X110597834Y-101126474D01*
X110474755Y-101200686D01*
X110342099Y-101265262D01*
X110200900Y-101320122D01*
X110052190Y-101365187D01*
X109897003Y-101400376D01*
X109736372Y-101425610D01*
X109571330Y-101440809D01*
X109402911Y-101445893D01*
X109317479Y-101444533D01*
X109232815Y-101440463D01*
X109149049Y-101433699D01*
X109066306Y-101424256D01*
X108984715Y-101412150D01*
X108904403Y-101397397D01*
X108825497Y-101380012D01*
X108748125Y-101360011D01*
X108672414Y-101337409D01*
X108598491Y-101312222D01*
X108526485Y-101284466D01*
X108456522Y-101254156D01*
X108388729Y-101221308D01*
X108323235Y-101185937D01*
X108260167Y-101148059D01*
X108199651Y-101107690D01*
X108141816Y-101064844D01*
X108086789Y-101019539D01*
X108034698Y-100971789D01*
X107985669Y-100921610D01*
X107939830Y-100869018D01*
X107897308Y-100814027D01*
X107858232Y-100756655D01*
X107822728Y-100696916D01*
X107790923Y-100634826D01*
X107762946Y-100570400D01*
X107738924Y-100503655D01*
X107718983Y-100434605D01*
X107703252Y-100363267D01*
X107691858Y-100289656D01*
X107684928Y-100213787D01*
X107682590Y-100135677D01*
X107685069Y-100054084D01*
X107692407Y-99975290D01*
X107704449Y-99899281D01*
X107721043Y-99826043D01*
X107742036Y-99755563D01*
X107767275Y-99687826D01*
X107796607Y-99622820D01*
X107829880Y-99560531D01*
X107866940Y-99500944D01*
X107907634Y-99444047D01*
X107951810Y-99389825D01*
X107999314Y-99338265D01*
X108049995Y-99289354D01*
X108103698Y-99243077D01*
X108160271Y-99199421D01*
X108219561Y-99158372D01*
X108345682Y-99084042D01*
X108480835Y-99019978D01*
X108623800Y-98966069D01*
X108773351Y-98922207D01*
X108928267Y-98888282D01*
X109087323Y-98864186D01*
X109249297Y-98849808D01*
X109412965Y-98845039D01*
X109501694Y-98846205D01*
G37*
X109501694Y-98846205D02*
X109589622Y-98849679D01*
X109676654Y-98855424D01*
X109762695Y-98863403D01*
X109847651Y-98873581D01*
X109931427Y-98885921D01*
X110013929Y-98900386D01*
X110095062Y-98916940D01*
X110174731Y-98935547D01*
X110252842Y-98956170D01*
X110329301Y-98978772D01*
X110404013Y-99003318D01*
X110476883Y-99029771D01*
X110547816Y-99058094D01*
X110616719Y-99088251D01*
X110683496Y-99120206D01*
X110683496Y-99605452D01*
X110550297Y-99545158D01*
X110412447Y-99488919D01*
X110341502Y-99462705D01*
X110269065Y-99437964D01*
X110195024Y-99414852D01*
X110119271Y-99393521D01*
X110041694Y-99374124D01*
X109962184Y-99356816D01*
X109880631Y-99341749D01*
X109796925Y-99329078D01*
X109710955Y-99318955D01*
X109622612Y-99311535D01*
X109531785Y-99306970D01*
X109438365Y-99305414D01*
X109341155Y-99307648D01*
X109241611Y-99314603D01*
X109140919Y-99326661D01*
X109040267Y-99344201D01*
X108940843Y-99367604D01*
X108891963Y-99381623D01*
X108843834Y-99397250D01*
X108796607Y-99414534D01*
X108750429Y-99433522D01*
X108705448Y-99454261D01*
X108661813Y-99476798D01*
X108619673Y-99501182D01*
X108579176Y-99527460D01*
X108540470Y-99555679D01*
X108503704Y-99585888D01*
X108469026Y-99618133D01*
X108436585Y-99652463D01*
X108406529Y-99688924D01*
X108379006Y-99727565D01*
X108354166Y-99768433D01*
X108332156Y-99811576D01*
X108313125Y-99857040D01*
X108297221Y-99904874D01*
X108284593Y-99955126D01*
X108275389Y-100007843D01*
X108269758Y-100063071D01*
X108267848Y-100120860D01*
X108269288Y-100170369D01*
X108273568Y-100218574D01*
X108280631Y-100265456D01*
X108290417Y-100311000D01*
X108302869Y-100355186D01*
X108317927Y-100397998D01*
X108335534Y-100439418D01*
X108355632Y-100479428D01*
X108378160Y-100518012D01*
X108403062Y-100555151D01*
X108430279Y-100590827D01*
X108459752Y-100625024D01*
X108491423Y-100657724D01*
X108525234Y-100688909D01*
X108561126Y-100718562D01*
X108599040Y-100746665D01*
X108638918Y-100773201D01*
X108680703Y-100798152D01*
X108769755Y-100843229D01*
X108865730Y-100881756D01*
X108968159Y-100913592D01*
X109076575Y-100938598D01*
X109190512Y-100956634D01*
X109309501Y-100967558D01*
X109433075Y-100971230D01*
X109507382Y-100969839D01*
X109583633Y-100965512D01*
X109661188Y-100958013D01*
X109739412Y-100947112D01*
X109817667Y-100932573D01*
X109895316Y-100914164D01*
X109971722Y-100891651D01*
X110046247Y-100864802D01*
X110082605Y-100849678D01*
X110118254Y-100833382D01*
X110153114Y-100815885D01*
X110187106Y-100797158D01*
X110220150Y-100777172D01*
X110252167Y-100755898D01*
X110283076Y-100733306D01*
X110312798Y-100709367D01*
X110341254Y-100684053D01*
X110368363Y-100657333D01*
X110394047Y-100629179D01*
X110418224Y-100599562D01*
X110440817Y-100568453D01*
X110461745Y-100535821D01*
X110480928Y-100501639D01*
X110498288Y-100465876D01*
X109633098Y-100465876D01*
X109633098Y-100060534D01*
X111108415Y-100060534D01*
X111108642Y-100076794D01*
X111109242Y-100092185D01*
X111111060Y-100122447D01*
X111112031Y-100138359D01*
X111112879Y-100155487D01*
X111113478Y-100174351D01*
X111113705Y-100195472D01*
X111111367Y-100270804D01*
X111104439Y-100343896D01*
X111093051Y-100414739D01*
X111077330Y-100483323D01*
X111057408Y-100549638D01*
X111033411Y-100613673D01*
X111005471Y-100675419D01*
X110973716Y-100734866D01*
X110938275Y-100792004D01*
X110899277Y-100846823D01*
X110856852Y-100899313D01*
X110811129Y-100949463D01*
X110762236Y-100997264D01*
X110710303Y-101042707D01*
X110655460Y-101085780D01*
X110597834Y-101126474D01*
X110474755Y-101200686D01*
X110342099Y-101265262D01*
X110200900Y-101320122D01*
X110052190Y-101365187D01*
X109897003Y-101400376D01*
X109736372Y-101425610D01*
X109571330Y-101440809D01*
X109402911Y-101445893D01*
X109317479Y-101444533D01*
X109232815Y-101440463D01*
X109149049Y-101433699D01*
X109066306Y-101424256D01*
X108984715Y-101412150D01*
X108904403Y-101397397D01*
X108825497Y-101380012D01*
X108748125Y-101360011D01*
X108672414Y-101337409D01*
X108598491Y-101312222D01*
X108526485Y-101284466D01*
X108456522Y-101254156D01*
X108388729Y-101221308D01*
X108323235Y-101185937D01*
X108260167Y-101148059D01*
X108199651Y-101107690D01*
X108141816Y-101064844D01*
X108086789Y-101019539D01*
X108034698Y-100971789D01*
X107985669Y-100921610D01*
X107939830Y-100869018D01*
X107897308Y-100814027D01*
X107858232Y-100756655D01*
X107822728Y-100696916D01*
X107790923Y-100634826D01*
X107762946Y-100570400D01*
X107738924Y-100503655D01*
X107718983Y-100434605D01*
X107703252Y-100363267D01*
X107691858Y-100289656D01*
X107684928Y-100213787D01*
X107682590Y-100135677D01*
X107685069Y-100054084D01*
X107692407Y-99975290D01*
X107704449Y-99899281D01*
X107721043Y-99826043D01*
X107742036Y-99755563D01*
X107767275Y-99687826D01*
X107796607Y-99622820D01*
X107829880Y-99560531D01*
X107866940Y-99500944D01*
X107907634Y-99444047D01*
X107951810Y-99389825D01*
X107999314Y-99338265D01*
X108049995Y-99289354D01*
X108103698Y-99243077D01*
X108160271Y-99199421D01*
X108219561Y-99158372D01*
X108345682Y-99084042D01*
X108480835Y-99019978D01*
X108623800Y-98966069D01*
X108773351Y-98922207D01*
X108928267Y-98888282D01*
X109087323Y-98864186D01*
X109249297Y-98849808D01*
X109412965Y-98845039D01*
X109501694Y-98846205D01*
G36*
X117271091Y-96317211D02*
G01*
X116660960Y-96317211D01*
X116380502Y-95891761D01*
X115008903Y-95891761D01*
X115301530Y-95446731D01*
X116090520Y-95446731D01*
X115530661Y-94591598D01*
X114400361Y-96317211D01*
X113789702Y-96317211D01*
X115530661Y-93766098D01*
X117271091Y-96317211D01*
G37*
X117271091Y-96317211D02*
X116660960Y-96317211D01*
X116380502Y-95891761D01*
X115008903Y-95891761D01*
X115301530Y-95446731D01*
X116090520Y-95446731D01*
X115530661Y-94591598D01*
X114400361Y-96317211D01*
X113789702Y-96317211D01*
X115530661Y-93766098D01*
X117271091Y-96317211D01*
G36*
X97858083Y-101396153D02*
G01*
X97313041Y-101396153D01*
X97313041Y-98885256D01*
X97858083Y-98885256D01*
X97858083Y-101396153D01*
G37*
X97858083Y-101396153D02*
X97313041Y-101396153D01*
X97313041Y-98885256D01*
X97858083Y-98885256D01*
X97858083Y-101396153D01*
G36*
X95192142Y-100585998D02*
G01*
X96252592Y-98885256D01*
X96892884Y-98885256D01*
X95192142Y-101446422D01*
X93501454Y-98885256D01*
X94147038Y-98885256D01*
X95192142Y-100585998D01*
G37*
X95192142Y-100585998D02*
X96252592Y-98885256D01*
X96892884Y-98885256D01*
X95192142Y-101446422D01*
X93501454Y-98885256D01*
X94147038Y-98885256D01*
X95192142Y-100585998D01*
G36*
X102329541Y-93806315D02*
G01*
X102395747Y-93807676D01*
X102459351Y-93811693D01*
X102520384Y-93818265D01*
X102578881Y-93827290D01*
X102634874Y-93838669D01*
X102688395Y-93852299D01*
X102739478Y-93868081D01*
X102788155Y-93885913D01*
X102834460Y-93905695D01*
X102878425Y-93927325D01*
X102920083Y-93950703D01*
X102959466Y-93975728D01*
X102996608Y-94002299D01*
X103031542Y-94030315D01*
X103064300Y-94059675D01*
X103094915Y-94090279D01*
X103123420Y-94122025D01*
X103149849Y-94154813D01*
X103174232Y-94188542D01*
X103196605Y-94223111D01*
X103216999Y-94258419D01*
X103235447Y-94294365D01*
X103251983Y-94330849D01*
X103266638Y-94367769D01*
X103279446Y-94405025D01*
X103290440Y-94442515D01*
X103307116Y-94517797D01*
X103316929Y-94592808D01*
X103320141Y-94666740D01*
X103318368Y-94724137D01*
X103312973Y-94781830D01*
X103303845Y-94839515D01*
X103290872Y-94896894D01*
X103273943Y-94953666D01*
X103263960Y-94981729D01*
X103252946Y-95009528D01*
X103240887Y-95037025D01*
X103227769Y-95064182D01*
X103213578Y-95090961D01*
X103198301Y-95117325D01*
X103181923Y-95143237D01*
X103164430Y-95168658D01*
X103145809Y-95193551D01*
X103126045Y-95217879D01*
X103105125Y-95241604D01*
X103083034Y-95264688D01*
X103059758Y-95287094D01*
X103035285Y-95308784D01*
X103009599Y-95329721D01*
X102982686Y-95349867D01*
X102954534Y-95369184D01*
X102925127Y-95387634D01*
X102894452Y-95405181D01*
X102862495Y-95421787D01*
X102829242Y-95437413D01*
X102794679Y-95452023D01*
X103374644Y-96317211D01*
X102764515Y-96317211D01*
X102234290Y-95531927D01*
X101159023Y-95531927D01*
X101159023Y-96317211D01*
X100613982Y-96317211D01*
X100613982Y-95051444D01*
X101159554Y-95051444D01*
X102250168Y-95051444D01*
X102288061Y-95050851D01*
X102323985Y-95049100D01*
X102357992Y-95046234D01*
X102390131Y-95042293D01*
X102420452Y-95037321D01*
X102449005Y-95031359D01*
X102475841Y-95024450D01*
X102501010Y-95016635D01*
X102524562Y-95007956D01*
X102546547Y-94998456D01*
X102567016Y-94988177D01*
X102586018Y-94977160D01*
X102603604Y-94965448D01*
X102619824Y-94953083D01*
X102634728Y-94940106D01*
X102648366Y-94926561D01*
X102660789Y-94912488D01*
X102672047Y-94897930D01*
X102682190Y-94882929D01*
X102691268Y-94867528D01*
X102699331Y-94851767D01*
X102706430Y-94835690D01*
X102712615Y-94819337D01*
X102717935Y-94802752D01*
X102722442Y-94785977D01*
X102726184Y-94769052D01*
X102731580Y-94734926D01*
X102734522Y-94700710D01*
X102735414Y-94666740D01*
X102734522Y-94635319D01*
X102731580Y-94603217D01*
X102726184Y-94570809D01*
X102717935Y-94538467D01*
X102706430Y-94506565D01*
X102699331Y-94490896D01*
X102691268Y-94475477D01*
X102682190Y-94460355D01*
X102672047Y-94445577D01*
X102660789Y-94431189D01*
X102648366Y-94417238D01*
X102634727Y-94403770D01*
X102619823Y-94390834D01*
X102603603Y-94378474D01*
X102586017Y-94366738D01*
X102567015Y-94355672D01*
X102546546Y-94345324D01*
X102524561Y-94335739D01*
X102501009Y-94326965D01*
X102475840Y-94319049D01*
X102449004Y-94312036D01*
X102420451Y-94305974D01*
X102390130Y-94300910D01*
X102357992Y-94296890D01*
X102323985Y-94293960D01*
X102288061Y-94292168D01*
X102250168Y-94291561D01*
X101159554Y-94291561D01*
X101159554Y-95051444D01*
X100613982Y-95051444D01*
X100613982Y-93806315D01*
X102329541Y-93806315D01*
G37*
X102329541Y-93806315D02*
X102395747Y-93807676D01*
X102459351Y-93811693D01*
X102520384Y-93818265D01*
X102578881Y-93827290D01*
X102634874Y-93838669D01*
X102688395Y-93852299D01*
X102739478Y-93868081D01*
X102788155Y-93885913D01*
X102834460Y-93905695D01*
X102878425Y-93927325D01*
X102920083Y-93950703D01*
X102959466Y-93975728D01*
X102996608Y-94002299D01*
X103031542Y-94030315D01*
X103064300Y-94059675D01*
X103094915Y-94090279D01*
X103123420Y-94122025D01*
X103149849Y-94154813D01*
X103174232Y-94188542D01*
X103196605Y-94223111D01*
X103216999Y-94258419D01*
X103235447Y-94294365D01*
X103251983Y-94330849D01*
X103266638Y-94367769D01*
X103279446Y-94405025D01*
X103290440Y-94442515D01*
X103307116Y-94517797D01*
X103316929Y-94592808D01*
X103320141Y-94666740D01*
X103318368Y-94724137D01*
X103312973Y-94781830D01*
X103303845Y-94839515D01*
X103290872Y-94896894D01*
X103273943Y-94953666D01*
X103263960Y-94981729D01*
X103252946Y-95009528D01*
X103240887Y-95037025D01*
X103227769Y-95064182D01*
X103213578Y-95090961D01*
X103198301Y-95117325D01*
X103181923Y-95143237D01*
X103164430Y-95168658D01*
X103145809Y-95193551D01*
X103126045Y-95217879D01*
X103105125Y-95241604D01*
X103083034Y-95264688D01*
X103059758Y-95287094D01*
X103035285Y-95308784D01*
X103009599Y-95329721D01*
X102982686Y-95349867D01*
X102954534Y-95369184D01*
X102925127Y-95387634D01*
X102894452Y-95405181D01*
X102862495Y-95421787D01*
X102829242Y-95437413D01*
X102794679Y-95452023D01*
X103374644Y-96317211D01*
X102764515Y-96317211D01*
X102234290Y-95531927D01*
X101159023Y-95531927D01*
X101159023Y-96317211D01*
X100613982Y-96317211D01*
X100613982Y-95051444D01*
X101159554Y-95051444D01*
X102250168Y-95051444D01*
X102288061Y-95050851D01*
X102323985Y-95049100D01*
X102357992Y-95046234D01*
X102390131Y-95042293D01*
X102420452Y-95037321D01*
X102449005Y-95031359D01*
X102475841Y-95024450D01*
X102501010Y-95016635D01*
X102524562Y-95007956D01*
X102546547Y-94998456D01*
X102567016Y-94988177D01*
X102586018Y-94977160D01*
X102603604Y-94965448D01*
X102619824Y-94953083D01*
X102634728Y-94940106D01*
X102648366Y-94926561D01*
X102660789Y-94912488D01*
X102672047Y-94897930D01*
X102682190Y-94882929D01*
X102691268Y-94867528D01*
X102699331Y-94851767D01*
X102706430Y-94835690D01*
X102712615Y-94819337D01*
X102717935Y-94802752D01*
X102722442Y-94785977D01*
X102726184Y-94769052D01*
X102731580Y-94734926D01*
X102734522Y-94700710D01*
X102735414Y-94666740D01*
X102734522Y-94635319D01*
X102731580Y-94603217D01*
X102726184Y-94570809D01*
X102717935Y-94538467D01*
X102706430Y-94506565D01*
X102699331Y-94490896D01*
X102691268Y-94475477D01*
X102682190Y-94460355D01*
X102672047Y-94445577D01*
X102660789Y-94431189D01*
X102648366Y-94417238D01*
X102634727Y-94403770D01*
X102619823Y-94390834D01*
X102603603Y-94378474D01*
X102586017Y-94366738D01*
X102567015Y-94355672D01*
X102546546Y-94345324D01*
X102524561Y-94335739D01*
X102501009Y-94326965D01*
X102475840Y-94319049D01*
X102449004Y-94312036D01*
X102420451Y-94305974D01*
X102390130Y-94300910D01*
X102357992Y-94296890D01*
X102323985Y-94293960D01*
X102288061Y-94292168D01*
X102250168Y-94291561D01*
X101159554Y-94291561D01*
X101159554Y-95051444D01*
X100613982Y-95051444D01*
X100613982Y-93806315D01*
X102329541Y-93806315D01*
G36*
X84194193Y-99603498D02*
G01*
X84216151Y-99635969D01*
X84240715Y-99671483D01*
X84265675Y-99706691D01*
X84291064Y-99741565D01*
X84317734Y-99777241D01*
X84344818Y-99812577D01*
X84372310Y-99847573D01*
X84400205Y-99882228D01*
X84421620Y-99908082D01*
X84443369Y-99933635D01*
X84465343Y-99958988D01*
X84487435Y-99984238D01*
X84470557Y-100012116D01*
X84453473Y-100039888D01*
X84436447Y-100067689D01*
X84419739Y-100095652D01*
X84285178Y-100329747D01*
X84153690Y-100565039D01*
X84089812Y-100683380D01*
X84027559Y-100802316D01*
X83967217Y-100921944D01*
X83909072Y-101042364D01*
X83853257Y-101163083D01*
X83799492Y-101284914D01*
X83748630Y-101407526D01*
X83701527Y-101530592D01*
X83659038Y-101653782D01*
X83639791Y-101715320D01*
X83622018Y-101776766D01*
X83605825Y-101838079D01*
X83591320Y-101899217D01*
X83578610Y-101960140D01*
X83567801Y-102020805D01*
X83564567Y-102050270D01*
X83562065Y-102079427D01*
X83560382Y-102108122D01*
X83559605Y-102136202D01*
X83559820Y-102163512D01*
X83560327Y-102176831D01*
X83561114Y-102189900D01*
X83562193Y-102202700D01*
X83563573Y-102215212D01*
X83565267Y-102227416D01*
X83567284Y-102239294D01*
X83570034Y-102250728D01*
X83572937Y-102261438D01*
X83576011Y-102271455D01*
X83579274Y-102280812D01*
X83582745Y-102289539D01*
X83586441Y-102297669D01*
X83588379Y-102301519D01*
X83590380Y-102305233D01*
X83592446Y-102308812D01*
X83594580Y-102312263D01*
X83596783Y-102315587D01*
X83599059Y-102318790D01*
X83601408Y-102321876D01*
X83603835Y-102324848D01*
X83606340Y-102327710D01*
X83608926Y-102330466D01*
X83611595Y-102333121D01*
X83614350Y-102335677D01*
X83617192Y-102338140D01*
X83620125Y-102340513D01*
X83623149Y-102342800D01*
X83626268Y-102345005D01*
X83632799Y-102349185D01*
X83639734Y-102353085D01*
X83647548Y-102356856D01*
X83656077Y-102360229D01*
X83665282Y-102363207D01*
X83675121Y-102365787D01*
X83685552Y-102367971D01*
X83696535Y-102369758D01*
X83708028Y-102371148D01*
X83719990Y-102372141D01*
X83732380Y-102372738D01*
X83745157Y-102372938D01*
X83758279Y-102372740D01*
X83771705Y-102372146D01*
X83785395Y-102371154D01*
X83799306Y-102369766D01*
X83813398Y-102367980D01*
X83827630Y-102365797D01*
X83856413Y-102360654D01*
X83885570Y-102354408D01*
X83915032Y-102347146D01*
X83944735Y-102338955D01*
X83974611Y-102329920D01*
X84004595Y-102320129D01*
X84034619Y-102309666D01*
X84064618Y-102298618D01*
X84124859Y-102274036D01*
X84184741Y-102247788D01*
X84244273Y-102219981D01*
X84303468Y-102190724D01*
X84362335Y-102160123D01*
X84420885Y-102128288D01*
X84537077Y-102061345D01*
X84652128Y-101990755D01*
X84766122Y-101917381D01*
X84879144Y-101842086D01*
X84991280Y-101765731D01*
X85102258Y-101686689D01*
X85212558Y-101606377D01*
X85322199Y-101524873D01*
X85431201Y-101442251D01*
X85647364Y-101273957D01*
X85861201Y-101102102D01*
X85767273Y-101202340D01*
X85672341Y-101301749D01*
X85576295Y-101400191D01*
X85479020Y-101497530D01*
X85380407Y-101593629D01*
X85280342Y-101688350D01*
X85178713Y-101781557D01*
X85075409Y-101873114D01*
X85023365Y-101918548D01*
X84970800Y-101963536D01*
X84917690Y-102008028D01*
X84864009Y-102051975D01*
X84809733Y-102095326D01*
X84754837Y-102138032D01*
X84699295Y-102180043D01*
X84643084Y-102221310D01*
X84586235Y-102262092D01*
X84528711Y-102302191D01*
X84470381Y-102341473D01*
X84411115Y-102379800D01*
X84350782Y-102417035D01*
X84289252Y-102453042D01*
X84226395Y-102487685D01*
X84162080Y-102520827D01*
X84129147Y-102536530D01*
X84095766Y-102551793D01*
X84061839Y-102566474D01*
X84027266Y-102580430D01*
X83991950Y-102593518D01*
X83955790Y-102605595D01*
X83918689Y-102616518D01*
X83899754Y-102621502D01*
X83880547Y-102626144D01*
X83841660Y-102634265D01*
X83801233Y-102641103D01*
X83780457Y-102643826D01*
X83759316Y-102645971D01*
X83737814Y-102647450D01*
X83715959Y-102648178D01*
X83693757Y-102648069D01*
X83671214Y-102647037D01*
X83648336Y-102644996D01*
X83625130Y-102641859D01*
X83601601Y-102637540D01*
X83577757Y-102631954D01*
X83553604Y-102625015D01*
X83529147Y-102616635D01*
X83517116Y-102611672D01*
X83505227Y-102606308D01*
X83493475Y-102600545D01*
X83481853Y-102594385D01*
X83470355Y-102587827D01*
X83458974Y-102580874D01*
X83447706Y-102573526D01*
X83436543Y-102565785D01*
X83426476Y-102557283D01*
X83416524Y-102548476D01*
X83406697Y-102539408D01*
X83397008Y-102530122D01*
X83387468Y-102520662D01*
X83378088Y-102511073D01*
X83368880Y-102501398D01*
X83359855Y-102491681D01*
X83345605Y-102470474D01*
X83338566Y-102459757D01*
X83331637Y-102448980D01*
X83324858Y-102438153D01*
X83318266Y-102427287D01*
X83311900Y-102416394D01*
X83305801Y-102405485D01*
X83301289Y-102394721D01*
X83296874Y-102383871D01*
X83288308Y-102361957D01*
X83280039Y-102339845D01*
X83272005Y-102317635D01*
X83266498Y-102296010D01*
X83261660Y-102274588D01*
X83257454Y-102253361D01*
X83253846Y-102232322D01*
X83250798Y-102211462D01*
X83248274Y-102190775D01*
X83246238Y-102170252D01*
X83244654Y-102149885D01*
X83242695Y-102109590D01*
X83242109Y-102069829D01*
X83242605Y-102030540D01*
X83243893Y-101991660D01*
X83250802Y-101915986D01*
X83260272Y-101841677D01*
X83272085Y-101768610D01*
X83286026Y-101696660D01*
X83301876Y-101625702D01*
X83319420Y-101555611D01*
X83338439Y-101486264D01*
X83358718Y-101417535D01*
X83379910Y-101349407D01*
X83402146Y-101281903D01*
X83425325Y-101214954D01*
X83449348Y-101148493D01*
X83474115Y-101082454D01*
X83499527Y-101016770D01*
X83551884Y-100886198D01*
X83622417Y-100719705D01*
X83696161Y-100555133D01*
X83772864Y-100392340D01*
X83852275Y-100231187D01*
X83934142Y-100071534D01*
X84018211Y-99913242D01*
X84104231Y-99756170D01*
X84191911Y-99600246D01*
X84194193Y-99603498D01*
G37*
X84194193Y-99603498D02*
X84216151Y-99635969D01*
X84240715Y-99671483D01*
X84265675Y-99706691D01*
X84291064Y-99741565D01*
X84317734Y-99777241D01*
X84344818Y-99812577D01*
X84372310Y-99847573D01*
X84400205Y-99882228D01*
X84421620Y-99908082D01*
X84443369Y-99933635D01*
X84465343Y-99958988D01*
X84487435Y-99984238D01*
X84470557Y-100012116D01*
X84453473Y-100039888D01*
X84436447Y-100067689D01*
X84419739Y-100095652D01*
X84285178Y-100329747D01*
X84153690Y-100565039D01*
X84089812Y-100683380D01*
X84027559Y-100802316D01*
X83967217Y-100921944D01*
X83909072Y-101042364D01*
X83853257Y-101163083D01*
X83799492Y-101284914D01*
X83748630Y-101407526D01*
X83701527Y-101530592D01*
X83659038Y-101653782D01*
X83639791Y-101715320D01*
X83622018Y-101776766D01*
X83605825Y-101838079D01*
X83591320Y-101899217D01*
X83578610Y-101960140D01*
X83567801Y-102020805D01*
X83564567Y-102050270D01*
X83562065Y-102079427D01*
X83560382Y-102108122D01*
X83559605Y-102136202D01*
X83559820Y-102163512D01*
X83560327Y-102176831D01*
X83561114Y-102189900D01*
X83562193Y-102202700D01*
X83563573Y-102215212D01*
X83565267Y-102227416D01*
X83567284Y-102239294D01*
X83570034Y-102250728D01*
X83572937Y-102261438D01*
X83576011Y-102271455D01*
X83579274Y-102280812D01*
X83582745Y-102289539D01*
X83586441Y-102297669D01*
X83588379Y-102301519D01*
X83590380Y-102305233D01*
X83592446Y-102308812D01*
X83594580Y-102312263D01*
X83596783Y-102315587D01*
X83599059Y-102318790D01*
X83601408Y-102321876D01*
X83603835Y-102324848D01*
X83606340Y-102327710D01*
X83608926Y-102330466D01*
X83611595Y-102333121D01*
X83614350Y-102335677D01*
X83617192Y-102338140D01*
X83620125Y-102340513D01*
X83623149Y-102342800D01*
X83626268Y-102345005D01*
X83632799Y-102349185D01*
X83639734Y-102353085D01*
X83647548Y-102356856D01*
X83656077Y-102360229D01*
X83665282Y-102363207D01*
X83675121Y-102365787D01*
X83685552Y-102367971D01*
X83696535Y-102369758D01*
X83708028Y-102371148D01*
X83719990Y-102372141D01*
X83732380Y-102372738D01*
X83745157Y-102372938D01*
X83758279Y-102372740D01*
X83771705Y-102372146D01*
X83785395Y-102371154D01*
X83799306Y-102369766D01*
X83813398Y-102367980D01*
X83827630Y-102365797D01*
X83856413Y-102360654D01*
X83885570Y-102354408D01*
X83915032Y-102347146D01*
X83944735Y-102338955D01*
X83974611Y-102329920D01*
X84004595Y-102320129D01*
X84034619Y-102309666D01*
X84064618Y-102298618D01*
X84124859Y-102274036D01*
X84184741Y-102247788D01*
X84244273Y-102219981D01*
X84303468Y-102190724D01*
X84362335Y-102160123D01*
X84420885Y-102128288D01*
X84537077Y-102061345D01*
X84652128Y-101990755D01*
X84766122Y-101917381D01*
X84879144Y-101842086D01*
X84991280Y-101765731D01*
X85102258Y-101686689D01*
X85212558Y-101606377D01*
X85322199Y-101524873D01*
X85431201Y-101442251D01*
X85647364Y-101273957D01*
X85861201Y-101102102D01*
X85767273Y-101202340D01*
X85672341Y-101301749D01*
X85576295Y-101400191D01*
X85479020Y-101497530D01*
X85380407Y-101593629D01*
X85280342Y-101688350D01*
X85178713Y-101781557D01*
X85075409Y-101873114D01*
X85023365Y-101918548D01*
X84970800Y-101963536D01*
X84917690Y-102008028D01*
X84864009Y-102051975D01*
X84809733Y-102095326D01*
X84754837Y-102138032D01*
X84699295Y-102180043D01*
X84643084Y-102221310D01*
X84586235Y-102262092D01*
X84528711Y-102302191D01*
X84470381Y-102341473D01*
X84411115Y-102379800D01*
X84350782Y-102417035D01*
X84289252Y-102453042D01*
X84226395Y-102487685D01*
X84162080Y-102520827D01*
X84129147Y-102536530D01*
X84095766Y-102551793D01*
X84061839Y-102566474D01*
X84027266Y-102580430D01*
X83991950Y-102593518D01*
X83955790Y-102605595D01*
X83918689Y-102616518D01*
X83899754Y-102621502D01*
X83880547Y-102626144D01*
X83841660Y-102634265D01*
X83801233Y-102641103D01*
X83780457Y-102643826D01*
X83759316Y-102645971D01*
X83737814Y-102647450D01*
X83715959Y-102648178D01*
X83693757Y-102648069D01*
X83671214Y-102647037D01*
X83648336Y-102644996D01*
X83625130Y-102641859D01*
X83601601Y-102637540D01*
X83577757Y-102631954D01*
X83553604Y-102625015D01*
X83529147Y-102616635D01*
X83517116Y-102611672D01*
X83505227Y-102606308D01*
X83493475Y-102600545D01*
X83481853Y-102594385D01*
X83470355Y-102587827D01*
X83458974Y-102580874D01*
X83447706Y-102573526D01*
X83436543Y-102565785D01*
X83426476Y-102557283D01*
X83416524Y-102548476D01*
X83406697Y-102539408D01*
X83397008Y-102530122D01*
X83387468Y-102520662D01*
X83378088Y-102511073D01*
X83368880Y-102501398D01*
X83359855Y-102491681D01*
X83345605Y-102470474D01*
X83338566Y-102459757D01*
X83331637Y-102448980D01*
X83324858Y-102438153D01*
X83318266Y-102427287D01*
X83311900Y-102416394D01*
X83305801Y-102405485D01*
X83301289Y-102394721D01*
X83296874Y-102383871D01*
X83288308Y-102361957D01*
X83280039Y-102339845D01*
X83272005Y-102317635D01*
X83266498Y-102296010D01*
X83261660Y-102274588D01*
X83257454Y-102253361D01*
X83253846Y-102232322D01*
X83250798Y-102211462D01*
X83248274Y-102190775D01*
X83246238Y-102170252D01*
X83244654Y-102149885D01*
X83242695Y-102109590D01*
X83242109Y-102069829D01*
X83242605Y-102030540D01*
X83243893Y-101991660D01*
X83250802Y-101915986D01*
X83260272Y-101841677D01*
X83272085Y-101768610D01*
X83286026Y-101696660D01*
X83301876Y-101625702D01*
X83319420Y-101555611D01*
X83338439Y-101486264D01*
X83358718Y-101417535D01*
X83379910Y-101349407D01*
X83402146Y-101281903D01*
X83425325Y-101214954D01*
X83449348Y-101148493D01*
X83474115Y-101082454D01*
X83499527Y-101016770D01*
X83551884Y-100886198D01*
X83622417Y-100719705D01*
X83696161Y-100555133D01*
X83772864Y-100392340D01*
X83852275Y-100231187D01*
X83934142Y-100071534D01*
X84018211Y-99913242D01*
X84104231Y-99756170D01*
X84191911Y-99600246D01*
X84194193Y-99603498D01*
G36*
X103823017Y-94990833D02*
G01*
X103829791Y-94917365D01*
X103840949Y-94845886D01*
X103856382Y-94776424D01*
X103875979Y-94709008D01*
X103899633Y-94643666D01*
X103927234Y-94580426D01*
X103958673Y-94519317D01*
X103993841Y-94460368D01*
X104032630Y-94403607D01*
X104074930Y-94349063D01*
X104120632Y-94296763D01*
X104169627Y-94246738D01*
X104221807Y-94199014D01*
X104277061Y-94153620D01*
X104335282Y-94110586D01*
X104460187Y-94031708D01*
X104595648Y-93962607D01*
X104740793Y-93903512D01*
X104894752Y-93854651D01*
X105056651Y-93816251D01*
X105225618Y-93788540D01*
X105400782Y-93771747D01*
X105581270Y-93766098D01*
X105672591Y-93767515D01*
X105762631Y-93771747D01*
X105851283Y-93778765D01*
X105938442Y-93788540D01*
X106024002Y-93801045D01*
X106107856Y-93816251D01*
X106189898Y-93834129D01*
X106270022Y-93854651D01*
X106348122Y-93877788D01*
X106424093Y-93903512D01*
X106497827Y-93931795D01*
X106569219Y-93962607D01*
X106638163Y-93995921D01*
X106704552Y-94031708D01*
X106768281Y-94069939D01*
X106829244Y-94110586D01*
X106887333Y-94153620D01*
X106942444Y-94199014D01*
X106994470Y-94246738D01*
X107043305Y-94296763D01*
X107088843Y-94349063D01*
X107130977Y-94403607D01*
X107169603Y-94460368D01*
X107204613Y-94519317D01*
X107235901Y-94580426D01*
X107263362Y-94643666D01*
X107286890Y-94709008D01*
X107306377Y-94776424D01*
X107321719Y-94845886D01*
X107332808Y-94917365D01*
X107339540Y-94990833D01*
X107341807Y-95066261D01*
X107339538Y-95140804D01*
X107332803Y-95213499D01*
X107321706Y-95284313D01*
X107306355Y-95353211D01*
X107286857Y-95420158D01*
X107263317Y-95485122D01*
X107235842Y-95548068D01*
X107204538Y-95608962D01*
X107169512Y-95667771D01*
X107130871Y-95724459D01*
X107088720Y-95778993D01*
X107043165Y-95831340D01*
X106994314Y-95881464D01*
X106942273Y-95929332D01*
X106887148Y-95974911D01*
X106829045Y-96018165D01*
X106704333Y-96097566D01*
X106568987Y-96167263D01*
X106423858Y-96226984D01*
X106269799Y-96276457D01*
X106107659Y-96315409D01*
X105938290Y-96343569D01*
X105762544Y-96360664D01*
X105581270Y-96366423D01*
X105490415Y-96364979D01*
X105400782Y-96360670D01*
X105312480Y-96353529D01*
X105225618Y-96343590D01*
X105140305Y-96330887D01*
X105056651Y-96315454D01*
X104974763Y-96297324D01*
X104894752Y-96276531D01*
X104816725Y-96253109D01*
X104740793Y-96227091D01*
X104667064Y-96198511D01*
X104595648Y-96167403D01*
X104526652Y-96133800D01*
X104460187Y-96097737D01*
X104396360Y-96059247D01*
X104335282Y-96018364D01*
X104277061Y-95975121D01*
X104221807Y-95929552D01*
X104169627Y-95881691D01*
X104120632Y-95831572D01*
X104074930Y-95779228D01*
X104032630Y-95724693D01*
X103993841Y-95668001D01*
X103958673Y-95609186D01*
X103927234Y-95548280D01*
X103899633Y-95485319D01*
X103875979Y-95420335D01*
X103856382Y-95353363D01*
X103840949Y-95284435D01*
X103829791Y-95213587D01*
X103823017Y-95140851D01*
X103820750Y-95066790D01*
X104405992Y-95066790D01*
X104407434Y-95113605D01*
X104411720Y-95159281D01*
X104418796Y-95203795D01*
X104428602Y-95247125D01*
X104441084Y-95289248D01*
X104456183Y-95330140D01*
X104473843Y-95369780D01*
X104494007Y-95408144D01*
X104516618Y-95445209D01*
X104541620Y-95480954D01*
X104568955Y-95515355D01*
X104598566Y-95548389D01*
X104630397Y-95580033D01*
X104664391Y-95610265D01*
X104700490Y-95639062D01*
X104738639Y-95666402D01*
X104820856Y-95716617D01*
X104910586Y-95760727D01*
X105007375Y-95798551D01*
X105110767Y-95829906D01*
X105220308Y-95854611D01*
X105335542Y-95872482D01*
X105456014Y-95883339D01*
X105581270Y-95886998D01*
X105644468Y-95886080D01*
X105706527Y-95883339D01*
X105767389Y-95878799D01*
X105826999Y-95872482D01*
X105885300Y-95864412D01*
X105942233Y-95854611D01*
X105997744Y-95843101D01*
X106051774Y-95829906D01*
X106104267Y-95815048D01*
X106155166Y-95798551D01*
X106204415Y-95780436D01*
X106251955Y-95760727D01*
X106297731Y-95739446D01*
X106341685Y-95716617D01*
X106383761Y-95692261D01*
X106423902Y-95666402D01*
X106462051Y-95639062D01*
X106498150Y-95610265D01*
X106532144Y-95580033D01*
X106563975Y-95548389D01*
X106593586Y-95515355D01*
X106620921Y-95480954D01*
X106645923Y-95445209D01*
X106668534Y-95408144D01*
X106688698Y-95369780D01*
X106706358Y-95330140D01*
X106721457Y-95289248D01*
X106733938Y-95247125D01*
X106743745Y-95203795D01*
X106750820Y-95159281D01*
X106755107Y-95113605D01*
X106756549Y-95066790D01*
X106755107Y-95019137D01*
X106750820Y-94972729D01*
X106743745Y-94927584D01*
X106733938Y-94883720D01*
X106721457Y-94841154D01*
X106706358Y-94799903D01*
X106688698Y-94759985D01*
X106668534Y-94721418D01*
X106645923Y-94684219D01*
X106620921Y-94648405D01*
X106593586Y-94613995D01*
X106563975Y-94581006D01*
X106532144Y-94549455D01*
X106498150Y-94519359D01*
X106462051Y-94490737D01*
X106423902Y-94463606D01*
X106341685Y-94413887D01*
X106251955Y-94370342D01*
X106155166Y-94333111D01*
X106051774Y-94302334D01*
X105942233Y-94278153D01*
X105826999Y-94260707D01*
X105706527Y-94250136D01*
X105581270Y-94246582D01*
X105518073Y-94247473D01*
X105456014Y-94250136D01*
X105395152Y-94254553D01*
X105335542Y-94260707D01*
X105277242Y-94268579D01*
X105220308Y-94278153D01*
X105164797Y-94289411D01*
X105110767Y-94302334D01*
X105058274Y-94316907D01*
X105007375Y-94333111D01*
X104958127Y-94350928D01*
X104910586Y-94370342D01*
X104864810Y-94391334D01*
X104820856Y-94413887D01*
X104778780Y-94437984D01*
X104738639Y-94463606D01*
X104700490Y-94490737D01*
X104664391Y-94519359D01*
X104630397Y-94549455D01*
X104598566Y-94581006D01*
X104568955Y-94613995D01*
X104541620Y-94648405D01*
X104516618Y-94684219D01*
X104494007Y-94721418D01*
X104473843Y-94759985D01*
X104456183Y-94799903D01*
X104441084Y-94841154D01*
X104428602Y-94883720D01*
X104418796Y-94927584D01*
X104411720Y-94972729D01*
X104407434Y-95019137D01*
X104405992Y-95066790D01*
X103820750Y-95066790D01*
X103820734Y-95066261D01*
X103823017Y-94990833D01*
G37*
X103823017Y-94990833D02*
X103829791Y-94917365D01*
X103840949Y-94845886D01*
X103856382Y-94776424D01*
X103875979Y-94709008D01*
X103899633Y-94643666D01*
X103927234Y-94580426D01*
X103958673Y-94519317D01*
X103993841Y-94460368D01*
X104032630Y-94403607D01*
X104074930Y-94349063D01*
X104120632Y-94296763D01*
X104169627Y-94246738D01*
X104221807Y-94199014D01*
X104277061Y-94153620D01*
X104335282Y-94110586D01*
X104460187Y-94031708D01*
X104595648Y-93962607D01*
X104740793Y-93903512D01*
X104894752Y-93854651D01*
X105056651Y-93816251D01*
X105225618Y-93788540D01*
X105400782Y-93771747D01*
X105581270Y-93766098D01*
X105672591Y-93767515D01*
X105762631Y-93771747D01*
X105851283Y-93778765D01*
X105938442Y-93788540D01*
X106024002Y-93801045D01*
X106107856Y-93816251D01*
X106189898Y-93834129D01*
X106270022Y-93854651D01*
X106348122Y-93877788D01*
X106424093Y-93903512D01*
X106497827Y-93931795D01*
X106569219Y-93962607D01*
X106638163Y-93995921D01*
X106704552Y-94031708D01*
X106768281Y-94069939D01*
X106829244Y-94110586D01*
X106887333Y-94153620D01*
X106942444Y-94199014D01*
X106994470Y-94246738D01*
X107043305Y-94296763D01*
X107088843Y-94349063D01*
X107130977Y-94403607D01*
X107169603Y-94460368D01*
X107204613Y-94519317D01*
X107235901Y-94580426D01*
X107263362Y-94643666D01*
X107286890Y-94709008D01*
X107306377Y-94776424D01*
X107321719Y-94845886D01*
X107332808Y-94917365D01*
X107339540Y-94990833D01*
X107341807Y-95066261D01*
X107339538Y-95140804D01*
X107332803Y-95213499D01*
X107321706Y-95284313D01*
X107306355Y-95353211D01*
X107286857Y-95420158D01*
X107263317Y-95485122D01*
X107235842Y-95548068D01*
X107204538Y-95608962D01*
X107169512Y-95667771D01*
X107130871Y-95724459D01*
X107088720Y-95778993D01*
X107043165Y-95831340D01*
X106994314Y-95881464D01*
X106942273Y-95929332D01*
X106887148Y-95974911D01*
X106829045Y-96018165D01*
X106704333Y-96097566D01*
X106568987Y-96167263D01*
X106423858Y-96226984D01*
X106269799Y-96276457D01*
X106107659Y-96315409D01*
X105938290Y-96343569D01*
X105762544Y-96360664D01*
X105581270Y-96366423D01*
X105490415Y-96364979D01*
X105400782Y-96360670D01*
X105312480Y-96353529D01*
X105225618Y-96343590D01*
X105140305Y-96330887D01*
X105056651Y-96315454D01*
X104974763Y-96297324D01*
X104894752Y-96276531D01*
X104816725Y-96253109D01*
X104740793Y-96227091D01*
X104667064Y-96198511D01*
X104595648Y-96167403D01*
X104526652Y-96133800D01*
X104460187Y-96097737D01*
X104396360Y-96059247D01*
X104335282Y-96018364D01*
X104277061Y-95975121D01*
X104221807Y-95929552D01*
X104169627Y-95881691D01*
X104120632Y-95831572D01*
X104074930Y-95779228D01*
X104032630Y-95724693D01*
X103993841Y-95668001D01*
X103958673Y-95609186D01*
X103927234Y-95548280D01*
X103899633Y-95485319D01*
X103875979Y-95420335D01*
X103856382Y-95353363D01*
X103840949Y-95284435D01*
X103829791Y-95213587D01*
X103823017Y-95140851D01*
X103820750Y-95066790D01*
X104405992Y-95066790D01*
X104407434Y-95113605D01*
X104411720Y-95159281D01*
X104418796Y-95203795D01*
X104428602Y-95247125D01*
X104441084Y-95289248D01*
X104456183Y-95330140D01*
X104473843Y-95369780D01*
X104494007Y-95408144D01*
X104516618Y-95445209D01*
X104541620Y-95480954D01*
X104568955Y-95515355D01*
X104598566Y-95548389D01*
X104630397Y-95580033D01*
X104664391Y-95610265D01*
X104700490Y-95639062D01*
X104738639Y-95666402D01*
X104820856Y-95716617D01*
X104910586Y-95760727D01*
X105007375Y-95798551D01*
X105110767Y-95829906D01*
X105220308Y-95854611D01*
X105335542Y-95872482D01*
X105456014Y-95883339D01*
X105581270Y-95886998D01*
X105644468Y-95886080D01*
X105706527Y-95883339D01*
X105767389Y-95878799D01*
X105826999Y-95872482D01*
X105885300Y-95864412D01*
X105942233Y-95854611D01*
X105997744Y-95843101D01*
X106051774Y-95829906D01*
X106104267Y-95815048D01*
X106155166Y-95798551D01*
X106204415Y-95780436D01*
X106251955Y-95760727D01*
X106297731Y-95739446D01*
X106341685Y-95716617D01*
X106383761Y-95692261D01*
X106423902Y-95666402D01*
X106462051Y-95639062D01*
X106498150Y-95610265D01*
X106532144Y-95580033D01*
X106563975Y-95548389D01*
X106593586Y-95515355D01*
X106620921Y-95480954D01*
X106645923Y-95445209D01*
X106668534Y-95408144D01*
X106688698Y-95369780D01*
X106706358Y-95330140D01*
X106721457Y-95289248D01*
X106733938Y-95247125D01*
X106743745Y-95203795D01*
X106750820Y-95159281D01*
X106755107Y-95113605D01*
X106756549Y-95066790D01*
X106755107Y-95019137D01*
X106750820Y-94972729D01*
X106743745Y-94927584D01*
X106733938Y-94883720D01*
X106721457Y-94841154D01*
X106706358Y-94799903D01*
X106688698Y-94759985D01*
X106668534Y-94721418D01*
X106645923Y-94684219D01*
X106620921Y-94648405D01*
X106593586Y-94613995D01*
X106563975Y-94581006D01*
X106532144Y-94549455D01*
X106498150Y-94519359D01*
X106462051Y-94490737D01*
X106423902Y-94463606D01*
X106341685Y-94413887D01*
X106251955Y-94370342D01*
X106155166Y-94333111D01*
X106051774Y-94302334D01*
X105942233Y-94278153D01*
X105826999Y-94260707D01*
X105706527Y-94250136D01*
X105581270Y-94246582D01*
X105518073Y-94247473D01*
X105456014Y-94250136D01*
X105395152Y-94254553D01*
X105335542Y-94260707D01*
X105277242Y-94268579D01*
X105220308Y-94278153D01*
X105164797Y-94289411D01*
X105110767Y-94302334D01*
X105058274Y-94316907D01*
X105007375Y-94333111D01*
X104958127Y-94350928D01*
X104910586Y-94370342D01*
X104864810Y-94391334D01*
X104820856Y-94413887D01*
X104778780Y-94437984D01*
X104738639Y-94463606D01*
X104700490Y-94490737D01*
X104664391Y-94519359D01*
X104630397Y-94549455D01*
X104598566Y-94581006D01*
X104568955Y-94613995D01*
X104541620Y-94648405D01*
X104516618Y-94684219D01*
X104494007Y-94721418D01*
X104473843Y-94759985D01*
X104456183Y-94799903D01*
X104441084Y-94841154D01*
X104428602Y-94883720D01*
X104418796Y-94927584D01*
X104411720Y-94972729D01*
X104407434Y-95019137D01*
X104405992Y-95066790D01*
X103820750Y-95066790D01*
X103820734Y-95066261D01*
X103823017Y-94990833D01*
G36*
X119250511Y-93766451D02*
G01*
X119332131Y-93769100D01*
X119412020Y-93773525D01*
X119490242Y-93779732D01*
X119566860Y-93787728D01*
X119641940Y-93797520D01*
X119715546Y-93809115D01*
X119787741Y-93822520D01*
X119858591Y-93837742D01*
X119928160Y-93854788D01*
X119996511Y-93873665D01*
X120063710Y-93894380D01*
X120129821Y-93916939D01*
X120194908Y-93941350D01*
X120259035Y-93967621D01*
X120322267Y-93995756D01*
X120322267Y-94511165D01*
X120274432Y-94484240D01*
X120223055Y-94457940D01*
X120168216Y-94432418D01*
X120109996Y-94407829D01*
X120048473Y-94384324D01*
X119983728Y-94362058D01*
X119915841Y-94341184D01*
X119844891Y-94321856D01*
X119770959Y-94304226D01*
X119694123Y-94288450D01*
X119614464Y-94274679D01*
X119532062Y-94263068D01*
X119446997Y-94253771D01*
X119359348Y-94246939D01*
X119269195Y-94242728D01*
X119176619Y-94241290D01*
X119104868Y-94242195D01*
X119034989Y-94244898D01*
X118967008Y-94249379D01*
X118900952Y-94255620D01*
X118836847Y-94263600D01*
X118774720Y-94273301D01*
X118714598Y-94284703D01*
X118656508Y-94297787D01*
X118600475Y-94312533D01*
X118546527Y-94328923D01*
X118494690Y-94346938D01*
X118444991Y-94366557D01*
X118397457Y-94387761D01*
X118352114Y-94410532D01*
X118308989Y-94434850D01*
X118268108Y-94460696D01*
X118229499Y-94488050D01*
X118193187Y-94516893D01*
X118159200Y-94547206D01*
X118127564Y-94578970D01*
X118098306Y-94612164D01*
X118071452Y-94646771D01*
X118047029Y-94682771D01*
X118025064Y-94720144D01*
X118005583Y-94758872D01*
X117988613Y-94798934D01*
X117974181Y-94840312D01*
X117962313Y-94882986D01*
X117953036Y-94926937D01*
X117946376Y-94972146D01*
X117942361Y-95018594D01*
X117941017Y-95066261D01*
X117942347Y-95113976D01*
X117946322Y-95160468D01*
X117952922Y-95205719D01*
X117962125Y-95249710D01*
X117973910Y-95292421D01*
X117988257Y-95333833D01*
X118005144Y-95373926D01*
X118024551Y-95412683D01*
X118046456Y-95450083D01*
X118070838Y-95486107D01*
X118097676Y-95520736D01*
X118126950Y-95553952D01*
X118158637Y-95585734D01*
X118192718Y-95616063D01*
X118229171Y-95644921D01*
X118267976Y-95672289D01*
X118352553Y-95722474D01*
X118446283Y-95766466D01*
X118548997Y-95804111D01*
X118660526Y-95835255D01*
X118780704Y-95859746D01*
X118909360Y-95877430D01*
X119046328Y-95888152D01*
X119191438Y-95891761D01*
X119279970Y-95890494D01*
X119367213Y-95886787D01*
X119452932Y-95880780D01*
X119536892Y-95872611D01*
X119618859Y-95862421D01*
X119698597Y-95850349D01*
X119775872Y-95836534D01*
X119850448Y-95821117D01*
X119922091Y-95804236D01*
X119990567Y-95786030D01*
X120055639Y-95766641D01*
X120117074Y-95746207D01*
X120174635Y-95724867D01*
X120228090Y-95702761D01*
X120277202Y-95680029D01*
X120321736Y-95656810D01*
X120321736Y-96142585D01*
X120258452Y-96169790D01*
X120194182Y-96195245D01*
X120128883Y-96218949D01*
X120062511Y-96240903D01*
X119995022Y-96261105D01*
X119926374Y-96279554D01*
X119856523Y-96296250D01*
X119785425Y-96311191D01*
X119713038Y-96324378D01*
X119639317Y-96335809D01*
X119564220Y-96345483D01*
X119487703Y-96353401D01*
X119409722Y-96359560D01*
X119330235Y-96363960D01*
X119249197Y-96366601D01*
X119166566Y-96367481D01*
X119063277Y-96366121D01*
X118962497Y-96362054D01*
X118864277Y-96355295D01*
X118768667Y-96345863D01*
X118675717Y-96333775D01*
X118585479Y-96319048D01*
X118498003Y-96301700D01*
X118413338Y-96281748D01*
X118331536Y-96259209D01*
X118252648Y-96234101D01*
X118176722Y-96206441D01*
X118103811Y-96176246D01*
X118033965Y-96143535D01*
X117967233Y-96108323D01*
X117903667Y-96070628D01*
X117843317Y-96030468D01*
X117786234Y-95987861D01*
X117732467Y-95942822D01*
X117682068Y-95895371D01*
X117635087Y-95845524D01*
X117591574Y-95793298D01*
X117551580Y-95738711D01*
X117515156Y-95681780D01*
X117482351Y-95622522D01*
X117453216Y-95560956D01*
X117427803Y-95497097D01*
X117406160Y-95430964D01*
X117388340Y-95362574D01*
X117374392Y-95291944D01*
X117364366Y-95219092D01*
X117358314Y-95144035D01*
X117356285Y-95066790D01*
X117356288Y-95066790D01*
X117358317Y-94989545D01*
X117364369Y-94914487D01*
X117374395Y-94841634D01*
X117388344Y-94771004D01*
X117406165Y-94702613D01*
X117427809Y-94636479D01*
X117453225Y-94572618D01*
X117482362Y-94511049D01*
X117515170Y-94451788D01*
X117551599Y-94394853D01*
X117591598Y-94340260D01*
X117635117Y-94288028D01*
X117682106Y-94238173D01*
X117732513Y-94190713D01*
X117786290Y-94145664D01*
X117843385Y-94103045D01*
X117903748Y-94062872D01*
X117967329Y-94025163D01*
X118034077Y-93989934D01*
X118103941Y-93957204D01*
X118252820Y-93899306D01*
X118413561Y-93851608D01*
X118585763Y-93814247D01*
X118769021Y-93787362D01*
X118962932Y-93771090D01*
X119167094Y-93765569D01*
X119250511Y-93766451D01*
G37*
X119250511Y-93766451D02*
X119332131Y-93769100D01*
X119412020Y-93773525D01*
X119490242Y-93779732D01*
X119566860Y-93787728D01*
X119641940Y-93797520D01*
X119715546Y-93809115D01*
X119787741Y-93822520D01*
X119858591Y-93837742D01*
X119928160Y-93854788D01*
X119996511Y-93873665D01*
X120063710Y-93894380D01*
X120129821Y-93916939D01*
X120194908Y-93941350D01*
X120259035Y-93967621D01*
X120322267Y-93995756D01*
X120322267Y-94511165D01*
X120274432Y-94484240D01*
X120223055Y-94457940D01*
X120168216Y-94432418D01*
X120109996Y-94407829D01*
X120048473Y-94384324D01*
X119983728Y-94362058D01*
X119915841Y-94341184D01*
X119844891Y-94321856D01*
X119770959Y-94304226D01*
X119694123Y-94288450D01*
X119614464Y-94274679D01*
X119532062Y-94263068D01*
X119446997Y-94253771D01*
X119359348Y-94246939D01*
X119269195Y-94242728D01*
X119176619Y-94241290D01*
X119104868Y-94242195D01*
X119034989Y-94244898D01*
X118967008Y-94249379D01*
X118900952Y-94255620D01*
X118836847Y-94263600D01*
X118774720Y-94273301D01*
X118714598Y-94284703D01*
X118656508Y-94297787D01*
X118600475Y-94312533D01*
X118546527Y-94328923D01*
X118494690Y-94346938D01*
X118444991Y-94366557D01*
X118397457Y-94387761D01*
X118352114Y-94410532D01*
X118308989Y-94434850D01*
X118268108Y-94460696D01*
X118229499Y-94488050D01*
X118193187Y-94516893D01*
X118159200Y-94547206D01*
X118127564Y-94578970D01*
X118098306Y-94612164D01*
X118071452Y-94646771D01*
X118047029Y-94682771D01*
X118025064Y-94720144D01*
X118005583Y-94758872D01*
X117988613Y-94798934D01*
X117974181Y-94840312D01*
X117962313Y-94882986D01*
X117953036Y-94926937D01*
X117946376Y-94972146D01*
X117942361Y-95018594D01*
X117941017Y-95066261D01*
X117942347Y-95113976D01*
X117946322Y-95160468D01*
X117952922Y-95205719D01*
X117962125Y-95249710D01*
X117973910Y-95292421D01*
X117988257Y-95333833D01*
X118005144Y-95373926D01*
X118024551Y-95412683D01*
X118046456Y-95450083D01*
X118070838Y-95486107D01*
X118097676Y-95520736D01*
X118126950Y-95553952D01*
X118158637Y-95585734D01*
X118192718Y-95616063D01*
X118229171Y-95644921D01*
X118267976Y-95672289D01*
X118352553Y-95722474D01*
X118446283Y-95766466D01*
X118548997Y-95804111D01*
X118660526Y-95835255D01*
X118780704Y-95859746D01*
X118909360Y-95877430D01*
X119046328Y-95888152D01*
X119191438Y-95891761D01*
X119279970Y-95890494D01*
X119367213Y-95886787D01*
X119452932Y-95880780D01*
X119536892Y-95872611D01*
X119618859Y-95862421D01*
X119698597Y-95850349D01*
X119775872Y-95836534D01*
X119850448Y-95821117D01*
X119922091Y-95804236D01*
X119990567Y-95786030D01*
X120055639Y-95766641D01*
X120117074Y-95746207D01*
X120174635Y-95724867D01*
X120228090Y-95702761D01*
X120277202Y-95680029D01*
X120321736Y-95656810D01*
X120321736Y-96142585D01*
X120258452Y-96169790D01*
X120194182Y-96195245D01*
X120128883Y-96218949D01*
X120062511Y-96240903D01*
X119995022Y-96261105D01*
X119926374Y-96279554D01*
X119856523Y-96296250D01*
X119785425Y-96311191D01*
X119713038Y-96324378D01*
X119639317Y-96335809D01*
X119564220Y-96345483D01*
X119487703Y-96353401D01*
X119409722Y-96359560D01*
X119330235Y-96363960D01*
X119249197Y-96366601D01*
X119166566Y-96367481D01*
X119063277Y-96366121D01*
X118962497Y-96362054D01*
X118864277Y-96355295D01*
X118768667Y-96345863D01*
X118675717Y-96333775D01*
X118585479Y-96319048D01*
X118498003Y-96301700D01*
X118413338Y-96281748D01*
X118331536Y-96259209D01*
X118252648Y-96234101D01*
X118176722Y-96206441D01*
X118103811Y-96176246D01*
X118033965Y-96143535D01*
X117967233Y-96108323D01*
X117903667Y-96070628D01*
X117843317Y-96030468D01*
X117786234Y-95987861D01*
X117732467Y-95942822D01*
X117682068Y-95895371D01*
X117635087Y-95845524D01*
X117591574Y-95793298D01*
X117551580Y-95738711D01*
X117515156Y-95681780D01*
X117482351Y-95622522D01*
X117453216Y-95560956D01*
X117427803Y-95497097D01*
X117406160Y-95430964D01*
X117388340Y-95362574D01*
X117374392Y-95291944D01*
X117364366Y-95219092D01*
X117358314Y-95144035D01*
X117356285Y-95066790D01*
X117356288Y-95066790D01*
X117358317Y-94989545D01*
X117364369Y-94914487D01*
X117374395Y-94841634D01*
X117388344Y-94771004D01*
X117406165Y-94702613D01*
X117427809Y-94636479D01*
X117453225Y-94572618D01*
X117482362Y-94511049D01*
X117515170Y-94451788D01*
X117551599Y-94394853D01*
X117591598Y-94340260D01*
X117635117Y-94288028D01*
X117682106Y-94238173D01*
X117732513Y-94190713D01*
X117786290Y-94145664D01*
X117843385Y-94103045D01*
X117903748Y-94062872D01*
X117967329Y-94025163D01*
X118034077Y-93989934D01*
X118103941Y-93957204D01*
X118252820Y-93899306D01*
X118413561Y-93851608D01*
X118585763Y-93814247D01*
X118769021Y-93787362D01*
X118962932Y-93771090D01*
X119167094Y-93765569D01*
X119250511Y-93766451D01*
G36*
X109287952Y-93766953D02*
G01*
X109381758Y-93769415D01*
X109473870Y-93773329D01*
X109563904Y-93778542D01*
X109736215Y-93792245D01*
X109895634Y-93809291D01*
X110039103Y-93828446D01*
X110163566Y-93848474D01*
X110265964Y-93868144D01*
X110343242Y-93886219D01*
X110318373Y-94341302D01*
X110228036Y-94317454D01*
X110126202Y-94295075D01*
X110013033Y-94274692D01*
X109888689Y-94256834D01*
X109753332Y-94242027D01*
X109607123Y-94230797D01*
X109450222Y-94223673D01*
X109282793Y-94221182D01*
X109200297Y-94221806D01*
X109118348Y-94223820D01*
X109037605Y-94227436D01*
X108958727Y-94232865D01*
X108882373Y-94240318D01*
X108809202Y-94250008D01*
X108739873Y-94262145D01*
X108706854Y-94269198D01*
X108675044Y-94276942D01*
X108644523Y-94285404D01*
X108615374Y-94294611D01*
X108587680Y-94304588D01*
X108561522Y-94315362D01*
X108536984Y-94326960D01*
X108514148Y-94339407D01*
X108493096Y-94352731D01*
X108473910Y-94366959D01*
X108456672Y-94382115D01*
X108441466Y-94398228D01*
X108428374Y-94415322D01*
X108417477Y-94433426D01*
X108408858Y-94452565D01*
X108402600Y-94472765D01*
X108398784Y-94494054D01*
X108397494Y-94516457D01*
X108397497Y-94516457D01*
X108403668Y-94561913D01*
X108421655Y-94601113D01*
X108450670Y-94634600D01*
X108489925Y-94662916D01*
X108538633Y-94686604D01*
X108596005Y-94706208D01*
X108661255Y-94722270D01*
X108733593Y-94735333D01*
X108896385Y-94754636D01*
X109078080Y-94768460D01*
X109472964Y-94797047D01*
X109673547Y-94820498D01*
X109867822Y-94855847D01*
X109960624Y-94879339D01*
X110049486Y-94907436D01*
X110133618Y-94940678D01*
X110212235Y-94979610D01*
X110284546Y-95024773D01*
X110349766Y-95076712D01*
X110407106Y-95135969D01*
X110455778Y-95203087D01*
X110494995Y-95278610D01*
X110523967Y-95363079D01*
X110541909Y-95457039D01*
X110548031Y-95561031D01*
X110545873Y-95624518D01*
X110539492Y-95684662D01*
X110529033Y-95741551D01*
X110514639Y-95795272D01*
X110496455Y-95845912D01*
X110474623Y-95893558D01*
X110449288Y-95938296D01*
X110420593Y-95980214D01*
X110388682Y-96019399D01*
X110353699Y-96055938D01*
X110315787Y-96089918D01*
X110275090Y-96121425D01*
X110231752Y-96150548D01*
X110185916Y-96177372D01*
X110087326Y-96224474D01*
X109980470Y-96263428D01*
X109866497Y-96294930D01*
X109746558Y-96319675D01*
X109621800Y-96338361D01*
X109493375Y-96351682D01*
X109362432Y-96360336D01*
X109230119Y-96365017D01*
X109097587Y-96366423D01*
X108934215Y-96364591D01*
X108768016Y-96359205D01*
X108600873Y-96350433D01*
X108434674Y-96338443D01*
X108271302Y-96323402D01*
X108112643Y-96305478D01*
X107960582Y-96284837D01*
X107817004Y-96261648D01*
X107837112Y-95806565D01*
X107984302Y-95831296D01*
X108129997Y-95852710D01*
X108275085Y-95870812D01*
X108420451Y-95885609D01*
X108566984Y-95897107D01*
X108715569Y-95905312D01*
X108867093Y-95910231D01*
X109022444Y-95911869D01*
X109119285Y-95911125D01*
X109214332Y-95908750D01*
X109306972Y-95904523D01*
X109396590Y-95898226D01*
X109482571Y-95889641D01*
X109564300Y-95878550D01*
X109641163Y-95864733D01*
X109677577Y-95856734D01*
X109712544Y-95847972D01*
X109745987Y-95838419D01*
X109777830Y-95828048D01*
X109807995Y-95816832D01*
X109836405Y-95804744D01*
X109862984Y-95791755D01*
X109887655Y-95777839D01*
X109910341Y-95762969D01*
X109930966Y-95747116D01*
X109949451Y-95730254D01*
X109965722Y-95712356D01*
X109979699Y-95693394D01*
X109991308Y-95673341D01*
X110000471Y-95652169D01*
X110007111Y-95629851D01*
X110011151Y-95606360D01*
X110012515Y-95581669D01*
X110006332Y-95532184D01*
X109988310Y-95489326D01*
X109959238Y-95452541D01*
X109919905Y-95421275D01*
X109871100Y-95394972D01*
X109813613Y-95373080D01*
X109748233Y-95355045D01*
X109675750Y-95340311D01*
X109512629Y-95318533D01*
X109330565Y-95303314D01*
X108934866Y-95274818D01*
X108733859Y-95252676D01*
X108539167Y-95219360D01*
X108446162Y-95197127D01*
X108357103Y-95170438D01*
X108272780Y-95138738D01*
X108193983Y-95101475D01*
X108121499Y-95058093D01*
X108056119Y-95008040D01*
X107998632Y-94950759D01*
X107949828Y-94885698D01*
X107910495Y-94812302D01*
X107881422Y-94730017D01*
X107863400Y-94638290D01*
X107857217Y-94536565D01*
X107859445Y-94474482D01*
X107866008Y-94415768D01*
X107876728Y-94360330D01*
X107891427Y-94308078D01*
X107909926Y-94258920D01*
X107932045Y-94212764D01*
X107957607Y-94169517D01*
X107986433Y-94129090D01*
X108018344Y-94091389D01*
X108053161Y-94056324D01*
X108090706Y-94023802D01*
X108130801Y-93993733D01*
X108173265Y-93966023D01*
X108217921Y-93940583D01*
X108313094Y-93896141D01*
X108414890Y-93859674D01*
X108521880Y-93830448D01*
X108632633Y-93807730D01*
X108745721Y-93790787D01*
X108859715Y-93778886D01*
X108973185Y-93771293D01*
X109084701Y-93767274D01*
X109192834Y-93766098D01*
X109287952Y-93766953D01*
G37*
X109287952Y-93766953D02*
X109381758Y-93769415D01*
X109473870Y-93773329D01*
X109563904Y-93778542D01*
X109736215Y-93792245D01*
X109895634Y-93809291D01*
X110039103Y-93828446D01*
X110163566Y-93848474D01*
X110265964Y-93868144D01*
X110343242Y-93886219D01*
X110318373Y-94341302D01*
X110228036Y-94317454D01*
X110126202Y-94295075D01*
X110013033Y-94274692D01*
X109888689Y-94256834D01*
X109753332Y-94242027D01*
X109607123Y-94230797D01*
X109450222Y-94223673D01*
X109282793Y-94221182D01*
X109200297Y-94221806D01*
X109118348Y-94223820D01*
X109037605Y-94227436D01*
X108958727Y-94232865D01*
X108882373Y-94240318D01*
X108809202Y-94250008D01*
X108739873Y-94262145D01*
X108706854Y-94269198D01*
X108675044Y-94276942D01*
X108644523Y-94285404D01*
X108615374Y-94294611D01*
X108587680Y-94304588D01*
X108561522Y-94315362D01*
X108536984Y-94326960D01*
X108514148Y-94339407D01*
X108493096Y-94352731D01*
X108473910Y-94366959D01*
X108456672Y-94382115D01*
X108441466Y-94398228D01*
X108428374Y-94415322D01*
X108417477Y-94433426D01*
X108408858Y-94452565D01*
X108402600Y-94472765D01*
X108398784Y-94494054D01*
X108397494Y-94516457D01*
X108397497Y-94516457D01*
X108403668Y-94561913D01*
X108421655Y-94601113D01*
X108450670Y-94634600D01*
X108489925Y-94662916D01*
X108538633Y-94686604D01*
X108596005Y-94706208D01*
X108661255Y-94722270D01*
X108733593Y-94735333D01*
X108896385Y-94754636D01*
X109078080Y-94768460D01*
X109472964Y-94797047D01*
X109673547Y-94820498D01*
X109867822Y-94855847D01*
X109960624Y-94879339D01*
X110049486Y-94907436D01*
X110133618Y-94940678D01*
X110212235Y-94979610D01*
X110284546Y-95024773D01*
X110349766Y-95076712D01*
X110407106Y-95135969D01*
X110455778Y-95203087D01*
X110494995Y-95278610D01*
X110523967Y-95363079D01*
X110541909Y-95457039D01*
X110548031Y-95561031D01*
X110545873Y-95624518D01*
X110539492Y-95684662D01*
X110529033Y-95741551D01*
X110514639Y-95795272D01*
X110496455Y-95845912D01*
X110474623Y-95893558D01*
X110449288Y-95938296D01*
X110420593Y-95980214D01*
X110388682Y-96019399D01*
X110353699Y-96055938D01*
X110315787Y-96089918D01*
X110275090Y-96121425D01*
X110231752Y-96150548D01*
X110185916Y-96177372D01*
X110087326Y-96224474D01*
X109980470Y-96263428D01*
X109866497Y-96294930D01*
X109746558Y-96319675D01*
X109621800Y-96338361D01*
X109493375Y-96351682D01*
X109362432Y-96360336D01*
X109230119Y-96365017D01*
X109097587Y-96366423D01*
X108934215Y-96364591D01*
X108768016Y-96359205D01*
X108600873Y-96350433D01*
X108434674Y-96338443D01*
X108271302Y-96323402D01*
X108112643Y-96305478D01*
X107960582Y-96284837D01*
X107817004Y-96261648D01*
X107837112Y-95806565D01*
X107984302Y-95831296D01*
X108129997Y-95852710D01*
X108275085Y-95870812D01*
X108420451Y-95885609D01*
X108566984Y-95897107D01*
X108715569Y-95905312D01*
X108867093Y-95910231D01*
X109022444Y-95911869D01*
X109119285Y-95911125D01*
X109214332Y-95908750D01*
X109306972Y-95904523D01*
X109396590Y-95898226D01*
X109482571Y-95889641D01*
X109564300Y-95878550D01*
X109641163Y-95864733D01*
X109677577Y-95856734D01*
X109712544Y-95847972D01*
X109745987Y-95838419D01*
X109777830Y-95828048D01*
X109807995Y-95816832D01*
X109836405Y-95804744D01*
X109862984Y-95791755D01*
X109887655Y-95777839D01*
X109910341Y-95762969D01*
X109930966Y-95747116D01*
X109949451Y-95730254D01*
X109965722Y-95712356D01*
X109979699Y-95693394D01*
X109991308Y-95673341D01*
X110000471Y-95652169D01*
X110007111Y-95629851D01*
X110011151Y-95606360D01*
X110012515Y-95581669D01*
X110006332Y-95532184D01*
X109988310Y-95489326D01*
X109959238Y-95452541D01*
X109919905Y-95421275D01*
X109871100Y-95394972D01*
X109813613Y-95373080D01*
X109748233Y-95355045D01*
X109675750Y-95340311D01*
X109512629Y-95318533D01*
X109330565Y-95303314D01*
X108934866Y-95274818D01*
X108733859Y-95252676D01*
X108539167Y-95219360D01*
X108446162Y-95197127D01*
X108357103Y-95170438D01*
X108272780Y-95138738D01*
X108193983Y-95101475D01*
X108121499Y-95058093D01*
X108056119Y-95008040D01*
X107998632Y-94950759D01*
X107949828Y-94885698D01*
X107910495Y-94812302D01*
X107881422Y-94730017D01*
X107863400Y-94638290D01*
X107857217Y-94536565D01*
X107859445Y-94474482D01*
X107866008Y-94415768D01*
X107876728Y-94360330D01*
X107891427Y-94308078D01*
X107909926Y-94258920D01*
X107932045Y-94212764D01*
X107957607Y-94169517D01*
X107986433Y-94129090D01*
X108018344Y-94091389D01*
X108053161Y-94056324D01*
X108090706Y-94023802D01*
X108130801Y-93993733D01*
X108173265Y-93966023D01*
X108217921Y-93940583D01*
X108313094Y-93896141D01*
X108414890Y-93859674D01*
X108521880Y-93830448D01*
X108632633Y-93807730D01*
X108745721Y-93790787D01*
X108859715Y-93778886D01*
X108973185Y-93771293D01*
X109084701Y-93767274D01*
X109192834Y-93766098D01*
X109287952Y-93766953D01*
G36*
X87044384Y-96427555D02*
G01*
X86864793Y-96648057D01*
X86686823Y-96869908D01*
X86510331Y-97092947D01*
X86335190Y-97316994D01*
X85699263Y-97316994D01*
X85699785Y-97312331D01*
X85776113Y-97208996D01*
X85852726Y-97105861D01*
X86141438Y-96734656D01*
X86288053Y-96550776D01*
X86436196Y-96368092D01*
X86585884Y-96186640D01*
X86737134Y-96006456D01*
X86889962Y-95827574D01*
X87044384Y-95650032D01*
X87044384Y-96427555D01*
G37*
X87044384Y-96427555D02*
X86864793Y-96648057D01*
X86686823Y-96869908D01*
X86510331Y-97092947D01*
X86335190Y-97316994D01*
X85699263Y-97316994D01*
X85699785Y-97312331D01*
X85776113Y-97208996D01*
X85852726Y-97105861D01*
X86141438Y-96734656D01*
X86288053Y-96550776D01*
X86436196Y-96368092D01*
X86585884Y-96186640D01*
X86737134Y-96006456D01*
X86889962Y-95827574D01*
X87044384Y-95650032D01*
X87044384Y-96427555D01*
G36*
X114224678Y-99320760D02*
G01*
X112233954Y-99320760D01*
X112233954Y-99930890D01*
X113864845Y-99930890D01*
X113864845Y-100326177D01*
X112233954Y-100326177D01*
X112233954Y-100965940D01*
X114224678Y-100965940D01*
X114224678Y-101396153D01*
X111688911Y-101396153D01*
X111688911Y-98885256D01*
X114224678Y-98885256D01*
X114224678Y-99320760D01*
G37*
X114224678Y-99320760D02*
X112233954Y-99320760D01*
X112233954Y-99930890D01*
X113864845Y-99930890D01*
X113864845Y-100326177D01*
X112233954Y-100326177D01*
X112233954Y-100965940D01*
X114224678Y-100965940D01*
X114224678Y-101396153D01*
X111688911Y-101396153D01*
X111688911Y-98885256D01*
X114224678Y-98885256D01*
X114224678Y-99320760D01*
G36*
X87891669Y-95225645D02*
G01*
X87891981Y-95226079D01*
X87892608Y-95226970D01*
X87911716Y-95254432D01*
X87913008Y-95256309D01*
X87933605Y-95286896D01*
X87954087Y-95317589D01*
X87974767Y-95348138D01*
X87803487Y-95539657D01*
X87633392Y-95732094D01*
X87582467Y-95790443D01*
X87531936Y-95849159D01*
X87431234Y-95966912D01*
X87431234Y-95220084D01*
X87557876Y-95083243D01*
X87621574Y-95015157D01*
X87685682Y-94947446D01*
X87891669Y-95225645D01*
G37*
X87891669Y-95225645D02*
X87891981Y-95226079D01*
X87892608Y-95226970D01*
X87911716Y-95254432D01*
X87913008Y-95256309D01*
X87933605Y-95286896D01*
X87954087Y-95317589D01*
X87974767Y-95348138D01*
X87803487Y-95539657D01*
X87633392Y-95732094D01*
X87582467Y-95790443D01*
X87531936Y-95849159D01*
X87431234Y-95966912D01*
X87431234Y-95220084D01*
X87557876Y-95083243D01*
X87621574Y-95015157D01*
X87685682Y-94947446D01*
X87891669Y-95225645D01*
G36*
X99254025Y-100926252D02*
G01*
X101084412Y-100926252D01*
X101084412Y-101396153D01*
X98708454Y-101396153D01*
X98708454Y-98885256D01*
X99254025Y-98885256D01*
X99254025Y-100926252D01*
G37*
X99254025Y-100926252D02*
X101084412Y-100926252D01*
X101084412Y-101396153D01*
X98708454Y-101396153D01*
X98708454Y-98885256D01*
X99254025Y-98885256D01*
X99254025Y-100926252D01*
G36*
X107602159Y-101396153D02*
G01*
X106992029Y-101396153D01*
X106711571Y-100971232D01*
X105340499Y-100971232D01*
X105633128Y-100526202D01*
X106421588Y-100526202D01*
X105861729Y-99670540D01*
X104731429Y-101396153D01*
X104120771Y-101396153D01*
X105861729Y-98845569D01*
X107602159Y-101396153D01*
G37*
X107602159Y-101396153D02*
X106992029Y-101396153D01*
X106711571Y-100971232D01*
X105340499Y-100971232D01*
X105633128Y-100526202D01*
X106421588Y-100526202D01*
X105861729Y-99670540D01*
X104731429Y-101396153D01*
X104120771Y-101396153D01*
X105861729Y-98845569D01*
X107602159Y-101396153D01*
G36*
X88123069Y-94510185D02*
G01*
X88126175Y-94511091D01*
X88127151Y-94511367D01*
X88150594Y-94518157D01*
X88152844Y-94518835D01*
X88154194Y-94519265D01*
X88276116Y-94560305D01*
X88394172Y-94605723D01*
X88397066Y-94606892D01*
X88399945Y-94608086D01*
X88515562Y-94658282D01*
X88586284Y-94692594D01*
X88500259Y-94782007D01*
X88414655Y-94871884D01*
X88329533Y-94962253D01*
X88244931Y-95053169D01*
X88244930Y-95053168D01*
X88243505Y-95051086D01*
X88242450Y-95049646D01*
X88185138Y-94968950D01*
X88126300Y-94887894D01*
X88067091Y-94807956D01*
X88007633Y-94729158D01*
X87995380Y-94713308D01*
X87983144Y-94697796D01*
X87973637Y-94685785D01*
X87961474Y-94670255D01*
X87958644Y-94666630D01*
X87998113Y-94626921D01*
X88037742Y-94587359D01*
X88117281Y-94508509D01*
X88123069Y-94510185D01*
G37*
X88123069Y-94510185D02*
X88126175Y-94511091D01*
X88127151Y-94511367D01*
X88150594Y-94518157D01*
X88152844Y-94518835D01*
X88154194Y-94519265D01*
X88276116Y-94560305D01*
X88394172Y-94605723D01*
X88397066Y-94606892D01*
X88399945Y-94608086D01*
X88515562Y-94658282D01*
X88586284Y-94692594D01*
X88500259Y-94782007D01*
X88414655Y-94871884D01*
X88329533Y-94962253D01*
X88244931Y-95053169D01*
X88244930Y-95053168D01*
X88243505Y-95051086D01*
X88242450Y-95049646D01*
X88185138Y-94968950D01*
X88126300Y-94887894D01*
X88067091Y-94807956D01*
X88007633Y-94729158D01*
X87995380Y-94713308D01*
X87983144Y-94697796D01*
X87973637Y-94685785D01*
X87961474Y-94670255D01*
X87958644Y-94666630D01*
X87998113Y-94626921D01*
X88037742Y-94587359D01*
X88117281Y-94508509D01*
X88123069Y-94510185D01*
G36*
X83783902Y-98793744D02*
G01*
X83726121Y-98620668D01*
X83676597Y-98443896D01*
X83635561Y-98263664D01*
X83603243Y-98080203D01*
X83579873Y-97893747D01*
X83565986Y-97708577D01*
X84151451Y-97708577D01*
X84162459Y-97844674D01*
X84179131Y-97979040D01*
X84201344Y-98111552D01*
X84228975Y-98242090D01*
X84261902Y-98370530D01*
X84300004Y-98496751D01*
X84343156Y-98620631D01*
X84391238Y-98742048D01*
X84444126Y-98860880D01*
X84501699Y-98977004D01*
X84529424Y-99027557D01*
X84592751Y-98922494D01*
X84679958Y-98782706D01*
X84768606Y-98643909D01*
X84858588Y-98506036D01*
X84949800Y-98369019D01*
X85135482Y-98097291D01*
X85324795Y-97828200D01*
X85324939Y-97829588D01*
X85327004Y-97850302D01*
X85329042Y-97872446D01*
X85331232Y-97894556D01*
X85332484Y-97905576D01*
X85333895Y-97916560D01*
X85341388Y-97968067D01*
X85349706Y-98019377D01*
X85358825Y-98070490D01*
X85368641Y-98120976D01*
X85368708Y-98121371D01*
X85368799Y-98121762D01*
X85379388Y-98172121D01*
X85390808Y-98222634D01*
X85402967Y-98272943D01*
X85415801Y-98322842D01*
X85415841Y-98323015D01*
X85415891Y-98323183D01*
X85415853Y-98323047D01*
X85415801Y-98322842D01*
X85368799Y-98121762D01*
X85368724Y-98121406D01*
X85368641Y-98120976D01*
X85333915Y-97916520D01*
X85324939Y-97829588D01*
X85324800Y-97828194D01*
X85324795Y-97828200D01*
X85312447Y-97708614D01*
X85699247Y-97708614D01*
X85703292Y-97755862D01*
X85708170Y-97802957D01*
X85713857Y-97849906D01*
X85720165Y-97895517D01*
X85720300Y-97896723D01*
X85720527Y-97897981D01*
X85727570Y-97943393D01*
X85735565Y-97989930D01*
X85744315Y-98036317D01*
X85753817Y-98082545D01*
X85755161Y-98088126D01*
X85755216Y-98088050D01*
X85799034Y-98265870D01*
X85854971Y-98446756D01*
X85920780Y-98625110D01*
X85995580Y-98800873D01*
X86078492Y-98973990D01*
X86168634Y-99144405D01*
X86265127Y-99312059D01*
X86367088Y-99476898D01*
X86473639Y-99638864D01*
X86583898Y-99797901D01*
X86696984Y-99953951D01*
X86812018Y-100106960D01*
X87044405Y-100403622D01*
X87431226Y-100403622D01*
X87663764Y-100106960D01*
X87891956Y-99797901D01*
X88002226Y-99638864D01*
X88108775Y-99476898D01*
X88210724Y-99312059D01*
X88307195Y-99144405D01*
X88397310Y-98973990D01*
X88480190Y-98800873D01*
X88554958Y-98625110D01*
X88620734Y-98446756D01*
X88676642Y-98265870D01*
X88721802Y-98082507D01*
X88755337Y-97896723D01*
X88776367Y-97708577D01*
X87431226Y-97708577D01*
X87431226Y-100403622D01*
X87044405Y-100403622D01*
X87044405Y-97708577D01*
X85699263Y-97708577D01*
X85699268Y-97708614D01*
X85699247Y-97708614D01*
X85312447Y-97708614D01*
X85312443Y-97708577D01*
X84151451Y-97708577D01*
X83565986Y-97708577D01*
X83565682Y-97704530D01*
X83560901Y-97512785D01*
X83565682Y-97321041D01*
X83565985Y-97317010D01*
X85699245Y-97317010D01*
X86335177Y-97317010D01*
X86335190Y-97316994D01*
X87044405Y-97316994D01*
X87431226Y-97316994D01*
X88776367Y-97316994D01*
X88755337Y-97127190D01*
X88721802Y-96940176D01*
X88676642Y-96755964D01*
X88620734Y-96574565D01*
X88554958Y-96395990D01*
X88480190Y-96220251D01*
X88397310Y-96047361D01*
X88307195Y-95877330D01*
X88210724Y-95710170D01*
X88108775Y-95545893D01*
X88002226Y-95384510D01*
X87911716Y-95254432D01*
X87902568Y-95241134D01*
X87892608Y-95226970D01*
X87891956Y-95226033D01*
X87891669Y-95225645D01*
X87841104Y-95155476D01*
X87789673Y-95085562D01*
X87737822Y-95016247D01*
X87685689Y-94947439D01*
X87685682Y-94947446D01*
X87663764Y-94917844D01*
X87431226Y-94621419D01*
X87431226Y-97316994D01*
X87044405Y-97316994D01*
X87044405Y-94621948D01*
X86811866Y-94918611D01*
X86583675Y-95227670D01*
X86473404Y-95386707D01*
X86366856Y-95548673D01*
X86264907Y-95713511D01*
X86168436Y-95881166D01*
X86078321Y-96051580D01*
X85995441Y-96224698D01*
X85920673Y-96400461D01*
X85854896Y-96578814D01*
X85798989Y-96759701D01*
X85753829Y-96943064D01*
X85720294Y-97128847D01*
X85699785Y-97312331D01*
X85699764Y-97312359D01*
X85699245Y-97317010D01*
X83565985Y-97317010D01*
X83565986Y-97316994D01*
X84151451Y-97316994D01*
X85312443Y-97316994D01*
X85320613Y-97212596D01*
X85332340Y-97108963D01*
X85365952Y-96904047D01*
X85412259Y-96702359D01*
X85470242Y-96504012D01*
X85538882Y-96309119D01*
X85617159Y-96117793D01*
X85704054Y-95930147D01*
X85798548Y-95746295D01*
X85899622Y-95566350D01*
X86006255Y-95390424D01*
X86117430Y-95218632D01*
X86232126Y-95051086D01*
X86349324Y-94887899D01*
X86468005Y-94729185D01*
X86552403Y-94621419D01*
X86705738Y-94425627D01*
X87769893Y-94425627D01*
X87961474Y-94670255D01*
X87970904Y-94682333D01*
X87973637Y-94685785D01*
X88007626Y-94729185D01*
X88242450Y-95049646D01*
X88243484Y-95051102D01*
X88244930Y-95053168D01*
X88358201Y-95218632D01*
X88469375Y-95390424D01*
X88576009Y-95566350D01*
X88677082Y-95746295D01*
X88771577Y-95930147D01*
X88858472Y-96117793D01*
X88936749Y-96309119D01*
X89005389Y-96504012D01*
X89063372Y-96702359D01*
X89109679Y-96904047D01*
X89143291Y-97108963D01*
X89163188Y-97316994D01*
X90324180Y-97316994D01*
X90313172Y-97180897D01*
X90296500Y-97046531D01*
X90274287Y-96914018D01*
X90246656Y-96783481D01*
X90213729Y-96655041D01*
X90175628Y-96528820D01*
X90132475Y-96404940D01*
X90084393Y-96283523D01*
X90031505Y-96164691D01*
X89973932Y-96048567D01*
X89911797Y-95935271D01*
X89845223Y-95824927D01*
X89774332Y-95717655D01*
X89699246Y-95613579D01*
X89620087Y-95512820D01*
X89536978Y-95415500D01*
X89450042Y-95321740D01*
X89359400Y-95231664D01*
X89265176Y-95145393D01*
X89167491Y-95063049D01*
X89066468Y-94984754D01*
X88962229Y-94910629D01*
X88854896Y-94840798D01*
X88744593Y-94775382D01*
X88631440Y-94714502D01*
X88586284Y-94692594D01*
X88586306Y-94692571D01*
X88551082Y-94675194D01*
X88533409Y-94666617D01*
X88515612Y-94658258D01*
X88486221Y-94644957D01*
X88456657Y-94631970D01*
X88426934Y-94619285D01*
X88399945Y-94608086D01*
X88397080Y-94606842D01*
X88394172Y-94605723D01*
X88367060Y-94594781D01*
X88336908Y-94582965D01*
X88306604Y-94571459D01*
X88276144Y-94560279D01*
X88245533Y-94549436D01*
X88214781Y-94538921D01*
X88183885Y-94528725D01*
X88154194Y-94519265D01*
X88152793Y-94518794D01*
X88150594Y-94518157D01*
X88143992Y-94516166D01*
X88135089Y-94513616D01*
X88127151Y-94511367D01*
X88123069Y-94510185D01*
X88117290Y-94508500D01*
X88117281Y-94508509D01*
X88027233Y-94482429D01*
X87899559Y-94451333D01*
X87769893Y-94425627D01*
X86705738Y-94425627D01*
X86576073Y-94451379D01*
X86448403Y-94482516D01*
X86322851Y-94518916D01*
X86199537Y-94560457D01*
X86078584Y-94607019D01*
X85960114Y-94658478D01*
X85844250Y-94714714D01*
X85731113Y-94775605D01*
X85620825Y-94841029D01*
X85513509Y-94910864D01*
X85308280Y-95063281D01*
X85116401Y-95231884D01*
X84938851Y-95415698D01*
X84776605Y-95613750D01*
X84630640Y-95825066D01*
X84564069Y-95935394D01*
X84501934Y-96048673D01*
X84444357Y-96164782D01*
X84391461Y-96283597D01*
X84343368Y-96404999D01*
X84300200Y-96528865D01*
X84262079Y-96655074D01*
X84229127Y-96783503D01*
X84201466Y-96914031D01*
X84179218Y-97046537D01*
X84162506Y-97180898D01*
X84151451Y-97316994D01*
X83565986Y-97316994D01*
X83579873Y-97131824D01*
X83603243Y-96945368D01*
X83635561Y-96761907D01*
X83676597Y-96581674D01*
X83726121Y-96404903D01*
X83783902Y-96231827D01*
X83849710Y-96062679D01*
X83923315Y-95897692D01*
X84004485Y-95737101D01*
X84092991Y-95581139D01*
X84188602Y-95430038D01*
X84291088Y-95284033D01*
X84400218Y-95143357D01*
X84515763Y-95008243D01*
X84637490Y-94878925D01*
X84765171Y-94755635D01*
X84898575Y-94638609D01*
X85037471Y-94528078D01*
X85181629Y-94424276D01*
X85330818Y-94327438D01*
X85484808Y-94237795D01*
X85643369Y-94155582D01*
X85806271Y-94081032D01*
X85973282Y-94014379D01*
X86144172Y-93955855D01*
X86318712Y-93905695D01*
X86496670Y-93864131D01*
X86677816Y-93831397D01*
X86861920Y-93807727D01*
X87048752Y-93793354D01*
X87238080Y-93788511D01*
X87427407Y-93793354D01*
X87614234Y-93807727D01*
X87798331Y-93831397D01*
X87979467Y-93864131D01*
X88157413Y-93905695D01*
X88331939Y-93955855D01*
X88502813Y-94014379D01*
X88669806Y-94081032D01*
X88832688Y-94155582D01*
X88990544Y-94237440D01*
X88991242Y-94237819D01*
X88991945Y-94238212D01*
X89009060Y-94248177D01*
X89015020Y-94251722D01*
X89018983Y-94254040D01*
X89022971Y-94256319D01*
X89022998Y-94256292D01*
X89009060Y-94248177D01*
X89007131Y-94247029D01*
X88999229Y-94242356D01*
X88995251Y-94240063D01*
X88991945Y-94238212D01*
X88991229Y-94237795D01*
X88990544Y-94237440D01*
X88952026Y-94216551D01*
X88912527Y-94195741D01*
X88872750Y-94175402D01*
X88832699Y-94155550D01*
X88792376Y-94136190D01*
X88751785Y-94117319D01*
X88710930Y-94098934D01*
X88669814Y-94081032D01*
X88660675Y-94077185D01*
X88651488Y-94073431D01*
X88633017Y-94066111D01*
X88596021Y-94051577D01*
X88711396Y-93944460D01*
X88769308Y-93891116D01*
X88827737Y-93838256D01*
X88932596Y-93747063D01*
X89038468Y-93656892D01*
X89145427Y-93567824D01*
X89253551Y-93479940D01*
X89362915Y-93393322D01*
X89473596Y-93308049D01*
X89585668Y-93224203D01*
X89699208Y-93141865D01*
X89815179Y-93062086D01*
X89932341Y-92983458D01*
X90051636Y-92907137D01*
X90174008Y-92834274D01*
X90236641Y-92799501D01*
X90300397Y-92766026D01*
X90365394Y-92733992D01*
X90431748Y-92703545D01*
X90499578Y-92674828D01*
X90569002Y-92647986D01*
X90640137Y-92623163D01*
X90713101Y-92600503D01*
X90740820Y-92592901D01*
X90769208Y-92585945D01*
X90798266Y-92579741D01*
X90827994Y-92574400D01*
X90858391Y-92570028D01*
X90889459Y-92566734D01*
X90921196Y-92564626D01*
X90937316Y-92564050D01*
X90953603Y-92563812D01*
X90964555Y-92563846D01*
X90975582Y-92564036D01*
X90986685Y-92564389D01*
X90997863Y-92564910D01*
X91009115Y-92565603D01*
X91020441Y-92566475D01*
X91031840Y-92567530D01*
X91043313Y-92568773D01*
X91054673Y-92570096D01*
X91066130Y-92571718D01*
X91077685Y-92573687D01*
X91089338Y-92576053D01*
X91101091Y-92578866D01*
X91112944Y-92582175D01*
X91118908Y-92584030D01*
X91124897Y-92586029D01*
X91130911Y-92588176D01*
X91136951Y-92590477D01*
X91183563Y-92607427D01*
X91189315Y-92610475D01*
X91195059Y-92613651D01*
X91200789Y-92616939D01*
X91206499Y-92620319D01*
X91212185Y-92623774D01*
X91217840Y-92627285D01*
X91229039Y-92634402D01*
X91240137Y-92641493D01*
X91251140Y-92648638D01*
X91256573Y-92652307D01*
X91261944Y-92656081D01*
X91267239Y-92659990D01*
X91272447Y-92664065D01*
X91309447Y-92701582D01*
X91314270Y-92706206D01*
X91318832Y-92710947D01*
X91323157Y-92715793D01*
X91327268Y-92720735D01*
X91331187Y-92725765D01*
X91334937Y-92730873D01*
X91338543Y-92736049D01*
X91342026Y-92741284D01*
X91348717Y-92751893D01*
X91355196Y-92762626D01*
X91361647Y-92773406D01*
X91368254Y-92784161D01*
X91379111Y-92806135D01*
X91388711Y-92828000D01*
X91397123Y-92849744D01*
X91404417Y-92871358D01*
X91410664Y-92892832D01*
X91415932Y-92914156D01*
X91420292Y-92935319D01*
X91423813Y-92956313D01*
X91426566Y-92977127D01*
X91428619Y-92997752D01*
X91430043Y-93018177D01*
X91430907Y-93038392D01*
X91431236Y-93078153D01*
X91430163Y-93116957D01*
X91427770Y-93155362D01*
X91424226Y-93193206D01*
X91419625Y-93230520D01*
X91414061Y-93267333D01*
X91407629Y-93303675D01*
X91400423Y-93339575D01*
X91392538Y-93375063D01*
X91384068Y-93410169D01*
X91353390Y-93521173D01*
X91319113Y-93630067D01*
X91281551Y-93737026D01*
X91241021Y-93842223D01*
X91197837Y-93945833D01*
X91152313Y-94048029D01*
X91104766Y-94148986D01*
X91055509Y-94248877D01*
X91603176Y-94287015D01*
X90478180Y-95235794D01*
X90583496Y-93767873D01*
X90930555Y-94181698D01*
X90967647Y-94080528D01*
X91003258Y-93979063D01*
X91036997Y-93877362D01*
X91068472Y-93775480D01*
X91097294Y-93673474D01*
X91123070Y-93571400D01*
X91145411Y-93469316D01*
X91163925Y-93367278D01*
X91168582Y-93335165D01*
X91172596Y-93303162D01*
X91175916Y-93271331D01*
X91178493Y-93239736D01*
X91180275Y-93208438D01*
X91181214Y-93177501D01*
X91181259Y-93146986D01*
X91180359Y-93116957D01*
X91179626Y-93102219D01*
X91178615Y-93087600D01*
X91177322Y-93073144D01*
X91175741Y-93058893D01*
X91173869Y-93044892D01*
X91171701Y-93031182D01*
X91169232Y-93017808D01*
X91166457Y-93004813D01*
X91163372Y-92992239D01*
X91159973Y-92980130D01*
X91156255Y-92968529D01*
X91152212Y-92957479D01*
X91147842Y-92947024D01*
X91143138Y-92937206D01*
X91138096Y-92928069D01*
X91132713Y-92919656D01*
X91127126Y-92912136D01*
X91121453Y-92905234D01*
X91115657Y-92898925D01*
X91109700Y-92893184D01*
X91103545Y-92887986D01*
X91097154Y-92883304D01*
X91090491Y-92879113D01*
X91083519Y-92875388D01*
X91076198Y-92872103D01*
X91068494Y-92869234D01*
X91060367Y-92866753D01*
X91051781Y-92864636D01*
X91042699Y-92862858D01*
X91033083Y-92861392D01*
X91022896Y-92860214D01*
X91012100Y-92859298D01*
X91000817Y-92859075D01*
X90989208Y-92859202D01*
X90977293Y-92859681D01*
X90965091Y-92860514D01*
X90952623Y-92861703D01*
X90939909Y-92863251D01*
X90926968Y-92865161D01*
X90913822Y-92867434D01*
X90900489Y-92870073D01*
X90886990Y-92873080D01*
X90873346Y-92876458D01*
X90859575Y-92880209D01*
X90845699Y-92884334D01*
X90831738Y-92888837D01*
X90817710Y-92893720D01*
X90803637Y-92898986D01*
X90775442Y-92909216D01*
X90747220Y-92920237D01*
X90718984Y-92932007D01*
X90690744Y-92944486D01*
X90634302Y-92971411D01*
X90577989Y-93000691D01*
X90521900Y-93032005D01*
X90466128Y-93065032D01*
X90410768Y-93099451D01*
X90355913Y-93134940D01*
X90301120Y-93171296D01*
X90246671Y-93208493D01*
X90192557Y-93246473D01*
X90138773Y-93285180D01*
X90085312Y-93324557D01*
X90032165Y-93364546D01*
X89979328Y-93405091D01*
X89926792Y-93446136D01*
X89822753Y-93530179D01*
X89719764Y-93615936D01*
X89617791Y-93703281D01*
X89516795Y-93792091D01*
X89416743Y-93882240D01*
X89317596Y-93973604D01*
X89219321Y-94066058D01*
X89121880Y-94159477D01*
X89109368Y-94171417D01*
X89096956Y-94183468D01*
X89072318Y-94207776D01*
X89047733Y-94232145D01*
X89022998Y-94256292D01*
X89145197Y-94327438D01*
X89294364Y-94424276D01*
X89438498Y-94528078D01*
X89577370Y-94638609D01*
X89710749Y-94755635D01*
X89838405Y-94878925D01*
X89960108Y-95008243D01*
X90075628Y-95143357D01*
X90184734Y-95284033D01*
X90287196Y-95430038D01*
X90382785Y-95581139D01*
X90471269Y-95737101D01*
X90552419Y-95897692D01*
X90626004Y-96062679D01*
X90691794Y-96231827D01*
X90749559Y-96404903D01*
X90799069Y-96581674D01*
X90840093Y-96761907D01*
X90872402Y-96945368D01*
X90895764Y-97131824D01*
X90909951Y-97321041D01*
X90914730Y-97512785D01*
X90909951Y-97704530D01*
X90895764Y-97893747D01*
X90872402Y-98080202D01*
X90840093Y-98263663D01*
X90799069Y-98443896D01*
X90749559Y-98620667D01*
X90691794Y-98793744D01*
X90626004Y-98962892D01*
X90552419Y-99127878D01*
X90471269Y-99288469D01*
X90382785Y-99444432D01*
X90287196Y-99595532D01*
X90184734Y-99741537D01*
X90075628Y-99882213D01*
X89960108Y-100017327D01*
X89838405Y-100146646D01*
X89710749Y-100269935D01*
X89577370Y-100386962D01*
X89438498Y-100497492D01*
X89294364Y-100601294D01*
X89145197Y-100698133D01*
X88991229Y-100787775D01*
X88832688Y-100869988D01*
X88669806Y-100944538D01*
X88502813Y-101011192D01*
X88331939Y-101069715D01*
X88157413Y-101119876D01*
X87979467Y-101161440D01*
X87798331Y-101194173D01*
X87614234Y-101217844D01*
X87427407Y-101232217D01*
X87238080Y-101237060D01*
X87048752Y-101232217D01*
X86861920Y-101217844D01*
X86677816Y-101194173D01*
X86496670Y-101161440D01*
X86318712Y-101119876D01*
X86144172Y-101069715D01*
X85973282Y-101011192D01*
X85806271Y-100944538D01*
X85643369Y-100869988D01*
X85484808Y-100787775D01*
X85330818Y-100698133D01*
X85181629Y-100601294D01*
X85037471Y-100497493D01*
X84898575Y-100386962D01*
X84765171Y-100269935D01*
X84637491Y-100146646D01*
X84515763Y-100017328D01*
X84400218Y-99882214D01*
X84291088Y-99741538D01*
X84194193Y-99603498D01*
X84191949Y-99600179D01*
X84191911Y-99600246D01*
X84188602Y-99595532D01*
X84092991Y-99444432D01*
X84004485Y-99288469D01*
X83923315Y-99127878D01*
X83878579Y-99027603D01*
X84529396Y-99027603D01*
X84546433Y-99059082D01*
X84555030Y-99074774D01*
X84563812Y-99090338D01*
X84580042Y-99118195D01*
X84596545Y-99145854D01*
X84613321Y-99173324D01*
X84630372Y-99200616D01*
X84647696Y-99227728D01*
X84665290Y-99254648D01*
X84683149Y-99281372D01*
X84701272Y-99307896D01*
X84719663Y-99334220D01*
X84738324Y-99360341D01*
X84757243Y-99386260D01*
X84775242Y-99410408D01*
X84776385Y-99411992D01*
X84777976Y-99414017D01*
X84785482Y-99423807D01*
X84794697Y-99435524D01*
X84813203Y-99458895D01*
X84813217Y-99458874D01*
X84855544Y-99512751D01*
X84938653Y-99610071D01*
X85025589Y-99703830D01*
X85116230Y-99793907D01*
X85210455Y-99880178D01*
X85308140Y-99962522D01*
X85409163Y-100040817D01*
X85513402Y-100114942D01*
X85620735Y-100184773D01*
X85731038Y-100250189D01*
X85844190Y-100311069D01*
X85960069Y-100367289D01*
X86078551Y-100418729D01*
X86199515Y-100465265D01*
X86322838Y-100506777D01*
X86448398Y-100543142D01*
X86576072Y-100574238D01*
X86705738Y-100599944D01*
X87769892Y-100599944D01*
X87769893Y-100599944D01*
X87769893Y-100599943D01*
X87899558Y-100574238D01*
X88027233Y-100543142D01*
X88152792Y-100506777D01*
X88276115Y-100465265D01*
X88397079Y-100418729D01*
X88515562Y-100367289D01*
X88631440Y-100311069D01*
X88744592Y-100250189D01*
X88854896Y-100184773D01*
X88962228Y-100114942D01*
X89167491Y-99962522D01*
X89359400Y-99793907D01*
X89536978Y-99610071D01*
X89699245Y-99411992D01*
X89845223Y-99200644D01*
X89911797Y-99090300D01*
X89973932Y-98977004D01*
X90031505Y-98860880D01*
X90084393Y-98742048D01*
X90132475Y-98620631D01*
X90175627Y-98496751D01*
X90213729Y-98370530D01*
X90246656Y-98242090D01*
X90274287Y-98111552D01*
X90296500Y-97979040D01*
X90313172Y-97844674D01*
X90324180Y-97708577D01*
X89163188Y-97708577D01*
X89155018Y-97812974D01*
X89143291Y-97916607D01*
X89109679Y-98121523D01*
X89063372Y-98323212D01*
X89005389Y-98521559D01*
X88936749Y-98716452D01*
X88858472Y-98907778D01*
X88771576Y-99095424D01*
X88677082Y-99279276D01*
X88576009Y-99459221D01*
X88469375Y-99635147D01*
X88358201Y-99806939D01*
X88243505Y-99974485D01*
X88126307Y-100137672D01*
X88007626Y-100296386D01*
X87769893Y-100599943D01*
X87769892Y-100599944D01*
X86705738Y-100599944D01*
X86468548Y-100296364D01*
X86233689Y-99974411D01*
X86119583Y-99806833D01*
X86009000Y-99635007D01*
X85902918Y-99459051D01*
X85802319Y-99279078D01*
X85708181Y-99095204D01*
X85621484Y-98907546D01*
X85543209Y-98716218D01*
X85474335Y-98521336D01*
X85415891Y-98323183D01*
X85427566Y-98365800D01*
X85439911Y-98408364D01*
X85452759Y-98450774D01*
X85465979Y-98493062D01*
X85346771Y-98663620D01*
X85228372Y-98834699D01*
X85110877Y-99006345D01*
X84994380Y-99178602D01*
X84948530Y-99248367D01*
X84903229Y-99318435D01*
X84813217Y-99458874D01*
X84777976Y-99414017D01*
X84776409Y-99411973D01*
X84775242Y-99410408D01*
X84701299Y-99307915D01*
X84630408Y-99200644D01*
X84563834Y-99090300D01*
X84529424Y-99027557D01*
X84529396Y-99027603D01*
X83878579Y-99027603D01*
X83849710Y-98962892D01*
X83783902Y-98793744D01*
G37*
X83783902Y-98793744D02*
X83726121Y-98620668D01*
X83676597Y-98443896D01*
X83635561Y-98263664D01*
X83603243Y-98080203D01*
X83579873Y-97893747D01*
X83565986Y-97708577D01*
X84151451Y-97708577D01*
X84162459Y-97844674D01*
X84179131Y-97979040D01*
X84201344Y-98111552D01*
X84228975Y-98242090D01*
X84261902Y-98370530D01*
X84300004Y-98496751D01*
X84343156Y-98620631D01*
X84391238Y-98742048D01*
X84444126Y-98860880D01*
X84501699Y-98977004D01*
X84529424Y-99027557D01*
X84592751Y-98922494D01*
X84679958Y-98782706D01*
X84768606Y-98643909D01*
X84858588Y-98506036D01*
X84949800Y-98369019D01*
X85135482Y-98097291D01*
X85324795Y-97828200D01*
X85324939Y-97829588D01*
X85327004Y-97850302D01*
X85329042Y-97872446D01*
X85331232Y-97894556D01*
X85332484Y-97905576D01*
X85333895Y-97916560D01*
X85341388Y-97968067D01*
X85349706Y-98019377D01*
X85358825Y-98070490D01*
X85368641Y-98120976D01*
X85368708Y-98121371D01*
X85368799Y-98121762D01*
X85379388Y-98172121D01*
X85390808Y-98222634D01*
X85402967Y-98272943D01*
X85415801Y-98322842D01*
X85415841Y-98323015D01*
X85415891Y-98323183D01*
X85415853Y-98323047D01*
X85415801Y-98322842D01*
X85368799Y-98121762D01*
X85368724Y-98121406D01*
X85368641Y-98120976D01*
X85333915Y-97916520D01*
X85324939Y-97829588D01*
X85324800Y-97828194D01*
X85324795Y-97828200D01*
X85312447Y-97708614D01*
X85699247Y-97708614D01*
X85703292Y-97755862D01*
X85708170Y-97802957D01*
X85713857Y-97849906D01*
X85720165Y-97895517D01*
X85720300Y-97896723D01*
X85720527Y-97897981D01*
X85727570Y-97943393D01*
X85735565Y-97989930D01*
X85744315Y-98036317D01*
X85753817Y-98082545D01*
X85755161Y-98088126D01*
X85755216Y-98088050D01*
X85799034Y-98265870D01*
X85854971Y-98446756D01*
X85920780Y-98625110D01*
X85995580Y-98800873D01*
X86078492Y-98973990D01*
X86168634Y-99144405D01*
X86265127Y-99312059D01*
X86367088Y-99476898D01*
X86473639Y-99638864D01*
X86583898Y-99797901D01*
X86696984Y-99953951D01*
X86812018Y-100106960D01*
X87044405Y-100403622D01*
X87431226Y-100403622D01*
X87663764Y-100106960D01*
X87891956Y-99797901D01*
X88002226Y-99638864D01*
X88108775Y-99476898D01*
X88210724Y-99312059D01*
X88307195Y-99144405D01*
X88397310Y-98973990D01*
X88480190Y-98800873D01*
X88554958Y-98625110D01*
X88620734Y-98446756D01*
X88676642Y-98265870D01*
X88721802Y-98082507D01*
X88755337Y-97896723D01*
X88776367Y-97708577D01*
X87431226Y-97708577D01*
X87431226Y-100403622D01*
X87044405Y-100403622D01*
X87044405Y-97708577D01*
X85699263Y-97708577D01*
X85699268Y-97708614D01*
X85699247Y-97708614D01*
X85312447Y-97708614D01*
X85312443Y-97708577D01*
X84151451Y-97708577D01*
X83565986Y-97708577D01*
X83565682Y-97704530D01*
X83560901Y-97512785D01*
X83565682Y-97321041D01*
X83565985Y-97317010D01*
X85699245Y-97317010D01*
X86335177Y-97317010D01*
X86335190Y-97316994D01*
X87044405Y-97316994D01*
X87431226Y-97316994D01*
X88776367Y-97316994D01*
X88755337Y-97127190D01*
X88721802Y-96940176D01*
X88676642Y-96755964D01*
X88620734Y-96574565D01*
X88554958Y-96395990D01*
X88480190Y-96220251D01*
X88397310Y-96047361D01*
X88307195Y-95877330D01*
X88210724Y-95710170D01*
X88108775Y-95545893D01*
X88002226Y-95384510D01*
X87911716Y-95254432D01*
X87902568Y-95241134D01*
X87892608Y-95226970D01*
X87891956Y-95226033D01*
X87891669Y-95225645D01*
X87841104Y-95155476D01*
X87789673Y-95085562D01*
X87737822Y-95016247D01*
X87685689Y-94947439D01*
X87685682Y-94947446D01*
X87663764Y-94917844D01*
X87431226Y-94621419D01*
X87431226Y-97316994D01*
X87044405Y-97316994D01*
X87044405Y-94621948D01*
X86811866Y-94918611D01*
X86583675Y-95227670D01*
X86473404Y-95386707D01*
X86366856Y-95548673D01*
X86264907Y-95713511D01*
X86168436Y-95881166D01*
X86078321Y-96051580D01*
X85995441Y-96224698D01*
X85920673Y-96400461D01*
X85854896Y-96578814D01*
X85798989Y-96759701D01*
X85753829Y-96943064D01*
X85720294Y-97128847D01*
X85699785Y-97312331D01*
X85699764Y-97312359D01*
X85699245Y-97317010D01*
X83565985Y-97317010D01*
X83565986Y-97316994D01*
X84151451Y-97316994D01*
X85312443Y-97316994D01*
X85320613Y-97212596D01*
X85332340Y-97108963D01*
X85365952Y-96904047D01*
X85412259Y-96702359D01*
X85470242Y-96504012D01*
X85538882Y-96309119D01*
X85617159Y-96117793D01*
X85704054Y-95930147D01*
X85798548Y-95746295D01*
X85899622Y-95566350D01*
X86006255Y-95390424D01*
X86117430Y-95218632D01*
X86232126Y-95051086D01*
X86349324Y-94887899D01*
X86468005Y-94729185D01*
X86552403Y-94621419D01*
X86705738Y-94425627D01*
X87769893Y-94425627D01*
X87961474Y-94670255D01*
X87970904Y-94682333D01*
X87973637Y-94685785D01*
X88007626Y-94729185D01*
X88242450Y-95049646D01*
X88243484Y-95051102D01*
X88244930Y-95053168D01*
X88358201Y-95218632D01*
X88469375Y-95390424D01*
X88576009Y-95566350D01*
X88677082Y-95746295D01*
X88771577Y-95930147D01*
X88858472Y-96117793D01*
X88936749Y-96309119D01*
X89005389Y-96504012D01*
X89063372Y-96702359D01*
X89109679Y-96904047D01*
X89143291Y-97108963D01*
X89163188Y-97316994D01*
X90324180Y-97316994D01*
X90313172Y-97180897D01*
X90296500Y-97046531D01*
X90274287Y-96914018D01*
X90246656Y-96783481D01*
X90213729Y-96655041D01*
X90175628Y-96528820D01*
X90132475Y-96404940D01*
X90084393Y-96283523D01*
X90031505Y-96164691D01*
X89973932Y-96048567D01*
X89911797Y-95935271D01*
X89845223Y-95824927D01*
X89774332Y-95717655D01*
X89699246Y-95613579D01*
X89620087Y-95512820D01*
X89536978Y-95415500D01*
X89450042Y-95321740D01*
X89359400Y-95231664D01*
X89265176Y-95145393D01*
X89167491Y-95063049D01*
X89066468Y-94984754D01*
X88962229Y-94910629D01*
X88854896Y-94840798D01*
X88744593Y-94775382D01*
X88631440Y-94714502D01*
X88586284Y-94692594D01*
X88586306Y-94692571D01*
X88551082Y-94675194D01*
X88533409Y-94666617D01*
X88515612Y-94658258D01*
X88486221Y-94644957D01*
X88456657Y-94631970D01*
X88426934Y-94619285D01*
X88399945Y-94608086D01*
X88397080Y-94606842D01*
X88394172Y-94605723D01*
X88367060Y-94594781D01*
X88336908Y-94582965D01*
X88306604Y-94571459D01*
X88276144Y-94560279D01*
X88245533Y-94549436D01*
X88214781Y-94538921D01*
X88183885Y-94528725D01*
X88154194Y-94519265D01*
X88152793Y-94518794D01*
X88150594Y-94518157D01*
X88143992Y-94516166D01*
X88135089Y-94513616D01*
X88127151Y-94511367D01*
X88123069Y-94510185D01*
X88117290Y-94508500D01*
X88117281Y-94508509D01*
X88027233Y-94482429D01*
X87899559Y-94451333D01*
X87769893Y-94425627D01*
X86705738Y-94425627D01*
X86576073Y-94451379D01*
X86448403Y-94482516D01*
X86322851Y-94518916D01*
X86199537Y-94560457D01*
X86078584Y-94607019D01*
X85960114Y-94658478D01*
X85844250Y-94714714D01*
X85731113Y-94775605D01*
X85620825Y-94841029D01*
X85513509Y-94910864D01*
X85308280Y-95063281D01*
X85116401Y-95231884D01*
X84938851Y-95415698D01*
X84776605Y-95613750D01*
X84630640Y-95825066D01*
X84564069Y-95935394D01*
X84501934Y-96048673D01*
X84444357Y-96164782D01*
X84391461Y-96283597D01*
X84343368Y-96404999D01*
X84300200Y-96528865D01*
X84262079Y-96655074D01*
X84229127Y-96783503D01*
X84201466Y-96914031D01*
X84179218Y-97046537D01*
X84162506Y-97180898D01*
X84151451Y-97316994D01*
X83565986Y-97316994D01*
X83579873Y-97131824D01*
X83603243Y-96945368D01*
X83635561Y-96761907D01*
X83676597Y-96581674D01*
X83726121Y-96404903D01*
X83783902Y-96231827D01*
X83849710Y-96062679D01*
X83923315Y-95897692D01*
X84004485Y-95737101D01*
X84092991Y-95581139D01*
X84188602Y-95430038D01*
X84291088Y-95284033D01*
X84400218Y-95143357D01*
X84515763Y-95008243D01*
X84637490Y-94878925D01*
X84765171Y-94755635D01*
X84898575Y-94638609D01*
X85037471Y-94528078D01*
X85181629Y-94424276D01*
X85330818Y-94327438D01*
X85484808Y-94237795D01*
X85643369Y-94155582D01*
X85806271Y-94081032D01*
X85973282Y-94014379D01*
X86144172Y-93955855D01*
X86318712Y-93905695D01*
X86496670Y-93864131D01*
X86677816Y-93831397D01*
X86861920Y-93807727D01*
X87048752Y-93793354D01*
X87238080Y-93788511D01*
X87427407Y-93793354D01*
X87614234Y-93807727D01*
X87798331Y-93831397D01*
X87979467Y-93864131D01*
X88157413Y-93905695D01*
X88331939Y-93955855D01*
X88502813Y-94014379D01*
X88669806Y-94081032D01*
X88832688Y-94155582D01*
X88990544Y-94237440D01*
X88991242Y-94237819D01*
X88991945Y-94238212D01*
X89009060Y-94248177D01*
X89015020Y-94251722D01*
X89018983Y-94254040D01*
X89022971Y-94256319D01*
X89022998Y-94256292D01*
X89009060Y-94248177D01*
X89007131Y-94247029D01*
X88999229Y-94242356D01*
X88995251Y-94240063D01*
X88991945Y-94238212D01*
X88991229Y-94237795D01*
X88990544Y-94237440D01*
X88952026Y-94216551D01*
X88912527Y-94195741D01*
X88872750Y-94175402D01*
X88832699Y-94155550D01*
X88792376Y-94136190D01*
X88751785Y-94117319D01*
X88710930Y-94098934D01*
X88669814Y-94081032D01*
X88660675Y-94077185D01*
X88651488Y-94073431D01*
X88633017Y-94066111D01*
X88596021Y-94051577D01*
X88711396Y-93944460D01*
X88769308Y-93891116D01*
X88827737Y-93838256D01*
X88932596Y-93747063D01*
X89038468Y-93656892D01*
X89145427Y-93567824D01*
X89253551Y-93479940D01*
X89362915Y-93393322D01*
X89473596Y-93308049D01*
X89585668Y-93224203D01*
X89699208Y-93141865D01*
X89815179Y-93062086D01*
X89932341Y-92983458D01*
X90051636Y-92907137D01*
X90174008Y-92834274D01*
X90236641Y-92799501D01*
X90300397Y-92766026D01*
X90365394Y-92733992D01*
X90431748Y-92703545D01*
X90499578Y-92674828D01*
X90569002Y-92647986D01*
X90640137Y-92623163D01*
X90713101Y-92600503D01*
X90740820Y-92592901D01*
X90769208Y-92585945D01*
X90798266Y-92579741D01*
X90827994Y-92574400D01*
X90858391Y-92570028D01*
X90889459Y-92566734D01*
X90921196Y-92564626D01*
X90937316Y-92564050D01*
X90953603Y-92563812D01*
X90964555Y-92563846D01*
X90975582Y-92564036D01*
X90986685Y-92564389D01*
X90997863Y-92564910D01*
X91009115Y-92565603D01*
X91020441Y-92566475D01*
X91031840Y-92567530D01*
X91043313Y-92568773D01*
X91054673Y-92570096D01*
X91066130Y-92571718D01*
X91077685Y-92573687D01*
X91089338Y-92576053D01*
X91101091Y-92578866D01*
X91112944Y-92582175D01*
X91118908Y-92584030D01*
X91124897Y-92586029D01*
X91130911Y-92588176D01*
X91136951Y-92590477D01*
X91183563Y-92607427D01*
X91189315Y-92610475D01*
X91195059Y-92613651D01*
X91200789Y-92616939D01*
X91206499Y-92620319D01*
X91212185Y-92623774D01*
X91217840Y-92627285D01*
X91229039Y-92634402D01*
X91240137Y-92641493D01*
X91251140Y-92648638D01*
X91256573Y-92652307D01*
X91261944Y-92656081D01*
X91267239Y-92659990D01*
X91272447Y-92664065D01*
X91309447Y-92701582D01*
X91314270Y-92706206D01*
X91318832Y-92710947D01*
X91323157Y-92715793D01*
X91327268Y-92720735D01*
X91331187Y-92725765D01*
X91334937Y-92730873D01*
X91338543Y-92736049D01*
X91342026Y-92741284D01*
X91348717Y-92751893D01*
X91355196Y-92762626D01*
X91361647Y-92773406D01*
X91368254Y-92784161D01*
X91379111Y-92806135D01*
X91388711Y-92828000D01*
X91397123Y-92849744D01*
X91404417Y-92871358D01*
X91410664Y-92892832D01*
X91415932Y-92914156D01*
X91420292Y-92935319D01*
X91423813Y-92956313D01*
X91426566Y-92977127D01*
X91428619Y-92997752D01*
X91430043Y-93018177D01*
X91430907Y-93038392D01*
X91431236Y-93078153D01*
X91430163Y-93116957D01*
X91427770Y-93155362D01*
X91424226Y-93193206D01*
X91419625Y-93230520D01*
X91414061Y-93267333D01*
X91407629Y-93303675D01*
X91400423Y-93339575D01*
X91392538Y-93375063D01*
X91384068Y-93410169D01*
X91353390Y-93521173D01*
X91319113Y-93630067D01*
X91281551Y-93737026D01*
X91241021Y-93842223D01*
X91197837Y-93945833D01*
X91152313Y-94048029D01*
X91104766Y-94148986D01*
X91055509Y-94248877D01*
X91603176Y-94287015D01*
X90478180Y-95235794D01*
X90583496Y-93767873D01*
X90930555Y-94181698D01*
X90967647Y-94080528D01*
X91003258Y-93979063D01*
X91036997Y-93877362D01*
X91068472Y-93775480D01*
X91097294Y-93673474D01*
X91123070Y-93571400D01*
X91145411Y-93469316D01*
X91163925Y-93367278D01*
X91168582Y-93335165D01*
X91172596Y-93303162D01*
X91175916Y-93271331D01*
X91178493Y-93239736D01*
X91180275Y-93208438D01*
X91181214Y-93177501D01*
X91181259Y-93146986D01*
X91180359Y-93116957D01*
X91179626Y-93102219D01*
X91178615Y-93087600D01*
X91177322Y-93073144D01*
X91175741Y-93058893D01*
X91173869Y-93044892D01*
X91171701Y-93031182D01*
X91169232Y-93017808D01*
X91166457Y-93004813D01*
X91163372Y-92992239D01*
X91159973Y-92980130D01*
X91156255Y-92968529D01*
X91152212Y-92957479D01*
X91147842Y-92947024D01*
X91143138Y-92937206D01*
X91138096Y-92928069D01*
X91132713Y-92919656D01*
X91127126Y-92912136D01*
X91121453Y-92905234D01*
X91115657Y-92898925D01*
X91109700Y-92893184D01*
X91103545Y-92887986D01*
X91097154Y-92883304D01*
X91090491Y-92879113D01*
X91083519Y-92875388D01*
X91076198Y-92872103D01*
X91068494Y-92869234D01*
X91060367Y-92866753D01*
X91051781Y-92864636D01*
X91042699Y-92862858D01*
X91033083Y-92861392D01*
X91022896Y-92860214D01*
X91012100Y-92859298D01*
X91000817Y-92859075D01*
X90989208Y-92859202D01*
X90977293Y-92859681D01*
X90965091Y-92860514D01*
X90952623Y-92861703D01*
X90939909Y-92863251D01*
X90926968Y-92865161D01*
X90913822Y-92867434D01*
X90900489Y-92870073D01*
X90886990Y-92873080D01*
X90873346Y-92876458D01*
X90859575Y-92880209D01*
X90845699Y-92884334D01*
X90831738Y-92888837D01*
X90817710Y-92893720D01*
X90803637Y-92898986D01*
X90775442Y-92909216D01*
X90747220Y-92920237D01*
X90718984Y-92932007D01*
X90690744Y-92944486D01*
X90634302Y-92971411D01*
X90577989Y-93000691D01*
X90521900Y-93032005D01*
X90466128Y-93065032D01*
X90410768Y-93099451D01*
X90355913Y-93134940D01*
X90301120Y-93171296D01*
X90246671Y-93208493D01*
X90192557Y-93246473D01*
X90138773Y-93285180D01*
X90085312Y-93324557D01*
X90032165Y-93364546D01*
X89979328Y-93405091D01*
X89926792Y-93446136D01*
X89822753Y-93530179D01*
X89719764Y-93615936D01*
X89617791Y-93703281D01*
X89516795Y-93792091D01*
X89416743Y-93882240D01*
X89317596Y-93973604D01*
X89219321Y-94066058D01*
X89121880Y-94159477D01*
X89109368Y-94171417D01*
X89096956Y-94183468D01*
X89072318Y-94207776D01*
X89047733Y-94232145D01*
X89022998Y-94256292D01*
X89145197Y-94327438D01*
X89294364Y-94424276D01*
X89438498Y-94528078D01*
X89577370Y-94638609D01*
X89710749Y-94755635D01*
X89838405Y-94878925D01*
X89960108Y-95008243D01*
X90075628Y-95143357D01*
X90184734Y-95284033D01*
X90287196Y-95430038D01*
X90382785Y-95581139D01*
X90471269Y-95737101D01*
X90552419Y-95897692D01*
X90626004Y-96062679D01*
X90691794Y-96231827D01*
X90749559Y-96404903D01*
X90799069Y-96581674D01*
X90840093Y-96761907D01*
X90872402Y-96945368D01*
X90895764Y-97131824D01*
X90909951Y-97321041D01*
X90914730Y-97512785D01*
X90909951Y-97704530D01*
X90895764Y-97893747D01*
X90872402Y-98080202D01*
X90840093Y-98263663D01*
X90799069Y-98443896D01*
X90749559Y-98620667D01*
X90691794Y-98793744D01*
X90626004Y-98962892D01*
X90552419Y-99127878D01*
X90471269Y-99288469D01*
X90382785Y-99444432D01*
X90287196Y-99595532D01*
X90184734Y-99741537D01*
X90075628Y-99882213D01*
X89960108Y-100017327D01*
X89838405Y-100146646D01*
X89710749Y-100269935D01*
X89577370Y-100386962D01*
X89438498Y-100497492D01*
X89294364Y-100601294D01*
X89145197Y-100698133D01*
X88991229Y-100787775D01*
X88832688Y-100869988D01*
X88669806Y-100944538D01*
X88502813Y-101011192D01*
X88331939Y-101069715D01*
X88157413Y-101119876D01*
X87979467Y-101161440D01*
X87798331Y-101194173D01*
X87614234Y-101217844D01*
X87427407Y-101232217D01*
X87238080Y-101237060D01*
X87048752Y-101232217D01*
X86861920Y-101217844D01*
X86677816Y-101194173D01*
X86496670Y-101161440D01*
X86318712Y-101119876D01*
X86144172Y-101069715D01*
X85973282Y-101011192D01*
X85806271Y-100944538D01*
X85643369Y-100869988D01*
X85484808Y-100787775D01*
X85330818Y-100698133D01*
X85181629Y-100601294D01*
X85037471Y-100497493D01*
X84898575Y-100386962D01*
X84765171Y-100269935D01*
X84637491Y-100146646D01*
X84515763Y-100017328D01*
X84400218Y-99882214D01*
X84291088Y-99741538D01*
X84194193Y-99603498D01*
X84191949Y-99600179D01*
X84191911Y-99600246D01*
X84188602Y-99595532D01*
X84092991Y-99444432D01*
X84004485Y-99288469D01*
X83923315Y-99127878D01*
X83878579Y-99027603D01*
X84529396Y-99027603D01*
X84546433Y-99059082D01*
X84555030Y-99074774D01*
X84563812Y-99090338D01*
X84580042Y-99118195D01*
X84596545Y-99145854D01*
X84613321Y-99173324D01*
X84630372Y-99200616D01*
X84647696Y-99227728D01*
X84665290Y-99254648D01*
X84683149Y-99281372D01*
X84701272Y-99307896D01*
X84719663Y-99334220D01*
X84738324Y-99360341D01*
X84757243Y-99386260D01*
X84775242Y-99410408D01*
X84776385Y-99411992D01*
X84777976Y-99414017D01*
X84785482Y-99423807D01*
X84794697Y-99435524D01*
X84813203Y-99458895D01*
X84813217Y-99458874D01*
X84855544Y-99512751D01*
X84938653Y-99610071D01*
X85025589Y-99703830D01*
X85116230Y-99793907D01*
X85210455Y-99880178D01*
X85308140Y-99962522D01*
X85409163Y-100040817D01*
X85513402Y-100114942D01*
X85620735Y-100184773D01*
X85731038Y-100250189D01*
X85844190Y-100311069D01*
X85960069Y-100367289D01*
X86078551Y-100418729D01*
X86199515Y-100465265D01*
X86322838Y-100506777D01*
X86448398Y-100543142D01*
X86576072Y-100574238D01*
X86705738Y-100599944D01*
X87769892Y-100599944D01*
X87769893Y-100599944D01*
X87769893Y-100599943D01*
X87899558Y-100574238D01*
X88027233Y-100543142D01*
X88152792Y-100506777D01*
X88276115Y-100465265D01*
X88397079Y-100418729D01*
X88515562Y-100367289D01*
X88631440Y-100311069D01*
X88744592Y-100250189D01*
X88854896Y-100184773D01*
X88962228Y-100114942D01*
X89167491Y-99962522D01*
X89359400Y-99793907D01*
X89536978Y-99610071D01*
X89699245Y-99411992D01*
X89845223Y-99200644D01*
X89911797Y-99090300D01*
X89973932Y-98977004D01*
X90031505Y-98860880D01*
X90084393Y-98742048D01*
X90132475Y-98620631D01*
X90175627Y-98496751D01*
X90213729Y-98370530D01*
X90246656Y-98242090D01*
X90274287Y-98111552D01*
X90296500Y-97979040D01*
X90313172Y-97844674D01*
X90324180Y-97708577D01*
X89163188Y-97708577D01*
X89155018Y-97812974D01*
X89143291Y-97916607D01*
X89109679Y-98121523D01*
X89063372Y-98323212D01*
X89005389Y-98521559D01*
X88936749Y-98716452D01*
X88858472Y-98907778D01*
X88771576Y-99095424D01*
X88677082Y-99279276D01*
X88576009Y-99459221D01*
X88469375Y-99635147D01*
X88358201Y-99806939D01*
X88243505Y-99974485D01*
X88126307Y-100137672D01*
X88007626Y-100296386D01*
X87769893Y-100599943D01*
X87769892Y-100599944D01*
X86705738Y-100599944D01*
X86468548Y-100296364D01*
X86233689Y-99974411D01*
X86119583Y-99806833D01*
X86009000Y-99635007D01*
X85902918Y-99459051D01*
X85802319Y-99279078D01*
X85708181Y-99095204D01*
X85621484Y-98907546D01*
X85543209Y-98716218D01*
X85474335Y-98521336D01*
X85415891Y-98323183D01*
X85427566Y-98365800D01*
X85439911Y-98408364D01*
X85452759Y-98450774D01*
X85465979Y-98493062D01*
X85346771Y-98663620D01*
X85228372Y-98834699D01*
X85110877Y-99006345D01*
X84994380Y-99178602D01*
X84948530Y-99248367D01*
X84903229Y-99318435D01*
X84813217Y-99458874D01*
X84777976Y-99414017D01*
X84776409Y-99411973D01*
X84775242Y-99410408D01*
X84701299Y-99307915D01*
X84630408Y-99200644D01*
X84563834Y-99090300D01*
X84529424Y-99027557D01*
X84529396Y-99027603D01*
X83878579Y-99027603D01*
X83849710Y-98962892D01*
X83783902Y-98793744D01*
G36*
X123543831Y-94241290D02*
G01*
X121553105Y-94241290D01*
X121553105Y-94851419D01*
X123183467Y-94851419D01*
X123183467Y-95246706D01*
X121553105Y-95246706D01*
X121553105Y-95886998D01*
X123543831Y-95886998D01*
X123543831Y-96317211D01*
X121007536Y-96317211D01*
X121007536Y-93806315D01*
X123543831Y-93806315D01*
X123543831Y-94241290D01*
G37*
X123543831Y-94241290D02*
X121553105Y-94241290D01*
X121553105Y-94851419D01*
X123183467Y-94851419D01*
X123183467Y-95246706D01*
X121553105Y-95246706D01*
X121553105Y-95886998D01*
X123543831Y-95886998D01*
X123543831Y-96317211D01*
X121007536Y-96317211D01*
X121007536Y-93806315D01*
X123543831Y-93806315D01*
X123543831Y-94241290D01*
G36*
X99938766Y-94241290D02*
G01*
X97948041Y-94241290D01*
X97948041Y-94851419D01*
X99578932Y-94851419D01*
X99578932Y-95246706D01*
X97948041Y-95246706D01*
X97948041Y-95886998D01*
X99938766Y-95886998D01*
X99938766Y-96317211D01*
X97403000Y-96317211D01*
X97403000Y-93806315D01*
X99938766Y-93806315D01*
X99938766Y-94241290D01*
G37*
X99938766Y-94241290D02*
X97948041Y-94241290D01*
X97948041Y-94851419D01*
X99578932Y-94851419D01*
X99578932Y-95246706D01*
X97948041Y-95246706D01*
X97948041Y-95886998D01*
X99938766Y-95886998D01*
X99938766Y-96317211D01*
X97403000Y-96317211D01*
X97403000Y-93806315D01*
X99938766Y-93806315D01*
X99938766Y-94241290D01*
D11*
G36*
X81335345Y-86890000D02*
G01*
X81793301Y-86890000D01*
X81793301Y-85858318D01*
X83372331Y-85858318D01*
X83372331Y-85438464D01*
X81796964Y-85438464D01*
X81796964Y-84965854D01*
X83666155Y-84965854D01*
X83666155Y-84545268D01*
X81335345Y-84545268D01*
X81335345Y-86890000D01*
G37*
G36*
X85635429Y-84687449D02*
G01*
X85710306Y-84691892D01*
X85784066Y-84699209D01*
X85856618Y-84709328D01*
X85927871Y-84722176D01*
X85997735Y-84737681D01*
X86066118Y-84755772D01*
X86132931Y-84776375D01*
X86198082Y-84799420D01*
X86261481Y-84824832D01*
X86323038Y-84852542D01*
X86382660Y-84882475D01*
X86440258Y-84914560D01*
X86495741Y-84948726D01*
X86549019Y-84984899D01*
X86600000Y-85023007D01*
X86648594Y-85062979D01*
X86694710Y-85104742D01*
X86738258Y-85148224D01*
X86779146Y-85193352D01*
X86817285Y-85240055D01*
X86852583Y-85288261D01*
X86884950Y-85337897D01*
X86914295Y-85388891D01*
X86940527Y-85441170D01*
X86963556Y-85494664D01*
X86983290Y-85549298D01*
X86999640Y-85605003D01*
X87012515Y-85661704D01*
X87021823Y-85719330D01*
X87027475Y-85777809D01*
X87029379Y-85837069D01*
X87027475Y-85896380D01*
X87021823Y-85954878D01*
X87012515Y-86012494D01*
X86999640Y-86069156D01*
X86983290Y-86124795D01*
X86963556Y-86179340D01*
X86940527Y-86232721D01*
X86914295Y-86284869D01*
X86884950Y-86335712D01*
X86852583Y-86385181D01*
X86817285Y-86433206D01*
X86779146Y-86479716D01*
X86738258Y-86524641D01*
X86694710Y-86567911D01*
X86648594Y-86609457D01*
X86600000Y-86649207D01*
X86549019Y-86687091D01*
X86495741Y-86723040D01*
X86440258Y-86756983D01*
X86382660Y-86788850D01*
X86323038Y-86818571D01*
X86261481Y-86846076D01*
X86198082Y-86871294D01*
X86132931Y-86894155D01*
X86066118Y-86914590D01*
X85997735Y-86932528D01*
X85927871Y-86947899D01*
X85856618Y-86960632D01*
X85784066Y-86970658D01*
X85710306Y-86977906D01*
X85635429Y-86982306D01*
X85559525Y-86983789D01*
X85483929Y-86982306D01*
X85409290Y-86977906D01*
X85335704Y-86970658D01*
X85263264Y-86960632D01*
X85192065Y-86947899D01*
X85122203Y-86932528D01*
X85053771Y-86914590D01*
X84986864Y-86894155D01*
X84921576Y-86871294D01*
X84858003Y-86846076D01*
X84796239Y-86818571D01*
X84736378Y-86788850D01*
X84678515Y-86756983D01*
X84622745Y-86723040D01*
X84569161Y-86687091D01*
X84517860Y-86649207D01*
X84468935Y-86609457D01*
X84422481Y-86567911D01*
X84378593Y-86524641D01*
X84337364Y-86479716D01*
X84298891Y-86433206D01*
X84263266Y-86385181D01*
X84230586Y-86335712D01*
X84200944Y-86284869D01*
X84174435Y-86232721D01*
X84151153Y-86179340D01*
X84131194Y-86124795D01*
X84114652Y-86069156D01*
X84101621Y-86012494D01*
X84092196Y-85954878D01*
X84086472Y-85896380D01*
X84084543Y-85837069D01*
X84554955Y-85837069D01*
X84556250Y-85874752D01*
X84560094Y-85911935D01*
X84566428Y-85948571D01*
X84575189Y-85984616D01*
X84586318Y-86020023D01*
X84599753Y-86054747D01*
X84615434Y-86088742D01*
X84633299Y-86121963D01*
X84653289Y-86154363D01*
X84675342Y-86185898D01*
X84699398Y-86216522D01*
X84725395Y-86246189D01*
X84753274Y-86274853D01*
X84782973Y-86302469D01*
X84814431Y-86328992D01*
X84847588Y-86354375D01*
X84882383Y-86378573D01*
X84918755Y-86401541D01*
X84956643Y-86423232D01*
X84995987Y-86443602D01*
X85036726Y-86462604D01*
X85078798Y-86480193D01*
X85122144Y-86496324D01*
X85166703Y-86510950D01*
X85212413Y-86524026D01*
X85259214Y-86535507D01*
X85307045Y-86545347D01*
X85355845Y-86553500D01*
X85405554Y-86559920D01*
X85456111Y-86564563D01*
X85507455Y-86567382D01*
X85559525Y-86568332D01*
X85611142Y-86567382D01*
X85662086Y-86564563D01*
X85712293Y-86559920D01*
X85761701Y-86553500D01*
X85810246Y-86545347D01*
X85857865Y-86535507D01*
X85904494Y-86524026D01*
X85950070Y-86510950D01*
X85994529Y-86496324D01*
X86037810Y-86480193D01*
X86079847Y-86462604D01*
X86120578Y-86443602D01*
X86159939Y-86423232D01*
X86197868Y-86401541D01*
X86234300Y-86378573D01*
X86269173Y-86354375D01*
X86302423Y-86328992D01*
X86333986Y-86302469D01*
X86363801Y-86274853D01*
X86391802Y-86246189D01*
X86417927Y-86216522D01*
X86442113Y-86185898D01*
X86464295Y-86154363D01*
X86484412Y-86121963D01*
X86502399Y-86088742D01*
X86518193Y-86054747D01*
X86531731Y-86020023D01*
X86542950Y-85984616D01*
X86551786Y-85948571D01*
X86558176Y-85911935D01*
X86562056Y-85874752D01*
X86563363Y-85837069D01*
X86562056Y-85799052D01*
X86558176Y-85761557D01*
X86551786Y-85724629D01*
X86542950Y-85688312D01*
X86531731Y-85652651D01*
X86518193Y-85617692D01*
X86502399Y-85583479D01*
X86484412Y-85550057D01*
X86464295Y-85517471D01*
X86442113Y-85485766D01*
X86417927Y-85454987D01*
X86391802Y-85425179D01*
X86363801Y-85396387D01*
X86333986Y-85368656D01*
X86302423Y-85342031D01*
X86269173Y-85316557D01*
X86234300Y-85292278D01*
X86197868Y-85269240D01*
X86159939Y-85247487D01*
X86120578Y-85227065D01*
X86079847Y-85208018D01*
X86037810Y-85190392D01*
X85994529Y-85174231D01*
X85950070Y-85159581D01*
X85904494Y-85146486D01*
X85857865Y-85134991D01*
X85810246Y-85125141D01*
X85761701Y-85116981D01*
X85712293Y-85110556D01*
X85662086Y-85105912D01*
X85611142Y-85103092D01*
X85559525Y-85102142D01*
X85507455Y-85103092D01*
X85456111Y-85105912D01*
X85405554Y-85110556D01*
X85355845Y-85116981D01*
X85307045Y-85125141D01*
X85259214Y-85134991D01*
X85212413Y-85146486D01*
X85166703Y-85159581D01*
X85122144Y-85174231D01*
X85078798Y-85190392D01*
X85036726Y-85208018D01*
X84995987Y-85227065D01*
X84956643Y-85247487D01*
X84918755Y-85269240D01*
X84882383Y-85292278D01*
X84847588Y-85316557D01*
X84814431Y-85342031D01*
X84782973Y-85368656D01*
X84753274Y-85396387D01*
X84725395Y-85425179D01*
X84699398Y-85454987D01*
X84675342Y-85485766D01*
X84653289Y-85517471D01*
X84633299Y-85550057D01*
X84615434Y-85583479D01*
X84599753Y-85617692D01*
X84586318Y-85652651D01*
X84575189Y-85688312D01*
X84566428Y-85724629D01*
X84560094Y-85761557D01*
X84556250Y-85799052D01*
X84554955Y-85837069D01*
X84084543Y-85837069D01*
X84086472Y-85777809D01*
X84092196Y-85719330D01*
X84101621Y-85661704D01*
X84114652Y-85605003D01*
X84131194Y-85549298D01*
X84151153Y-85494664D01*
X84174435Y-85441170D01*
X84200944Y-85388891D01*
X84230586Y-85337897D01*
X84263266Y-85288261D01*
X84298891Y-85240055D01*
X84337364Y-85193352D01*
X84378593Y-85148224D01*
X84422481Y-85104742D01*
X84468935Y-85062979D01*
X84517860Y-85023007D01*
X84569161Y-84984899D01*
X84622745Y-84948726D01*
X84678515Y-84914560D01*
X84736378Y-84882475D01*
X84796239Y-84852542D01*
X84858003Y-84824832D01*
X84921576Y-84799420D01*
X84986864Y-84776375D01*
X85053771Y-84755772D01*
X85122203Y-84737681D01*
X85192065Y-84722176D01*
X85263264Y-84709328D01*
X85335704Y-84699209D01*
X85409290Y-84691892D01*
X85483929Y-84687449D01*
X85559525Y-84685952D01*
X85635429Y-84687449D01*
G37*
G36*
X89463503Y-85880300D02*
G01*
X89462481Y-85923726D01*
X89459460Y-85965669D01*
X89454504Y-86006136D01*
X89447678Y-86045133D01*
X89439048Y-86082669D01*
X89428679Y-86118749D01*
X89416636Y-86153380D01*
X89402984Y-86186569D01*
X89387789Y-86218323D01*
X89371116Y-86248649D01*
X89353030Y-86277553D01*
X89333595Y-86305043D01*
X89312879Y-86331125D01*
X89290944Y-86355807D01*
X89267858Y-86379094D01*
X89243684Y-86400995D01*
X89218489Y-86421515D01*
X89192337Y-86440661D01*
X89165294Y-86458441D01*
X89137424Y-86474862D01*
X89108794Y-86489929D01*
X89079468Y-86503650D01*
X89049511Y-86516032D01*
X89018989Y-86527081D01*
X88987966Y-86536805D01*
X88956509Y-86545210D01*
X88924682Y-86552304D01*
X88892550Y-86558092D01*
X88860179Y-86562582D01*
X88827634Y-86565781D01*
X88794980Y-86567695D01*
X88762282Y-86568332D01*
X88729584Y-86567695D01*
X88696930Y-86565781D01*
X88664385Y-86562582D01*
X88632014Y-86558092D01*
X88599882Y-86552304D01*
X88568055Y-86545210D01*
X88536597Y-86536805D01*
X88505575Y-86527081D01*
X88475053Y-86516032D01*
X88445096Y-86503650D01*
X88415770Y-86489929D01*
X88387139Y-86474862D01*
X88359270Y-86458441D01*
X88332226Y-86440661D01*
X88306074Y-86421515D01*
X88280879Y-86400995D01*
X88256706Y-86379094D01*
X88233619Y-86355807D01*
X88211685Y-86331125D01*
X88190968Y-86305043D01*
X88171534Y-86277553D01*
X88153448Y-86248649D01*
X88136774Y-86218323D01*
X88121579Y-86186569D01*
X88107928Y-86153380D01*
X88095885Y-86118749D01*
X88085516Y-86082669D01*
X88076886Y-86045133D01*
X88070060Y-86006136D01*
X88065104Y-85965669D01*
X88062082Y-85923726D01*
X88061061Y-85880300D01*
X88061061Y-84779741D01*
X87615562Y-84779741D01*
X87615562Y-85935254D01*
X87617219Y-86002084D01*
X87622121Y-86066572D01*
X87630163Y-86128732D01*
X87641243Y-86188578D01*
X87655255Y-86246125D01*
X87672097Y-86301387D01*
X87691663Y-86354380D01*
X87713850Y-86405116D01*
X87738555Y-86453612D01*
X87765672Y-86499881D01*
X87795098Y-86543938D01*
X87826729Y-86585797D01*
X87860461Y-86625473D01*
X87896191Y-86662980D01*
X87933813Y-86698333D01*
X87973225Y-86731547D01*
X88014321Y-86762635D01*
X88056999Y-86791613D01*
X88101154Y-86818494D01*
X88146682Y-86843294D01*
X88193480Y-86866026D01*
X88241443Y-86886706D01*
X88290466Y-86905347D01*
X88340448Y-86921965D01*
X88391282Y-86936573D01*
X88442866Y-86949187D01*
X88495095Y-86959820D01*
X88547866Y-86968487D01*
X88601074Y-86975203D01*
X88654615Y-86979983D01*
X88708386Y-86982840D01*
X88762282Y-86983789D01*
X88816201Y-86982840D01*
X88870039Y-86979983D01*
X88923689Y-86975203D01*
X88977044Y-86968487D01*
X89029997Y-86959820D01*
X89082441Y-86949187D01*
X89134270Y-86936573D01*
X89185375Y-86921965D01*
X89235651Y-86905347D01*
X89284990Y-86886706D01*
X89333286Y-86866026D01*
X89380431Y-86843294D01*
X89426319Y-86818494D01*
X89470843Y-86791613D01*
X89513895Y-86762635D01*
X89555369Y-86731547D01*
X89595158Y-86698333D01*
X89633155Y-86662980D01*
X89669252Y-86625473D01*
X89703344Y-86585797D01*
X89735323Y-86543938D01*
X89765083Y-86499881D01*
X89792515Y-86453612D01*
X89817514Y-86405116D01*
X89839972Y-86354380D01*
X89859783Y-86301387D01*
X89876839Y-86246125D01*
X89891034Y-86188578D01*
X89902261Y-86128732D01*
X89910413Y-86066572D01*
X89915382Y-86002084D01*
X89917062Y-85935254D01*
X89917062Y-84779741D01*
X89463503Y-84779741D01*
X89463503Y-85880300D01*
G37*
G36*
X91070377Y-86890000D02*
G01*
X91070377Y-85519797D01*
X93074389Y-87030683D01*
X93074389Y-84786336D01*
X92628890Y-84786336D01*
X92628890Y-86148478D01*
X90629274Y-84639057D01*
X90629274Y-86890000D01*
X91070377Y-86890000D01*
G37*
G36*
X95019261Y-84780597D02*
G01*
X95079673Y-84783187D01*
X95140756Y-84787544D01*
X95202330Y-84793703D01*
X95264216Y-84801698D01*
X95326232Y-84811561D01*
X95388201Y-84823328D01*
X95449941Y-84837032D01*
X95511273Y-84852706D01*
X95572018Y-84870384D01*
X95631996Y-84890101D01*
X95691026Y-84911890D01*
X95748929Y-84935785D01*
X95805525Y-84961819D01*
X95860635Y-84990027D01*
X95914079Y-85020443D01*
X95965676Y-85053099D01*
X96015248Y-85088030D01*
X96062613Y-85125270D01*
X96107593Y-85164853D01*
X96150008Y-85206812D01*
X96189678Y-85251181D01*
X96226423Y-85297994D01*
X96260064Y-85347285D01*
X96290420Y-85399088D01*
X96317312Y-85453436D01*
X96340560Y-85510363D01*
X96359984Y-85569903D01*
X96375405Y-85632090D01*
X96386642Y-85696958D01*
X96393516Y-85764540D01*
X96395848Y-85834870D01*
X96393516Y-85905265D01*
X96386642Y-85972904D01*
X96375405Y-86037820D01*
X96359984Y-86100048D01*
X96340560Y-86159622D01*
X96317312Y-86216577D01*
X96290420Y-86270946D01*
X96260064Y-86322765D01*
X96226423Y-86372066D01*
X96189678Y-86418884D01*
X96150008Y-86463254D01*
X96107593Y-86505210D01*
X96062613Y-86544785D01*
X96015248Y-86582015D01*
X95965676Y-86616933D01*
X95914079Y-86649573D01*
X95860635Y-86679970D01*
X95805525Y-86708158D01*
X95748929Y-86734171D01*
X95691026Y-86758044D01*
X95631996Y-86779810D01*
X95572018Y-86799504D01*
X95511273Y-86817160D01*
X95449941Y-86832812D01*
X95388201Y-86846495D01*
X95326232Y-86858242D01*
X95264216Y-86868088D01*
X95202330Y-86876068D01*
X95140756Y-86882214D01*
X95079673Y-86886562D01*
X95019261Y-86889146D01*
X94959700Y-86890000D01*
X93800523Y-86890000D01*
X93800523Y-86478939D01*
X94254082Y-86478939D01*
X94930391Y-86478939D01*
X94970197Y-86478561D01*
X95010805Y-86477397D01*
X95052077Y-86475397D01*
X95093879Y-86472512D01*
X95136076Y-86468693D01*
X95178532Y-86463893D01*
X95221111Y-86458063D01*
X95263679Y-86451152D01*
X95306100Y-86443114D01*
X95348238Y-86433899D01*
X95389959Y-86423459D01*
X95431126Y-86411744D01*
X95471605Y-86398706D01*
X95511260Y-86384297D01*
X95549956Y-86368468D01*
X95587557Y-86351169D01*
X95623928Y-86332353D01*
X95658933Y-86311971D01*
X95692438Y-86289973D01*
X95724306Y-86266312D01*
X95754403Y-86240938D01*
X95782593Y-86213803D01*
X95808741Y-86184857D01*
X95832712Y-86154054D01*
X95854369Y-86121343D01*
X95873577Y-86086676D01*
X95890202Y-86050004D01*
X95904108Y-86011279D01*
X95915159Y-85970452D01*
X95923221Y-85927474D01*
X95928157Y-85882296D01*
X95929832Y-85834870D01*
X95928157Y-85787511D01*
X95923221Y-85742396D01*
X95915159Y-85699476D01*
X95904108Y-85658704D01*
X95890202Y-85620029D01*
X95873577Y-85583405D01*
X95854369Y-85548781D01*
X95832712Y-85516111D01*
X95808741Y-85485344D01*
X95782593Y-85456433D01*
X95754403Y-85429329D01*
X95724306Y-85403983D01*
X95692438Y-85380347D01*
X95658933Y-85358373D01*
X95623928Y-85338011D01*
X95587557Y-85319213D01*
X95549956Y-85301930D01*
X95511260Y-85286115D01*
X95471605Y-85271718D01*
X95431126Y-85258691D01*
X95389959Y-85246985D01*
X95348238Y-85236552D01*
X95306100Y-85227343D01*
X95263679Y-85219310D01*
X95221111Y-85212403D01*
X95178532Y-85206575D01*
X95136076Y-85201777D01*
X95093879Y-85197960D01*
X95052077Y-85195076D01*
X95010805Y-85193076D01*
X94970197Y-85191912D01*
X94930391Y-85191535D01*
X94254082Y-85191535D01*
X94254082Y-86478939D01*
X93800523Y-86478939D01*
X93800523Y-84779741D01*
X94959700Y-84779741D01*
X95019261Y-84780597D01*
G37*
G36*
X97511793Y-86890000D02*
G01*
X97511793Y-84779741D01*
X97067027Y-84779741D01*
X97067027Y-86890000D01*
X97511793Y-86890000D01*
G37*
G36*
X98749372Y-86890000D02*
G01*
X98749372Y-85519797D01*
X100753384Y-87030683D01*
X100753384Y-84786336D01*
X100307885Y-84786336D01*
X100307885Y-86148478D01*
X98308269Y-84639057D01*
X98308269Y-86890000D01*
X98749372Y-86890000D01*
G37*
G36*
X104121005Y-85811423D02*
G01*
X103016783Y-85811423D01*
X103016783Y-86215157D01*
X103642533Y-86215157D01*
X103623954Y-86264253D01*
X103598519Y-86309148D01*
X103566758Y-86349983D01*
X103529201Y-86386901D01*
X103486375Y-86420046D01*
X103438810Y-86449560D01*
X103387036Y-86475585D01*
X103359736Y-86487334D01*
X103331581Y-86498265D01*
X103302639Y-86508394D01*
X103272975Y-86517741D01*
X103242656Y-86526323D01*
X103211747Y-86534158D01*
X103180315Y-86541264D01*
X103148426Y-86547658D01*
X103116146Y-86553358D01*
X103083541Y-86558383D01*
X103050678Y-86562749D01*
X103017622Y-86566476D01*
X102984439Y-86569580D01*
X102951196Y-86572080D01*
X102917960Y-86573993D01*
X102884795Y-86575337D01*
X102851768Y-86576131D01*
X102818946Y-86576392D01*
X102766223Y-86575419D01*
X102714292Y-86572532D01*
X102663210Y-86567781D01*
X102613037Y-86561213D01*
X102563828Y-86552878D01*
X102515643Y-86542823D01*
X102468539Y-86531098D01*
X102422574Y-86517751D01*
X102377806Y-86502830D01*
X102334293Y-86486384D01*
X102292091Y-86468462D01*
X102251260Y-86449112D01*
X102211858Y-86428382D01*
X102173941Y-86406322D01*
X102137567Y-86382980D01*
X102102796Y-86358405D01*
X102069683Y-86332644D01*
X102038288Y-86305748D01*
X102008668Y-86277763D01*
X101980881Y-86248739D01*
X101954984Y-86218724D01*
X101931036Y-86187768D01*
X101909094Y-86155917D01*
X101889217Y-86123222D01*
X101871461Y-86089730D01*
X101855885Y-86055491D01*
X101842547Y-86020552D01*
X101831504Y-85984962D01*
X101822815Y-85948771D01*
X101816536Y-85912025D01*
X101812727Y-85874775D01*
X101811444Y-85837069D01*
X101812727Y-85798642D01*
X101816536Y-85760742D01*
X101822815Y-85723414D01*
X101831504Y-85686703D01*
X101842547Y-85650655D01*
X101855885Y-85615315D01*
X101871461Y-85580729D01*
X101889217Y-85546942D01*
X101909094Y-85514000D01*
X101931036Y-85481948D01*
X101954984Y-85450832D01*
X101980881Y-85420697D01*
X102008668Y-85391589D01*
X102038288Y-85363552D01*
X102069683Y-85336634D01*
X102102796Y-85310878D01*
X102137567Y-85286331D01*
X102173941Y-85263038D01*
X102211858Y-85241044D01*
X102251260Y-85220396D01*
X102292091Y-85201138D01*
X102334293Y-85183316D01*
X102377806Y-85166976D01*
X102422574Y-85152162D01*
X102468539Y-85138921D01*
X102515643Y-85127298D01*
X102563828Y-85117338D01*
X102613037Y-85109087D01*
X102663210Y-85102590D01*
X102714292Y-85097894D01*
X102766223Y-85095042D01*
X102818946Y-85094082D01*
X102854065Y-85094510D01*
X102889201Y-85095797D01*
X102924327Y-85097948D01*
X102959415Y-85100968D01*
X102994441Y-85104862D01*
X103029376Y-85109634D01*
X103064195Y-85115290D01*
X103098871Y-85121834D01*
X103133378Y-85129271D01*
X103167688Y-85137605D01*
X103201776Y-85146843D01*
X103235614Y-85156988D01*
X103269176Y-85168045D01*
X103302436Y-85180019D01*
X103335367Y-85192916D01*
X103367943Y-85206739D01*
X103400136Y-85221494D01*
X103431921Y-85237185D01*
X103463271Y-85253818D01*
X103494158Y-85271396D01*
X103524558Y-85289926D01*
X103554442Y-85309412D01*
X103583785Y-85329858D01*
X103612560Y-85351270D01*
X103640740Y-85373652D01*
X103668299Y-85397009D01*
X103695210Y-85421346D01*
X103721447Y-85446667D01*
X103746983Y-85472979D01*
X103771792Y-85500285D01*
X103795847Y-85528590D01*
X103819121Y-85557899D01*
X103819121Y-84997362D01*
X103792534Y-84979449D01*
X103765537Y-84961986D01*
X103738141Y-84944982D01*
X103710358Y-84928442D01*
X103682197Y-84912376D01*
X103653669Y-84896791D01*
X103624786Y-84881696D01*
X103595558Y-84867096D01*
X103565997Y-84853001D01*
X103536112Y-84839419D01*
X103505916Y-84826356D01*
X103475418Y-84813822D01*
X103444630Y-84801823D01*
X103413562Y-84790367D01*
X103382226Y-84779462D01*
X103350632Y-84769117D01*
X103318792Y-84759338D01*
X103286715Y-84750133D01*
X103254413Y-84741511D01*
X103221897Y-84733479D01*
X103189177Y-84726045D01*
X103156265Y-84719216D01*
X103123171Y-84713001D01*
X103089907Y-84707407D01*
X103056482Y-84702442D01*
X103022909Y-84698114D01*
X102989197Y-84694430D01*
X102955358Y-84691399D01*
X102921403Y-84689028D01*
X102887342Y-84687324D01*
X102853186Y-84686296D01*
X102818946Y-84685952D01*
X102742697Y-84687437D01*
X102667471Y-84691844D01*
X102593360Y-84699104D01*
X102520455Y-84709147D01*
X102448849Y-84721904D01*
X102378632Y-84737305D01*
X102309897Y-84755279D01*
X102242735Y-84775757D01*
X102177238Y-84798670D01*
X102113497Y-84823947D01*
X102051604Y-84851519D01*
X101991651Y-84881316D01*
X101933729Y-84913268D01*
X101877930Y-84947306D01*
X101824346Y-84983359D01*
X101773068Y-85021359D01*
X101724187Y-85061234D01*
X101677796Y-85102916D01*
X101633987Y-85146335D01*
X101592849Y-85191420D01*
X101554477Y-85238103D01*
X101518960Y-85286313D01*
X101486391Y-85335980D01*
X101456861Y-85387036D01*
X101430462Y-85439409D01*
X101407286Y-85493031D01*
X101387424Y-85547831D01*
X101370967Y-85603740D01*
X101358008Y-85660688D01*
X101348638Y-85718606D01*
X101342949Y-85777422D01*
X101341033Y-85837069D01*
X101342949Y-85896122D01*
X101348638Y-85954395D01*
X101358008Y-86011817D01*
X101370967Y-86068315D01*
X101387424Y-86123817D01*
X101407286Y-86178252D01*
X101430462Y-86231547D01*
X101456861Y-86283632D01*
X101486391Y-86334435D01*
X101518960Y-86383882D01*
X101554477Y-86431904D01*
X101592849Y-86478428D01*
X101633987Y-86523382D01*
X101677796Y-86566694D01*
X101724187Y-86608293D01*
X101773068Y-86648107D01*
X101824346Y-86686065D01*
X101877930Y-86722093D01*
X101933729Y-86756121D01*
X101991651Y-86788077D01*
X102051604Y-86817889D01*
X102113497Y-86845485D01*
X102177238Y-86870794D01*
X102242735Y-86893743D01*
X102309897Y-86914261D01*
X102378632Y-86932277D01*
X102448849Y-86947718D01*
X102520455Y-86960512D01*
X102593360Y-86970588D01*
X102667471Y-86977874D01*
X102742697Y-86982298D01*
X102818946Y-86983789D01*
X102885537Y-86982804D01*
X102951300Y-86979846D01*
X103016152Y-86974908D01*
X103080008Y-86967981D01*
X103142784Y-86959058D01*
X103204394Y-86948134D01*
X103264756Y-86935199D01*
X103323785Y-86920247D01*
X103381395Y-86903271D01*
X103437503Y-86884264D01*
X103492025Y-86863218D01*
X103544875Y-86840125D01*
X103595971Y-86814980D01*
X103645226Y-86787773D01*
X103692557Y-86758500D01*
X103737879Y-86727151D01*
X103781109Y-86693719D01*
X103822161Y-86658199D01*
X103860951Y-86620581D01*
X103897395Y-86580860D01*
X103931409Y-86539027D01*
X103962907Y-86495076D01*
X103991807Y-86448999D01*
X104018022Y-86400789D01*
X104041469Y-86350439D01*
X104062064Y-86297941D01*
X104079722Y-86243289D01*
X104094359Y-86186474D01*
X104105890Y-86127491D01*
X104114231Y-86066331D01*
X104119297Y-86002987D01*
X104121005Y-85937452D01*
X104121005Y-85811423D01*
G37*
G36*
X107059979Y-85365191D02*
G01*
X108164201Y-87077578D01*
X109261095Y-85369588D01*
X109819435Y-86890000D01*
X110306699Y-86890000D01*
X109386392Y-84362086D01*
X108160537Y-86221751D01*
X106937613Y-84357690D01*
X106022435Y-86890000D01*
X106500907Y-86890000D01*
X107059979Y-85365191D01*
G37*
G36*
X110767585Y-86890000D02*
G01*
X112871982Y-86890000D01*
X112871982Y-86478939D01*
X111221144Y-86478939D01*
X111221144Y-85999002D01*
X112607467Y-85999002D01*
X112607467Y-85583545D01*
X111225541Y-85583545D01*
X111225541Y-85191535D01*
X112871982Y-85191535D01*
X112871982Y-84779741D01*
X110767585Y-84779741D01*
X110767585Y-86890000D01*
G37*
G36*
X116570063Y-86890000D02*
G01*
X117032414Y-86890000D01*
X116200767Y-84592163D01*
X115129518Y-86209295D01*
X114058269Y-84592163D01*
X113226622Y-86890000D01*
X113693370Y-86890000D01*
X113707582Y-86849865D01*
X113721913Y-86809565D01*
X113736355Y-86769109D01*
X113750904Y-86728507D01*
X113765552Y-86687771D01*
X113780294Y-86646909D01*
X113795124Y-86605932D01*
X113810035Y-86564851D01*
X113825020Y-86523676D01*
X113840075Y-86482416D01*
X113855193Y-86441082D01*
X113870367Y-86399684D01*
X113885592Y-86358232D01*
X113900861Y-86316737D01*
X113916168Y-86275209D01*
X113931507Y-86233658D01*
X113946872Y-86192094D01*
X113962256Y-86150527D01*
X113977654Y-86108967D01*
X113993059Y-86067426D01*
X114008465Y-86025912D01*
X114023866Y-85984436D01*
X114039256Y-85943009D01*
X114054628Y-85901640D01*
X114069977Y-85860340D01*
X114085296Y-85819119D01*
X114100579Y-85777987D01*
X114115820Y-85736954D01*
X114131012Y-85696030D01*
X114146151Y-85655227D01*
X114161228Y-85614553D01*
X114176239Y-85574019D01*
X115129518Y-87030683D01*
X116087195Y-85574019D01*
X116570063Y-86890000D01*
G37*
G36*
X118872216Y-84780012D02*
G01*
X118909274Y-84780864D01*
X118946723Y-84782362D01*
X118984455Y-84784567D01*
X119022361Y-84787543D01*
X119060331Y-84791353D01*
X119098258Y-84796058D01*
X119136032Y-84801723D01*
X119173544Y-84808410D01*
X119210685Y-84816181D01*
X119247347Y-84825100D01*
X119283419Y-84835228D01*
X119318794Y-84846630D01*
X119353363Y-84859368D01*
X119387016Y-84873504D01*
X119419644Y-84889101D01*
X119451139Y-84906223D01*
X119481391Y-84924931D01*
X119510293Y-84945289D01*
X119537733Y-84967360D01*
X119563605Y-84991206D01*
X119587799Y-85016890D01*
X119610205Y-85044475D01*
X119630716Y-85074023D01*
X119649221Y-85105598D01*
X119665613Y-85139263D01*
X119679781Y-85175079D01*
X119691618Y-85213110D01*
X119701014Y-85253419D01*
X119707860Y-85296068D01*
X119712048Y-85341120D01*
X119713468Y-85388639D01*
X119712980Y-85410814D01*
X119710423Y-85443730D01*
X119705694Y-85476154D01*
X119698811Y-85507998D01*
X119689792Y-85539176D01*
X119678655Y-85569600D01*
X119665419Y-85599184D01*
X119650100Y-85627840D01*
X119632718Y-85655482D01*
X119613290Y-85682023D01*
X119591835Y-85707376D01*
X119624425Y-85729037D01*
X119655885Y-85752965D01*
X119686080Y-85778988D01*
X119714876Y-85806935D01*
X119742140Y-85836634D01*
X119767737Y-85867912D01*
X119791533Y-85900598D01*
X119813394Y-85934521D01*
X119833185Y-85969509D01*
X119850773Y-86005390D01*
X119866023Y-86041992D01*
X119878801Y-86079144D01*
X119888974Y-86116673D01*
X119896406Y-86154409D01*
X119900963Y-86192179D01*
X119902512Y-86229811D01*
X119901138Y-86273222D01*
X119897084Y-86314988D01*
X119890453Y-86355128D01*
X119881347Y-86393659D01*
X119869869Y-86430598D01*
X119856120Y-86465963D01*
X119840203Y-86499770D01*
X119822221Y-86532039D01*
X119802276Y-86562785D01*
X119780470Y-86592027D01*
X119756905Y-86619782D01*
X119731685Y-86646067D01*
X119704911Y-86670900D01*
X119676685Y-86694298D01*
X119647111Y-86716278D01*
X119616290Y-86736859D01*
X119584325Y-86756058D01*
X119551318Y-86773891D01*
X119517372Y-86790377D01*
X119482589Y-86805533D01*
X119447070Y-86819375D01*
X119410920Y-86831923D01*
X119374240Y-86843193D01*
X119337132Y-86853203D01*
X119299699Y-86861969D01*
X119262043Y-86869511D01*
X119224266Y-86875844D01*
X119186472Y-86880986D01*
X119148761Y-86884956D01*
X119111238Y-86887769D01*
X119074003Y-86889445D01*
X119037160Y-86890000D01*
X117571703Y-86890000D01*
X117571703Y-86478939D01*
X118016469Y-86478939D01*
X119029100Y-86478939D01*
X119062726Y-86478429D01*
X119097116Y-86476785D01*
X119131864Y-86473833D01*
X119166566Y-86469402D01*
X119200818Y-86463317D01*
X119234214Y-86455407D01*
X119266349Y-86445498D01*
X119296820Y-86433418D01*
X119325222Y-86418994D01*
X119351150Y-86402052D01*
X119374199Y-86382421D01*
X119393964Y-86359928D01*
X119410042Y-86334399D01*
X119422027Y-86305661D01*
X119429515Y-86273543D01*
X119432100Y-86237871D01*
X119429654Y-86202109D01*
X119422562Y-86169734D01*
X119411191Y-86140600D01*
X119395910Y-86114555D01*
X119377088Y-86091452D01*
X119355091Y-86071140D01*
X119330288Y-86053470D01*
X119303049Y-86038294D01*
X119273739Y-86025462D01*
X119242729Y-86014825D01*
X119210385Y-86006234D01*
X119177076Y-85999540D01*
X119143171Y-85994593D01*
X119109037Y-85991244D01*
X119075043Y-85989344D01*
X119041556Y-85988743D01*
X118016469Y-85988743D01*
X118016469Y-86478939D01*
X117571703Y-86478939D01*
X117571703Y-85576950D01*
X118016469Y-85576950D01*
X118903070Y-85576950D01*
X118916255Y-85576884D01*
X118957817Y-85575719D01*
X119001307Y-85572642D01*
X119030682Y-85569234D01*
X119059880Y-85564536D01*
X119102443Y-85554685D01*
X119142284Y-85540942D01*
X119178008Y-85522711D01*
X119208222Y-85499399D01*
X119231529Y-85470412D01*
X119246537Y-85435155D01*
X119251849Y-85393035D01*
X119248977Y-85359015D01*
X119240689Y-85329049D01*
X119219178Y-85291139D01*
X119188245Y-85260909D01*
X119163209Y-85244593D01*
X119135215Y-85231049D01*
X119104754Y-85220020D01*
X119072318Y-85211248D01*
X119038399Y-85204479D01*
X119003488Y-85199455D01*
X118968077Y-85195920D01*
X118932657Y-85193616D01*
X118897721Y-85192289D01*
X118863759Y-85191681D01*
X118831263Y-85191535D01*
X118016469Y-85191535D01*
X118016469Y-85576950D01*
X117571703Y-85576950D01*
X117571703Y-84779741D01*
X118835659Y-84779741D01*
X118872216Y-84780012D01*
G37*
G36*
X120509944Y-86890000D02*
G01*
X122614340Y-86890000D01*
X122614340Y-86478939D01*
X120963503Y-86478939D01*
X120963503Y-85999002D01*
X122349825Y-85999002D01*
X122349825Y-85583545D01*
X120967899Y-85583545D01*
X120967899Y-85191535D01*
X122614340Y-85191535D01*
X122614340Y-84779741D01*
X120509944Y-84779741D01*
X120509944Y-86890000D01*
G37*
G36*
X124576762Y-84780178D02*
G01*
X124613771Y-84781508D01*
X124650889Y-84783762D01*
X124688025Y-84786970D01*
X124725091Y-84791163D01*
X124761996Y-84796371D01*
X124798651Y-84802625D01*
X124834966Y-84809955D01*
X124870852Y-84818392D01*
X124906219Y-84827965D01*
X124940977Y-84838706D01*
X124975037Y-84850646D01*
X125008310Y-84863813D01*
X125040704Y-84878240D01*
X125072132Y-84893956D01*
X125102503Y-84910991D01*
X125131728Y-84929377D01*
X125159717Y-84949144D01*
X125186380Y-84970322D01*
X125211628Y-84992941D01*
X125235372Y-85017032D01*
X125257521Y-85042626D01*
X125277985Y-85069753D01*
X125296676Y-85098444D01*
X125313504Y-85128728D01*
X125328379Y-85160637D01*
X125341211Y-85194200D01*
X125351912Y-85229449D01*
X125360390Y-85266414D01*
X125366557Y-85305124D01*
X125370323Y-85345612D01*
X125371598Y-85387906D01*
X125369323Y-85445666D01*
X125362636Y-85500026D01*
X125351747Y-85551075D01*
X125336862Y-85598897D01*
X125318191Y-85643582D01*
X125295941Y-85685215D01*
X125270321Y-85723883D01*
X125241539Y-85759674D01*
X125209803Y-85792674D01*
X125175321Y-85822971D01*
X125138302Y-85850650D01*
X125098954Y-85875800D01*
X125057485Y-85898507D01*
X125014104Y-85918858D01*
X124969018Y-85936940D01*
X124922435Y-85952840D01*
X124939916Y-85980593D01*
X124957721Y-86008742D01*
X124975828Y-86037257D01*
X124994213Y-86066108D01*
X125012852Y-86095265D01*
X125031724Y-86124699D01*
X125050804Y-86154380D01*
X125070069Y-86184279D01*
X125089496Y-86214365D01*
X125109062Y-86244610D01*
X125128744Y-86274983D01*
X125148518Y-86305455D01*
X125168361Y-86335997D01*
X125188251Y-86366577D01*
X125208163Y-86397168D01*
X125228075Y-86427739D01*
X125247963Y-86458261D01*
X125267804Y-86488704D01*
X125287576Y-86519038D01*
X125307254Y-86549234D01*
X125326815Y-86579261D01*
X125346237Y-86609091D01*
X125365496Y-86638694D01*
X125384570Y-86668040D01*
X125403433Y-86697099D01*
X125422064Y-86725842D01*
X125440440Y-86754240D01*
X125458536Y-86782261D01*
X125476331Y-86809878D01*
X125493800Y-86837059D01*
X125510920Y-86863776D01*
X125527669Y-86890000D01*
X125002303Y-86890000D01*
X124443964Y-85999002D01*
X123708304Y-85999002D01*
X123708304Y-86890000D01*
X123263538Y-86890000D01*
X123263538Y-85587941D01*
X123708304Y-85587941D01*
X124506978Y-85587941D01*
X124559151Y-85587079D01*
X124607203Y-85584515D01*
X124651239Y-85580281D01*
X124691363Y-85574408D01*
X124727678Y-85566930D01*
X124760289Y-85557879D01*
X124789300Y-85547286D01*
X124826295Y-85528578D01*
X124855776Y-85506582D01*
X124878093Y-85481409D01*
X124893599Y-85453166D01*
X124902645Y-85421962D01*
X124905583Y-85387906D01*
X124902645Y-85353771D01*
X124893599Y-85322712D01*
X124878093Y-85294790D01*
X124855776Y-85270067D01*
X124826295Y-85248604D01*
X124789300Y-85230463D01*
X124760289Y-85220244D01*
X124727678Y-85211548D01*
X124691363Y-85204392D01*
X124651239Y-85198794D01*
X124607203Y-85194773D01*
X124559151Y-85192347D01*
X124506978Y-85191535D01*
X123708304Y-85191535D01*
X123708304Y-85587941D01*
X123263538Y-85587941D01*
X123263538Y-84779741D01*
X124539951Y-84779741D01*
X124576762Y-84780178D01*
G37*
G36*
X96529937Y-67690537D02*
G01*
X95614026Y-67690537D01*
X95614026Y-72380000D01*
X100183321Y-72380000D01*
X100183321Y-71540293D01*
X96529937Y-71540293D01*
X96529937Y-67690537D01*
G37*
G36*
X104630984Y-70360600D02*
G01*
X104628940Y-70447452D01*
X104622897Y-70531338D01*
X104612985Y-70612272D01*
X104599333Y-70690267D01*
X104582073Y-70765338D01*
X104561335Y-70837498D01*
X104537249Y-70906760D01*
X104509946Y-70973138D01*
X104479556Y-71036646D01*
X104446209Y-71097298D01*
X104410037Y-71155107D01*
X104371168Y-71210087D01*
X104329735Y-71262251D01*
X104285866Y-71311614D01*
X104239693Y-71358189D01*
X104191346Y-71401990D01*
X104140956Y-71443030D01*
X104088652Y-71481323D01*
X104034565Y-71516883D01*
X103978827Y-71549724D01*
X103921566Y-71579858D01*
X103862913Y-71607300D01*
X103802999Y-71632064D01*
X103741955Y-71654163D01*
X103679910Y-71673611D01*
X103616995Y-71690421D01*
X103553341Y-71704608D01*
X103489078Y-71716185D01*
X103424336Y-71725165D01*
X103359245Y-71731562D01*
X103293937Y-71735391D01*
X103228541Y-71736664D01*
X103163145Y-71735391D01*
X103097837Y-71731562D01*
X103032747Y-71725165D01*
X102968005Y-71716185D01*
X102903741Y-71704608D01*
X102840087Y-71690421D01*
X102777172Y-71673611D01*
X102715127Y-71654163D01*
X102654083Y-71632064D01*
X102594169Y-71607300D01*
X102535517Y-71579858D01*
X102478256Y-71549724D01*
X102422517Y-71516883D01*
X102368430Y-71481323D01*
X102316126Y-71443030D01*
X102265736Y-71401990D01*
X102217389Y-71358189D01*
X102171216Y-71311614D01*
X102127348Y-71262251D01*
X102085914Y-71210087D01*
X102047046Y-71155107D01*
X102010873Y-71097298D01*
X101977526Y-71036646D01*
X101947136Y-70973138D01*
X101919833Y-70906760D01*
X101895747Y-70837498D01*
X101875009Y-70765338D01*
X101857749Y-70690267D01*
X101844098Y-70612272D01*
X101834185Y-70531338D01*
X101828142Y-70447452D01*
X101826099Y-70360600D01*
X101826099Y-68159483D01*
X100935101Y-68159483D01*
X100935101Y-70470509D01*
X100938415Y-70604169D01*
X100948219Y-70733145D01*
X100964304Y-70857464D01*
X100986463Y-70977156D01*
X101014488Y-71092250D01*
X101048171Y-71202775D01*
X101087304Y-71308760D01*
X101131678Y-71410233D01*
X101181087Y-71507224D01*
X101235321Y-71599762D01*
X101294173Y-71687876D01*
X101357436Y-71771594D01*
X101424900Y-71850946D01*
X101496359Y-71925961D01*
X101571604Y-71996667D01*
X101650427Y-72063094D01*
X101732620Y-72125271D01*
X101817976Y-72183226D01*
X101906286Y-72236989D01*
X101997342Y-72286588D01*
X102090937Y-72332053D01*
X102186863Y-72373412D01*
X102284910Y-72410695D01*
X102384873Y-72443930D01*
X102486542Y-72473147D01*
X102589710Y-72498374D01*
X102694168Y-72519640D01*
X102799709Y-72536975D01*
X102906125Y-72550407D01*
X103013207Y-72559966D01*
X103120749Y-72565680D01*
X103228541Y-72567578D01*
X103336380Y-72565680D01*
X103444056Y-72559966D01*
X103551356Y-72550407D01*
X103658066Y-72536975D01*
X103763972Y-72519640D01*
X103868860Y-72498374D01*
X103972517Y-72473147D01*
X104074728Y-72443930D01*
X104175280Y-72410695D01*
X104273958Y-72373412D01*
X104370550Y-72332053D01*
X104464840Y-72286588D01*
X104556616Y-72236989D01*
X104645663Y-72183226D01*
X104731767Y-72125271D01*
X104814715Y-72063094D01*
X104894293Y-71996667D01*
X104970287Y-71925961D01*
X105042482Y-71850946D01*
X105110666Y-71771594D01*
X105174624Y-71687876D01*
X105234143Y-71599762D01*
X105289008Y-71507224D01*
X105339005Y-71410233D01*
X105383922Y-71308760D01*
X105423544Y-71202775D01*
X105457656Y-71092250D01*
X105486046Y-70977156D01*
X105508500Y-70857464D01*
X105524803Y-70733145D01*
X105534741Y-70604169D01*
X105538101Y-70470509D01*
X105538101Y-68159483D01*
X104630984Y-68159483D01*
X104630984Y-70360600D01*
G37*
G36*
X111819051Y-68159483D02*
G01*
X110516259Y-68159483D01*
X109055198Y-69597096D01*
X107576552Y-68159483D01*
X106291346Y-68159483D01*
X106350979Y-68219176D01*
X106411679Y-68279788D01*
X106473383Y-68341260D01*
X106536026Y-68403530D01*
X106599543Y-68466541D01*
X106663868Y-68530231D01*
X106728937Y-68594540D01*
X106794685Y-68659410D01*
X106861047Y-68724780D01*
X106927958Y-68790590D01*
X106995353Y-68856781D01*
X107063167Y-68923292D01*
X107131336Y-68990065D01*
X107199793Y-69057038D01*
X107268475Y-69124152D01*
X107337316Y-69191348D01*
X107406252Y-69258565D01*
X107475217Y-69325744D01*
X107544147Y-69392825D01*
X107612977Y-69459747D01*
X107681641Y-69526452D01*
X107750075Y-69592879D01*
X107818214Y-69658968D01*
X107885993Y-69724660D01*
X107953346Y-69789895D01*
X108020210Y-69854612D01*
X108086519Y-69918753D01*
X108152208Y-69982257D01*
X108217212Y-70045064D01*
X108281466Y-70107115D01*
X108344906Y-70168350D01*
X108407466Y-70228709D01*
X106291346Y-72380000D01*
X107567760Y-72380000D01*
X109063991Y-70876441D01*
X110541172Y-72380000D01*
X111819051Y-72380000D01*
X109701465Y-70228709D01*
X111819051Y-68159483D01*
G37*
G36*
X73674040Y-80359776D02*
G01*
X73676059Y-80301350D01*
X73682052Y-80243720D01*
X73691921Y-80186956D01*
X73705572Y-80131127D01*
X73722907Y-80076302D01*
X73743830Y-80022552D01*
X73768245Y-79969945D01*
X73796055Y-79918551D01*
X73827163Y-79868440D01*
X73861474Y-79819680D01*
X73898890Y-79772341D01*
X73939316Y-79726493D01*
X73982655Y-79682204D01*
X74028811Y-79639545D01*
X74077687Y-79598585D01*
X74129187Y-79559392D01*
X74183213Y-79522038D01*
X74239671Y-79486590D01*
X74298464Y-79453118D01*
X74359494Y-79421693D01*
X74422666Y-79392382D01*
X74487884Y-79365257D01*
X74555050Y-79340385D01*
X74624068Y-79317836D01*
X74694843Y-79297681D01*
X74767277Y-79279987D01*
X74841274Y-79264825D01*
X74916738Y-79252265D01*
X74993572Y-79242374D01*
X75071680Y-79235224D01*
X75150966Y-79230883D01*
X75231332Y-79229420D01*
X75284787Y-79230227D01*
X75338148Y-79232635D01*
X75391379Y-79236623D01*
X75444444Y-79242174D01*
X75497306Y-79249268D01*
X75549930Y-79257885D01*
X75602278Y-79268006D01*
X75654315Y-79279612D01*
X75706004Y-79292684D01*
X75757310Y-79307201D01*
X75808194Y-79323146D01*
X75858622Y-79340497D01*
X75908557Y-79359237D01*
X75957963Y-79379346D01*
X76006803Y-79400805D01*
X76055041Y-79423593D01*
X76102641Y-79447693D01*
X76149566Y-79473084D01*
X76195781Y-79499747D01*
X76241248Y-79527664D01*
X76285932Y-79556814D01*
X76329795Y-79587178D01*
X76372803Y-79618737D01*
X76414918Y-79651472D01*
X76456104Y-79685363D01*
X76496325Y-79720391D01*
X76535545Y-79756537D01*
X76573727Y-79793782D01*
X76610835Y-79832105D01*
X76646833Y-79871488D01*
X76681684Y-79911911D01*
X76715352Y-79953356D01*
X76715352Y-79122930D01*
X76676119Y-79096442D01*
X76636282Y-79070656D01*
X76595856Y-79045580D01*
X76554854Y-79021224D01*
X76513291Y-78997598D01*
X76471182Y-78974710D01*
X76428540Y-78952569D01*
X76385380Y-78931185D01*
X76341716Y-78910566D01*
X76297563Y-78890722D01*
X76252935Y-78871662D01*
X76207846Y-78853395D01*
X76162310Y-78835930D01*
X76116343Y-78819277D01*
X76069957Y-78803444D01*
X76023168Y-78788440D01*
X75975989Y-78774275D01*
X75928436Y-78760958D01*
X75880522Y-78748497D01*
X75832261Y-78736903D01*
X75783669Y-78726183D01*
X75734759Y-78716348D01*
X75685545Y-78707407D01*
X75636043Y-78699368D01*
X75586265Y-78692240D01*
X75536228Y-78686033D01*
X75485944Y-78680756D01*
X75435428Y-78676418D01*
X75384694Y-78673028D01*
X75333758Y-78670596D01*
X75282632Y-78669129D01*
X75231332Y-78668639D01*
X75118103Y-78670842D01*
X75006384Y-78677381D01*
X74896312Y-78688148D01*
X74788024Y-78703037D01*
X74681657Y-78721941D01*
X74577346Y-78744753D01*
X74475230Y-78771367D01*
X74375444Y-78801675D01*
X74278126Y-78835571D01*
X74183411Y-78872948D01*
X74091437Y-78913699D01*
X74002341Y-78957717D01*
X73916258Y-79004896D01*
X73833325Y-79055129D01*
X73753680Y-79108309D01*
X73677459Y-79164330D01*
X73604799Y-79223083D01*
X73535836Y-79284463D01*
X73470706Y-79348363D01*
X73409548Y-79414677D01*
X73352497Y-79483296D01*
X73299689Y-79554115D01*
X73251262Y-79627026D01*
X73207353Y-79701923D01*
X73168097Y-79778700D01*
X73133633Y-79857248D01*
X73104095Y-79937462D01*
X73079622Y-80019235D01*
X73060349Y-80102459D01*
X73046413Y-80187029D01*
X73037952Y-80272837D01*
X73035101Y-80359776D01*
X73037952Y-80446699D01*
X73046413Y-80532458D01*
X73060349Y-80616948D01*
X73079622Y-80700066D01*
X73104095Y-80781706D01*
X73133633Y-80861763D01*
X73168097Y-80940134D01*
X73207353Y-81016713D01*
X73251262Y-81091396D01*
X73299689Y-81164078D01*
X73352497Y-81234655D01*
X73409548Y-81303021D01*
X73470706Y-81369073D01*
X73535836Y-81432705D01*
X73604799Y-81493813D01*
X73677459Y-81552292D01*
X73753680Y-81608038D01*
X73833325Y-81660945D01*
X73916258Y-81710910D01*
X74002341Y-81757828D01*
X74091437Y-81801594D01*
X74183411Y-81842102D01*
X74278126Y-81879250D01*
X74375444Y-81912932D01*
X74475230Y-81943043D01*
X74577346Y-81969478D01*
X74681657Y-81992134D01*
X74788024Y-82010906D01*
X74896312Y-82025688D01*
X75006384Y-82036376D01*
X75118103Y-82042865D01*
X75231332Y-82045052D01*
X75282619Y-82044578D01*
X75333704Y-82043161D01*
X75384578Y-82040808D01*
X75435227Y-82037526D01*
X75485642Y-82033323D01*
X75535809Y-82028205D01*
X75585718Y-82022180D01*
X75635356Y-82015254D01*
X75684712Y-82007436D01*
X75733775Y-81998732D01*
X75782533Y-81989149D01*
X75830973Y-81978694D01*
X75879086Y-81967375D01*
X75926858Y-81955199D01*
X75974279Y-81942173D01*
X76021336Y-81928304D01*
X76068018Y-81913599D01*
X76114314Y-81898065D01*
X76160211Y-81881710D01*
X76205699Y-81864541D01*
X76250765Y-81846565D01*
X76295399Y-81827788D01*
X76339587Y-81808219D01*
X76383319Y-81787864D01*
X76426583Y-81766731D01*
X76469368Y-81744826D01*
X76511661Y-81722157D01*
X76553451Y-81698731D01*
X76594727Y-81674555D01*
X76635477Y-81649636D01*
X76675689Y-81623982D01*
X76715352Y-81597599D01*
X76715352Y-80773035D01*
X76681168Y-80814360D01*
X76645867Y-80854611D01*
X76609481Y-80893771D01*
X76572044Y-80931825D01*
X76533589Y-80968759D01*
X76494149Y-81004555D01*
X76453756Y-81039199D01*
X76412445Y-81072675D01*
X76370248Y-81104968D01*
X76327198Y-81136061D01*
X76283328Y-81165940D01*
X76238672Y-81194589D01*
X76193262Y-81221992D01*
X76147132Y-81248133D01*
X76100315Y-81272998D01*
X76052843Y-81296570D01*
X76004751Y-81318834D01*
X75956070Y-81339774D01*
X75906834Y-81359375D01*
X75857077Y-81377622D01*
X75806831Y-81394498D01*
X75756129Y-81409989D01*
X75705005Y-81424078D01*
X75653491Y-81436750D01*
X75601621Y-81447989D01*
X75549427Y-81457781D01*
X75496944Y-81466108D01*
X75444203Y-81472957D01*
X75391239Y-81478311D01*
X75338083Y-81482154D01*
X75284770Y-81484471D01*
X75231332Y-81485247D01*
X75150966Y-81483802D01*
X75071680Y-81479509D01*
X74993572Y-81472437D01*
X74916738Y-81462653D01*
X74841274Y-81450223D01*
X74767277Y-81435215D01*
X74694843Y-81417696D01*
X74624068Y-81397732D01*
X74555050Y-81375391D01*
X74487884Y-81350741D01*
X74422666Y-81323847D01*
X74359494Y-81294778D01*
X74298464Y-81263600D01*
X74239671Y-81230380D01*
X74183213Y-81195186D01*
X74129187Y-81158084D01*
X74077687Y-81119142D01*
X74028811Y-81078426D01*
X73982655Y-81036004D01*
X73939316Y-80991943D01*
X73898890Y-80946310D01*
X73861474Y-80899172D01*
X73827163Y-80850597D01*
X73796055Y-80800650D01*
X73768245Y-80749399D01*
X73743830Y-80696912D01*
X73722907Y-80643255D01*
X73705572Y-80588496D01*
X73691921Y-80532702D01*
X73682052Y-80475939D01*
X73676059Y-80418275D01*
X73674040Y-80359776D01*
G37*
G36*
X79807278Y-78670842D02*
G01*
X79918914Y-78677381D01*
X80028908Y-78688148D01*
X80137124Y-78703037D01*
X80243423Y-78721941D01*
X80347671Y-78744753D01*
X80449729Y-78771367D01*
X80549461Y-78801675D01*
X80646730Y-78835571D01*
X80741399Y-78872948D01*
X80833332Y-78913699D01*
X80922391Y-78957717D01*
X81008440Y-79004896D01*
X81091342Y-79055129D01*
X81170959Y-79108309D01*
X81247156Y-79164330D01*
X81319795Y-79223083D01*
X81388739Y-79284463D01*
X81453852Y-79348363D01*
X81514997Y-79414677D01*
X81572036Y-79483296D01*
X81624834Y-79554115D01*
X81673252Y-79627026D01*
X81717155Y-79701923D01*
X81756406Y-79778700D01*
X81790867Y-79857248D01*
X81820402Y-79937462D01*
X81844873Y-80019235D01*
X81864145Y-80102459D01*
X81878080Y-80187029D01*
X81886542Y-80272837D01*
X81889392Y-80359776D01*
X81886542Y-80446699D01*
X81878080Y-80532458D01*
X81864145Y-80616948D01*
X81844873Y-80700066D01*
X81820402Y-80781706D01*
X81790867Y-80861763D01*
X81756406Y-80940134D01*
X81717155Y-81016713D01*
X81673252Y-81091396D01*
X81624834Y-81164078D01*
X81572036Y-81234655D01*
X81514997Y-81303021D01*
X81453852Y-81369073D01*
X81388739Y-81432705D01*
X81319795Y-81493813D01*
X81247156Y-81552292D01*
X81170959Y-81608038D01*
X81091342Y-81660945D01*
X81008440Y-81710910D01*
X80922391Y-81757828D01*
X80833332Y-81801594D01*
X80741399Y-81842102D01*
X80646730Y-81879250D01*
X80549461Y-81912932D01*
X80449729Y-81943043D01*
X80347671Y-81969478D01*
X80243423Y-81992134D01*
X80137124Y-82010906D01*
X80028908Y-82025688D01*
X79918914Y-82036376D01*
X79807278Y-82042865D01*
X79694138Y-82045052D01*
X79581338Y-82042865D01*
X79469994Y-82036376D01*
X79360246Y-82025688D01*
X79252232Y-82010906D01*
X79146092Y-81992134D01*
X79041966Y-81969478D01*
X78939992Y-81943043D01*
X78840310Y-81912932D01*
X78743060Y-81879250D01*
X78648381Y-81842102D01*
X78556412Y-81801594D01*
X78467292Y-81757828D01*
X78381162Y-81710910D01*
X78298159Y-81660945D01*
X78218424Y-81608038D01*
X78142096Y-81552292D01*
X78069315Y-81493813D01*
X78000219Y-81432705D01*
X77934948Y-81369073D01*
X77873641Y-81303021D01*
X77816438Y-81234655D01*
X77763478Y-81164078D01*
X77714901Y-81091396D01*
X77670845Y-81016713D01*
X77631451Y-80940134D01*
X77596857Y-80861763D01*
X77567202Y-80781706D01*
X77542627Y-80700066D01*
X77523271Y-80616948D01*
X77509272Y-80532458D01*
X77500771Y-80446699D01*
X77497906Y-80359776D01*
X78136845Y-80359776D01*
X78138878Y-80418275D01*
X78144911Y-80475939D01*
X78154843Y-80532702D01*
X78168578Y-80588496D01*
X78186014Y-80643255D01*
X78207054Y-80696912D01*
X78231598Y-80749399D01*
X78259547Y-80800650D01*
X78290801Y-80850597D01*
X78325263Y-80899172D01*
X78362832Y-80946310D01*
X78403410Y-80991943D01*
X78446897Y-81036004D01*
X78493194Y-81078426D01*
X78542203Y-81119142D01*
X78593824Y-81158084D01*
X78647957Y-81195186D01*
X78704505Y-81230380D01*
X78763368Y-81263600D01*
X78824446Y-81294778D01*
X78887641Y-81323847D01*
X78952853Y-81350741D01*
X79019984Y-81375391D01*
X79088934Y-81397732D01*
X79159605Y-81417696D01*
X79231896Y-81435215D01*
X79305710Y-81450223D01*
X79380946Y-81462653D01*
X79457506Y-81472437D01*
X79535291Y-81479509D01*
X79614201Y-81483802D01*
X79694138Y-81485247D01*
X79774415Y-81483802D01*
X79853618Y-81479509D01*
X79931648Y-81472437D01*
X80008410Y-81462653D01*
X80083806Y-81450223D01*
X80157740Y-81435215D01*
X80230116Y-81417696D01*
X80300837Y-81397732D01*
X80369806Y-81375391D01*
X80436927Y-81350741D01*
X80502103Y-81323847D01*
X80565237Y-81294778D01*
X80626234Y-81263600D01*
X80684996Y-81230380D01*
X80741426Y-81195186D01*
X80795429Y-81158084D01*
X80846907Y-81119142D01*
X80895764Y-81078426D01*
X80941903Y-81036004D01*
X80985228Y-80991943D01*
X81025642Y-80946310D01*
X81063049Y-80899172D01*
X81097352Y-80850597D01*
X81128454Y-80800650D01*
X81156258Y-80749399D01*
X81180669Y-80696912D01*
X81201590Y-80643255D01*
X81218923Y-80588496D01*
X81232572Y-80532702D01*
X81242442Y-80475939D01*
X81248434Y-80418275D01*
X81250453Y-80359776D01*
X81248434Y-80301350D01*
X81242442Y-80243720D01*
X81232572Y-80186956D01*
X81218923Y-80131127D01*
X81201590Y-80076302D01*
X81180669Y-80022552D01*
X81156258Y-79969945D01*
X81128454Y-79918551D01*
X81097352Y-79868440D01*
X81063049Y-79819680D01*
X81025642Y-79772341D01*
X80985228Y-79726493D01*
X80941903Y-79682204D01*
X80895764Y-79639545D01*
X80846907Y-79598585D01*
X80795429Y-79559392D01*
X80741426Y-79522038D01*
X80684996Y-79486590D01*
X80626234Y-79453118D01*
X80565237Y-79421693D01*
X80502103Y-79392382D01*
X80436927Y-79365257D01*
X80369806Y-79340385D01*
X80300837Y-79317836D01*
X80230116Y-79297681D01*
X80157740Y-79279987D01*
X80083806Y-79264825D01*
X80008410Y-79252265D01*
X79931648Y-79242374D01*
X79853618Y-79235224D01*
X79774415Y-79230883D01*
X79694138Y-79229420D01*
X79614201Y-79230883D01*
X79535291Y-79235224D01*
X79457506Y-79242374D01*
X79380946Y-79252265D01*
X79305710Y-79264825D01*
X79231896Y-79279987D01*
X79159605Y-79297681D01*
X79088934Y-79317836D01*
X79019984Y-79340385D01*
X78952853Y-79365257D01*
X78887641Y-79392382D01*
X78824446Y-79421693D01*
X78763368Y-79453118D01*
X78704505Y-79486590D01*
X78647957Y-79522038D01*
X78593824Y-79559392D01*
X78542203Y-79598585D01*
X78493194Y-79639545D01*
X78446897Y-79682204D01*
X78403410Y-79726493D01*
X78362832Y-79772341D01*
X78325263Y-79819680D01*
X78290801Y-79868440D01*
X78259547Y-79918551D01*
X78231598Y-79969945D01*
X78207054Y-80022552D01*
X78186014Y-80076302D01*
X78168578Y-80131127D01*
X78154843Y-80186956D01*
X78144911Y-80243720D01*
X78138878Y-80301350D01*
X78136845Y-80359776D01*
X77497906Y-80359776D01*
X77500771Y-80272837D01*
X77509272Y-80187029D01*
X77523271Y-80102459D01*
X77542627Y-80019235D01*
X77567202Y-79937462D01*
X77596857Y-79857248D01*
X77631451Y-79778700D01*
X77670845Y-79701923D01*
X77714901Y-79627026D01*
X77763478Y-79554115D01*
X77816438Y-79483296D01*
X77873641Y-79414677D01*
X77934948Y-79348363D01*
X78000219Y-79284463D01*
X78069315Y-79223083D01*
X78142096Y-79164330D01*
X78218424Y-79108309D01*
X78298159Y-79055129D01*
X78381162Y-79004896D01*
X78467292Y-78957717D01*
X78556412Y-78913699D01*
X78648381Y-78872948D01*
X78743060Y-78835571D01*
X78840310Y-78801675D01*
X78939992Y-78771367D01*
X79041966Y-78744753D01*
X79146092Y-78721941D01*
X79252232Y-78703037D01*
X79360246Y-78688148D01*
X79469994Y-78677381D01*
X79581338Y-78670842D01*
X79694138Y-78668639D01*
X79807278Y-78670842D01*
G37*
G36*
X85470969Y-80415464D02*
G01*
X85469380Y-80483429D01*
X85464680Y-80549033D01*
X85456969Y-80612287D01*
X85446347Y-80673207D01*
X85432914Y-80731804D01*
X85416770Y-80788093D01*
X85398017Y-80842086D01*
X85376753Y-80893798D01*
X85353079Y-80943241D01*
X85327095Y-80990430D01*
X85298902Y-81035377D01*
X85268599Y-81078096D01*
X85236287Y-81118601D01*
X85202066Y-81156904D01*
X85166036Y-81193019D01*
X85128297Y-81226960D01*
X85088949Y-81258740D01*
X85048094Y-81288373D01*
X85005830Y-81315871D01*
X84962257Y-81341249D01*
X84917478Y-81364519D01*
X84871590Y-81385696D01*
X84824695Y-81404792D01*
X84776892Y-81421820D01*
X84728283Y-81436796D01*
X84678966Y-81449731D01*
X84629043Y-81460639D01*
X84578613Y-81469534D01*
X84527777Y-81476428D01*
X84476634Y-81481337D01*
X84425285Y-81484272D01*
X84373831Y-81485247D01*
X84322390Y-81484272D01*
X84271082Y-81481337D01*
X84220005Y-81476428D01*
X84169258Y-81469534D01*
X84118939Y-81460639D01*
X84069146Y-81449731D01*
X84019977Y-81436796D01*
X83971532Y-81421820D01*
X83923908Y-81404792D01*
X83877204Y-81385696D01*
X83831519Y-81364519D01*
X83786949Y-81341249D01*
X83743595Y-81315871D01*
X83701555Y-81288373D01*
X83660926Y-81258740D01*
X83621807Y-81226960D01*
X83584297Y-81193019D01*
X83548493Y-81156904D01*
X83514496Y-81118601D01*
X83482401Y-81078096D01*
X83452309Y-81035377D01*
X83424318Y-80990430D01*
X83398525Y-80943241D01*
X83375030Y-80893798D01*
X83353930Y-80842086D01*
X83335325Y-80788093D01*
X83319312Y-80731804D01*
X83305989Y-80673207D01*
X83295456Y-80612287D01*
X83287811Y-80549033D01*
X83283152Y-80483429D01*
X83281577Y-80415464D01*
X83281577Y-78793691D01*
X82670969Y-78793691D01*
X82670969Y-80494598D01*
X82673423Y-80593598D01*
X82680680Y-80689110D01*
X82692589Y-80781159D01*
X82708997Y-80869767D01*
X82729750Y-80954955D01*
X82754696Y-81036747D01*
X82783681Y-81115165D01*
X82816553Y-81190232D01*
X82853159Y-81261971D01*
X82893346Y-81330403D01*
X82936961Y-81395551D01*
X82983850Y-81457438D01*
X83033862Y-81516086D01*
X83086842Y-81571519D01*
X83142639Y-81623758D01*
X83201099Y-81672826D01*
X83262068Y-81718745D01*
X83325396Y-81761539D01*
X83390927Y-81801229D01*
X83458510Y-81837838D01*
X83527991Y-81871390D01*
X83599217Y-81901905D01*
X83672036Y-81929407D01*
X83746294Y-81953919D01*
X83821839Y-81975462D01*
X83898518Y-81994060D01*
X83976177Y-82009735D01*
X84054664Y-82022509D01*
X84133826Y-82032405D01*
X84213510Y-82039446D01*
X84293562Y-82043654D01*
X84373831Y-82045052D01*
X84453597Y-82043654D01*
X84533240Y-82039446D01*
X84612602Y-82032405D01*
X84691524Y-82022509D01*
X84769848Y-82009735D01*
X84847417Y-81994060D01*
X84924073Y-81975462D01*
X84999657Y-81953919D01*
X85074012Y-81929407D01*
X85146980Y-81901905D01*
X85218402Y-81871390D01*
X85288121Y-81837838D01*
X85355979Y-81801229D01*
X85421818Y-81761539D01*
X85485480Y-81718745D01*
X85546807Y-81672826D01*
X85605641Y-81623758D01*
X85661824Y-81571519D01*
X85715198Y-81516086D01*
X85765605Y-81457438D01*
X85812887Y-81395551D01*
X85856886Y-81330403D01*
X85897445Y-81261971D01*
X85934405Y-81190232D01*
X85967608Y-81115165D01*
X85996897Y-81036747D01*
X86022113Y-80954955D01*
X86043099Y-80869767D01*
X86059696Y-80781159D01*
X86071747Y-80689110D01*
X86079093Y-80593598D01*
X86081577Y-80494598D01*
X86081577Y-78793691D01*
X85470969Y-78793691D01*
X85470969Y-80415464D01*
G37*
G36*
X87643754Y-81920000D02*
G01*
X87643754Y-79824396D01*
X90673342Y-82170104D01*
X90673342Y-78801507D01*
X90063712Y-78801507D01*
X90063712Y-80919581D01*
X87033147Y-78543586D01*
X87033147Y-81920000D01*
X87643754Y-81920000D01*
G37*
G36*
X92138799Y-80359776D02*
G01*
X92140818Y-80301350D01*
X92146811Y-80243720D01*
X92156681Y-80186956D01*
X92170331Y-80131127D01*
X92187666Y-80076302D01*
X92208589Y-80022552D01*
X92233004Y-79969945D01*
X92260814Y-79918551D01*
X92291922Y-79868440D01*
X92326233Y-79819680D01*
X92363650Y-79772341D01*
X92404076Y-79726493D01*
X92447415Y-79682204D01*
X92493570Y-79639545D01*
X92542446Y-79598585D01*
X92593946Y-79559392D01*
X92647973Y-79522038D01*
X92704431Y-79486590D01*
X92763223Y-79453118D01*
X92824253Y-79421693D01*
X92887426Y-79392382D01*
X92952643Y-79365257D01*
X93019809Y-79340385D01*
X93088828Y-79317836D01*
X93159602Y-79297681D01*
X93232036Y-79279987D01*
X93306033Y-79264825D01*
X93381497Y-79252265D01*
X93458331Y-79242374D01*
X93536440Y-79235224D01*
X93615725Y-79230883D01*
X93696092Y-79229420D01*
X93749546Y-79230227D01*
X93802907Y-79232635D01*
X93856138Y-79236623D01*
X93909203Y-79242174D01*
X93962065Y-79249268D01*
X94014689Y-79257885D01*
X94067037Y-79268006D01*
X94119074Y-79279612D01*
X94170764Y-79292684D01*
X94222069Y-79307201D01*
X94272954Y-79323146D01*
X94323382Y-79340497D01*
X94373317Y-79359237D01*
X94422722Y-79379346D01*
X94471563Y-79400805D01*
X94519801Y-79423593D01*
X94567400Y-79447693D01*
X94614326Y-79473084D01*
X94660540Y-79499747D01*
X94706007Y-79527664D01*
X94750691Y-79556814D01*
X94794554Y-79587178D01*
X94837562Y-79618737D01*
X94879677Y-79651472D01*
X94920864Y-79685363D01*
X94961085Y-79720391D01*
X95000305Y-79756537D01*
X95038487Y-79793782D01*
X95075595Y-79832105D01*
X95111592Y-79871488D01*
X95146443Y-79911911D01*
X95180111Y-79953356D01*
X95180111Y-79122930D01*
X95140878Y-79096442D01*
X95101041Y-79070656D01*
X95060615Y-79045580D01*
X95019613Y-79021224D01*
X94978050Y-78997598D01*
X94935941Y-78974710D01*
X94893299Y-78952569D01*
X94850139Y-78931185D01*
X94806475Y-78910566D01*
X94762322Y-78890722D01*
X94717694Y-78871662D01*
X94672605Y-78853395D01*
X94627069Y-78835930D01*
X94581102Y-78819277D01*
X94534716Y-78803444D01*
X94487927Y-78788440D01*
X94440748Y-78774275D01*
X94393195Y-78760958D01*
X94345281Y-78748497D01*
X94297021Y-78736903D01*
X94248428Y-78726183D01*
X94199518Y-78716348D01*
X94150305Y-78707407D01*
X94100802Y-78699368D01*
X94051025Y-78692240D01*
X94000987Y-78686033D01*
X93950703Y-78680756D01*
X93900187Y-78676418D01*
X93849454Y-78673028D01*
X93798517Y-78670596D01*
X93747392Y-78669129D01*
X93696092Y-78668639D01*
X93582862Y-78670842D01*
X93471143Y-78677381D01*
X93361071Y-78688148D01*
X93252783Y-78703037D01*
X93146416Y-78721941D01*
X93042106Y-78744753D01*
X92939989Y-78771367D01*
X92840204Y-78801675D01*
X92742885Y-78835571D01*
X92648171Y-78872948D01*
X92556197Y-78913699D01*
X92467100Y-78957717D01*
X92381017Y-79004896D01*
X92298085Y-79055129D01*
X92218440Y-79108309D01*
X92142219Y-79164330D01*
X92069558Y-79223083D01*
X92000595Y-79284463D01*
X91935466Y-79348363D01*
X91874307Y-79414677D01*
X91817256Y-79483296D01*
X91764448Y-79554115D01*
X91716022Y-79627026D01*
X91672112Y-79701923D01*
X91632857Y-79778700D01*
X91598392Y-79857248D01*
X91568854Y-79937462D01*
X91544381Y-80019235D01*
X91525108Y-80102459D01*
X91511172Y-80187029D01*
X91502711Y-80272837D01*
X91499860Y-80359776D01*
X91502711Y-80446699D01*
X91511172Y-80532458D01*
X91525108Y-80616948D01*
X91544381Y-80700066D01*
X91568854Y-80781706D01*
X91598392Y-80861763D01*
X91632857Y-80940134D01*
X91672112Y-81016713D01*
X91716022Y-81091396D01*
X91764448Y-81164078D01*
X91817256Y-81234655D01*
X91874307Y-81303021D01*
X91935466Y-81369073D01*
X92000595Y-81432705D01*
X92069558Y-81493813D01*
X92142219Y-81552292D01*
X92218440Y-81608038D01*
X92298085Y-81660945D01*
X92381017Y-81710910D01*
X92467100Y-81757828D01*
X92556197Y-81801594D01*
X92648171Y-81842102D01*
X92742885Y-81879250D01*
X92840204Y-81912932D01*
X92939989Y-81943043D01*
X93042106Y-81969478D01*
X93146416Y-81992134D01*
X93252783Y-82010906D01*
X93361071Y-82025688D01*
X93471143Y-82036376D01*
X93582862Y-82042865D01*
X93696092Y-82045052D01*
X93747378Y-82044578D01*
X93798463Y-82043161D01*
X93849337Y-82040808D01*
X93899987Y-82037526D01*
X93950401Y-82033323D01*
X94000568Y-82028205D01*
X94050477Y-82022180D01*
X94100115Y-82015254D01*
X94149471Y-82007436D01*
X94198534Y-81998732D01*
X94247292Y-81989149D01*
X94295733Y-81978694D01*
X94343845Y-81967375D01*
X94391617Y-81955199D01*
X94439038Y-81942173D01*
X94486095Y-81928304D01*
X94532777Y-81913599D01*
X94579073Y-81898065D01*
X94624971Y-81881710D01*
X94670458Y-81864541D01*
X94715525Y-81846565D01*
X94760158Y-81827788D01*
X94804346Y-81808219D01*
X94848078Y-81787864D01*
X94891342Y-81766731D01*
X94934127Y-81744826D01*
X94976420Y-81722157D01*
X95018211Y-81698731D01*
X95059487Y-81674555D01*
X95100236Y-81649636D01*
X95140448Y-81623982D01*
X95180111Y-81597599D01*
X95180111Y-80773035D01*
X95145927Y-80814360D01*
X95110626Y-80854611D01*
X95074241Y-80893771D01*
X95036804Y-80931825D01*
X94998348Y-80968759D01*
X94958908Y-81004555D01*
X94918516Y-81039199D01*
X94877204Y-81072675D01*
X94835007Y-81104968D01*
X94791957Y-81136061D01*
X94748087Y-81165940D01*
X94703431Y-81194589D01*
X94658021Y-81221992D01*
X94611891Y-81248133D01*
X94565074Y-81272998D01*
X94517602Y-81296570D01*
X94469510Y-81318834D01*
X94420829Y-81339774D01*
X94371593Y-81359375D01*
X94321836Y-81377622D01*
X94271590Y-81394498D01*
X94220888Y-81409989D01*
X94169764Y-81424078D01*
X94118250Y-81436750D01*
X94066380Y-81447989D01*
X94014187Y-81457781D01*
X93961703Y-81466108D01*
X93908963Y-81472957D01*
X93855998Y-81478311D01*
X93802843Y-81482154D01*
X93749529Y-81484471D01*
X93696092Y-81485247D01*
X93615725Y-81483802D01*
X93536440Y-81479509D01*
X93458331Y-81472437D01*
X93381497Y-81462653D01*
X93306033Y-81450223D01*
X93232036Y-81435215D01*
X93159602Y-81417696D01*
X93088828Y-81397732D01*
X93019809Y-81375391D01*
X92952643Y-81350741D01*
X92887426Y-81323847D01*
X92824253Y-81294778D01*
X92763223Y-81263600D01*
X92704431Y-81230380D01*
X92647973Y-81195186D01*
X92593946Y-81158084D01*
X92542446Y-81119142D01*
X92493570Y-81078426D01*
X92447415Y-81036004D01*
X92404076Y-80991943D01*
X92363650Y-80946310D01*
X92326233Y-80899172D01*
X92291922Y-80850597D01*
X92260814Y-80800650D01*
X92233004Y-80749399D01*
X92208589Y-80696912D01*
X92187666Y-80643255D01*
X92170331Y-80588496D01*
X92156681Y-80532702D01*
X92146811Y-80475939D01*
X92140818Y-80418275D01*
X92138799Y-80359776D01*
G37*
G36*
X96797976Y-81920000D02*
G01*
X96797976Y-78793691D01*
X96187369Y-78793691D01*
X96187369Y-81920000D01*
X96797976Y-81920000D01*
G37*
G36*
X98441242Y-78793691D02*
G01*
X97830635Y-78793691D01*
X97830635Y-81920000D01*
X100876831Y-81920000D01*
X100876831Y-81360195D01*
X98441242Y-81360195D01*
X98441242Y-78793691D01*
G37*
G36*
X105646218Y-78670842D02*
G01*
X105757854Y-78677381D01*
X105867848Y-78688148D01*
X105976063Y-78703037D01*
X106082363Y-78721941D01*
X106186610Y-78744753D01*
X106288668Y-78771367D01*
X106388400Y-78801675D01*
X106485669Y-78835571D01*
X106580339Y-78872948D01*
X106672271Y-78913699D01*
X106761330Y-78957717D01*
X106847379Y-79004896D01*
X106930281Y-79055129D01*
X107009898Y-79108309D01*
X107086095Y-79164330D01*
X107158734Y-79223083D01*
X107227678Y-79284463D01*
X107292791Y-79348363D01*
X107353936Y-79414677D01*
X107410976Y-79483296D01*
X107463773Y-79554115D01*
X107512192Y-79627026D01*
X107556095Y-79701923D01*
X107595345Y-79778700D01*
X107629806Y-79857248D01*
X107659341Y-79937462D01*
X107683813Y-80019235D01*
X107703084Y-80102459D01*
X107717019Y-80187029D01*
X107725481Y-80272837D01*
X107728332Y-80359776D01*
X107725481Y-80446699D01*
X107717019Y-80532458D01*
X107703084Y-80616948D01*
X107683813Y-80700066D01*
X107659341Y-80781706D01*
X107629806Y-80861763D01*
X107595345Y-80940134D01*
X107556095Y-81016713D01*
X107512192Y-81091396D01*
X107463773Y-81164078D01*
X107410976Y-81234655D01*
X107353936Y-81303021D01*
X107292791Y-81369073D01*
X107227678Y-81432705D01*
X107158734Y-81493813D01*
X107086095Y-81552292D01*
X107009898Y-81608038D01*
X106930281Y-81660945D01*
X106847379Y-81710910D01*
X106761330Y-81757828D01*
X106672271Y-81801594D01*
X106580339Y-81842102D01*
X106485669Y-81879250D01*
X106388400Y-81912932D01*
X106288668Y-81943043D01*
X106186610Y-81969478D01*
X106082363Y-81992134D01*
X105976063Y-82010906D01*
X105867848Y-82025688D01*
X105757854Y-82036376D01*
X105646218Y-82042865D01*
X105533077Y-82045052D01*
X105420277Y-82042865D01*
X105308933Y-82036376D01*
X105199185Y-82025688D01*
X105091171Y-82010906D01*
X104985031Y-81992134D01*
X104880905Y-81969478D01*
X104778931Y-81943043D01*
X104679250Y-81912932D01*
X104582000Y-81879250D01*
X104487320Y-81842102D01*
X104395351Y-81801594D01*
X104306232Y-81757828D01*
X104220101Y-81710910D01*
X104137099Y-81660945D01*
X104057364Y-81608038D01*
X103981036Y-81552292D01*
X103908254Y-81493813D01*
X103839158Y-81432705D01*
X103773887Y-81369073D01*
X103712580Y-81303021D01*
X103655378Y-81234655D01*
X103602418Y-81164078D01*
X103553840Y-81091396D01*
X103509784Y-81016713D01*
X103470390Y-80940134D01*
X103435796Y-80861763D01*
X103406142Y-80781706D01*
X103381567Y-80700066D01*
X103362210Y-80616948D01*
X103348211Y-80532458D01*
X103339710Y-80446699D01*
X103336845Y-80359776D01*
X103975785Y-80359776D01*
X103977817Y-80418275D01*
X103983850Y-80475939D01*
X103993783Y-80532702D01*
X104007517Y-80588496D01*
X104024954Y-80643255D01*
X104045993Y-80696912D01*
X104070537Y-80749399D01*
X104098486Y-80800650D01*
X104129741Y-80850597D01*
X104164202Y-80899172D01*
X104201771Y-80946310D01*
X104242349Y-80991943D01*
X104285836Y-81036004D01*
X104332133Y-81078426D01*
X104381142Y-81119142D01*
X104432763Y-81158084D01*
X104486897Y-81195186D01*
X104543445Y-81230380D01*
X104602307Y-81263600D01*
X104663385Y-81294778D01*
X104726580Y-81323847D01*
X104791793Y-81350741D01*
X104858924Y-81375391D01*
X104927874Y-81397732D01*
X104998544Y-81417696D01*
X105070835Y-81435215D01*
X105144649Y-81450223D01*
X105219885Y-81462653D01*
X105296445Y-81472437D01*
X105374230Y-81479509D01*
X105453140Y-81483802D01*
X105533077Y-81485247D01*
X105613355Y-81483802D01*
X105692557Y-81479509D01*
X105770587Y-81472437D01*
X105847349Y-81462653D01*
X105922745Y-81450223D01*
X105996679Y-81435215D01*
X106069055Y-81417696D01*
X106139776Y-81397732D01*
X106208745Y-81375391D01*
X106275866Y-81350741D01*
X106341042Y-81323847D01*
X106404177Y-81294778D01*
X106465173Y-81263600D01*
X106523935Y-81230380D01*
X106580365Y-81195186D01*
X106634368Y-81158084D01*
X106685846Y-81119142D01*
X106734703Y-81078426D01*
X106780842Y-81036004D01*
X106824168Y-80991943D01*
X106864582Y-80946310D01*
X106901988Y-80899172D01*
X106936291Y-80850597D01*
X106967393Y-80800650D01*
X106995198Y-80749399D01*
X107019609Y-80696912D01*
X107040529Y-80643255D01*
X107057862Y-80588496D01*
X107071512Y-80532702D01*
X107081381Y-80475939D01*
X107087373Y-80418275D01*
X107089392Y-80359776D01*
X107087373Y-80301350D01*
X107081381Y-80243720D01*
X107071512Y-80186956D01*
X107057862Y-80131127D01*
X107040529Y-80076302D01*
X107019609Y-80022552D01*
X106995198Y-79969945D01*
X106967393Y-79918551D01*
X106936291Y-79868440D01*
X106901988Y-79819680D01*
X106864582Y-79772341D01*
X106824168Y-79726493D01*
X106780842Y-79682204D01*
X106734703Y-79639545D01*
X106685846Y-79598585D01*
X106634368Y-79559392D01*
X106580365Y-79522038D01*
X106523935Y-79486590D01*
X106465173Y-79453118D01*
X106404177Y-79421693D01*
X106341042Y-79392382D01*
X106275866Y-79365257D01*
X106208745Y-79340385D01*
X106139776Y-79317836D01*
X106069055Y-79297681D01*
X105996679Y-79279987D01*
X105922745Y-79264825D01*
X105847349Y-79252265D01*
X105770587Y-79242374D01*
X105692557Y-79235224D01*
X105613355Y-79230883D01*
X105533077Y-79229420D01*
X105453140Y-79230883D01*
X105374230Y-79235224D01*
X105296445Y-79242374D01*
X105219885Y-79252265D01*
X105144649Y-79264825D01*
X105070835Y-79279987D01*
X104998544Y-79297681D01*
X104927874Y-79317836D01*
X104858924Y-79340385D01*
X104791793Y-79365257D01*
X104726580Y-79392382D01*
X104663385Y-79421693D01*
X104602307Y-79453118D01*
X104543445Y-79486590D01*
X104486897Y-79522038D01*
X104432763Y-79559392D01*
X104381142Y-79598585D01*
X104332133Y-79639545D01*
X104285836Y-79682204D01*
X104242349Y-79726493D01*
X104201771Y-79772341D01*
X104164202Y-79819680D01*
X104129741Y-79868440D01*
X104098486Y-79918551D01*
X104070537Y-79969945D01*
X104045993Y-80022552D01*
X104024954Y-80076302D01*
X104007517Y-80131127D01*
X103993783Y-80186956D01*
X103983850Y-80243720D01*
X103977817Y-80301350D01*
X103975785Y-80359776D01*
X103336845Y-80359776D01*
X103339710Y-80272837D01*
X103348211Y-80187029D01*
X103362210Y-80102459D01*
X103381567Y-80019235D01*
X103406142Y-79937462D01*
X103435796Y-79857248D01*
X103470390Y-79778700D01*
X103509784Y-79701923D01*
X103553840Y-79627026D01*
X103602418Y-79554115D01*
X103655378Y-79483296D01*
X103712580Y-79414677D01*
X103773887Y-79348363D01*
X103839158Y-79284463D01*
X103908254Y-79223083D01*
X103981036Y-79164330D01*
X104057364Y-79108309D01*
X104137099Y-79055129D01*
X104220101Y-79004896D01*
X104306232Y-78957717D01*
X104395351Y-78913699D01*
X104487320Y-78872948D01*
X104582000Y-78835571D01*
X104679250Y-78801675D01*
X104778931Y-78771367D01*
X104880905Y-78744753D01*
X104985031Y-78721941D01*
X105091171Y-78703037D01*
X105199185Y-78688148D01*
X105308933Y-78677381D01*
X105420277Y-78670842D01*
X105533077Y-78668639D01*
X105646218Y-78670842D01*
G37*
G36*
X108538241Y-81920000D02*
G01*
X109148848Y-81920000D01*
X109148848Y-80544424D01*
X111254221Y-80544424D01*
X111254221Y-79984619D01*
X109153733Y-79984619D01*
X109153733Y-79354473D01*
X111645987Y-79354473D01*
X111645987Y-78793691D01*
X108538241Y-78793691D01*
X108538241Y-81920000D01*
G37*
G36*
X115463014Y-79886922D02*
G01*
X116935310Y-82170104D01*
X118397836Y-79892784D01*
X119142288Y-81920000D01*
X119791974Y-81920000D01*
X118564898Y-78549448D01*
X116930425Y-81029002D01*
X115299860Y-78543586D01*
X114079623Y-81920000D01*
X114717585Y-81920000D01*
X115463014Y-79886922D01*
G37*
G36*
X124298743Y-81920000D02*
G01*
X123570900Y-81920000D01*
X122982763Y-80982107D01*
X121302372Y-80982107D01*
X120714235Y-81920000D01*
X119986392Y-81920000D01*
X120942821Y-80422302D01*
X121666782Y-80422302D01*
X122624214Y-80422302D01*
X122142568Y-79676873D01*
X121666782Y-80422302D01*
X120942821Y-80422302D01*
X122142568Y-78543586D01*
X124298743Y-81920000D01*
G37*
G36*
X125500418Y-79354473D02*
G01*
X125500418Y-81920000D01*
X126110048Y-81920000D01*
X126110048Y-79354473D01*
X127622400Y-79354473D01*
X127622400Y-78793691D01*
X123988066Y-78793691D01*
X123988066Y-79354473D01*
X125500418Y-79354473D01*
G37*
G36*
X129123028Y-79354473D02*
G01*
X129123028Y-81920000D01*
X129732658Y-81920000D01*
X129732658Y-79354473D01*
X131245010Y-79354473D01*
X131245010Y-78793691D01*
X127610676Y-78793691D01*
X127610676Y-79354473D01*
X129123028Y-79354473D01*
G37*
G36*
X134804117Y-81045610D02*
G01*
X134801765Y-80980995D01*
X134794819Y-80919702D01*
X134783439Y-80861626D01*
X134767788Y-80806660D01*
X134748027Y-80754698D01*
X134724319Y-80705634D01*
X134696825Y-80659361D01*
X134665707Y-80615773D01*
X134631128Y-80574764D01*
X134593249Y-80536228D01*
X134552231Y-80500058D01*
X134508238Y-80466148D01*
X134461430Y-80434392D01*
X134411969Y-80404683D01*
X134360019Y-80376916D01*
X134305739Y-80350983D01*
X134249293Y-80326780D01*
X134190842Y-80304199D01*
X134130548Y-80283134D01*
X134068574Y-80263480D01*
X134005080Y-80245129D01*
X133940229Y-80227975D01*
X133874182Y-80211913D01*
X133807102Y-80196836D01*
X133739151Y-80182637D01*
X133670490Y-80169211D01*
X133601281Y-80156451D01*
X133531686Y-80144251D01*
X133461867Y-80132505D01*
X133391986Y-80121106D01*
X133322205Y-80109948D01*
X133252686Y-80098925D01*
X133201907Y-80091131D01*
X133151474Y-80083294D01*
X133101471Y-80075380D01*
X133051980Y-80067351D01*
X133003084Y-80059171D01*
X132954866Y-80050803D01*
X132907410Y-80042212D01*
X132860799Y-80033361D01*
X132815114Y-80024214D01*
X132770440Y-80014734D01*
X132726859Y-80004885D01*
X132684455Y-79994631D01*
X132643310Y-79983936D01*
X132603508Y-79972763D01*
X132565131Y-79961075D01*
X132492985Y-79936013D01*
X132427536Y-79908459D01*
X132369449Y-79878121D01*
X132319388Y-79844711D01*
X132278016Y-79807936D01*
X132245999Y-79767507D01*
X132223999Y-79723134D01*
X132212681Y-79674525D01*
X132211235Y-79648541D01*
X132217774Y-79597685D01*
X132236527Y-79551594D01*
X132266200Y-79510062D01*
X132305497Y-79472885D01*
X132353123Y-79439858D01*
X132407783Y-79410776D01*
X132468182Y-79385436D01*
X132533025Y-79363632D01*
X132601015Y-79345159D01*
X132670860Y-79329814D01*
X132741262Y-79317390D01*
X132810927Y-79307685D01*
X132878560Y-79300492D01*
X132942866Y-79295608D01*
X133002549Y-79292828D01*
X133056315Y-79291946D01*
X133105171Y-79292387D01*
X133153909Y-79293705D01*
X133202516Y-79295899D01*
X133250976Y-79298965D01*
X133299277Y-79302899D01*
X133347403Y-79307699D01*
X133395340Y-79313361D01*
X133443073Y-79319882D01*
X133490590Y-79327259D01*
X133537874Y-79335488D01*
X133584912Y-79344567D01*
X133631690Y-79354492D01*
X133678193Y-79365260D01*
X133724407Y-79376867D01*
X133770317Y-79389311D01*
X133815910Y-79402588D01*
X133861171Y-79416696D01*
X133906085Y-79431630D01*
X133950639Y-79447388D01*
X133994818Y-79463966D01*
X134038608Y-79481361D01*
X134081994Y-79499571D01*
X134124962Y-79518591D01*
X134167498Y-79538418D01*
X134209587Y-79559050D01*
X134251216Y-79580483D01*
X134292369Y-79602713D01*
X134333033Y-79625739D01*
X134373194Y-79649555D01*
X134412836Y-79674160D01*
X134451946Y-79699550D01*
X134490509Y-79725722D01*
X134490509Y-79062358D01*
X134432716Y-79022575D01*
X134368836Y-78985296D01*
X134299355Y-78950530D01*
X134262665Y-78934092D01*
X134224757Y-78918285D01*
X134185692Y-78903112D01*
X134145529Y-78888571D01*
X134104330Y-78874666D01*
X134062155Y-78861396D01*
X134019064Y-78848763D01*
X133975120Y-78836768D01*
X133930381Y-78825412D01*
X133884909Y-78814696D01*
X133838764Y-78804621D01*
X133792008Y-78795188D01*
X133744700Y-78786399D01*
X133696901Y-78778254D01*
X133648672Y-78770755D01*
X133600074Y-78763902D01*
X133551167Y-78757696D01*
X133502012Y-78752139D01*
X133452670Y-78747232D01*
X133403201Y-78742976D01*
X133353665Y-78739371D01*
X133304124Y-78736420D01*
X133254638Y-78734122D01*
X133205268Y-78732480D01*
X133156074Y-78731494D01*
X133107117Y-78731165D01*
X133037615Y-78731958D01*
X132967883Y-78734350D01*
X132898081Y-78738359D01*
X132828370Y-78744005D01*
X132758908Y-78751306D01*
X132689855Y-78760280D01*
X132621372Y-78770947D01*
X132553617Y-78783326D01*
X132486752Y-78797435D01*
X132420935Y-78813293D01*
X132356326Y-78830918D01*
X132293085Y-78850331D01*
X132231371Y-78871548D01*
X132171346Y-78894590D01*
X132113167Y-78919474D01*
X132056995Y-78946221D01*
X132002990Y-78974847D01*
X131951312Y-79005374D01*
X131902120Y-79037818D01*
X131855573Y-79072199D01*
X131811833Y-79108535D01*
X131771057Y-79146846D01*
X131733407Y-79187150D01*
X131699042Y-79229466D01*
X131668122Y-79273813D01*
X131640806Y-79320209D01*
X131617254Y-79368674D01*
X131597626Y-79419226D01*
X131582082Y-79471883D01*
X131570781Y-79526666D01*
X131563883Y-79583591D01*
X131561549Y-79642679D01*
X131564077Y-79710940D01*
X131571538Y-79775839D01*
X131583748Y-79837477D01*
X131600523Y-79895955D01*
X131621677Y-79951375D01*
X131647027Y-80003839D01*
X131676388Y-80053446D01*
X131709575Y-80100299D01*
X131746405Y-80144498D01*
X131786692Y-80186146D01*
X131830253Y-80225343D01*
X131876902Y-80262190D01*
X131926456Y-80296789D01*
X131978731Y-80329241D01*
X132033540Y-80359647D01*
X132090701Y-80388108D01*
X132150028Y-80414727D01*
X132211338Y-80439603D01*
X132274445Y-80462839D01*
X132339166Y-80484535D01*
X132405316Y-80504792D01*
X132472711Y-80523713D01*
X132541165Y-80541398D01*
X132610495Y-80557949D01*
X132680517Y-80573466D01*
X132751045Y-80588051D01*
X132821896Y-80601806D01*
X132892884Y-80614831D01*
X132963826Y-80627227D01*
X133034537Y-80639097D01*
X133104833Y-80650541D01*
X133174528Y-80661660D01*
X133222242Y-80669007D01*
X133269707Y-80676413D01*
X133316840Y-80683909D01*
X133363557Y-80691527D01*
X133409777Y-80699296D01*
X133455415Y-80707247D01*
X133500390Y-80715412D01*
X133544617Y-80723820D01*
X133588015Y-80732504D01*
X133630499Y-80741492D01*
X133671988Y-80750818D01*
X133712397Y-80760510D01*
X133751644Y-80770600D01*
X133789646Y-80781119D01*
X133861584Y-80803565D01*
X133927544Y-80828096D01*
X133986865Y-80854956D01*
X134038881Y-80884392D01*
X134082929Y-80916650D01*
X134118344Y-80951976D01*
X134144463Y-80990617D01*
X134160621Y-81032819D01*
X134166154Y-81078827D01*
X134156088Y-81136490D01*
X134138441Y-81174285D01*
X134112324Y-81211231D01*
X134077976Y-81247042D01*
X134035635Y-81281435D01*
X133985542Y-81314124D01*
X133927935Y-81344824D01*
X133863053Y-81373252D01*
X133791134Y-81399121D01*
X133752611Y-81411007D01*
X133712419Y-81422147D01*
X133670587Y-81432505D01*
X133627145Y-81442045D01*
X133582124Y-81450733D01*
X133535553Y-81458531D01*
X133487462Y-81465406D01*
X133437880Y-81471320D01*
X133386838Y-81476239D01*
X133334366Y-81480127D01*
X133280494Y-81482948D01*
X133225251Y-81484666D01*
X133168667Y-81485247D01*
X133115887Y-81484474D01*
X133062569Y-81482185D01*
X133008796Y-81478429D01*
X132954655Y-81473253D01*
X132900229Y-81466704D01*
X132845604Y-81458830D01*
X132790865Y-81449680D01*
X132736097Y-81439299D01*
X132681385Y-81427736D01*
X132626814Y-81415039D01*
X132572468Y-81401255D01*
X132518433Y-81386432D01*
X132464794Y-81370617D01*
X132411635Y-81353857D01*
X132359042Y-81336202D01*
X132307100Y-81317697D01*
X132255893Y-81298390D01*
X132205507Y-81278330D01*
X132156027Y-81257564D01*
X132107536Y-81236139D01*
X132060122Y-81214102D01*
X132013868Y-81191503D01*
X131968859Y-81168387D01*
X131925181Y-81144803D01*
X131882918Y-81120799D01*
X131842155Y-81096421D01*
X131802978Y-81071717D01*
X131765470Y-81046736D01*
X131729719Y-81021524D01*
X131695807Y-80996129D01*
X131663821Y-80970600D01*
X131633845Y-80944982D01*
X131633845Y-81675757D01*
X131698112Y-81716773D01*
X131732612Y-81736563D01*
X131768615Y-81755859D01*
X131806064Y-81774647D01*
X131844903Y-81792915D01*
X131885075Y-81810652D01*
X131926524Y-81827844D01*
X131969194Y-81844479D01*
X132013028Y-81860545D01*
X132057970Y-81876030D01*
X132103964Y-81890921D01*
X132150954Y-81905206D01*
X132198882Y-81918873D01*
X132247693Y-81931909D01*
X132297330Y-81944302D01*
X132347737Y-81956039D01*
X132398858Y-81967109D01*
X132450636Y-81977498D01*
X132503015Y-81987195D01*
X132555939Y-81996187D01*
X132609350Y-82004462D01*
X132663194Y-82012007D01*
X132717413Y-82018811D01*
X132771951Y-82024860D01*
X132826752Y-82030143D01*
X132881759Y-82034647D01*
X132936916Y-82038360D01*
X132992168Y-82041269D01*
X133047456Y-82043362D01*
X133102726Y-82044627D01*
X133157920Y-82045052D01*
X133234588Y-82044259D01*
X133311164Y-82041856D01*
X133387497Y-82037808D01*
X133463431Y-82032080D01*
X133538814Y-82024636D01*
X133613492Y-82015441D01*
X133687310Y-82004459D01*
X133760116Y-81991654D01*
X133831755Y-81976992D01*
X133902075Y-81960437D01*
X133970920Y-81941954D01*
X134038139Y-81921507D01*
X134103576Y-81899061D01*
X134167079Y-81874579D01*
X134228493Y-81848028D01*
X134287665Y-81819371D01*
X134344442Y-81788574D01*
X134398669Y-81755600D01*
X134450193Y-81720414D01*
X134498861Y-81682981D01*
X134544518Y-81643265D01*
X134587011Y-81601232D01*
X134626187Y-81556844D01*
X134661891Y-81510068D01*
X134693970Y-81460868D01*
X134722271Y-81409208D01*
X134746639Y-81355053D01*
X134766921Y-81298367D01*
X134782964Y-81239115D01*
X134794613Y-81177262D01*
X134801715Y-81112772D01*
X134804117Y-81045610D01*
G37*
%LPC*%
D12*
X128059999Y-68899999D03*
D13*
X128059999Y-71439999D03*
X130599999Y-68899999D03*
X130599999Y-71439999D03*
X133139999Y-68899999D03*
X133139999Y-71439999D03*
D12*
X67999999Y-65999999D03*
X137999999Y-65999999D03*
M02*
