<?xml version="1.0" encoding="UTF-8" standalone="no"?>
<svg
   id="1505c554-5c38-4a77-999f-b8b9c5ae0b21"
   data-name="Слой 1"
   viewBox="0 0 333.15371 321.57088"
   version="1.1"
   sodipodi:docname="Poop-Emoji.svg"
   width="333.15372"
   height="321.57089"
   inkscape:version="1.2 (dc2aeda, 2022-05-15)"
   xmlns:inkscape="http://www.inkscape.org/namespaces/inkscape"
   xmlns:sodipodi="http://sodipodi.sourceforge.net/DTD/sodipodi-0.dtd"
   xmlns="http://www.w3.org/2000/svg"
   xmlns:svg="http://www.w3.org/2000/svg">
  <defs
     id="defs35" />
  <sodipodi:namedview
     id="namedview33"
     pagecolor="#ffffff"
     bordercolor="#000000"
     borderopacity="0.25"
     inkscape:showpageshadow="2"
     inkscape:pageopacity="0.0"
     inkscape:pagecheckerboard="0"
     inkscape:deskcolor="#d1d1d1"
     showgrid="false"
     inkscape:zoom="0.34587703"
     inkscape:cx="-318.03211"
     inkscape:cy="546.43698"
     inkscape:window-width="1309"
     inkscape:window-height="1236"
     inkscape:window-x="1702"
     inkscape:window-y="365"
     inkscape:window-maximized="0"
     inkscape:current-layer="g30" />
  <title
     id="title2">Poop_emoji</title>
  <g
     id="g30"
     transform="translate(-383.76484)">
    <path
       d="m 695.21388,255.0638 c 2.608,-8.89 7.4076,-30.9378 -2.1652,-49.35 -5.69168,-10.9495 -15.4232,-18.6842 -28.9653,-23.0356 0.18062,-2.0243 0.2908,-4.727 0.3458,-8.4022 l 0.005,-0.337 c 0.1255,-5.3283 -0.0529,-12.2788 -2.5552,-18.7911 -2.804,-7.2952 -8.30848,-13.6114 -15.9209,-18.2646 a 49.31167,49.31167 0 0 0 -10.7535,-4.8911 c -0.7886,-0.2511 -2.9186,-0.674 -9.8769,-1.957 -2.456,-12.5994 -5.478,-25.4696 -10.3658,-36.0139 a 105.0106,105.0106 0 0 0 -34.2539,-41.3829 c -4.152,-2.9571 -40.96549,-28.4939 -54.6309,-14.7811 -2.9979,3.01 -4.07059,7.7458 -2.9428,12.9937 0.293,1.37 0.6146,2.7214 0.9317,4.0562 1.7886,7.5288 3.2027,13.476 -0.9978,19.497 -1.0749,1.5408 -2.2709,2.9406 -3.53969,4.4219 -3.108,3.6344 -6.63,7.7535 -7.75121,13.9705 -1.0947,6.0563 -0.4405,12.6754 0.3811,18.4937 -7.8592,3.2986 -26.4785,12.7822 -35.52489,31.5215 -5.98471,12.3934 -6.62571,26.3915 -1.92511,41.6726 -6.8548,2.3645 -19.3374,8.216 -27.6283,21.1853 -7.91859,12.3901 -10.0178,28.0435 -6.2534,46.5791 -2.2754,1.1266 -5.4957,2.9207 -10.2116,5.717 -3.8327,2.2732 -12.2007,7.3691 -13.595,8.6136 a 49.23107,49.23107 0 0 0 8.7733,80.0917 c 23.44311,12.9066 52.5626,6.9748 78.2525,1.7434 6.8459,-1.3943 13.3108,-2.7104 19.41661,-3.6311 5.14549,-0.7709 11.23589,0.5188 17.12589,1.7688 2.6476,0.5606 5.3833,1.1421 8.0089,1.5264 a 613.28636,613.28636 0 0 0 68.3779,6.2083 c 3.6454,0.12 7.3327,0.2863 11.0442,0.4549 7.3438,0.3315 14.7778,0.6674 22.2185,0.6674 12.7579,0 25.5268,-0.989 37.8487,-4.684 20.8285,-6.2457 43.8862,-23.539 45.2981,-46.7476 1.1806,-19.3913 -11.6566,-35.8343 -38.1703,-48.9138 z M 454.62159,210.6236 c 9.5486,-15.0333 26.593,-18.6556 26.7516,-18.6887 a 4.51142,4.51142 0 0 0 3.3547,-5.9946 c -5.4407,-14.661 -5.4407,-27.832 0.002,-39.1482 9.17691,-19.0828 31.1156,-27.3386 33.5831,-28.2164 a 36.69706,36.69706 0 0 0 6.2061,0.4516 c 9.46271,0 24.0599,-2.325 35.6306,-8.6709 a 2.25544,2.25544 0 1 0 -2.1675,-3.956 c -12.9369,7.0965 -28.974,8.5233 -36.3392,8.0908 a 4.48452,4.48452 0 0 0 -0.0314,-0.9651 c -0.945,-6.2138 -2.0177,-13.258 -0.9582,-19.1281 0.68941,-3.8118 2.9141,-6.4131 5.73141,-9.7072 a 65.06232,65.06232 0 0 0 4.08369,-5.1246 c 6.5112,-9.3383 4.3129,-18.5862 2.3745,-26.7449 -0.3039,-1.2721 -0.6101,-2.5585 -0.8898,-3.8625 -0.4516,-2.1079 -0.2489,-3.967 0.5154,-4.7346 5.3613,-5.3812 28.6613,5.5507 43.0051,15.7646 a 95.97219,95.97219 0 0 1 31.3024,37.8266 c 4.508,9.722 7.3583,21.9748 9.7033,34.0123 -8.6097,7.8954 -36.96758,31.6413 -79.0195,44.3129 l 0.0815,0.2715 c -5.9798,-6.0988 -13.4251,-9.7662 -21.518,-9.7662 -19.5885,0 -35.5249,21.2482 -35.5249,47.3665 0,16.1548 6.1058,30.4303 15.3929,38.9832 -18.747,1.6399 -35.9759,2.1224 -45.2962,2.2616 a 4.474,4.474 0 0 0 -0.11039,-1.145 v -0.002 l -0.004,-0.0154 c -4.3041,-17.7448 -2.9098,-32.3695 4.141,-43.471 z m 30.3882,3.3888 c 0,-23.6304 13.9121,-42.8554 31.0138,-42.8554 17.1017,0 31.0137,19.225 31.0137,42.8554 0,23.6304 -13.9121,42.8554 -31.0137,42.8554 -17.1016,0 -31.0138,-19.225 -31.0138,-42.8554 z m -75.4749,93.6261 A 41.16811,41.16811 0 0 1 422.914,273.4066 c 2.12019,-1.6447 18.37659,-11.5408 22.97709,-13.5904 7.4893,-0.0412 30.5894,-0.3739 55.3522,-2.7867 a 28.10926,28.10926 0 0 0 14.7803,4.3494 c 8.73,0 16.7222,-4.2387 22.9139,-11.2296 13.8642,-3.7612 32.9293,-10.4893 48.5276,-21.6778 4.5961,19.0648 18.0121,32.9074 33.818,32.9074 19.5885,0 35.52492,-21.2482 35.52492,-47.3665 0,-26.1183 -15.93642,-47.3665 -35.52492,-47.3665 -19.5885,0 -35.5248,21.2482 -35.5248,47.3665 a 62.66505,62.66505 0 0 0 0.7348,9.5952 c -13.3623,10.0452 -29.8257,16.5502 -43.1037,20.5709 a 57.43555,57.43555 0 0 0 8.159,-30.1661 c 0,-13.4072 -4.2181,-25.5047 -10.955,-34.1299 a 217.9317,217.9317 0 0 0 77.2544,-43.2184 c 1.0286,1.3423 2.8951,1.7001 5.6865,2.2148 2.4339,0.4494 8.1345,1.5001 8.9318,1.7104 a 40.267,40.267 0 0 1 8.7843,3.9913 c 5.8173,3.5562 10.1522,8.4583 12.2051,13.8031 1.9251,5.0089 2.07052,10.5673 1.9604,15.3483 l -0.009,0.4064 a 79.21531,79.21531 0 0 1 -0.4758,9.184 4.51478,4.51478 0 0 0 2.641,6.868 h 0.004 c 13.1698,3.3646 22.4057,9.9737 27.4476,19.6468 10.1962,19.5543 0.5551,45.7398 0.4582,45.9975 -0.0455,0.1198 -0.0644,0.2423 -0.0991,0.3633 -34.7176,54.9707 -170.0641,81.2362 -216.92789,88.8138 -13.7238,1.0623 -27.05,-0.045 -38.3101,-6.2439 a 40.76371,40.76371 0 0 1 -20.61051,-31.1294 z m 180.7345,-93.6261 c 0,-23.6304 13.9121,-42.8554 31.0137,-42.8554 17.1016,0 31.0138,19.225 31.0138,42.8554 0,23.6304 -13.9122,42.8554 -31.0138,42.8554 -17.1016,0 -31.0137,-19.225 -31.0137,-42.8554 z m 134.1102,89.4168 c -1.0991,18.051 -20.3924,33.1085 -38.8839,38.6548 -18.0378,5.4087 -37.8751,4.5133 -57.0693,3.6444 -3.749,-0.1696 -7.4715,-0.3381 -11.1566,-0.4593 a 603.90412,603.90412 0 0 1 -67.3646,-6.1179 c -2.3414,-0.3425 -4.8217,-0.869 -7.4451,-1.4252 -2.34309,-0.4969 -4.7159,-0.9883 -7.0986,-1.3879 56.575,-13.7306 125.8816,-37.5044 152.0478,-75.0446 a 4.40636,4.40636 0 0 0 0.4036,0.2352 c 25.24719,11.6345 37.55129,25.7328 36.56669,41.9005 z m -208.1683,-64.6055 c -9.3426,0 -16.9166,-10.8558 -16.9166,-24.2471 0,-13.3913 7.574,-24.2472 16.9166,-24.2472 9.3426,0 16.9166,10.8558 16.9166,24.2472 0,13.3914 -7.57389,24.2471 -16.9166,24.2471 z m 88.3424,-24.2471 c 0,-13.3914 7.5737,-24.2472 16.9166,-24.2472 9.34272,0 16.9166,10.8558 16.9166,24.2472 0,13.3914 -7.57388,24.2471 -16.9166,24.2471 -9.34291,0 -16.91661,-10.8558 -16.91661,-24.2471 z m -52.1066,97.1765 a 62.67919,62.67919 0 0 0 7.7446,1.054 q 2.35905,0.17175 4.7226,0.1707 c 24.0136,0 47.6506,-13.1269 58.664,-33.0336 1.6498,-2.9824 1.8282,-6.0188 0.4934,-8.3317 -1.4251,-2.4659 -4.4384,-3.8172 -8.0001,-3.6377 -2.3679,0.1223 -4.74458,0.4494 -7.042,0.7665 -1.5881,0.2181 -3.1741,0.4373 -4.7512,0.5871 -27.8793,2.641 -57.3402,2.2808 -90.0809,-1.0992 a 11.60564,11.60564 0 0 0 -4.4604,0.1652 7.18416,7.18416 0 0 0 -4.8833,5.042 c -0.6697,2.6178 0.17621,5.6003 2.3789,8.3999 12.7535,16.1952 28.3881,26.5401 45.2144,29.9168 z m -43.2232,-37.1967 a 2.6714,2.6714 0 0 1 1.7599,-1.8271 7.99728,7.99728 0 0 1 2.7534,-0.0132 c 33.0314,3.4075 62.7874,3.7688 90.9663,1.1035 1.6388,-0.1553 3.2886,-0.3821 4.9406,-0.6101 2.3063,-0.3172 4.4847,-0.6179 6.661,-0.7302 1.3898,-0.0595 3.2027,0.2511 3.8591,1.3888 0.6101,1.0562 0.1255,2.7038 -0.5331,3.8932 -10.7425,19.4112 -35.6174,32.255 -59.1134,30.5457 a 58.08932,58.08932 0 0 1 -7.1851,-0.9769 c -19.9101,-3.9956 -34.13059,-17.5862 -42.5558,-28.2846 -0.6124,-0.7787 -1.9913,-2.7754 -1.5529,-4.4891 z"
       transform="translate(-16.54021,-33.8383)"
       style="fill:#010101"
       id="path28" />
  </g>
</svg>
