G04 #@! TF.GenerationSoftware,KiCad,Pcbnew,(6.99.0-2452-gdb4f2d9dd8)*
G04 #@! TF.CreationDate,2022-08-01T20:20:55-05:00*
G04 #@! TF.ProjectId,council of matts,636f756e-6369-46c2-906f-66206d617474,rev?*
G04 #@! TF.SameCoordinates,Original*
G04 #@! TF.FileFunction,Legend,Bot*
G04 #@! TF.FilePolarity,Positive*
%FSLAX46Y46*%
G04 Gerber Fmt 4.6, Leading zero omitted, Abs format (unit mm)*
G04 Created by KiCad (PCBNEW (6.99.0-2452-gdb4f2d9dd8)) date 2022-08-01 20:20:55*
%MOMM*%
%LPD*%
G01*
G04 APERTURE LIST*
G04 Aperture macros list*
%AMRoundRect*
0 Rectangle with rounded corners*
0 $1 Rounding radius*
0 $2 $3 $4 $5 $6 $7 $8 $9 X,Y pos of 4 corners*
0 Add a 4 corners polygon primitive as box body*
4,1,4,$2,$3,$4,$5,$6,$7,$8,$9,$2,$3,0*
0 Add four circle primitives for the rounded corners*
1,1,$1+$1,$2,$3*
1,1,$1+$1,$4,$5*
1,1,$1+$1,$6,$7*
1,1,$1+$1,$8,$9*
0 Add four rect primitives between the rounded corners*
20,1,$1+$1,$2,$3,$4,$5,0*
20,1,$1+$1,$4,$5,$6,$7,0*
20,1,$1+$1,$6,$7,$8,$9,0*
20,1,$1+$1,$8,$9,$2,$3,0*%
G04 Aperture macros list end*
%ADD10C,0.150000*%
%ADD11C,0.120000*%
%ADD12R,1.700000X1.700000*%
%ADD13O,1.700000X1.700000*%
%ADD14RoundRect,0.250000X0.400000X0.625000X-0.400000X0.625000X-0.400000X-0.625000X0.400000X-0.625000X0*%
G04 APERTURE END LIST*
D10*
X140361904Y-101915714D02*
X140361904Y-102772857D01*
X140361904Y-102772857D02*
X140409523Y-102868095D01*
X140409523Y-102868095D02*
X140504761Y-102915714D01*
X140504761Y-102915714D02*
X140552380Y-102915714D01*
X140361904Y-101582380D02*
X140409523Y-101630000D01*
X140409523Y-101630000D02*
X140361904Y-101677619D01*
X140361904Y-101677619D02*
X140314285Y-101630000D01*
X140314285Y-101630000D02*
X140361904Y-101582380D01*
X140361904Y-101582380D02*
X140361904Y-101677619D01*
X139742857Y-102582380D02*
X139838095Y-102534761D01*
X139838095Y-102534761D02*
X139885714Y-102439523D01*
X139885714Y-102439523D02*
X139885714Y-101582380D01*
X138933333Y-102534761D02*
X139028571Y-102582380D01*
X139028571Y-102582380D02*
X139219047Y-102582380D01*
X139219047Y-102582380D02*
X139314285Y-102534761D01*
X139314285Y-102534761D02*
X139361904Y-102487142D01*
X139361904Y-102487142D02*
X139409523Y-102391904D01*
X139409523Y-102391904D02*
X139409523Y-102106190D01*
X139409523Y-102106190D02*
X139361904Y-102010952D01*
X139361904Y-102010952D02*
X139314285Y-101963333D01*
X139314285Y-101963333D02*
X139219047Y-101915714D01*
X139219047Y-101915714D02*
X139028571Y-101915714D01*
X139028571Y-101915714D02*
X138933333Y-101963333D01*
X138504761Y-101915714D02*
X138504761Y-102772857D01*
X138504761Y-102772857D02*
X138552380Y-102868095D01*
X138552380Y-102868095D02*
X138647618Y-102915714D01*
X138647618Y-102915714D02*
X138695237Y-102915714D01*
X138504761Y-101582380D02*
X138552380Y-101630000D01*
X138552380Y-101630000D02*
X138504761Y-101677619D01*
X138504761Y-101677619D02*
X138457142Y-101630000D01*
X138457142Y-101630000D02*
X138504761Y-101582380D01*
X138504761Y-101582380D02*
X138504761Y-101677619D01*
X137885714Y-102582380D02*
X137980952Y-102534761D01*
X137980952Y-102534761D02*
X138028571Y-102439523D01*
X138028571Y-102439523D02*
X138028571Y-101582380D01*
X137076190Y-102534761D02*
X137171428Y-102582380D01*
X137171428Y-102582380D02*
X137361904Y-102582380D01*
X137361904Y-102582380D02*
X137457142Y-102534761D01*
X137457142Y-102534761D02*
X137504761Y-102487142D01*
X137504761Y-102487142D02*
X137552380Y-102391904D01*
X137552380Y-102391904D02*
X137552380Y-102106190D01*
X137552380Y-102106190D02*
X137504761Y-102010952D01*
X137504761Y-102010952D02*
X137457142Y-101963333D01*
X137457142Y-101963333D02*
X137361904Y-101915714D01*
X137361904Y-101915714D02*
X137171428Y-101915714D01*
X137171428Y-101915714D02*
X137076190Y-101963333D01*
X136647618Y-101915714D02*
X136647618Y-102772857D01*
X136647618Y-102772857D02*
X136695237Y-102868095D01*
X136695237Y-102868095D02*
X136790475Y-102915714D01*
X136790475Y-102915714D02*
X136838094Y-102915714D01*
X136647618Y-101582380D02*
X136695237Y-101630000D01*
X136695237Y-101630000D02*
X136647618Y-101677619D01*
X136647618Y-101677619D02*
X136599999Y-101630000D01*
X136599999Y-101630000D02*
X136647618Y-101582380D01*
X136647618Y-101582380D02*
X136647618Y-101677619D01*
X136028571Y-102582380D02*
X136123809Y-102534761D01*
X136123809Y-102534761D02*
X136171428Y-102439523D01*
X136171428Y-102439523D02*
X136171428Y-101582380D01*
X135219047Y-102534761D02*
X135314285Y-102582380D01*
X135314285Y-102582380D02*
X135504761Y-102582380D01*
X135504761Y-102582380D02*
X135599999Y-102534761D01*
X135599999Y-102534761D02*
X135647618Y-102487142D01*
X135647618Y-102487142D02*
X135695237Y-102391904D01*
X135695237Y-102391904D02*
X135695237Y-102106190D01*
X135695237Y-102106190D02*
X135647618Y-102010952D01*
X135647618Y-102010952D02*
X135599999Y-101963333D01*
X135599999Y-101963333D02*
X135504761Y-101915714D01*
X135504761Y-101915714D02*
X135314285Y-101915714D01*
X135314285Y-101915714D02*
X135219047Y-101963333D01*
X134790475Y-101915714D02*
X134790475Y-102772857D01*
X134790475Y-102772857D02*
X134838094Y-102868095D01*
X134838094Y-102868095D02*
X134933332Y-102915714D01*
X134933332Y-102915714D02*
X134980951Y-102915714D01*
X134790475Y-101582380D02*
X134838094Y-101630000D01*
X134838094Y-101630000D02*
X134790475Y-101677619D01*
X134790475Y-101677619D02*
X134742856Y-101630000D01*
X134742856Y-101630000D02*
X134790475Y-101582380D01*
X134790475Y-101582380D02*
X134790475Y-101677619D01*
X134171428Y-102582380D02*
X134266666Y-102534761D01*
X134266666Y-102534761D02*
X134314285Y-102439523D01*
X134314285Y-102439523D02*
X134314285Y-101582380D01*
X133361904Y-102534761D02*
X133457142Y-102582380D01*
X133457142Y-102582380D02*
X133647618Y-102582380D01*
X133647618Y-102582380D02*
X133742856Y-102534761D01*
X133742856Y-102534761D02*
X133790475Y-102487142D01*
X133790475Y-102487142D02*
X133838094Y-102391904D01*
X133838094Y-102391904D02*
X133838094Y-102106190D01*
X133838094Y-102106190D02*
X133790475Y-102010952D01*
X133790475Y-102010952D02*
X133742856Y-101963333D01*
X133742856Y-101963333D02*
X133647618Y-101915714D01*
X133647618Y-101915714D02*
X133457142Y-101915714D01*
X133457142Y-101915714D02*
X133361904Y-101963333D01*
X71942857Y-100686190D02*
X71990476Y-100638571D01*
X71990476Y-100638571D02*
X72085714Y-100590952D01*
X72085714Y-100590952D02*
X72180952Y-100590952D01*
X72180952Y-100590952D02*
X72276190Y-100638571D01*
X72276190Y-100638571D02*
X72323809Y-100686190D01*
X72323809Y-100686190D02*
X72371428Y-100781428D01*
X72371428Y-100781428D02*
X72371428Y-100876666D01*
X72371428Y-100876666D02*
X72323809Y-100971904D01*
X72323809Y-100971904D02*
X72276190Y-101019523D01*
X72276190Y-101019523D02*
X72180952Y-101067142D01*
X72180952Y-101067142D02*
X72085714Y-101067142D01*
X72085714Y-101067142D02*
X71990476Y-101019523D01*
X71990476Y-101019523D02*
X71942857Y-100971904D01*
X71942857Y-100590952D02*
X71942857Y-100971904D01*
X71942857Y-100971904D02*
X71895238Y-101019523D01*
X71895238Y-101019523D02*
X71847619Y-101019523D01*
X71847619Y-101019523D02*
X71752380Y-100971904D01*
X71752380Y-100971904D02*
X71704761Y-100876666D01*
X71704761Y-100876666D02*
X71704761Y-100638571D01*
X71704761Y-100638571D02*
X71800000Y-100495714D01*
X71800000Y-100495714D02*
X71942857Y-100400476D01*
X71942857Y-100400476D02*
X72133333Y-100352857D01*
X72133333Y-100352857D02*
X72323809Y-100400476D01*
X72323809Y-100400476D02*
X72466666Y-100495714D01*
X72466666Y-100495714D02*
X72561904Y-100638571D01*
X72561904Y-100638571D02*
X72609523Y-100829047D01*
X72609523Y-100829047D02*
X72561904Y-101019523D01*
X72561904Y-101019523D02*
X72466666Y-101162380D01*
X72466666Y-101162380D02*
X72323809Y-101257619D01*
X72323809Y-101257619D02*
X72133333Y-101305238D01*
X72133333Y-101305238D02*
X71942857Y-101257619D01*
X71942857Y-101257619D02*
X71800000Y-101162380D01*
X70847619Y-101162380D02*
X70847619Y-100638571D01*
X70847619Y-100638571D02*
X70895238Y-100543333D01*
X70895238Y-100543333D02*
X70990476Y-100495714D01*
X70990476Y-100495714D02*
X71180952Y-100495714D01*
X71180952Y-100495714D02*
X71276190Y-100543333D01*
X70847619Y-101114761D02*
X70942857Y-101162380D01*
X70942857Y-101162380D02*
X71180952Y-101162380D01*
X71180952Y-101162380D02*
X71276190Y-101114761D01*
X71276190Y-101114761D02*
X71323809Y-101019523D01*
X71323809Y-101019523D02*
X71323809Y-100924285D01*
X71323809Y-100924285D02*
X71276190Y-100829047D01*
X71276190Y-100829047D02*
X71180952Y-100781428D01*
X71180952Y-100781428D02*
X70942857Y-100781428D01*
X70942857Y-100781428D02*
X70847619Y-100733809D01*
X70466666Y-100495714D02*
X70228571Y-101162380D01*
X70228571Y-101162380D02*
X69990476Y-100495714D01*
X69847619Y-101257619D02*
X69085714Y-101257619D01*
X68847618Y-100495714D02*
X68847618Y-101495714D01*
X68847618Y-100543333D02*
X68752380Y-100495714D01*
X68752380Y-100495714D02*
X68561904Y-100495714D01*
X68561904Y-100495714D02*
X68466666Y-100543333D01*
X68466666Y-100543333D02*
X68419047Y-100590952D01*
X68419047Y-100590952D02*
X68371428Y-100686190D01*
X68371428Y-100686190D02*
X68371428Y-100971904D01*
X68371428Y-100971904D02*
X68419047Y-101067142D01*
X68419047Y-101067142D02*
X68466666Y-101114761D01*
X68466666Y-101114761D02*
X68561904Y-101162380D01*
X68561904Y-101162380D02*
X68752380Y-101162380D01*
X68752380Y-101162380D02*
X68847618Y-101114761D01*
X67514285Y-100495714D02*
X67514285Y-101162380D01*
X67942856Y-100495714D02*
X67942856Y-101019523D01*
X67942856Y-101019523D02*
X67895237Y-101114761D01*
X67895237Y-101114761D02*
X67799999Y-101162380D01*
X67799999Y-101162380D02*
X67657142Y-101162380D01*
X67657142Y-101162380D02*
X67561904Y-101114761D01*
X67561904Y-101114761D02*
X67514285Y-101067142D01*
X67038094Y-101162380D02*
X67038094Y-100162380D01*
X67038094Y-100543333D02*
X66942856Y-100495714D01*
X66942856Y-100495714D02*
X66752380Y-100495714D01*
X66752380Y-100495714D02*
X66657142Y-100543333D01*
X66657142Y-100543333D02*
X66609523Y-100590952D01*
X66609523Y-100590952D02*
X66561904Y-100686190D01*
X66561904Y-100686190D02*
X66561904Y-100971904D01*
X66561904Y-100971904D02*
X66609523Y-101067142D01*
X66609523Y-101067142D02*
X66657142Y-101114761D01*
X66657142Y-101114761D02*
X66752380Y-101162380D01*
X66752380Y-101162380D02*
X66942856Y-101162380D01*
X66942856Y-101162380D02*
X67038094Y-101114761D01*
X66180951Y-101114761D02*
X66085713Y-101162380D01*
X66085713Y-101162380D02*
X65895237Y-101162380D01*
X65895237Y-101162380D02*
X65799999Y-101114761D01*
X65799999Y-101114761D02*
X65752380Y-101019523D01*
X65752380Y-101019523D02*
X65752380Y-100971904D01*
X65752380Y-100971904D02*
X65799999Y-100876666D01*
X65799999Y-100876666D02*
X65895237Y-100829047D01*
X65895237Y-100829047D02*
X66038094Y-100829047D01*
X66038094Y-100829047D02*
X66133332Y-100781428D01*
X66133332Y-100781428D02*
X66180951Y-100686190D01*
X66180951Y-100686190D02*
X66180951Y-100638571D01*
X66180951Y-100638571D02*
X66133332Y-100543333D01*
X66133332Y-100543333D02*
X66038094Y-100495714D01*
X66038094Y-100495714D02*
X65895237Y-100495714D01*
X65895237Y-100495714D02*
X65799999Y-100543333D01*
X72657142Y-102115714D02*
X72419047Y-102782380D01*
X72419047Y-102782380D02*
X72180952Y-102115714D01*
X71276190Y-102782380D02*
X71847618Y-102782380D01*
X71561904Y-102782380D02*
X71561904Y-101782380D01*
X71561904Y-101782380D02*
X71657142Y-101925238D01*
X71657142Y-101925238D02*
X71752380Y-102020476D01*
X71752380Y-102020476D02*
X71847618Y-102068095D01*
D11*
X134470000Y-67570000D02*
X134470000Y-72770000D01*
X129330000Y-67570000D02*
X134470000Y-67570000D01*
X129330000Y-67570000D02*
X129330000Y-70170000D01*
X128060000Y-67570000D02*
X126730000Y-67570000D01*
X126730000Y-67570000D02*
X126730000Y-68900000D01*
X129330000Y-70170000D02*
X126730000Y-70170000D01*
X126730000Y-70170000D02*
X126730000Y-72770000D01*
X126730000Y-72770000D02*
X134470000Y-72770000D01*
X69330000Y-67330000D02*
X66670000Y-67330000D01*
X69330000Y-67270000D02*
X69330000Y-67330000D01*
X69330000Y-67270000D02*
X66670000Y-67270000D01*
X69330000Y-66000000D02*
X69330000Y-64670000D01*
X69330000Y-64670000D02*
X68000000Y-64670000D01*
X66670000Y-67270000D02*
X66670000Y-67330000D01*
X70277064Y-72510000D02*
X68822936Y-72510000D01*
X70277064Y-70690000D02*
X68822936Y-70690000D01*
X139330000Y-67330000D02*
X136670000Y-67330000D01*
X139330000Y-67270000D02*
X139330000Y-67330000D01*
X139330000Y-67270000D02*
X136670000Y-67270000D01*
X139330000Y-66000000D02*
X139330000Y-64670000D01*
X139330000Y-64670000D02*
X138000000Y-64670000D01*
X136670000Y-67270000D02*
X136670000Y-67330000D01*
%LPC*%
D12*
X128059999Y-68899999D03*
D13*
X128059999Y-71439999D03*
X130599999Y-68899999D03*
X130599999Y-71439999D03*
X133139999Y-68899999D03*
X133139999Y-71439999D03*
D12*
X67999999Y-65999999D03*
D14*
X71100000Y-71600000D03*
X68000000Y-71600000D03*
D12*
X137999999Y-65999999D03*
M02*
