%TF.GenerationSoftware,KiCad,Pcbnew,(6.99.0-2452-gdb4f2d9dd8)*%
%TF.CreationDate,2022-07-19T13:16:04+04:00*%
%TF.ProjectId,sticker holder,73746963-6b65-4722-9068-6f6c6465722e,rev?*%
%TF.SameCoordinates,Original*%
%TF.FileFunction,Legend,Bot*%
%TF.FilePolarity,Positive*%
%FSLAX46Y46*%
G04 Gerber Fmt 4.6, Leading zero omitted, Abs format (unit mm)*
G04 Created by KiCad (PCBNEW (6.99.0-2452-gdb4f2d9dd8)) date 2022-07-19 13:16:04*
%MOMM*%
%LPD*%
G01*
G04 APERTURE LIST*
G04 Aperture macros list*
%AMRoundRect*
0 Rectangle with rounded corners*
0 $1 Rounding radius*
0 $2 $3 $4 $5 $6 $7 $8 $9 X,Y pos of 4 corners*
0 Add a 4 corners polygon primitive as box body*
4,1,4,$2,$3,$4,$5,$6,$7,$8,$9,$2,$3,0*
0 Add four circle primitives for the rounded corners*
1,1,$1+$1,$2,$3*
1,1,$1+$1,$4,$5*
1,1,$1+$1,$6,$7*
1,1,$1+$1,$8,$9*
0 Add four rect primitives between the rounded corners*
20,1,$1+$1,$2,$3,$4,$5,0*
20,1,$1+$1,$4,$5,$6,$7,0*
20,1,$1+$1,$6,$7,$8,$9,0*
20,1,$1+$1,$8,$9,$2,$3,0*%
G04 Aperture macros list end*
%ADD10C,0.150000*%
%ADD11C,0.120000*%
%ADD12R,1.000000X3.150000*%
%ADD13RoundRect,0.250000X0.625000X-0.400000X0.625000X0.400000X-0.625000X0.400000X-0.625000X-0.400000X0*%
%ADD14RoundRect,0.250001X-0.768977X-0.114905X-0.114905X-0.768977X0.768977X0.114905X0.114905X0.768977X0*%
%ADD15RoundRect,0.250001X0.114905X-0.768977X0.768977X-0.114905X-0.114905X0.768977X-0.768977X0.114905X0*%
G04 APERTURE END LIST*
D10*
X115957142Y-70315714D02*
X115719047Y-70982380D01*
X115719047Y-70982380D02*
X115480952Y-70315714D01*
X114576190Y-70982380D02*
X115147618Y-70982380D01*
X114861904Y-70982380D02*
X114861904Y-69982380D01*
X114861904Y-69982380D02*
X114957142Y-70125238D01*
X114957142Y-70125238D02*
X115052380Y-70220476D01*
X115052380Y-70220476D02*
X115147618Y-70268095D01*
X118561904Y-68115714D02*
X118561904Y-68972857D01*
X118561904Y-68972857D02*
X118609523Y-69068095D01*
X118609523Y-69068095D02*
X118704761Y-69115714D01*
X118704761Y-69115714D02*
X118752380Y-69115714D01*
X118561904Y-67782380D02*
X118609523Y-67830000D01*
X118609523Y-67830000D02*
X118561904Y-67877619D01*
X118561904Y-67877619D02*
X118514285Y-67830000D01*
X118514285Y-67830000D02*
X118561904Y-67782380D01*
X118561904Y-67782380D02*
X118561904Y-67877619D01*
X117942857Y-68782380D02*
X118038095Y-68734761D01*
X118038095Y-68734761D02*
X118085714Y-68639523D01*
X118085714Y-68639523D02*
X118085714Y-67782380D01*
X117133333Y-68734761D02*
X117228571Y-68782380D01*
X117228571Y-68782380D02*
X117419047Y-68782380D01*
X117419047Y-68782380D02*
X117514285Y-68734761D01*
X117514285Y-68734761D02*
X117561904Y-68687142D01*
X117561904Y-68687142D02*
X117609523Y-68591904D01*
X117609523Y-68591904D02*
X117609523Y-68306190D01*
X117609523Y-68306190D02*
X117561904Y-68210952D01*
X117561904Y-68210952D02*
X117514285Y-68163333D01*
X117514285Y-68163333D02*
X117419047Y-68115714D01*
X117419047Y-68115714D02*
X117228571Y-68115714D01*
X117228571Y-68115714D02*
X117133333Y-68163333D01*
X116704761Y-68115714D02*
X116704761Y-68972857D01*
X116704761Y-68972857D02*
X116752380Y-69068095D01*
X116752380Y-69068095D02*
X116847618Y-69115714D01*
X116847618Y-69115714D02*
X116895237Y-69115714D01*
X116704761Y-67782380D02*
X116752380Y-67830000D01*
X116752380Y-67830000D02*
X116704761Y-67877619D01*
X116704761Y-67877619D02*
X116657142Y-67830000D01*
X116657142Y-67830000D02*
X116704761Y-67782380D01*
X116704761Y-67782380D02*
X116704761Y-67877619D01*
X116085714Y-68782380D02*
X116180952Y-68734761D01*
X116180952Y-68734761D02*
X116228571Y-68639523D01*
X116228571Y-68639523D02*
X116228571Y-67782380D01*
X115276190Y-68734761D02*
X115371428Y-68782380D01*
X115371428Y-68782380D02*
X115561904Y-68782380D01*
X115561904Y-68782380D02*
X115657142Y-68734761D01*
X115657142Y-68734761D02*
X115704761Y-68687142D01*
X115704761Y-68687142D02*
X115752380Y-68591904D01*
X115752380Y-68591904D02*
X115752380Y-68306190D01*
X115752380Y-68306190D02*
X115704761Y-68210952D01*
X115704761Y-68210952D02*
X115657142Y-68163333D01*
X115657142Y-68163333D02*
X115561904Y-68115714D01*
X115561904Y-68115714D02*
X115371428Y-68115714D01*
X115371428Y-68115714D02*
X115276190Y-68163333D01*
X114847618Y-68115714D02*
X114847618Y-68972857D01*
X114847618Y-68972857D02*
X114895237Y-69068095D01*
X114895237Y-69068095D02*
X114990475Y-69115714D01*
X114990475Y-69115714D02*
X115038094Y-69115714D01*
X114847618Y-67782380D02*
X114895237Y-67830000D01*
X114895237Y-67830000D02*
X114847618Y-67877619D01*
X114847618Y-67877619D02*
X114799999Y-67830000D01*
X114799999Y-67830000D02*
X114847618Y-67782380D01*
X114847618Y-67782380D02*
X114847618Y-67877619D01*
X114228571Y-68782380D02*
X114323809Y-68734761D01*
X114323809Y-68734761D02*
X114371428Y-68639523D01*
X114371428Y-68639523D02*
X114371428Y-67782380D01*
X113419047Y-68734761D02*
X113514285Y-68782380D01*
X113514285Y-68782380D02*
X113704761Y-68782380D01*
X113704761Y-68782380D02*
X113799999Y-68734761D01*
X113799999Y-68734761D02*
X113847618Y-68687142D01*
X113847618Y-68687142D02*
X113895237Y-68591904D01*
X113895237Y-68591904D02*
X113895237Y-68306190D01*
X113895237Y-68306190D02*
X113847618Y-68210952D01*
X113847618Y-68210952D02*
X113799999Y-68163333D01*
X113799999Y-68163333D02*
X113704761Y-68115714D01*
X113704761Y-68115714D02*
X113514285Y-68115714D01*
X113514285Y-68115714D02*
X113419047Y-68163333D01*
X112990475Y-68115714D02*
X112990475Y-68972857D01*
X112990475Y-68972857D02*
X113038094Y-69068095D01*
X113038094Y-69068095D02*
X113133332Y-69115714D01*
X113133332Y-69115714D02*
X113180951Y-69115714D01*
X112990475Y-67782380D02*
X113038094Y-67830000D01*
X113038094Y-67830000D02*
X112990475Y-67877619D01*
X112990475Y-67877619D02*
X112942856Y-67830000D01*
X112942856Y-67830000D02*
X112990475Y-67782380D01*
X112990475Y-67782380D02*
X112990475Y-67877619D01*
X112371428Y-68782380D02*
X112466666Y-68734761D01*
X112466666Y-68734761D02*
X112514285Y-68639523D01*
X112514285Y-68639523D02*
X112514285Y-67782380D01*
X111561904Y-68734761D02*
X111657142Y-68782380D01*
X111657142Y-68782380D02*
X111847618Y-68782380D01*
X111847618Y-68782380D02*
X111942856Y-68734761D01*
X111942856Y-68734761D02*
X111990475Y-68687142D01*
X111990475Y-68687142D02*
X112038094Y-68591904D01*
X112038094Y-68591904D02*
X112038094Y-68306190D01*
X112038094Y-68306190D02*
X111990475Y-68210952D01*
X111990475Y-68210952D02*
X111942856Y-68163333D01*
X111942856Y-68163333D02*
X111847618Y-68115714D01*
X111847618Y-68115714D02*
X111657142Y-68115714D01*
X111657142Y-68115714D02*
X111561904Y-68163333D01*
X120487380Y-75633333D02*
X120011190Y-75300000D01*
X120487380Y-75061905D02*
X119487380Y-75061905D01*
X119487380Y-75061905D02*
X119487380Y-75442857D01*
X119487380Y-75442857D02*
X119535000Y-75538095D01*
X119535000Y-75538095D02*
X119582619Y-75585714D01*
X119582619Y-75585714D02*
X119677857Y-75633333D01*
X119677857Y-75633333D02*
X119820714Y-75633333D01*
X119820714Y-75633333D02*
X119915952Y-75585714D01*
X119915952Y-75585714D02*
X119963571Y-75538095D01*
X119963571Y-75538095D02*
X120011190Y-75442857D01*
X120011190Y-75442857D02*
X120011190Y-75061905D01*
X120487380Y-76585714D02*
X120487380Y-76014286D01*
X120487380Y-76300000D02*
X119487380Y-76300000D01*
X119487380Y-76300000D02*
X119630238Y-76204762D01*
X119630238Y-76204762D02*
X119725476Y-76109524D01*
X119725476Y-76109524D02*
X119773095Y-76014286D01*
X114687380Y-75533333D02*
X114211190Y-75200000D01*
X114687380Y-74961905D02*
X113687380Y-74961905D01*
X113687380Y-74961905D02*
X113687380Y-75342857D01*
X113687380Y-75342857D02*
X113735000Y-75438095D01*
X113735000Y-75438095D02*
X113782619Y-75485714D01*
X113782619Y-75485714D02*
X113877857Y-75533333D01*
X113877857Y-75533333D02*
X114020714Y-75533333D01*
X114020714Y-75533333D02*
X114115952Y-75485714D01*
X114115952Y-75485714D02*
X114163571Y-75438095D01*
X114163571Y-75438095D02*
X114211190Y-75342857D01*
X114211190Y-75342857D02*
X114211190Y-74961905D01*
X113782619Y-75914286D02*
X113735000Y-75961905D01*
X113735000Y-75961905D02*
X113687380Y-76057143D01*
X113687380Y-76057143D02*
X113687380Y-76295238D01*
X113687380Y-76295238D02*
X113735000Y-76390476D01*
X113735000Y-76390476D02*
X113782619Y-76438095D01*
X113782619Y-76438095D02*
X113877857Y-76485714D01*
X113877857Y-76485714D02*
X113973095Y-76485714D01*
X113973095Y-76485714D02*
X114115952Y-76438095D01*
X114115952Y-76438095D02*
X114687380Y-75866667D01*
X114687380Y-75866667D02*
X114687380Y-76485714D01*
X124475200Y-74068623D02*
X125182307Y-73361516D01*
X125182307Y-73361516D02*
X125013948Y-73193157D01*
X125013948Y-73193157D02*
X124879261Y-73125814D01*
X124879261Y-73125814D02*
X124744574Y-73125814D01*
X124744574Y-73125814D02*
X124643559Y-73159486D01*
X124643559Y-73159486D02*
X124475200Y-73260501D01*
X124475200Y-73260501D02*
X124374184Y-73361516D01*
X124374184Y-73361516D02*
X124273169Y-73529875D01*
X124273169Y-73529875D02*
X124239497Y-73630890D01*
X124239497Y-73630890D02*
X124239497Y-73765577D01*
X124239497Y-73765577D02*
X124306841Y-73900264D01*
X124306841Y-73900264D02*
X124475200Y-74068623D01*
X123397704Y-72991127D02*
X123801765Y-73395188D01*
X123599734Y-73193157D02*
X124306841Y-72486051D01*
X124306841Y-72486051D02*
X124273169Y-72654409D01*
X124273169Y-72654409D02*
X124273169Y-72789096D01*
X124273169Y-72789096D02*
X124306841Y-72890112D01*
X108068623Y-73024799D02*
X107361516Y-72317692D01*
X107361516Y-72317692D02*
X107193157Y-72486051D01*
X107193157Y-72486051D02*
X107125814Y-72620738D01*
X107125814Y-72620738D02*
X107125814Y-72755425D01*
X107125814Y-72755425D02*
X107159486Y-72856440D01*
X107159486Y-72856440D02*
X107260501Y-73024799D01*
X107260501Y-73024799D02*
X107361516Y-73125815D01*
X107361516Y-73125815D02*
X107529875Y-73226830D01*
X107529875Y-73226830D02*
X107630890Y-73260502D01*
X107630890Y-73260502D02*
X107765577Y-73260502D01*
X107765577Y-73260502D02*
X107900264Y-73193158D01*
X107900264Y-73193158D02*
X108068623Y-73024799D01*
X106755425Y-73058471D02*
X106688081Y-73058471D01*
X106688081Y-73058471D02*
X106587066Y-73092143D01*
X106587066Y-73092143D02*
X106418707Y-73260502D01*
X106418707Y-73260502D02*
X106385035Y-73361517D01*
X106385035Y-73361517D02*
X106385035Y-73428860D01*
X106385035Y-73428860D02*
X106418707Y-73529876D01*
X106418707Y-73529876D02*
X106486051Y-73597219D01*
X106486051Y-73597219D02*
X106620738Y-73664563D01*
X106620738Y-73664563D02*
X107428860Y-73664563D01*
X107428860Y-73664563D02*
X106991127Y-74102295D01*
D11*
X112800000Y-84560000D02*
X112800000Y-86000000D01*
X119970000Y-86000000D02*
X119970000Y-91200000D01*
X119400000Y-86000000D02*
X119970000Y-86000000D01*
X116860000Y-86000000D02*
X117880000Y-86000000D01*
X114320000Y-86000000D02*
X115340000Y-86000000D01*
X112230000Y-86000000D02*
X112800000Y-86000000D01*
X112230000Y-86000000D02*
X112230000Y-91200000D01*
X119400000Y-91200000D02*
X119970000Y-91200000D01*
X116860000Y-91200000D02*
X117880000Y-91200000D01*
X114320000Y-91200000D02*
X115340000Y-91200000D01*
X112230000Y-91200000D02*
X112800000Y-91200000D01*
X117390000Y-76527064D02*
X117390000Y-75072936D01*
X119210000Y-76527064D02*
X119210000Y-75072936D01*
X111590000Y-76427064D02*
X111590000Y-74972936D01*
X113410000Y-76427064D02*
X113410000Y-74972936D01*
X124563084Y-69457951D02*
X127433937Y-72328805D01*
X122957951Y-71063084D02*
X124563084Y-69457951D01*
X125828805Y-73933937D02*
X122957951Y-71063084D01*
X103457951Y-72936916D02*
X106328805Y-70066063D01*
X105063084Y-74542049D02*
X103457951Y-72936916D01*
X107933937Y-71671195D02*
X105063084Y-74542049D01*
%LPC*%
D12*
X113559999Y-86074999D03*
X113559999Y-91124999D03*
X116099999Y-86074999D03*
X116099999Y-91124999D03*
X118639999Y-86074999D03*
X118639999Y-91124999D03*
D13*
X118300000Y-77350000D03*
X118300000Y-74250000D03*
X112500000Y-77250000D03*
X112500000Y-74150000D03*
D14*
X124448179Y-70948179D03*
X126551821Y-73051821D03*
D15*
X104948179Y-73051821D03*
X107051821Y-70948179D03*
M02*
