%TF.GenerationSoftware,KiCad,Pcbnew,(6.99.0-2452-gdb4f2d9dd8)*%
%TF.CreationDate,2022-07-19T13:16:04+04:00*%
%TF.ProjectId,sticker holder,73746963-6b65-4722-9068-6f6c6465722e,rev?*%
%TF.SameCoordinates,Original*%
%TF.FileFunction,Copper,L1,Top*%
%TF.FilePolarity,Positive*%
%FSLAX46Y46*%
G04 Gerber Fmt 4.6, Leading zero omitted, Abs format (unit mm)*
G04 Created by KiCad (PCBNEW (6.99.0-2452-gdb4f2d9dd8)) date 2022-07-19 13:16:04*
%MOMM*%
%LPD*%
G01*
G04 APERTURE LIST*
G04 APERTURE END LIST*
%TA.AperFunction,NonConductor*%
G36*
X116356753Y-66119419D02*
G01*
X116565795Y-66130195D01*
X116572055Y-66130674D01*
X117866489Y-66262305D01*
X117873132Y-66263160D01*
X118078786Y-66295190D01*
X118084760Y-66296268D01*
X118829671Y-66449351D01*
X119360892Y-66558519D01*
X119367607Y-66560093D01*
X119566596Y-66612498D01*
X119572228Y-66614121D01*
X120817989Y-67004981D01*
X120824695Y-67007296D01*
X121013893Y-67078621D01*
X121019135Y-67080732D01*
X122222644Y-67597199D01*
X122229289Y-67600283D01*
X122405788Y-67688503D01*
X122410602Y-67691040D01*
X123560271Y-68329158D01*
X123566746Y-68333010D01*
X123728062Y-68435617D01*
X123732404Y-68438507D01*
X124816973Y-69193389D01*
X124823185Y-69198003D01*
X124967158Y-69311953D01*
X124971001Y-69315121D01*
X125979671Y-70181035D01*
X125985539Y-70186404D01*
X126110482Y-70308171D01*
X126113865Y-70311596D01*
X127036236Y-71281930D01*
X127041665Y-71288025D01*
X127146525Y-71413721D01*
X127149410Y-71417311D01*
X127975665Y-72484745D01*
X127980566Y-72491530D01*
X128064931Y-72616916D01*
X128067251Y-72620498D01*
X128639121Y-73537979D01*
X128788133Y-73777048D01*
X128792417Y-73784472D01*
X128856540Y-73904904D01*
X128858393Y-73908527D01*
X129465147Y-75145479D01*
X129468741Y-75153502D01*
X129513721Y-75264103D01*
X129515161Y-75267809D01*
X129999639Y-76575936D01*
X130002448Y-76584442D01*
X130030341Y-76680269D01*
X130031329Y-76683861D01*
X130385962Y-78053536D01*
X130387937Y-78062503D01*
X130401755Y-78138329D01*
X130402333Y-78141777D01*
X130620055Y-79562988D01*
X130621132Y-79572344D01*
X130625047Y-79622923D01*
X130625261Y-79626265D01*
X130698904Y-81078396D01*
X130699024Y-81081534D01*
X130699416Y-81096756D01*
X130699416Y-81103244D01*
X130699024Y-81118466D01*
X130698904Y-81121604D01*
X130625261Y-82573735D01*
X130625047Y-82577077D01*
X130621132Y-82627656D01*
X130620055Y-82637012D01*
X130402333Y-84058223D01*
X130401755Y-84061671D01*
X130387937Y-84137497D01*
X130385962Y-84146464D01*
X130031329Y-85516139D01*
X130030341Y-85519731D01*
X130002448Y-85615558D01*
X129999639Y-85624064D01*
X129659631Y-86542111D01*
X129515161Y-86932191D01*
X129513721Y-86935897D01*
X129468741Y-87046498D01*
X129465149Y-87054517D01*
X128858393Y-88291473D01*
X128856540Y-88295096D01*
X128792421Y-88415521D01*
X128788133Y-88422952D01*
X128067251Y-89579502D01*
X128064931Y-89583084D01*
X127983285Y-89704429D01*
X127980566Y-89708470D01*
X127975665Y-89715255D01*
X127149410Y-90782689D01*
X127146525Y-90786279D01*
X127041665Y-90911975D01*
X127036236Y-90918070D01*
X126113865Y-91888404D01*
X126110482Y-91891829D01*
X125985539Y-92013596D01*
X125979678Y-92018958D01*
X124971001Y-92884879D01*
X124967158Y-92888047D01*
X124823190Y-93001994D01*
X124816978Y-93006607D01*
X123732404Y-93761493D01*
X123728062Y-93764383D01*
X123566746Y-93866990D01*
X123560271Y-93870842D01*
X122410602Y-94508960D01*
X122405788Y-94511497D01*
X122229289Y-94599717D01*
X122222644Y-94602801D01*
X121019135Y-95119268D01*
X121013900Y-95121376D01*
X120824695Y-95192704D01*
X120817989Y-95195019D01*
X119667642Y-95555942D01*
X119572227Y-95585879D01*
X119566596Y-95587502D01*
X119367607Y-95639907D01*
X119360892Y-95641481D01*
X118829671Y-95750649D01*
X118084760Y-95903732D01*
X118078786Y-95904810D01*
X117873132Y-95936840D01*
X117866489Y-95937695D01*
X116572055Y-96069326D01*
X116565795Y-96069805D01*
X116356753Y-96080581D01*
X116350266Y-96080748D01*
X115049734Y-96080748D01*
X115043247Y-96080581D01*
X114834205Y-96069805D01*
X114827945Y-96069326D01*
X113533511Y-95937695D01*
X113526868Y-95936840D01*
X113321214Y-95904810D01*
X113315240Y-95903732D01*
X112570329Y-95750649D01*
X112039108Y-95641481D01*
X112032393Y-95639907D01*
X111833404Y-95587502D01*
X111827773Y-95585879D01*
X111732358Y-95555942D01*
X110582011Y-95195019D01*
X110575305Y-95192704D01*
X110386100Y-95121376D01*
X110380865Y-95119268D01*
X109177356Y-94602801D01*
X109170711Y-94599717D01*
X108994212Y-94511497D01*
X108989398Y-94508960D01*
X107839729Y-93870842D01*
X107833254Y-93866990D01*
X107671938Y-93764383D01*
X107667596Y-93761493D01*
X106583022Y-93006607D01*
X106576810Y-93001994D01*
X106432842Y-92888047D01*
X106428999Y-92884879D01*
X105420322Y-92018958D01*
X105414461Y-92013596D01*
X105289518Y-91891829D01*
X105286135Y-91888404D01*
X104363764Y-90918070D01*
X104358335Y-90911975D01*
X104253475Y-90786279D01*
X104250590Y-90782689D01*
X103424335Y-89715255D01*
X103419434Y-89708470D01*
X103416715Y-89704429D01*
X103335069Y-89583084D01*
X103332749Y-89579502D01*
X102611867Y-88422952D01*
X102607579Y-88415521D01*
X102543460Y-88295096D01*
X102541607Y-88291473D01*
X101934851Y-87054517D01*
X101931259Y-87046498D01*
X101886279Y-86935897D01*
X101884839Y-86932191D01*
X101740369Y-86542111D01*
X101400361Y-85624064D01*
X101397552Y-85615558D01*
X101369659Y-85519731D01*
X101368671Y-85516139D01*
X101014038Y-84146464D01*
X101012063Y-84137497D01*
X100998245Y-84061671D01*
X100997667Y-84058223D01*
X100779945Y-82637012D01*
X100778868Y-82627656D01*
X100774953Y-82577077D01*
X100774739Y-82573735D01*
X100701096Y-81121604D01*
X100700976Y-81118466D01*
X100700584Y-81103244D01*
X100700584Y-81096756D01*
X100700976Y-81081534D01*
X100701096Y-81078396D01*
X100774739Y-79626265D01*
X100774953Y-79622923D01*
X100778868Y-79572344D01*
X100779945Y-79562988D01*
X100997667Y-78141777D01*
X100998245Y-78138329D01*
X101012063Y-78062503D01*
X101014038Y-78053536D01*
X101368671Y-76683861D01*
X101369659Y-76680269D01*
X101397552Y-76584442D01*
X101400361Y-76575936D01*
X101884839Y-75267809D01*
X101886279Y-75264103D01*
X101931259Y-75153502D01*
X101934853Y-75145479D01*
X102541607Y-73908527D01*
X102543460Y-73904904D01*
X102607583Y-73784472D01*
X102611867Y-73777048D01*
X102760879Y-73537979D01*
X103332749Y-72620498D01*
X103335069Y-72616916D01*
X103419434Y-72491530D01*
X103424335Y-72484745D01*
X104250590Y-71417311D01*
X104253475Y-71413721D01*
X104358335Y-71288025D01*
X104363764Y-71281930D01*
X105286135Y-70311596D01*
X105289518Y-70308171D01*
X105414461Y-70186404D01*
X105420329Y-70181035D01*
X106428999Y-69315121D01*
X106432842Y-69311953D01*
X106576815Y-69198003D01*
X106583027Y-69193389D01*
X107667596Y-68438507D01*
X107671938Y-68435617D01*
X107833254Y-68333010D01*
X107839729Y-68329158D01*
X108989398Y-67691040D01*
X108994212Y-67688503D01*
X109170711Y-67600283D01*
X109177356Y-67597199D01*
X110380865Y-67080732D01*
X110386107Y-67078621D01*
X110575305Y-67007296D01*
X110582011Y-67004981D01*
X111827772Y-66614121D01*
X111833404Y-66612498D01*
X112032393Y-66560093D01*
X112039108Y-66558519D01*
X112570329Y-66449351D01*
X113315240Y-66296268D01*
X113321214Y-66295190D01*
X113526868Y-66263160D01*
X113533511Y-66262305D01*
X114827945Y-66130674D01*
X114834205Y-66130195D01*
X115043247Y-66119419D01*
X115049734Y-66119252D01*
X116350266Y-66119252D01*
X116356753Y-66119419D01*
G37*
%TD.AperFunction*%
M02*
