%TF.GenerationSoftware,KiCad,Pcbnew,(6.99.0-2452-gdb4f2d9dd8)*%
%TF.CreationDate,2022-07-19T13:16:04+04:00*%
%TF.ProjectId,sticker holder,73746963-6b65-4722-9068-6f6c6465722e,rev?*%
%TF.SameCoordinates,Original*%
%TF.FileFunction,Legend,Top*%
%TF.FilePolarity,Positive*%
%FSLAX46Y46*%
G04 Gerber Fmt 4.6, Leading zero omitted, Abs format (unit mm)*
G04 Created by KiCad (PCBNEW (6.99.0-2452-gdb4f2d9dd8)) date 2022-07-19 13:16:04*
%MOMM*%
%LPD*%
G01*
G04 APERTURE LIST*
%ADD10C,0.150000*%
G04 APERTURE END LIST*
D10*
X113519047Y-79299761D02*
X113661904Y-79347380D01*
X113661904Y-79347380D02*
X113899999Y-79347380D01*
X113899999Y-79347380D02*
X113995237Y-79299761D01*
X113995237Y-79299761D02*
X114042856Y-79252142D01*
X114042856Y-79252142D02*
X114090475Y-79156904D01*
X114090475Y-79156904D02*
X114090475Y-79061666D01*
X114090475Y-79061666D02*
X114042856Y-78966428D01*
X114042856Y-78966428D02*
X113995237Y-78918809D01*
X113995237Y-78918809D02*
X113899999Y-78871190D01*
X113899999Y-78871190D02*
X113709523Y-78823571D01*
X113709523Y-78823571D02*
X113614285Y-78775952D01*
X113614285Y-78775952D02*
X113566666Y-78728333D01*
X113566666Y-78728333D02*
X113519047Y-78633095D01*
X113519047Y-78633095D02*
X113519047Y-78537857D01*
X113519047Y-78537857D02*
X113566666Y-78442619D01*
X113566666Y-78442619D02*
X113614285Y-78395000D01*
X113614285Y-78395000D02*
X113709523Y-78347380D01*
X113709523Y-78347380D02*
X113947618Y-78347380D01*
X113947618Y-78347380D02*
X114090475Y-78395000D01*
X114376190Y-78680714D02*
X114757142Y-78680714D01*
X114519047Y-78347380D02*
X114519047Y-79204523D01*
X114519047Y-79204523D02*
X114566666Y-79299761D01*
X114566666Y-79299761D02*
X114661904Y-79347380D01*
X114661904Y-79347380D02*
X114757142Y-79347380D01*
X115090476Y-79347380D02*
X115090476Y-78680714D01*
X115090476Y-78347380D02*
X115042857Y-78395000D01*
X115042857Y-78395000D02*
X115090476Y-78442619D01*
X115090476Y-78442619D02*
X115138095Y-78395000D01*
X115138095Y-78395000D02*
X115090476Y-78347380D01*
X115090476Y-78347380D02*
X115090476Y-78442619D01*
X115995237Y-79299761D02*
X115899999Y-79347380D01*
X115899999Y-79347380D02*
X115709523Y-79347380D01*
X115709523Y-79347380D02*
X115614285Y-79299761D01*
X115614285Y-79299761D02*
X115566666Y-79252142D01*
X115566666Y-79252142D02*
X115519047Y-79156904D01*
X115519047Y-79156904D02*
X115519047Y-78871190D01*
X115519047Y-78871190D02*
X115566666Y-78775952D01*
X115566666Y-78775952D02*
X115614285Y-78728333D01*
X115614285Y-78728333D02*
X115709523Y-78680714D01*
X115709523Y-78680714D02*
X115899999Y-78680714D01*
X115899999Y-78680714D02*
X115995237Y-78728333D01*
X116423809Y-79347380D02*
X116423809Y-78347380D01*
X116519047Y-78966428D02*
X116804761Y-79347380D01*
X116804761Y-78680714D02*
X116423809Y-79061666D01*
X117614285Y-79299761D02*
X117519047Y-79347380D01*
X117519047Y-79347380D02*
X117328571Y-79347380D01*
X117328571Y-79347380D02*
X117233333Y-79299761D01*
X117233333Y-79299761D02*
X117185714Y-79204523D01*
X117185714Y-79204523D02*
X117185714Y-78823571D01*
X117185714Y-78823571D02*
X117233333Y-78728333D01*
X117233333Y-78728333D02*
X117328571Y-78680714D01*
X117328571Y-78680714D02*
X117519047Y-78680714D01*
X117519047Y-78680714D02*
X117614285Y-78728333D01*
X117614285Y-78728333D02*
X117661904Y-78823571D01*
X117661904Y-78823571D02*
X117661904Y-78918809D01*
X117661904Y-78918809D02*
X117185714Y-79014047D01*
X118090476Y-79347380D02*
X118090476Y-78680714D01*
X118090476Y-78871190D02*
X118138095Y-78775952D01*
X118138095Y-78775952D02*
X118185714Y-78728333D01*
X118185714Y-78728333D02*
X118280952Y-78680714D01*
X118280952Y-78680714D02*
X118376190Y-78680714D01*
X114876190Y-80015000D02*
X114780952Y-79967380D01*
X114780952Y-79967380D02*
X114638095Y-79967380D01*
X114638095Y-79967380D02*
X114495238Y-80015000D01*
X114495238Y-80015000D02*
X114400000Y-80110238D01*
X114400000Y-80110238D02*
X114352381Y-80205476D01*
X114352381Y-80205476D02*
X114304762Y-80395952D01*
X114304762Y-80395952D02*
X114304762Y-80538809D01*
X114304762Y-80538809D02*
X114352381Y-80729285D01*
X114352381Y-80729285D02*
X114400000Y-80824523D01*
X114400000Y-80824523D02*
X114495238Y-80919761D01*
X114495238Y-80919761D02*
X114638095Y-80967380D01*
X114638095Y-80967380D02*
X114733333Y-80967380D01*
X114733333Y-80967380D02*
X114876190Y-80919761D01*
X114876190Y-80919761D02*
X114923809Y-80872142D01*
X114923809Y-80872142D02*
X114923809Y-80538809D01*
X114923809Y-80538809D02*
X114733333Y-80538809D01*
X115495238Y-80967380D02*
X115400000Y-80919761D01*
X115400000Y-80919761D02*
X115352381Y-80872142D01*
X115352381Y-80872142D02*
X115304762Y-80776904D01*
X115304762Y-80776904D02*
X115304762Y-80491190D01*
X115304762Y-80491190D02*
X115352381Y-80395952D01*
X115352381Y-80395952D02*
X115400000Y-80348333D01*
X115400000Y-80348333D02*
X115495238Y-80300714D01*
X115495238Y-80300714D02*
X115638095Y-80300714D01*
X115638095Y-80300714D02*
X115733333Y-80348333D01*
X115733333Y-80348333D02*
X115780952Y-80395952D01*
X115780952Y-80395952D02*
X115828571Y-80491190D01*
X115828571Y-80491190D02*
X115828571Y-80776904D01*
X115828571Y-80776904D02*
X115780952Y-80872142D01*
X115780952Y-80872142D02*
X115733333Y-80919761D01*
X115733333Y-80919761D02*
X115638095Y-80967380D01*
X115638095Y-80967380D02*
X115495238Y-80967380D01*
X116638095Y-80919761D02*
X116542857Y-80967380D01*
X116542857Y-80967380D02*
X116352381Y-80967380D01*
X116352381Y-80967380D02*
X116257143Y-80919761D01*
X116257143Y-80919761D02*
X116209524Y-80824523D01*
X116209524Y-80824523D02*
X116209524Y-80443571D01*
X116209524Y-80443571D02*
X116257143Y-80348333D01*
X116257143Y-80348333D02*
X116352381Y-80300714D01*
X116352381Y-80300714D02*
X116542857Y-80300714D01*
X116542857Y-80300714D02*
X116638095Y-80348333D01*
X116638095Y-80348333D02*
X116685714Y-80443571D01*
X116685714Y-80443571D02*
X116685714Y-80538809D01*
X116685714Y-80538809D02*
X116209524Y-80634047D01*
X117066667Y-80919761D02*
X117161905Y-80967380D01*
X117161905Y-80967380D02*
X117352381Y-80967380D01*
X117352381Y-80967380D02*
X117447619Y-80919761D01*
X117447619Y-80919761D02*
X117495238Y-80824523D01*
X117495238Y-80824523D02*
X117495238Y-80776904D01*
X117495238Y-80776904D02*
X117447619Y-80681666D01*
X117447619Y-80681666D02*
X117352381Y-80634047D01*
X117352381Y-80634047D02*
X117209524Y-80634047D01*
X117209524Y-80634047D02*
X117114286Y-80586428D01*
X117114286Y-80586428D02*
X117066667Y-80491190D01*
X117066667Y-80491190D02*
X117066667Y-80443571D01*
X117066667Y-80443571D02*
X117114286Y-80348333D01*
X117114286Y-80348333D02*
X117209524Y-80300714D01*
X117209524Y-80300714D02*
X117352381Y-80300714D01*
X117352381Y-80300714D02*
X117447619Y-80348333D01*
X114447619Y-82587380D02*
X114447619Y-81587380D01*
X114447619Y-82063571D02*
X115019047Y-82063571D01*
X115019047Y-82587380D02*
X115019047Y-81587380D01*
X115876190Y-82539761D02*
X115780952Y-82587380D01*
X115780952Y-82587380D02*
X115590476Y-82587380D01*
X115590476Y-82587380D02*
X115495238Y-82539761D01*
X115495238Y-82539761D02*
X115447619Y-82444523D01*
X115447619Y-82444523D02*
X115447619Y-82063571D01*
X115447619Y-82063571D02*
X115495238Y-81968333D01*
X115495238Y-81968333D02*
X115590476Y-81920714D01*
X115590476Y-81920714D02*
X115780952Y-81920714D01*
X115780952Y-81920714D02*
X115876190Y-81968333D01*
X115876190Y-81968333D02*
X115923809Y-82063571D01*
X115923809Y-82063571D02*
X115923809Y-82158809D01*
X115923809Y-82158809D02*
X115447619Y-82254047D01*
X116352381Y-82587380D02*
X116352381Y-81920714D01*
X116352381Y-82111190D02*
X116400000Y-82015952D01*
X116400000Y-82015952D02*
X116447619Y-81968333D01*
X116447619Y-81968333D02*
X116542857Y-81920714D01*
X116542857Y-81920714D02*
X116638095Y-81920714D01*
X117352381Y-82539761D02*
X117257143Y-82587380D01*
X117257143Y-82587380D02*
X117066667Y-82587380D01*
X117066667Y-82587380D02*
X116971429Y-82539761D01*
X116971429Y-82539761D02*
X116923810Y-82444523D01*
X116923810Y-82444523D02*
X116923810Y-82063571D01*
X116923810Y-82063571D02*
X116971429Y-81968333D01*
X116971429Y-81968333D02*
X117066667Y-81920714D01*
X117066667Y-81920714D02*
X117257143Y-81920714D01*
X117257143Y-81920714D02*
X117352381Y-81968333D01*
X117352381Y-81968333D02*
X117400000Y-82063571D01*
X117400000Y-82063571D02*
X117400000Y-82158809D01*
X117400000Y-82158809D02*
X116923810Y-82254047D01*
%LPC*%
M02*
