%TF.GenerationSoftware,KiCad,Pcbnew,(6.99.0-2103-gdc6c27b686)*%
%TF.CreationDate,2022-06-22T12:37:10-05:00*%
%TF.ProjectId,an225,616e3232-352e-46b6-9963-61645f706362,rev?*%
%TF.SameCoordinates,Original*%
%TF.FileFunction,Legend,Top*%
%TF.FilePolarity,Positive*%
%FSLAX46Y46*%
G04 Gerber Fmt 4.6, Leading zero omitted, Abs format (unit mm)*
G04 Created by KiCad (PCBNEW (6.99.0-2103-gdc6c27b686)) date 2022-06-22 12:37:10*
%MOMM*%
%LPD*%
G01*
G04 APERTURE LIST*
%ADD10C,0.200000*%
G04 APERTURE END LIST*
D10*
G36*
X137925621Y-54787173D02*
G01*
X138166970Y-54876637D01*
X138397173Y-55019348D01*
X138616448Y-55211496D01*
X138825014Y-55449273D01*
X139023091Y-55728869D01*
X139210898Y-56046475D01*
X139388655Y-56398281D01*
X139714893Y-57189261D01*
X140003560Y-58071333D01*
X140256410Y-59014026D01*
X140475196Y-59986866D01*
X140661674Y-60959379D01*
X140817597Y-61901093D01*
X141044794Y-63570229D01*
X141209712Y-65198081D01*
X141209712Y-75000873D01*
X144830058Y-77451570D01*
X144830058Y-74276802D01*
X147475697Y-74276802D01*
X147503545Y-78871860D01*
X151569478Y-81545349D01*
X151541630Y-78287037D01*
X154270815Y-78287037D01*
X154326514Y-83160581D01*
X158392447Y-85611278D01*
X158336748Y-82102329D01*
X161038084Y-82074476D01*
X161177329Y-87170816D01*
X174294129Y-94662157D01*
X174383767Y-94735369D01*
X174486514Y-94825538D01*
X174619612Y-94950219D01*
X174776861Y-95108514D01*
X174952058Y-95299526D01*
X175139005Y-95522358D01*
X175331499Y-95776112D01*
X175427889Y-95914304D01*
X175523341Y-96059890D01*
X175617079Y-96212758D01*
X175708329Y-96372795D01*
X175796315Y-96539890D01*
X175880263Y-96713930D01*
X175959397Y-96894803D01*
X176032942Y-97082397D01*
X176100123Y-97276600D01*
X176160166Y-97477299D01*
X176212294Y-97684382D01*
X176255733Y-97897737D01*
X176289708Y-98117253D01*
X176313443Y-98342815D01*
X176326164Y-98574314D01*
X176327095Y-98811636D01*
X147085814Y-90429132D01*
X141181863Y-90373434D01*
X141237561Y-103462393D01*
X141007809Y-106550133D01*
X140814608Y-108855060D01*
X140725840Y-109744320D01*
X140652737Y-110285360D01*
X151123899Y-118305826D01*
X151374538Y-115966524D01*
X151708722Y-115966524D01*
X152265698Y-118723558D01*
X152321395Y-121814775D01*
X151820117Y-125017389D01*
X151458084Y-125045236D01*
X151374538Y-123931291D01*
X138731166Y-118055185D01*
X138341283Y-119781816D01*
X137855145Y-119793382D01*
X137672905Y-54754765D01*
X137925621Y-54787173D01*
G37*
X137925621Y-54787173D02*
X138166970Y-54876637D01*
X138397173Y-55019348D01*
X138616448Y-55211496D01*
X138825014Y-55449273D01*
X139023091Y-55728869D01*
X139210898Y-56046475D01*
X139388655Y-56398281D01*
X139714893Y-57189261D01*
X140003560Y-58071333D01*
X140256410Y-59014026D01*
X140475196Y-59986866D01*
X140661674Y-60959379D01*
X140817597Y-61901093D01*
X141044794Y-63570229D01*
X141209712Y-65198081D01*
X141209712Y-75000873D01*
X144830058Y-77451570D01*
X144830058Y-74276802D01*
X147475697Y-74276802D01*
X147503545Y-78871860D01*
X151569478Y-81545349D01*
X151541630Y-78287037D01*
X154270815Y-78287037D01*
X154326514Y-83160581D01*
X158392447Y-85611278D01*
X158336748Y-82102329D01*
X161038084Y-82074476D01*
X161177329Y-87170816D01*
X174294129Y-94662157D01*
X174383767Y-94735369D01*
X174486514Y-94825538D01*
X174619612Y-94950219D01*
X174776861Y-95108514D01*
X174952058Y-95299526D01*
X175139005Y-95522358D01*
X175331499Y-95776112D01*
X175427889Y-95914304D01*
X175523341Y-96059890D01*
X175617079Y-96212758D01*
X175708329Y-96372795D01*
X175796315Y-96539890D01*
X175880263Y-96713930D01*
X175959397Y-96894803D01*
X176032942Y-97082397D01*
X176100123Y-97276600D01*
X176160166Y-97477299D01*
X176212294Y-97684382D01*
X176255733Y-97897737D01*
X176289708Y-98117253D01*
X176313443Y-98342815D01*
X176326164Y-98574314D01*
X176327095Y-98811636D01*
X147085814Y-90429132D01*
X141181863Y-90373434D01*
X141237561Y-103462393D01*
X141007809Y-106550133D01*
X140814608Y-108855060D01*
X140725840Y-109744320D01*
X140652737Y-110285360D01*
X151123899Y-118305826D01*
X151374538Y-115966524D01*
X151708722Y-115966524D01*
X152265698Y-118723558D01*
X152321395Y-121814775D01*
X151820117Y-125017389D01*
X151458084Y-125045236D01*
X151374538Y-123931291D01*
X138731166Y-118055185D01*
X138341283Y-119781816D01*
X137855145Y-119793382D01*
X137672905Y-54754765D01*
X137925621Y-54787173D01*
M02*
