%FSLAX45Y45*%
G04 Gerber Fmt 4.5, Leading zero omitted, Abs format (unit mm)*
G04 Created by KiCad (PCBNEW (6.99.0-2103-gdc6c27b686)) date 2022-06-22 12:37:14*
%MOMM*%
%LPD*%
G01*
G04 APERTURE LIST*
%TA.AperFunction,Profile*%
%ADD10C,0.264583*%
%TD*%
%ADD11C,0.200000*%
G04 APERTURE END LIST*
D10*
X12810316Y-9050129D02*
X9905683Y-9888379D01*
X12810316Y-9050129D02*
X12810316Y-9050129D01*
X13417421Y-9050129D02*
X12810316Y-9050129D01*
X13417421Y-9050129D02*
X13417421Y-9050129D01*
X13417421Y-10361809D02*
X13417421Y-9050129D01*
X13417421Y-10361809D02*
X13417421Y-10361809D01*
X13417525Y-10407136D02*
X13417421Y-10361809D01*
X13418776Y-10456811D02*
X13417525Y-10407136D01*
X13424079Y-10565193D02*
X13418776Y-10456811D01*
X13432058Y-10678927D02*
X13424079Y-10565193D01*
X13441441Y-10789985D02*
X13432058Y-10678927D01*
X13459325Y-10971960D02*
X13441441Y-10789985D01*
X13467549Y-11046890D02*
X13459325Y-10971960D01*
X13467549Y-11046890D02*
X13467549Y-11046890D01*
X12437142Y-11821088D02*
X13467549Y-11046890D01*
X12437142Y-11821088D02*
X12437142Y-11821088D01*
X12403724Y-11573233D02*
X12437142Y-11821088D01*
X12403724Y-11573233D02*
X12403724Y-11573233D01*
X12364735Y-11573233D02*
X12403724Y-11573233D01*
X12364735Y-11573233D02*
X12364735Y-11573233D01*
X12300683Y-11957547D02*
X12364735Y-11573233D01*
X12300683Y-11957547D02*
X12300683Y-11957547D01*
X12300683Y-12180338D02*
X12300683Y-11957547D01*
X12300683Y-12180338D02*
X12300683Y-12180338D01*
X12364735Y-12514524D02*
X12300683Y-12180338D01*
X12364735Y-12514524D02*
X12364735Y-12514524D01*
X12400939Y-12517308D02*
X12364735Y-12514524D01*
X12400939Y-12517308D02*
X12400939Y-12517308D01*
X12423218Y-12386419D02*
X12400939Y-12517308D01*
X12423218Y-12386419D02*
X12423218Y-12386419D01*
X13659706Y-11812734D02*
X12423218Y-12386419D01*
X13659706Y-11812734D02*
X13659706Y-11812734D01*
X13720973Y-11988182D02*
X13659706Y-11812734D01*
X13720973Y-11988182D02*
X13720973Y-11988182D01*
X13837938Y-11985397D02*
X13720973Y-11988182D01*
X13837938Y-11985397D02*
X13837938Y-11985397D01*
X13876927Y-11812734D02*
X13837938Y-11985397D01*
X13876927Y-11812734D02*
X13876927Y-11812734D01*
X15141264Y-12400344D02*
X13876927Y-11812734D01*
X15141264Y-12400344D02*
X15141264Y-12400344D01*
X15149618Y-12511739D02*
X15141264Y-12400344D01*
X15149618Y-12511739D02*
X15149618Y-12511739D01*
X15185822Y-12508954D02*
X15149618Y-12511739D01*
X15185822Y-12508954D02*
X15185822Y-12508954D01*
X15235950Y-12188693D02*
X15185822Y-12508954D01*
X15235950Y-12188693D02*
X15235950Y-12188693D01*
X15230380Y-11879570D02*
X15235950Y-12188693D01*
X15230380Y-11879570D02*
X15230380Y-11879570D01*
X15174682Y-11603867D02*
X15230380Y-11879570D01*
X15174682Y-11603867D02*
X15174682Y-11603867D01*
X15141264Y-11603867D02*
X15174682Y-11603867D01*
X15141264Y-11603867D02*
X15141264Y-11603867D01*
X15116200Y-11837798D02*
X15141264Y-11603867D01*
X15116200Y-11837798D02*
X15116200Y-11837798D01*
X14069084Y-11035751D02*
X15116200Y-11837798D01*
X14069084Y-11035751D02*
X14069084Y-11035751D01*
X14076394Y-10981647D02*
X14069084Y-11035751D01*
X14085271Y-10892721D02*
X14076394Y-10981647D01*
X14104591Y-10662229D02*
X14085271Y-10892721D01*
X14127566Y-10353454D02*
X14104591Y-10662229D01*
X14127566Y-10353454D02*
X14127566Y-10353454D01*
X14121997Y-9044559D02*
X14127566Y-10353454D01*
X14121997Y-9044559D02*
X14121997Y-9044559D01*
X14712392Y-9050129D02*
X14121997Y-9044559D01*
X14712392Y-9050129D02*
X14712392Y-9050129D01*
X17636520Y-9888379D02*
X14712392Y-9050129D01*
X17636520Y-9888379D02*
X17636520Y-9888379D01*
X17636427Y-9864646D02*
X17636520Y-9888379D01*
X17635155Y-9841497D02*
X17636427Y-9864646D01*
X17632781Y-9818940D02*
X17635155Y-9841497D01*
X17629384Y-9796989D02*
X17632781Y-9818940D01*
X17625040Y-9775653D02*
X17629384Y-9796989D01*
X17619827Y-9754945D02*
X17625040Y-9775653D01*
X17613823Y-9734875D02*
X17619827Y-9754945D01*
X17607105Y-9715455D02*
X17613823Y-9734875D01*
X17599750Y-9696695D02*
X17607105Y-9715455D01*
X17591837Y-9678608D02*
X17599750Y-9696695D01*
X17583442Y-9661204D02*
X17591837Y-9678608D01*
X17574644Y-9644495D02*
X17583442Y-9661204D01*
X17565519Y-9628491D02*
X17574644Y-9644495D01*
X17556145Y-9613204D02*
X17565519Y-9628491D01*
X17546600Y-9598645D02*
X17556145Y-9613204D01*
X17536961Y-9584826D02*
X17546600Y-9598645D01*
X17517711Y-9559451D02*
X17536961Y-9584826D01*
X17499017Y-9537168D02*
X17517711Y-9559451D01*
X17481497Y-9518066D02*
X17499017Y-9537168D01*
X17465772Y-9502237D02*
X17481497Y-9518066D01*
X17452462Y-9489769D02*
X17465772Y-9502237D01*
X17442188Y-9480752D02*
X17452462Y-9489769D01*
X17433224Y-9473431D02*
X17442188Y-9480752D01*
X17433224Y-9473431D02*
X17433224Y-9473431D01*
X16121543Y-8724297D02*
X17433224Y-9473431D01*
X16121543Y-8724297D02*
X16121543Y-8724297D01*
X16107619Y-8214663D02*
X16121543Y-8724297D01*
X16107619Y-8214663D02*
X16107619Y-8214663D01*
X15837485Y-8217448D02*
X16107619Y-8214663D01*
X15837485Y-8217448D02*
X15837485Y-8217448D01*
X15843055Y-8568343D02*
X15837485Y-8217448D01*
X15843055Y-8568343D02*
X15843055Y-8568343D01*
X15436461Y-8323273D02*
X15843055Y-8568343D01*
X15436461Y-8323273D02*
X15436461Y-8323273D01*
X15430892Y-7835919D02*
X15436461Y-8323273D01*
X15430892Y-7835919D02*
X15430892Y-7835919D01*
X15157973Y-7835919D02*
X15430892Y-7835919D01*
X15157973Y-7835919D02*
X15157973Y-7835919D01*
X15160758Y-8161750D02*
X15157973Y-7835919D01*
X15160758Y-8161750D02*
X15160758Y-8161750D01*
X14754165Y-7894401D02*
X15160758Y-8161750D01*
X14754165Y-7894401D02*
X14754165Y-7894401D01*
X14751380Y-7434895D02*
X14754165Y-7894401D01*
X14751380Y-7434895D02*
X14751380Y-7434895D01*
X14486816Y-7434895D02*
X14751380Y-7434895D01*
X14486816Y-7434895D02*
X14486816Y-7434895D01*
X14486816Y-7752372D02*
X14486816Y-7434895D01*
X14486816Y-7752372D02*
X14486816Y-7752372D01*
X14124781Y-7507302D02*
X14486816Y-7752372D01*
X14124781Y-7507302D02*
X14124781Y-7507302D01*
X14124781Y-6527023D02*
X14124781Y-7507302D01*
X14124781Y-6527023D02*
X14124781Y-6527023D01*
X14108289Y-6364238D02*
X14124781Y-6527023D01*
X14085570Y-6197324D02*
X14108289Y-6364238D01*
X14069977Y-6103153D02*
X14085570Y-6197324D01*
X14051330Y-6005902D02*
X14069977Y-6103153D01*
X14029451Y-5908618D02*
X14051330Y-6005902D01*
X14004166Y-5814348D02*
X14029451Y-5908618D01*
X13975299Y-5726141D02*
X14004166Y-5814348D01*
X13942675Y-5647043D02*
X13975299Y-5726141D01*
X13924900Y-5611863D02*
X13942675Y-5647043D01*
X13906119Y-5580102D02*
X13924900Y-5611863D01*
X13886311Y-5552142D02*
X13906119Y-5580102D01*
X13865455Y-5528365D02*
X13886311Y-5552142D01*
X13843527Y-5509150D02*
X13865455Y-5528365D01*
X13820507Y-5494879D02*
X13843527Y-5509150D01*
X13796372Y-5485932D02*
X13820507Y-5494879D01*
X13771100Y-5482692D02*
X13796372Y-5485932D01*
X13771100Y-5482692D02*
X13771100Y-5482692D01*
X13745821Y-5485450D02*
X13771100Y-5482692D01*
X13721663Y-5493992D02*
X13745821Y-5485450D01*
X13698605Y-5507932D02*
X13721663Y-5493992D01*
X13676627Y-5526885D02*
X13698605Y-5507932D01*
X13655707Y-5550467D02*
X13676627Y-5526885D01*
X13635825Y-5578291D02*
X13655707Y-5550467D01*
X13616960Y-5609973D02*
X13635825Y-5578291D01*
X13599090Y-5645129D02*
X13616960Y-5609973D01*
X13566256Y-5724319D02*
X13599090Y-5645129D01*
X13537154Y-5812782D02*
X13566256Y-5724319D01*
X13511618Y-5907437D02*
X13537154Y-5812782D01*
X13489479Y-6005205D02*
X13511618Y-5907437D01*
X13470572Y-6103006D02*
X13489479Y-6005205D01*
X13454728Y-6197759D02*
X13470572Y-6103006D01*
X13431563Y-6365804D02*
X13454728Y-6197759D01*
X13414636Y-6529808D02*
X13431563Y-6365804D01*
X13414636Y-6529808D02*
X13414636Y-6529808D01*
X13414636Y-7504517D02*
X13414636Y-6529808D01*
X13414636Y-7504517D02*
X13414636Y-7504517D01*
X13058171Y-7746802D02*
X13414636Y-7504517D01*
X13058171Y-7746802D02*
X13058171Y-7746802D01*
X13052601Y-7434895D02*
X13058171Y-7746802D01*
X13052601Y-7434895D02*
X13052601Y-7434895D01*
X12807531Y-7434895D02*
X13052601Y-7434895D01*
X12807531Y-7434895D02*
X12807531Y-7434895D01*
X12807531Y-7886046D02*
X12807531Y-7434895D01*
X12807531Y-7886046D02*
X12807531Y-7886046D01*
X12384229Y-8161750D02*
X12807531Y-7886046D01*
X12384229Y-8161750D02*
X12384229Y-8161750D01*
X12384229Y-7847058D02*
X12384229Y-8161750D01*
X12384229Y-7847058D02*
X12384229Y-7847058D01*
X12116880Y-7844273D02*
X12384229Y-7847058D01*
X12116880Y-7844273D02*
X12116880Y-7844273D01*
X12114095Y-8328843D02*
X12116880Y-7844273D01*
X12114095Y-8328843D02*
X12114095Y-8328843D01*
X11713072Y-8571128D02*
X12114095Y-8328843D01*
X11713072Y-8571128D02*
X11713072Y-8571128D01*
X11707502Y-8220233D02*
X11713072Y-8571128D01*
X11707502Y-8220233D02*
X11707502Y-8220233D01*
X11437369Y-8223018D02*
X11707502Y-8220233D01*
X11437369Y-8223018D02*
X11437369Y-8223018D01*
X11440154Y-8721512D02*
X11437369Y-8223018D01*
X11440154Y-8721512D02*
X11440154Y-8721512D01*
X10295566Y-9378745D02*
X11440154Y-8721512D01*
X10295566Y-9378745D02*
X10295566Y-9378745D01*
X10255244Y-9395888D02*
X10295566Y-9378745D01*
X10217758Y-9413840D02*
X10255244Y-9395888D01*
X10183005Y-9432512D02*
X10217758Y-9413840D01*
X10150883Y-9451815D02*
X10183005Y-9432512D01*
X10121290Y-9471661D02*
X10150883Y-9451815D01*
X10094124Y-9491961D02*
X10121290Y-9471661D01*
X10069284Y-9512626D02*
X10094124Y-9491961D01*
X10046667Y-9533567D02*
X10069284Y-9512626D01*
X10026172Y-9554696D02*
X10046667Y-9533567D01*
X10007695Y-9575924D02*
X10026172Y-9554696D01*
X9991136Y-9597161D02*
X10007695Y-9575924D01*
X9976393Y-9618321D02*
X9991136Y-9597161D01*
X9963362Y-9639313D02*
X9976393Y-9618321D01*
X9951943Y-9660049D02*
X9963362Y-9639313D01*
X9942034Y-9680441D02*
X9951943Y-9660049D01*
X9933532Y-9700399D02*
X9942034Y-9680441D01*
X9926335Y-9719835D02*
X9933532Y-9700399D01*
X9920341Y-9738660D02*
X9926335Y-9719835D01*
X9915449Y-9756785D02*
X9920341Y-9738660D01*
X9911557Y-9774122D02*
X9915449Y-9756785D01*
X9906363Y-9806076D02*
X9911557Y-9774122D01*
X9903942Y-9833812D02*
X9906363Y-9806076D01*
X9903480Y-9856620D02*
X9903942Y-9833812D01*
X9904160Y-9873791D02*
X9903480Y-9856620D01*
X9905683Y-9888379D02*
X9904160Y-9873791D01*
D11*
X10137870Y-12824014D02*
X10137870Y-12624014D01*
X10137870Y-12624014D02*
X10185489Y-12624014D01*
X10185489Y-12624014D02*
X10214060Y-12633538D01*
X10214060Y-12633538D02*
X10233108Y-12652585D01*
X10233108Y-12652585D02*
X10242632Y-12671633D01*
X10242632Y-12671633D02*
X10252155Y-12709728D01*
X10252155Y-12709728D02*
X10252155Y-12738299D01*
X10252155Y-12738299D02*
X10242632Y-12776395D01*
X10242632Y-12776395D02*
X10233108Y-12795442D01*
X10233108Y-12795442D02*
X10214060Y-12814490D01*
X10214060Y-12814490D02*
X10185489Y-12824014D01*
X10185489Y-12824014D02*
X10137870Y-12824014D01*
X10337870Y-12824014D02*
X10337870Y-12690680D01*
X10337870Y-12728776D02*
X10347393Y-12709728D01*
X10347393Y-12709728D02*
X10356917Y-12700204D01*
X10356917Y-12700204D02*
X10375965Y-12690680D01*
X10375965Y-12690680D02*
X10395013Y-12690680D01*
X10461679Y-12824014D02*
X10461679Y-12690680D01*
X10461679Y-12624014D02*
X10452155Y-12633538D01*
X10452155Y-12633538D02*
X10461679Y-12643061D01*
X10461679Y-12643061D02*
X10471203Y-12633538D01*
X10471203Y-12633538D02*
X10461679Y-12624014D01*
X10461679Y-12624014D02*
X10461679Y-12643061D01*
X10585489Y-12824014D02*
X10566441Y-12814490D01*
X10566441Y-12814490D02*
X10556917Y-12795442D01*
X10556917Y-12795442D02*
X10556917Y-12624014D01*
X10690251Y-12824014D02*
X10671203Y-12814490D01*
X10671203Y-12814490D02*
X10661679Y-12795442D01*
X10661679Y-12795442D02*
X10661679Y-12624014D01*
X10886441Y-12824014D02*
X10886441Y-12624014D01*
X10886441Y-12624014D02*
X10953108Y-12766871D01*
X10953108Y-12766871D02*
X11019774Y-12624014D01*
X11019774Y-12624014D02*
X11019774Y-12824014D01*
X11200727Y-12824014D02*
X11200727Y-12719252D01*
X11200727Y-12719252D02*
X11191203Y-12700204D01*
X11191203Y-12700204D02*
X11172155Y-12690680D01*
X11172155Y-12690680D02*
X11134060Y-12690680D01*
X11134060Y-12690680D02*
X11115012Y-12700204D01*
X11200727Y-12814490D02*
X11181679Y-12824014D01*
X11181679Y-12824014D02*
X11134060Y-12824014D01*
X11134060Y-12824014D02*
X11115012Y-12814490D01*
X11115012Y-12814490D02*
X11105489Y-12795442D01*
X11105489Y-12795442D02*
X11105489Y-12776395D01*
X11105489Y-12776395D02*
X11115012Y-12757347D01*
X11115012Y-12757347D02*
X11134060Y-12747823D01*
X11134060Y-12747823D02*
X11181679Y-12747823D01*
X11181679Y-12747823D02*
X11200727Y-12738299D01*
X11295965Y-12690680D02*
X11295965Y-12890680D01*
X11295965Y-12700204D02*
X11315012Y-12690680D01*
X11315012Y-12690680D02*
X11353108Y-12690680D01*
X11353108Y-12690680D02*
X11372155Y-12700204D01*
X11372155Y-12700204D02*
X11381679Y-12709728D01*
X11381679Y-12709728D02*
X11391203Y-12728776D01*
X11391203Y-12728776D02*
X11391203Y-12785918D01*
X11391203Y-12785918D02*
X11381679Y-12804966D01*
X11381679Y-12804966D02*
X11372155Y-12814490D01*
X11372155Y-12814490D02*
X11353108Y-12824014D01*
X11353108Y-12824014D02*
X11315012Y-12824014D01*
X11315012Y-12824014D02*
X11295965Y-12814490D01*
X11476917Y-12804966D02*
X11486441Y-12814490D01*
X11486441Y-12814490D02*
X11476917Y-12824014D01*
X11476917Y-12824014D02*
X11467393Y-12814490D01*
X11467393Y-12814490D02*
X11476917Y-12804966D01*
X11476917Y-12804966D02*
X11476917Y-12824014D01*
X11476917Y-12700204D02*
X11486441Y-12709728D01*
X11486441Y-12709728D02*
X11476917Y-12719252D01*
X11476917Y-12719252D02*
X11467393Y-12709728D01*
X11467393Y-12709728D02*
X11476917Y-12700204D01*
X11476917Y-12700204D02*
X11476917Y-12719252D01*
M02*
