<?xml version="1.0" encoding="UTF-8" standalone="no"?>
<!-- Created with Inkscape (http://www.inkscape.org/) -->

<svg
   width="271.53329mm"
   height="124.40326mm"
   viewBox="0 0 271.5333 124.40326"
   version="1.1"
   id="svg5"
   xml:space="preserve"
   inkscape:version="1.2 (dc2aeda, 2022-05-15)"
   sodipodi:docname="red balloon inverted logo just the base with AV@DC30.svg"
   xmlns:inkscape="http://www.inkscape.org/namespaces/inkscape"
   xmlns:sodipodi="http://sodipodi.sourceforge.net/DTD/sodipodi-0.dtd"
   xmlns:xlink="http://www.w3.org/1999/xlink"
   xmlns="http://www.w3.org/2000/svg"
   xmlns:svg="http://www.w3.org/2000/svg"><sodipodi:namedview
     id="namedview7"
     pagecolor="#ffffff"
     bordercolor="#000000"
     borderopacity="0.25"
     inkscape:showpageshadow="2"
     inkscape:pageopacity="0.0"
     inkscape:pagecheckerboard="0"
     inkscape:deskcolor="#d1d1d1"
     inkscape:document-units="mm"
     showgrid="false"
     inkscape:zoom="0.29635131"
     inkscape:cx="21.933427"
     inkscape:cy="1094.9842"
     inkscape:window-width="1800"
     inkscape:window-height="1097"
     inkscape:window-x="0"
     inkscape:window-y="44"
     inkscape:window-maximized="0"
     inkscape:current-layer="svg5" /><defs
     id="defs2"><rect
       id="SVGID_1_"
       width="728.22998"
       height="190.57001"
       x="0"
       y="0" /></defs><path
     id="path378"
     style="fill:#000000;stroke-width:0.254"
     inkscape:label="path378"
     d="M 0 0 L 0 124.40326 L 271.5333 124.40326 L 271.5333 0 L 261.07657 0 C 257.12535 2.5114675 251.17573 6.1345892 248.07426 7.8698039 C 246.74712 8.6123167 245.14653 9.5203254 244.51789 9.8872518 C 242.24901 11.211552 234.12322 15.205626 229.06044 17.485238 C 205.62403 28.037799 180.67662 34.632731 155.49128 36.933663 C 149.57198 37.474444 143.17047 37.83043 139.29847 37.83335 L 136.05991 37.83645 L 136.03976 41.075012 C 136.02836 42.856154 135.77119 51.286111 135.46822 59.807719 L 134.91735 75.301864 L 134.34477 75.382996 C 134.02983 75.427696 133.72591 75.313089 133.66988 75.128748 L 133.66988 75.128231 C 133.57438 74.813981 132.93042 56.107938 132.58054 43.487785 L 132.42396 37.835933 L 130.20601 37.835933 C 127.19665 37.835933 119.81957 37.40718 114.72426 36.93573 C 90.501902 34.694508 67.931159 28.974961 44.570406 19.158521 C 38.48625 16.601889 29.324552 12.160917 24.046077 9.2097738 C 22.299845 8.2334819 20.352216 7.1470281 19.718176 6.7954508 C 16.847283 5.2035052 13.14993 2.7488057 9.2221761 0 L 0 0 z M 230.3601 38.217822 C 230.50562 38.217243 230.65519 38.224768 230.80865 38.242627 C 230.95946 38.258502 231.11544 38.287648 231.27684 38.351147 L 231.5099 38.435897 C 231.58663 38.475584 231.66319 38.523147 231.73728 38.570772 C 231.81136 38.618397 231.88553 38.663521 231.95432 38.719084 L 232.13932 38.906669 C 232.27161 39.028377 232.3434 39.176689 232.43336 39.319564 C 232.74025 39.906938 232.76407 40.4729 232.7429 40.983545 C 232.71909 41.499481 232.62884 41.98394 232.51242 42.449605 C 232.12878 43.944498 231.53638 45.317588 230.86963 46.643148 L 233.60796 46.833834 L 227.98298 51.57773 L 228.50957 44.238127 L 230.24486 46.307251 C 230.74757 44.960525 231.19211 43.595103 231.41171 42.235148 C 231.47787 41.806524 231.5124 41.380419 231.49388 40.983545 C 231.47801 40.589316 231.40382 40.211354 231.25565 39.997042 C 231.10749 39.788021 230.94892 39.716418 230.65259 39.695251 C 230.35625 39.684668 229.98598 39.748168 229.61027 39.893689 C 228.85886 40.155626 228.09925 40.594567 227.37165 41.073462 C 226.63876 41.552357 225.92455 42.079107 225.22605 42.629439 C 223.8317 43.738041 222.4953 44.94467 221.20149 46.196147 C 221.03386 46.35446 220.87313 46.520417 220.70694 46.680355 C 226.34956 49.858321 230.1658 55.954809 230.1658 62.962565 C 230.1658 73.252131 221.94234 81.584167 211.78242 81.584167 C 206.30722 81.584167 201.39637 79.161808 198.02926 75.31995 C 197.918 75.506455 197.80052 75.689758 197.69078 75.877022 C 196.78855 77.435408 195.8968 78.999287 195.13744 80.610583 C 194.38338 82.211305 193.69302 83.888847 193.43109 85.502791 C 193.38346 85.89702 193.3703 86.283023 193.4285 86.595231 C 193.49994 86.910085 193.60026 87.063647 193.79076 87.164189 C 193.98919 87.270022 194.34923 87.291251 194.73023 87.227751 C 195.11123 87.166897 195.51565 87.042666 195.91517 86.891854 C 197.52648 86.2595 199.05888 85.248702 200.54848 84.227417 C 202.03279 83.182323 203.47992 82.065495 204.89809 80.909273 C 203.6519 82.250701 202.35819 83.555199 200.96913 84.764335 C 200.27857 85.372876 199.56156 85.960279 198.8075 86.505314 C 198.05344 87.053001 197.27031 87.571633 196.40248 88.002897 C 195.96592 88.214564 195.51075 88.410418 194.99482 88.52948 C 194.48682 88.643251 193.89398 88.725348 193.23782 88.481938 C 193.07642 88.418438 192.92296 88.333523 192.7748 88.22769 C 192.63986 88.116565 192.51042 87.986807 192.39136 87.85717 C 192.29611 87.716941 192.20046 87.571709 192.12109 87.426188 C 192.06024 87.283313 192.00502 87.135105 191.95211 86.986938 C 191.796 86.407508 191.79038 85.872992 191.81155 85.357064 C 191.88563 84.338425 192.10786 83.399241 192.38567 82.486438 C 192.66084 81.573632 192.99696 80.697579 193.35151 79.829753 C 194.26925 77.596673 195.37166 75.473267 196.55131 73.400171 C 194.55973 70.423598 193.39646 66.831587 193.39646 62.962565 C 193.39646 52.673 201.6225 44.341479 211.78242 44.341479 C 214.18212 44.341479 216.47139 44.811046 218.57219 45.656645 C 218.95763 45.300345 219.3389 44.940254 219.73077 44.590043 C 221.12248 43.367671 222.56413 42.19552 224.08813 41.108085 C 225.63065 40.041816 227.18644 38.975418 229.15759 38.401274 C 229.52271 38.296102 229.92354 38.219559 230.3601 38.217822 z M 196.55131 73.400171 C 196.56038 73.413729 196.57063 73.426429 196.57973 73.439962 C 196.57061 73.426396 196.56092 73.413241 196.55183 73.399654 L 196.55131 73.400171 z M 218.94116 45.803923 C 219.49108 46.039386 220.02732 46.301305 220.5483 46.587854 C 220.28781 46.444577 220.02349 46.30721 219.75558 46.17651 C 219.48766 46.045809 219.21612 45.921657 218.94116 45.803923 z M 209.12057 47.526815 C 202.15417 48.754473 196.78575 54.681377 196.34926 61.983813 L 202.15407 61.983813 C 202.49274 56.395861 205.97468 51.447908 209.12057 47.526815 z M 214.44169 47.526815 C 214.75391 47.915969 215.06987 48.322905 215.3853 48.731909 C 215.64514 48.469288 215.90746 48.208918 216.17027 47.949011 C 215.6052 47.779806 215.03167 47.63056 214.44169 47.526815 z M 216.17027 47.949011 C 216.43923 48.029551 216.71016 48.105465 216.9728 48.200159 C 216.7692 48.126751 216.56374 48.057867 216.3563 47.992936 C 216.29756 47.974548 216.23758 47.958958 216.17854 47.94126 C 216.17585 47.943915 216.17295 47.946356 216.17027 47.949011 z M 216.9728 48.200159 C 217.38001 48.346976 217.77948 48.510546 218.17015 48.690051 C 217.97481 48.600301 217.77699 48.5149 217.57742 48.433219 C 217.37784 48.351539 217.17641 48.273566 216.9728 48.200159 z M 218.17015 48.690051 C 218.28878 48.744564 218.40091 48.810389 218.51793 48.867818 C 218.51988 48.865803 218.52166 48.863632 218.52361 48.861617 C 218.40606 48.803908 218.28934 48.744816 218.17015 48.690051 z M 218.51793 48.867818 C 217.94488 49.460728 217.37703 50.058626 216.81674 50.664608 C 219.13607 53.970023 221.15445 57.797172 221.40819 61.983813 L 227.213 61.983813 C 226.86869 56.189185 223.41004 51.26881 218.51793 48.867818 z M 212.74825 48.506083 L 212.74825 51.499182 C 213.16955 51.04228 213.59143 50.58594 214.02053 50.135958 C 213.59843 49.581687 213.1727 49.036723 212.74825 48.506083 z M 210.81401 48.508667 C 207.72053 52.373508 204.4854 56.921673 204.0909 61.960559 C 204.34609 61.616552 204.59877 61.270557 204.85571 60.928064 C 206.7606 58.438543 208.74433 56.007055 210.81401 53.648922 L 210.81401 48.508667 z M 215.63025 49.044552 C 216.02719 49.566016 216.42245 50.10299 216.80951 50.654272 C 216.42245 50.102981 216.02719 49.566021 215.63025 49.044552 z M 215.46592 52.139453 C 214.89296 52.776154 214.32408 53.416409 213.75905 54.059233 C 213.41777 54.446561 213.0845 54.841406 212.74825 55.233321 L 212.74825 61.983813 L 219.47394 61.983813 C 219.20265 58.403186 217.51496 55.121694 215.46592 52.139453 z M 210.81401 57.53654 C 209.61102 59.001681 208.43152 60.487009 207.26797 61.983813 L 210.81401 61.983813 L 210.81401 57.53654 z M 196.34926 63.941833 C 196.49084 66.324697 197.16582 68.556446 198.24268 70.531095 C 198.34808 70.358515 198.44974 70.183279 198.55584 70.01123 C 199.70851 68.140516 200.94374 66.326116 202.21608 64.53973 C 202.19447 64.340642 202.16795 64.142581 202.15407 63.941833 L 196.34926 63.941833 z M 198.24268 70.531095 C 198.24151 70.533011 198.24023 70.534865 198.23906 70.53678 C 198.29616 70.641444 198.35176 70.747284 198.41115 70.850456 C 198.51839 71.036857 198.62935 71.220461 198.74394 71.401843 C 198.56541 71.119252 198.40336 70.825741 198.24268 70.531095 z M 198.74394 71.401843 C 198.85853 71.583223 198.97676 71.762088 199.09844 71.938245 C 199.22012 72.114396 199.34556 72.287896 199.47413 72.458626 C 199.21699 72.117182 198.97311 71.764594 198.74394 71.401843 z M 199.47413 72.458626 C 199.53395 72.538067 199.59681 72.615003 199.6581 72.693237 C 199.65931 72.691347 199.6605 72.689443 199.66171 72.687553 C 199.60084 72.609822 199.53356 72.537548 199.47413 72.458626 z M 199.66171 72.687553 C 201.97118 75.63646 205.30258 77.726946 209.12057 78.398315 C 206.73517 75.422615 204.18346 71.853403 202.92146 67.864591 C 202.1244 68.999808 201.3369 70.141463 200.56399 71.291772 C 200.25714 71.753669 199.96107 72.221487 199.66171 72.687553 z M 202.92146 67.864591 L 202.92198 67.864075 C 202.9184 67.852756 202.91522 67.841291 202.91165 67.829968 C 202.91524 67.841409 202.91785 67.853157 202.92146 67.864591 z M 205.7709 63.941833 C 205.29762 64.570475 204.82998 65.20286 204.36789 65.839392 C 205.29609 70.135211 208.11121 74.037363 210.81401 77.41698 L 210.81401 63.941833 L 205.7709 63.941833 z M 212.74825 63.941833 L 212.74825 77.41698 C 215.84652 73.546158 219.08765 68.990043 219.47394 63.941833 L 212.74825 63.941833 z M 221.40819 63.941833 C 221.06952 69.529793 217.58758 74.477222 214.44169 78.398315 C 221.40809 77.17331 226.77909 71.244277 227.213 63.941833 L 221.40819 63.941833 z M 202.43002 65.975301 C 202.43205 65.985431 202.43366 65.995665 202.43571 66.00579 C 202.43801 66.017194 202.44061 66.028499 202.44294 66.039897 C 202.43854 66.01838 202.43434 65.99684 202.43002 65.975301 z M 202.66308 66.979891 C 202.66605 66.991197 202.66836 67.002698 202.67135 67.013997 C 202.67502 67.027869 202.67951 67.04148 202.68324 67.055339 C 202.67651 67.030181 202.6697 67.00508 202.66308 66.979891 z M 154.19576 94.874312 L 162.88825 108.37581 L 159.95303 108.37581 L 157.58263 104.69594 L 150.8094 104.69594 L 148.43848 108.37581 L 145.50326 108.37581 L 154.19576 94.874312 z M 190.07212 95.145614 C 194.51986 95.145614 199.55474 97.584092 199.55474 102.52863 C 199.55474 104.69601 197.81603 107.11181 194.63256 107.11181 C 193.93265 107.11181 192.96208 106.95378 192.26217 106.45707 C 191.35906 106.90862 190.22986 107.04411 189.3719 107.04411 C 187.33998 107.04411 184.87915 105.84747 184.87915 103.31876 C 184.87915 100.27076 188.33382 98.6901 190.81729 98.6901 C 192.80414 98.6901 194.56487 99.27723 194.56487 101.3318 C 194.56487 102.39295 193.93287 103.3636 193.93287 104.51507 C 193.93287 104.80858 194.2487 104.87629 194.70026 104.87629 C 196.21297 104.87629 197.09391 103.90548 197.09391 102.61854 C 197.09391 99.119035 193.59425 97.380619 190.07212 97.380619 C 185.66945 97.380619 182.50824 100.18056 182.50824 103.11567 C 182.50824 107.42803 187.29481 108.82747 190.02664 108.82747 C 191.20069 108.82747 192.39731 108.57943 194.11322 107.92468 L 194.11322 110.43047 C 192.71339 110.85945 190.92976 111.06299 190.02664 111.06299 C 184.9693 111.06299 180.07015 107.81153 180.07015 103.07019 C 180.07015 102.21232 180.22793 101.39974 180.54402 100.6321 C 182.07931 96.884221 186.27905 95.145614 190.07212 95.145614 z M 230.08001 95.303743 C 232.29264 95.303743 234.39235 95.981122 236.06311 97.132572 L 236.06311 100.45123 C 234.64071 98.667628 232.38295 97.561487 230.08001 97.561487 C 226.60312 97.561487 223.80339 99.570888 223.80339 102.07697 C 223.80339 104.58311 226.60312 106.56972 230.08001 106.56972 C 232.38295 106.56972 234.61813 105.50858 236.06311 103.72493 L 236.06311 107.02137 C 234.36978 108.17284 232.29264 108.82747 230.08001 108.82747 C 225.18072 108.82747 221.22939 105.80231 221.22939 102.07697 C 221.22939 98.351696 225.18072 95.303743 230.08001 95.303743 z M 258.57285 95.484094 C 262.61419 95.484094 264.62364 98.757747 264.62364 102.09919 C 264.62364 105.50844 262.5013 108.9856 258.57285 108.9856 C 254.50885 108.9856 252.49932 105.75697 252.49932 102.41545 C 252.49932 99.006274 254.62174 95.484094 258.57285 95.484094 z M 244.30395 95.642224 C 247.08102 95.642224 249.31605 97.041838 249.31605 99.186711 C 249.31605 100.38333 248.88729 101.33166 247.66809 101.89611 C 249.13564 102.37024 249.79044 103.13816 249.79044 105.14759 C 249.79044 107.87942 247.28413 108.9856 244.14582 108.9856 C 242.63311 108.9856 240.46547 108.60196 239.44947 107.69885 L 239.44947 104.98946 C 240.55578 106.23123 242.94912 106.77281 244.28121 106.77281 C 246.47126 106.77281 247.26139 106.00525 247.26139 104.74089 C 247.26139 103.90552 246.40328 103.07019 244.25848 103.07019 L 242.2493 103.07019 L 242.2493 100.83519 L 244.25848 100.83519 C 245.95173 100.83519 246.76478 100.06769 246.76478 99.32262 C 246.76478 98.600131 246.0197 97.855009 244.28121 97.855009 C 242.52023 97.855009 241.00759 98.62269 239.92386 99.683838 L 239.92386 97.267965 C 240.64635 96.184239 242.65577 95.642224 244.30395 95.642224 z M 161.08216 95.777616 L 164.01738 95.777616 L 169.77465 104.71867 L 175.53192 95.777616 L 178.46714 95.777616 L 169.77465 109.27912 L 161.08216 95.777616 z M 202.96384 95.777616 L 209.8952 95.777616 C 213.66561 95.777616 218.52 97.516326 218.52 102.07697 C 218.52 106.63768 213.66561 108.37581 209.8952 108.37581 L 202.96384 108.37581 L 202.96384 95.777616 z M 258.57285 97.696879 C 256.20218 97.696879 255.02836 99.932199 255.02836 102.16741 C 255.02836 104.47026 256.22476 106.77281 258.57285 106.77281 C 260.94351 106.77281 262.07238 104.538 262.07238 102.3028 C 262.07238 100.02244 260.87578 97.696879 258.57285 97.696879 z M 205.44741 98.03536 L 205.44741 106.11807 L 209.69211 106.11807 C 212.33371 106.11807 215.96873 105.3056 215.96873 102.07697 C 215.96873 98.848407 212.33371 98.03536 209.69211 98.03536 L 205.44741 98.03536 z M 154.19576 99.435274 L 152.27701 102.43819 L 156.13776 102.43819 L 154.19576 99.435274 z M 190.74908 100.90288 C 189.25895 100.90288 187.29503 101.62526 187.29503 103.29602 C 187.29503 104.40233 188.42376 104.85406 189.46234 104.85406 C 190.09452 104.85406 191.04306 104.71829 191.47203 104.15385 L 192.0136 101.51267 C 192.0136 100.99338 191.38126 100.90288 190.74908 100.90288 z " /><style
     type="text/css"
     id="style3379">
	.st0{fill:#262262;}
	.st1{clip-path:url(#SVGID_2_);fill:#262262;}
	.st2{clip-path:url(#SVGID_2_);fill:#FFFFFF;}
	.st3{clip-path:url(#SVGID_2_);fill:#00AEEF;}
</style><g
     id="g3439"
     transform="matrix(0.26458333,0,0,0.26458333,191.80114,38.21883)"
     inkscape:label="lines"
     style="display:inline;fill:#ffffff;fill-opacity:1;stroke:#ffffff;stroke-opacity:1">
	<defs
   id="defs3386">
		<rect
   id="rect1844"
   width="728.22998"
   height="190.57001"
   x="0"
   y="0" />
	</defs>
	<clipPath
   id="SVGID_2_">
		<use
   xlink:href="#SVGID_1_"
   style="overflow:visible"
   id="use3388" />
	</clipPath>
	
	
	
	
	
	
	
	
	
	
	
	
	
	
	
	
	
	
	
	
	
	
	
	
</g></svg>
