<?xml version="1.0" encoding="UTF-8" standalone="no"?>
<!-- Created with Inkscape (http://www.inkscape.org/) -->

<svg
   width="271.53329mm"
   height="124.40326mm"
   viewBox="0 0 271.5333 124.40326"
   version="1.1"
   id="svg5"
   xml:space="preserve"
   inkscape:version="1.2 (dc2aeda, 2022-05-15)"
   sodipodi:docname="red balloon inverted logo just the base2.svg"
   xmlns:inkscape="http://www.inkscape.org/namespaces/inkscape"
   xmlns:sodipodi="http://sodipodi.sourceforge.net/DTD/sodipodi-0.dtd"
   xmlns="http://www.w3.org/2000/svg"
   xmlns:svg="http://www.w3.org/2000/svg"><sodipodi:namedview
     id="namedview7"
     pagecolor="#ffffff"
     bordercolor="#000000"
     borderopacity="0.25"
     inkscape:showpageshadow="2"
     inkscape:pageopacity="0.0"
     inkscape:pagecheckerboard="0"
     inkscape:deskcolor="#d1d1d1"
     inkscape:document-units="mm"
     showgrid="false"
     inkscape:zoom="0.61681647"
     inkscape:cx="415.84493"
     inkscape:cy="15.401664"
     inkscape:window-width="1800"
     inkscape:window-height="1097"
     inkscape:window-x="0"
     inkscape:window-y="44"
     inkscape:window-maximized="0"
     inkscape:current-layer="svg5" /><defs
     id="defs2" /><path
     id="path378"
     style="fill:#000000;stroke-width:0.254"
     d="M 0,0 V 124.40326 H 271.5333 V 0 h -10.45673 c -3.95122,2.51149 -9.90084,6.13457 -13.00231,7.8698 -1.32714,0.74252 -2.92773,1.65052 -3.55637,2.01745 -2.26888,1.32431 -10.39458,5.31836 -15.45745,7.59799 -23.43659,10.55266 -48.38363,17.14747 -73.56915,19.44842 -5.91939,0.54079 -12.32082,0.89677 -16.19282,0.89969 l -3.23856,0.003 -0.0202,3.23856 c -0.0114,1.78116 -0.26857,10.21103 -0.57154,18.73271 l -0.55087,15.49414 -0.57258,0.0811 c -0.31494,0.0447 -0.61886,-0.0699 -0.67489,-0.25425 v -5.2e-4 c -0.0955,-0.31425 -0.73946,-19.02018 -1.08934,-31.64045 l -0.15658,-5.65185 h -2.21795 c -3.00936,0 -10.38644,-0.42875 -15.48175,-0.9002 C 90.5016,34.69435 67.93132,28.97491 44.57036,19.15838 38.48615,16.60173 29.32455,12.1608 24.04603,9.20963 22.29978,8.23333 20.35217,7.14689 19.71813,6.79531 16.84721,5.20335 13.14992,2.74869 9.22213,-1.4e-4 Z" /></svg>
