<?xml version="1.0" encoding="UTF-8" standalone="no"?>
<!-- Created with Inkscape (http://www.inkscape.org/) -->

<svg
   width="562.53827mm"
   height="573.8642mm"
   viewBox="0 0 562.53827 573.8642"
   version="1.1"
   id="svg5"
   xml:space="preserve"
   inkscape:version="1.2 (dc2aeda, 2022-05-15)"
   sodipodi:docname="red balloon inverted logo.svg"
   xmlns:inkscape="http://www.inkscape.org/namespaces/inkscape"
   xmlns:sodipodi="http://sodipodi.sourceforge.net/DTD/sodipodi-0.dtd"
   xmlns="http://www.w3.org/2000/svg"
   xmlns:svg="http://www.w3.org/2000/svg"><sodipodi:namedview
     id="namedview7"
     pagecolor="#ffffff"
     bordercolor="#000000"
     borderopacity="0.25"
     inkscape:showpageshadow="2"
     inkscape:pageopacity="0.0"
     inkscape:pagecheckerboard="0"
     inkscape:deskcolor="#d1d1d1"
     inkscape:document-units="mm"
     showgrid="false"
     inkscape:zoom="0.2102413"
     inkscape:cx="794.32537"
     inkscape:cy="925.12745"
     inkscape:window-width="1800"
     inkscape:window-height="1097"
     inkscape:window-x="0"
     inkscape:window-y="44"
     inkscape:window-maximized="0"
     inkscape:current-layer="svg5" /><defs
     id="defs2" /><path
     id="path378"
     style="fill:#000000;stroke-width:0.254"
     d="M 0,0 V 573.8642 H 562.53828 V 0 Z m 287.12356,16.376779 c 2.28065,0.0308 4.5077,0.104549 6.66833,0.222725 28.46214,1.556748 54.08234,7.370226 80.02251,18.157031 4.51207,1.87628 14.79741,6.840109 18.81538,9.080583 4.28932,2.391781 6.06343,3.414308 8.8036,5.075659 1.57666,0.95592 2.97951,1.668215 3.11764,1.582849 0.13812,-0.08536 0.21976,-0.03692 0.18138,0.107487 -0.0384,0.144401 1.30172,1.154168 2.97812,2.243791 1.6764,1.089624 4.4612,2.951553 6.18825,4.137732 1.72705,1.186181 3.26983,2.118791 3.42873,2.072225 0.1589,-0.04657 0.20832,-0.0042 0.10956,0.09457 -0.2382,0.238208 7.71809,6.214795 8.02276,6.026505 0.13005,-0.08037 0.16462,-0.03019 0.077,0.111621 -0.0876,0.141811 0.50384,0.772733 1.31413,1.401982 0.81029,0.629248 3.10894,2.559981 5.10822,4.290177 1.99925,1.730198 3.92468,3.369907 4.2788,3.643706 0.35415,0.273798 1.55446,1.359422 2.66754,2.412772 1.11308,1.05335 2.1223,1.886492 2.24224,1.851567 0.11996,-0.03493 0.19812,0.02234 0.17364,0.127124 -0.0244,0.104775 2.23554,2.476482 5.02243,5.270479 19.36349,19.412886 35.04386,42.161096 46.65917,67.690956 18.30731,40.2386 25.22704,84.81917 19.96932,128.65106 -3.09275,25.78327 -11.00117,52.10098 -22.70714,75.5649 -3.60928,7.2346 -4.35119,8.61707 -7.84087,14.60531 -16.47454,28.27007 -39.29385,53.23416 -65.82337,72.01008 -1.2573,0.88983 -2.68387,1.91055 -3.16983,2.26859 -2.06311,1.52009 -12.16578,7.74884 -16.51527,10.18232 -1.32715,0.74252 -2.92773,1.65052 -3.55637,2.01745 -2.26888,1.32431 -10.39458,5.31836 -15.45746,7.59799 -23.43661,10.55267 -48.3836,17.14747 -73.56915,19.44842 -5.91939,0.54079 -12.32081,0.89677 -16.19281,0.89969 l -3.23856,0.003 -0.0202,3.23857 c -0.0114,1.78116 -0.26857,10.21101 -0.57154,18.7327 l -0.55088,15.49415 -0.57257,0.0811 c -0.31494,0.0447 -0.61886,-0.0699 -0.67489,-0.25425 v -5.1e-4 c -0.0955,-0.31425 -0.73946,-19.02017 -1.08934,-31.64045 l -0.15658,-5.65185 h -2.21796 c -3.00936,0 -10.38643,-0.42876 -15.48174,-0.90021 -24.22264,-2.24124 -46.79287,-7.96067 -70.15386,-17.77721 -6.08421,-2.55665 -15.2458,-6.99757 -20.52433,-9.94874 -1.74625,-0.9763 -3.69386,-2.06274 -4.3279,-2.41432 -13.03993,-7.2308 -29.96328,-19.66473 -41.90028,-30.78469 -4.36119,-4.06268 -13.33949,-13.27048 -16.86461,-17.29558 -28.62941,-32.69002 -47.67718,-72.85076 -54.99406,-115.95107 -3.65803,-21.54781 -4.20556,-45.76852 -1.52704,-67.56383 2.90318,-23.62325 9.45219,-46.99156 19.2195,-68.58031 8.31338,-18.37514 18.46683,-35.02801 30.61364,-50.20934 8.24835,-10.308959 17.78157,-20.344763 27.10894,-28.538825 1.18745,-1.04317 2.2158,-1.955392 2.28565,-2.027266 0.45835,-0.471625 5.45969,-4.618257 8.00106,-6.633704 7.91621,-6.277998 16.48106,-12.193731 25.14627,-17.368966 2.51459,-1.501826 4.62909,-2.801314 4.69894,-2.887679 0.0699,-0.08637 0.25174,-0.179552 0.40462,-0.207222 0.15286,-0.02767 1.52486,-0.750406 3.04839,-1.605587 4.09052,-2.296082 13.78537,-7.020556 19.17248,-9.343099 12.95759,-5.586415 27.99221,-10.34105 42.67388,-13.4953 16.91505,-3.634073 35.51191,-5.532049 51.47644,-5.316471 z m 0.68471,18.355985 c -7.49356,-5e-5 -15.00373,0.161482 -18.65467,0.484208 -22.79973,2.015392 -43.49225,6.874994 -64.00126,15.031124 -6.71721,2.671341 -13.29859,5.602287 -13.42709,5.97948 -0.0469,0.137541 -0.17188,0.196342 -0.27802,0.130741 -0.23213,-0.143455 -7.93656,3.741721 -12.7155,6.412012 -24.57791,13.733065 -46.3027,31.925343 -63.91186,53.520761 -4.95217,6.07321 -10.96169,14.49622 -15.56184,21.81056 -1.13051,1.79754 -1.99342,3.36896 -1.9172,3.49229 0.0762,0.12333 0.029,0.22428 -0.10542,0.22428 -0.52928,0 -5.76664,9.49766 -9.48107,17.19326 -11.2003,23.20486 -18.16798,47.85625 -20.7698,73.48492 -1.51244,14.89808 -1.32619,32.30086 0.50488,47.24415 5.66558,46.23605 26.28277,90.49177 57.61716,123.67669 2.8625,3.03153 10.72307,10.90397 11.81375,11.83183 0.16421,0.1397 0.98022,0.88272 1.81384,1.65107 4.81951,4.44209 11.85722,10.11299 12.36462,9.96321 0.13005,-0.0384 0.17208,0.0348 0.093,0.16278 -0.13665,0.22113 1.44212,1.45777 6.58306,5.15524 2.78999,2.00665 6.47092,4.53099 6.60683,4.53099 0.0549,0 0.81929,0.50048 1.69912,1.11208 4.09017,2.8433 12.60052,7.74681 20.14193,11.60549 27.92989,14.29085 60.08804,22.83062 90.4875,24.02954 l 4.19612,0.16537 -0.16898,-4.29586 c -0.19218,-4.89669 -0.97563,-33.37814 -1.55391,-56.49268 -0.21494,-8.59154 -0.57336,-20.19286 -0.79685,-25.78085 -0.31649,-7.91294 -0.432,-19.88875 -0.52245,-54.1476 l -0.11627,-43.9875 -1.69344,-0.18345 c -2.29105,-0.24798 -23.18681,0.0784 -26.2046,0.40928 -1.32715,0.14552 -3.47553,0.56005 -4.77387,0.92139 -1.29835,0.36134 -2.40009,0.61434 -2.44843,0.56224 -0.0483,-0.0521 2.14183,-1.63735 4.86689,-3.5233 5.97905,-4.13796 15.50533,-11.21648 18.69963,-13.89476 1.27866,-1.07211 3.33086,-2.92779 4.56045,-4.12378 2.71873,-2.64449 8.11524,-8.93768 8.34316,-9.72912 0.0909,-0.3155 0.17676,-1.04122 0.19068,-1.61282 0.0241,-0.98783 -0.0217,-1.05371 -0.92707,-1.32757 -1.04371,-0.31572 -6.31256,-3.74731 -9.56221,-6.22805 -11.76476,-8.98107 -21.85927,-19.60291 -32.20165,-33.88372 -0.63112,-0.87141 -1.2406,-1.49988 -1.35444,-1.39681 -0.11382,0.10308 -0.13626,0.0636 -0.0501,-0.0879 0.0861,-0.15138 -0.58116,-1.40259 -1.48311,-2.78019 -0.90193,-1.37762 -1.64021,-2.60314 -1.64021,-2.72387 0,-0.12072 -0.0949,-0.16081 -0.21136,-0.0889 -0.11644,0.072 -0.21826,-0.007 -0.22583,-0.1757 -0.008,-0.16848 -0.83602,-1.72739 -1.84123,-3.46439 -9.61884,-16.62126 -13.2843,-31.98688 -12.87983,-53.99154 0.17186,-9.34839 0.75037,-14.17355 2.61999,-21.84414 2.74727,-11.27129 7.71567,-21.69861 14.22032,-29.845206 2.11051,-2.643286 6.92121,-7.485398 9.494,-9.556006 8.72072,-7.018538 18.48792,-11.165551 29.59096,-12.563574 2.8262,-0.355857 13.1634,-0.338866 17.27233,0.02842 23.07265,2.062415 41.85148,17.733494 50.30855,41.981936 1.86903,5.35893 3.16745,11.1845 4.22869,18.97145 0.51061,3.74674 0.57116,5.2273 0.5674,13.96969 -0.005,12.55729 -0.60025,18.64275 -2.64893,27.10015 -4.79569,19.79766 -18.42718,41.3498 -39.89059,63.07006 -2.00169,2.02565 -3.61916,3.76889 -3.59409,3.87366 0.0251,0.10478 -0.0491,0.16154 -0.16485,0.12661 -0.11575,-0.0349 -1.57314,1.20734 -3.23856,2.76004 -1.66543,1.55271 -4.45648,4.05285 -6.20273,5.55625 -2.55247,2.19748 -3.19103,2.88021 -3.25613,3.48196 -0.0566,0.52344 0.0863,0.89404 0.47594,1.23196 0.3064,0.26576 1.43306,1.31435 2.50321,2.33061 1.07012,1.01628 3.42773,3.21734 5.23895,4.89118 5.53781,5.11768 9.33991,8.90128 14.80944,14.73656 2.88076,3.0734 7.84299,8.20487 11.02723,11.40293 3.18422,3.19803 5.75325,5.85121 5.7087,5.89576 -0.0445,0.0446 -1.21889,-0.37607 -2.60966,-0.93431 -5.54269,-2.22478 -14.18232,-4.75084 -21.57905,-6.30969 -3.75691,-0.79177 -11.51883,-2.05362 -12.63282,-2.05362 h -0.65991 l -0.11627,43.4976 c -0.0905,33.78245 -0.20755,45.76692 -0.52297,53.65771 -0.22336,5.58799 -0.58191,17.18931 -0.79685,25.78085 -0.55895,22.342 -1.35879,51.45508 -1.55442,56.57846 l -0.16743,4.38164 3.5264,-0.003 c 1.93949,0 5.98401,-0.11534 8.98756,-0.25476 v 0.002 c 18.46799,-0.8573 34.75543,-3.53806 52.45106,-8.63307 29.6415,-8.53447 57.78018,-23.49311 81.66065,-43.41027 5.71076,-4.76298 18.40601,-16.89999 18.13533,-17.33796 -0.0765,-0.12375 -0.0372,-0.1934 0.0868,-0.15502 0.35976,0.11138 7.35161,-7.68155 11.78843,-13.13874 2.99084,-3.67867 10.12186,-13.33953 10.12186,-13.71286 0,-0.088 -0.13223,-0.078 -0.29352,0.0217 -0.18314,0.11319 -0.22434,0.0695 -0.10956,-0.11627 0.10109,-0.16358 0.28543,-0.23468 0.40928,-0.15813 0.22782,0.14079 3.72276,-5.04052 6.85643,-10.16424 6.1791,-10.10315 12.50354,-22.7471 16.38918,-32.76596 7.74897,-19.98013 12.81785,-41.55087 14.59394,-62.10267 0.15093,-1.74625 0.32184,-3.68943 0.37982,-4.31808 0.058,-0.62865 0.23899,-4.27713 0.40205,-8.10752 0.84322,-19.80634 -2.08664,-43.72716 -7.88945,-64.4095 -3.08063,-10.98005 -7.43578,-22.79887 -11.74657,-31.87713 -0.8292,-1.74625 -1.74875,-3.68943 -2.04328,-4.31808 -0.78331,-1.67183 -4.93953,-9.54892 -5.8968,-11.17606 -4.25986,-7.24072 -5.6141,-9.4289 -8.58397,-13.87047 -8.06291,-12.05854 -17.25027,-23.2728 -27.35234,-33.3866 -2.86791,-2.871219 -6.28852,-6.185882 -7.60108,-7.365956 -1.31259,-1.180078 -2.51276,-2.260894 -2.66702,-2.401404 -1.18049,-1.075227 -5.66206,-4.805127 -8.28115,-6.892086 C 413.79943,71.898363 396.88759,61.689995 379.38973,53.999756 355.14725,43.345295 332.79815,37.596856 306.36472,35.21744 302.77896,34.894666 295.3018,34.733282 287.80823,34.733232 Z m -1.52755,58.682723 c -3.39861,0.0046 -6.83368,0.164366 -8.61808,0.476974 -5.56849,0.975542 -9.93891,2.313448 -14.22394,4.353739 -7.48984,3.56625 -14.11549,10.79717 -18.77559,20.49126 -3.07058,6.38751 -4.62956,11.53693 -5.98155,19.76106 -1.3048,7.93707 -1.61355,12.85017 -1.44591,23.0048 0.17582,10.65128 0.56583,14.35849 2.20245,20.95479 2.62847,10.59397 7.73959,22.01071 15.75046,35.17925 2.94203,4.83621 8.1815,12.74696 8.8377,13.34389 0.23572,0.2144 0.46295,0.54564 0.50488,0.73639 0.0978,0.44483 6.65396,9.21316 10.03091,13.4152 2.71585,3.37945 9.44023,10.47672 9.9286,10.47895 0.15611,0 0.74138,-0.4417 1.30018,-0.98289 0.5588,-0.54117 2.14297,-2.05615 3.52071,-3.36672 2.15054,-2.04563 6.10867,-6.19032 9.32088,-9.76012 2.25252,-2.5033 8.49911,-10.24792 11.05462,-13.70614 14.56679,-19.71233 22.28105,-36.53493 24.63416,-53.71972 0.5463,-3.98973 0.7781,-17.66347 0.38757,-22.86011 -1.05334,-14.01658 -4.51847,-26.40731 -9.85056,-35.22627 -7.46818,-12.35185 -17.5601,-19.749174 -30.17749,-22.120097 -1.63913,-0.30801 -5.00139,-0.458802 -8.4,-0.454236 z m -2.60656,169.593263 -0.43821,0.93638 c -0.96848,2.06824 -5.04786,8.87399 -7.13239,11.89953 -0.37373,0.54247 -0.35631,0.5522 1.35238,0.73846 2.49702,0.27219 17.30156,1.5546 18.44021,1.59732 l 0.9617,0.0362 -2.61276,-2.9962 c -1.43698,-1.64767 -4.40326,-5.06923 -6.59184,-7.60367 z" /></svg>
