<?xml version="1.0" encoding="UTF-8" standalone="no"?>
<!-- Created with Inkscape (http://www.inkscape.org/) -->

<svg
   width="271.53329mm"
   height="124.40326mm"
   viewBox="0 0 271.5333 124.40326"
   version="1.1"
   id="svg5"
   xml:space="preserve"
   inkscape:version="1.2 (dc2aeda, 2022-05-15)"
   sodipodi:docname="red balloon inverted logo just the base with AV@DC30 thicker words.svg"
   xmlns:inkscape="http://www.inkscape.org/namespaces/inkscape"
   xmlns:sodipodi="http://sodipodi.sourceforge.net/DTD/sodipodi-0.dtd"
   xmlns="http://www.w3.org/2000/svg"
   xmlns:svg="http://www.w3.org/2000/svg"><sodipodi:namedview
     id="namedview7"
     pagecolor="#ffffff"
     bordercolor="#000000"
     borderopacity="0.25"
     inkscape:showpageshadow="2"
     inkscape:pageopacity="0.0"
     inkscape:pagecheckerboard="0"
     inkscape:deskcolor="#d1d1d1"
     inkscape:document-units="mm"
     showgrid="false"
     inkscape:zoom="0.61681647"
     inkscape:cx="522.84596"
     inkscape:cy="367.20809"
     inkscape:window-width="1800"
     inkscape:window-height="1097"
     inkscape:window-x="0"
     inkscape:window-y="44"
     inkscape:window-maximized="0"
     inkscape:current-layer="svg5" /><defs
     id="defs2"><rect
       id="SVGID_1_"
       width="728.22998"
       height="190.57001"
       x="0"
       y="0" /></defs><path
     id="path378"
     style="fill:#000000;stroke-width:0.254"
     d="M 0 0 L 0 124.40326 L 271.5333 124.40326 L 271.5333 0 L 261.07657 0 C 257.12535 2.511465 251.17573 6.1345909 248.07426 7.8698039 C 246.74712 8.6123159 245.14653 9.5203258 244.51789 9.8872518 C 242.24901 11.211551 234.12321 15.205628 229.06044 17.485238 C 205.62405 28.037788 180.6766 34.632733 155.49128 36.933663 C 149.57199 37.474443 143.17047 37.83043 139.29847 37.83335 L 136.05991 37.83645 L 136.03976 41.075012 C 136.02836 42.856152 135.77119 51.286119 135.46822 59.807719 L 134.91735 75.301864 L 134.34477 75.382996 C 134.02983 75.427696 133.72591 75.313088 133.66988 75.128748 L 133.66988 75.128231 C 133.57438 74.813981 132.93042 56.107925 132.58054 43.487785 L 132.42396 37.835933 L 130.20601 37.835933 C 127.19665 37.835933 119.81957 37.40718 114.72426 36.93573 C 90.50193 34.69451 67.931136 28.974951 44.570406 19.158521 C 38.486256 16.601891 29.324547 12.160914 24.046077 9.2097738 C 22.299847 8.2334828 20.352216 7.1470278 19.718176 6.7954508 C 16.847286 5.2035068 13.149926 2.748803 9.2221761 0 L 0 0 z M 218.70655 30.551624 C 218.89045 30.550892 219.07951 30.560577 219.27344 30.583146 C 219.46402 30.603208 219.66117 30.639842 219.86513 30.720089 L 220.15969 30.827059 C 220.25665 30.877213 220.35339 30.937406 220.44701 30.997591 C 220.54063 31.057776 220.63396 31.114961 220.72089 31.185177 L 220.95499 31.422371 C 221.12217 31.576177 221.21286 31.763232 221.32654 31.943787 C 221.71437 32.686065 221.74448 33.401186 221.71773 34.046501 C 221.68764 34.698501 221.5734 35.311144 221.42628 35.899618 C 220.94146 37.788749 220.19301 39.523894 219.35044 41.199036 L 222.81069 41.439848 L 215.7026 47.434831 L 216.36767 38.159428 L 218.56082 40.774255 C 219.1961 39.072366 219.75763 37.346925 220.03515 35.628316 C 220.11875 35.086654 220.16242 34.548039 220.13902 34.046501 C 220.11896 33.548304 220.0255 33.070897 219.83826 32.800065 C 219.65102 32.535921 219.45052 32.445442 219.07603 32.418693 C 218.70155 32.405319 218.23359 32.485426 217.7588 32.669324 C 216.80922 33.000339 215.84952 33.554998 214.93003 34.160189 C 214.00386 34.765379 213.10128 35.431009 212.21857 36.126477 C 210.4565 37.527444 208.76759 39.052692 207.13258 40.634212 C 206.92092 40.83411 206.71764 41.043583 206.50781 41.245544 C 213.63834 45.261744 218.46057 52.966743 218.46057 61.822583 C 218.46057 74.825852 208.06886 85.35448 195.22943 85.35448 C 188.31027 85.35448 182.10425 82.293591 177.84909 77.438684 C 177.7085 77.674375 177.5599 77.905867 177.42121 78.142517 C 176.28104 80.111881 175.15408 82.088345 174.19454 84.124581 C 173.24161 86.147446 172.36909 88.267056 172.03808 90.306632 C 171.97789 90.804829 171.96142 91.292882 172.03498 91.687427 C 172.12525 92.085308 172.25209 92.279189 172.49283 92.406246 C 172.7436 92.53999 173.19836 92.567108 173.67984 92.486861 C 174.16132 92.409958 174.67254 92.252666 175.17742 92.062081 C 177.21367 91.262967 179.15043 89.985461 181.03288 88.694845 C 182.90864 87.374132 184.73753 85.962959 186.5297 84.501819 C 184.95486 86.197008 183.3195 87.845347 181.56411 89.373356 C 180.69143 90.142378 179.78535 90.884957 178.8325 91.573739 C 177.87957 92.265857 176.8901 92.921122 175.7934 93.46613 C 175.24171 93.733611 174.6667 93.98126 174.0147 94.131722 C 173.37273 94.275497 172.62331 94.379389 171.79417 94.071777 C 171.59021 93.991531 171.39643 93.884094 171.20919 93.75035 C 171.03866 93.609919 170.87492 93.445995 170.72446 93.282161 C 170.60409 93.104958 170.48319 92.92139 170.38288 92.737492 C 170.30598 92.556937 170.23633 92.369729 170.16946 92.182487 C 169.97219 91.450245 169.96494 90.774663 169.99169 90.122664 C 170.08531 88.835392 170.36615 87.648511 170.71723 86.494979 C 171.06496 85.341443 171.48978 84.234256 171.93783 83.137561 C 173.09767 80.315432 174.4912 77.632413 175.98202 75.012476 C 173.46518 71.250915 171.99467 66.712043 171.99467 61.822583 C 171.99467 48.819314 182.38999 38.290169 195.22943 38.290169 C 198.26205 38.290169 201.15493 38.883424 203.80978 39.952083 C 204.29687 39.50182 204.77855 39.046932 205.27378 38.604362 C 207.0325 37.059621 208.8545 35.578331 210.78042 34.204114 C 212.72972 32.856644 214.69577 31.509211 217.18674 30.783651 C 217.64816 30.650743 218.15485 30.553818 218.70655 30.551624 z M 206.50781 41.245544 C 206.11306 41.023208 205.71378 40.808683 205.3053 40.609408 C 205.64387 40.774576 205.9776 40.94821 206.30679 41.129272 C 206.37465 41.166598 206.43984 41.208073 206.50729 41.246061 C 206.50747 41.245892 206.50763 41.245713 206.50781 41.245544 z M 191.86581 42.315763 C 183.0621 43.867195 176.27792 51.357107 175.72622 60.585449 L 183.06221 60.585449 C 183.49019 53.523761 187.89027 47.270982 191.86581 42.315763 z M 198.58995 42.315763 C 198.98453 42.807586 199.38398 43.321762 199.78264 43.838668 C 200.11435 43.503396 200.44913 43.171044 200.78464 42.839246 C 200.06875 42.62464 199.3375 42.447217 198.58995 42.315763 z M 199.78264 43.838668 C 200.20432 44.38543 200.62049 44.949592 201.03682 45.523319 C 200.72272 45.090068 200.41021 44.651282 200.09218 44.233476 C 199.98883 44.097705 199.88608 43.97279 199.78264 43.838668 z M 201.03682 45.523319 C 201.21814 45.773417 201.403 46.013005 201.58201 46.267977 C 201.58505 46.272307 201.58828 46.276566 201.59131 46.280896 C 201.40932 46.021532 201.22131 45.777549 201.03682 45.523319 z M 201.59131 46.280896 C 204.52236 50.458019 207.07288 55.29456 207.39354 60.585449 L 214.72953 60.585449 C 214.29445 53.263435 209.92949 47.037005 203.74829 44.002482 C 203.0216 44.754257 202.30177 45.5125 201.59131 46.280896 z M 203.74829 44.002482 C 203.59973 43.929554 203.45243 43.854649 203.3018 43.785441 C 203.05495 43.672021 202.8047 43.564135 202.55249 43.460913 C 202.95863 43.627136 203.35624 43.810017 203.74829 44.002482 z M 202.55249 43.460913 C 202.30029 43.357691 202.04602 43.259124 201.78872 43.166357 C 201.61673 43.104354 201.44199 43.048688 201.26782 42.991691 C 201.70237 43.13452 202.13189 43.288767 202.55249 43.460913 z M 200.83064 42.852681 C 200.89032 42.869894 200.95039 42.886391 201.00944 42.904875 C 200.95031 42.886365 200.89 42.870638 200.83064 42.852681 z M 196.45002 43.552897 L 196.45002 47.335612 C 196.98242 46.758214 197.51541 46.181373 198.05768 45.61272 C 197.52421 44.912198 196.98645 44.223548 196.45002 43.552897 z M 194.00573 43.555998 C 190.09037 48.447688 185.99416 54.205856 185.50599 60.585449 C 185.50676 60.575596 185.50884 60.565844 185.50961 60.555994 C 185.8321 60.121263 186.15125 59.683977 186.47596 59.251164 C 188.88316 56.105098 191.39023 53.032273 194.00573 50.052242 L 194.00573 43.555998 z M 199.36096 47.373336 C 199.5408 47.625826 199.7085 47.888798 199.88444 48.144865 C 199.16038 48.94948 198.44154 49.758205 197.72747 50.570557 C 197.29619 51.060033 196.87494 51.559428 196.45002 52.054704 L 196.45002 60.585449 L 204.94925 60.585449 C 204.58312 55.753108 202.18761 51.34193 199.36096 47.373336 z M 233.64465 53.041724 L 244.51014 69.91873 L 240.84163 69.91873 L 237.87799 65.318494 L 229.41132 65.318494 L 226.44819 69.91873 L 222.77917 69.91873 L 233.64465 53.041724 z M 242.2524 54.170854 L 245.92142 54.170854 L 253.11788 65.346916 L 260.31486 54.170854 L 263.98337 54.170854 L 253.11788 71.04786 L 242.2524 54.170854 z M 194.00573 54.96512 C 192.48548 56.81666 190.99475 58.693901 189.52435 60.585449 L 194.00573 60.585449 L 194.00573 54.96512 z M 233.64465 58.742668 L 231.24583 62.496444 L 236.0719 62.496444 L 233.64465 58.742668 z M 175.72622 63.059717 C 175.90523 66.072283 176.75283 68.897316 178.11471 71.393575 C 178.24936 71.173323 178.37924 70.949167 178.51469 70.729533 C 179.97128 68.365464 181.53235 66.072728 183.14024 63.815226 C 183.11293 63.563598 183.07976 63.313442 183.06221 63.059717 L 175.72622 63.059717 z M 178.11471 71.393575 C 178.11459 71.393777 178.11432 71.39389 178.11419 71.394092 C 178.18628 71.526225 178.25679 71.659677 178.33175 71.789933 C 178.25668 71.659506 178.18689 71.525886 178.11471 71.393575 z M 187.63247 63.059717 C 187.03457 63.853948 186.44379 64.652782 185.85997 65.456986 C 187.03286 70.88598 190.59004 75.817575 194.00573 80.088652 L 194.00573 63.059717 L 187.63247 63.059717 z M 185.85997 65.456986 C 185.85746 65.445353 185.85368 65.434002 185.85119 65.422363 C 185.85373 65.434166 185.85691 65.445677 185.85946 65.457503 C 185.8596 65.457308 185.85983 65.457181 185.85997 65.456986 z M 196.45002 63.059717 L 196.45002 80.088652 C 200.36538 75.196962 204.46108 69.43931 204.94925 63.059717 L 196.45002 63.059717 z M 207.39354 63.059717 C 206.96556 70.121405 202.56549 76.373668 198.58995 81.328886 C 207.39365 79.780798 214.18118 72.288059 214.72953 63.059717 L 207.39354 63.059717 z M 184.03218 68.01652 C 183.02472 69.451368 182.0295 70.894106 181.05251 72.348039 C 180.66323 72.934109 180.28724 73.527647 179.90736 74.11899 C 182.82588 77.844811 187.04166 80.480583 191.86581 81.328886 C 188.85133 77.568402 185.62699 73.057414 184.03218 68.01652 z M 173.02561 98.420349 C 178.58538 98.420349 184.87864 101.46868 184.87864 107.64924 C 184.87864 110.35857 182.70537 113.37809 178.72604 113.37809 C 177.85115 113.37809 176.63771 113.18043 175.76292 112.55954 C 174.63403 113.12398 173.22317 113.29334 172.15073 113.29334 C 169.61074 113.29334 166.53402 111.79766 166.53402 108.63678 C 166.53402 104.82679 170.85247 102.85109 173.95682 102.85109 C 176.44037 102.85109 178.64181 103.58499 178.64181 106.15321 C 178.64181 107.47965 177.85116 108.69296 177.85116 110.1323 C 177.85116 110.49918 178.24635 110.58395 178.81079 110.58395 C 180.70168 110.58395 181.80234 109.37056 181.80234 107.7619 C 181.80234 103.38746 177.42827 101.21449 173.02561 101.21449 C 167.52238 101.21449 163.57089 104.71374 163.57089 108.38253 C 163.57089 113.77297 169.55389 115.52318 172.96877 115.52318 C 174.43632 115.52318 175.9321 115.21249 178.07699 114.39405 L 178.07699 117.52668 C 176.32721 118.0629 174.09766 118.31681 172.96877 118.31681 C 166.64709 118.31681 160.52302 114.25286 160.52302 108.3262 C 160.52302 107.25385 160.72064 106.23788 161.11575 105.27833 C 163.03485 100.59345 168.28438 98.420349 173.02561 98.420349 z M 223.03497 98.617753 C 225.80065 98.617753 228.42565 99.464588 230.5141 100.90392 L 230.5141 105.0525 C 228.7361 102.82295 225.91354 101.44032 223.03497 101.44032 C 218.68875 101.44032 215.18945 103.95176 215.18945 107.08442 C 215.18945 110.21708 218.68875 112.70061 223.03497 112.70061 C 225.91354 112.70061 228.70788 111.37431 230.5141 109.14476 L 230.5141 113.26544 C 228.39743 114.70477 225.80065 115.52318 223.03497 115.52318 C 216.91075 115.52318 211.97207 111.74108 211.97207 107.08442 C 211.97207 102.42776 216.91075 98.617753 223.03497 98.617753 z M 258.6514 98.843579 C 263.70307 98.843579 266.21476 102.93605 266.21476 107.11284 C 266.21476 111.37439 263.56196 115.72059 258.6514 115.72059 C 253.5714 115.72059 251.05961 111.68453 251.05961 107.50765 C 251.05961 103.2461 253.71252 98.843579 258.6514 98.843579 z M 240.81528 99.040983 C 244.28651 99.040983 247.08053 100.79113 247.08053 103.47224 C 247.08053 104.96801 246.54409 106.15304 245.02019 106.85859 C 246.85454 107.45126 247.67325 108.41117 247.67325 110.92295 C 247.67325 114.33774 244.54024 115.72059 240.61735 115.72059 C 238.72656 115.72059 236.01743 115.24078 234.74743 114.1119 L 234.74743 110.72502 C 236.13031 112.27724 239.12174 112.95486 240.78685 112.95486 C 243.5244 112.95486 244.51221 111.99532 244.51221 110.41497 C 244.51221 109.37075 243.43954 108.3262 240.75843 108.3262 L 238.24696 108.3262 L 238.24696 105.53258 L 240.75843 105.53258 C 242.87509 105.53258 243.89106 104.57255 243.89106 103.64122 C 243.89106 102.73811 242.95996 101.80722 240.78685 101.80722 C 238.58561 101.80722 236.69482 102.76643 235.34016 104.09287 L 235.34016 101.07342 C 236.24327 99.718744 238.75506 99.040983 240.81528 99.040983 z M 189.14039 99.210482 L 197.80446 99.210482 C 202.51757 99.210482 208.5852 101.38363 208.5852 107.08442 C 208.5852 112.78521 202.51757 114.95836 197.80446 114.95836 L 189.14039 114.95836 L 189.14039 99.210482 z M 258.6514 101.6093 C 255.68807 101.6093 254.22066 104.4036 254.22066 107.19759 C 254.22066 110.07625 255.71629 112.95486 258.6514 112.95486 C 261.61463 112.95486 263.02581 110.16057 263.02581 107.36657 C 263.02581 104.51622 261.52997 101.6093 258.6514 101.6093 z M 192.2446 102.03253 L 192.2446 112.13631 L 197.55022 112.13631 C 200.85212 112.13631 205.39625 111.12019 205.39625 107.08442 C 205.39625 103.04865 200.85212 102.03253 197.55022 102.03253 L 192.2446 102.03253 z M 173.87207 105.61681 C 172.0095 105.61681 169.55399 106.51992 169.55399 108.60836 C 169.55399 109.99124 170.96517 110.55604 172.26339 110.55604 C 173.05361 110.55604 174.23916 110.38671 174.77538 109.68116 L 175.45234 106.37904 C 175.45234 105.72993 174.6623 105.61681 173.87207 105.61681 z " /><style
     type="text/css"
     id="style3379">
	.st0{fill:#262262;}
	.st1{clip-path:url(#SVGID_2_);fill:#262262;}
	.st2{clip-path:url(#SVGID_2_);fill:#FFFFFF;}
	.st3{clip-path:url(#SVGID_2_);fill:#00AEEF;}
</style></svg>
