<?xml version="1.0" encoding="UTF-8" standalone="no"?>
<!-- Created with Inkscape (http://www.inkscape.org/) -->

<svg
   width="600mm"
   height="600mm"
   viewBox="0 0 600 600"
   version="1.1"
   id="svg5"
   xml:space="preserve"
   sodipodi:docname="red balloon logo.svg"
   inkscape:version="1.2 (dc2aeda, 2022-05-15)"
   xmlns:inkscape="http://www.inkscape.org/namespaces/inkscape"
   xmlns:sodipodi="http://sodipodi.sourceforge.net/DTD/sodipodi-0.dtd"
   xmlns="http://www.w3.org/2000/svg"
   xmlns:svg="http://www.w3.org/2000/svg"><sodipodi:namedview
     id="namedview7"
     pagecolor="#ffffff"
     bordercolor="#000000"
     borderopacity="0.25"
     inkscape:showpageshadow="2"
     inkscape:pageopacity="0.0"
     inkscape:pagecheckerboard="0"
     inkscape:deskcolor="#d1d1d1"
     inkscape:document-units="mm"
     showgrid="false"
     inkscape:zoom="0.2102413"
     inkscape:cx="794.32537"
     inkscape:cy="925.12745"
     inkscape:window-width="1800"
     inkscape:window-height="1097"
     inkscape:window-x="0"
     inkscape:window-y="44"
     inkscape:window-maximized="0"
     inkscape:current-layer="svg5" /><defs
     id="defs2" /><g
     inkscape:label="Layer 1"
     inkscape:groupmode="layer"
     id="layer1"
     transform="translate(275.57277,104.0909)"><path
       style="fill:#000000;stroke-width:0.254"
       d="m 28.332785,427.23704 c -0.09548,-0.31425 -0.739572,-19.02052 -1.089457,-31.64081 l -0.156692,-5.6515 h -2.217674 c -3.009367,0 -10.386721,-0.42913 -15.4820366,-0.90058 -24.2226594,-2.24125 -46.7924404,-7.96046 -70.1534504,-17.77701 -6.08422,-2.55666 -15.24602,-6.99762 -20.52455,-9.94879 -1.74625,-0.9763 -3.69374,-2.06276 -4.32778,-2.41435 -13.03994,-7.2308 -29.963195,-19.66445 -41.900215,-30.78442 -4.36119,-4.06268 -13.33987,-13.27074 -16.86499,-17.29585 -28.62944,-32.69005 -47.67705,-72.85065 -54.99393,-115.951 -3.65804,-21.54784 -4.20541,-45.76867 -1.52688,-67.564 2.90318,-23.62327 9.45195,-46.991222 19.21927,-68.579998 8.31339,-18.375155 18.46711,-35.028122 30.61393,-50.2094684 8.24836,-10.308971 17.78122,-20.3447876 27.1086,-28.5388576 1.18745,-1.043171 2.21615,-1.95548 2.286,-2.027354 0.45835,-0.471625 5.45963,-4.618206 8.001,-6.633655 7.91622,-6.278004 16.480785,-12.193778 25.145995,-17.369018 2.5146,-1.501828 4.62915,-2.801257 4.699,-2.887622 0.0699,-0.08637 0.25207,-0.179667 0.40495,-0.207337 0.15286,-0.02767 1.52446,-0.750012 3.048,-1.605194 4.09052,-2.296084 13.7857,-7.020715 19.17281,-9.34326 12.95761,-5.586421 27.99184,-10.340861 42.673525,-13.495114 19.33150842,-4.15323 40.859685,-6.03922 58.144715,-5.09381 28.462174,1.55675 54.082569,7.369866 80.022755,18.156682 4.51208,1.876282 14.7976,6.84025 18.81558,9.080726 4.28932,2.391783 6.06316,3.41455 8.80333,5.075903 1.57666,0.955921 2.97965,1.668195 3.11778,1.582829 0.13812,-0.08536 0.21973,-0.03706 0.18135,0.107343 -0.0384,0.144401 1.30181,1.154059 2.97821,2.243683 1.6764,1.089625 4.46102,2.951648 6.18807,4.137828 1.72705,1.186182 3.2701,2.118596 3.429,2.07203 0.1589,-0.04657 0.20813,-0.0039 0.10937,0.09488 -0.2382,0.238209 7.71795,6.214709 8.02262,6.026419 0.13005,-0.08037 0.16472,-0.03009 0.0771,0.111719 -0.0876,0.141811 0.50363,0.772681 1.31392,1.401931 0.81029,0.629249 3.10904,2.559707 5.10832,4.289905 1.99926,1.730199 3.92481,3.369833 4.27894,3.643632 0.35415,0.273799 1.55463,1.359649 2.66771,2.413 1.11308,1.053351 2.12194,1.886608 2.24188,1.851683 0.11996,-0.03493 0.19809,0.02222 0.17361,0.127 -0.0244,0.104775 2.23568,2.4765 5.02257,5.2705 19.36351,19.4129026 35.04372,42.161112 46.65904,67.691 18.30733,40.238633 25.22718,84.819055 19.96945,128.650995 -3.09275,25.78329 -11.00119,52.10106 -22.70717,75.565 -3.60928,7.23461 -4.3513,8.61675 -7.84098,14.605 -16.47456,28.2701 -39.29387,53.23421 -65.82342,72.01014 -1.2573,0.88984 -2.68358,1.91084 -3.16954,2.26888 -2.06311,1.52009 -12.16596,7.74881 -16.51546,10.1823 -1.32715,0.74252 -2.92735,1.65024 -3.556,2.01717 -2.26888,1.32431 -10.39495,5.31868 -15.45783,7.59831 -23.43663,10.55268 -48.383594,17.14759 -73.569168,19.44855 -5.919394,0.54079 -12.320499,0.89627 -16.1925,0.89919 l -3.2385,0.003 -0.02057,3.2385 c -0.01143,1.78117 -0.268529,10.2108 -0.5715,18.7325 l -0.550824,15.494 -0.572643,0.0813 c -0.314935,0.0447 -0.618465,-0.0696 -0.674497,-0.254 z m 15.34414,-48.97865 c 18.46801,-0.8573 34.755354,-3.53809 52.451,-8.6331 29.641525,-8.53448 57.780505,-23.49284 81.661005,-43.41002 5.71076,-4.76299 18.40598,-16.90015 18.1353,-17.33812 -0.0765,-0.12375 -0.0376,-0.1936 0.0864,-0.15522 0.35976,0.11138 7.352,-7.68144 11.78882,-13.13863 2.99085,-3.67868 10.12147,-13.33924 10.12147,-13.71257 0,-0.088 -0.13195,-0.0784 -0.29324,0.0213 -0.18314,0.11319 -0.22423,0.0696 -0.10945,-0.11615 0.10109,-0.16358 0.28511,-0.23477 0.40896,-0.15822 0.22782,0.14079 3.72291,-5.04015 6.85658,-10.16388 6.17911,-10.10316 12.50343,-22.74713 16.38907,-32.766 7.74898,-19.98015 12.81819,-41.55118 14.59428,-62.103 0.15093,-1.74625 0.32185,-3.68935 0.37983,-4.318 0.058,-0.62865 0.23887,-4.27696 0.40193,-8.10735 0.84323,-19.80636 -2.08691,-43.72729 -7.88972,-64.409652 -3.08064,-10.98006 -7.43577,-22.798735 -11.74656,-31.877 -0.82921,-1.74625 -1.74864,-3.68935 -2.04317,-4.318 -0.78331,-1.671828 -4.93934,-9.54885 -5.89661,-11.176 -4.25986,-7.240722 -5.61427,-9.429288 -8.58414,-13.870869 -8.06292,-12.058543 -17.25031,-23.27273 -27.35239,-33.3865344 -2.86792,-2.871224 -6.28831,-6.185924 -7.60088,-7.366 -1.31259,-1.180079 -2.51274,-2.26056 -2.667,-2.40107 -1.18049,-1.075228 -5.66239,-4.805276 -8.28149,-6.8922366 -14.86637,-11.845843 -31.77812,-22.054317 -49.276,-29.744563 -24.2425,-10.654472 -46.591555,-16.40267 -73.025005,-18.782088 -7.171538,-0.645549 -29.90911,-0.645701 -37.211,-2.47e-4 -22.7997506,2.015394 -43.49206,6.875206 -64.00109,15.031344 -6.71721,2.671344 -13.2986,5.602163 -13.4271,5.979356 -0.0469,0.137541 -0.17204,0.196398 -0.27818,0.130797 -0.23213,-0.143456 -7.93672,3.741583 -12.71567,6.411877 -24.577935,13.733079 -46.302385,31.92571463 -63.911565,53.521158 -4.95217,6.073208 -10.96195,14.495912 -15.56211,21.810261 -1.13051,1.797543 -1.99311,3.369168 -1.91689,3.4925 0.0762,0.123332 0.0287,0.224239 -0.10568,0.224239 -0.52928,0 -5.7668,9.497771 -9.48124,17.193387 -11.20031,23.204879 -18.16758,47.855911 -20.7694,73.484611 -1.51245,14.89809 -1.32662,32.3007 0.50446,47.244 5.66558,46.2361 26.2832,90.49212 57.61762,123.67707 2.8625,3.03154 10.72258,10.90407 11.81326,11.83193 0.16421,0.1397 0.98063,0.88265 1.81425,1.651 4.81951,4.4421 11.85724,10.11298 12.36464,9.9632 0.13005,-0.0384 0.17176,0.0349 0.0927,0.16284 -0.13665,0.22113 1.44207,1.45735 6.583015,5.15483 2.78999,2.00665 6.47101,4.53113 6.60692,4.53113 0.0549,0 0.81958,0.50041 1.69941,1.11201 4.09017,2.8433 12.60026,7.74672 20.14167,11.60541 27.92992,14.29086 60.0878914,22.83064 90.487373,24.02957 l 4.19608,0.16548 -0.168631,-4.29572 c -0.192176,-4.89669 -0.975588,-33.37819 -1.55387,-56.49275 -0.214935,-8.59155 -0.573659,-20.193 -0.797154,-25.781 -0.316484,-7.91294 -0.432028,-19.88863 -0.522478,-54.14752 l -0.116103,-43.98751 -1.693621,-0.18334 c -2.291055,-0.24798 -23.1867966,0.0783 -26.2045956,0.40922 -1.32715,0.14552 -3.475279,0.56022 -4.773625,0.92156 -1.2983474,0.36134 -2.4001734,0.61438 -2.4485094,0.56228 -0.04831,-0.0521 2.1417284,-1.63774 4.8667924,-3.52369 5.97905802,-4.13796 15.505201,-11.21636 18.6995046,-13.89464 1.278662,-1.07211 3.330855,-2.92783 4.560443,-4.12382 2.71874,-2.64449 8.115656,-8.93749 8.34357,-9.72893 0.09086,-0.3155 0.176581,-1.0413 0.1905,-1.6129 0.02413,-0.98783 -0.02184,-1.05357 -0.927176,-1.32743 -1.043711,-0.31572 -6.312484,-3.74752 -9.562135,-6.22826 -11.7647716,-8.98108 -21.8590366,-19.6026 -32.201434,-33.88342 -0.631114,-0.87142 -1.240587,-1.50007 -1.35443,-1.397 -0.113817,0.10308 -0.136474,0.0635 -0.05034,-0.0879 0.08613,-0.15138 -0.58133,-1.40238 -1.483284,-2.77998 -0.901929,-1.37762 -1.639875,-2.60352 -1.639875,-2.72425 0,-0.12072 -0.09525,-0.16063 -0.211658,-0.0887 -0.116434,0.072 -0.217881,-0.007 -0.225451,-0.17551 -0.0076,-0.16848 -0.836244,-1.72751 -1.841449,-3.46451 -9.618854,-16.621282 -13.284434,-31.987142 -12.879964,-53.991818 0.17186,-9.348409 0.75062,-14.173403 2.62024,-21.844 2.74727,-11.271301 7.715381,-21.698392 14.220041,-29.8450004 2.110512,-2.643289 6.92145,-7.485624 9.494241,-9.556234 8.7207344,-7.0185456 18.4879494,-11.1653976 29.591,-12.5634216 2.826207,-0.355857 13.163067,-0.338818 17.272,0.02847 23.072674,2.062417 41.851758,17.73313163 50.30884,41.981595 1.869034,5.358943 3.167609,11.184634 4.228846,18.971593 0.510616,3.746744 0.570713,5.227599 0.566954,13.97 -0.0053,12.557303 -0.600152,18.642279 -2.648839,27.099694 C 83.59004,104.356 69.958673,125.90835 48.495241,147.62863 c -2.001698,2.02565 -3.618941,3.76873 -3.593872,3.8735 0.02515,0.10478 -0.04915,0.16193 -0.164896,0.127 -0.115748,-0.0349 -1.573073,1.20688 -3.2385,2.75958 -1.665428,1.55271 -4.456786,4.05316 -6.203036,5.55656 -2.552471,2.19748 -3.190875,2.88021 -3.255975,3.48196 -0.05664,0.52344 0.08654,0.89377 0.476148,1.23169 0.3064,0.26576 1.432687,1.31468 2.50284,2.33094 1.070127,1.01628 3.427628,3.21726 5.238852,4.8911 5.537809,5.11769 9.34024,8.90138 14.809774,14.73667 2.880767,3.0734 7.843012,8.20458 11.027258,11.40264 3.184221,3.19804 5.753024,5.8511 5.708473,5.89565 -0.04455,0.0446 -1.218921,-0.37572 -2.609698,-0.93396 -5.542686,-2.22478 -14.181938,-4.75099 -21.578672,-6.30984 -3.756914,-0.79177 -11.518976,-2.05349 -12.632969,-2.05349 h -0.659791 l -0.116586,43.4975 c -0.09052,33.78248 -0.207289,45.76671 -0.522706,53.6575 -0.223368,5.588 -0.581965,17.18945 -0.7969,25.781 -0.558952,22.34202 -1.358824,51.45512 -1.554455,56.5785 l -0.167335,4.3815 3.526384,-0.003 c 1.939493,0 5.983808,-0.11549 8.987358,-0.25491 z M 40.066594,179.939 c -1.436979,-1.64767 -4.403318,-5.06938 -6.591909,-7.60382 l -3.97924,-4.60807 -0.438455,0.93633 c -0.968477,2.06824 -5.047717,8.87427 -7.132244,11.89982 -0.373736,0.54247 -0.356387,0.55194 1.352296,0.7382 2.497023,0.27219 17.301896,1.55448 18.440552,1.5972 l 0.961644,0.0361 z m -8.454669,-20.59165 c 0.5588,-0.54117 2.143252,-2.05623 3.520999,-3.3668 2.150542,-2.04564 6.108751,-6.19041 9.320962,-9.76022 2.252522,-2.5033 8.498763,-10.24802 11.054283,-13.70625 C 70.074968,112.80173 77.789125,95.979538 80.142232,78.794728 80.688535,74.805002 80.920412,61.131369 80.529887,55.934732 79.476549,41.918131 76.011735,29.527337 70.67964,20.708368 63.211456,8.3565056 53.119324,0.95893063 40.501925,-1.4119944 c -3.278276,-0.616021 -13.449198,-0.602355 -17.018,0.02286 -5.568493,0.97554303 -9.938969,2.31320403 -14.2239996,4.353497 -7.48985,3.566249 -14.115567,10.7974664 -18.77568,20.4915644 -3.0705814,6.387518 -4.6292014,11.537048 -5.9811924,19.761193 -1.304798,7.937073 -1.613611,12.849966 -1.445971,23.004607 0.175819,10.651287 0.565404,14.358691 2.202027,20.955001 2.628469,10.59398 7.7400154,22.010442 15.7508964,35.179002 2.942031,4.83621 8.181137,12.74693 8.837346,13.34386 0.2357116,0.2144 0.4628636,0.5459 0.5047986,0.73665 0.09777,0.44483 6.654013,9.21283 10.030968,13.41488 2.715845,3.37945 9.440596,10.47667 9.928962,10.4789 0.156108,0 0.741045,-0.44148 1.299845,-0.98267 z"
       id="path378" /></g></svg>
