<?xml version="1.0" encoding="UTF-8" standalone="no"?>
<!-- Created with Inkscape (http://www.inkscape.org/) -->

<svg
   width="30.427076mm"
   height="216.10875mm"
   viewBox="0 0 30.427076 216.10875"
   version="1.1"
   id="svg5"
   xml:space="preserve"
   sodipodi:docname="Blue Origin rocket.svg"
   inkscape:version="1.2 (dc2aeda, 2022-05-15)"
   xmlns:inkscape="http://www.inkscape.org/namespaces/inkscape"
   xmlns:sodipodi="http://sodipodi.sourceforge.net/DTD/sodipodi-0.dtd"
   xmlns="http://www.w3.org/2000/svg"
   xmlns:svg="http://www.w3.org/2000/svg"><sodipodi:namedview
     id="namedview7"
     pagecolor="#ffffff"
     bordercolor="#000000"
     borderopacity="0.25"
     inkscape:showpageshadow="2"
     inkscape:pageopacity="0.0"
     inkscape:pagecheckerboard="0"
     inkscape:deskcolor="#d1d1d1"
     inkscape:document-units="mm"
     showgrid="false"
     inkscape:zoom="0.92532864"
     inkscape:cx="108.06971"
     inkscape:cy="465.24011"
     inkscape:window-width="1800"
     inkscape:window-height="1097"
     inkscape:window-x="0"
     inkscape:window-y="44"
     inkscape:window-maximized="0"
     inkscape:current-layer="layer1" /><defs
     id="defs2" /><g
     inkscape:label="Layer 1"
     inkscape:groupmode="layer"
     id="layer1"
     transform="translate(-83.451363,-62.551863)"><path
       style="fill:#000000;stroke-width:0.264583"
       d="m 88.90575,278.00969 c -0.364564,-0.5564 -0.427304,-1.62333 -0.427304,-7.26657 v -6.6144 l -2.513542,-6.81424 -2.513541,-6.81424 v -3.76124 -3.76124 l 3.307291,-9.04102 3.307292,-9.04102 V 195.74741 166.5991 l -2.257341,-2.24312 -2.25734,-2.24311 0.07453,-2.10745 0.07453,-2.10744 2.173155,-1.33214 2.173158,-1.33214 0.0097,-34.6018 c 0.0081,-28.91404 0.07534,-35.242055 0.409231,-38.496872 1.324806,-12.914347 4.611939,-20.295236 8.697301,-19.528817 3.17239,0.595146 5.76895,6.360951 7.21918,16.030613 0.40927,2.728835 0.47146,6.833547 0.60295,39.791406 l 0.14662,36.74869 2.11667,1.3126 c 1.16416,0.72193 2.20414,1.44908 2.31105,1.61589 0.10691,0.16681 0.19621,1.05378 0.19844,1.97104 l 0.004,1.66775 -2.38125,2.49961 -2.38125,2.49961 v 28.90192 28.90192 l 3.43958,9.45006 3.43958,9.45006 v 3.30782 3.30783 l -2.64583,7.18065 -2.64583,7.18066 v 6.72187 c 0,4.30485 -0.0951,6.72187 -0.26459,6.72187 -0.14552,0 -0.26458,0.17283 -0.26458,0.38407 0,0.31742 -0.64284,0.38407 -3.70417,0.38407 -3.3081,0 -3.70502,-0.0481 -3.71221,-0.45022 -0.007,-0.42269 -0.024,-0.4228 -0.26956,-0.003 -0.22512,0.386 -0.755635,0.44878 -3.8113,0.45114 -3.123748,0.003 -3.564027,-0.0514 -3.668493,-0.44844 -0.109209,-0.41503 -0.121171,-0.41408 -0.149407,0.0119 -0.02582,0.38942 -0.299218,0.46302 -1.720054,0.46302 -1.503593,0 -1.736349,-0.0717 -2.116667,-0.65214 z m 14.30615,-1.39804 c -2.59238,-0.0434 -6.759569,-0.0433 -9.260416,1.6e-4 -2.500849,0.0435 -0.379809,0.0789 4.71342,0.0788 5.093226,-8e-5 7.139376,-0.0356 4.546996,-0.079 z m -14.029059,-1.72013 c -0.0734,-0.1819 -0.133454,-0.0331 -0.133454,0.33073 0,0.3638 0.06006,0.51263 0.133454,0.33073 0.0734,-0.1819 0.0734,-0.47956 0,-0.66146 z m 18.610189,0.29474 c 0,-0.47167 -0.39834,-0.49318 -9.128126,-0.49318 -9.036264,0 -9.128125,0.006 -9.128125,0.54427 0,0.53981 0.0753,0.54388 9.128125,0.49321 8.711506,-0.0488 9.128126,-0.0736 9.128126,-0.5443 z m -18.588962,-7.17391 c -0.05022,-1.05503 -0.09131,-0.19182 -0.09131,1.91823 0,2.11005 0.04109,2.97326 0.09131,1.91823 0.05022,-1.05503 0.05022,-2.78143 0,-3.83646 z m 1.143529,5.22552 c 0.119081,0.29962 0.209328,-1.07773 0.208032,-3.175 -0.0013,-2.03729 -0.06684,-3.54187 -0.145725,-3.34348 -0.121094,0.30448 -0.179017,0.30448 -0.371935,0 -0.133906,-0.21138 -0.217475,1.17279 -0.201864,3.34348 0.01466,2.03729 0.08841,3.46604 0.163904,3.175 l 0.137263,-0.52916 z m -0.260762,-5.57829 c 0.0127,-0.30824 0.07539,-0.37092 0.15985,-0.15986 0.07643,0.191 0.06703,0.41921 -0.02088,0.50713 -0.08792,0.0879 -0.150453,-0.0684 -0.138965,-0.34727 z m 7.12286,2.40329 V 266.491 h -2.778124 -2.778125 v 3.57187 3.57188 h 2.778125 2.778124 z m 0.460785,-1.65364 c -0.05091,-0.98227 -0.09256,-0.1786 -0.09256,1.78593 0,1.96453 0.04165,2.76821 0.09256,1.78594 0.05091,-0.98226 0.05091,-2.58961 0,-3.57187 z m 0.848191,4.43177 c 0.03064,0.50932 0.120261,0.76374 0.199149,0.56536 0.121095,-0.30448 0.179017,-0.30448 0.371936,0 0.134016,0.21153 0.219273,-1.17102 0.206182,-3.34349 -0.01363,-2.26073 -0.104871,-3.44641 -0.234159,-3.04271 -0.185436,0.57902 -0.215122,0.59278 -0.23821,0.11026 -0.0145,-0.30319 -0.204967,-0.55124 -0.423249,-0.55124 -0.335007,0 -0.391445,0.56026 -0.362045,3.59394 0.02215,2.28518 0.105812,3.25671 0.229754,2.66788 l 0.194924,-0.92604 z m 0.375158,-2.51354 c 7.94e-4,-1.45521 0.04512,-2.01676 0.09874,-1.24791 0.05362,0.76888 0.05305,1.9595 -0.0013,2.64583 -0.05431,0.68636 -0.09817,0.0573 -0.09748,-1.39792 z m 6.782531,-0.26459 V 266.491 h -2.77812 -2.77813 v 3.57187 3.57188 h 2.77813 2.77812 z m 0.46127,-1.77435 c -0.0503,-1.0614 -0.0919,-0.26294 -0.0923,1.77435 -5.2e-4,2.03729 0.0408,2.90571 0.0915,1.92982 0.0508,-0.97592 0.0511,-2.64279 8e-4,-3.70417 z m 0.52917,0 c -0.0503,-1.0614 -0.0919,-0.26294 -0.0923,1.77435 -5.3e-4,2.03729 0.0408,2.90571 0.0915,1.92982 0.0508,-0.97592 0.0511,-2.64279 7.9e-4,-3.70417 z m 0.52917,0 c -0.0504,-1.0614 -0.0919,-0.26294 -0.0923,1.77435 -5.3e-4,2.03729 0.0408,2.90571 0.0915,1.92982 0.0508,-0.97592 0.0511,-2.64279 7.9e-4,-3.70417 z m 0.52916,0 c -0.0503,-1.0614 -0.0919,-0.26294 -0.0923,1.77435 -5.2e-4,2.03729 0.0408,2.90571 0.0915,1.92982 0.0508,-0.97592 0.0511,-2.64279 8e-4,-3.70417 z m -7.93866,-0.14388 C 99.73396,267.3079 99.691,267.99251 99.691,269.666 c 0,1.67349 0.04296,2.3581 0.09547,1.52135 0.05251,-0.83674 0.05251,-2.20596 0,-3.04271 z m -10.603629,-3.57187 c -0.0734,-0.1819 -0.133454,-0.0331 -0.133454,0.33073 0,0.3638 0.06006,0.51263 0.133454,0.33073 0.0734,-0.18191 0.0734,-0.47956 0,-0.66146 z m 18.610189,0.33073 c 0,-0.51896 -0.17639,-0.52917 -9.128126,-0.52917 -8.951735,0 -9.128125,0.0103 -9.128125,0.52917 0,0.51895 0.17639,0.52916 9.128125,0.52916 8.951736,0 9.128126,-0.0103 9.128126,-0.52916 z m -4.67955,-0.99164 c -2.35547,-0.0438 -6.284536,-0.0439 -8.731252,-1.8e-4 -2.446715,0.0437 -0.519512,0.0796 4.282676,0.0796 4.802186,10e-5 6.804046,-0.0356 4.448576,-0.0795 z m 4.28267,-1.95836 c 0,-0.82214 -0.0781,-1.44711 -0.17357,-1.38883 -0.24123,0.1473 -0.5745,-2.45073 -0.35908,-2.79929 0.0963,-0.15584 0.077,-0.26627 -0.043,-0.24545 -0.51217,0.089 -0.58713,-0.0636 -0.34464,-0.70133 0.17013,-0.44752 0.16792,-0.6214 -0.007,-0.51356 -0.14509,0.0897 -0.26379,-0.0811 -0.26379,-0.37941 0,-0.53576 -0.0937,-0.54163 -7.606769,-0.47863 l -7.60677,0.0638 -0.08415,0.7321 c -0.05122,0.44556 -0.196654,0.66254 -0.37161,0.55441 -0.175609,-0.10853 -0.211068,-0.0541 -0.09113,0.14002 0.294262,0.47611 -0.107579,2.97463 -0.444889,2.76616 -0.168822,-0.10432 -0.202395,-0.0469 -0.08428,0.14425 0.266067,0.43051 -0.102595,2.97773 -0.404009,2.79144 -0.281363,-0.17389 -0.299474,-0.0513 -0.07778,0.52638 0.144531,0.37664 1.118531,0.4145 9.061978,0.35238 l 8.900029,-0.0696 z m -17.397647,-19.65698 -0.06485,-12.94969 -1.924486,6.86427 -1.924487,6.86427 -0.0069,3.70417 c -0.0067,3.59192 0.03562,3.87654 1.39532,9.39271 l 1.402183,5.68854 0.594016,-3.30729 c 0.569579,-3.17122 0.591349,-3.84005 0.529167,-16.25698 z m 19.878267,13.21874 c 1.284,-5.13231 1.35534,-5.59849 1.34633,-8.7974 l -0.01,-3.37791 -2.08615,-7.27604 -2.08616,-7.27604 -0.021,12.81674 c -0.0196,11.985 0.0159,13.02807 0.54809,16.07343 0.313,1.79118 0.65537,3.25671 0.76083,3.25671 0.10546,0 0.80187,-2.43877 1.54758,-5.41949 z m -23.036923,0.78227 c -0.08146,-0.0814 -0.229407,0.0654 -0.328766,0.32633 -0.143584,0.37709 -0.113194,0.40746 0.148114,0.14812 0.180821,-0.1795 0.262114,-0.39299 0.180652,-0.47445 z m 23.964553,-0.53589 c 0.0904,-0.23548 0.046,-0.34168 -0.10398,-0.24897 -0.14386,0.0889 -0.26156,0.27368 -0.26156,0.4106 0,0.38058 0.18965,0.29673 0.36554,-0.16163 z m -24.442621,-1.44148 c 0,-0.14552 -0.12609,-0.26458 -0.280199,-0.26458 -0.154109,0 -0.206613,0.11906 -0.116676,0.26458 0.08994,0.14552 0.216027,0.26459 0.280199,0.26459 0.06417,0 0.116676,-0.11907 0.116676,-0.26459 z m 4.416687,-0.72257 c -0.06708,-0.25743 -0.126381,-0.11086 -0.131773,0.3257 -0.0054,0.43656 0.04949,0.64718 0.12197,0.46805 0.07247,-0.17913 0.07688,-0.53631 0.0098,-0.79375 z m 5.372896,0.72257 c 0.352777,-0.22798 0.352777,-0.25834 0,-0.27324 -0.218281,-0.009 -0.02492,-0.2194 0.42967,-0.46707 4.415638,-2.40569 4.655578,-2.81903 1.511599,-2.60389 -1.699665,0.1163 -3.528769,0.65109 -3.528769,1.03172 0,0.12488 -0.111114,0.15837 -0.246922,0.0744 -0.135806,-0.0839 -0.909545,0.1174 -1.719421,0.44741 -1.28429,0.52332 -1.472549,0.69301 -1.472872,1.32761 l -3.68e-4,0.72761 2.315104,-0.004 c 1.273307,-0.002 2.493698,-0.11947 2.711979,-0.26053 z m 9.948578,-0.43545 c -0.024,-0.63027 -0.27582,-0.80003 -2.52609,-1.70327 -1.37467,-0.55178 -2.61896,-0.92934 -2.7651,-0.83902 -0.16629,0.10277 -0.14683,0.20383 0.052,0.27011 0.17473,0.0582 0.3177,0.32908 0.3177,0.60186 0,0.59497 -2.018824,1.85115 -3.412422,2.12333 -0.535276,0.10455 1.088599,0.19951 3.703702,0.2166 l 4.65691,0.0304 z m 5.49294,0.0386 c -0.16594,-0.43242 -0.62485,-0.54577 -0.62485,-0.15434 0,0.20082 0.18543,0.33753 0.7193,0.53032 0.0318,0.0115 -0.0107,-0.1577 -0.0945,-0.37598 z m -25.495684,-0.40957 c 0,-0.12136 -0.12718,-0.29926 -0.28262,-0.39533 -0.155443,-0.0961 -0.212921,-0.35631 -0.127728,-0.57832 0.08519,-0.222 0.01921,-0.56715 -0.14665,-0.76698 -0.165852,-0.19984 -0.212858,-0.36334 -0.10446,-0.36334 0.108397,0 0.08285,-0.14883 -0.05677,-0.33073 -0.425399,-0.55422 -0.379592,-7.73475 0.05468,-8.57182 0.204536,-0.39424 0.308195,-0.81985 0.230355,-0.9458 -0.07784,-0.12595 -0.01016,-0.38729 0.150397,-0.58075 0.160559,-0.19346 0.210108,-0.56497 0.110106,-0.82556 -0.124833,-0.32532 -0.0848,-0.41386 0.127728,-0.28251 0.281445,0.17394 0.464849,-0.53904 0.326911,-1.27088 -0.02492,-0.13219 0.106368,-0.33407 0.291735,-0.44863 0.185369,-0.11457 0.234883,-0.30407 0.110035,-0.42113 -0.124847,-0.11705 -0.280398,-0.0633 -0.345663,0.11956 -0.06527,0.18281 -0.216458,0.27194 -0.335978,0.19807 -0.11952,-0.0739 -0.150127,0.1226 -0.06802,0.4366 0.111223,0.42532 0.06077,0.51619 -0.197844,0.35636 -0.230577,-0.1425 -0.28343,-0.11146 -0.157404,0.0925 0.222076,0.35933 -0.377777,2.18401 -0.660529,2.00926 -0.105519,-0.0652 -0.124667,0.13834 -0.04256,0.45234 0.111223,0.42532 0.06077,0.51619 -0.197845,0.35636 -0.224814,-0.13894 -0.283268,-0.11119 -0.165875,0.0788 0.263065,0.42565 -0.104383,1.66876 -0.433194,1.46555 -0.178197,-0.11014 -0.1963,-0.0404 -0.05067,0.19525 0.28076,0.45428 0.263507,6.14771 -0.02003,6.60647 -0.143163,0.23164 -0.100018,0.26836 0.140592,0.11966 0.258617,-0.15984 0.309067,-0.069 0.197845,0.35636 -0.08211,0.314 -0.06296,0.51755 0.04256,0.45233 0.282752,-0.17475 0.882605,1.64994 0.66053,2.00926 -0.126027,0.20392 -0.07317,0.23497 0.157403,0.0925 0.256828,-0.15873 0.309671,-0.0713 0.203118,0.33619 -0.103603,0.39618 -0.04104,0.51123 0.222903,0.40994 0.201819,-0.0774 0.366938,-0.24009 0.366938,-0.36146 z m 13.304107,-0.42541 c 0.759147,-0.38647 1.233177,-0.753 1.053397,-0.81451 -0.17978,-0.0615 -0.674411,0.13564 -1.099178,0.4381 -0.424768,0.30246 -0.895729,0.54993 -1.046575,0.54993 -0.15085,0 -0.347856,0.11906 -0.437793,0.26458 -0.250772,0.40576 0.0311,0.32506 1.530149,-0.4381 z m 12.846097,-1.04402 c 0.23818,0.1472 0.28978,-0.37356 0.51266,-5.17407 0.10579,-2.27846 0.12467,-4.1005 0.042,-4.04898 -0.25368,0.15801 -0.82126,-1.707 -0.61905,-2.03417 0.12602,-0.20391 0.0732,-0.23496 -0.15741,-0.0925 -0.25861,0.15984 -0.30906,0.069 -0.19784,-0.35636 0.0821,-0.31399 0.0509,-0.51011 -0.0693,-0.43581 -0.30955,0.19132 -0.87007,-1.64155 -0.62613,-2.04742 0.1447,-0.24074 0.0759,-0.23372 -0.24286,0.0248 -0.24461,0.19839 -0.36444,0.49066 -0.26627,0.64949 0.0982,0.15883 0.21796,0.65136 0.26622,1.0945 0.0483,0.44315 0.2055,0.84565 0.34943,0.89446 0.14392,0.0488 0.20485,0.18069 0.1354,0.29306 -0.0694,0.11238 -0.008,0.60822 0.1357,1.10188 0.20925,0.71698 0.39548,8.29499 0.23011,9.36424 -0.0225,0.14552 -0.0226,0.36641 -2.6e-4,0.49087 0.0223,0.12445 -0.0929,0.38713 -0.25603,0.58372 -0.16315,0.19659 -0.20506,0.50561 -0.0931,0.68672 0.13869,0.2244 0.27956,0.10116 0.44225,-0.38693 0.13131,-0.39392 0.31787,-0.66732 0.41458,-0.60755 z m -5.44737,-16.57583 c 0.0368,-4.62036 -0.0223,-8.40059 -0.13148,-8.40052 -0.10914,8e-5 -0.1716,5.86397 -0.1388,13.03087 0.0328,7.1669 0.092,10.94713 0.13148,8.40052 0.0395,-2.54662 0.10197,-8.4105 0.1388,-13.03087 z m -0.5945,-35.1233 v -52.3875 h -7.540626 -7.540625 v 52.28352 c 0,41.72647 0.06678,52.25472 0.330729,52.14093 4.072911,-1.75595 4.538811,-1.87797 7.209896,-1.88823 2.553586,-0.01 2.728856,0.0281 5.027086,1.08786 1.30968,0.60392 2.41101,1.10993 2.44739,1.12448 0.0364,0.0145 0.0661,-23.54793 0.0661,-52.36106 z m -9.210954,28.65308 c 0.07833,-0.94958 0.140311,-1.01286 1.141161,-1.16501 l 1.058333,-0.16089 -1.143878,-0.0375 c -0.935929,-0.0307 -1.127879,-0.12172 -1.055857,-0.50057 0.06778,-0.35655 0.4015,-0.48122 1.451298,-0.54218 1.939697,-0.11264 2.045077,-0.71459 0.125098,-0.71459 -1.183468,0 -1.500918,-0.0907 -1.57102,-0.44861 -0.07194,-0.36738 0.166712,-0.46632 1.317837,-0.54637 l 1.405689,-0.0978 -1.402265,-0.0489 -1.402268,-0.0489 0.07935,-1.50045 c 0.08534,-1.61371 0.568116,-2.15138 0.988949,-1.1014 0.18369,0.45831 0.251807,0.49813 0.264253,0.15445 0.02074,-0.57268 1.075105,-0.63755 1.075105,-0.0661 0,0.21828 0.119062,0.39687 0.264583,0.39687 0.145521,0 0.264584,-0.24685 0.264584,-0.54856 0,-0.37951 0.142695,-0.52151 0.463022,-0.46076 0.54956,0.10422 0.77589,1.39897 0.337,1.92781 -0.1837,0.22134 -0.19972,0.41716 -0.0421,0.51457 0.13994,0.0865 0.26036,0.93052 0.26762,1.87564 0.0106,1.37389 -0.0682,1.71839 -0.39278,1.71839 -0.35498,0 -0.35194,0.054 0.0242,0.43013 0.23795,0.23795 0.39417,0.74038 0.34963,1.12448 -0.0777,0.67045 -0.14708,0.69703 -2.015421,0.77242 l -1.934914,0.0781 0.08283,-1.00411 z m 2.40157,-3.70391 c -0.325422,-0.0628 -0.920734,-0.0644 -1.322917,-0.004 -0.402182,0.0608 -0.135929,0.1122 0.591675,0.11419 0.727604,0.002 1.056663,-0.0478 0.731242,-0.11058 z m 0.904704,-2.77378 c -0.0845,-0.21106 -0.14715,-0.14837 -0.15985,0.15986 -0.0115,0.27891 0.051,0.43518 0.13897,0.34726 0.0879,-0.0879 0.0973,-0.31612 0.0209,-0.50712 z m -3.134985,-2.39778 c -0.0241,-0.18191 -0.06259,-2.74175 -0.08551,-5.68855 l -0.04168,-5.35781 h 1.937596 c 1.564029,0 1.937599,0.0782 1.937599,0.4054 0,0.22297 -0.26789,0.51308 -0.59531,0.64469 l -0.595317,0.23929 0.595317,0.0168 c 0.33677,0.01 0.59531,0.18388 0.59531,0.40156 0,0.28951 -0.44219,0.4077 -1.78594,0.47735 l -1.785937,0.0925 1.730441,0.0518 1.730446,0.0518 0.01,3.30729 0.01,3.30729 -0.68178,0.0264 -0.681773,0.0264 0.661463,0.18291 c 0.74555,0.20616 1.0233,1.15331 0.51708,1.76328 -0.41166,0.49602 -3.406536,0.54052 -3.471332,0.0516 z m 3.129975,-1.1067 c -0.11769,-0.3067 -0.488492,-0.40224 -1.424196,-0.36697 l -1.265074,0.0477 1.283552,0.10019 c 1.150178,0.0898 1.268568,0.15752 1.139288,0.65189 -0.103047,0.39403 -0.06285,0.47027 0.14064,0.26677 0.1567,-0.1567 0.21331,-0.47151 0.12579,-0.69957 z m -0.24738,-1.36826 c -0.08793,-0.0879 -0.316129,-0.0973 -0.507124,-0.0209 -0.211066,0.0845 -0.148373,0.14716 0.159853,0.15985 0.278913,0.0115 0.435181,-0.051 0.347271,-0.13896 z m -0.523661,-2.41091 c -0.400182,-0.0606 -1.055026,-0.0606 -1.455208,0 -0.400182,0.0606 -0.07276,0.11023 0.727604,0.11023 0.800365,0 1.127787,-0.0496 0.727604,-0.11023 z m 0.573261,-4.4056 c -0.0606,-0.0534 -0.58649,-0.16971 -1.168573,-0.25834 -0.737605,-0.11231 -0.897969,-0.0885 -0.529167,0.0786 0.507924,0.23012 1.92507,0.38016 1.69774,0.17974 z m -0.242531,-1.12174 c 0,-0.0572 -0.178594,-0.10398 -0.396875,-0.10398 -0.218282,0 -0.396875,0.11532 -0.396875,0.25628 0,0.14095 0.178593,0.18774 0.396875,0.10398 0.218281,-0.0838 0.396875,-0.19909 0.396875,-0.25628 z m -1.251736,-0.27753 c -0.179131,-0.0725 -0.536318,-0.0769 -0.79375,-0.01 -0.257432,0.0671 -0.110868,0.12638 0.325694,0.13177 0.436563,0.005 0.647187,-0.0495 0.468056,-0.12197 z m -3.665654,-3.62639 c -0.07605,-0.1982 -0.102081,-1.0614 -0.05784,-1.91823 l 0.08044,-1.55787 3.638021,-0.0736 3.63802,-0.0736 v 1.99184 1.99184 h -3.580177 c -2.777048,0 -3.6112,-0.0808 -3.718462,-0.36035 z m 0.944589,-0.76412 c 0.003,0.24208 0.70744,0.33072 2.628244,0.33072 1.443307,0 2.812528,-0.0723 3.042708,-0.16059 0.49637,-0.19048 0.562,-1.32459 0.0878,-1.51701 -0.24889,-0.10099 -0.23252,-0.20365 0.0662,-0.41487 0.29491,-0.20856 -0.1,-0.28171 -1.53697,-0.28472 -1.063614,-0.002 -1.881264,0.0852 -1.817002,0.19438 0.06426,0.10914 0.01558,0.46633 -0.108151,0.79375 -0.192252,0.50869 -0.418732,0.59531 -1.556435,0.59531 -1.093195,0 -1.330717,0.0829 -1.327391,0.46303 0.0035,0.39569 0.04134,0.40531 0.260532,0.0661 0.170987,-0.26458 0.257832,-0.28663 0.260533,-0.0661 z m 1.591551,-1.78594 c 0,-0.41158 -0.17639,-0.52917 -0.79375,-0.52917 -0.61736,0 -0.79375,0.11759 -0.79375,0.52917 0,0.41157 0.17639,0.52916 0.79375,0.52916 0.61736,0 0.79375,-0.11759 0.79375,-0.52916 z m 0.610089,-9.52778 c -0.652931,-0.26298 -0.73311,-1.44623 -0.123531,-1.82297 0.281524,-0.17399 0.268078,-0.24931 -0.0675,-0.37809 -0.236371,-0.0907 -0.41906,-0.46624 -0.41906,-0.86143 0,-0.59745 0.08766,-0.67712 0.595312,-0.54108 0.327422,0.0877 0.744141,0.16117 0.926042,0.16315 0.190286,0.002 0.330729,0.34068 0.330729,0.79736 0,0.5765 -0.12673,0.79596 -0.463021,0.8018 -0.440973,0.008 -0.440973,0.0209 0,0.27773 0.275408,0.16041 0.463021,0.58598 0.463021,1.05029 0,0.81699 -0.240784,0.91649 -1.241994,0.51324 z m -0.0195,-3.97596 c -0.468778,-0.18831 -0.586173,-0.42288 -0.536686,-1.07237 0.07285,-0.95603 0.463892,-1.20061 1.248336,-0.78079 0.394317,0.21103 0.549841,0.55357 0.549841,1.211 0,0.96323 -0.203864,1.067 -1.261491,0.64216 z m -0.143846,-3.10991 c -0.245708,-0.2715 -0.446743,-0.70017 -0.446743,-0.9526 0,-0.35841 0.188375,-0.44078 0.859896,-0.37604 0.759666,0.0733 0.859895,0.17501 0.859895,0.87304 0,0.94974 -0.623816,1.17299 -1.273045,0.4556 z m 0.876173,-0.15909 c 0,-0.0572 -0.184777,-0.17489 -0.410617,-0.26155 -0.235458,-0.0904 -0.341662,-0.046 -0.248968,0.10398 0.155379,0.25141 0.659585,0.37186 0.659585,0.15757 z m -0.941202,-1.85876 c -0.611449,-0.4471 -0.524034,-0.56244 0.610473,-0.80549 0.79551,-0.17043 0.859896,-0.13312 0.859896,0.49826 0,0.78357 -0.636931,0.91666 -1.470369,0.30723 z m -0.06421,-1.79434 c -0.500981,-0.50098 -0.385914,-1.27 0.190026,-1.27 0.909018,0 1.344557,0.30914 1.344557,0.95435 0,0.48429 -0.143073,0.63315 -0.608542,0.63315 -0.334698,0 -0.751416,-0.14287 -0.926041,-0.3175 z m 0.0263,-1.86531 c -0.137591,-0.1819 -0.263834,-0.59862 -0.280535,-0.92604 -0.02246,-0.44032 0.120349,-0.59997 0.548503,-0.61322 l 0.578868,-0.0179 -0.595312,-0.28711 c -0.360265,-0.17375 -0.595313,-0.52614 -0.595313,-0.89252 0,-0.76036 0.320268,-0.96374 1.178457,-0.74835 0.551963,0.13854 0.673627,0.32716 0.673627,1.04438 0,0.48143 -0.148829,0.93537 -0.33073,1.00877 -0.264583,0.10676 -0.264583,0.13763 0,0.15434 0.186447,0.0118 0.33073,0.36716 0.33073,0.81464 0,0.65937 -0.106493,0.79375 -0.629063,0.79375 -0.345983,0 -0.741638,-0.14883 -0.879232,-0.33073 z m 0.805847,-0.34214 c -0.08617,-0.22456 -0.213421,-0.35154 -0.282773,-0.28219 -0.06936,0.0694 -0.04762,0.25309 0.0483,0.40829 0.260893,0.42213 0.41338,0.34013 0.234473,-0.1261 z m -0.05847,-2.3081 c -0.261308,-0.25936 -0.291698,-0.22897 -0.148114,0.14811 0.09936,0.26094 0.247303,0.40778 0.328766,0.32632 0.08146,-0.0815 1.69e-4,-0.29496 -0.180652,-0.47443 z m -0.665983,-11.98963 c -0.08834,-0.23018 -0.16061,-2.66123 -0.16061,-5.40232 0,-2.74109 0.07227,-5.17213 0.160599,-5.40232 0.08833,-0.23018 0.445516,-0.41851 0.79375,-0.41851 h 0.633151 v 5.82083 5.82084 h -0.633151 c -0.348234,0 -0.705421,-0.18833 -0.79375,-0.41852 z m 12.604143,70.66539 c -0.0695,-0.3638 -0.21511,-0.66145 -0.32349,-0.66145 -0.10838,0 -0.14015,0.29765 -0.0706,0.66145 0.0695,0.36381 0.21512,0.66146 0.32349,0.66146 0.10838,0 0.14015,-0.29765 0.0706,-0.66146 z m -23.480378,0.1323 c 0.08994,-0.14553 0.03743,-0.26459 -0.116675,-0.26459 -0.15411,0 -0.280199,0.11906 -0.280199,0.26459 0,0.14552 0.0525,0.26458 0.116675,0.26458 0.06417,0 0.190262,-0.11906 0.280199,-0.26458 z m 22.960378,-1.598 c -0.0776,-0.29681 -0.20024,-0.48054 -0.2725,-0.40828 -0.14314,0.14313 0.10969,0.94794 0.2978,0.94794 0.0637,0 0.0523,-0.24285 -0.0253,-0.53966 z m -22.18296,-1.18013 c 0.150966,-0.78115 0.14801,-0.77986 -0.18627,0.0816 -0.186817,0.48147 -0.445105,0.77912 -0.573973,0.66146 -0.133287,-0.1217 -0.146106,-0.0614 -0.02973,0.13985 0.270344,0.46752 0.600237,0.0988 0.789975,-0.88295 z m 21.94541,-0.0137 c 0.0904,-0.23546 0.046,-0.34166 -0.10398,-0.24897 -0.14386,0.0889 -0.26156,0.27369 -0.26156,0.41062 0,0.38058 0.18965,0.29672 0.36554,-0.16165 z m -3.07755,-53.08106 c -0.0389,-8.0512 -0.0707,-1.54167 -0.0707,14.46562 -1e-5,16.00729 0.0318,22.59464 0.0707,14.63855 0.0389,-7.95609 0.0389,-21.05296 2e-5,-29.10417 z m -0.001,-22.77448 c -0.048,-1.34607 -0.0873,-0.24474 -0.0873,2.44739 0,2.69214 0.0393,3.79347 0.0873,2.4474 0.048,-1.34607 0.048,-3.54873 0,-4.89479 z m -17.130413,6.58083 c 0,-0.0549 -0.208359,-0.2633 -0.463021,-0.46302 -0.419645,-0.32911 -0.429003,-0.31975 -0.0999,0.0999 0.345644,0.44073 0.562917,0.58088 0.562917,0.36312 z m 18.866673,-1.85574 c 1.12055,-1.52611 1.24166,-1.83174 1.24166,-3.13358 0,-1.40592 -0.0336,-1.47085 -1.32292,-2.55803 l -1.32291,-1.1155 v 4.24908 c 0,2.33699 0.0366,4.24908 0.0813,4.24908 0.0447,0 0.64,-0.76097 1.32291,-1.69105 z m -18.392524,-4.58705 -0.07727,-2.04477 -1.124479,1.01723 c -1.086575,0.98293 -1.124479,1.0711 -1.124479,2.61564 0,1.47516 0.08671,1.71096 1.124479,3.05791 l 1.124479,1.4595 0.07727,-2.03037 c 0.0425,-1.1167 0.0425,-2.95052 0,-4.07514 z m 20.742424,2.439 c -0.14578,-1.24868 -0.57889,-1.18363 -0.45803,0.0688 0.0812,0.84117 -0.0516,1.15327 -0.87231,2.05052 l -0.96806,1.05833 1.2031,-1.12712 c 1.06246,-0.99536 1.1905,-1.23506 1.0953,-2.05052 z m -0.12738,-2.22915 c -0.0302,-0.41764 -0.14541,-0.7036 -0.25613,-0.63545 -0.11073,0.0682 -0.17533,0.46503 -0.14356,0.88196 0.0318,0.41692 0.14703,0.70288 0.25614,0.63545 0.1091,-0.0674 0.1737,-0.46431 0.14355,-0.88196 z m -23.735054,-0.44257 c 0,-0.21898 -0.51375,-0.34281 -0.631537,-0.15222 -0.07641,0.12364 0.03442,0.2248 0.246301,0.2248 0.211878,0 0.385236,-0.0327 0.385236,-0.0726 z m 19.775854,-8.62505 c -0.0503,-1.06139 -0.0919,-0.26293 -0.0923,1.77436 -5.3e-4,2.0373 0.0408,2.90571 0.0915,1.92981 0.0508,-0.9759 0.0511,-2.64278 7.9e-4,-3.70417 z m -0.46127,-13.45948 v -10.07447 l -0.61643,0.74791 c -0.33903,0.41135 -0.68982,0.94933 -0.77953,1.19551 -0.0897,0.24618 -0.49692,0.65899 -0.90493,0.91734 -0.408,0.25836 -1.00402,0.74155 -1.3245,1.07375 -0.32047,0.33221 -0.89779,0.60401 -1.28293,0.60401 -0.93258,0 -2.453636,0.74188 -2.783055,1.35741 -0.145608,0.27207 -0.442886,0.49468 -0.660615,0.49468 -0.217728,0 -0.460218,0.16769 -0.538869,0.37265 -0.07865,0.20495 -0.483076,0.51351 -0.898726,0.68568 -0.415649,0.17217 -0.819255,0.47859 -0.896905,0.68094 -0.07765,0.20234 -0.621983,0.44478 -1.209636,0.53875 -0.587652,0.094 -1.068458,0.2747 -1.068458,0.40163 0,0.44973 -0.734738,0.22243 -1.110547,-0.34357 -0.845446,-1.27331 -1.00612,-0.37629 -1.00612,5.61703 v 5.80522 h 7.540625 7.540626 z m 0.46275,-5.1877 c -0.0427,-2.88367 -0.0778,-0.5996 -0.0779,5.07571 -8e-5,5.67531 0.0349,8.03468 0.0777,5.24304 0.0428,-2.79164 0.0429,-7.43508 1.3e-4,-10.31875 z m -12.104418,2.70466 c 0,-0.22534 0.428935,-0.50218 1.028007,-0.66349 0.683829,-0.18414 1.076449,-0.46206 1.172697,-0.83012 0.114382,-0.43739 0.04373,-0.5269 -0.337259,-0.42727 -0.576776,0.15083 -0.884796,-0.0272 -1.272138,-0.73515 -0.276659,-0.50567 -0.301797,-0.49686 -0.566153,0.19843 -0.330023,0.86801 -0.818904,0.96015 -0.818904,0.15434 0,-0.31529 -0.08572,-0.48754 -0.190489,-0.38277 -0.10477,0.10477 -0.194067,0.45204 -0.198438,0.7717 -0.0058,0.42707 -0.148285,0.56193 -0.537114,0.50848 -0.492152,-0.0676 -0.495988,-0.0524 -0.05485,0.21791 0.371293,0.22751 0.683641,0.16713 1.438032,-0.27797 0.530045,-0.31273 0.823651,-0.39984 0.652457,-0.19356 -0.171191,0.20627 -0.242562,0.44374 -0.158602,0.5277 0.08396,0.084 -0.08001,0.27718 -0.364381,0.42937 -0.284372,0.15219 -0.587089,0.20666 -0.672709,0.12104 -0.08562,-0.0856 -0.345421,-0.0829 -0.577344,0.006 -0.349581,0.13414 -0.362842,0.22848 -0.07755,0.55179 0.451228,0.51136 1.534742,0.5279 1.534742,0.0234 z m -0.125291,-1.14973 c -0.08146,-0.0815 -0.294954,-1.6e-4 -0.474432,0.18066 -0.25936,0.2613 -0.22897,0.29169 0.148114,0.14811 0.260937,-0.0994 0.407781,-0.2473 0.326318,-0.32877 z m -1.692132,-1.515 c 0.473708,-0.65963 1.00207,-1.1453 1.174136,-1.07927 0.172064,0.066 0.444175,-0.16819 0.604687,-0.52047 0.160512,-0.35229 0.471977,-0.64052 0.692145,-0.64052 0.220168,0 0.549015,-0.23813 0.730774,-0.52917 0.373626,-0.59827 0.887103,-0.69207 1.086286,-0.19844 0.0734,0.18191 0.142851,-0.17528 0.15434,-0.79375 0.02082,-1.12096 0.388524,-1.44476 0.974849,-0.85843 0.279828,0.27983 1.427289,-0.58047 1.427289,-1.0701 0,-0.13985 0.166259,-0.25428 0.369467,-0.25428 0.203208,0 0.727408,-0.40767 1.164888,-0.90594 1.0184,-1.15989 2.01182,-1.66561 3.71594,-1.89167 l 1.36429,-0.18098 v -4.46383 -4.46383 h -7.540626 -7.540625 v 9.34861 c 0,5.14174 0.07937,9.42799 0.17639,9.525 0.342056,0.34206 0.593026,0.16449 1.44577,-1.02293 z m 4.323173,-0.42 c -0.134118,0.24708 -0.07937,0.3219 0.169399,0.23151 0.202158,-0.0734 0.339344,-0.26283 0.304861,-0.42086 -0.03449,-0.15802 0.501296,-0.67239 1.190625,-1.14304 0.689327,-0.47064 1.089917,-0.65389 0.890199,-0.40721 -0.199721,0.24668 -0.247939,0.44851 -0.107154,0.44851 0.347869,0 1.169678,-0.93221 0.984788,-1.11709 -0.0815,-0.0815 0.23744,-0.42263 0.70866,-0.75817 0.47121,-0.33553 0.7687,-0.46759 0.66107,-0.29345 -0.25393,0.41088 0.16527,0.41024 0.57639,-7.9e-4 0.17462,-0.17463 0.3175,-0.24226 0.3175,-0.15031 0,0.092 -0.37869,0.43684 -0.84153,0.76641 -0.46284,0.32957 -0.74392,0.44129 -0.62463,0.24828 0.14037,-0.22713 0.10355,-0.31317 -0.10436,-0.24386 -0.17669,0.0589 -0.28256,0.1809 -0.23527,0.27113 0.14251,0.27185 -0.85771,1.24058 -2.074697,2.00939 -0.63011,0.39806 -1.145868,0.81305 -1.146127,0.92219 -7.94e-4,0.35792 0.565097,0.20821 1.250246,-0.33073 0.378216,-0.29751 1.073358,-0.52917 1.587858,-0.52917 0.68365,0 0.94913,-0.13003 1.04956,-0.51405 0.08,-0.30586 0.45926,-0.5854 0.93649,-0.69022 0.59248,-0.13013 0.70644,-0.23673 0.43612,-0.40794 -0.28205,-0.17863 -0.24463,-0.23696 0.16321,-0.25441 l 0.52917,-0.0226 -0.52917,-0.20854 c -0.46114,-0.18173 -0.41729,-0.23336 0.34116,-0.4016 0.71855,-0.15938 0.84088,-0.28582 0.70148,-0.72502 -0.13981,-0.44051 -0.0781,-0.50316 0.3592,-0.36438 0.40671,0.12908 0.65654,-0.0403 1.08739,-0.73748 0.55925,-0.90488 0.60999,-1.564 0.17421,-2.26303 -0.1586,-0.25441 -0.13532,-0.31207 0.0738,-0.18282 0.16801,0.10384 0.30547,0.12642 0.30547,0.0502 0,-0.0762 -0.23545,-0.2646 -0.52321,-0.41861 -0.44529,-0.23831 -0.49702,-0.21015 -0.34734,0.18913 0.15206,0.40561 0.11744,0.42165 -0.2556,0.11841 -0.37298,-0.30318 -0.42606,-0.27876 -0.39149,0.18011 0.022,0.29196 0.11679,0.48337 0.21067,0.42535 0.0939,-0.058 0.37834,0.0464 0.63216,0.23196 0.42298,0.30929 0.3841,0.39648 -0.46605,1.04491 -0.71979,0.54901 -0.9132,0.6098 -0.86353,0.27139 0.0352,-0.23985 0.27803,-0.4675 0.53961,-0.50589 0.65397,-0.096 1.08359,-0.55811 0.47733,-0.51345 -0.26238,0.0193 -0.6238,0.12584 -0.80314,0.23668 -0.52871,0.32676 -0.86814,-0.0735 -0.71077,-0.83811 0.13997,-0.68004 0.12545,-0.67427 -0.32975,0.13109 -0.35507,0.6282 -0.579,0.78463 -0.88044,0.61504 -0.4205,-0.23655 -2.03636,1.10621 -3.432201,2.85211 -0.363802,0.45504 -0.795708,0.83238 -0.959792,0.83854 -0.164082,0.006 -0.446551,0.1898 -0.627708,0.40808 -0.181158,0.21829 -0.540184,0.39688 -0.797841,0.39688 -0.257654,0 -0.540731,0.18833 -0.62906,0.41851 -0.257876,0.67202 -0.185428,1.43357 0.13638,1.43357 0.185592,0 0.210402,0.12874 0.06615,0.34323 -0.126958,0.18877 0.05012,0.0399 0.393517,-0.33073 0.343392,-0.37068 0.535178,-0.50968 0.426191,-0.3089 z m 6.049108,-4.32216 c 0,-0.21189 0.10116,-0.32272 0.22481,-0.2463 0.12364,0.0764 0.1563,0.24976 0.0726,0.38523 -0.21395,0.34618 -0.29739,0.3072 -0.29739,-0.13893 z m -4.321525,3.56023 c 0.363802,-0.28457 0.561176,-0.52004 0.438608,-0.52328 -0.122568,-0.003 -0.525579,0.23224 -0.895577,0.52328 -0.369999,0.29104 -0.567373,0.52652 -0.438608,0.52328 0.128765,-0.003 0.531775,-0.23871 0.895577,-0.52328 z m 7.869915,-14.48594 c -0.0485,-1.2733 -0.0882,-0.23151 -0.0882,2.31511 0,2.54661 0.0397,3.58841 0.0882,2.3151 0.0485,-1.2733 0.0485,-3.3569 0,-4.63021 z m -0.8801,-2.87257 c 0.23019,-0.0883 0.41852,-0.44552 0.41852,-0.79375 v -0.63316 h -7.540626 -7.540625 v 0.61736 c 0,0.33956 0.07937,0.69674 0.17639,0.79375 0.220419,0.22043 13.914191,0.23535 14.486341,0.0158 z m -15.008544,-1.09114 c -0.06708,-0.25743 -0.126381,-0.11087 -0.131773,0.32569 -0.0054,0.43657 0.04949,0.64719 0.12197,0.46806 0.07247,-0.17913 0.07688,-0.53632 0.0098,-0.79375 z M 106.12954,96.56235 c -0.12448,-13.920936 -0.26899,-16.164248 -1.40116,-21.750867 -1.13547,-5.602907 -3.15018,-9.974141 -5.049072,-10.954785 -0.883719,-0.456377 -2.15791,-0.180247 -3.038184,0.658402 -1.928039,1.836876 -3.938238,7.762556 -4.88034,14.386307 -0.389606,2.739255 -0.48787,5.704409 -0.572116,17.264063 l -0.101716,13.95677 h 7.581915 7.581913 z m 0.53872,-5.04531 c -0.0419,-3.37334 -0.0761,-0.5374 -0.076,6.30208 5e-5,6.83948 0.0343,9.59948 0.0761,6.13334 0.0418,-3.46614 0.0418,-9.06208 -1e-4,-12.43542 z M 90.770341,84.391511 c -0.0734,-0.181901 -0.133454,-0.03307 -0.133454,0.330729 0,0.363803 0.06006,0.512631 0.133454,0.33073 0.0734,-0.181901 0.0734,-0.479558 0,-0.661459 z m 15.610419,-1.322916 c -0.0734,-0.181901 -0.13346,-0.03307 -0.13346,0.330729 0,0.363802 0.0601,0.51263 0.13346,0.330729 0.0734,-0.181901 0.0734,-0.479557 0,-0.661458 z M 91.034924,81.216511 c -0.0734,-0.181901 -0.133453,-0.03307 -0.133453,0.330729 0,0.363802 0.06006,0.512631 0.133453,0.33073 0.0734,-0.181902 0.0734,-0.479558 0,-0.661459 z m 15.081246,-1.058333 c -0.0734,-0.181901 -0.13345,-0.03307 -0.13345,0.330729 0,0.363802 0.0601,0.51263 0.13345,0.330729 0.0734,-0.181901 0.0734,-0.479557 0,-0.661458 z M 91.299507,78.835261 c -0.0734,-0.181901 -0.133453,-0.03307 -0.133453,0.330729 0,0.363802 0.06005,0.512631 0.133453,0.330729 0.0734,-0.181901 0.0734,-0.479557 0,-0.661458 z M 105.8571,78.058048 c -0.0845,-0.211067 -0.14715,-0.148374 -0.15985,0.159853 -0.0115,0.278913 0.0511,0.435184 0.13897,0.347265 0.0879,-0.08792 0.0973,-0.316124 0.0209,-0.507118 z m -0.52916,-3.175001 c -0.0845,-0.211066 -0.14716,-0.148373 -0.15986,0.159854 -0.0115,0.278913 0.0511,0.435184 0.13897,0.347265 0.0879,-0.08792 0.0973,-0.316124 0.0209,-0.507119 z"
       id="path483"
       sodipodi:nodetypes="cscccccccccccccccssssscssccccccccccccsssscccsssccsssssssssssssssssssssssscsssssscccccccccssssssssssssscsssssscccccccccsccssccsssccsssccsssssssssssssscsccccsscscsscsscsssssccccccsscssccccccsssccssssssssssssssssssscssscssccssssssssscscssccssssssssssssssssssssssssssssssssssssssssscscscsssssssscsssssccsssssccccsccssccsscsssssscccssssssssssssssccsccsccssssscscsssccsccccccccssccsscsssssscsssssssssssssssscccccsscccccssscscsscsssssccsssssssssscscssssssssssscsssscsssssssssssssscsssssssssssssssssssssscccssssssssssssssssscsssccsssssssssssssssssscsscssccscssscssssscssscssscssssssccssccsssssssssssssscccccsscccsssssssccsssssscsccsscssssssssssssscccccsssccssssssscsssssscsssssccsssscsssssssscssssssssscssssscccsscssscscssssssscccsssssssssssssscccsscsssssssscssssssscsssssssssssssss" /></g></svg>
