<?xml version="1.0" encoding="UTF-8" standalone="no"?>
<!-- Created with Inkscape (http://www.inkscape.org/) -->

<svg
   version="1.1"
   id="svg969"
   width="912.32001"
   height="478.72"
   viewBox="0 0 912.32001 478.72"
   sodipodi:docname="Blue Origin logo inverted.svg"
   inkscape:version="1.2 (dc2aeda, 2022-05-15)"
   xmlns:inkscape="http://www.inkscape.org/namespaces/inkscape"
   xmlns:sodipodi="http://sodipodi.sourceforge.net/DTD/sodipodi-0.dtd"
   xmlns="http://www.w3.org/2000/svg"
   xmlns:svg="http://www.w3.org/2000/svg">
  <defs
     id="defs973" />
  <sodipodi:namedview
     id="namedview971"
     pagecolor="#ffffff"
     bordercolor="#000000"
     borderopacity="0.25"
     inkscape:showpageshadow="2"
     inkscape:pageopacity="0.0"
     inkscape:pagecheckerboard="0"
     inkscape:deskcolor="#d1d1d1"
     showgrid="false"
     inkscape:zoom="1.0043814"
     inkscape:cx="511.75777"
     inkscape:cy="308.14986"
     inkscape:window-width="1800"
     inkscape:window-height="1097"
     inkscape:window-x="0"
     inkscape:window-y="44"
     inkscape:window-maximized="0"
     inkscape:current-layer="g975" />
  <g
     inkscape:groupmode="layer"
     inkscape:label="Image"
     id="g975">
    <path
       id="path979"
       style="fill:#000000;stroke-width:0.32"
       d="M -70.689453 -48.787109 L -70.689453 532.66602 L 988.66797 532.66602 L 988.66797 -48.787109 L -70.689453 -48.787109 z M 780.95508 0.001953125 C 782.06473 0.050077146 783.13932 0.21462122 783.34375 0.4609375 C 783.83994 1.0588314 784.80939 7.0502955 785.25195 12.257812 C 785.69775 17.503216 785.70257 32.844983 785.25977 38.369141 C 784.89149 42.962278 784.99256 43.952899 785.75195 43.177734 C 785.99777 42.926487 788.47638 33.720692 791.25977 22.720703 L 796.32031 2.7207031 L 797.85352 2.6210938 C 799.23741 2.5325858 799.49622 2.6329224 800.49414 3.6308594 C 801.53583 4.6725319 801.60089 4.8634142 801.61523 6.9277344 L 801.63086 9.1191406 L 802.65625 6.5605469 C 803.49055 4.476372 803.82128 3.9797655 804.4375 3.8925781 C 804.85382 3.8336772 805.33345 3.9252186 805.50391 4.0957031 C 805.70388 4.2956658 805.24355 7.9114797 804.20508 14.283203 C 802.0712 27.376282 801.9987 28.25421 803.52344 22.560547 C 806.1145 12.884965 808.93388 4.7944004 809.71094 4.8046875 C 811.00515 4.8218205 810.9919 5.1940947 809.45117 12.201172 C 806.59197 25.20391 802.72492 45.431623 800.10156 61.119141 C 799.76108 63.155081 800.21745 61.984719 801.90625 56.480469 C 807.15427 39.375868 815.5913 21.159769 822.45508 12.113281 C 824.12084 9.9178141 824.18548 9.8708887 825.2793 10.089844 C 826.61194 10.356606 827.32618 10.351433 828.72461 10.0625 C 830.19722 9.7582507 831.5639 10.404857 831.98242 11.605469 C 832.29602 12.505045 831.90398 13.644444 827.49414 24.691406 C 824.83738 31.346949 822.71498 36.94569 822.77734 37.132812 C 822.83974 37.319936 824.6367 34.838452 826.76953 31.617188 C 828.90239 28.395922 831.24867 25.078324 831.98438 24.246094 C 832.87762 23.23566 833.70261 21.748756 834.46875 19.767578 C 835.61647 16.799804 836.50393 15.217616 837.42773 14.494141 C 838.17966 13.905256 840.47003 13.645211 841.24609 14.060547 C 841.61918 14.260225 842.87237 14.512876 844.03125 14.621094 C 845.24732 14.734651 846.20135 14.98629 846.28906 15.214844 C 846.37266 15.432652 845.76643 16.954932 844.94141 18.597656 C 843.3296 21.806964 843.35955 21.814114 846.49805 18.966797 C 848.17146 17.448627 849.28812 16.865969 849.27539 17.519531 C 849.27239 17.651531 848.80574 18.697223 848.23633 19.84375 L 847.19922 21.929688 L 850.55469 19.923828 C 852.39962 18.821302 854.25533 17.919922 854.67969 17.919922 C 855.54161 17.919922 862.32638 21.73375 864.80078 23.609375 C 866.22692 24.690417 866.41158 24.970238 866.5 26.1875 C 866.5546 26.938604 866.39007 28.26584 866.13477 29.136719 C 865.87951 30.007597 865.72036 30.720703 865.78125 30.720703 C 865.84215 30.720703 866.71376 30.143452 867.71875 29.439453 C 868.95011 28.576882 869.88947 28.160156 870.59766 28.160156 C 872.09874 28.160156 874.61159 29.79127 877.99609 32.960938 C 880.44057 35.25026 881.39293 36.465976 884.01172 40.640625 C 885.72301 43.368622 887.28053 45.699834 887.47266 45.822266 C 888.01851 46.170066 887.68116 46.328799 884.62109 47.167969 C 881.81403 47.937757 881.79007 47.953561 883.31055 47.976562 C 884.61129 47.996242 884.88792 48.109163 885.03711 48.679688 C 885.19643 49.288894 885.38498 49.342762 886.84766 49.201172 C 887.74539 49.114272 888.66586 49.111459 888.89258 49.193359 C 889.49866 49.41229 892.03943 54.640793 892.60352 56.830078 C 892.87127 57.869161 893.13345 59.51247 893.18555 60.480469 L 893.2793 62.240234 L 891.43945 62.128906 C 890.42745 62.067736 889.59935 62.139883 889.59961 62.289062 C 889.59983 62.438233 890.46994 62.815075 891.53125 63.126953 C 892.90901 63.531833 893.54425 63.897199 893.75586 64.40625 C 893.91884 64.798372 894.36651 67.484122 894.75 70.373047 L 895.44727 75.625 L 894.36328 76.523438 L 893.2793 77.421875 L 894.48047 77.431641 C 896.02261 77.442711 895.99697 77.860144 894.39258 78.921875 C 892.97943 79.857051 892.8756 80.243702 894.19922 79.640625 C 895.29346 79.142052 895.57909 79.459062 894.92773 80.453125 C 894.64188 80.889393 894.4942 81.476084 894.60156 81.755859 C 894.71065 82.040134 894.53383 82.556455 894.19922 82.927734 L 893.59961 83.591797 L 894.84961 83.072266 C 895.53665 82.785994 896.1841 82.637721 896.28906 82.742188 C 896.39405 82.846654 896.52677 84.846862 896.58398 87.1875 L 896.6875 91.443359 L 895.67383 92.597656 C 895.03668 93.323323 894.16617 93.887481 893.33008 94.115234 C 890.18227 94.972687 889.85452 95.131245 889.26562 96.099609 C 888.90326 96.695497 888.78638 97.172736 888.97461 97.289062 C 889.16718 97.408079 889.08034 97.902291 888.75 98.564453 C 888.36536 99.335467 888.31874 99.678519 888.58594 99.767578 C 889.19074 99.969178 889.0291 100.45985 887.8125 102.11719 C 887.18152 102.97677 886.82269 103.67969 887.01367 103.67969 C 887.72794 103.67969 887.31723 104.34576 886.03125 105.27734 L 884.70312 106.24023 L 886.03125 106.24023 C 887.01727 106.24023 887.35938 106.36814 887.35938 106.73633 C 887.35938 108.11024 885.44589 110.23121 883.50977 111.00391 C 882.74267 111.31006 882.75049 111.32016 883.75977 111.33984 C 884.53038 111.35484 884.79911 111.50497 884.79688 111.91992 C 884.79188 112.91559 882.86482 115.87917 880.92773 117.87109 C 879.88931 118.9389 879.03906 120.00432 879.03906 120.23828 C 879.03906 120.47225 877.8587 121.23397 876.41602 121.93164 C 874.62952 122.79557 874.04282 123.204 874.57617 123.21094 C 875.3442 123.22094 875.34841 123.22977 874.7207 123.70508 C 874.3687 123.97164 873.4687 124.34446 872.7207 124.5332 C 871.9727 124.72195 871.35937 125.00309 871.35938 125.1582 C 871.35938 125.3133 871.48665 125.43945 871.64062 125.43945 C 871.7946 125.43945 871.9247 125.83631 871.92969 126.32031 C 871.93569 126.90145 871.54156 127.62201 870.76953 128.44141 C 868.34649 131.01306 858.90393 137.57214 854.2207 139.9375 C 851.36177 141.38146 845.33194 145.3718 844.50586 146.36719 C 844.11299 146.84054 844.17932 146.88513 845.1543 146.80664 C 846.04207 146.73514 846.25638 146.84121 846.33398 147.38281 C 846.39788 147.82854 846.17449 148.16071 845.64844 148.40039 C 844.82131 148.77726 814.81933 170.76848 804.80078 178.3418 C 798.25989 183.28624 795.29945 184.89896 789.71289 186.55859 C 786.175 187.60962 785.06392 188.26768 785.91992 188.80469 C 786.18392 188.9703 786.63634 189.03137 786.92578 188.94141 C 787.4164 188.78894 788.48559 189.53622 788.47461 190.02344 C 788.45731 190.78615 787.48744 191.2757 784.58008 191.99023 C 781.54824 192.73537 781.25966 192.87239 780.96875 193.71289 C 780.53403 194.96885 780.99332 195.28947 786.75781 197.73828 C 791.85832 199.90506 792.51471 200.30919 792.21289 201.0957 C 791.82665 202.10222 788.99769 201.72439 784 200 C 779.5527 198.46551 779.22228 198.40039 775.91211 198.40039 C 770.53873 198.40039 768.69485 199.1482 759.18164 205.19336 C 757.46456 206.28448 756.80078 206.89395 756.80078 207.375 C 756.80078 207.89075 756.27362 208.28671 754.48047 209.12109 C 752.52559 210.03072 751.69783 210.69433 749.22656 213.33984 C 747.61348 215.06665 744.12116 219.16577 741.46484 222.44922 C 738.6014 225.98869 736.15976 228.70053 735.4668 229.10938 C 733.79179 230.09765 729.90003 231.34461 726.5625 231.96289 C 724.49072 232.34668 723.65957 232.63605 723.58984 232.99805 C 723.50754 233.42569 724.09355 233.52934 727.52344 233.69141 C 731.89367 233.8979 732.94347 234.24832 734.18945 235.91992 C 735.0484 237.07233 734.52333 237.78538 733.39648 236.99609 C 732.45077 236.3337 730.49499 236.33554 729.18359 236.99805 C 728.62036 237.28266 726.79114 238.84725 725.11914 240.47461 C 723.44714 242.10196 721.59572 243.67962 721.00391 243.98242 C 719.39636 244.8049 716.98643 244.92737 713.67969 244.35352 C 710.46609 243.79583 706.70034 243.67293 706.42578 244.11719 C 706.33128 244.26999 705.54817 244.48909 704.68555 244.60352 C 702.95736 244.83277 699.27556 246.01265 697.62305 246.86719 C 697.04068 247.16834 693.73853 249.6403 690.2832 252.35938 C 678.46756 261.65741 671.62003 266.06635 663.45508 269.63281 C 660.11697 271.0909 658.64365 271.87388 659.11914 271.94141 C 659.88995 272.05089 660.13038 272.64062 659.4043 272.64062 C 659.16507 272.64062 658.14314 273.08193 657.13281 273.62109 C 656.12244 274.16024 654.3384 274.8927 653.16797 275.25 C 650.57968 276.04016 650.01025 276.48047 651.57617 276.48047 C 652.8867 276.48047 653.53591 277.07641 653.38477 278.14258 C 653.30097 278.73369 652.87986 279.01474 651.26172 279.55664 C 650.15116 279.92856 648.92646 280.38622 648.54102 280.57422 C 648.15561 280.76221 645.96769 281.44587 643.67969 282.09375 C 641.39169 282.74163 637.936 283.92601 636 284.72656 C 634.064 285.52711 630.06015 286.79877 627.10352 287.55078 C 621.12103 289.07239 618.88086 290.10784 618.88086 291.35352 C 618.88086 291.77571 619.02322 292.21154 619.19922 292.32031 C 620.17912 292.92592 619.10129 293.11914 614.76172 293.11914 C 607.40544 293.11914 602.03742 294.27212 596.24609 297.09375 C 592.82754 298.75932 589.42328 299.51953 585.38672 299.51953 C 580.61792 299.51953 574.85943 298.35962 570.57227 296.53516 C 565.49083 294.37267 555.2452 288.93309 550.44336 285.84766 C 548.97113 284.90167 547.7068 284.18575 547.63477 284.25781 C 547.35323 284.53932 551.18417 287.48845 556.34766 290.96484 C 564.68067 296.57518 568.79192 298.64131 575.35938 300.51953 C 581.49588 302.2745 583.50204 302.71428 585.36914 302.7168 C 586.79423 302.7188 587.26722 302.84186 587.42383 303.25 C 587.72437 304.03313 586.51232 304.85682 584.39062 305.31055 C 582.68727 305.67482 581.43706 306.24023 582.33594 306.24023 C 583.22845 306.24023 582.562 306.92476 580.08008 308.55859 C 578.62808 309.51444 576.30889 310.91706 574.92578 311.67578 C 572.5405 312.98424 572.27661 313.05664 569.79492 313.05664 C 567.80416 313.05664 566.30238 312.80686 563.51758 312.01367 C 558.86279 310.68784 551.58325 308.09449 548.48047 306.6582 C 547.16047 306.04717 545.02669 305.1255 543.74023 304.60938 C 539.19669 302.78652 535.67497 300.61166 525.45703 293.31445 C 518.94446 288.66346 519.25588 288.83015 518.56836 289.58984 C 518.03688 290.17711 518.11553 290.29529 520.6875 292.73047 C 531.94998 303.39397 538.18663 308.11516 545.66406 311.64258 C 551.89136 314.58027 565.23593 320.03759 576.08008 324.08008 C 577.26808 324.52296 578.24023 325.00953 578.24023 325.16211 C 578.24023 325.86377 573.79265 325.0449 569.98047 323.64062 C 568.37321 323.04856 567.83899 323.25489 569.18164 323.94922 C 569.68824 324.21118 570.30502 324.8047 570.55273 325.26758 C 571.16582 326.41315 572.39915 326.91464 576.12695 327.53516 C 593.11612 330.36311 602.68542 339.96535 605.79883 357.3125 C 606.6467 362.03666 606.98924 373.86053 606.43164 379.125 C 605.5565 387.38707 603.31196 394.33804 599.89648 399.35938 C 597.72129 402.55729 593.8632 406.06653 590.45312 407.94922 L 588.91406 408.80078 L 599.72461 442.40039 C 605.67078 460.88037 610.54214 476.10823 610.54883 476.24023 C 610.55583 476.37223 604.53924 476.48047 597.17969 476.48047 L 583.79883 476.48047 L 574.70898 445.56055 L 565.61914 414.64062 L 563.5293 414.83789 C 562.38015 414.94647 559.53122 415.03586 557.19922 415.03711 L 552.96094 415.04102 L 552.96094 445.75977 L 552.96094 476.48047 L 540 476.48047 L 527.03906 476.48047 L 527.03906 402.07422 L 527.03906 327.66797 L 525.83984 328.27148 C 525.17984 328.60316 523.90028 329.04707 522.99609 329.25977 C 521.67079 329.57152 521.38022 329.75672 521.5 330.21484 C 521.6536 330.8022 521.34402 330.92325 517.37891 331.82031 C 515.44435 332.25797 509.14783 332.25829 506.69922 331.82031 C 503.86732 331.31439 494.39084 328.76303 490.56055 327.47461 C 484.73635 325.51551 477.42075 321.74824 472.97852 318.41992 C 471.75087 317.50011 471.13719 317.21543 470.89844 317.45508 C 470.48836 317.86673 470.77753 318.10164 476.16016 321.73633 C 481.38091 325.26169 484.21132 326.7547 488.92188 328.4668 C 495.51089 330.86157 507.92978 333.73168 511.92188 333.7832 C 514.8635 333.8212 516.64062 334.17491 516.64062 334.7207 C 516.64062 335.39564 514.75029 335.96114 512.42578 335.98242 C 511.27596 335.99302 510.40319 336.14785 510.33398 336.35547 C 510.26398 336.56561 509.00633 336.7817 507.26758 336.88086 C 505.23862 336.99654 504.32031 337.17235 504.32031 337.44336 C 504.32031 337.94736 502.57235 338.23188 499.46094 338.23633 L 497.00391 338.24023 L 498.13672 339.91992 C 500.40763 343.28875 502.174 347.5166 503.45312 352.64062 C 504.1258 355.33521 504.13355 355.77387 504.24805 399.67969 C 504.33315 432.31111 504.26415 444.74993 503.98828 446.83984 C 502.02687 461.69154 493.39205 472.32139 479.83984 476.57031 C 475.15965 478.03767 471.42761 478.52205 464.80078 478.51953 C 456.36488 478.51653 451.05301 477.48677 445.20508 474.72266 C 434.9457 469.87338 428.84331 461.82798 426.14648 449.59961 C 425.48745 446.61119 425.47308 445.82808 425.36719 403.39062 C 425.27489 366.38413 425.32788 359.69217 425.74023 356.52734 C 426.00483 354.49676 426.18949 352.80751 426.15039 352.77148 C 426.11129 352.73548 425.28831 352.83885 424.32031 353.00195 C 421.09021 353.54627 417.64428 352.58239 411.92578 349.53516 C 408.6036 347.76489 407.51953 347.53407 407.51953 348.59961 C 407.51953 348.9886 408.23101 349.61013 409.59961 350.41406 C 414.49685 353.29077 414.44827 353.25323 414.3418 353.96875 C 414.13825 355.33662 413.3049 355.42559 411.13086 354.3125 C 410.02468 353.74617 408.76031 353.29442 408.32031 353.30664 C 401.75959 353.48895 402.31691 353.57843 399.35938 351.87305 C 395.4277 349.60592 391.56908 347.02581 389.37891 345.20312 C 387.63584 343.75254 387.51319 343.69889 387.96484 344.57227 C 388.44929 345.50912 391.45982 348.30128 393.51953 349.72461 C 394.09153 350.11987 394.56055 350.66745 394.56055 350.93945 C 394.56055 351.34716 394.29215 351.39532 393.03906 351.21289 C 392.20306 351.0912 391.19678 350.78168 390.80078 350.52734 C 389.70862 349.8259 389.87445 350.54812 391.36328 352.96094 C 392.79925 355.28817 393.78123 357.69637 394.28516 360.12891 C 394.47095 361.02581 395.2405 362.84016 395.99414 364.16016 C 396.74777 365.48015 397.68229 367.64094 398.07227 368.96094 C 398.46222 370.28094 398.90918 371.51548 399.06445 371.70508 C 399.21974 371.89471 399.65278 373.04726 400.02734 374.26562 C 400.40193 375.48402 401.22077 377.60325 401.8457 378.97461 C 402.69072 380.82885 402.8882 381.55908 402.61914 381.82812 C 402.08567 382.36159 400.20573 381.26931 398.61719 379.50195 L 397.30469 378.04297 L 396.56641 378.86133 L 395.82812 379.67969 L 394.05469 377.75977 C 393.07994 376.70377 391.91194 375.19239 391.45898 374.40039 C 391.00602 373.60839 389.95063 371.80839 389.11328 370.40039 C 388.27594 368.99239 387.19741 367.04808 386.7168 366.08008 C 386.23622 365.11208 385.37165 363.52855 384.79492 362.56055 C 384.21818 361.59255 383.06016 359.64823 382.22266 358.24023 C 380.74832 355.76165 377.40746 350.93687 373.22461 345.24414 C 371.21344 342.50702 365.76018 333.00685 365.75977 332.24023 C 365.75967 332.02023 365.62945 331.83984 365.4707 331.83984 C 365.31192 331.83984 365.3804 332.49508 365.62109 333.29492 C 366.29028 335.51847 367.03906 341.07781 367.03906 343.81055 C 367.03906 345.43717 366.82583 346.86766 366.40039 348.07812 C 366.04839 349.07962 365.75977 350.19992 365.75977 350.56836 C 365.75977 350.93684 365.54942 351.51771 365.29102 351.85938 C 365.03262 352.201 364.81615 353.00783 364.81055 353.65234 C 364.79675 355.22735 363.967 359.47869 363.49609 360.38867 C 363.28774 360.79133 362.88422 361.38729 362.59961 361.71289 C 362.31504 362.03849 361.86283 362.90241 361.59375 363.63281 C 361.26213 364.53297 360.88857 364.99123 360.43555 365.05664 C 360.06796 365.10974 359.60651 365.50659 359.41016 365.9375 C 359.21384 366.36841 358.83419 366.7207 358.56641 366.7207 C 358.18472 366.7207 358.08008 366.30612 358.08008 364.80078 C 358.08008 362.75774 357.7722 362.37499 357.17773 363.67969 C 356.61108 364.92334 356.16687 364.62859 356.0957 362.96094 C 356.0374 361.59374 355.94232 360.04506 355.86719 359.2168 C 355.85219 359.0496 355.66628 359.08568 355.45508 359.29688 C 355.24388 359.50807 354.99328 359.68141 354.89648 359.68164 C 354.79968 359.68186 354.76771 358.04895 354.82617 356.05273 C 354.92057 352.82922 354.85837 352.30099 354.26758 351.33203 C 353.90179 350.73203 353.60223 349.98769 353.60156 349.67969 C 353.60156 349.15195 352.36539 349.12109 332.16016 349.12109 L 310.7207 349.12109 L 310.7207 368.32031 L 310.7207 387.52148 L 327.19922 387.52148 L 343.67969 387.52148 L 343.67969 398.88086 L 343.67969 410.24023 L 327.19922 410.24023 L 310.7207 410.24023 L 310.7207 432 L 310.7207 453.75977 L 333.75977 453.75977 L 356.80078 453.75977 L 356.80078 465.12109 L 356.80078 476.48047 L 320.64062 476.48047 L 284.48047 476.48047 L 284.48047 414.76562 L 284.48047 353.05273 L 281.19922 353.81641 C 279.39522 354.23689 276.26423 355.00445 274.24023 355.52148 C 272.21624 356.0385 268.76054 356.89689 266.56055 357.42969 C 264.36055 357.96252 262.02378 358.54909 261.36914 358.73242 L 260.17969 359.06445 L 260.07617 402.97266 C 259.97527 446.19786 259.96336 446.92454 259.30469 449.75977 C 255.57396 465.81869 245.81539 475.21954 230.08008 477.9082 C 226.36092 478.54369 218.08521 478.79097 214.40039 478.37695 L 214.40039 478.375 C 203.27805 477.12537 194.16261 472.30428 188.51172 464.68164 C 184.91782 459.83374 182.25357 452.4584 181.47266 445.1875 C 181.23831 443.00554 181.11914 430.88105 181.11914 409.24219 L 181.11914 376.58984 L 180.24023 376.76758 C 174.55115 377.92291 153.80689 380.56916 151.74609 380.40234 C 148.67629 380.1538 147.08396 378.23047 147.05859 374.74219 C 147.04109 372.33883 147.60778 371.11222 149.24805 369.98828 C 150.50449 369.12735 160.7273 365.89124 167.03906 364.35742 C 169.59106 363.73729 173.76832 362.599 176.32031 361.82812 L 180.96094 360.42578 L 181.04297 343.41406 L 181.125 326.40039 L 194.08203 326.40039 L 207.03906 326.40039 L 207.03906 340.28516 L 207.03906 354.17188 L 212.08008 353.10938 C 214.85208 352.52551 220.7611 351.17279 225.21094 350.10352 C 229.66076 349.03421 233.51331 348.16016 233.77148 348.16016 C 234.1748 348.16016 234.24023 346.62783 234.24023 337.2793 L 234.24023 326.40039 L 247.19531 326.40039 L 260.14844 326.40039 L 260.23438 334.35547 L 260.32031 342.30859 L 264.16016 341.27734 C 269.25162 339.909 272.88782 339.01719 277.91992 337.9043 C 280.20792 337.39828 282.6193 336.82773 283.2793 336.63672 L 284.48047 336.28906 L 284.48047 331.34961 L 284.48047 326.41016 L 304.7207 326.32422 L 324.96094 326.23828 L 328.80078 325.32422 C 330.91278 324.8213 332.70304 324.3511 332.7793 324.2793 C 332.8556 324.2075 332.74736 323.97976 332.53906 323.77148 C 332.3308 323.56322 332.16016 322.8738 332.16016 322.24023 C 332.16016 321.39115 331.79795 320.58698 330.7832 319.18359 C 330.02601 318.13637 328.98418 316.27685 328.4668 315.05078 C 327.18078 312.00326 326.03703 310.6211 318.47461 302.96875 C 313.41186 297.84581 311.95743 296.19488 312.08398 295.71094 C 312.26918 295.00273 311.44909 294.1227 309.84961 293.31445 C 308.60157 292.68378 308.16016 291.92971 308.16016 290.42773 C 308.16016 288.88545 309.11807 288.65764 311.79688 289.5625 C 312.90134 289.93557 314.4169 290.24023 315.16406 290.24023 C 316.70792 290.24023 317.26436 290.49122 319.54883 292.21289 C 320.44479 292.88814 321.84085 293.63917 322.65039 293.88281 C 323.45992 294.12644 324.76708 294.85495 325.55664 295.50195 C 326.34624 296.14896 327.50071 296.81892 328.12109 296.99023 C 333.02893 298.34535 339.4304 303.45268 348.97852 313.63086 C 353.21297 318.14472 354.88086 319.48927 354.88086 318.39062 C 354.88086 318.20932 354.50233 317.165 354.04102 316.07031 C 353.57968 314.97561 352.87615 313.144 352.47656 312 C 352.07698 310.856 351.28864 308.69522 350.72461 307.19922 C 350.16061 305.70322 349.50242 303.90322 349.26367 303.19922 C 349.02492 302.49522 348.2683 300.33639 347.58203 298.40039 C 342.19442 283.2013 340.49754 277.39178 339.22461 269.80078 C 338.41069 264.94711 338.40799 264.48171 339.19922 261.2793 C 339.54706 259.8713 339.83386 257.68739 339.83594 256.42578 C 339.83894 255.16418 339.92834 253.90535 340.03516 253.62695 C 340.32825 252.86318 341.27743 253.01784 341.75391 253.9082 C 341.9862 254.34219 342.27639 254.636 342.39844 254.56055 C 342.63076 254.41697 343.08149 248.25159 343.15625 244.19727 C 343.19145 242.28851 343.3114 241.76541 343.78125 241.47656 C 344.26279 241.1805 344.48522 241.27197 345.07617 242.00391 C 345.46865 242.49004 346.16407 243.64258 346.62109 244.56445 C 350.67543 252.7425 352.94491 257.61991 353.13281 258.56055 C 353.25585 259.17655 354.04191 261.19106 354.87891 263.03906 C 355.7159 264.88706 356.49923 266.75922 356.62109 267.19922 C 356.99494 268.54927 360.45058 277.27078 362.58008 282.24023 C 362.91947 283.03223 363.67945 285.12086 364.26953 286.88086 C 364.85961 288.64086 366.09072 292.24086 367.00586 294.88086 C 367.92096 297.52086 369.01507 300.83224 369.4375 302.24023 C 370.33027 305.21564 370.42029 304.53952 369.78125 299.66016 C 369.52916 297.73535 369.16094 294.64878 368.96289 292.80078 C 368.76484 290.95278 368.31964 287.71161 367.97266 285.59961 C 367.22559 281.05233 366.54922 268.04913 366.22266 251.91992 C 365.99693 240.77197 366.00332 240.64063 366.63672 240.64062 C 367.12191 240.64062 367.37281 240.98538 367.67383 242.06055 C 367.99895 243.22174 368.16732 243.42947 368.5957 243.20312 C 368.88389 243.05087 369.35282 242.85561 369.63672 242.76953 C 370.03086 242.65003 370.18846 242.0596 370.30469 240.26758 C 370.46507 237.7944 371.21642 235.83984 372.00781 235.83984 C 372.2673 235.83984 372.4952 236.02023 372.51367 236.24023 C 372.53227 236.46023 372.72409 236.06337 372.94141 235.35938 C 373.55037 233.38651 374.27683 233.51635 374.54297 235.64648 C 374.66537 236.62617 375.04278 237.76517 375.39648 238.21484 C 375.86285 238.80773 376.4919 241.42689 377.76172 248.07031 C 378.71302 253.04722 379.77473 258.05522 380.12109 259.19922 L 380.75195 261.2793 L 380.77539 258.65625 C 380.84909 250.74534 383.57627 238.56388 386.62891 232.50195 C 387.989 229.80112 390.52968 225.88849 391.53711 224.94727 C 392.61135 223.94361 393.09435 222.98386 393.5957 220.85156 C 393.94978 219.34551 398.54582 209.7806 399.42383 208.72266 C 400.49906 207.4271 400.60784 209.48592 399.67188 213.43945 C 399.31774 214.93545 398.81533 216.70363 398.55469 217.36719 C 398.29408 218.03075 398.08008 218.66297 398.08008 218.77344 C 398.08008 218.9902 399.28456 217.39362 400.29297 215.83984 C 400.63566 215.31184 401.22418 214.44792 401.60156 213.91992 C 401.97893 213.39192 402.71214 212.2033 403.23047 211.2793 C 404.25806 209.44753 404.68111 209.22419 405.08008 210.30273 C 405.29077 210.87224 405.38342 210.68976 405.5625 209.33984 C 405.87898 206.95403 406.99629 203.51953 407.45703 203.51953 C 407.7465 203.51953 407.8905 205.04744 408.00391 209.35938 C 408.26442 219.26304 408.16936 223.57516 407.52734 230.88086 C 407.08411 235.92436 406.90445 240.77862 406.89453 248 L 406.88086 258.08008 L 408.57422 267.83984 C 409.50571 273.20784 410.53607 278.68 410.86523 280 C 411.43268 282.27577 412.53531 288.75172 412.97656 292.40039 C 413.0883 293.32439 413.31121 294.08008 413.4707 294.08008 C 413.87201 294.08008 413.87847 293.71366 413.90039 272.48047 C 413.91899 254.46515 413.95101 253.43712 414.61328 250.03125 C 415.57334 245.0936 417.07025 239.62401 418.18945 236.95898 C 420.08234 232.45154 422.64982 227.34316 423.32617 226.74023 C 423.70793 226.3999 424.47243 225.32147 425.02539 224.3418 C 425.57832 223.36212 426.42017 222.10846 426.89453 221.55664 C 427.36893 221.00483 428.16057 219.49345 428.6543 218.19727 C 429.95286 214.78806 432.33824 210.98858 434.20898 209.35156 C 436.02127 207.76571 438.92623 206.40039 440.48633 206.40039 C 441.96441 206.40039 441.98675 206.4137 441.77539 207.2793 C 441.65718 207.7633 440.85577 209.24055 439.99609 210.56055 C 437.99859 213.62762 436.56749 216.70494 436.09961 218.93555 C 435.4967 221.81 436.42786 222.8875 437.36523 220.40039 C 438.05703 218.56488 442.10439 210.64021 443.85742 207.68945 C 445.54273 204.85263 452.67509 197.04002 454.36914 196.17578 C 455.01263 195.8475 456.22801 194.70104 457.07031 193.62891 C 457.91261 192.55677 458.82393 191.67969 459.09375 191.67969 C 459.36354 191.67969 461.81535 190.16035 464.54297 188.30273 C 469.80484 184.71919 471.00763 184.2463 469.59375 186.32031 L 468.77539 187.52148 L 470.78906 186.21094 C 474.75728 183.62752 484.83253 179.21775 485.86328 179.61328 C 486.28069 179.77346 486.26465 180.13144 485.73828 182.45898 C 485.40724 183.92281 485.13342 185.33018 485.12891 185.58789 C 485.11261 186.51785 485.96068 185.18936 486.85742 182.88086 C 487.33601 181.64886 488.20868 180.13553 488.79492 179.51953 C 489.3812 178.90353 490.57751 177.17624 491.45508 175.67969 C 492.96446 173.10529 495.70204 170.24023 496.65234 170.24023 C 497.01122 170.24023 496.93386 171.3521 496.44141 173.2793 C 496.26093 173.98561 496.82614 173.15155 498.58594 170.10938 C 499.18751 169.0694 500.43538 167.4361 501.35938 166.48047 C 502.28337 165.52484 503.03906 164.54582 503.03906 164.30469 C 503.03906 163.55322 506.89497 159.20362 507.59766 159.16211 C 507.95538 159.14101 508.37852 158.88843 508.53906 158.60156 C 508.8629 158.02293 509.93015 157.8994 510.24219 158.4043 C 510.54548 158.89507 509.35112 161.82248 506.86914 166.67188 C 500.11993 179.85856 498.17453 185.7206 496.33984 198.40039 C 495.08823 207.05029 494.02502 221.94108 493.60938 236.64062 C 493.25316 249.23817 492.59158 254.27878 489.95117 264.50195 C 489.1753 267.50589 488.22732 270.27984 487.43555 271.86133 C 486.7366 273.25748 486.05518 274.74943 485.92188 275.17773 C 485.68597 275.93579 485.71396 275.93066 486.95312 274.94922 C 489.00966 273.32041 494.38692 264.87183 496.05859 260.64453 C 496.40538 259.76757 497.05322 258.2562 497.49805 257.28516 C 499.90994 252.01995 502.5647 242.03449 505.78125 226.13281 C 508.83261 211.04769 508.91243 210.70493 510.91211 204 C 513.89368 194.00277 517.05734 187.0412 522.54297 178.40039 C 526.57102 172.05555 527.94403 170.36259 532.05273 166.68359 C 539.04521 160.42239 540.44343 159.39492 547.67969 155.19531 C 556.87689 149.85765 564.9883 144.3979 569.25586 140.67383 C 571.28552 138.90267 572.34486 138.47593 572.66211 139.30273 C 572.9344 140.01228 571.26659 144.76617 570.21875 146.26758 C 564.01908 155.15075 561.57493 160.43712 556.98438 174.88086 C 555.49251 179.57485 553.26605 189.28695 550.39648 203.625 C 549.72379 206.9863 550.27478 205.85257 551.49414 201.36328 C 554.79488 189.21102 559.48288 176.74749 564.94922 165.59961 C 568.91753 157.5067 570.10235 154.97734 570.41602 153.91992 C 570.71278 152.9194 577.56566 138.99532 578.88086 136.7207 C 579.4151 135.7967 580.06198 135.03906 580.31836 135.03906 C 580.57474 135.03906 581.01265 134.69244 581.29102 134.26758 C 582.01709 133.15943 585.94883 129.97854 589.11914 127.93555 C 590.61514 126.9715 595.512 124.26847 600 121.92773 C 638.19231 102.00828 655.66591 89.280492 665.6875 74.080078 C 666.73182 72.49608 667.99927 70.385186 668.50391 69.388672 C 669.63665 67.151855 672.37814 63.806758 673.32617 63.505859 C 675.73177 62.742356 675.08666 67.142346 670.91602 79.939453 C 669.61464 83.932505 668.37093 87.990985 668.15234 88.958984 C 667.93375 89.926983 667.62936 90.965461 667.47461 91.265625 C 667.01794 92.151473 663.96814 105.38399 664.06836 106.04492 C 664.12926 106.44657 665.02147 105.31678 666.71875 102.6875 C 670.33894 97.07943 671.63302 95.697761 671.71484 97.359375 C 671.73434 97.755375 671.95701 97.227049 672.20898 96.183594 C 672.46092 95.140136 673.09296 93.316337 673.61328 92.130859 C 674.13356 90.945386 674.75635 89.206643 674.99805 88.267578 C 675.3944 86.72759 675.52297 86.560547 676.3125 86.560547 C 677.07161 86.560547 677.2684 86.344029 677.79492 84.935547 C 678.59179 82.803927 680.44109 80.640625 681.46484 80.640625 C 682.38276 80.640625 682.37443 80.557395 681.73438 83.652344 C 681.45684 84.994486 681.27952 86.240921 681.33984 86.421875 C 681.40014 86.602832 682.30849 84.148616 683.35742 80.96875 C 684.64059 77.07885 685.39359 75.236355 685.6582 75.337891 C 685.88326 75.424251 686.47772 74.742355 687.04883 73.744141 C 687.59783 72.784818 688.21971 72 688.42969 72 C 689.0671 72 690.95645 68.491378 691.125 66.996094 C 691.30228 65.42326 691.7242 65.249526 693.07031 66.197266 C 693.53748 66.526177 694.2807 66.908464 694.7207 67.044922 C 696.18828 67.50006 696.90182 68.184254 698.2207 70.404297 C 698.94054 71.615934 699.65894 72.687838 699.81641 72.785156 C 699.97388 72.882476 700.77413 72.020464 701.5957 70.869141 C 703.06853 68.805162 703.12807 68.624828 705.78125 57.988281 C 707.75556 50.073383 708.80647 46.476115 709.72656 44.480469 C 710.41629 42.98447 711.23007 40.679374 711.53516 39.359375 C 712.1749 36.59117 712.54252 35.787305 713.88281 34.240234 L 714.85352 33.119141 L 714.90039 34.240234 C 714.94479 35.324067 714.96412 35.305405 715.5 33.642578 C 716.17763 31.539786 718.05893 29.825151 718.09375 31.279297 C 718.10275 31.640349 718.30461 31.470895 718.66211 30.800781 C 719.20819 29.777163 720.54185 28.594579 720.82812 28.880859 C 720.90872 28.961479 720.54107 29.994009 720.01172 31.173828 C 718.47083 34.608194 717.33319 39.183321 717.67188 40.585938 L 717.95508 41.759766 L 719.67578 38.425781 C 721.31585 35.24594 721.68946 34.791005 727.81641 28.537109 C 733.57576 22.658429 742.0439 15.039063 742.81836 15.039062 C 743.20575 15.039062 742.99944 15.821909 741.5957 19.679688 C 739.32284 25.92589 737.3727 33.92069 735.83203 43.308594 C 735.31468 46.461142 735.15016 48.238061 735.35547 48.443359 C 735.52814 48.616044 735.75159 48.676153 735.85156 48.576172 C 735.95156 48.476192 736.9654 44.741624 738.10547 40.277344 C 741.84415 25.637277 745.42171 14.85088 747.40234 12.242188 C 748.31894 11.034936 750.99344 9.1548332 753.83008 7.7246094 C 757.17826 6.0364508 757.49083 6.313157 756.19336 9.8320312 C 753.96961 15.863192 751.23278 26.553336 748.97852 38.017578 C 747.96965 43.148331 745.61129 56.924686 745.60352 57.732422 C 745.59352 58.748649 746.1087 56.683344 747.99023 48.158203 C 750.92757 34.849506 753.54982 24.756644 755.99023 17.380859 C 758.20731 10.680074 761.13881 4.1088432 762.15234 3.5664062 C 763.08696 3.0662392 771.66832 0.9609375 772.77148 0.9609375 C 774.50917 0.9609375 774.51567 1.024403 774.32422 16.792969 C 774.22802 24.717209 774.20109 31.056859 774.26367 30.880859 C 774.64943 29.794939 777.24387 9.2725542 777.7832 3.0390625 C 777.90502 1.6310639 778.1644 0.37344543 778.36133 0.24414062 C 778.70057 0.021402648 779.84542 -0.046170896 780.95508 0.001953125 z M 505.55273 309.96484 C 505.49217 310.03413 505.56848 310.17785 505.78711 310.39648 C 506.06807 310.67746 515.12323 315.50361 520 317.97266 C 524.42163 320.21128 531.42538 321.51709 534.46289 320.66797 C 535.55972 320.36138 536.0956 320.36773 537.0957 320.70117 C 537.78622 320.93141 538.41132 321.3026 538.48438 321.52539 C 538.62981 321.96884 536.61615 322.94803 532.03125 324.66406 C 530.46415 325.25059 529.03176 325.88035 528.84766 326.06445 C 528.6146 326.2975 533.65386 326.40039 545.42969 326.40039 C 554.73419 326.40039 562.28691 326.33964 562.21289 326.26562 C 561.69948 325.75222 552.59016 323.0075 546.88086 321.64648 C 543.09686 320.74444 535.75254 318.99113 530.56055 317.75 C 520.28513 315.29371 515.66781 313.86884 509.74805 311.32812 C 507.15816 310.21657 505.73444 309.75698 505.55273 309.96484 z M 437.91992 315.04102 L 441.08008 318.56055 C 444.04319 321.86097 448.92282 326.71212 449.2793 326.71094 C 449.3673 326.71065 449.62116 326.59517 449.8418 326.45508 C 450.11985 326.27853 449.46069 325.51942 447.69727 323.98047 C 446.29791 322.75926 443.52639 320.24805 441.53711 318.40039 L 437.91992 315.04102 z M 407.78906 324.25 C 407.43288 323.90095 407.56211 324.18894 408.01953 324.96094 C 409.92273 328.1729 415.87633 335.56417 419.51758 339.23633 C 422.58625 342.33105 424.0797 343.57951 425.91797 344.58594 L 428.31445 345.89844 L 428.86328 344.86914 C 429.16527 344.30325 429.41468 343.69553 429.41602 343.51953 C 429.41602 343.34353 428.34452 342.71136 427.0332 342.11328 C 425.72184 341.51516 423.67496 340.22673 422.48438 339.25 C 419.28256 336.62337 413.05918 330.46388 410.46875 327.35938 C 408.98703 325.58359 408.14524 324.59905 407.78906 324.25 z M 717.4043 324.57617 C 720.49427 324.48172 723.64496 324.53858 725.73242 324.78125 C 744.89681 327.00925 756.7862 338.95657 758.68945 357.89648 C 758.88264 359.81904 759.04102 364.53356 759.04102 368.375 L 759.04102 375.35938 L 745.92188 375.35938 L 732.80078 375.35938 L 732.79688 367.2793 C 732.79088 358.47051 732.49109 356.05192 731.03711 353.08008 C 729.98338 350.92632 727.93479 349.07031 725.57617 348.13281 C 723.91636 347.4731 723.14708 347.38086 719.36133 347.38086 C 715.62933 347.38086 714.79549 347.47924 713.23438 348.10156 C 709.77701 349.47967 707.59496 352.20476 706.52344 356.48047 C 706.15944 357.93282 706.08203 365.847 706.08203 401.75977 L 706.08203 445.2793 L 706.78906 447.51953 C 708.15914 451.86219 710.28335 454.07587 714.24219 455.2832 C 716.79441 456.06153 723.07623 456.03032 725.44141 455.22852 C 730.52124 453.50651 733.38391 450.16894 734.56641 444.58789 C 734.91703 442.93304 735.03291 439.81035 735.03711 431.75977 L 735.04102 421.11914 L 725.75977 421.11914 L 716.48047 421.11914 L 716.48047 410.88086 L 716.48047 400.64062 L 737.59961 400.64062 L 758.7207 400.64062 L 758.7207 439.67969 C 758.7207 461.15167 758.65022 478.7207 758.56445 478.7207 C 758.47865 478.7207 755.44678 476.70423 751.82812 474.24023 C 748.20951 471.77624 745.12645 469.75977 744.97656 469.75977 C 744.82667 469.75977 743.93388 470.27896 742.99219 470.91406 C 734.93354 476.3492 722.68588 479.43373 713.3457 478.37891 C 699.50294 476.81562 689.41206 470.34947 684.16602 459.67969 C 681.5953 454.45118 680.54528 450.47287 680.00195 443.91602 C 679.58249 438.854 679.58302 364.64593 680.00391 359.14453 C 681.40672 340.75581 691.85127 328.74108 709.44141 325.2793 C 711.2851 324.91645 714.31433 324.67062 717.4043 324.57617 z M 0 326.35156 L 22.480469 326.48242 C 41.325449 326.5933 45.451567 326.69919 48 327.13477 C 56.949312 328.66439 62.735275 331.29046 67.732422 336.08789 C 73.27536 341.40936 76.352177 348.14413 77.605469 357.69727 C 78.527481 364.72523 78.097724 372.68717 76.480469 378.56055 C 75.59799 381.76544 72.690681 387.52707 70.708984 389.99805 C 68.716931 392.48191 65.478609 395.18206 62.861328 396.53906 L 60.869141 397.57227 L 63.603516 399.10547 C 73.79412 404.81804 79.187858 413.30487 80.65625 425.93555 C 81.162128 430.28693 80.884093 440.71269 80.152344 444.80078 C 78.973609 451.38611 76.867991 456.94108 73.8125 461.5332 C 71.979967 464.28734 68.132619 468.22815 65.517578 470.02734 C 63.221256 471.60724 58.393625 473.81234 55.298828 474.69531 C 49.356908 476.39064 47.723259 476.48047 22.917969 476.48047 L 0 476.48047 L 0 401.41602 L 0 326.35156 z M 830.7207 326.39258 L 842.43555 326.47656 L 854.15039 326.56055 L 871.47461 370.31641 L 888.80078 414.07227 L 888.88086 370.23633 L 888.96289 326.40039 L 900.64062 326.40039 L 912.32031 326.40039 L 912.32031 401.44336 L 912.32031 476.48828 L 900.57031 476.4043 L 888.82227 476.32031 L 871.53125 432.6543 L 854.24023 388.99023 L 854.1582 432.73438 L 854.07812 476.48047 L 842.39844 476.48047 L 830.7207 476.48047 L 830.7207 401.43555 L 830.7207 326.39258 z M 101.75977 326.40039 L 114.7207 326.40039 L 127.67969 326.40039 L 127.67969 390.08008 L 127.67969 453.75977 L 148 453.75977 L 168.32031 453.75977 L 168.32031 465.11914 L 168.32031 476.48047 L 135.03906 476.48047 L 101.75977 476.48047 L 101.75977 401.43945 L 101.75977 326.40039 z M 629.75977 326.40039 L 642.88086 326.40039 L 656 326.40039 L 656 401.43945 L 656 476.48047 L 642.88086 476.48047 L 629.75977 476.48047 L 629.75977 401.43945 L 629.75977 326.40039 z M 780.48047 326.40039 L 793.43945 326.40039 L 806.40039 326.40039 L 806.40039 401.43945 L 806.40039 476.48047 L 793.43945 476.48047 L 780.48047 476.48047 L 780.48047 401.43945 L 780.48047 326.40039 z M 466.17969 347.28516 C 457.73036 346.80788 453.18832 350.06048 451.7793 357.59961 C 451.44794 359.37267 451.35938 368.61161 451.35938 401.91992 C 451.35938 441.1442 451.39941 444.14963 451.92773 446.20898 C 452.23947 447.42408 452.76142 449.02515 453.08984 449.76758 C 454.42126 452.77747 457.46999 454.99977 461.17969 455.66406 C 463.40945 456.06336 468.21897 455.82592 470.25391 455.2168 C 474.82641 453.84812 477.18787 450.61208 478.08398 444.48047 C 478.26382 443.25004 478.38566 425.60391 478.38281 401.2793 C 478.37781 356.18936 478.40922 356.98999 476.48438 353.08008 C 474.62079 349.2946 471.59066 347.59083 466.17969 347.28516 z M 552.96094 347.74023 L 552.96094 370.66992 L 552.96094 393.59961 L 559.59961 393.5957 C 564.12574 393.5917 566.92843 393.44359 568.4043 393.13086 C 577.34912 391.2354 580.80078 385.04232 580.80078 370.88086 C 580.80078 356.86106 577.36316 350.49022 568.79492 348.63281 C 567.44941 348.34113 563.85451 348.06842 559.75977 347.94531 L 552.96094 347.74023 z M 25.919922 347.74805 L 25.919922 367.79492 L 25.919922 387.83984 L 31.476562 387.83984 C 34.532536 387.83984 37.807837 387.6943 38.755859 387.51562 C 39.70388 387.33697 41.539627 386.68757 42.833984 386.07422 C 49.66344 382.83787 53.114743 374.65987 51.880859 364.63867 C 50.737735 355.35461 47.285967 350.48935 40.480469 348.57227 C 39.482211 348.29105 36.443338 348.05219 32.400391 347.93555 L 25.919922 347.74805 z M 234 365.4375 C 233.868 365.4375 231.45662 366.00623 228.64062 366.70312 C 225.82463 367.40005 221.21639 368.41579 218.40039 368.96094 C 215.58439 369.5061 211.91223 370.27257 210.24023 370.66406 L 207.19922 371.37695 L 207.19922 407.52734 C 207.19922 441.06616 207.24023 443.8392 207.76562 445.88672 C 208.48685 448.69754 210.02318 451.58329 211.47656 452.85938 C 214.39776 455.42424 219.20697 456.50796 223.86133 455.65039 C 229.37426 454.63465 232.67618 451.04459 233.77734 444.86914 C 234.13437 442.86687 234.21946 435.1301 234.22852 403.91992 C 234.23452 382.75594 234.13204 365.43859 234 365.4375 z M 25.919922 409.1875 L 25.919922 432.11328 L 25.919922 455.03906 L 32.720703 455.03516 C 37.452071 455.03116 40.193348 454.88659 41.732422 454.56055 C 49.55084 452.90423 53.48153 447.81657 54.708984 437.76758 C 55.584122 430.60299 54.71223 423.2895 52.417969 418.56055 C 51.16516 415.97805 48.169622 412.91054 45.759766 411.74219 C 42.312623 410.07099 39.455764 409.56277 32.400391 409.36719 L 25.919922 409.1875 z " />
  </g>
</svg>
