<?xml version="1.0" encoding="UTF-8" standalone="no"?>
<!-- Created with Inkscape (http://www.inkscape.org/) -->

<svg
   width="198.27899mm"
   height="100.99818mm"
   viewBox="0 0 198.27899 100.99818"
   version="1.1"
   id="svg5"
   sodipodi:docname="Blue Origin feather.svg"
   xml:space="preserve"
   inkscape:version="1.2 (dc2aeda, 2022-05-15)"
   xmlns:inkscape="http://www.inkscape.org/namespaces/inkscape"
   xmlns:sodipodi="http://sodipodi.sourceforge.net/DTD/sodipodi-0.dtd"
   xmlns="http://www.w3.org/2000/svg"
   xmlns:svg="http://www.w3.org/2000/svg"><sodipodi:namedview
     id="namedview7"
     pagecolor="#ffffff"
     bordercolor="#000000"
     borderopacity="0.25"
     inkscape:showpageshadow="2"
     inkscape:pageopacity="0.0"
     inkscape:pagecheckerboard="0"
     inkscape:deskcolor="#d1d1d1"
     inkscape:document-units="mm"
     showgrid="false"
     inkscape:zoom="0.6074876"
     inkscape:cx="551.45158"
     inkscape:cy="97.944385"
     inkscape:window-width="1800"
     inkscape:window-height="1097"
     inkscape:window-x="1"
     inkscape:window-y="44"
     inkscape:window-maximized="0"
     inkscape:current-layer="layer1" /><defs
     id="defs2" /><g
     inkscape:label="Layer 1"
     inkscape:groupmode="layer"
     id="layer1"
     transform="translate(125.79242,-85.805715)"><path
       style="fill:#000000;stroke-width:0.0846667"
       d="m -58.799519,186.55769 c -0.18846,-0.13652 -0.445567,-0.38315 -0.571356,-0.54806 -0.196173,-0.2572 -0.245593,-0.28298 -0.347388,-0.18117 -0.06528,0.0653 -0.118686,0.1595 -0.118686,0.20939 0,0.39281 -1.047055,-0.71192 -1.559094,-1.64495 -0.153323,-0.2794 -0.517212,-0.94615 -0.808634,-1.48167 -0.291415,-0.53551 -0.560147,-1.01176 -0.59718,-1.05833 -0.03703,-0.0466 -0.294682,-0.48472 -0.572558,-0.97367 -0.471619,-0.82987 -1.641238,-2.53988 -2.704999,-3.95479 -0.477901,-0.63564 -1.185731,-1.85835 -1.643921,-2.83971 -0.146753,-0.31432 -0.299255,-0.5715 -0.338887,-0.5715 -0.0997,0 -0.09103,0.11346 0.05083,0.66512 0.205384,0.79865 0.309058,1.61452 0.31518,2.48034 0.0058,0.81054 -0.02838,0.97978 -0.423926,2.10388 -0.07374,0.20955 -0.144899,0.55245 -0.158132,0.762 -0.04334,0.68602 -0.284294,1.60147 -0.484827,1.842 -0.106544,0.12778 -0.274701,0.41669 -0.373685,0.64203 -0.106917,0.24338 -0.22352,0.39502 -0.28724,0.37355 -0.059,-0.0199 -0.175988,0.0763 -0.259994,0.21368 -0.084,0.13741 -0.172449,0.23011 -0.196562,0.20601 -0.02411,-0.0241 -0.06039,-0.30171 -0.08064,-0.61687 -0.02023,-0.31516 -0.05337,-0.5896 -0.07364,-0.60986 -0.02026,-0.0203 -0.102049,0.11015 -0.181745,0.2898 l -0.144916,0.32666 -0.0617,-0.254 c -0.03393,-0.1397 -0.06621,-0.44768 -0.07172,-0.68439 -0.01124,-0.48323 -0.06715,-0.58687 -0.239445,-0.44387 -0.09991,0.0829 -0.114919,-0.0503 -0.09789,-0.86871 0.01591,-0.76462 -0.008,-1.01085 -0.114681,-1.17817 -0.07414,-0.11634 -0.199111,-0.49728 -0.277715,-0.84653 -0.290102,-1.28903 -0.454762,-1.91285 -0.586656,-2.2225 -0.16791,-0.39422 -0.321394,-0.42531 -0.211717,-0.0429 0.100245,0.34952 0.102531,1.08006 0.0034,1.08006 -0.04146,0 -0.203387,-0.26669 -0.359834,-0.59265 -0.156455,-0.32595 -0.329895,-0.59265 -0.385428,-0.59267 -0.05826,-1e-5 -0.11198,0.15219 -0.127,0.35982 -0.03327,0.45989 -0.222165,0.47826 -0.435178,0.0423 -0.08533,-0.17463 -0.209152,-0.3175 -0.275167,-0.3175 -0.06601,0 -0.120023,-0.0354 -0.120023,-0.0786 0,-0.0432 -0.06154,-0.14017 -0.136771,-0.21539 -0.184404,-0.18441 -0.634314,-0.11421 -1.97363,0.30794 -0.578638,0.18238 -1.503443,0.4269 -2.055114,0.54338 -0.551672,0.11648 -1.983241,0.49218 -3.181263,0.83488 -1.198023,0.34271 -2.521122,0.69972 -2.940222,0.79336 -0.4191,0.0936 -1.7526,0.42195 -2.963334,0.72958 -1.210733,0.30762 -2.315633,0.57955 -2.455333,0.60428 -0.1397,0.0247 -0.9398,0.21716 -1.778,0.42762 -0.8382,0.21046 -1.92405,0.47516 -2.413,0.58823 -0.48895,0.11307 -1.2319,0.30358 -1.651,0.42336 -1.258116,0.35957 -7.10599,1.79762 -7.61973,1.87376 -0.13985,0.0207 -0.76862,0.16753 -1.39727,0.32624 -0.62865,0.1587 -1.65897,0.38334 -2.28961,0.4992 -0.63064,0.11586 -1.64029,0.32979 -2.24367,0.4754 -2.71001,0.65398 -3.21048,0.76475 -4.52605,1.00176 -0.76835,0.13843 -1.8161,0.34914 -2.32834,0.46825 -0.51223,0.11911 -1.05691,0.21692 -1.2104,0.21733 -0.15349,0 -1.01491,0.11451 -1.91427,0.25354 -3.2208,0.49786 -5.6054,0.77149 -5.98334,0.68657 -0.43067,-0.0968 -0.81356,-0.44853 -0.92505,-0.84986 -0.22177,-0.79829 5.1e-4,-1.52446 0.5635,-1.84087 0.42194,-0.23715 3.30535,-1.15048 4.34723,-1.37701 0.44238,-0.0962 1.56633,-0.4058 2.49767,-0.68804 0.93133,-0.28224 1.92193,-0.56999 2.20133,-0.63945 0.2794,-0.0695 0.79375,-0.19963 1.143,-0.28927 0.61385,-0.15754 3.36188,-0.80596 4.48733,-1.05884 0.30269,-0.068 0.96944,-0.2033 1.48167,-0.30067 0.87266,-0.16586 5.82729,-1.32372 6.47583,-1.51334 0.16234,-0.0475 0.73384,-0.1646 1.27,-0.2603 0.53616,-0.0957 1.546337,-0.32133 2.244837,-0.5014 0.6985,-0.18007 1.6891,-0.40764 2.201333,-0.50571 0.872975,-0.16714 2.976667,-0.6651 4.318,-1.0221 0.325967,-0.0868 0.821267,-0.20127 1.100667,-0.25447 0.73468,-0.13991 1.835228,-0.41372 2.032,-0.50556 0.265847,-0.12408 2.603867,-0.7293 3.725333,-0.96434 0.5588,-0.11711 1.170953,-0.26785 1.36034,-0.33497 0.189387,-0.0671 0.646587,-0.18739 1.016,-0.26728 0.369413,-0.0799 1.20506,-0.29227 1.856993,-0.47196 0.651934,-0.1797 1.490134,-0.38209 1.862667,-0.44978 0.886384,-0.16107 2.831643,-0.61187 2.889386,-0.66961 0.02482,-0.0248 -0.01821,-0.14184 -0.09564,-0.26002 -0.07779,-0.11872 -0.117915,-0.28693 -0.08967,-0.37592 0.0344,-0.1084 -0.07006,-0.33815 -0.31949,-0.70265 -0.203835,-0.29787 -0.507958,-0.83905 -0.675835,-1.20261 -0.41142,-0.89102 -0.583234,-1.09893 -2.578102,-3.11982 -1.372539,-1.39044 -1.720626,-1.78839 -1.69849,-1.94177 0.02122,-0.14702 -0.06279,-0.2584 -0.353159,-0.46821 -0.682399,-0.49307 -0.774765,-0.60477 -0.746031,-0.90225 0.0232,-0.24012 0.05978,-0.27614 0.304439,-0.29967 0.15294,-0.0147 0.505516,0.052 0.783503,0.14817 0.277986,0.0962 0.648153,0.17505 0.822593,0.17523 0.318446,3.4e-4 0.655435,0.16442 1.206163,0.58738 0.162983,0.12517 0.450181,0.27185 0.638226,0.32596 0.188044,0.0541 0.547344,0.25168 0.798457,0.43903 0.251113,0.18735 0.51021,0.34064 0.575776,0.34064 0.06557,0 0.468266,0.16944 0.894876,0.37653 1.137691,0.55227 2.574544,1.80436 4.984572,4.34364 0.585597,0.61701 1.097365,1.12125 1.137243,1.12054 0.03989,-6.8e-4 0.126695,-0.0356 0.192913,-0.0775 0.100211,-0.0634 0.07548,-0.18029 -0.147532,-0.6972 -0.147354,-0.34155 -0.359546,-0.88771 -0.471534,-1.21367 -0.111989,-0.32597 -0.282296,-0.80222 -0.37846,-1.05834 -0.338853,-0.90246 -0.702302,-1.91151 -0.899643,-2.49766 -0.109736,-0.32597 -0.339699,-0.97367 -0.511014,-1.43934 -0.171314,-0.46566 -0.419193,-1.20861 -0.550833,-1.651 -0.131648,-0.44238 -0.277435,-0.90422 -0.323977,-1.02631 -0.161578,-0.42384 -0.606416,-2.23847 -0.774607,-3.15985 -0.200541,-1.09856 -0.212471,-1.78322 -0.04213,-2.41784 0.06874,-0.25611 0.129947,-0.73236 0.136009,-1.05833 0.01894,-1.01839 0.20436,-1.42597 0.426703,-0.93798 0.223808,0.4912 0.407856,0.18643 0.409795,-0.67856 8.47e-4,-0.28373 0.02607,-0.97906 0.05651,-1.54517 0.0489,-0.90931 0.07289,-1.02929 0.2059,-1.02929 0.0828,0 0.223952,0.10478 0.313665,0.23283 0.270603,0.38627 1.937639,3.85163 2.005973,4.16991 0.03499,0.16294 0.248802,0.71536 0.47515,1.22759 0.226348,0.51224 0.48547,1.14089 0.575818,1.397 0.346557,0.98241 0.676901,1.83975 0.897128,2.32834 0.534331,1.18543 2.082385,5.56802 2.616835,7.40833 l 0.135238,0.46567 -0.04421,-0.635 c -0.06724,-0.96596 -0.363355,-3.43504 -0.597196,-4.97964 -0.128465,-0.84855 -0.242426,-2.1221 -0.295461,-3.302 -0.103734,-2.30784 -0.239675,-8.41412 -0.189306,-8.50353 0.08961,-0.15905 0.197976,-0.027 0.335314,0.4087 0.123952,0.39325 0.165176,0.44988 0.24649,0.33867 0.0537,-0.0734 0.158775,-0.13354 0.233502,-0.13354 0.203437,0 0.305621,-0.26297 0.299915,-0.77188 -0.005,-0.44639 0.214613,-1.17545 0.354092,-1.17545 0.03876,0 0.09402,0.0381 0.122801,0.0847 0.09352,0.15132 0.211667,0.0895 0.211667,-0.11082 0,-0.10752 0.05443,-0.26944 0.120954,-0.35983 0.144789,-0.19674 0.184548,-0.11785 0.241555,0.47926 0.02045,0.21429 0.116171,0.50004 0.212691,0.635 0.128659,0.17989 0.290796,0.85552 0.607508,2.53139 0.237609,1.2573 0.504241,2.53365 0.592532,2.83633 0.08828,0.30268 0.174794,0.64558 0.192252,0.762 0.01746,0.11642 0.05813,-0.20743 0.09037,-0.71967 0.1677,-2.66377 0.618101,-4.84485 1.343974,-6.50823 0.37211,-0.85271 1.06133,-1.98219 1.487712,-2.43802 0.30706,-0.32828 0.407111,-0.52272 0.5673,-1.10249 0.106968,-0.38716 0.282584,-0.85244 0.390254,-1.03397 0.107662,-0.18152 0.407738,-0.75212 0.666826,-1.26799 0.259089,-0.51587 0.511802,-0.94926 0.561594,-0.96308 0.180086,-0.05 -0.128769,1.60074 -0.438065,2.34128 -0.06619,0.1585 -0.100008,0.30851 -0.07515,0.33337 0.05861,0.0586 0.51253,-0.46344 0.687646,-0.79087 0.07472,-0.1397 0.210608,-0.33586 0.301989,-0.43592 0.09137,-0.10006 0.273228,-0.38442 0.404131,-0.6319 0.242011,-0.45758 0.425924,-0.62103 0.425924,-0.37856 0,0.22556 0.163296,0.14885 0.210278,-0.0988 0.172381,-0.90869 0.435136,-1.77464 0.514418,-1.69536 0.04531,0.0453 0.146227,3.71044 0.127685,4.63752 -0.0061,0.30269 -0.06622,1.21709 -0.133697,2.032 -0.180619,2.18135 -0.295249,4.45008 -0.2953,5.84455 -4.2e-5,1.10806 0.04998,1.5299 0.503834,4.24849 0.27714,1.66005 0.560722,3.22101 0.630174,3.46879 0.122716,0.43776 0.52694,2.85978 0.576817,3.45617 0.01639,0.19595 0.06781,0.29634 0.151791,0.29634 0.111404,0 0.127025,-0.59275 0.127186,-4.826 0,-5.16909 0.04203,-5.93219 0.424189,-7.7381 0.272779,-1.28907 0.630284,-2.37673 1.074326,-3.26857 0.18548,-0.37253 0.427753,-0.89996 0.538379,-1.17205 0.110625,-0.2721 0.334061,-0.64186 0.496528,-0.82169 0.162466,-0.17983 0.370509,-0.4742 0.462313,-0.65416 0.09181,-0.17996 0.299915,-0.48638 0.462458,-0.68093 0.162543,-0.19455 0.361002,-0.55385 0.441012,-0.79845 0.271001,-0.82839 0.868545,-1.82034 1.442009,-2.39381 0.386562,-0.38656 1.384537,-0.88724 1.768483,-0.88724 0.164152,0 0.29845,0.0206 0.29845,0.0457 0,0.10003 -0.364143,0.75009 -0.759028,1.355 -0.457191,0.70033 -0.733078,1.35938 -0.862855,2.06115 -0.07032,0.38026 -0.06214,0.47841 0.0491,0.58965 0.116984,0.11698 0.147447,0.11815 0.246897,0.009 0.0624,-0.0682 0.181305,-0.31447 0.264236,-0.54731 0.170866,-0.47972 0.865065,-1.82354 1.540535,-2.98214 0.528524,-0.90654 2.254784,-2.83617 2.848585,-3.18416 0.203683,-0.11937 0.533561,-0.42861 0.733061,-0.6872 0.1995,-0.25859 0.418423,-0.47016 0.486495,-0.47016 0.06807,0 0.661204,-0.37148 1.318065,-0.8255 1.67651,-1.15881 1.811299,-1.22209 1.369602,-0.64299 -0.273829,0.35901 -0.15914,0.35845 0.404834,-0.002 0.9536,-0.6094 3.893312,-1.92628 4.01916,-1.80043 0.02349,0.0235 -0.03167,0.3665 -0.122572,0.76226 -0.158123,0.68841 -0.134679,1.04704 0.05598,0.85638 0.04646,-0.0465 0.20215,-0.37 0.345956,-0.71896 0.143807,-0.34896 0.386021,-0.76783 0.538243,-0.93081 0.152214,-0.16298 0.464854,-0.61407 0.694733,-1.00243 0.4879,-0.82421 1.306973,-1.61911 1.306973,-1.26839 0,0.10868 -0.03544,0.32118 -0.07876,0.47221 -0.145966,0.50895 0.10568,0.29976 0.50209,-0.41737 0.20955,-0.3791 0.55024,-0.86373 0.757089,-1.07695 0.206849,-0.21323 0.459012,-0.53368 0.560367,-0.71212 0.289661,-0.50996 0.99678,-1.32767 1.148681,-1.32834 0.07578,-3.4e-4 0.185225,-0.0578 0.243196,-0.12761 0.151748,-0.18284 0.423334,-0.16181 0.423334,0.0328 0,0.0879 -0.32098,0.80226 -0.713283,1.5875 -0.392312,0.78525 -0.793962,1.63322 -0.892565,1.88438 -0.09859,0.25117 -0.268935,0.61312 -0.378519,0.80434 -0.298298,0.52047 -0.774531,1.77155 -1.019141,2.67729 -0.760781,2.81696 -1.178035,6.85056 -1.400234,13.5362 -0.121887,3.66741 -0.195208,4.24654 -0.890897,7.0374 -0.250656,1.00555 -0.490703,1.74107 -0.746057,2.286 -0.633933,1.35281 -0.608703,1.48016 0.14406,0.72739 1.034,-1.03399 2.722855,-4.29677 3.274814,-6.32673 0.142612,-0.52451 0.373786,-1.33681 0.513723,-1.8051 0.139937,-0.4683 0.554533,-2.33735 0.921317,-4.15345 0.858707,-4.25178 0.927058,-4.5492 1.439876,-6.26533 0.640164,-2.14232 1.391733,-3.97188 2.225937,-5.41867 1.324678,-2.29743 2.152752,-3.40117 3.380181,-4.50544 1.726176,-1.55296 2.47551,-2.1057 4.046788,-2.98506 1.932305,-1.08142 4.951543,-3.10676 5.808616,-3.89649 0.785783,-0.72404 0.935659,-0.60942 0.590507,0.45161 -0.165921,0.51006 -0.373303,0.90014 -0.773938,1.45574 -0.63599,0.88198 -1.74277,3.01074 -2.199403,4.23031 -0.648114,1.73094 -1.390861,4.19555 -1.722306,5.715 -0.602649,2.76277 -1.11644,5.37026 -1.084157,5.50218 0.04683,0.19136 0.173228,-0.16122 0.598678,-1.66994 0.206993,-0.73402 0.494657,-1.72824 0.639268,-2.20937 0.398305,-1.32524 1.889269,-5.02975 2.588742,-6.43213 0.823206,-1.65043 1.449858,-2.99214 1.688457,-3.61508 0.323333,-0.84418 2.355469,-4.79791 2.493196,-4.85075 0.0706,-0.0271 0.323901,-0.24479 0.562873,-0.48377 0.9721761,-0.97217 1.9799974,-1.62618 4.5254669,-2.93671 2.0307385,-1.04552 4.6693074,-2.48974 6.42153491,-3.51481 6.53867129,-3.82519 9.87818719,-6.7727 11.93810219,-10.53676 0.424053,-0.77488 1.107931,-1.54049 1.337191,-1.497 0.392786,0.0745 0.161036,1.26723 -0.846904,4.35881 -0.347125,1.06469 -0.659638,2.08802 -0.694478,2.27406 -0.03484,0.18605 -0.111049,0.45257 -0.16935,0.59227 -0.09917,0.23764 -0.968096,3.8515 -0.968096,4.02631 0,0.27201 0.297967,-0.0583 0.904384,-1.00241 0.381,-0.59319 0.790575,-1.17045 0.910167,-1.28281 l 0.217449,-0.20428 v 0.22643 c 0,0.41421 0.134781,0.23399 0.28117,-0.37596 0.07951,-0.33131 0.255447,-0.85518 0.390965,-1.16417 0.135526,-0.30898 0.292066,-0.7434 0.347878,-0.96539 0.105317,-0.41887 0.200203,-0.54977 0.291465,-0.4021 0.111049,0.17967 0.218923,0.0682 0.469824,-0.48546 0.384268,-0.84797 1.017541,-1.43208 1.009726,-0.93133 -0.0016,0.10478 -0.05634,0.43815 -0.121556,0.74083 -0.06522,0.30269 -0.08723,0.58223 -0.04892,0.62121 0.09561,0.0973 0.09445,0.10006 0.595935,-1.42554 0.244924,-0.74507 0.484259,-1.39277 0.531876,-1.43933 0.05863,-0.0573 0.06882,-0.03 0.03156,0.0847 l -0.055,0.16934 0.133959,-0.16934 c 0.07368,-0.0931 0.226721,-0.35012 0.340098,-0.57109 0.113368,-0.22097 0.24627,-0.39242 0.295326,-0.381 0.146388,0.0341 0.742975,-1.02635 0.803139,-1.42757 0.05496,-0.36646 0.140792,-0.46117 0.25317,-0.27933 0.03151,0.051 0.295301,0.19946 0.586215,0.32999 0.485437,0.21779 0.55996,0.28853 0.905917,0.85983 0.423325,0.69907 0.648648,0.82015 0.821267,0.4413 0.05796,-0.12722 0.218914,-0.37464 0.357674,-0.54984 0.206121,-0.26026 0.313063,-0.58029 0.584437,-1.74913 0.556751,-2.39788 1.175901,-4.602193 1.400175,-4.984885 0.117001,-0.199645 0.322309,-0.780676 0.456243,-1.291179 0.182059,-0.6939 0.313225,-1.014922 0.519659,-1.271806 0.151883,-0.18899 0.293582,-0.343619 0.314892,-0.343619 0.02131,0 0.01588,0.1143 -0.01206,0.254 -0.08732,0.436574 0.0983,0.277309 0.254567,-0.218429 0.09658,-0.306375 0.228828,-0.529326 0.37625,-0.634305 l 0.227339,-0.161875 -0.06668,0.295638 c -0.09476,0.420168 0.01144,0.362376 0.224104,-0.121952 0.09988,-0.22748 0.263187,-0.457261 0.362899,-0.510625 0.180602,-0.09666 0.180771,-0.0958 0.04437,0.225095 -0.281686,0.662694 -0.375962,0.931131 -0.543704,1.548085 -0.18034,0.66333 -0.227076,1.397112 -0.09421,1.47923 0.04288,0.0265 0.281008,-0.339341 0.529166,-0.812988 0.424189,-0.809622 0.555109,-0.967589 2.186864,-2.638678 1.546784,-1.584064 3.695184,-3.529198 3.897994,-3.529198 0.04143,0 0.0024,0.170286 -0.08688,0.378413 -0.576834,1.345696 -1.311911,4.174918 -1.737615,6.687857 -0.257674,1.521033 -0.264778,1.739063 -0.05669,1.739063 0.129701,0 0.218406,-0.258415 0.559435,-1.629833 0.809921,-3.256931 1.676654,-6.057024 2.28738,-7.389619 0.181186,-0.395363 0.392591,-0.697708 0.629801,-0.900753 0.454482,-0.38902 1.968695,-1.193546 2.065046,-1.097194 0.04045,0.04045 -0.113411,0.631388 -0.347041,1.33287 -0.769035,2.309017 -1.56618,5.775495 -2.178363,9.472862 -0.441604,2.667135 -0.441841,2.668885 -0.363398,2.717365 0.09744,0.0602 0.09674,0.0628 0.49867,-1.828365 1.068858,-5.029181 2.051372,-8.595377 2.997437,-10.879666 0.44853,-1.082987 0.726127,-1.563639 0.974141,-1.686717 0.118669,-0.05889 0.795079,-0.252472 1.50313,-0.430188 1.102842,-0.276802 1.307312,-0.306577 1.426438,-0.207714 0.126086,0.104647 0.136305,0.480825 0.109618,4.035195 -0.01619,2.155884 -0.0039,3.919782 0.02734,3.919773 0.03122,-9e-6 0.078,-0.104791 0.103954,-0.232849 0.117661,-0.580671 0.568892,-4.034889 0.72721,-5.566833 0.09624,-0.931334 0.19492,-1.852431 0.21927,-2.046883 l 0.04429,-0.353549 0.561391,-0.06012 c 0.509168,-0.05453 0.574887,-0.04346 0.706433,0.118991 0.474549,0.586044 0.795808,5.53542 0.588891,9.07256 -0.05856,1.001184 -0.111675,1.914395 -0.118009,2.029358 -0.01411,0.255891 0.236881,0.336493 0.353704,0.113584 0.04418,-0.0843 0.662237,-2.477375 1.373463,-5.317941 0.711225,-2.840567 1.340281,-5.216337 1.397906,-5.279489 0.142781,-0.156504 0.724162,-0.05345 0.965174,0.171082 0.259131,0.241421 0.342731,0.510097 0.346439,1.113418 l 0.0032,0.523655 0.261044,-0.677333 c 0.143578,-0.372533 0.306815,-0.726358 0.362754,-0.786278 0.133139,-0.142621 0.385767,-0.04228 0.385767,0.153218 0,0.08424 -0.155025,1.099335 -0.3445,2.255775 -0.547404,3.341076 -0.732155,4.771534 -0.54925,4.25257 0.02287,-0.06487 0.216789,-0.821782 0.430937,-1.682018 0.413029,-1.65918 0.826939,-3.018337 1.241526,-4.07685 0.214291,-0.54713 0.282922,-0.645584 0.45002,-0.645584 0.108814,0 0.182635,0.04268 0.164745,0.09525 -0.06496,0.19084 -1.052746,4.882747 -1.383657,6.57225 -0.648538,3.311163 -1.449154,7.843098 -1.449154,8.203018 0,0.41571 0.146939,0.10884 0.451781,-0.94351 1.237463,-4.271868 3.636289,-9.520202 5.482717,-11.995489 l 0.456794,-0.61237 0.428811,0.05358 c 0.242875,0.03034 0.532909,0.014 0.668883,-0.0377 0.453873,-0.172563 0.97768,0.130853 0.97768,0.566326 0,0.08561 -0.5715,1.582675 -1.27,3.326815 -0.6985,1.74414 -1.27,3.200602 -1.27,3.236582 0,0.144427 0.254483,0.0533 0.349318,-0.125082 0.247591,-0.465744 1.891437,-2.869118 2.262827,-3.30836 0.225823,-0.267075 0.457598,-0.646365 0.515061,-0.842866 0.177529,-0.607097 0.678265,-1.57656 0.866284,-1.677184 0.345432,-0.184871 0.680043,-0.243353 0.855404,-0.149504 0.09383,0.05022 0.434306,0.124415 0.756615,0.164885 0.322318,0.04047 0.621081,0.09525 0.663931,0.121734 0.04285,0.02648 -0.114342,0.431268 -0.349326,0.899522 -0.234984,0.468253 -0.414554,0.864053 -0.399051,0.879555 0.0155,0.0155 0.351079,-0.25564 0.745727,-0.602536 0.394657,-0.346897 0.729353,-0.59531 0.74378,-0.552031 0.01443,0.04328 -0.09269,0.314279 -0.238049,0.602222 -0.145347,0.287942 -0.248031,0.539771 -0.228185,0.55962 0.01985,0.01985 0.422842,-0.193557 0.895536,-0.474234 0.499533,-0.296617 0.958342,-0.510323 1.095612,-0.510323 0.260266,0 1.905263,0.909283 2.618207,1.447229 0.253593,0.191349 0.466598,0.427104 0.497645,0.550813 0.02985,0.118953 -0.01241,0.462675 -0.09393,0.763824 -0.08152,0.30115 -0.128228,0.567534 -0.103801,0.591964 0.02443,0.02443 0.212758,-0.08407 0.418498,-0.24112 0.20574,-0.157046 0.500778,-0.33802 0.655634,-0.402164 0.262941,-0.108915 0.312377,-0.100216 0.747674,0.131581 0.256362,0.136513 0.848978,0.601286 1.316922,1.032829 0.750791,0.692387 0.94527,0.936234 1.654396,2.074333 0.441977,0.709341 0.842873,1.316236 0.890888,1.348656 0.105554,0.07127 -0.03238,0.128224 -0.784319,0.323854 -0.309626,0.08056 -0.562965,0.179783 -0.562965,0.220501 0,0.04072 0.159529,0.08563 0.354516,0.09981 0.252688,0.01837 0.362492,0.06701 0.382304,0.169333 0.02272,0.11735 0.128033,0.143559 0.576826,0.143559 h 0.549021 l 0.408042,0.832434 c 0.39525,0.806352 0.645795,1.670072 0.648818,2.236742 l 0.0014,0.27516 h -0.508 c -0.282219,0 -0.508,0.0376 -0.508,0.0847 0,0.0466 0.03667,0.0847 0.08149,0.0847 0.04482,0 0.291312,0.0785 0.547768,0.17445 0.560925,0.20987 0.56973,0.23247 0.783962,2.01181 l 0.146626,1.21784 -0.272686,0.22412 c -0.351544,0.28892 -0.344102,0.3851 0.02517,0.32518 0.162984,-0.0264 0.296334,-0.0187 0.296334,0.0172 0,0.0359 -0.210566,0.21029 -0.467919,0.38754 -0.257353,0.17724 -0.452611,0.33757 -0.4339,0.35628 0.01871,0.0187 0.192752,-0.0295 0.386766,-0.10713 0.194005,-0.0776 0.374371,-0.11951 0.400804,-0.0931 0.02643,0.0264 -0.03257,0.16128 -0.131115,0.29967 -0.129786,0.18227 -0.149835,0.26209 -0.07274,0.2896 0.07336,0.0262 0.04266,0.10734 -0.09882,0.26125 -0.239861,0.26092 -0.212268,0.2704 0.249394,0.0857 0.189137,-0.0757 0.365345,-0.11615 0.391558,-0.0899 0.02622,0.0262 0.06788,0.44349 0.09257,0.92726 0.07037,1.37887 -0.163712,1.81761 -1.078594,2.02155 -0.256117,0.0571 -0.553339,0.15962 -0.660493,0.22783 -0.240598,0.15317 -0.502666,0.62839 -0.370781,0.67235 0.06051,0.0202 0.04376,0.13129 -0.04921,0.32623 -0.118991,0.24952 -0.122581,0.30702 -0.023,0.36857 0.09339,0.0577 0.04226,0.17324 -0.245203,0.55398 -0.308017,0.40797 -0.33445,0.47193 -0.17399,0.421 0.265743,-0.0843 0.149403,0.0785 -0.276487,0.38701 -0.188604,0.13663 -0.289577,0.25217 -0.224376,0.25675 0.06519,0.005 0.213784,0.0141 0.3302,0.0212 0.299517,0.0182 0.316061,0.30707 0.03661,0.63919 -0.227169,0.26997 -0.572922,0.48687 -0.967393,0.60686 -0.176843,0.0538 -0.152239,0.0658 0.147617,0.0718 0.292735,0.006 0.359833,0.0369 0.359833,0.16595 0,0.2623 -0.420793,0.93279 -0.930529,1.48269 -0.263898,0.2847 -0.503098,0.58144 -0.531537,0.65942 -0.02845,0.078 -0.368343,0.29483 -0.755329,0.48191 -0.453813,0.21937 -0.634204,0.34187 -0.50811,0.34505 0.306172,0.008 0.150106,0.13558 -0.362136,0.2967 -0.460925,0.14498 -0.571026,0.24512 -0.362526,0.32972 0.07965,0.0323 0.0744,0.0652 -0.02117,0.13276 -0.109593,0.0775 -0.106689,0.09 0.02117,0.0911 0.25682,0.002 0.165685,0.1426 -0.465666,0.71717 -0.830682,0.75596 -2.686643,2.04022 -3.8735,2.68032 -0.9816,0.5294 -2.335979,1.39098 -2.688167,1.71006 -0.259664,0.23525 -0.251198,0.41553 0.01636,0.34838 0.4164,-0.10451 0.480509,0.19379 0.08079,0.37592 -0.21717,0.0989 -7.103406,5.14255 -10.392223,7.61145 -2.045251,1.53536 -2.684594,1.89676 -4.247262,2.40081 -1.015127,0.32743 -1.336285,0.50887 -1.176671,0.66473 0.04227,0.0413 0.210193,0.0873 0.373176,0.10225 0.229633,0.0211 0.302252,0.0688 0.32264,0.21197 0.03188,0.224 -0.10856,0.30278 -0.788306,0.44221 -0.854262,0.17522 -1.063261,0.26396 -1.148267,0.48753 -0.160959,0.42337 -0.113665,0.45668 1.867933,1.31535 1.085994,0.47059 1.233306,0.5617 1.109091,0.68591 -0.194064,0.19407 -0.983682,0.0725 -2.08125,-0.32034 -2.135226,-0.76431 -3.534639,-0.59147 -5.547174,0.6851 -1.682538,1.06725 -1.948239,1.25827 -1.815135,1.30496 0.189924,0.0666 0.04804,0.1758 -0.597865,0.46007 -0.398416,0.17535 -0.678273,0.40077 -1.297347,1.04501 -0.434146,0.45179 -0.815146,0.86512 -0.846667,0.91852 -0.03153,0.0534 -0.60662,0.7699 -1.277984,1.59223 -1.516067,1.85698 -1.764953,2.01688 -3.774584,2.42505 -0.925576,0.18799 -1.05725,0.25501 -0.892065,0.45404 0.08556,0.1031 0.303166,0.13059 1.033551,0.13059 0.968037,0 1.251407,0.0766 1.657596,0.448 0.183337,0.16763 0.258521,0.40188 0.127,0.39567 -0.03492,-0.002 -0.15875,-0.0574 -0.275167,-0.124 -0.546743,-0.31255 -1.096628,-0.0575 -2.222271,1.03086 -0.453898,0.43886 -0.957496,0.85317 -1.119116,0.92069 -0.385589,0.16111 -1.305738,0.15603 -2.11676,-0.0117 -0.781854,-0.16169 -1.258197,-0.12881 -2.365002,0.16322 -1.303494,0.34392 -1.760533,0.60454 -3.627806,2.0687 -3.425901,2.68629 -4.684717,3.47562 -7.719441,4.8404 -0.4423835,0.19894 -0.5621445,0.28748 -0.4885014,0.36113 0.1219115,0.12191 -0.5715593,0.48174 -1.5255579,0.79158 -0.359029,0.11661 -0.6744123,0.24701 -0.7008537,0.28979 -0.026433,0.0428 0.095868,0.10299 0.2717884,0.13381 0.5710937,0.10007 0.6572759,0.53811 0.131589,0.66882 -0.129286,0.0322 -0.4636686,0.1471 -0.7430686,0.25545 -0.2794,0.10835 -0.94615,0.31926 -1.4816666,0.4687 -0.5355167,0.14943 -1.4499167,0.46275 -2.0320001,0.69626 -0.5820833,0.23352 -1.5726833,0.55203 -2.2013333,0.70782 -1.28053259,0.31732 -1.61135066,0.42725 -2.01432167,0.66935 -0.29905113,0.17967 -0.43768433,0.50264 -0.28241413,0.65792 0.0524679,0.0525 0.0954786,0.11635 0.0955633,0.14196 8.467e-5,0.0256 -0.4628642,0.0347 -1.0287763,0.0202 -1.7574175,-0.045 -3.5619859,0.32979 -5.0250514,1.04365 -0.8925983,0.43552 -1.2761468,0.54452 -2.2186307,0.63055 -1.3499759,0.12323 -3.4163929,-0.20745 -4.4112009,-0.7059 -0.218627,-0.10955 -0.543662,-0.24652 -0.7223,-0.30438 -0.454491,-0.1472 -3.61116,-1.84008 -4.650469,-2.49397 -0.474557,-0.29857 -0.899533,-0.52017 -0.944406,-0.49244 -0.144441,0.0893 0.714273,0.76742 2.401951,1.89685 1.975036,1.32174 3.434757,2.06051 4.914722,2.48737 1.580278,0.45578 1.893376,0.52744 2.58953,0.59267 0.5223005,0.0489 0.6315035,0.0842 0.6098204,0.1968 -0.03512,0.18234 -0.3820668,0.34034 -0.9994394,0.45515 -0.458665,0.0853 -0.494301,0.10689 -0.381719,0.23129 0.111937,0.12368 0.04723,0.18836 -0.656514,0.65618 -1.549832,1.03028 -2.286644,1.25804 -3.376304,1.04366 -0.654253,-0.12872 -3.251242,-0.99062 -4.317043,-1.43276 -2.973654,-1.23361 -3.341548,-1.44077 -6.296389,-3.54555 -0.99695,-0.71014 -1.863666,-1.29116 -1.926023,-1.29116 -0.14329,0 -0.316586,0.16995 -0.316586,0.31048 0,0.16064 1.824211,1.87504 3.429,3.22258 1.627378,1.3665 2.898775,2.13024 5.249334,3.15329 1.238563,0.53906 4.112556,1.6924 5.200176,2.08683 0.438632,0.15907 0.838682,0.32159 0.889,0.36115 0.05032,0.0396 0.291067,0.13703 0.534992,0.2166 0.459646,0.14995 0.653812,0.30107 0.386816,0.30107 -0.19928,0 -1.81185,-0.46095 -2.040306,-0.58321 -0.408567,-0.21865 -0.508762,0.0333 -0.107501,0.27036 0.136872,0.0808 0.272271,0.2208 0.300897,0.31098 0.02863,0.0902 0.258741,0.28225 0.511361,0.42678 0.252629,0.14455 0.481872,0.29929 0.509431,0.34389 0.02757,0.0446 0.237922,0.17625 0.467462,0.29257 0.382642,0.19389 0.56526,0.46438 0.311505,0.46137 -0.448437,-0.005 -2.576093,-0.72346 -3.727094,-1.25804 -1.064277,-0.49429 -4.104505,-1.35988 -6.284739,-1.78931 -0.2794,-0.055 -1.55575,-0.35871 -2.836334,-0.67484 -2.315049,-0.57149 -3.846948,-1.06865 -5.279076,-1.71328 -0.505325,-0.22745 -0.777308,-0.30943 -0.835059,-0.25167 -0.0471,0.0471 -0.06138,0.12491 -0.03172,0.1729 0.02966,0.048 0.672134,0.40761 1.427725,0.79915 0.755582,0.39153 1.697643,0.88669 2.09346,1.10034 1.304705,0.70424 3.312617,1.14729 4.069833,0.898 0.295597,-0.0973 0.446566,-0.10372 0.709058,-0.0301 0.183422,0.0515 0.345982,0.13103 0.361247,0.17682 0.03703,0.11111 -1.425744,0.76946 -2.018758,0.90856 -0.122622,0.0288 -0.347895,0.16902 -0.500608,0.31167 -0.376183,0.35141 -0.891506,0.64 -1.350772,0.75648 -0.638302,0.16188 -0.65803,0.17167 -0.646329,0.3207 0.0086,0.10953 -0.131495,0.18372 -0.581338,0.30781 -0.751273,0.20724 -2.675526,0.2238 -3.513667,0.0303 -1.071812,-0.24751 -3.468539,-0.91352 -4.079485,-1.13361 -1.524627,-0.54926 -3.348677,-1.49133 -4.42424,-2.28498 -0.520996,-0.38444 -0.673244,-0.43844 -0.774455,-0.27468 -0.07225,0.11691 0.03453,0.20218 1.488847,1.1888 1.924516,1.30562 3.719957,2.04654 6.411781,2.64593 1.465792,0.32639 2.103332,0.42928 3.34656,0.54013 0.454296,0.0405 0.851806,0.0994 0.883353,0.13099 0.133867,0.13387 -0.169012,0.24069 -0.86139,0.30379 -0.406849,0.0371 -0.766657,0.11101 -0.799575,0.16426 -0.03619,0.0586 -0.363771,0.10473 -0.829014,0.11682 -0.423037,0.011 -0.748953,0.0528 -0.724255,0.093 0.08884,0.14436 -0.199975,0.22079 -0.83909,0.22207 -0.650273,10e-4 -1.71974,0.18121 -2.014321,0.33886 -0.09967,0.0533 -0.140504,0.14322 -0.112954,0.24858 0.0539,0.2061 -0.09933,0.23386 -1.688795,0.30601 l -1.164709,0.0529 -1.163625,-0.37876 c -0.639995,-0.20832 -1.562032,-0.50103 -2.048967,-0.65045 -0.486935,-0.14944 -1.308896,-0.48994 -1.826573,-0.75667 -1.76729,-0.91058 -3.015378,-1.8715 -5.696001,-4.38539 -0.507839,-0.47626 -0.945845,-0.84343 -0.973345,-0.81593 -0.06441,0.0644 2.122187,2.43883 2.590512,2.81303 2.168644,1.73277 4.319524,2.94155 6.624507,3.72293 0.999828,0.33894 1.186349,0.42928 1.208896,0.58551 0.03254,0.22542 0.200677,0.1875 -2.524328,0.56928 -2.804499,0.3929 -3.581866,0.46328 -5.146836,0.46592 -2.329705,0.004 -3.88974,-0.25901 -5.317364,-0.89625 -0.734542,-0.32788 -1.041908,-0.52927 -1.793942,-1.17541 -1.044482,-0.89741 -2.552776,-2.43069 -3.271986,-3.32619 -0.272271,-0.33899 -0.513241,-0.59816 -0.535491,-0.57591 -0.173423,0.17343 1.871641,2.86561 3.18593,4.19404 1.542348,1.55894 2.512009,2.07502 4.095522,2.17973 0.708338,0.0468 0.740833,0.0578 0.740833,0.24892 0,0.11134 -0.05061,0.19992 -0.114241,0.19992 -0.06283,0 -0.358106,0.12804 -0.656166,0.28454 -0.728227,0.38236 -1.535456,0.57577 -2.922999,0.70034 -0.786925,0.0707 -1.51472,-0.1427 -2.804176,-0.82204 -0.957767,-0.50459 -1.399498,-0.61479 -1.49253,-0.37236 -0.06649,0.17327 0.204716,0.39691 1.060865,0.8748 0.590956,0.32986 0.706247,0.42867 0.706247,0.6053 0,0.30328 -0.28884,0.31457 -0.773989,0.0302 -0.359689,-0.21079 -0.467495,-0.23189 -1.082734,-0.21193 -0.375802,0.0122 -0.791904,0.0211 -0.92467,0.0197 -0.47277,-0.005 -2.893162,-1.48597 -3.886107,-2.37808 -0.267758,-0.24057 -0.486833,-0.4201 -0.486833,-0.39895 0,0.0211 0.09891,0.21541 0.219794,0.4317 0.194251,0.34754 0.561526,0.7003 1.569432,1.50736 l 0.285107,0.2283 -0.303149,0.004 c -0.166734,0.002 -0.481059,-0.0855 -0.6985,-0.19561 -0.217441,-0.11009 -0.395351,-0.17584 -0.395351,-0.14612 0,0.0297 0.174557,0.35791 0.3879,0.72932 0.470713,0.81946 0.68188,1.33321 0.849266,2.06624 0.07382,0.32325 0.250385,0.74383 0.421395,1.00377 0.161891,0.24607 0.421868,0.81757 0.57774,1.27 0.600125,1.742 0.796992,2.27863 1.012274,2.7593 0.122513,0.27356 0.222758,0.53074 0.222758,0.5715 0,0.14261 -0.231428,0.0721 -0.571237,-0.17407 z"
       id="path585" /></g></svg>
