<?xml version="1.0" encoding="UTF-8" standalone="no"?>
<!-- Created with Inkscape (http://www.inkscape.org/) -->

<svg
   width="239.90526mm"
   height="40.558769mm"
   viewBox="0 0 239.90525 40.55877"
   version="1.1"
   id="svg5"
   sodipodi:docname="Blue Origin silkscreen.svg"
   xml:space="preserve"
   inkscape:version="1.2 (dc2aeda, 2022-05-15)"
   xmlns:inkscape="http://www.inkscape.org/namespaces/inkscape"
   xmlns:sodipodi="http://sodipodi.sourceforge.net/DTD/sodipodi-0.dtd"
   xmlns="http://www.w3.org/2000/svg"
   xmlns:svg="http://www.w3.org/2000/svg"><sodipodi:namedview
     id="namedview7"
     pagecolor="#ffffff"
     bordercolor="#000000"
     borderopacity="0.25"
     inkscape:showpageshadow="2"
     inkscape:pageopacity="0.0"
     inkscape:pagecheckerboard="0"
     inkscape:deskcolor="#d1d1d1"
     inkscape:document-units="mm"
     showgrid="false"
     inkscape:zoom="0.8663981"
     inkscape:cx="382.04146"
     inkscape:cy="-9.8107325"
     inkscape:window-width="1292"
     inkscape:window-height="1097"
     inkscape:window-x="1"
     inkscape:window-y="44"
     inkscape:window-maximized="0"
     inkscape:current-layer="layer1" /><defs
     id="defs2" /><g
     inkscape:label="Layer 1"
     inkscape:groupmode="layer"
     id="layer1"
     transform="translate(163.4025,-172.77456)"><path
       id="path557"
       style="fill:#000000;stroke-width:0.20575"
       d="m 25.697585,172.77457 c -1.285169,-0.001 -2.57033,0.1032 -3.362068,0.31367 -3.318865,0.8823 -5.343125,2.72738 -6.575309,5.99344 -0.452984,1.20071 -0.460413,1.38658 -0.525033,13.04881 -0.07238,13.06993 -0.02367,13.77532 1.105359,16.0321 1.275725,2.55002 3.547426,4.21989 6.607865,4.85707 l 5.17e-4,-5.2e-4 c 2.612302,0.54389 6.273648,-0.11019 8.494572,-1.51774 l 0.926042,-0.58704 1.800407,1.20974 1.800406,1.20923 v -10.29291 -10.29291 h -5.45238 -5.45238 v 2.77761 2.7776 h 2.365747 2.366264 l -0.0155,2.93213 c -0.01999,3.74581 -0.358097,4.69767 -1.956987,5.51284 -1.085904,0.55359 -3.229677,0.55348 -4.138249,-5.2e-4 -1.447942,-0.88284 -1.398881,-0.39836 -1.398881,-13.79347 0,-11.24211 0.02457,-12.08205 0.373621,-12.72171 0.718905,-1.31748 3.294616,-1.90781 4.865853,-1.11517 1.245834,0.62845 1.539863,1.4307 1.622123,4.4235 l 0.07235,2.62361 h 3.47679 3.477308 l -0.0041,-2.3151 c -0.002,-1.27308 -0.133431,-2.92847 -0.292489,-3.67885 -0.760229,-3.58666 -3.186519,-6.1044 -6.818705,-7.07554 -0.792605,-0.21186 -2.077933,-0.31872 -3.363103,-0.31987 z m -70.130603,0.19017 c -0.03608,0.007 -0.08101,0.0123 -0.115755,0.0202 -0.09103,0.0207 -0.178614,0.0461 -0.2682,0.0687 1.686103,1.16913 3.384312,2.039 5.175911,2.64635 0.999827,0.33894 1.186682,0.42926 1.209229,0.58549 0.03254,0.22542 0.200608,0.1877 -2.524394,0.56948 -2.804496,0.3929 -3.582004,0.46296 -5.146973,0.4656 -1.738359,0.003 -3.047497,-0.14325 -4.193542,-0.48214 -0.153753,0.23644 -0.29523,0.48387 -0.428398,0.73846 0.307136,0.0722 0.628822,0.12014 0.984436,0.14366 0.708337,0.0468 0.74104,0.058 0.74104,0.24908 0,0.11134 -0.05057,0.19999 -0.114205,0.19999 -0.06283,0 -0.358231,0.12823 -0.656291,0.28473 -0.443882,0.23307 -0.935209,0.39019 -1.551326,0.51005 l -0.461471,1.33532 v 12.75684 c 0,12.70302 0.0019,12.76147 0.459404,13.96142 1.278316,3.353 3.92673,5.4709 7.619173,6.09266 l 5.17e-4,-5.2e-4 c 1.496551,0.252 3.083666,0.22573 4.795056,-0.0796 4.133344,-0.73738 6.839507,-3.3469 7.699272,-7.42384 0.440879,-2.09235 0.445452,-22.98919 0.0052,-25.0672 -0.444042,-2.09575 -1.349804,-3.80614 -2.685107,-5.09582 -0.119019,0.0332 -0.229642,0.0672 -0.291455,0.10026 -0.09967,0.0533 -0.140722,0.1432 -0.113172,0.24856 0.0539,0.2061 -0.09932,0.23377 -1.688785,0.30592 l -1.164787,0.0527 -1.163237,-0.37878 c -0.639994,-0.20832 -1.562036,-0.50067 -2.04897,-0.65009 -0.486935,-0.14944 -1.309086,-0.49033 -1.826762,-0.75706 -0.793323,-0.40875 -1.485753,-0.83548 -2.246375,-1.40043 z m -71.647822,0.22634 0.002,7.79952 c 0.28233,-0.0703 0.78054,-0.19659 1.12396,-0.28473 0.61385,-0.15754 3.36161,-0.80597 4.48706,-1.05885 0.26943,-0.0605 0.83819,-0.17421 1.31879,-0.26717 l -0.0393,-6.07612 -3.4463,-0.0563 z m 192.583593,0 -3.137793,0.0568 -3.137276,0.0563 -0.103353,11.13679 -0.102836,11.13679 -4.423503,-11.19157 -4.423502,-11.19208 -3.086117,0.0553 -3.086633,0.0548 -0.05219,19.70061 -0.05271,19.69905 h 3.188436 3.188435 l 0.05323,-11.2112 0.05323,-11.2112 4.423503,11.2081 4.424019,11.2081 3.137276,0.004 3.137793,0.004 v -19.75745 z m -239.905253,0.01 v 19.64944 19.64945 l 6.22391,-0.004 c 6.96647,-0.004 8.18271,-0.15326 10.25312,-1.25677 3.16962,-1.68939 4.77987,-5.02718 4.80177,-9.9534 0.009,-1.99925 -0.0762,-2.7479 -0.44751,-3.93567 -0.59554,-1.90497 -1.89219,-3.65804 -3.40445,-4.60282 -0.63396,-0.39608 -1.15205,-0.76661 -1.15135,-0.82321 7e-4,-0.0566 0.436,-0.38036 0.96739,-0.71985 2.54854,-1.62821 3.87023,-5.98053 3.13675,-10.32909 -0.68885,-4.08403 -3.25274,-6.71767 -7.28431,-7.48223 -0.55676,-0.10559 -3.73097,-0.19223 -7.05383,-0.19223 z m 61.32494,0 -0.0165,4.54701 c 0.25734,-0.056 0.49365,-0.11083 0.85421,-0.17519 0.53616,-0.0957 1.546329,-0.32119 2.244828,-0.50126 0.698499,-0.18007 1.688667,-0.40784 2.200899,-0.50591 0.375309,-0.0719 1.03344,-0.22161 1.705323,-0.37827 l 0.01344,-2.98638 h -3.501079 z m -34.57722,5.1e-4 v 19.75229 19.75176 h 8.74417 8.74469 v -3.08611 -3.08612 h -5.24671 -5.24671 v -16.66565 -16.66617 h -3.49798 z m 47.322694,0 v 1.57872 c 0.286179,-0.12847 2.59846,-0.72687 3.713985,-0.96067 0.5588,-0.11711 1.171254,-0.26774 1.360641,-0.33486 0.189387,-0.0671 0.646546,-0.18779 1.015959,-0.26768 0.01213,-0.003 0.04786,-0.0126 0.06098,-0.0155 z m 91.5587527,0 v 19.75229 19.75176 H 5.7246444 9.2221053 V 192.9537 173.20141 H 5.7246444 Z m 39.5040483,0 v 19.75229 19.75176 h 3.497978 3.497978 V 192.9537 173.20141 h -3.497978 z m -67.280131,5.2e-4 v 19.64893 19.64945 h 3.497461 3.497978 v -8.0331 -8.03259 l 1.675867,0.06 1.675866,0.0599 2.385901,8.07548 v 5.1e-4 l 2.385901,8.076 h 3.4478517 c 1.8964757,0 3.4488254,-0.0696 3.4504354,-0.15452 0.00115,-0.0849 -1.2606432,-4.08563 -2.8039633,-8.89041 l -2.8060302,-8.7359 0.4893758,-0.30489 c 1.1996802,-0.74721 2.8042164,-2.63837 3.2597493,-3.84163 1.0444015,-2.75875 1.2988115,-6.98229 0.6123657,-10.16992 -0.6123923,-2.84376 -2.2757015,-5.13899 -4.5206542,-6.23734 -2.0529842,-1.00443 -3.4248022,-1.16234 -10.1270302,-1.16634 z m -48.507633,2.04484 c -0.267113,-0.0383 -0.771116,0.0803 -1.775602,0.39687 -0.578638,0.18238 -1.503502,0.42716 -2.055172,0.54364 -0.551672,0.11648 -1.98318,0.49187 -3.181201,0.83457 -1.198022,0.34271 -2.52129,0.70011 -2.940389,0.79375 -0.4191,0.0936 -1.752394,0.42153 -2.963127,0.72916 -1.163561,0.29563 -2.154263,0.53887 -2.359546,0.58084 v 13.8281 19.75176 h 9.567375 9.567375 v -3.08611 -3.08612 h -6.069914 -6.069397 v -5.55108 -5.55109 l 4.372343,-0.0558 4.371826,-0.0553 v -2.9838 -2.98328 l -4.371826,-0.0553 -4.372343,-0.0558 v -4.93355 -4.93407 h 5.658052 5.658053 v -0.79168 c -0.06912,-0.17339 -0.146562,-0.41088 -0.204122,-0.66663 -0.290102,-1.28902 -0.454634,-1.91295 -0.586527,-2.2226 -0.16791,-0.39422 -0.321551,-0.4253 -0.211874,-0.0429 0.100245,0.34952 0.102748,1.08004 0.0036,1.08004 -0.04146,0 -0.203738,-0.26677 -0.360185,-0.59273 -0.156455,-0.32595 -0.329973,-0.59219 -0.385506,-0.59221 -0.05826,-10e-6 -0.111588,0.15204 -0.126608,0.35966 -0.03327,0.45989 -0.222102,0.47834 -0.435115,0.0424 -0.08533,-0.17463 -0.209421,-0.31781 -0.275436,-0.31781 -0.06601,0 -0.119889,-0.0354 -0.119889,-0.0786 0,-0.0432 -0.06171,-0.14027 -0.136942,-0.21549 -0.0461,-0.0461 -0.108884,-0.0761 -0.197921,-0.0889 z m 32.299837,3.53828 c 0.193907,-0.006 0.394767,-0.001 0.602547,0.014 0.780509,0.0565 1.407133,0.23461 1.770952,0.50384 1.205559,0.89219 1.17537,0.56337 1.2361,13.44517 l 0.05581,11.83029 -0.467155,0.92604 c -0.305177,0.60464 -0.717261,1.05078 -1.187524,1.28571 -0.423573,0.21159 -1.185954,0.35967 -1.851567,0.35967 -1.412575,0 -2.424259,-0.48934 -2.976562,-1.43971 -0.407773,-0.70163 -0.418579,-1.02663 -0.418579,-12.65349 0,-11.37138 0.01888,-11.97138 0.396875,-12.73307 0.476761,-0.96069 1.481752,-1.49925 2.839103,-1.53841 z m -114.856038,0.17725 h 1.8588 c 1.12049,0 2.12954,0.11343 2.54196,0.28577 1.55396,0.64928 2.38901,2.34286 2.38901,4.84519 0,2.44403 -0.69298,3.81147 -2.3549,4.64571 -0.8392,0.42127 -1.31763,0.51056 -2.72645,0.51056 h -1.70842 v -5.14336 z m 138.264945,0 2.006079,0.005 c 4.02378,0.009 5.067908,1.21638 5.067908,5.85959 0,3.41022 -0.524815,4.70248 -2.222603,5.47357 v -10e-4 c -0.630068,0.28614 -1.339109,0.38202 -2.845305,0.38602 l -2.006079,0.005 v -5.86372 z m -76.760172,1.58492 c -0.04658,0.0129 -0.120292,0.0296 -0.161231,0.0413 -1.058917,0.30264 -5.196242,1.32458 -6.840922,1.70015 l -0.0243,6.60064 c -0.0574,15.64732 -0.0587,15.69081 -0.50333,16.51165 -0.51615,0.95279 -1.07764,1.3465 -2.22932,1.56424 -1.57456,0.29768 -3.17169,-0.34666 -3.87677,-1.56424 -0.17241,-0.29774 -0.26666,-4.79155 -0.34106,-16.25431 l -0.0346,-5.31285 c -2.34755,0.56533 -2.9813,0.70695 -4.22609,0.93121 -0.76835,0.13843 -1.8163,0.34908 -2.32854,0.46819 -0.13959,0.0325 -0.26724,0.0554 -0.40308,0.0832 l 0.001,3.67109 c 0.003,17.11422 0.007,17.18423 1.1343,19.40812 1.29613,2.55778 3.58882,4.10389 7.00422,4.72271 h 10e-4 c 0.55776,0.10099 1.84591,0.14269 2.86391,0.093 3.27859,-0.16009 5.306046,-0.94777 7.098271,-2.75797 1.180079,-1.1919 1.878809,-2.39787 2.430343,-4.19561 0.282679,-0.9214 0.335251,-3.18596 0.397391,-17.05994 z m -61.504253,14.40842 2.00608,0.0971 c 3.47053,0.16823 4.88008,1.20977 5.40535,3.99356 0.30207,1.60092 0.15062,4.04176 -0.32091,5.17229 -0.48417,1.16081 -1.48656,2.07787 -2.64738,2.42259 -0.56115,0.16665 -1.79028,0.30283 -2.73162,0.30283 h -1.71152 v -5.99395 z" /></g></svg>
