<?xml version="1.0" encoding="UTF-8" standalone="no"?>
<!-- Created with Inkscape (http://www.inkscape.org/) -->

<svg
   width="30.427076mm"
   height="216.10875mm"
   viewBox="0 0 30.427076 216.10875"
   version="1.1"
   id="svg5"
   xml:space="preserve"
   sodipodi:docname="Blue Origin outline.svg"
   inkscape:version="1.2 (dc2aeda, 2022-05-15)"
   xmlns:inkscape="http://www.inkscape.org/namespaces/inkscape"
   xmlns:sodipodi="http://sodipodi.sourceforge.net/DTD/sodipodi-0.dtd"
   xmlns="http://www.w3.org/2000/svg"
   xmlns:svg="http://www.w3.org/2000/svg"><sodipodi:namedview
     id="namedview7"
     pagecolor="#ffffff"
     bordercolor="#000000"
     borderopacity="0.25"
     inkscape:showpageshadow="2"
     inkscape:pageopacity="0.0"
     inkscape:pagecheckerboard="0"
     inkscape:deskcolor="#d1d1d1"
     inkscape:document-units="mm"
     showgrid="false"
     inkscape:zoom="5.8388904"
     inkscape:cx="91.626999"
     inkscape:cy="777.11684"
     inkscape:window-width="1800"
     inkscape:window-height="1097"
     inkscape:window-x="0"
     inkscape:window-y="44"
     inkscape:window-maximized="0"
     inkscape:current-layer="layer1" /><defs
     id="defs2" /><g
     inkscape:label="Layer 1"
     inkscape:groupmode="layer"
     id="layer1"
     transform="translate(-83.451363,-62.551863)"><path
       style="fill:none;stroke:#000000;stroke-width:0.264583;stroke-opacity:1"
       d="m 88.90575,278.00969 c -0.364564,-0.5564 -0.427304,-1.62333 -0.427304,-7.26657 v -6.6144 l -2.513542,-6.81424 -2.513541,-6.81424 v -3.76124 -3.76124 l 3.307291,-9.04102 3.307292,-9.04102 V 195.74741 166.5991 l -2.257341,-2.24312 -2.25734,-2.24311 0.07453,-2.10745 0.07453,-2.10744 2.173155,-1.33214 2.173158,-1.33214 0.0097,-34.6018 c 0.0033,-11.804 0.07534,-35.242055 0.409231,-38.496872 1.324801,-12.914348 4.611939,-20.295236 8.697301,-19.528817 3.17239,0.595146 5.76895,6.360951 7.21918,16.030613 0.40927,2.728835 0.47146,6.833547 0.60295,39.791406 l 0.14662,36.74869 2.11667,1.3126 c 1.16416,0.72193 2.20414,1.44908 2.31105,1.61589 0.10691,0.16681 0.19621,1.05378 0.19844,1.97104 l 0.004,1.66775 -2.38125,2.49961 -2.38125,2.49961 v 28.90192 28.90192 c 2.29305,6.30004 4.58611,12.60008 6.87916,18.90012 v 3.30782 3.30783 l -2.64583,7.18065 -2.64583,7.18066 v 6.72187 c 0,4.30485 -0.11864,6.47024 -0.26459,6.72187 -0.19994,0.34473 -0.0872,0.17306 -0.26458,0.38407 -0.33881,0.40299 -0.64284,0.38407 -3.70417,0.38407 -3.05637,0.005 -5.080414,-0.01 -7.79307,-0.002 -1.449148,0.0218 -4.649678,0.0245 -5.537954,0.0265 -1.503593,0 -1.736349,-0.0717 -2.116667,-0.65214 z"
       id="path483"
       sodipodi:nodetypes="cscccccccccccccccssssscsscccccccccccsssccccc" /></g></svg>
