<?xml version="1.0" encoding="UTF-8" standalone="no"?>
<!-- Created with Inkscape (http://www.inkscape.org/) -->

<svg
   width="308.50421mm"
   height="52.18816mm"
   viewBox="0 0 308.50421 52.18816"
   version="1.1"
   id="svg5"
   xml:space="preserve"
   sodipodi:docname="Blue Origin words.svg"
   inkscape:version="1.2 (dc2aeda, 2022-05-15)"
   xmlns:inkscape="http://www.inkscape.org/namespaces/inkscape"
   xmlns:sodipodi="http://sodipodi.sourceforge.net/DTD/sodipodi-0.dtd"
   xmlns="http://www.w3.org/2000/svg"
   xmlns:svg="http://www.w3.org/2000/svg"><sodipodi:namedview
     id="namedview7"
     pagecolor="#ffffff"
     bordercolor="#000000"
     borderopacity="0.25"
     inkscape:showpageshadow="2"
     inkscape:pageopacity="0.0"
     inkscape:pagecheckerboard="0"
     inkscape:deskcolor="#d1d1d1"
     inkscape:document-units="mm"
     showgrid="false"
     inkscape:zoom="0.6074876"
     inkscape:cx="582.72794"
     inkscape:cy="96.298261"
     inkscape:window-width="1800"
     inkscape:window-height="1097"
     inkscape:window-x="1"
     inkscape:window-y="44"
     inkscape:window-maximized="0"
     inkscape:current-layer="layer1" /><defs
     id="defs2" /><g
     inkscape:label="Layer 1"
     inkscape:groupmode="layer"
     id="layer1"
     transform="translate(175.15786,-143.62235)"><path
       style="fill:#000000;stroke-width:0.264583"
       d="m -103.83281,195.53422 c -4.39274,-0.79559 -7.34139,-2.78341 -9.0083,-6.07289 -1.44916,-2.8598 -1.45444,-2.95005 -1.45868,-24.95795 l -0.004,-20.31316 4.43177,0.0725 4.43178,0.0725 0.13229,20.37292 c 0.0957,14.74045 0.21701,20.51921 0.43872,20.90208 0.90669,1.56572 2.96046,2.39446 4.985235,2.01166 1.480989,-0.28 2.20255,-0.78642 2.866274,-2.01166 0.571804,-1.05556 0.573502,-1.11126 0.647364,-21.23281 l 0.07405,-20.17448 h 4.502084 4.502084 l -0.09213,20.57135 c -0.0799,17.84114 -0.147757,20.75268 -0.511265,21.93756 -0.709235,2.3118 -1.607421,3.86254 -3.124925,5.39526 -2.304706,2.3278 -4.912059,3.3409 -9.128131,3.54677 -1.30969,0.0639 -2.96763,0.0101 -3.68432,-0.11973 z m 82.599844,-0.0107 c -4.748274,-0.79955 -8.153821,-3.5227 -9.797664,-7.83446 -0.588296,-1.54308 -0.590775,-1.61841 -0.590775,-17.95375 v -16.40417 l 0.617003,-1.78629 c 1.375725,-3.98288 4.415465,-6.64966 8.685445,-7.61979 2.215732,-0.50341 6.585199,-0.35931 8.689219,0.28656 4.5524152,1.39746 7.453926,4.62663 8.471196,9.42782 0.5661845,2.6722 0.5599986,29.54481 -0.00741,32.23545 -1.1056065,5.24271 -4.5853721,8.59788 -9.900611,9.54612 -2.200748,0.39262 -4.241914,0.42655 -6.166395,0.1025 z m 5.089686,-8.12768 c 0.604734,-0.3021 1.134549,-0.87572 1.526985,-1.65324 l 0.60094,-1.19062 -0.07177,-15.21354 c -0.07815,-16.56527 -0.03924,-16.14197 -1.589574,-17.28928 -0.467852,-0.34622 -1.273678,-0.57557 -2.277375,-0.64818 -2.137545,-0.15461 -3.725293,0.54872 -4.425966,1.9606 -0.486082,0.97948 -0.510111,1.75079 -0.510111,16.37373 0,14.95148 0.01384,15.36963 0.538168,16.27188 0.710234,1.22212 2.010968,1.85126 3.827457,1.85126 0.85594,0 1.83656,-0.19051 2.38125,-0.46261 z m 80.621862,8.0108 c -3.935553,-0.81939 -6.857082,-2.96681 -8.497591,-6.24599 -1.451856,-2.90209 -1.514364,-3.80878 -1.421278,-20.61596 0.08306,-14.99695 0.09267,-15.23584 0.675198,-16.7799 1.584521,-4.19996 4.187518,-6.57264 8.455385,-7.70722 2.036268,-0.54133 6.609508,-0.53717 8.647999,0.008 4.670771,1.24882 7.791,4.48653 8.768609,9.09875 0.204533,0.96496 0.373946,3.09393 0.376473,4.73104 l 0.0046,2.97656 H 77.01663 72.545285 l -0.09272,-3.37344 c -0.105775,-3.84858 -0.484026,-4.87995 -2.086091,-5.68813 -2.020528,-1.01927 -5.332833,-0.26018 -6.257306,1.43401 -0.448855,0.82257 -0.480568,1.90209 -0.480568,16.35881 0,17.22535 -0.06316,16.6025 1.798783,17.73779 1.168363,0.7124 3.925673,0.71289 5.322088,0.001 2.056078,-1.04825 2.490576,-2.27238 2.516291,-7.08927 l 0.02013,-3.77041 H 70.243178 67.20047 v -3.57188 -3.57187 h 7.011458 7.011459 v 13.23599 13.23599 l -2.315105,-1.55519 -2.315104,-1.55519 -1.190625,0.75457 c -2.855984,1.81003 -7.564699,2.65144 -10.923971,1.95203 z M -140.76203,169.60301 v -25.4 h 4.49792 4.49791 v 21.43125 21.43125 h 6.74688 6.74687 v 3.96875 3.96875 h -11.24479 -11.24479 z m 60.854167,0 v -25.4 h 11.773958 11.773958 v 3.96875 3.96875 h -7.276041 -7.276042 v 6.34474 6.34474 l 5.622396,0.0714 5.622396,0.0714 v 3.83646 3.83646 l -5.622396,0.0714 -5.622396,0.0714 v 7.13848 7.13849 h 7.805208 7.805209 v 3.96875 3.96875 h -12.303125 -12.303125 z m 98.394877,15.0151 -3.068135,-10.38489 -2.155039,-0.0768 -2.155037,-0.0768 v 10.32945 10.32945 H 6.6108867 2.11297 V 169.47081 144.2031 l 7.8713542,0.005 c 8.6186728,0.005 10.3827128,0.2082 13.0227358,1.49984 2.886877,1.41242 5.026028,4.36367 5.813531,8.02057 0.882729,4.09911 0.55576,9.53073 -0.787281,13.07831 -0.585785,1.54733 -2.649495,3.97916 -4.19222,4.94003 l -0.629171,0.39187 3.608417,11.23396 c 1.984629,6.17867 3.60721,11.32325 3.605734,11.43239 -0.0016,0.10914 -1.998036,0.19844 -4.436801,0.19844 h -4.434118 l -3.068137,-10.3849 z m -0.875123,-18.42725 c 2.183263,-0.99159 2.858085,-2.65354 2.858085,-7.03889 0,-5.9709 -1.342559,-7.52316 -6.516902,-7.53482 l -2.579687,-0.006 v 7.54063 7.54062 l 2.579687,-0.006 c 1.936872,-0.004 2.848589,-0.12794 3.658817,-0.49592 z m 20.219829,3.41215 v -25.4 h 4.497917 4.497916 v 25.4 25.4 H 42.329637 37.83172 Z m 50.8,0 v -25.4 h 4.497917 4.497916 v 25.4 25.4 H 93.129637 88.63172 Z m 16.99816,0.0661 0.0675,-25.33386 3.96875,-0.0709 3.96875,-0.0709 5.68855,14.39209 5.68854,14.39209 0.13229,-14.32118 0.13229,-14.32118 4.0349,-0.073 4.03489,-0.073 v 25.40689 25.40689 l -4.03489,-0.004 -4.0349,-0.004 -5.68854,-14.41312 -5.68854,-14.41312 -0.0684,14.41713 -0.0684,14.41712 h -4.10011 -4.10009 l 0.0675,-25.33386 z m -280.78774,-0.19844 v -25.26771 h 7.76909 c 4.273,0 8.3549,0.1111 9.07088,0.24688 5.18437,0.98319 8.48121,4.36955 9.36705,9.62138 0.94321,5.59199 -0.75652,11.18899 -4.0338,13.28278 -0.68333,0.43656 -1.24315,0.85328 -1.24406,0.92604 -9e-4,0.0728 0.66536,0.54901 1.4806,1.05834 1.94466,1.21493 3.61203,3.46923 4.37786,5.91892 0.4775,1.5274 0.58701,2.49036 0.57557,5.06128 -0.0282,6.33482 -2.09879,10.62688 -6.17473,12.79933 -2.66243,1.41906 -4.22635,1.61073 -13.18482,1.61587 l -8.00364,0.005 z m 14.44513,17.73433 c 1.49276,-0.4433 2.78155,-1.62284 3.40416,-3.11557 0.60637,-1.4538 0.8011,-4.59238 0.41266,-6.65106 -0.67547,-3.5798 -2.48811,-4.91895 -6.95102,-5.13528 l -2.57968,-0.12504 v 7.70829 7.70829 h 2.20093 c 1.21052,0 2.79134,-0.17533 3.51295,-0.38963 z m -0.0112,-23.02148 c 2.13713,-1.07278 3.02852,-2.83112 3.02852,-5.97402 0,-3.21787 -1.07383,-5.39573 -3.07213,-6.23067 -0.53036,-0.2216 -1.8285,-0.36754 -3.26938,-0.36754 h -2.38974 v 6.61459 6.61458 h 2.19701 c 1.81166,0 2.42655,-0.11522 3.50572,-0.65694 z"
       id="path557" /></g></svg>
