G04 #@! TF.GenerationSoftware,KiCad,Pcbnew,(6.99.0-2452-gdb4f2d9dd8)*
G04 #@! TF.CreationDate,2022-08-02T21:03:54-05:00*
G04 #@! TF.ProjectId,CTCubed,43544375-6265-4642-9e6b-696361645f70,rev?*
G04 #@! TF.SameCoordinates,Original*
G04 #@! TF.FileFunction,Copper,L1,Top*
G04 #@! TF.FilePolarity,Positive*
%FSLAX46Y46*%
G04 Gerber Fmt 4.6, Leading zero omitted, Abs format (unit mm)*
G04 Created by KiCad (PCBNEW (6.99.0-2452-gdb4f2d9dd8)) date 2022-08-02 21:03:54*
%MOMM*%
%LPD*%
G01*
G04 APERTURE LIST*
G04 #@! TA.AperFunction,ComponentPad*
%ADD10R,1.800000X1.800000*%
G04 #@! TD*
G04 #@! TA.AperFunction,ComponentPad*
%ADD11C,1.800000*%
G04 #@! TD*
G04 #@! TA.AperFunction,ComponentPad*
%ADD12R,1.700000X1.700000*%
G04 #@! TD*
G04 #@! TA.AperFunction,ComponentPad*
%ADD13O,1.700000X1.700000*%
G04 #@! TD*
G04 APERTURE END LIST*
D10*
X128939999Y-96649999D03*
D11*
X128940000Y-94110000D03*
D12*
X146899999Y-94189999D03*
D13*
X146899999Y-96729999D03*
X149439999Y-94189999D03*
X149439999Y-96729999D03*
X151979999Y-94189999D03*
X151979999Y-96729999D03*
G04 #@! TA.AperFunction,NonConductor*
G36*
X150793226Y-94865670D02*
G01*
X150815483Y-94891357D01*
X150904278Y-95027268D01*
X150907803Y-95031097D01*
X150907806Y-95031101D01*
X150972511Y-95101388D01*
X151056760Y-95192906D01*
X151060879Y-95196112D01*
X151193211Y-95299111D01*
X151234424Y-95331189D01*
X151239005Y-95333668D01*
X151267680Y-95349186D01*
X151318071Y-95399199D01*
X151333423Y-95468516D01*
X151308863Y-95535129D01*
X151267681Y-95570813D01*
X151234424Y-95588811D01*
X151230313Y-95592010D01*
X151230311Y-95592012D01*
X151094124Y-95698012D01*
X151056760Y-95727094D01*
X151053228Y-95730931D01*
X150907806Y-95888899D01*
X150907803Y-95888903D01*
X150904278Y-95892732D01*
X150901427Y-95897096D01*
X150815483Y-96028643D01*
X150761479Y-96074732D01*
X150691132Y-96084307D01*
X150626774Y-96054330D01*
X150604517Y-96028643D01*
X150518573Y-95897096D01*
X150515722Y-95892732D01*
X150512197Y-95888903D01*
X150512194Y-95888899D01*
X150366772Y-95730931D01*
X150363240Y-95727094D01*
X150325876Y-95698012D01*
X150189689Y-95592012D01*
X150189687Y-95592010D01*
X150185576Y-95588811D01*
X150152320Y-95570814D01*
X150101929Y-95520801D01*
X150086577Y-95451484D01*
X150111137Y-95384871D01*
X150152320Y-95349186D01*
X150180995Y-95333668D01*
X150185576Y-95331189D01*
X150226790Y-95299111D01*
X150359121Y-95196112D01*
X150363240Y-95192906D01*
X150447489Y-95101388D01*
X150512194Y-95031101D01*
X150512197Y-95031097D01*
X150515722Y-95027268D01*
X150604517Y-94891357D01*
X150658521Y-94845268D01*
X150728868Y-94835693D01*
X150793226Y-94865670D01*
G37*
G04 #@! TD.AperFunction*
G04 #@! TA.AperFunction,NonConductor*
G36*
X148423439Y-95101388D02*
G01*
X148455755Y-95126638D01*
X148476526Y-95149201D01*
X148516760Y-95192906D01*
X148520879Y-95196112D01*
X148653211Y-95299111D01*
X148694424Y-95331189D01*
X148699005Y-95333668D01*
X148727680Y-95349186D01*
X148778071Y-95399199D01*
X148793423Y-95468516D01*
X148768863Y-95535129D01*
X148727681Y-95570813D01*
X148694424Y-95588811D01*
X148690313Y-95592010D01*
X148690311Y-95592012D01*
X148554124Y-95698012D01*
X148516760Y-95727094D01*
X148513228Y-95730931D01*
X148367806Y-95888899D01*
X148367803Y-95888903D01*
X148364278Y-95892732D01*
X148361427Y-95897096D01*
X148275483Y-96028643D01*
X148221479Y-96074732D01*
X148151132Y-96084307D01*
X148086774Y-96054330D01*
X148064517Y-96028643D01*
X147978573Y-95897096D01*
X147975722Y-95892732D01*
X147972197Y-95888903D01*
X147972194Y-95888899D01*
X147832525Y-95737180D01*
X147801104Y-95673515D01*
X147809091Y-95602969D01*
X147853949Y-95547940D01*
X147881191Y-95533787D01*
X147996204Y-95490889D01*
X148008536Y-95481658D01*
X148106050Y-95408659D01*
X148113261Y-95403261D01*
X148200889Y-95286204D01*
X148244998Y-95167944D01*
X148287545Y-95111108D01*
X148354065Y-95086297D01*
X148423439Y-95101388D01*
G37*
G04 #@! TD.AperFunction*
G04 #@! TA.AperFunction,NonConductor*
G36*
X138457918Y-31964228D02*
G01*
X169594455Y-44707379D01*
X169649923Y-44751692D01*
X169672629Y-44818960D01*
X169671622Y-44840652D01*
X162505379Y-98540975D01*
X162504155Y-98550149D01*
X162475318Y-98615025D01*
X162415984Y-98654012D01*
X162379241Y-98659482D01*
X147049150Y-98656980D01*
X138443867Y-98655576D01*
X138443857Y-98655576D01*
X114930016Y-98649528D01*
X114861900Y-98629508D01*
X114815421Y-98575841D01*
X114805262Y-98540975D01*
X114185744Y-94110000D01*
X127526673Y-94110000D01*
X127545949Y-94342626D01*
X127547230Y-94347684D01*
X127547230Y-94347685D01*
X127565398Y-94419427D01*
X127603251Y-94568907D01*
X127697016Y-94782669D01*
X127699866Y-94787031D01*
X127699868Y-94787035D01*
X127737914Y-94845268D01*
X127824686Y-94978083D01*
X127828211Y-94981912D01*
X127828214Y-94981916D01*
X127865947Y-95022904D01*
X127909843Y-95070587D01*
X127941263Y-95134251D01*
X127933276Y-95204797D01*
X127888418Y-95259826D01*
X127861174Y-95273979D01*
X127802242Y-95295960D01*
X127802238Y-95295962D01*
X127793796Y-95299111D01*
X127676739Y-95386739D01*
X127671341Y-95393950D01*
X127596417Y-95494037D01*
X127589111Y-95503796D01*
X127538011Y-95640799D01*
X127531500Y-95701362D01*
X127531500Y-97598638D01*
X127538011Y-97659201D01*
X127589111Y-97796204D01*
X127676739Y-97913261D01*
X127683950Y-97918659D01*
X127763677Y-97978342D01*
X127793796Y-98000889D01*
X127930799Y-98051989D01*
X127967705Y-98055957D01*
X127988012Y-98058140D01*
X127988015Y-98058140D01*
X127991362Y-98058500D01*
X129888638Y-98058500D01*
X129891985Y-98058140D01*
X129891988Y-98058140D01*
X129912295Y-98055957D01*
X129949201Y-98051989D01*
X130086204Y-98000889D01*
X130116324Y-97978342D01*
X130196050Y-97918659D01*
X130203261Y-97913261D01*
X130290889Y-97796204D01*
X130341989Y-97659201D01*
X130348500Y-97598638D01*
X130348500Y-96730000D01*
X145536844Y-96730000D01*
X145555436Y-96954368D01*
X145610704Y-97172616D01*
X145701140Y-97378791D01*
X145703990Y-97383153D01*
X145703992Y-97383157D01*
X145718701Y-97405670D01*
X145824278Y-97567268D01*
X145827803Y-97571097D01*
X145827806Y-97571101D01*
X145850055Y-97595269D01*
X145976760Y-97732906D01*
X146154424Y-97871189D01*
X146352426Y-97978342D01*
X146565365Y-98051444D01*
X146570499Y-98052301D01*
X146570504Y-98052302D01*
X146782294Y-98087643D01*
X146782296Y-98087643D01*
X146787431Y-98088500D01*
X147012569Y-98088500D01*
X147017704Y-98087643D01*
X147017706Y-98087643D01*
X147229496Y-98052302D01*
X147229501Y-98052301D01*
X147234635Y-98051444D01*
X147447574Y-97978342D01*
X147645576Y-97871189D01*
X147823240Y-97732906D01*
X147949945Y-97595269D01*
X147972194Y-97571101D01*
X147972197Y-97571097D01*
X147975722Y-97567268D01*
X148064517Y-97431357D01*
X148118521Y-97385268D01*
X148188868Y-97375693D01*
X148253226Y-97405670D01*
X148275483Y-97431357D01*
X148364278Y-97567268D01*
X148367803Y-97571097D01*
X148367806Y-97571101D01*
X148390055Y-97595269D01*
X148516760Y-97732906D01*
X148694424Y-97871189D01*
X148892426Y-97978342D01*
X149105365Y-98051444D01*
X149110499Y-98052301D01*
X149110504Y-98052302D01*
X149322294Y-98087643D01*
X149322296Y-98087643D01*
X149327431Y-98088500D01*
X149552569Y-98088500D01*
X149557704Y-98087643D01*
X149557706Y-98087643D01*
X149769496Y-98052302D01*
X149769501Y-98052301D01*
X149774635Y-98051444D01*
X149987574Y-97978342D01*
X150185576Y-97871189D01*
X150363240Y-97732906D01*
X150489945Y-97595269D01*
X150512194Y-97571101D01*
X150512197Y-97571097D01*
X150515722Y-97567268D01*
X150604517Y-97431357D01*
X150658521Y-97385268D01*
X150728868Y-97375693D01*
X150793226Y-97405670D01*
X150815483Y-97431357D01*
X150904278Y-97567268D01*
X150907803Y-97571097D01*
X150907806Y-97571101D01*
X150930055Y-97595269D01*
X151056760Y-97732906D01*
X151234424Y-97871189D01*
X151432426Y-97978342D01*
X151645365Y-98051444D01*
X151650499Y-98052301D01*
X151650504Y-98052302D01*
X151862294Y-98087643D01*
X151862296Y-98087643D01*
X151867431Y-98088500D01*
X152092569Y-98088500D01*
X152097704Y-98087643D01*
X152097706Y-98087643D01*
X152309496Y-98052302D01*
X152309501Y-98052301D01*
X152314635Y-98051444D01*
X152527574Y-97978342D01*
X152725576Y-97871189D01*
X152903240Y-97732906D01*
X153029945Y-97595269D01*
X153052194Y-97571101D01*
X153052197Y-97571097D01*
X153055722Y-97567268D01*
X153161299Y-97405670D01*
X153176008Y-97383157D01*
X153176010Y-97383153D01*
X153178860Y-97378791D01*
X153269296Y-97172616D01*
X153324564Y-96954368D01*
X153343156Y-96730000D01*
X153324564Y-96505632D01*
X153269296Y-96287384D01*
X153178860Y-96081209D01*
X153174629Y-96074732D01*
X153058573Y-95897096D01*
X153055722Y-95892732D01*
X153052197Y-95888903D01*
X153052194Y-95888899D01*
X152906772Y-95730931D01*
X152903240Y-95727094D01*
X152865876Y-95698012D01*
X152729689Y-95592012D01*
X152729687Y-95592010D01*
X152725576Y-95588811D01*
X152692320Y-95570814D01*
X152641929Y-95520801D01*
X152626577Y-95451484D01*
X152651137Y-95384871D01*
X152692320Y-95349186D01*
X152720995Y-95333668D01*
X152725576Y-95331189D01*
X152766790Y-95299111D01*
X152899121Y-95196112D01*
X152903240Y-95192906D01*
X152987489Y-95101388D01*
X153052194Y-95031101D01*
X153052197Y-95031097D01*
X153055722Y-95027268D01*
X153161299Y-94865670D01*
X153176008Y-94843157D01*
X153176010Y-94843153D01*
X153178860Y-94838791D01*
X153269296Y-94632616D01*
X153324564Y-94414368D01*
X153330940Y-94337430D01*
X153342726Y-94195189D01*
X153343156Y-94190000D01*
X153324564Y-93965632D01*
X153269296Y-93747384D01*
X153178860Y-93541209D01*
X153174629Y-93534732D01*
X153058573Y-93357096D01*
X153055722Y-93352732D01*
X153052197Y-93348903D01*
X153052194Y-93348899D01*
X152906772Y-93190931D01*
X152903240Y-93187094D01*
X152757963Y-93074019D01*
X152729689Y-93052012D01*
X152729687Y-93052010D01*
X152725576Y-93048811D01*
X152527574Y-92941658D01*
X152314635Y-92868556D01*
X152309501Y-92867699D01*
X152309496Y-92867698D01*
X152097706Y-92832357D01*
X152097704Y-92832357D01*
X152092569Y-92831500D01*
X151867431Y-92831500D01*
X151862296Y-92832357D01*
X151862294Y-92832357D01*
X151650504Y-92867698D01*
X151650499Y-92867699D01*
X151645365Y-92868556D01*
X151432426Y-92941658D01*
X151234424Y-93048811D01*
X151230313Y-93052010D01*
X151230311Y-93052012D01*
X151202037Y-93074019D01*
X151056760Y-93187094D01*
X151053228Y-93190931D01*
X150907806Y-93348899D01*
X150907803Y-93348903D01*
X150904278Y-93352732D01*
X150832506Y-93462588D01*
X150815483Y-93488643D01*
X150761479Y-93534732D01*
X150691132Y-93544307D01*
X150626774Y-93514330D01*
X150604517Y-93488643D01*
X150587494Y-93462588D01*
X150515722Y-93352732D01*
X150512197Y-93348903D01*
X150512194Y-93348899D01*
X150366772Y-93190931D01*
X150363240Y-93187094D01*
X150217963Y-93074019D01*
X150189689Y-93052012D01*
X150189687Y-93052010D01*
X150185576Y-93048811D01*
X149987574Y-92941658D01*
X149774635Y-92868556D01*
X149769501Y-92867699D01*
X149769496Y-92867698D01*
X149557706Y-92832357D01*
X149557704Y-92832357D01*
X149552569Y-92831500D01*
X149327431Y-92831500D01*
X149322296Y-92832357D01*
X149322294Y-92832357D01*
X149110504Y-92867698D01*
X149110499Y-92867699D01*
X149105365Y-92868556D01*
X148892426Y-92941658D01*
X148694424Y-93048811D01*
X148690313Y-93052010D01*
X148690311Y-93052012D01*
X148662037Y-93074019D01*
X148516760Y-93187094D01*
X148513228Y-93190931D01*
X148455755Y-93253362D01*
X148394901Y-93289933D01*
X148323937Y-93287798D01*
X148265392Y-93247636D01*
X148244998Y-93212056D01*
X148204038Y-93102239D01*
X148204037Y-93102237D01*
X148200889Y-93093796D01*
X148113261Y-92976739D01*
X148046564Y-92926810D01*
X148003418Y-92894511D01*
X148003416Y-92894510D01*
X147996204Y-92889111D01*
X147859201Y-92838011D01*
X147822295Y-92834043D01*
X147801988Y-92831860D01*
X147801985Y-92831860D01*
X147798638Y-92831500D01*
X146001362Y-92831500D01*
X145998015Y-92831860D01*
X145998012Y-92831860D01*
X145977705Y-92834043D01*
X145940799Y-92838011D01*
X145803796Y-92889111D01*
X145796584Y-92894510D01*
X145796582Y-92894511D01*
X145753436Y-92926810D01*
X145686739Y-92976739D01*
X145599111Y-93093796D01*
X145548011Y-93230799D01*
X145541500Y-93291362D01*
X145541500Y-95088638D01*
X145548011Y-95149201D01*
X145599111Y-95286204D01*
X145686739Y-95403261D01*
X145693950Y-95408659D01*
X145791465Y-95481658D01*
X145803796Y-95490889D01*
X145918808Y-95533787D01*
X145975642Y-95576333D01*
X146000453Y-95642853D01*
X145985361Y-95712227D01*
X145967475Y-95737180D01*
X145827806Y-95888899D01*
X145827803Y-95888903D01*
X145824278Y-95892732D01*
X145821427Y-95897096D01*
X145705372Y-96074732D01*
X145701140Y-96081209D01*
X145610704Y-96287384D01*
X145555436Y-96505632D01*
X145536844Y-96730000D01*
X130348500Y-96730000D01*
X130348500Y-95701362D01*
X130341989Y-95640799D01*
X130290889Y-95503796D01*
X130283584Y-95494037D01*
X130208659Y-95393950D01*
X130203261Y-95386739D01*
X130086204Y-95299111D01*
X130077762Y-95295962D01*
X130077758Y-95295960D01*
X130018826Y-95273979D01*
X129961991Y-95231433D01*
X129937180Y-95164912D01*
X129952272Y-95095538D01*
X129970156Y-95070589D01*
X130014053Y-95022904D01*
X130051786Y-94981916D01*
X130051789Y-94981912D01*
X130055314Y-94978083D01*
X130142086Y-94845268D01*
X130180132Y-94787035D01*
X130180134Y-94787031D01*
X130182984Y-94782669D01*
X130276749Y-94568907D01*
X130314603Y-94419427D01*
X130332770Y-94347685D01*
X130332770Y-94347684D01*
X130334051Y-94342626D01*
X130353327Y-94110000D01*
X130341795Y-93970828D01*
X130334482Y-93882570D01*
X130334481Y-93882565D01*
X130334051Y-93877374D01*
X130276749Y-93651093D01*
X130182984Y-93437331D01*
X130055314Y-93241917D01*
X130051789Y-93238088D01*
X130051786Y-93238084D01*
X129900752Y-93074019D01*
X129897220Y-93070182D01*
X129893108Y-93066981D01*
X129893102Y-93066976D01*
X129717130Y-92930011D01*
X129717128Y-92930009D01*
X129713017Y-92926810D01*
X129603787Y-92867698D01*
X129512312Y-92818194D01*
X129512309Y-92818193D01*
X129507727Y-92815713D01*
X129286951Y-92739920D01*
X129281817Y-92739063D01*
X129281812Y-92739062D01*
X129061849Y-92702357D01*
X129061846Y-92702357D01*
X129056712Y-92701500D01*
X128823288Y-92701500D01*
X128818154Y-92702357D01*
X128818151Y-92702357D01*
X128598188Y-92739062D01*
X128598183Y-92739063D01*
X128593049Y-92739920D01*
X128372273Y-92815713D01*
X128367691Y-92818193D01*
X128367688Y-92818194D01*
X128276213Y-92867698D01*
X128166983Y-92926810D01*
X128162872Y-92930009D01*
X128162870Y-92930011D01*
X127986898Y-93066976D01*
X127986892Y-93066981D01*
X127982780Y-93070182D01*
X127979248Y-93074019D01*
X127828214Y-93238084D01*
X127828211Y-93238088D01*
X127824686Y-93241917D01*
X127697016Y-93437331D01*
X127603251Y-93651093D01*
X127545949Y-93877374D01*
X127545519Y-93882565D01*
X127545518Y-93882570D01*
X127538205Y-93970828D01*
X127526673Y-94110000D01*
X114185744Y-94110000D01*
X107328979Y-45068368D01*
X107339356Y-44998134D01*
X107386057Y-44944659D01*
X107405070Y-44934712D01*
X138361508Y-31964629D01*
X138432065Y-31956753D01*
X138457918Y-31964228D01*
G37*
G04 #@! TD.AperFunction*
M02*
