%TF.GenerationSoftware,KiCad,Pcbnew,(6.99.0-2452-gdb4f2d9dd8)*%
%TF.CreationDate,2022-08-02T21:03:57-05:00*%
%TF.ProjectId,CTCubed,43544375-6265-4642-9e6b-696361645f70,rev?*%
%TF.SameCoordinates,Original*%
%TF.FileFunction,Drillmap*%
%TF.FilePolarity,Positive*%
%FSLAX45Y45*%
G04 Gerber Fmt 4.5, Leading zero omitted, Abs format (unit mm)*
G04 Created by KiCad (PCBNEW (6.99.0-2452-gdb4f2d9dd8)) date 2022-08-02 21:03:57*
%MOMM*%
%LPD*%
G01*
G04 APERTURE LIST*
%ADD10C,0.100000*%
%ADD11C,0.200000*%
%ADD12C,0.090000*%
G04 APERTURE END LIST*
D10*
X16968504Y-4474391D02*
X16249000Y-9866000D01*
X13844376Y-9865608D01*
X11482000Y-9865000D01*
X10731497Y-4497174D01*
X10731509Y-4497187D01*
X13840963Y-3194392D01*
X16968504Y-4474391D01*
D11*
D12*
X12849000Y-9366000D02*
X12939000Y-9456000D01*
X12939000Y-9366000D02*
X12849000Y-9456000D01*
X12849000Y-9620000D02*
X12939000Y-9710000D01*
X12939000Y-9620000D02*
X12849000Y-9710000D01*
D10*
X14740000Y-9419000D02*
G75*
G03*
X14740000Y-9419000I-50000J0D01*
G01*
X14740000Y-9673000D02*
G75*
G03*
X14740000Y-9673000I-50000J0D01*
G01*
X14994000Y-9419000D02*
G75*
G03*
X14994000Y-9419000I-50000J0D01*
G01*
X14994000Y-9673000D02*
G75*
G03*
X14994000Y-9673000I-50000J0D01*
G01*
X15248000Y-9419000D02*
G75*
G03*
X15248000Y-9419000I-50000J0D01*
G01*
X15248000Y-9673000D02*
G75*
G03*
X15248000Y-9673000I-50000J0D01*
G01*
D11*
X10974116Y-10164476D02*
X10974116Y-9964476D01*
X10974116Y-9964476D02*
X11021735Y-9964476D01*
X11021735Y-9964476D02*
X11050306Y-9974000D01*
X11050306Y-9974000D02*
X11069354Y-9993048D01*
X11069354Y-9993048D02*
X11078877Y-10012095D01*
X11078877Y-10012095D02*
X11088401Y-10050190D01*
X11088401Y-10050190D02*
X11088401Y-10078762D01*
X11088401Y-10078762D02*
X11078877Y-10116857D01*
X11078877Y-10116857D02*
X11069354Y-10135905D01*
X11069354Y-10135905D02*
X11050306Y-10154952D01*
X11050306Y-10154952D02*
X11021735Y-10164476D01*
X11021735Y-10164476D02*
X10974116Y-10164476D01*
X11174116Y-10164476D02*
X11174116Y-10031143D01*
X11174116Y-10069238D02*
X11183639Y-10050190D01*
X11183639Y-10050190D02*
X11193163Y-10040667D01*
X11193163Y-10040667D02*
X11212211Y-10031143D01*
X11212211Y-10031143D02*
X11231258Y-10031143D01*
X11297925Y-10164476D02*
X11297925Y-10031143D01*
X11297925Y-9964476D02*
X11288401Y-9974000D01*
X11288401Y-9974000D02*
X11297925Y-9983524D01*
X11297925Y-9983524D02*
X11307449Y-9974000D01*
X11307449Y-9974000D02*
X11297925Y-9964476D01*
X11297925Y-9964476D02*
X11297925Y-9983524D01*
X11421734Y-10164476D02*
X11402687Y-10154952D01*
X11402687Y-10154952D02*
X11393163Y-10135905D01*
X11393163Y-10135905D02*
X11393163Y-9964476D01*
X11526496Y-10164476D02*
X11507449Y-10154952D01*
X11507449Y-10154952D02*
X11497925Y-10135905D01*
X11497925Y-10135905D02*
X11497925Y-9964476D01*
X11722687Y-10164476D02*
X11722687Y-9964476D01*
X11722687Y-9964476D02*
X11789354Y-10107333D01*
X11789354Y-10107333D02*
X11856020Y-9964476D01*
X11856020Y-9964476D02*
X11856020Y-10164476D01*
X12036973Y-10164476D02*
X12036973Y-10059714D01*
X12036973Y-10059714D02*
X12027449Y-10040667D01*
X12027449Y-10040667D02*
X12008401Y-10031143D01*
X12008401Y-10031143D02*
X11970306Y-10031143D01*
X11970306Y-10031143D02*
X11951258Y-10040667D01*
X12036973Y-10154952D02*
X12017925Y-10164476D01*
X12017925Y-10164476D02*
X11970306Y-10164476D01*
X11970306Y-10164476D02*
X11951258Y-10154952D01*
X11951258Y-10154952D02*
X11941734Y-10135905D01*
X11941734Y-10135905D02*
X11941734Y-10116857D01*
X11941734Y-10116857D02*
X11951258Y-10097810D01*
X11951258Y-10097810D02*
X11970306Y-10088286D01*
X11970306Y-10088286D02*
X12017925Y-10088286D01*
X12017925Y-10088286D02*
X12036973Y-10078762D01*
X12132211Y-10031143D02*
X12132211Y-10231143D01*
X12132211Y-10040667D02*
X12151258Y-10031143D01*
X12151258Y-10031143D02*
X12189354Y-10031143D01*
X12189354Y-10031143D02*
X12208401Y-10040667D01*
X12208401Y-10040667D02*
X12217925Y-10050190D01*
X12217925Y-10050190D02*
X12227449Y-10069238D01*
X12227449Y-10069238D02*
X12227449Y-10126381D01*
X12227449Y-10126381D02*
X12217925Y-10145429D01*
X12217925Y-10145429D02*
X12208401Y-10154952D01*
X12208401Y-10154952D02*
X12189354Y-10164476D01*
X12189354Y-10164476D02*
X12151258Y-10164476D01*
X12151258Y-10164476D02*
X12132211Y-10154952D01*
X12313163Y-10145429D02*
X12322687Y-10154952D01*
X12322687Y-10154952D02*
X12313163Y-10164476D01*
X12313163Y-10164476D02*
X12303639Y-10154952D01*
X12303639Y-10154952D02*
X12313163Y-10145429D01*
X12313163Y-10145429D02*
X12313163Y-10164476D01*
X12313163Y-10040667D02*
X12322687Y-10050190D01*
X12322687Y-10050190D02*
X12313163Y-10059714D01*
X12313163Y-10059714D02*
X12303639Y-10050190D01*
X12303639Y-10050190D02*
X12313163Y-10040667D01*
X12313163Y-10040667D02*
X12313163Y-10059714D01*
D12*
X10636497Y-10466000D02*
X10726497Y-10556000D01*
X10726497Y-10466000D02*
X10636497Y-10556000D01*
D11*
X11012211Y-10384476D02*
X11031258Y-10384476D01*
X11031258Y-10384476D02*
X11050306Y-10394000D01*
X11050306Y-10394000D02*
X11059830Y-10403524D01*
X11059830Y-10403524D02*
X11069354Y-10422571D01*
X11069354Y-10422571D02*
X11078877Y-10460667D01*
X11078877Y-10460667D02*
X11078877Y-10508286D01*
X11078877Y-10508286D02*
X11069354Y-10546381D01*
X11069354Y-10546381D02*
X11059830Y-10565429D01*
X11059830Y-10565429D02*
X11050306Y-10574952D01*
X11050306Y-10574952D02*
X11031258Y-10584476D01*
X11031258Y-10584476D02*
X11012211Y-10584476D01*
X11012211Y-10584476D02*
X10993163Y-10574952D01*
X10993163Y-10574952D02*
X10983639Y-10565429D01*
X10983639Y-10565429D02*
X10974116Y-10546381D01*
X10974116Y-10546381D02*
X10964592Y-10508286D01*
X10964592Y-10508286D02*
X10964592Y-10460667D01*
X10964592Y-10460667D02*
X10974116Y-10422571D01*
X10974116Y-10422571D02*
X10983639Y-10403524D01*
X10983639Y-10403524D02*
X10993163Y-10394000D01*
X10993163Y-10394000D02*
X11012211Y-10384476D01*
X11164592Y-10565429D02*
X11174116Y-10574952D01*
X11174116Y-10574952D02*
X11164592Y-10584476D01*
X11164592Y-10584476D02*
X11155068Y-10574952D01*
X11155068Y-10574952D02*
X11164592Y-10565429D01*
X11164592Y-10565429D02*
X11164592Y-10584476D01*
X11269354Y-10584476D02*
X11307449Y-10584476D01*
X11307449Y-10584476D02*
X11326496Y-10574952D01*
X11326496Y-10574952D02*
X11336020Y-10565429D01*
X11336020Y-10565429D02*
X11355068Y-10536857D01*
X11355068Y-10536857D02*
X11364592Y-10498762D01*
X11364592Y-10498762D02*
X11364592Y-10422571D01*
X11364592Y-10422571D02*
X11355068Y-10403524D01*
X11355068Y-10403524D02*
X11345544Y-10394000D01*
X11345544Y-10394000D02*
X11326496Y-10384476D01*
X11326496Y-10384476D02*
X11288401Y-10384476D01*
X11288401Y-10384476D02*
X11269354Y-10394000D01*
X11269354Y-10394000D02*
X11259830Y-10403524D01*
X11259830Y-10403524D02*
X11250306Y-10422571D01*
X11250306Y-10422571D02*
X11250306Y-10470190D01*
X11250306Y-10470190D02*
X11259830Y-10489238D01*
X11259830Y-10489238D02*
X11269354Y-10498762D01*
X11269354Y-10498762D02*
X11288401Y-10508286D01*
X11288401Y-10508286D02*
X11326496Y-10508286D01*
X11326496Y-10508286D02*
X11345544Y-10498762D01*
X11345544Y-10498762D02*
X11355068Y-10489238D01*
X11355068Y-10489238D02*
X11364592Y-10470190D01*
X11488401Y-10384476D02*
X11507449Y-10384476D01*
X11507449Y-10384476D02*
X11526496Y-10394000D01*
X11526496Y-10394000D02*
X11536020Y-10403524D01*
X11536020Y-10403524D02*
X11545544Y-10422571D01*
X11545544Y-10422571D02*
X11555068Y-10460667D01*
X11555068Y-10460667D02*
X11555068Y-10508286D01*
X11555068Y-10508286D02*
X11545544Y-10546381D01*
X11545544Y-10546381D02*
X11536020Y-10565429D01*
X11536020Y-10565429D02*
X11526496Y-10574952D01*
X11526496Y-10574952D02*
X11507449Y-10584476D01*
X11507449Y-10584476D02*
X11488401Y-10584476D01*
X11488401Y-10584476D02*
X11469354Y-10574952D01*
X11469354Y-10574952D02*
X11459830Y-10565429D01*
X11459830Y-10565429D02*
X11450306Y-10546381D01*
X11450306Y-10546381D02*
X11440782Y-10508286D01*
X11440782Y-10508286D02*
X11440782Y-10460667D01*
X11440782Y-10460667D02*
X11450306Y-10422571D01*
X11450306Y-10422571D02*
X11459830Y-10403524D01*
X11459830Y-10403524D02*
X11469354Y-10394000D01*
X11469354Y-10394000D02*
X11488401Y-10384476D01*
X11678877Y-10384476D02*
X11697925Y-10384476D01*
X11697925Y-10384476D02*
X11716973Y-10394000D01*
X11716973Y-10394000D02*
X11726496Y-10403524D01*
X11726496Y-10403524D02*
X11736020Y-10422571D01*
X11736020Y-10422571D02*
X11745544Y-10460667D01*
X11745544Y-10460667D02*
X11745544Y-10508286D01*
X11745544Y-10508286D02*
X11736020Y-10546381D01*
X11736020Y-10546381D02*
X11726496Y-10565429D01*
X11726496Y-10565429D02*
X11716973Y-10574952D01*
X11716973Y-10574952D02*
X11697925Y-10584476D01*
X11697925Y-10584476D02*
X11678877Y-10584476D01*
X11678877Y-10584476D02*
X11659830Y-10574952D01*
X11659830Y-10574952D02*
X11650306Y-10565429D01*
X11650306Y-10565429D02*
X11640782Y-10546381D01*
X11640782Y-10546381D02*
X11631258Y-10508286D01*
X11631258Y-10508286D02*
X11631258Y-10460667D01*
X11631258Y-10460667D02*
X11640782Y-10422571D01*
X11640782Y-10422571D02*
X11650306Y-10403524D01*
X11650306Y-10403524D02*
X11659830Y-10394000D01*
X11659830Y-10394000D02*
X11678877Y-10384476D01*
X11831258Y-10584476D02*
X11831258Y-10451143D01*
X11831258Y-10470190D02*
X11840782Y-10460667D01*
X11840782Y-10460667D02*
X11859830Y-10451143D01*
X11859830Y-10451143D02*
X11888401Y-10451143D01*
X11888401Y-10451143D02*
X11907449Y-10460667D01*
X11907449Y-10460667D02*
X11916973Y-10479714D01*
X11916973Y-10479714D02*
X11916973Y-10584476D01*
X11916973Y-10479714D02*
X11926496Y-10460667D01*
X11926496Y-10460667D02*
X11945544Y-10451143D01*
X11945544Y-10451143D02*
X11974115Y-10451143D01*
X11974115Y-10451143D02*
X11993163Y-10460667D01*
X11993163Y-10460667D02*
X12002687Y-10479714D01*
X12002687Y-10479714D02*
X12002687Y-10584476D01*
X12097925Y-10584476D02*
X12097925Y-10451143D01*
X12097925Y-10470190D02*
X12107449Y-10460667D01*
X12107449Y-10460667D02*
X12126496Y-10451143D01*
X12126496Y-10451143D02*
X12155068Y-10451143D01*
X12155068Y-10451143D02*
X12174116Y-10460667D01*
X12174116Y-10460667D02*
X12183639Y-10479714D01*
X12183639Y-10479714D02*
X12183639Y-10584476D01*
X12183639Y-10479714D02*
X12193163Y-10460667D01*
X12193163Y-10460667D02*
X12212211Y-10451143D01*
X12212211Y-10451143D02*
X12240782Y-10451143D01*
X12240782Y-10451143D02*
X12259830Y-10460667D01*
X12259830Y-10460667D02*
X12269354Y-10479714D01*
X12269354Y-10479714D02*
X12269354Y-10584476D01*
X12627449Y-10374952D02*
X12456020Y-10632095D01*
X12852211Y-10384476D02*
X12871258Y-10384476D01*
X12871258Y-10384476D02*
X12890306Y-10394000D01*
X12890306Y-10394000D02*
X12899830Y-10403524D01*
X12899830Y-10403524D02*
X12909354Y-10422571D01*
X12909354Y-10422571D02*
X12918877Y-10460667D01*
X12918877Y-10460667D02*
X12918877Y-10508286D01*
X12918877Y-10508286D02*
X12909354Y-10546381D01*
X12909354Y-10546381D02*
X12899830Y-10565429D01*
X12899830Y-10565429D02*
X12890306Y-10574952D01*
X12890306Y-10574952D02*
X12871258Y-10584476D01*
X12871258Y-10584476D02*
X12852211Y-10584476D01*
X12852211Y-10584476D02*
X12833163Y-10574952D01*
X12833163Y-10574952D02*
X12823639Y-10565429D01*
X12823639Y-10565429D02*
X12814116Y-10546381D01*
X12814116Y-10546381D02*
X12804592Y-10508286D01*
X12804592Y-10508286D02*
X12804592Y-10460667D01*
X12804592Y-10460667D02*
X12814116Y-10422571D01*
X12814116Y-10422571D02*
X12823639Y-10403524D01*
X12823639Y-10403524D02*
X12833163Y-10394000D01*
X12833163Y-10394000D02*
X12852211Y-10384476D01*
X13004592Y-10565429D02*
X13014116Y-10574952D01*
X13014116Y-10574952D02*
X13004592Y-10584476D01*
X13004592Y-10584476D02*
X12995068Y-10574952D01*
X12995068Y-10574952D02*
X13004592Y-10565429D01*
X13004592Y-10565429D02*
X13004592Y-10584476D01*
X13137925Y-10384476D02*
X13156973Y-10384476D01*
X13156973Y-10384476D02*
X13176020Y-10394000D01*
X13176020Y-10394000D02*
X13185544Y-10403524D01*
X13185544Y-10403524D02*
X13195068Y-10422571D01*
X13195068Y-10422571D02*
X13204592Y-10460667D01*
X13204592Y-10460667D02*
X13204592Y-10508286D01*
X13204592Y-10508286D02*
X13195068Y-10546381D01*
X13195068Y-10546381D02*
X13185544Y-10565429D01*
X13185544Y-10565429D02*
X13176020Y-10574952D01*
X13176020Y-10574952D02*
X13156973Y-10584476D01*
X13156973Y-10584476D02*
X13137925Y-10584476D01*
X13137925Y-10584476D02*
X13118877Y-10574952D01*
X13118877Y-10574952D02*
X13109354Y-10565429D01*
X13109354Y-10565429D02*
X13099830Y-10546381D01*
X13099830Y-10546381D02*
X13090306Y-10508286D01*
X13090306Y-10508286D02*
X13090306Y-10460667D01*
X13090306Y-10460667D02*
X13099830Y-10422571D01*
X13099830Y-10422571D02*
X13109354Y-10403524D01*
X13109354Y-10403524D02*
X13118877Y-10394000D01*
X13118877Y-10394000D02*
X13137925Y-10384476D01*
X13271258Y-10384476D02*
X13395068Y-10384476D01*
X13395068Y-10384476D02*
X13328401Y-10460667D01*
X13328401Y-10460667D02*
X13356973Y-10460667D01*
X13356973Y-10460667D02*
X13376020Y-10470190D01*
X13376020Y-10470190D02*
X13385544Y-10479714D01*
X13385544Y-10479714D02*
X13395068Y-10498762D01*
X13395068Y-10498762D02*
X13395068Y-10546381D01*
X13395068Y-10546381D02*
X13385544Y-10565429D01*
X13385544Y-10565429D02*
X13376020Y-10574952D01*
X13376020Y-10574952D02*
X13356973Y-10584476D01*
X13356973Y-10584476D02*
X13299830Y-10584476D01*
X13299830Y-10584476D02*
X13280782Y-10574952D01*
X13280782Y-10574952D02*
X13271258Y-10565429D01*
X13576020Y-10384476D02*
X13480782Y-10384476D01*
X13480782Y-10384476D02*
X13471258Y-10479714D01*
X13471258Y-10479714D02*
X13480782Y-10470190D01*
X13480782Y-10470190D02*
X13499830Y-10460667D01*
X13499830Y-10460667D02*
X13547449Y-10460667D01*
X13547449Y-10460667D02*
X13566497Y-10470190D01*
X13566497Y-10470190D02*
X13576020Y-10479714D01*
X13576020Y-10479714D02*
X13585544Y-10498762D01*
X13585544Y-10498762D02*
X13585544Y-10546381D01*
X13585544Y-10546381D02*
X13576020Y-10565429D01*
X13576020Y-10565429D02*
X13566497Y-10574952D01*
X13566497Y-10574952D02*
X13547449Y-10584476D01*
X13547449Y-10584476D02*
X13499830Y-10584476D01*
X13499830Y-10584476D02*
X13480782Y-10574952D01*
X13480782Y-10574952D02*
X13471258Y-10565429D01*
X13756973Y-10451143D02*
X13756973Y-10584476D01*
X13709354Y-10374952D02*
X13661735Y-10517810D01*
X13661735Y-10517810D02*
X13785544Y-10517810D01*
X13852211Y-10384476D02*
X13852211Y-10422571D01*
X13928401Y-10384476D02*
X13928401Y-10422571D01*
X14191259Y-10660667D02*
X14181735Y-10651143D01*
X14181735Y-10651143D02*
X14162687Y-10622571D01*
X14162687Y-10622571D02*
X14153163Y-10603524D01*
X14153163Y-10603524D02*
X14143639Y-10574952D01*
X14143639Y-10574952D02*
X14134116Y-10527333D01*
X14134116Y-10527333D02*
X14134116Y-10489238D01*
X14134116Y-10489238D02*
X14143639Y-10441619D01*
X14143639Y-10441619D02*
X14153163Y-10413048D01*
X14153163Y-10413048D02*
X14162687Y-10394000D01*
X14162687Y-10394000D02*
X14181735Y-10365429D01*
X14181735Y-10365429D02*
X14191259Y-10355905D01*
X14257925Y-10403524D02*
X14267449Y-10394000D01*
X14267449Y-10394000D02*
X14286497Y-10384476D01*
X14286497Y-10384476D02*
X14334116Y-10384476D01*
X14334116Y-10384476D02*
X14353163Y-10394000D01*
X14353163Y-10394000D02*
X14362687Y-10403524D01*
X14362687Y-10403524D02*
X14372211Y-10422571D01*
X14372211Y-10422571D02*
X14372211Y-10441619D01*
X14372211Y-10441619D02*
X14362687Y-10470190D01*
X14362687Y-10470190D02*
X14248401Y-10584476D01*
X14248401Y-10584476D02*
X14372211Y-10584476D01*
X14577925Y-10584476D02*
X14577925Y-10384476D01*
X14663639Y-10584476D02*
X14663639Y-10479714D01*
X14663639Y-10479714D02*
X14654116Y-10460667D01*
X14654116Y-10460667D02*
X14635068Y-10451143D01*
X14635068Y-10451143D02*
X14606497Y-10451143D01*
X14606497Y-10451143D02*
X14587449Y-10460667D01*
X14587449Y-10460667D02*
X14577925Y-10470190D01*
X14787449Y-10584476D02*
X14768401Y-10574952D01*
X14768401Y-10574952D02*
X14758878Y-10565429D01*
X14758878Y-10565429D02*
X14749354Y-10546381D01*
X14749354Y-10546381D02*
X14749354Y-10489238D01*
X14749354Y-10489238D02*
X14758878Y-10470190D01*
X14758878Y-10470190D02*
X14768401Y-10460667D01*
X14768401Y-10460667D02*
X14787449Y-10451143D01*
X14787449Y-10451143D02*
X14816020Y-10451143D01*
X14816020Y-10451143D02*
X14835068Y-10460667D01*
X14835068Y-10460667D02*
X14844592Y-10470190D01*
X14844592Y-10470190D02*
X14854116Y-10489238D01*
X14854116Y-10489238D02*
X14854116Y-10546381D01*
X14854116Y-10546381D02*
X14844592Y-10565429D01*
X14844592Y-10565429D02*
X14835068Y-10574952D01*
X14835068Y-10574952D02*
X14816020Y-10584476D01*
X14816020Y-10584476D02*
X14787449Y-10584476D01*
X14968401Y-10584476D02*
X14949354Y-10574952D01*
X14949354Y-10574952D02*
X14939830Y-10555905D01*
X14939830Y-10555905D02*
X14939830Y-10384476D01*
X15120782Y-10574952D02*
X15101735Y-10584476D01*
X15101735Y-10584476D02*
X15063639Y-10584476D01*
X15063639Y-10584476D02*
X15044592Y-10574952D01*
X15044592Y-10574952D02*
X15035068Y-10555905D01*
X15035068Y-10555905D02*
X15035068Y-10479714D01*
X15035068Y-10479714D02*
X15044592Y-10460667D01*
X15044592Y-10460667D02*
X15063639Y-10451143D01*
X15063639Y-10451143D02*
X15101735Y-10451143D01*
X15101735Y-10451143D02*
X15120782Y-10460667D01*
X15120782Y-10460667D02*
X15130306Y-10479714D01*
X15130306Y-10479714D02*
X15130306Y-10498762D01*
X15130306Y-10498762D02*
X15035068Y-10517810D01*
X15206497Y-10574952D02*
X15225544Y-10584476D01*
X15225544Y-10584476D02*
X15263639Y-10584476D01*
X15263639Y-10584476D02*
X15282687Y-10574952D01*
X15282687Y-10574952D02*
X15292211Y-10555905D01*
X15292211Y-10555905D02*
X15292211Y-10546381D01*
X15292211Y-10546381D02*
X15282687Y-10527333D01*
X15282687Y-10527333D02*
X15263639Y-10517810D01*
X15263639Y-10517810D02*
X15235068Y-10517810D01*
X15235068Y-10517810D02*
X15216020Y-10508286D01*
X15216020Y-10508286D02*
X15206497Y-10489238D01*
X15206497Y-10489238D02*
X15206497Y-10479714D01*
X15206497Y-10479714D02*
X15216020Y-10460667D01*
X15216020Y-10460667D02*
X15235068Y-10451143D01*
X15235068Y-10451143D02*
X15263639Y-10451143D01*
X15263639Y-10451143D02*
X15282687Y-10460667D01*
X15358878Y-10660667D02*
X15368401Y-10651143D01*
X15368401Y-10651143D02*
X15387449Y-10622571D01*
X15387449Y-10622571D02*
X15396973Y-10603524D01*
X15396973Y-10603524D02*
X15406497Y-10574952D01*
X15406497Y-10574952D02*
X15416020Y-10527333D01*
X15416020Y-10527333D02*
X15416020Y-10489238D01*
X15416020Y-10489238D02*
X15406497Y-10441619D01*
X15406497Y-10441619D02*
X15396973Y-10413048D01*
X15396973Y-10413048D02*
X15387449Y-10394000D01*
X15387449Y-10394000D02*
X15368401Y-10365429D01*
X15368401Y-10365429D02*
X15358878Y-10355905D01*
D10*
X10726497Y-10775000D02*
G75*
G03*
X10726497Y-10775000I-50000J0D01*
G01*
D11*
X11078877Y-10848476D02*
X10964592Y-10848476D01*
X11021735Y-10848476D02*
X11021735Y-10648476D01*
X11021735Y-10648476D02*
X11002687Y-10677048D01*
X11002687Y-10677048D02*
X10983639Y-10696095D01*
X10983639Y-10696095D02*
X10964592Y-10705619D01*
X11164592Y-10829429D02*
X11174116Y-10838952D01*
X11174116Y-10838952D02*
X11164592Y-10848476D01*
X11164592Y-10848476D02*
X11155068Y-10838952D01*
X11155068Y-10838952D02*
X11164592Y-10829429D01*
X11164592Y-10829429D02*
X11164592Y-10848476D01*
X11297925Y-10648476D02*
X11316973Y-10648476D01*
X11316973Y-10648476D02*
X11336020Y-10658000D01*
X11336020Y-10658000D02*
X11345544Y-10667524D01*
X11345544Y-10667524D02*
X11355068Y-10686571D01*
X11355068Y-10686571D02*
X11364592Y-10724667D01*
X11364592Y-10724667D02*
X11364592Y-10772286D01*
X11364592Y-10772286D02*
X11355068Y-10810381D01*
X11355068Y-10810381D02*
X11345544Y-10829429D01*
X11345544Y-10829429D02*
X11336020Y-10838952D01*
X11336020Y-10838952D02*
X11316973Y-10848476D01*
X11316973Y-10848476D02*
X11297925Y-10848476D01*
X11297925Y-10848476D02*
X11278877Y-10838952D01*
X11278877Y-10838952D02*
X11269354Y-10829429D01*
X11269354Y-10829429D02*
X11259830Y-10810381D01*
X11259830Y-10810381D02*
X11250306Y-10772286D01*
X11250306Y-10772286D02*
X11250306Y-10724667D01*
X11250306Y-10724667D02*
X11259830Y-10686571D01*
X11259830Y-10686571D02*
X11269354Y-10667524D01*
X11269354Y-10667524D02*
X11278877Y-10658000D01*
X11278877Y-10658000D02*
X11297925Y-10648476D01*
X11488401Y-10648476D02*
X11507449Y-10648476D01*
X11507449Y-10648476D02*
X11526496Y-10658000D01*
X11526496Y-10658000D02*
X11536020Y-10667524D01*
X11536020Y-10667524D02*
X11545544Y-10686571D01*
X11545544Y-10686571D02*
X11555068Y-10724667D01*
X11555068Y-10724667D02*
X11555068Y-10772286D01*
X11555068Y-10772286D02*
X11545544Y-10810381D01*
X11545544Y-10810381D02*
X11536020Y-10829429D01*
X11536020Y-10829429D02*
X11526496Y-10838952D01*
X11526496Y-10838952D02*
X11507449Y-10848476D01*
X11507449Y-10848476D02*
X11488401Y-10848476D01*
X11488401Y-10848476D02*
X11469354Y-10838952D01*
X11469354Y-10838952D02*
X11459830Y-10829429D01*
X11459830Y-10829429D02*
X11450306Y-10810381D01*
X11450306Y-10810381D02*
X11440782Y-10772286D01*
X11440782Y-10772286D02*
X11440782Y-10724667D01*
X11440782Y-10724667D02*
X11450306Y-10686571D01*
X11450306Y-10686571D02*
X11459830Y-10667524D01*
X11459830Y-10667524D02*
X11469354Y-10658000D01*
X11469354Y-10658000D02*
X11488401Y-10648476D01*
X11678877Y-10648476D02*
X11697925Y-10648476D01*
X11697925Y-10648476D02*
X11716973Y-10658000D01*
X11716973Y-10658000D02*
X11726496Y-10667524D01*
X11726496Y-10667524D02*
X11736020Y-10686571D01*
X11736020Y-10686571D02*
X11745544Y-10724667D01*
X11745544Y-10724667D02*
X11745544Y-10772286D01*
X11745544Y-10772286D02*
X11736020Y-10810381D01*
X11736020Y-10810381D02*
X11726496Y-10829429D01*
X11726496Y-10829429D02*
X11716973Y-10838952D01*
X11716973Y-10838952D02*
X11697925Y-10848476D01*
X11697925Y-10848476D02*
X11678877Y-10848476D01*
X11678877Y-10848476D02*
X11659830Y-10838952D01*
X11659830Y-10838952D02*
X11650306Y-10829429D01*
X11650306Y-10829429D02*
X11640782Y-10810381D01*
X11640782Y-10810381D02*
X11631258Y-10772286D01*
X11631258Y-10772286D02*
X11631258Y-10724667D01*
X11631258Y-10724667D02*
X11640782Y-10686571D01*
X11640782Y-10686571D02*
X11650306Y-10667524D01*
X11650306Y-10667524D02*
X11659830Y-10658000D01*
X11659830Y-10658000D02*
X11678877Y-10648476D01*
X11831258Y-10848476D02*
X11831258Y-10715143D01*
X11831258Y-10734190D02*
X11840782Y-10724667D01*
X11840782Y-10724667D02*
X11859830Y-10715143D01*
X11859830Y-10715143D02*
X11888401Y-10715143D01*
X11888401Y-10715143D02*
X11907449Y-10724667D01*
X11907449Y-10724667D02*
X11916973Y-10743714D01*
X11916973Y-10743714D02*
X11916973Y-10848476D01*
X11916973Y-10743714D02*
X11926496Y-10724667D01*
X11926496Y-10724667D02*
X11945544Y-10715143D01*
X11945544Y-10715143D02*
X11974115Y-10715143D01*
X11974115Y-10715143D02*
X11993163Y-10724667D01*
X11993163Y-10724667D02*
X12002687Y-10743714D01*
X12002687Y-10743714D02*
X12002687Y-10848476D01*
X12097925Y-10848476D02*
X12097925Y-10715143D01*
X12097925Y-10734190D02*
X12107449Y-10724667D01*
X12107449Y-10724667D02*
X12126496Y-10715143D01*
X12126496Y-10715143D02*
X12155068Y-10715143D01*
X12155068Y-10715143D02*
X12174116Y-10724667D01*
X12174116Y-10724667D02*
X12183639Y-10743714D01*
X12183639Y-10743714D02*
X12183639Y-10848476D01*
X12183639Y-10743714D02*
X12193163Y-10724667D01*
X12193163Y-10724667D02*
X12212211Y-10715143D01*
X12212211Y-10715143D02*
X12240782Y-10715143D01*
X12240782Y-10715143D02*
X12259830Y-10724667D01*
X12259830Y-10724667D02*
X12269354Y-10743714D01*
X12269354Y-10743714D02*
X12269354Y-10848476D01*
X12627449Y-10638952D02*
X12456020Y-10896095D01*
X12852211Y-10648476D02*
X12871258Y-10648476D01*
X12871258Y-10648476D02*
X12890306Y-10658000D01*
X12890306Y-10658000D02*
X12899830Y-10667524D01*
X12899830Y-10667524D02*
X12909354Y-10686571D01*
X12909354Y-10686571D02*
X12918877Y-10724667D01*
X12918877Y-10724667D02*
X12918877Y-10772286D01*
X12918877Y-10772286D02*
X12909354Y-10810381D01*
X12909354Y-10810381D02*
X12899830Y-10829429D01*
X12899830Y-10829429D02*
X12890306Y-10838952D01*
X12890306Y-10838952D02*
X12871258Y-10848476D01*
X12871258Y-10848476D02*
X12852211Y-10848476D01*
X12852211Y-10848476D02*
X12833163Y-10838952D01*
X12833163Y-10838952D02*
X12823639Y-10829429D01*
X12823639Y-10829429D02*
X12814116Y-10810381D01*
X12814116Y-10810381D02*
X12804592Y-10772286D01*
X12804592Y-10772286D02*
X12804592Y-10724667D01*
X12804592Y-10724667D02*
X12814116Y-10686571D01*
X12814116Y-10686571D02*
X12823639Y-10667524D01*
X12823639Y-10667524D02*
X12833163Y-10658000D01*
X12833163Y-10658000D02*
X12852211Y-10648476D01*
X13004592Y-10829429D02*
X13014116Y-10838952D01*
X13014116Y-10838952D02*
X13004592Y-10848476D01*
X13004592Y-10848476D02*
X12995068Y-10838952D01*
X12995068Y-10838952D02*
X13004592Y-10829429D01*
X13004592Y-10829429D02*
X13004592Y-10848476D01*
X13137925Y-10648476D02*
X13156973Y-10648476D01*
X13156973Y-10648476D02*
X13176020Y-10658000D01*
X13176020Y-10658000D02*
X13185544Y-10667524D01*
X13185544Y-10667524D02*
X13195068Y-10686571D01*
X13195068Y-10686571D02*
X13204592Y-10724667D01*
X13204592Y-10724667D02*
X13204592Y-10772286D01*
X13204592Y-10772286D02*
X13195068Y-10810381D01*
X13195068Y-10810381D02*
X13185544Y-10829429D01*
X13185544Y-10829429D02*
X13176020Y-10838952D01*
X13176020Y-10838952D02*
X13156973Y-10848476D01*
X13156973Y-10848476D02*
X13137925Y-10848476D01*
X13137925Y-10848476D02*
X13118877Y-10838952D01*
X13118877Y-10838952D02*
X13109354Y-10829429D01*
X13109354Y-10829429D02*
X13099830Y-10810381D01*
X13099830Y-10810381D02*
X13090306Y-10772286D01*
X13090306Y-10772286D02*
X13090306Y-10724667D01*
X13090306Y-10724667D02*
X13099830Y-10686571D01*
X13099830Y-10686571D02*
X13109354Y-10667524D01*
X13109354Y-10667524D02*
X13118877Y-10658000D01*
X13118877Y-10658000D02*
X13137925Y-10648476D01*
X13271258Y-10648476D02*
X13395068Y-10648476D01*
X13395068Y-10648476D02*
X13328401Y-10724667D01*
X13328401Y-10724667D02*
X13356973Y-10724667D01*
X13356973Y-10724667D02*
X13376020Y-10734190D01*
X13376020Y-10734190D02*
X13385544Y-10743714D01*
X13385544Y-10743714D02*
X13395068Y-10762762D01*
X13395068Y-10762762D02*
X13395068Y-10810381D01*
X13395068Y-10810381D02*
X13385544Y-10829429D01*
X13385544Y-10829429D02*
X13376020Y-10838952D01*
X13376020Y-10838952D02*
X13356973Y-10848476D01*
X13356973Y-10848476D02*
X13299830Y-10848476D01*
X13299830Y-10848476D02*
X13280782Y-10838952D01*
X13280782Y-10838952D02*
X13271258Y-10829429D01*
X13490306Y-10848476D02*
X13528401Y-10848476D01*
X13528401Y-10848476D02*
X13547449Y-10838952D01*
X13547449Y-10838952D02*
X13556973Y-10829429D01*
X13556973Y-10829429D02*
X13576020Y-10800857D01*
X13576020Y-10800857D02*
X13585544Y-10762762D01*
X13585544Y-10762762D02*
X13585544Y-10686571D01*
X13585544Y-10686571D02*
X13576020Y-10667524D01*
X13576020Y-10667524D02*
X13566497Y-10658000D01*
X13566497Y-10658000D02*
X13547449Y-10648476D01*
X13547449Y-10648476D02*
X13509354Y-10648476D01*
X13509354Y-10648476D02*
X13490306Y-10658000D01*
X13490306Y-10658000D02*
X13480782Y-10667524D01*
X13480782Y-10667524D02*
X13471258Y-10686571D01*
X13471258Y-10686571D02*
X13471258Y-10734190D01*
X13471258Y-10734190D02*
X13480782Y-10753238D01*
X13480782Y-10753238D02*
X13490306Y-10762762D01*
X13490306Y-10762762D02*
X13509354Y-10772286D01*
X13509354Y-10772286D02*
X13547449Y-10772286D01*
X13547449Y-10772286D02*
X13566497Y-10762762D01*
X13566497Y-10762762D02*
X13576020Y-10753238D01*
X13576020Y-10753238D02*
X13585544Y-10734190D01*
X13756973Y-10715143D02*
X13756973Y-10848476D01*
X13709354Y-10638952D02*
X13661735Y-10781810D01*
X13661735Y-10781810D02*
X13785544Y-10781810D01*
X13852211Y-10648476D02*
X13852211Y-10686571D01*
X13928401Y-10648476D02*
X13928401Y-10686571D01*
X14191259Y-10924667D02*
X14181735Y-10915143D01*
X14181735Y-10915143D02*
X14162687Y-10886571D01*
X14162687Y-10886571D02*
X14153163Y-10867524D01*
X14153163Y-10867524D02*
X14143639Y-10838952D01*
X14143639Y-10838952D02*
X14134116Y-10791333D01*
X14134116Y-10791333D02*
X14134116Y-10753238D01*
X14134116Y-10753238D02*
X14143639Y-10705619D01*
X14143639Y-10705619D02*
X14153163Y-10677048D01*
X14153163Y-10677048D02*
X14162687Y-10658000D01*
X14162687Y-10658000D02*
X14181735Y-10629429D01*
X14181735Y-10629429D02*
X14191259Y-10619905D01*
X14353163Y-10648476D02*
X14315068Y-10648476D01*
X14315068Y-10648476D02*
X14296020Y-10658000D01*
X14296020Y-10658000D02*
X14286497Y-10667524D01*
X14286497Y-10667524D02*
X14267449Y-10696095D01*
X14267449Y-10696095D02*
X14257925Y-10734190D01*
X14257925Y-10734190D02*
X14257925Y-10810381D01*
X14257925Y-10810381D02*
X14267449Y-10829429D01*
X14267449Y-10829429D02*
X14276973Y-10838952D01*
X14276973Y-10838952D02*
X14296020Y-10848476D01*
X14296020Y-10848476D02*
X14334116Y-10848476D01*
X14334116Y-10848476D02*
X14353163Y-10838952D01*
X14353163Y-10838952D02*
X14362687Y-10829429D01*
X14362687Y-10829429D02*
X14372211Y-10810381D01*
X14372211Y-10810381D02*
X14372211Y-10762762D01*
X14372211Y-10762762D02*
X14362687Y-10743714D01*
X14362687Y-10743714D02*
X14353163Y-10734190D01*
X14353163Y-10734190D02*
X14334116Y-10724667D01*
X14334116Y-10724667D02*
X14296020Y-10724667D01*
X14296020Y-10724667D02*
X14276973Y-10734190D01*
X14276973Y-10734190D02*
X14267449Y-10743714D01*
X14267449Y-10743714D02*
X14257925Y-10762762D01*
X14577925Y-10848476D02*
X14577925Y-10648476D01*
X14663639Y-10848476D02*
X14663639Y-10743714D01*
X14663639Y-10743714D02*
X14654116Y-10724667D01*
X14654116Y-10724667D02*
X14635068Y-10715143D01*
X14635068Y-10715143D02*
X14606497Y-10715143D01*
X14606497Y-10715143D02*
X14587449Y-10724667D01*
X14587449Y-10724667D02*
X14577925Y-10734190D01*
X14787449Y-10848476D02*
X14768401Y-10838952D01*
X14768401Y-10838952D02*
X14758878Y-10829429D01*
X14758878Y-10829429D02*
X14749354Y-10810381D01*
X14749354Y-10810381D02*
X14749354Y-10753238D01*
X14749354Y-10753238D02*
X14758878Y-10734190D01*
X14758878Y-10734190D02*
X14768401Y-10724667D01*
X14768401Y-10724667D02*
X14787449Y-10715143D01*
X14787449Y-10715143D02*
X14816020Y-10715143D01*
X14816020Y-10715143D02*
X14835068Y-10724667D01*
X14835068Y-10724667D02*
X14844592Y-10734190D01*
X14844592Y-10734190D02*
X14854116Y-10753238D01*
X14854116Y-10753238D02*
X14854116Y-10810381D01*
X14854116Y-10810381D02*
X14844592Y-10829429D01*
X14844592Y-10829429D02*
X14835068Y-10838952D01*
X14835068Y-10838952D02*
X14816020Y-10848476D01*
X14816020Y-10848476D02*
X14787449Y-10848476D01*
X14968401Y-10848476D02*
X14949354Y-10838952D01*
X14949354Y-10838952D02*
X14939830Y-10819905D01*
X14939830Y-10819905D02*
X14939830Y-10648476D01*
X15120782Y-10838952D02*
X15101735Y-10848476D01*
X15101735Y-10848476D02*
X15063639Y-10848476D01*
X15063639Y-10848476D02*
X15044592Y-10838952D01*
X15044592Y-10838952D02*
X15035068Y-10819905D01*
X15035068Y-10819905D02*
X15035068Y-10743714D01*
X15035068Y-10743714D02*
X15044592Y-10724667D01*
X15044592Y-10724667D02*
X15063639Y-10715143D01*
X15063639Y-10715143D02*
X15101735Y-10715143D01*
X15101735Y-10715143D02*
X15120782Y-10724667D01*
X15120782Y-10724667D02*
X15130306Y-10743714D01*
X15130306Y-10743714D02*
X15130306Y-10762762D01*
X15130306Y-10762762D02*
X15035068Y-10781810D01*
X15206497Y-10838952D02*
X15225544Y-10848476D01*
X15225544Y-10848476D02*
X15263639Y-10848476D01*
X15263639Y-10848476D02*
X15282687Y-10838952D01*
X15282687Y-10838952D02*
X15292211Y-10819905D01*
X15292211Y-10819905D02*
X15292211Y-10810381D01*
X15292211Y-10810381D02*
X15282687Y-10791333D01*
X15282687Y-10791333D02*
X15263639Y-10781810D01*
X15263639Y-10781810D02*
X15235068Y-10781810D01*
X15235068Y-10781810D02*
X15216020Y-10772286D01*
X15216020Y-10772286D02*
X15206497Y-10753238D01*
X15206497Y-10753238D02*
X15206497Y-10743714D01*
X15206497Y-10743714D02*
X15216020Y-10724667D01*
X15216020Y-10724667D02*
X15235068Y-10715143D01*
X15235068Y-10715143D02*
X15263639Y-10715143D01*
X15263639Y-10715143D02*
X15282687Y-10724667D01*
X15358878Y-10924667D02*
X15368401Y-10915143D01*
X15368401Y-10915143D02*
X15387449Y-10886571D01*
X15387449Y-10886571D02*
X15396973Y-10867524D01*
X15396973Y-10867524D02*
X15406497Y-10838952D01*
X15406497Y-10838952D02*
X15416020Y-10791333D01*
X15416020Y-10791333D02*
X15416020Y-10753238D01*
X15416020Y-10753238D02*
X15406497Y-10705619D01*
X15406497Y-10705619D02*
X15396973Y-10677048D01*
X15396973Y-10677048D02*
X15387449Y-10658000D01*
X15387449Y-10658000D02*
X15368401Y-10629429D01*
X15368401Y-10629429D02*
X15358878Y-10619905D01*
M02*
