G04 #@! TF.GenerationSoftware,KiCad,Pcbnew,(6.99.0-2452-gdb4f2d9dd8)*
G04 #@! TF.CreationDate,2022-08-02T21:03:54-05:00*
G04 #@! TF.ProjectId,CTCubed,43544375-6265-4642-9e6b-696361645f70,rev?*
G04 #@! TF.SameCoordinates,Original*
G04 #@! TF.FileFunction,Copper,L2,Bot*
G04 #@! TF.FilePolarity,Positive*
%FSLAX46Y46*%
G04 Gerber Fmt 4.6, Leading zero omitted, Abs format (unit mm)*
G04 Created by KiCad (PCBNEW (6.99.0-2452-gdb4f2d9dd8)) date 2022-08-02 21:03:54*
%MOMM*%
%LPD*%
G01*
G04 APERTURE LIST*
G04 Aperture macros list*
%AMRoundRect*
0 Rectangle with rounded corners*
0 $1 Rounding radius*
0 $2 $3 $4 $5 $6 $7 $8 $9 X,Y pos of 4 corners*
0 Add a 4 corners polygon primitive as box body*
4,1,4,$2,$3,$4,$5,$6,$7,$8,$9,$2,$3,0*
0 Add four circle primitives for the rounded corners*
1,1,$1+$1,$2,$3*
1,1,$1+$1,$4,$5*
1,1,$1+$1,$6,$7*
1,1,$1+$1,$8,$9*
0 Add four rect primitives between the rounded corners*
20,1,$1+$1,$2,$3,$4,$5,0*
20,1,$1+$1,$4,$5,$6,$7,0*
20,1,$1+$1,$6,$7,$8,$9,0*
20,1,$1+$1,$8,$9,$2,$3,0*%
G04 Aperture macros list end*
%ADD10C,0.300000*%
G04 #@! TA.AperFunction,NonConductor*
%ADD11C,0.300000*%
G04 #@! TD*
G04 #@! TA.AperFunction,ComponentPad*
%ADD12R,1.800000X1.800000*%
G04 #@! TD*
G04 #@! TA.AperFunction,ComponentPad*
%ADD13C,1.800000*%
G04 #@! TD*
G04 #@! TA.AperFunction,ComponentPad*
%ADD14R,1.700000X1.700000*%
G04 #@! TD*
G04 #@! TA.AperFunction,ComponentPad*
%ADD15O,1.700000X1.700000*%
G04 #@! TD*
G04 #@! TA.AperFunction,SMDPad,CuDef*
%ADD16RoundRect,0.250000X-0.400000X-0.625000X0.400000X-0.625000X0.400000X0.625000X-0.400000X0.625000X0*%
G04 #@! TD*
G04 #@! TA.AperFunction,Conductor*
%ADD17C,0.250000*%
G04 #@! TD*
G04 APERTURE END LIST*
D10*
D11*
X164834285Y-46389285D02*
X164905714Y-46317857D01*
X164905714Y-46317857D02*
X165048571Y-46246428D01*
X165048571Y-46246428D02*
X165191428Y-46246428D01*
X165191428Y-46246428D02*
X165334285Y-46317857D01*
X165334285Y-46317857D02*
X165405714Y-46389285D01*
X165405714Y-46389285D02*
X165477142Y-46532142D01*
X165477142Y-46532142D02*
X165477142Y-46675000D01*
X165477142Y-46675000D02*
X165405714Y-46817857D01*
X165405714Y-46817857D02*
X165334285Y-46889285D01*
X165334285Y-46889285D02*
X165191428Y-46960714D01*
X165191428Y-46960714D02*
X165048571Y-46960714D01*
X165048571Y-46960714D02*
X164905714Y-46889285D01*
X164905714Y-46889285D02*
X164834285Y-46817857D01*
X164834285Y-46246428D02*
X164834285Y-46817857D01*
X164834285Y-46817857D02*
X164762857Y-46889285D01*
X164762857Y-46889285D02*
X164691428Y-46889285D01*
X164691428Y-46889285D02*
X164548571Y-46817857D01*
X164548571Y-46817857D02*
X164477142Y-46675000D01*
X164477142Y-46675000D02*
X164477142Y-46317857D01*
X164477142Y-46317857D02*
X164620000Y-46103571D01*
X164620000Y-46103571D02*
X164834285Y-45960714D01*
X164834285Y-45960714D02*
X165120000Y-45889285D01*
X165120000Y-45889285D02*
X165405714Y-45960714D01*
X165405714Y-45960714D02*
X165620000Y-46103571D01*
X165620000Y-46103571D02*
X165762857Y-46317857D01*
X165762857Y-46317857D02*
X165834285Y-46603571D01*
X165834285Y-46603571D02*
X165762857Y-46889285D01*
X165762857Y-46889285D02*
X165620000Y-47103571D01*
X165620000Y-47103571D02*
X165405714Y-47246428D01*
X165405714Y-47246428D02*
X165120000Y-47317857D01*
X165120000Y-47317857D02*
X164834285Y-47246428D01*
X164834285Y-47246428D02*
X164620000Y-47103571D01*
X163191429Y-47103571D02*
X163191429Y-46317857D01*
X163191429Y-46317857D02*
X163262857Y-46175000D01*
X163262857Y-46175000D02*
X163405714Y-46103571D01*
X163405714Y-46103571D02*
X163691429Y-46103571D01*
X163691429Y-46103571D02*
X163834286Y-46175000D01*
X163191429Y-47032142D02*
X163334286Y-47103571D01*
X163334286Y-47103571D02*
X163691429Y-47103571D01*
X163691429Y-47103571D02*
X163834286Y-47032142D01*
X163834286Y-47032142D02*
X163905714Y-46889285D01*
X163905714Y-46889285D02*
X163905714Y-46746428D01*
X163905714Y-46746428D02*
X163834286Y-46603571D01*
X163834286Y-46603571D02*
X163691429Y-46532142D01*
X163691429Y-46532142D02*
X163334286Y-46532142D01*
X163334286Y-46532142D02*
X163191429Y-46460714D01*
X162620000Y-46103571D02*
X162262857Y-47103571D01*
X162262857Y-47103571D02*
X161905714Y-46103571D01*
X161691429Y-47246428D02*
X160548571Y-47246428D01*
X160191429Y-46103571D02*
X160191429Y-47603571D01*
X160191429Y-46175000D02*
X160048572Y-46103571D01*
X160048572Y-46103571D02*
X159762857Y-46103571D01*
X159762857Y-46103571D02*
X159620000Y-46175000D01*
X159620000Y-46175000D02*
X159548572Y-46246428D01*
X159548572Y-46246428D02*
X159477143Y-46389285D01*
X159477143Y-46389285D02*
X159477143Y-46817857D01*
X159477143Y-46817857D02*
X159548572Y-46960714D01*
X159548572Y-46960714D02*
X159620000Y-47032142D01*
X159620000Y-47032142D02*
X159762857Y-47103571D01*
X159762857Y-47103571D02*
X160048572Y-47103571D01*
X160048572Y-47103571D02*
X160191429Y-47032142D01*
X158191429Y-46103571D02*
X158191429Y-47103571D01*
X158834286Y-46103571D02*
X158834286Y-46889285D01*
X158834286Y-46889285D02*
X158762857Y-47032142D01*
X158762857Y-47032142D02*
X158620000Y-47103571D01*
X158620000Y-47103571D02*
X158405714Y-47103571D01*
X158405714Y-47103571D02*
X158262857Y-47032142D01*
X158262857Y-47032142D02*
X158191429Y-46960714D01*
X157477143Y-47103571D02*
X157477143Y-45603571D01*
X157477143Y-46175000D02*
X157334286Y-46103571D01*
X157334286Y-46103571D02*
X157048571Y-46103571D01*
X157048571Y-46103571D02*
X156905714Y-46175000D01*
X156905714Y-46175000D02*
X156834286Y-46246428D01*
X156834286Y-46246428D02*
X156762857Y-46389285D01*
X156762857Y-46389285D02*
X156762857Y-46817857D01*
X156762857Y-46817857D02*
X156834286Y-46960714D01*
X156834286Y-46960714D02*
X156905714Y-47032142D01*
X156905714Y-47032142D02*
X157048571Y-47103571D01*
X157048571Y-47103571D02*
X157334286Y-47103571D01*
X157334286Y-47103571D02*
X157477143Y-47032142D01*
X156191428Y-47032142D02*
X156048571Y-47103571D01*
X156048571Y-47103571D02*
X155762857Y-47103571D01*
X155762857Y-47103571D02*
X155620000Y-47032142D01*
X155620000Y-47032142D02*
X155548571Y-46889285D01*
X155548571Y-46889285D02*
X155548571Y-46817857D01*
X155548571Y-46817857D02*
X155620000Y-46675000D01*
X155620000Y-46675000D02*
X155762857Y-46603571D01*
X155762857Y-46603571D02*
X155977143Y-46603571D01*
X155977143Y-46603571D02*
X156120000Y-46532142D01*
X156120000Y-46532142D02*
X156191428Y-46389285D01*
X156191428Y-46389285D02*
X156191428Y-46317857D01*
X156191428Y-46317857D02*
X156120000Y-46175000D01*
X156120000Y-46175000D02*
X155977143Y-46103571D01*
X155977143Y-46103571D02*
X155762857Y-46103571D01*
X155762857Y-46103571D02*
X155620000Y-46175000D01*
X165905714Y-48533571D02*
X165548571Y-49533571D01*
X165548571Y-49533571D02*
X165191428Y-48533571D01*
X163834285Y-49533571D02*
X164691428Y-49533571D01*
X164262857Y-49533571D02*
X164262857Y-48033571D01*
X164262857Y-48033571D02*
X164405714Y-48247857D01*
X164405714Y-48247857D02*
X164548571Y-48390714D01*
X164548571Y-48390714D02*
X164691428Y-48462142D01*
D12*
X128939999Y-96649999D03*
D13*
X128940000Y-94110000D03*
D14*
X146899999Y-94189999D03*
D15*
X146899999Y-96729999D03*
X149439999Y-94189999D03*
X149439999Y-96729999D03*
X151979999Y-94189999D03*
X151979999Y-96729999D03*
D16*
X137370000Y-87970000D03*
X140470000Y-87970000D03*
D17*
X128940000Y-96650000D02*
X146820000Y-96650000D01*
X146820000Y-96650000D02*
X146900000Y-96730000D01*
X137370000Y-87970000D02*
X131230000Y-94110000D01*
X131230000Y-94110000D02*
X128940000Y-94110000D01*
X128970000Y-96620000D02*
X128940000Y-96650000D01*
X140470000Y-87970000D02*
X140680000Y-87970000D01*
X140680000Y-87970000D02*
X146900000Y-94190000D01*
X136610000Y-87970000D02*
X137370000Y-87970000D01*
G04 #@! TA.AperFunction,NonConductor*
G36*
X148423439Y-95101388D02*
G01*
X148455755Y-95126638D01*
X148476526Y-95149201D01*
X148516760Y-95192906D01*
X148520879Y-95196112D01*
X148653211Y-95299111D01*
X148694424Y-95331189D01*
X148699005Y-95333668D01*
X148727680Y-95349186D01*
X148778071Y-95399199D01*
X148793423Y-95468516D01*
X148768863Y-95535129D01*
X148727681Y-95570813D01*
X148694424Y-95588811D01*
X148690313Y-95592010D01*
X148690311Y-95592012D01*
X148554124Y-95698012D01*
X148516760Y-95727094D01*
X148513228Y-95730931D01*
X148367806Y-95888899D01*
X148367803Y-95888903D01*
X148364278Y-95892732D01*
X148361427Y-95897096D01*
X148275483Y-96028643D01*
X148221479Y-96074732D01*
X148151132Y-96084307D01*
X148086774Y-96054330D01*
X148064517Y-96028643D01*
X147978573Y-95897096D01*
X147975722Y-95892732D01*
X147972197Y-95888903D01*
X147972194Y-95888899D01*
X147832525Y-95737180D01*
X147801104Y-95673515D01*
X147809091Y-95602969D01*
X147853949Y-95547940D01*
X147881191Y-95533787D01*
X147996204Y-95490889D01*
X148008536Y-95481658D01*
X148106050Y-95408659D01*
X148113261Y-95403261D01*
X148200889Y-95286204D01*
X148244998Y-95167944D01*
X148287545Y-95111108D01*
X148354065Y-95086297D01*
X148423439Y-95101388D01*
G37*
G04 #@! TD.AperFunction*
G04 #@! TA.AperFunction,NonConductor*
G36*
X150793226Y-94865670D02*
G01*
X150815483Y-94891357D01*
X150904278Y-95027268D01*
X150907803Y-95031097D01*
X150907806Y-95031101D01*
X150972511Y-95101388D01*
X151056760Y-95192906D01*
X151060879Y-95196112D01*
X151193211Y-95299111D01*
X151234424Y-95331189D01*
X151239005Y-95333668D01*
X151267680Y-95349186D01*
X151318071Y-95399199D01*
X151333423Y-95468516D01*
X151308863Y-95535129D01*
X151267681Y-95570813D01*
X151234424Y-95588811D01*
X151230313Y-95592010D01*
X151230311Y-95592012D01*
X151094124Y-95698012D01*
X151056760Y-95727094D01*
X151053228Y-95730931D01*
X150907806Y-95888899D01*
X150907803Y-95888903D01*
X150904278Y-95892732D01*
X150901427Y-95897096D01*
X150815483Y-96028643D01*
X150761479Y-96074732D01*
X150691132Y-96084307D01*
X150626774Y-96054330D01*
X150604517Y-96028643D01*
X150518573Y-95897096D01*
X150515722Y-95892732D01*
X150512197Y-95888903D01*
X150512194Y-95888899D01*
X150366772Y-95730931D01*
X150363240Y-95727094D01*
X150325876Y-95698012D01*
X150189689Y-95592012D01*
X150189687Y-95592010D01*
X150185576Y-95588811D01*
X150152320Y-95570814D01*
X150101929Y-95520801D01*
X150086577Y-95451484D01*
X150111137Y-95384871D01*
X150152320Y-95349186D01*
X150180995Y-95333668D01*
X150185576Y-95331189D01*
X150226790Y-95299111D01*
X150359121Y-95196112D01*
X150363240Y-95192906D01*
X150447489Y-95101388D01*
X150512194Y-95031101D01*
X150512197Y-95031097D01*
X150515722Y-95027268D01*
X150604517Y-94891357D01*
X150658521Y-94845268D01*
X150728868Y-94835693D01*
X150793226Y-94865670D01*
G37*
G04 #@! TD.AperFunction*
G04 #@! TA.AperFunction,NonConductor*
G36*
X138457918Y-31964228D02*
G01*
X169594455Y-44707379D01*
X169649923Y-44751692D01*
X169672629Y-44818960D01*
X169671622Y-44840652D01*
X162505379Y-98540975D01*
X162504155Y-98550149D01*
X162475318Y-98615025D01*
X162415984Y-98654012D01*
X162379241Y-98659482D01*
X147049150Y-98656980D01*
X138443867Y-98655576D01*
X138443857Y-98655576D01*
X114930016Y-98649528D01*
X114861900Y-98629508D01*
X114815421Y-98575841D01*
X114805262Y-98540975D01*
X114185744Y-94110000D01*
X127526673Y-94110000D01*
X127545949Y-94342626D01*
X127547230Y-94347684D01*
X127547230Y-94347685D01*
X127565398Y-94419427D01*
X127603251Y-94568907D01*
X127605343Y-94573677D01*
X127605344Y-94573679D01*
X127674903Y-94732256D01*
X127697016Y-94782669D01*
X127699866Y-94787031D01*
X127699868Y-94787035D01*
X127737914Y-94845268D01*
X127824686Y-94978083D01*
X127828211Y-94981912D01*
X127828214Y-94981916D01*
X127865947Y-95022904D01*
X127909843Y-95070587D01*
X127941263Y-95134251D01*
X127933276Y-95204797D01*
X127888418Y-95259826D01*
X127861174Y-95273979D01*
X127802242Y-95295960D01*
X127802238Y-95295962D01*
X127793796Y-95299111D01*
X127676739Y-95386739D01*
X127671341Y-95393950D01*
X127596417Y-95494037D01*
X127589111Y-95503796D01*
X127538011Y-95640799D01*
X127531500Y-95701362D01*
X127531500Y-97598638D01*
X127538011Y-97659201D01*
X127589111Y-97796204D01*
X127676739Y-97913261D01*
X127683950Y-97918659D01*
X127763677Y-97978342D01*
X127793796Y-98000889D01*
X127930799Y-98051989D01*
X127967705Y-98055957D01*
X127988012Y-98058140D01*
X127988015Y-98058140D01*
X127991362Y-98058500D01*
X129888638Y-98058500D01*
X129891985Y-98058140D01*
X129891988Y-98058140D01*
X129912295Y-98055957D01*
X129949201Y-98051989D01*
X130086204Y-98000889D01*
X130116324Y-97978342D01*
X130196050Y-97918659D01*
X130203261Y-97913261D01*
X130290889Y-97796204D01*
X130341989Y-97659201D01*
X130348500Y-97598638D01*
X130348500Y-97409500D01*
X130368502Y-97341379D01*
X130422158Y-97294886D01*
X130474500Y-97283500D01*
X145577021Y-97283500D01*
X145645142Y-97303502D01*
X145692408Y-97358885D01*
X145699045Y-97374016D01*
X145699046Y-97374018D01*
X145701140Y-97378791D01*
X145703990Y-97383153D01*
X145703992Y-97383157D01*
X145718701Y-97405670D01*
X145824278Y-97567268D01*
X145827803Y-97571097D01*
X145827806Y-97571101D01*
X145850055Y-97595269D01*
X145976760Y-97732906D01*
X146154424Y-97871189D01*
X146352426Y-97978342D01*
X146565365Y-98051444D01*
X146570499Y-98052301D01*
X146570504Y-98052302D01*
X146782294Y-98087643D01*
X146782296Y-98087643D01*
X146787431Y-98088500D01*
X147012569Y-98088500D01*
X147017704Y-98087643D01*
X147017706Y-98087643D01*
X147229496Y-98052302D01*
X147229501Y-98052301D01*
X147234635Y-98051444D01*
X147447574Y-97978342D01*
X147645576Y-97871189D01*
X147823240Y-97732906D01*
X147949945Y-97595269D01*
X147972194Y-97571101D01*
X147972197Y-97571097D01*
X147975722Y-97567268D01*
X148064517Y-97431357D01*
X148118521Y-97385268D01*
X148188868Y-97375693D01*
X148253226Y-97405670D01*
X148275483Y-97431357D01*
X148364278Y-97567268D01*
X148367803Y-97571097D01*
X148367806Y-97571101D01*
X148390055Y-97595269D01*
X148516760Y-97732906D01*
X148694424Y-97871189D01*
X148892426Y-97978342D01*
X149105365Y-98051444D01*
X149110499Y-98052301D01*
X149110504Y-98052302D01*
X149322294Y-98087643D01*
X149322296Y-98087643D01*
X149327431Y-98088500D01*
X149552569Y-98088500D01*
X149557704Y-98087643D01*
X149557706Y-98087643D01*
X149769496Y-98052302D01*
X149769501Y-98052301D01*
X149774635Y-98051444D01*
X149987574Y-97978342D01*
X150185576Y-97871189D01*
X150363240Y-97732906D01*
X150489945Y-97595269D01*
X150512194Y-97571101D01*
X150512197Y-97571097D01*
X150515722Y-97567268D01*
X150604517Y-97431357D01*
X150658521Y-97385268D01*
X150728868Y-97375693D01*
X150793226Y-97405670D01*
X150815483Y-97431357D01*
X150904278Y-97567268D01*
X150907803Y-97571097D01*
X150907806Y-97571101D01*
X150930055Y-97595269D01*
X151056760Y-97732906D01*
X151234424Y-97871189D01*
X151432426Y-97978342D01*
X151645365Y-98051444D01*
X151650499Y-98052301D01*
X151650504Y-98052302D01*
X151862294Y-98087643D01*
X151862296Y-98087643D01*
X151867431Y-98088500D01*
X152092569Y-98088500D01*
X152097704Y-98087643D01*
X152097706Y-98087643D01*
X152309496Y-98052302D01*
X152309501Y-98052301D01*
X152314635Y-98051444D01*
X152527574Y-97978342D01*
X152725576Y-97871189D01*
X152903240Y-97732906D01*
X153029945Y-97595269D01*
X153052194Y-97571101D01*
X153052197Y-97571097D01*
X153055722Y-97567268D01*
X153161299Y-97405670D01*
X153176008Y-97383157D01*
X153176010Y-97383153D01*
X153178860Y-97378791D01*
X153180955Y-97374016D01*
X153267200Y-97177394D01*
X153269296Y-97172616D01*
X153324564Y-96954368D01*
X153343156Y-96730000D01*
X153324564Y-96505632D01*
X153269296Y-96287384D01*
X153178860Y-96081209D01*
X153174629Y-96074732D01*
X153058573Y-95897096D01*
X153055722Y-95892732D01*
X153052197Y-95888903D01*
X153052194Y-95888899D01*
X152906772Y-95730931D01*
X152903240Y-95727094D01*
X152865876Y-95698012D01*
X152729689Y-95592012D01*
X152729687Y-95592010D01*
X152725576Y-95588811D01*
X152692320Y-95570814D01*
X152641929Y-95520801D01*
X152626577Y-95451484D01*
X152651137Y-95384871D01*
X152692320Y-95349186D01*
X152720995Y-95333668D01*
X152725576Y-95331189D01*
X152766790Y-95299111D01*
X152899121Y-95196112D01*
X152903240Y-95192906D01*
X152987489Y-95101388D01*
X153052194Y-95031101D01*
X153052197Y-95031097D01*
X153055722Y-95027268D01*
X153161299Y-94865670D01*
X153176008Y-94843157D01*
X153176010Y-94843153D01*
X153178860Y-94838791D01*
X153226136Y-94731013D01*
X153246008Y-94685707D01*
X153269296Y-94632616D01*
X153272851Y-94618580D01*
X153323283Y-94419427D01*
X153323283Y-94419426D01*
X153324564Y-94414368D01*
X153330940Y-94337430D01*
X153342726Y-94195189D01*
X153343156Y-94190000D01*
X153324564Y-93965632D01*
X153269296Y-93747384D01*
X153178860Y-93541209D01*
X153174629Y-93534732D01*
X153058573Y-93357096D01*
X153055722Y-93352732D01*
X153052197Y-93348903D01*
X153052194Y-93348899D01*
X152906772Y-93190931D01*
X152903240Y-93187094D01*
X152757963Y-93074019D01*
X152729689Y-93052012D01*
X152729687Y-93052010D01*
X152725576Y-93048811D01*
X152527574Y-92941658D01*
X152314635Y-92868556D01*
X152309501Y-92867699D01*
X152309496Y-92867698D01*
X152097706Y-92832357D01*
X152097704Y-92832357D01*
X152092569Y-92831500D01*
X151867431Y-92831500D01*
X151862296Y-92832357D01*
X151862294Y-92832357D01*
X151650504Y-92867698D01*
X151650499Y-92867699D01*
X151645365Y-92868556D01*
X151432426Y-92941658D01*
X151234424Y-93048811D01*
X151230313Y-93052010D01*
X151230311Y-93052012D01*
X151202037Y-93074019D01*
X151056760Y-93187094D01*
X151053228Y-93190931D01*
X150907806Y-93348899D01*
X150907803Y-93348903D01*
X150904278Y-93352732D01*
X150836484Y-93456498D01*
X150815483Y-93488643D01*
X150761479Y-93534732D01*
X150691132Y-93544307D01*
X150626774Y-93514330D01*
X150604517Y-93488643D01*
X150583516Y-93456498D01*
X150515722Y-93352732D01*
X150512197Y-93348903D01*
X150512194Y-93348899D01*
X150366772Y-93190931D01*
X150363240Y-93187094D01*
X150217963Y-93074019D01*
X150189689Y-93052012D01*
X150189687Y-93052010D01*
X150185576Y-93048811D01*
X149987574Y-92941658D01*
X149774635Y-92868556D01*
X149769501Y-92867699D01*
X149769496Y-92867698D01*
X149557706Y-92832357D01*
X149557704Y-92832357D01*
X149552569Y-92831500D01*
X149327431Y-92831500D01*
X149322296Y-92832357D01*
X149322294Y-92832357D01*
X149110504Y-92867698D01*
X149110499Y-92867699D01*
X149105365Y-92868556D01*
X148892426Y-92941658D01*
X148694424Y-93048811D01*
X148690313Y-93052010D01*
X148690311Y-93052012D01*
X148662037Y-93074019D01*
X148516760Y-93187094D01*
X148513228Y-93190931D01*
X148455755Y-93253362D01*
X148394901Y-93289933D01*
X148323937Y-93287798D01*
X148265392Y-93247636D01*
X148244998Y-93212056D01*
X148204038Y-93102239D01*
X148200889Y-93093796D01*
X148113261Y-92976739D01*
X148046564Y-92926810D01*
X148003418Y-92894511D01*
X148003416Y-92894510D01*
X147996204Y-92889111D01*
X147859201Y-92838011D01*
X147822295Y-92834043D01*
X147801988Y-92831860D01*
X147801985Y-92831860D01*
X147798638Y-92831500D01*
X146489595Y-92831500D01*
X146421474Y-92811498D01*
X146400500Y-92794595D01*
X141665405Y-88059500D01*
X141631379Y-87997188D01*
X141628500Y-87970405D01*
X141628499Y-87297662D01*
X141628499Y-87294456D01*
X141617887Y-87190574D01*
X141562115Y-87022262D01*
X141469030Y-86871348D01*
X141343652Y-86745970D01*
X141192738Y-86652885D01*
X141129193Y-86631829D01*
X141030952Y-86599275D01*
X141030948Y-86599274D01*
X141024426Y-86597113D01*
X141017592Y-86596415D01*
X141017588Y-86596414D01*
X140923729Y-86586825D01*
X140923723Y-86586825D01*
X140920545Y-86586500D01*
X140470071Y-86586500D01*
X140019456Y-86586501D01*
X140016279Y-86586826D01*
X140016270Y-86586826D01*
X139967533Y-86591805D01*
X139915574Y-86597113D01*
X139747262Y-86652885D01*
X139596348Y-86745970D01*
X139470970Y-86871348D01*
X139377885Y-87022262D01*
X139322113Y-87190574D01*
X139311500Y-87294455D01*
X139311501Y-88645544D01*
X139322113Y-88749426D01*
X139377885Y-88917738D01*
X139470970Y-89068652D01*
X139596348Y-89194030D01*
X139747262Y-89287115D01*
X139810807Y-89308171D01*
X139909048Y-89340725D01*
X139909052Y-89340726D01*
X139915574Y-89342887D01*
X139922408Y-89343585D01*
X139922412Y-89343586D01*
X140016271Y-89353175D01*
X140016277Y-89353175D01*
X140019455Y-89353500D01*
X140469929Y-89353500D01*
X140920544Y-89353499D01*
X140923721Y-89353174D01*
X140923730Y-89353174D01*
X140972467Y-89348195D01*
X141024426Y-89342887D01*
X141030949Y-89340725D01*
X141030956Y-89340724D01*
X141050218Y-89334341D01*
X141121172Y-89331900D01*
X141178946Y-89364850D01*
X145504595Y-93690499D01*
X145538621Y-93752811D01*
X145541500Y-93779594D01*
X145541500Y-95088638D01*
X145548011Y-95149201D01*
X145599111Y-95286204D01*
X145686739Y-95403261D01*
X145693950Y-95408659D01*
X145791465Y-95481658D01*
X145803796Y-95490889D01*
X145918808Y-95533787D01*
X145975642Y-95576333D01*
X146000453Y-95642853D01*
X145985361Y-95712227D01*
X145967475Y-95737180D01*
X145827807Y-95888898D01*
X145827804Y-95888901D01*
X145824278Y-95892732D01*
X145821429Y-95897093D01*
X145821428Y-95897094D01*
X145780711Y-95959416D01*
X145726707Y-96005504D01*
X145675228Y-96016500D01*
X130474500Y-96016500D01*
X130406379Y-95996498D01*
X130359886Y-95942842D01*
X130348500Y-95890500D01*
X130348500Y-95701362D01*
X130341989Y-95640799D01*
X130290889Y-95503796D01*
X130283584Y-95494037D01*
X130208659Y-95393950D01*
X130203261Y-95386739D01*
X130086204Y-95299111D01*
X130077762Y-95295962D01*
X130077758Y-95295960D01*
X130018826Y-95273979D01*
X129961991Y-95231433D01*
X129937180Y-95164912D01*
X129952272Y-95095538D01*
X129970156Y-95070589D01*
X130014053Y-95022904D01*
X130051786Y-94981916D01*
X130051789Y-94981912D01*
X130055314Y-94978083D01*
X130171279Y-94800585D01*
X130225282Y-94754496D01*
X130276762Y-94743500D01*
X131151233Y-94743500D01*
X131162416Y-94744027D01*
X131169909Y-94745702D01*
X131177835Y-94745453D01*
X131177836Y-94745453D01*
X131237986Y-94743562D01*
X131241945Y-94743500D01*
X131269856Y-94743500D01*
X131273791Y-94743003D01*
X131273856Y-94742995D01*
X131285693Y-94742062D01*
X131317951Y-94741048D01*
X131321970Y-94740922D01*
X131329889Y-94740673D01*
X131349343Y-94735021D01*
X131368700Y-94731013D01*
X131380930Y-94729468D01*
X131380931Y-94729468D01*
X131388797Y-94728474D01*
X131396168Y-94725555D01*
X131396170Y-94725555D01*
X131429912Y-94712196D01*
X131441142Y-94708351D01*
X131475983Y-94698229D01*
X131475984Y-94698229D01*
X131483593Y-94696018D01*
X131490412Y-94691985D01*
X131490417Y-94691983D01*
X131501028Y-94685707D01*
X131518776Y-94677012D01*
X131537617Y-94669552D01*
X131573387Y-94643564D01*
X131583307Y-94637048D01*
X131614535Y-94618580D01*
X131614538Y-94618578D01*
X131621362Y-94614542D01*
X131635683Y-94600221D01*
X131650717Y-94587380D01*
X131660694Y-94580131D01*
X131667107Y-94575472D01*
X131695298Y-94541395D01*
X131703288Y-94532616D01*
X136845499Y-89390405D01*
X136907811Y-89356379D01*
X136934594Y-89353500D01*
X137663068Y-89353499D01*
X137820544Y-89353499D01*
X137823721Y-89353174D01*
X137823730Y-89353174D01*
X137872467Y-89348195D01*
X137924426Y-89342887D01*
X138092738Y-89287115D01*
X138243652Y-89194030D01*
X138369030Y-89068652D01*
X138462115Y-88917738D01*
X138517887Y-88749426D01*
X138528500Y-88645545D01*
X138528499Y-87294456D01*
X138517887Y-87190574D01*
X138462115Y-87022262D01*
X138369030Y-86871348D01*
X138243652Y-86745970D01*
X138092738Y-86652885D01*
X138029193Y-86631829D01*
X137930952Y-86599275D01*
X137930948Y-86599274D01*
X137924426Y-86597113D01*
X137917592Y-86596415D01*
X137917588Y-86596414D01*
X137823729Y-86586825D01*
X137823723Y-86586825D01*
X137820545Y-86586500D01*
X137370071Y-86586500D01*
X136919456Y-86586501D01*
X136916279Y-86586826D01*
X136916270Y-86586826D01*
X136867533Y-86591805D01*
X136815574Y-86597113D01*
X136647262Y-86652885D01*
X136496348Y-86745970D01*
X136370970Y-86871348D01*
X136277885Y-87022262D01*
X136222113Y-87190574D01*
X136211500Y-87294455D01*
X136211500Y-87415111D01*
X136191498Y-87483232D01*
X136175129Y-87502903D01*
X136172893Y-87504528D01*
X136070867Y-87627856D01*
X136067494Y-87635023D01*
X136067492Y-87635027D01*
X136038274Y-87697121D01*
X136002717Y-87772682D01*
X135972725Y-87929906D01*
X135982775Y-88089650D01*
X136032236Y-88241875D01*
X136036486Y-88248572D01*
X136036487Y-88248574D01*
X136044142Y-88260637D01*
X136063754Y-88328871D01*
X136043362Y-88396876D01*
X136026851Y-88417244D01*
X131004500Y-93439595D01*
X130942188Y-93473621D01*
X130915405Y-93476500D01*
X130276762Y-93476500D01*
X130208641Y-93456498D01*
X130171279Y-93419415D01*
X130058165Y-93246281D01*
X130055314Y-93241917D01*
X130051789Y-93238088D01*
X130051786Y-93238084D01*
X129900752Y-93074019D01*
X129897220Y-93070182D01*
X129893108Y-93066981D01*
X129893102Y-93066976D01*
X129717130Y-92930011D01*
X129717128Y-92930009D01*
X129713017Y-92926810D01*
X129603787Y-92867698D01*
X129512312Y-92818194D01*
X129512309Y-92818193D01*
X129507727Y-92815713D01*
X129286951Y-92739920D01*
X129281817Y-92739063D01*
X129281812Y-92739062D01*
X129061849Y-92702357D01*
X129061846Y-92702357D01*
X129056712Y-92701500D01*
X128823288Y-92701500D01*
X128818154Y-92702357D01*
X128818151Y-92702357D01*
X128598188Y-92739062D01*
X128598183Y-92739063D01*
X128593049Y-92739920D01*
X128372273Y-92815713D01*
X128367691Y-92818193D01*
X128367688Y-92818194D01*
X128276213Y-92867698D01*
X128166983Y-92926810D01*
X128162872Y-92930009D01*
X128162870Y-92930011D01*
X127986898Y-93066976D01*
X127986892Y-93066981D01*
X127982780Y-93070182D01*
X127979248Y-93074019D01*
X127828214Y-93238084D01*
X127828211Y-93238088D01*
X127824686Y-93241917D01*
X127697016Y-93437331D01*
X127694921Y-93442107D01*
X127688609Y-93456498D01*
X127603251Y-93651093D01*
X127601973Y-93656141D01*
X127601971Y-93656146D01*
X127570710Y-93779594D01*
X127545949Y-93877374D01*
X127545519Y-93882565D01*
X127545518Y-93882570D01*
X127538205Y-93970828D01*
X127526673Y-94110000D01*
X114185744Y-94110000D01*
X108122449Y-50743500D01*
X154229357Y-50743500D01*
X167003500Y-50743500D01*
X167003500Y-44596500D01*
X154229357Y-44596500D01*
X154229357Y-50743500D01*
X108122449Y-50743500D01*
X108121629Y-50737635D01*
X107328979Y-45068367D01*
X107339356Y-44998134D01*
X107386057Y-44944659D01*
X107405070Y-44934712D01*
X138361508Y-31964629D01*
X138432065Y-31956753D01*
X138457918Y-31964228D01*
G37*
G04 #@! TD.AperFunction*
M02*
