G04 #@! TF.GenerationSoftware,KiCad,Pcbnew,(6.99.0-2452-gdb4f2d9dd8)*
G04 #@! TF.CreationDate,2022-08-02T21:03:54-05:00*
G04 #@! TF.ProjectId,CTCubed,43544375-6265-4642-9e6b-696361645f70,rev?*
G04 #@! TF.SameCoordinates,Original*
G04 #@! TF.FileFunction,Legend,Bot*
G04 #@! TF.FilePolarity,Positive*
%FSLAX46Y46*%
G04 Gerber Fmt 4.6, Leading zero omitted, Abs format (unit mm)*
G04 Created by KiCad (PCBNEW (6.99.0-2452-gdb4f2d9dd8)) date 2022-08-02 21:03:54*
%MOMM*%
%LPD*%
G01*
G04 APERTURE LIST*
G04 Aperture macros list*
%AMRoundRect*
0 Rectangle with rounded corners*
0 $1 Rounding radius*
0 $2 $3 $4 $5 $6 $7 $8 $9 X,Y pos of 4 corners*
0 Add a 4 corners polygon primitive as box body*
4,1,4,$2,$3,$4,$5,$6,$7,$8,$9,$2,$3,0*
0 Add four circle primitives for the rounded corners*
1,1,$1+$1,$2,$3*
1,1,$1+$1,$4,$5*
1,1,$1+$1,$6,$7*
1,1,$1+$1,$8,$9*
0 Add four rect primitives between the rounded corners*
20,1,$1+$1,$2,$3,$4,$5,0*
20,1,$1+$1,$4,$5,$6,$7,0*
20,1,$1+$1,$6,$7,$8,$9,0*
20,1,$1+$1,$8,$9,$2,$3,0*%
G04 Aperture macros list end*
%ADD10C,0.150000*%
%ADD11C,0.120000*%
%ADD12R,1.800000X1.800000*%
%ADD13C,1.800000*%
%ADD14R,1.700000X1.700000*%
%ADD15O,1.700000X1.700000*%
%ADD16RoundRect,0.250000X-0.400000X-0.625000X0.400000X-0.625000X0.400000X0.625000X-0.400000X0.625000X0*%
G04 APERTURE END LIST*
D10*
X165700714Y-54323809D02*
X166557857Y-54323809D01*
X166557857Y-54323809D02*
X166653095Y-54276190D01*
X166653095Y-54276190D02*
X166700714Y-54180952D01*
X166700714Y-54180952D02*
X166700714Y-54133333D01*
X165367380Y-54323809D02*
X165415000Y-54276190D01*
X165415000Y-54276190D02*
X165462619Y-54323809D01*
X165462619Y-54323809D02*
X165415000Y-54371428D01*
X165415000Y-54371428D02*
X165367380Y-54323809D01*
X165367380Y-54323809D02*
X165462619Y-54323809D01*
X166367380Y-54942856D02*
X166319761Y-54847618D01*
X166319761Y-54847618D02*
X166224523Y-54799999D01*
X166224523Y-54799999D02*
X165367380Y-54799999D01*
X166319761Y-55752380D02*
X166367380Y-55657142D01*
X166367380Y-55657142D02*
X166367380Y-55466666D01*
X166367380Y-55466666D02*
X166319761Y-55371428D01*
X166319761Y-55371428D02*
X166272142Y-55323809D01*
X166272142Y-55323809D02*
X166176904Y-55276190D01*
X166176904Y-55276190D02*
X165891190Y-55276190D01*
X165891190Y-55276190D02*
X165795952Y-55323809D01*
X165795952Y-55323809D02*
X165748333Y-55371428D01*
X165748333Y-55371428D02*
X165700714Y-55466666D01*
X165700714Y-55466666D02*
X165700714Y-55657142D01*
X165700714Y-55657142D02*
X165748333Y-55752380D01*
X165700714Y-56180952D02*
X166557857Y-56180952D01*
X166557857Y-56180952D02*
X166653095Y-56133333D01*
X166653095Y-56133333D02*
X166700714Y-56038095D01*
X166700714Y-56038095D02*
X166700714Y-55990476D01*
X165367380Y-56180952D02*
X165415000Y-56133333D01*
X165415000Y-56133333D02*
X165462619Y-56180952D01*
X165462619Y-56180952D02*
X165415000Y-56228571D01*
X165415000Y-56228571D02*
X165367380Y-56180952D01*
X165367380Y-56180952D02*
X165462619Y-56180952D01*
X166367380Y-56799999D02*
X166319761Y-56704761D01*
X166319761Y-56704761D02*
X166224523Y-56657142D01*
X166224523Y-56657142D02*
X165367380Y-56657142D01*
X166319761Y-57609523D02*
X166367380Y-57514285D01*
X166367380Y-57514285D02*
X166367380Y-57323809D01*
X166367380Y-57323809D02*
X166319761Y-57228571D01*
X166319761Y-57228571D02*
X166272142Y-57180952D01*
X166272142Y-57180952D02*
X166176904Y-57133333D01*
X166176904Y-57133333D02*
X165891190Y-57133333D01*
X165891190Y-57133333D02*
X165795952Y-57180952D01*
X165795952Y-57180952D02*
X165748333Y-57228571D01*
X165748333Y-57228571D02*
X165700714Y-57323809D01*
X165700714Y-57323809D02*
X165700714Y-57514285D01*
X165700714Y-57514285D02*
X165748333Y-57609523D01*
X165700714Y-58038095D02*
X166557857Y-58038095D01*
X166557857Y-58038095D02*
X166653095Y-57990476D01*
X166653095Y-57990476D02*
X166700714Y-57895238D01*
X166700714Y-57895238D02*
X166700714Y-57847619D01*
X165367380Y-58038095D02*
X165415000Y-57990476D01*
X165415000Y-57990476D02*
X165462619Y-58038095D01*
X165462619Y-58038095D02*
X165415000Y-58085714D01*
X165415000Y-58085714D02*
X165367380Y-58038095D01*
X165367380Y-58038095D02*
X165462619Y-58038095D01*
X166367380Y-58657142D02*
X166319761Y-58561904D01*
X166319761Y-58561904D02*
X166224523Y-58514285D01*
X166224523Y-58514285D02*
X165367380Y-58514285D01*
X166319761Y-59466666D02*
X166367380Y-59371428D01*
X166367380Y-59371428D02*
X166367380Y-59180952D01*
X166367380Y-59180952D02*
X166319761Y-59085714D01*
X166319761Y-59085714D02*
X166272142Y-59038095D01*
X166272142Y-59038095D02*
X166176904Y-58990476D01*
X166176904Y-58990476D02*
X165891190Y-58990476D01*
X165891190Y-58990476D02*
X165795952Y-59038095D01*
X165795952Y-59038095D02*
X165748333Y-59085714D01*
X165748333Y-59085714D02*
X165700714Y-59180952D01*
X165700714Y-59180952D02*
X165700714Y-59371428D01*
X165700714Y-59371428D02*
X165748333Y-59466666D01*
X165700714Y-59895238D02*
X166557857Y-59895238D01*
X166557857Y-59895238D02*
X166653095Y-59847619D01*
X166653095Y-59847619D02*
X166700714Y-59752381D01*
X166700714Y-59752381D02*
X166700714Y-59704762D01*
X165367380Y-59895238D02*
X165415000Y-59847619D01*
X165415000Y-59847619D02*
X165462619Y-59895238D01*
X165462619Y-59895238D02*
X165415000Y-59942857D01*
X165415000Y-59942857D02*
X165367380Y-59895238D01*
X165367380Y-59895238D02*
X165462619Y-59895238D01*
X166367380Y-60514285D02*
X166319761Y-60419047D01*
X166319761Y-60419047D02*
X166224523Y-60371428D01*
X166224523Y-60371428D02*
X165367380Y-60371428D01*
X166319761Y-61323809D02*
X166367380Y-61228571D01*
X166367380Y-61228571D02*
X166367380Y-61038095D01*
X166367380Y-61038095D02*
X166319761Y-60942857D01*
X166319761Y-60942857D02*
X166272142Y-60895238D01*
X166272142Y-60895238D02*
X166176904Y-60847619D01*
X166176904Y-60847619D02*
X165891190Y-60847619D01*
X165891190Y-60847619D02*
X165795952Y-60895238D01*
X165795952Y-60895238D02*
X165748333Y-60942857D01*
X165748333Y-60942857D02*
X165700714Y-61038095D01*
X165700714Y-61038095D02*
X165700714Y-61228571D01*
X165700714Y-61228571D02*
X165748333Y-61323809D01*
D11*
X153310000Y-92860000D02*
X153310000Y-98060000D01*
X148170000Y-92860000D02*
X153310000Y-92860000D01*
X148170000Y-92860000D02*
X148170000Y-95460000D01*
X146900000Y-92860000D02*
X145570000Y-92860000D01*
X145570000Y-92860000D02*
X145570000Y-94190000D01*
X148170000Y-95460000D02*
X145570000Y-95460000D01*
X145570000Y-95460000D02*
X145570000Y-98060000D01*
X145570000Y-98060000D02*
X153310000Y-98060000D01*
X138192936Y-87060000D02*
X139647064Y-87060000D01*
X138192936Y-88880000D02*
X139647064Y-88880000D01*
%LPC*%
D12*
X128939999Y-96649999D03*
D13*
X128940000Y-94110000D03*
D14*
X146899999Y-94189999D03*
D15*
X146899999Y-96729999D03*
X149439999Y-94189999D03*
X149439999Y-96729999D03*
X151979999Y-94189999D03*
X151979999Y-96729999D03*
D16*
X137370000Y-87970000D03*
X140470000Y-87970000D03*
M02*
