G04 #@! TF.GenerationSoftware,KiCad,Pcbnew,(6.99.0-2452-gdb4f2d9dd8)*
G04 #@! TF.CreationDate,2022-08-01T22:50:40-05:00*
G04 #@! TF.ProjectId,PTP,5054502e-6b69-4636-9164-5f7063625858,rev?*
G04 #@! TF.SameCoordinates,Original*
G04 #@! TF.FileFunction,Copper,L2,Bot*
G04 #@! TF.FilePolarity,Positive*
%FSLAX46Y46*%
G04 Gerber Fmt 4.6, Leading zero omitted, Abs format (unit mm)*
G04 Created by KiCad (PCBNEW (6.99.0-2452-gdb4f2d9dd8)) date 2022-08-01 22:50:40*
%MOMM*%
%LPD*%
G01*
G04 APERTURE LIST*
G04 Aperture macros list*
%AMRoundRect*
0 Rectangle with rounded corners*
0 $1 Rounding radius*
0 $2 $3 $4 $5 $6 $7 $8 $9 X,Y pos of 4 corners*
0 Add a 4 corners polygon primitive as box body*
4,1,4,$2,$3,$4,$5,$6,$7,$8,$9,$2,$3,0*
0 Add four circle primitives for the rounded corners*
1,1,$1+$1,$2,$3*
1,1,$1+$1,$4,$5*
1,1,$1+$1,$6,$7*
1,1,$1+$1,$8,$9*
0 Add four rect primitives between the rounded corners*
20,1,$1+$1,$2,$3,$4,$5,0*
20,1,$1+$1,$4,$5,$6,$7,0*
20,1,$1+$1,$6,$7,$8,$9,0*
20,1,$1+$1,$8,$9,$2,$3,0*%
G04 Aperture macros list end*
%ADD10C,0.300000*%
G04 #@! TA.AperFunction,NonConductor*
%ADD11C,0.300000*%
G04 #@! TD*
G04 #@! TA.AperFunction,ComponentPad*
%ADD12R,1.800000X1.800000*%
G04 #@! TD*
G04 #@! TA.AperFunction,ComponentPad*
%ADD13C,1.800000*%
G04 #@! TD*
G04 #@! TA.AperFunction,ComponentPad*
%ADD14R,1.700000X1.700000*%
G04 #@! TD*
G04 #@! TA.AperFunction,ComponentPad*
%ADD15O,1.700000X1.700000*%
G04 #@! TD*
G04 #@! TA.AperFunction,SMDPad,CuDef*
%ADD16RoundRect,0.250000X-0.400000X-0.625000X0.400000X-0.625000X0.400000X0.625000X-0.400000X0.625000X0*%
G04 #@! TD*
G04 #@! TA.AperFunction,Conductor*
%ADD17C,0.250000*%
G04 #@! TD*
G04 APERTURE END LIST*
D10*
D11*
X177714285Y-80629285D02*
X177785714Y-80557857D01*
X177785714Y-80557857D02*
X177928571Y-80486428D01*
X177928571Y-80486428D02*
X178071428Y-80486428D01*
X178071428Y-80486428D02*
X178214285Y-80557857D01*
X178214285Y-80557857D02*
X178285714Y-80629285D01*
X178285714Y-80629285D02*
X178357142Y-80772142D01*
X178357142Y-80772142D02*
X178357142Y-80915000D01*
X178357142Y-80915000D02*
X178285714Y-81057857D01*
X178285714Y-81057857D02*
X178214285Y-81129285D01*
X178214285Y-81129285D02*
X178071428Y-81200714D01*
X178071428Y-81200714D02*
X177928571Y-81200714D01*
X177928571Y-81200714D02*
X177785714Y-81129285D01*
X177785714Y-81129285D02*
X177714285Y-81057857D01*
X177714285Y-80486428D02*
X177714285Y-81057857D01*
X177714285Y-81057857D02*
X177642857Y-81129285D01*
X177642857Y-81129285D02*
X177571428Y-81129285D01*
X177571428Y-81129285D02*
X177428571Y-81057857D01*
X177428571Y-81057857D02*
X177357142Y-80915000D01*
X177357142Y-80915000D02*
X177357142Y-80557857D01*
X177357142Y-80557857D02*
X177500000Y-80343571D01*
X177500000Y-80343571D02*
X177714285Y-80200714D01*
X177714285Y-80200714D02*
X178000000Y-80129285D01*
X178000000Y-80129285D02*
X178285714Y-80200714D01*
X178285714Y-80200714D02*
X178500000Y-80343571D01*
X178500000Y-80343571D02*
X178642857Y-80557857D01*
X178642857Y-80557857D02*
X178714285Y-80843571D01*
X178714285Y-80843571D02*
X178642857Y-81129285D01*
X178642857Y-81129285D02*
X178500000Y-81343571D01*
X178500000Y-81343571D02*
X178285714Y-81486428D01*
X178285714Y-81486428D02*
X178000000Y-81557857D01*
X178000000Y-81557857D02*
X177714285Y-81486428D01*
X177714285Y-81486428D02*
X177500000Y-81343571D01*
X176071429Y-81343571D02*
X176071429Y-80557857D01*
X176071429Y-80557857D02*
X176142857Y-80415000D01*
X176142857Y-80415000D02*
X176285714Y-80343571D01*
X176285714Y-80343571D02*
X176571429Y-80343571D01*
X176571429Y-80343571D02*
X176714286Y-80415000D01*
X176071429Y-81272142D02*
X176214286Y-81343571D01*
X176214286Y-81343571D02*
X176571429Y-81343571D01*
X176571429Y-81343571D02*
X176714286Y-81272142D01*
X176714286Y-81272142D02*
X176785714Y-81129285D01*
X176785714Y-81129285D02*
X176785714Y-80986428D01*
X176785714Y-80986428D02*
X176714286Y-80843571D01*
X176714286Y-80843571D02*
X176571429Y-80772142D01*
X176571429Y-80772142D02*
X176214286Y-80772142D01*
X176214286Y-80772142D02*
X176071429Y-80700714D01*
X175500000Y-80343571D02*
X175142857Y-81343571D01*
X175142857Y-81343571D02*
X174785714Y-80343571D01*
X174571429Y-81486428D02*
X173428571Y-81486428D01*
X173071429Y-80343571D02*
X173071429Y-81843571D01*
X173071429Y-80415000D02*
X172928572Y-80343571D01*
X172928572Y-80343571D02*
X172642857Y-80343571D01*
X172642857Y-80343571D02*
X172500000Y-80415000D01*
X172500000Y-80415000D02*
X172428572Y-80486428D01*
X172428572Y-80486428D02*
X172357143Y-80629285D01*
X172357143Y-80629285D02*
X172357143Y-81057857D01*
X172357143Y-81057857D02*
X172428572Y-81200714D01*
X172428572Y-81200714D02*
X172500000Y-81272142D01*
X172500000Y-81272142D02*
X172642857Y-81343571D01*
X172642857Y-81343571D02*
X172928572Y-81343571D01*
X172928572Y-81343571D02*
X173071429Y-81272142D01*
X171071429Y-80343571D02*
X171071429Y-81343571D01*
X171714286Y-80343571D02*
X171714286Y-81129285D01*
X171714286Y-81129285D02*
X171642857Y-81272142D01*
X171642857Y-81272142D02*
X171500000Y-81343571D01*
X171500000Y-81343571D02*
X171285714Y-81343571D01*
X171285714Y-81343571D02*
X171142857Y-81272142D01*
X171142857Y-81272142D02*
X171071429Y-81200714D01*
X170357143Y-81343571D02*
X170357143Y-79843571D01*
X170357143Y-80415000D02*
X170214286Y-80343571D01*
X170214286Y-80343571D02*
X169928571Y-80343571D01*
X169928571Y-80343571D02*
X169785714Y-80415000D01*
X169785714Y-80415000D02*
X169714286Y-80486428D01*
X169714286Y-80486428D02*
X169642857Y-80629285D01*
X169642857Y-80629285D02*
X169642857Y-81057857D01*
X169642857Y-81057857D02*
X169714286Y-81200714D01*
X169714286Y-81200714D02*
X169785714Y-81272142D01*
X169785714Y-81272142D02*
X169928571Y-81343571D01*
X169928571Y-81343571D02*
X170214286Y-81343571D01*
X170214286Y-81343571D02*
X170357143Y-81272142D01*
X169071428Y-81272142D02*
X168928571Y-81343571D01*
X168928571Y-81343571D02*
X168642857Y-81343571D01*
X168642857Y-81343571D02*
X168500000Y-81272142D01*
X168500000Y-81272142D02*
X168428571Y-81129285D01*
X168428571Y-81129285D02*
X168428571Y-81057857D01*
X168428571Y-81057857D02*
X168500000Y-80915000D01*
X168500000Y-80915000D02*
X168642857Y-80843571D01*
X168642857Y-80843571D02*
X168857143Y-80843571D01*
X168857143Y-80843571D02*
X169000000Y-80772142D01*
X169000000Y-80772142D02*
X169071428Y-80629285D01*
X169071428Y-80629285D02*
X169071428Y-80557857D01*
X169071428Y-80557857D02*
X169000000Y-80415000D01*
X169000000Y-80415000D02*
X168857143Y-80343571D01*
X168857143Y-80343571D02*
X168642857Y-80343571D01*
X168642857Y-80343571D02*
X168500000Y-80415000D01*
X178785714Y-82773571D02*
X178428571Y-83773571D01*
X178428571Y-83773571D02*
X178071428Y-82773571D01*
X177571428Y-82416428D02*
X177500000Y-82345000D01*
X177500000Y-82345000D02*
X177357143Y-82273571D01*
X177357143Y-82273571D02*
X177000000Y-82273571D01*
X177000000Y-82273571D02*
X176857143Y-82345000D01*
X176857143Y-82345000D02*
X176785714Y-82416428D01*
X176785714Y-82416428D02*
X176714285Y-82559285D01*
X176714285Y-82559285D02*
X176714285Y-82702142D01*
X176714285Y-82702142D02*
X176785714Y-82916428D01*
X176785714Y-82916428D02*
X177642857Y-83773571D01*
X177642857Y-83773571D02*
X176714285Y-83773571D01*
D12*
X97099999Y-80929999D03*
D13*
X97100000Y-83470000D03*
D14*
X103659999Y-81329999D03*
D15*
X103659999Y-83869999D03*
X106199999Y-81329999D03*
X106199999Y-83869999D03*
X108739999Y-81329999D03*
X108739999Y-83869999D03*
D16*
X97100000Y-87800000D03*
X100200000Y-87800000D03*
D17*
X111400000Y-86600000D02*
X111400000Y-79800000D01*
X98830000Y-79200000D02*
X97100000Y-80930000D01*
X106390000Y-86600000D02*
X111400000Y-86600000D01*
X111400000Y-79800000D02*
X110800000Y-79200000D01*
X103660000Y-83870000D02*
X106390000Y-86600000D01*
X110800000Y-79200000D02*
X98830000Y-79200000D01*
X97100000Y-83470000D02*
X97100000Y-87800000D01*
X100200000Y-87800000D02*
X100200000Y-84790000D01*
X100200000Y-84790000D02*
X103660000Y-81330000D01*
G04 #@! TA.AperFunction,NonConductor*
G36*
X105688330Y-79853502D02*
G01*
X105734823Y-79907158D01*
X105744927Y-79977432D01*
X105715433Y-80042012D01*
X105661121Y-80078673D01*
X105652426Y-80081658D01*
X105454424Y-80188811D01*
X105276760Y-80327094D01*
X105273228Y-80330931D01*
X105215755Y-80393362D01*
X105154901Y-80429933D01*
X105083937Y-80427798D01*
X105025392Y-80387636D01*
X105004998Y-80352056D01*
X104964038Y-80242239D01*
X104964037Y-80242237D01*
X104960889Y-80233796D01*
X104873261Y-80116739D01*
X104797958Y-80060367D01*
X104755411Y-80003533D01*
X104750346Y-79932717D01*
X104784371Y-79870405D01*
X104846684Y-79836380D01*
X104873467Y-79833500D01*
X105620209Y-79833500D01*
X105688330Y-79853502D01*
G37*
G04 #@! TD.AperFunction*
G04 #@! TA.AperFunction,NonConductor*
G36*
X108228330Y-79853502D02*
G01*
X108274823Y-79907158D01*
X108284927Y-79977432D01*
X108255433Y-80042012D01*
X108201121Y-80078673D01*
X108192426Y-80081658D01*
X107994424Y-80188811D01*
X107816760Y-80327094D01*
X107813228Y-80330931D01*
X107667806Y-80488899D01*
X107667803Y-80488903D01*
X107664278Y-80492732D01*
X107661427Y-80497096D01*
X107575483Y-80628643D01*
X107521479Y-80674732D01*
X107451132Y-80684307D01*
X107386774Y-80654330D01*
X107364517Y-80628643D01*
X107278573Y-80497096D01*
X107275722Y-80492732D01*
X107272197Y-80488903D01*
X107272194Y-80488899D01*
X107126772Y-80330931D01*
X107123240Y-80327094D01*
X106945576Y-80188811D01*
X106747574Y-80081658D01*
X106738879Y-80078673D01*
X106680944Y-80037636D01*
X106654392Y-79971791D01*
X106667653Y-79902044D01*
X106716518Y-79850539D01*
X106779791Y-79833500D01*
X108160209Y-79833500D01*
X108228330Y-79853502D01*
G37*
G04 #@! TD.AperFunction*
G04 #@! TA.AperFunction,NonConductor*
G36*
X107553226Y-82005670D02*
G01*
X107575483Y-82031357D01*
X107664278Y-82167268D01*
X107667803Y-82171097D01*
X107667806Y-82171101D01*
X107732511Y-82241388D01*
X107816760Y-82332906D01*
X107820879Y-82336112D01*
X107871103Y-82375203D01*
X107994424Y-82471189D01*
X108018951Y-82484462D01*
X108027680Y-82489186D01*
X108078071Y-82539199D01*
X108093423Y-82608516D01*
X108068863Y-82675129D01*
X108027681Y-82710813D01*
X107994424Y-82728811D01*
X107990313Y-82732010D01*
X107990311Y-82732012D01*
X107820879Y-82863888D01*
X107816760Y-82867094D01*
X107813228Y-82870931D01*
X107667806Y-83028899D01*
X107667803Y-83028903D01*
X107664278Y-83032732D01*
X107661427Y-83037096D01*
X107575483Y-83168643D01*
X107521479Y-83214732D01*
X107451132Y-83224307D01*
X107386774Y-83194330D01*
X107364517Y-83168643D01*
X107278573Y-83037096D01*
X107275722Y-83032732D01*
X107272197Y-83028903D01*
X107272194Y-83028899D01*
X107126772Y-82870931D01*
X107123240Y-82867094D01*
X107119121Y-82863888D01*
X106949689Y-82732012D01*
X106949687Y-82732010D01*
X106945576Y-82728811D01*
X106912320Y-82710814D01*
X106861929Y-82660801D01*
X106846577Y-82591484D01*
X106871137Y-82524871D01*
X106912320Y-82489186D01*
X106921050Y-82484462D01*
X106945576Y-82471189D01*
X107068898Y-82375203D01*
X107119121Y-82336112D01*
X107123240Y-82332906D01*
X107207489Y-82241388D01*
X107272194Y-82171101D01*
X107272197Y-82171097D01*
X107275722Y-82167268D01*
X107364517Y-82031357D01*
X107418521Y-81985268D01*
X107488868Y-81975693D01*
X107553226Y-82005670D01*
G37*
G04 #@! TD.AperFunction*
G04 #@! TA.AperFunction,NonConductor*
G36*
X105183439Y-82241388D02*
G01*
X105215755Y-82266638D01*
X105231775Y-82284040D01*
X105276760Y-82332906D01*
X105280879Y-82336112D01*
X105331103Y-82375203D01*
X105454424Y-82471189D01*
X105478951Y-82484462D01*
X105487680Y-82489186D01*
X105538071Y-82539199D01*
X105553423Y-82608516D01*
X105528863Y-82675129D01*
X105487681Y-82710813D01*
X105454424Y-82728811D01*
X105450313Y-82732010D01*
X105450311Y-82732012D01*
X105280879Y-82863888D01*
X105276760Y-82867094D01*
X105273228Y-82870931D01*
X105127806Y-83028899D01*
X105127803Y-83028903D01*
X105124278Y-83032732D01*
X105121427Y-83037096D01*
X105035483Y-83168643D01*
X104981479Y-83214732D01*
X104911132Y-83224307D01*
X104846774Y-83194330D01*
X104824517Y-83168643D01*
X104738573Y-83037096D01*
X104735722Y-83032732D01*
X104732197Y-83028903D01*
X104732194Y-83028899D01*
X104592525Y-82877180D01*
X104561104Y-82813515D01*
X104569091Y-82742969D01*
X104613949Y-82687940D01*
X104641191Y-82673787D01*
X104756204Y-82630889D01*
X104768536Y-82621658D01*
X104866050Y-82548659D01*
X104873261Y-82543261D01*
X104913741Y-82489186D01*
X104955489Y-82433418D01*
X104955490Y-82433416D01*
X104960889Y-82426204D01*
X105004998Y-82307944D01*
X105047545Y-82251108D01*
X105114065Y-82226297D01*
X105183439Y-82241388D01*
G37*
G04 #@! TD.AperFunction*
G04 #@! TA.AperFunction,NonConductor*
G36*
X110553527Y-79853502D02*
G01*
X110574501Y-79870405D01*
X110729595Y-80025499D01*
X110763621Y-80087811D01*
X110766500Y-80114594D01*
X110766500Y-85840500D01*
X110746498Y-85908621D01*
X110692842Y-85955114D01*
X110640500Y-85966500D01*
X106704595Y-85966500D01*
X106636474Y-85946498D01*
X106615499Y-85929595D01*
X106129500Y-85443595D01*
X106095475Y-85381283D01*
X106100540Y-85310467D01*
X106143087Y-85253632D01*
X106209607Y-85228821D01*
X106218596Y-85228500D01*
X106312569Y-85228500D01*
X106317704Y-85227643D01*
X106317706Y-85227643D01*
X106529496Y-85192302D01*
X106529501Y-85192301D01*
X106534635Y-85191444D01*
X106747574Y-85118342D01*
X106772979Y-85104594D01*
X106940995Y-85013668D01*
X106945576Y-85011189D01*
X106981151Y-84983500D01*
X107119121Y-84876112D01*
X107123240Y-84872906D01*
X107218025Y-84769943D01*
X107272194Y-84711101D01*
X107272197Y-84711097D01*
X107275722Y-84707268D01*
X107364517Y-84571357D01*
X107418521Y-84525268D01*
X107488868Y-84515693D01*
X107553226Y-84545670D01*
X107575483Y-84571357D01*
X107664278Y-84707268D01*
X107667803Y-84711097D01*
X107667806Y-84711101D01*
X107721975Y-84769943D01*
X107816760Y-84872906D01*
X107820879Y-84876112D01*
X107958850Y-84983500D01*
X107994424Y-85011189D01*
X107999005Y-85013668D01*
X108167022Y-85104594D01*
X108192426Y-85118342D01*
X108405365Y-85191444D01*
X108410499Y-85192301D01*
X108410504Y-85192302D01*
X108622294Y-85227643D01*
X108622296Y-85227643D01*
X108627431Y-85228500D01*
X108852569Y-85228500D01*
X108857704Y-85227643D01*
X108857706Y-85227643D01*
X109069496Y-85192302D01*
X109069501Y-85192301D01*
X109074635Y-85191444D01*
X109287574Y-85118342D01*
X109312979Y-85104594D01*
X109480995Y-85013668D01*
X109485576Y-85011189D01*
X109521151Y-84983500D01*
X109659121Y-84876112D01*
X109663240Y-84872906D01*
X109758025Y-84769943D01*
X109812194Y-84711101D01*
X109812197Y-84711097D01*
X109815722Y-84707268D01*
X109878058Y-84611855D01*
X109936008Y-84523157D01*
X109936010Y-84523153D01*
X109938860Y-84518791D01*
X109942283Y-84510989D01*
X110027200Y-84317394D01*
X110029296Y-84312616D01*
X110084564Y-84094368D01*
X110098694Y-83923854D01*
X110102726Y-83875189D01*
X110103156Y-83870000D01*
X110089287Y-83702626D01*
X110084995Y-83650828D01*
X110084994Y-83650823D01*
X110084564Y-83645632D01*
X110083283Y-83640573D01*
X110030578Y-83432446D01*
X110030578Y-83432445D01*
X110029296Y-83427384D01*
X109938860Y-83221209D01*
X109934629Y-83214732D01*
X109818573Y-83037096D01*
X109815722Y-83032732D01*
X109812197Y-83028903D01*
X109812194Y-83028899D01*
X109666772Y-82870931D01*
X109663240Y-82867094D01*
X109659121Y-82863888D01*
X109489689Y-82732012D01*
X109489687Y-82732010D01*
X109485576Y-82728811D01*
X109452320Y-82710814D01*
X109401929Y-82660801D01*
X109386577Y-82591484D01*
X109411137Y-82524871D01*
X109452320Y-82489186D01*
X109461050Y-82484462D01*
X109485576Y-82471189D01*
X109608898Y-82375203D01*
X109659121Y-82336112D01*
X109663240Y-82332906D01*
X109747489Y-82241388D01*
X109812194Y-82171101D01*
X109812197Y-82171097D01*
X109815722Y-82167268D01*
X109921299Y-82005670D01*
X109936008Y-81983157D01*
X109936010Y-81983153D01*
X109938860Y-81978791D01*
X109981322Y-81881988D01*
X110027200Y-81777394D01*
X110029296Y-81772616D01*
X110084564Y-81554368D01*
X110103156Y-81330000D01*
X110084564Y-81105632D01*
X110029296Y-80887384D01*
X109938860Y-80681209D01*
X109934629Y-80674732D01*
X109818573Y-80497096D01*
X109815722Y-80492732D01*
X109812197Y-80488903D01*
X109812194Y-80488899D01*
X109666772Y-80330931D01*
X109663240Y-80327094D01*
X109485576Y-80188811D01*
X109287574Y-80081658D01*
X109278879Y-80078673D01*
X109220944Y-80037636D01*
X109194392Y-79971791D01*
X109207653Y-79902044D01*
X109256518Y-79850539D01*
X109319791Y-79833500D01*
X110485406Y-79833500D01*
X110553527Y-79853502D01*
G37*
G04 #@! TD.AperFunction*
G04 #@! TA.AperFunction,NonConductor*
G36*
X98097526Y-78820502D02*
G01*
X98144019Y-78874158D01*
X98154123Y-78944432D01*
X98124629Y-79009012D01*
X98118500Y-79015595D01*
X97649500Y-79484595D01*
X97587188Y-79518621D01*
X97560405Y-79521500D01*
X96151362Y-79521500D01*
X96148015Y-79521860D01*
X96148012Y-79521860D01*
X96127705Y-79524043D01*
X96090799Y-79528011D01*
X95953796Y-79579111D01*
X95946584Y-79584510D01*
X95946582Y-79584511D01*
X95933145Y-79594570D01*
X95836739Y-79666739D01*
X95831341Y-79673950D01*
X95766817Y-79760144D01*
X95749111Y-79783796D01*
X95698011Y-79920799D01*
X95697169Y-79928633D01*
X95691923Y-79977432D01*
X95691500Y-79981362D01*
X95691500Y-81878638D01*
X95698011Y-81939201D01*
X95749111Y-82076204D01*
X95836739Y-82193261D01*
X95953796Y-82280889D01*
X95962238Y-82284038D01*
X95962242Y-82284040D01*
X96021174Y-82306021D01*
X96078009Y-82348567D01*
X96102820Y-82415088D01*
X96087728Y-82484462D01*
X96069844Y-82509411D01*
X96045321Y-82536050D01*
X95988214Y-82598084D01*
X95988211Y-82598088D01*
X95984686Y-82601917D01*
X95981835Y-82606281D01*
X95928485Y-82687940D01*
X95857016Y-82797331D01*
X95763251Y-83011093D01*
X95761973Y-83016141D01*
X95761971Y-83016146D01*
X95709258Y-83224307D01*
X95705949Y-83237374D01*
X95686673Y-83470000D01*
X95705949Y-83702626D01*
X95707230Y-83707684D01*
X95707230Y-83707685D01*
X95749648Y-83875189D01*
X95763251Y-83928907D01*
X95857016Y-84142669D01*
X95984686Y-84338083D01*
X95988211Y-84341912D01*
X95988214Y-84341916D01*
X96094975Y-84457889D01*
X96142780Y-84509818D01*
X96146892Y-84513019D01*
X96146898Y-84513024D01*
X96322870Y-84649989D01*
X96326983Y-84653190D01*
X96331567Y-84655671D01*
X96331569Y-84655672D01*
X96400470Y-84692960D01*
X96450860Y-84742973D01*
X96466500Y-84803773D01*
X96466500Y-86362329D01*
X96446498Y-86430450D01*
X96392842Y-86476943D01*
X96387635Y-86478988D01*
X96384228Y-86480577D01*
X96377262Y-86482885D01*
X96226348Y-86575970D01*
X96100970Y-86701348D01*
X96097117Y-86707595D01*
X96097116Y-86707596D01*
X96075799Y-86742157D01*
X96007885Y-86852262D01*
X95996127Y-86887745D01*
X95956605Y-87007018D01*
X95952113Y-87020574D01*
X95951415Y-87027408D01*
X95951414Y-87027412D01*
X95941825Y-87121270D01*
X95941500Y-87124455D01*
X95941501Y-88475544D01*
X95952113Y-88579426D01*
X96007885Y-88747738D01*
X96100970Y-88898652D01*
X96226348Y-89024030D01*
X96377262Y-89117115D01*
X96440807Y-89138171D01*
X96539048Y-89170725D01*
X96539052Y-89170726D01*
X96545574Y-89172887D01*
X96552408Y-89173585D01*
X96552412Y-89173586D01*
X96646271Y-89183175D01*
X96646277Y-89183175D01*
X96649455Y-89183500D01*
X97099929Y-89183500D01*
X97550544Y-89183499D01*
X97553721Y-89183174D01*
X97553730Y-89183174D01*
X97602467Y-89178195D01*
X97654426Y-89172887D01*
X97822738Y-89117115D01*
X97973652Y-89024030D01*
X98099030Y-88898652D01*
X98192115Y-88747738D01*
X98247887Y-88579426D01*
X98258500Y-88475545D01*
X98258499Y-87124456D01*
X98258086Y-87120407D01*
X98252950Y-87070134D01*
X98247887Y-87020574D01*
X98192115Y-86852262D01*
X98124201Y-86742157D01*
X98102884Y-86707596D01*
X98102883Y-86707595D01*
X98099030Y-86701348D01*
X97973652Y-86575970D01*
X97822738Y-86482885D01*
X97815774Y-86480577D01*
X97809121Y-86477475D01*
X97810172Y-86475221D01*
X97761496Y-86441520D01*
X97734240Y-86375964D01*
X97733500Y-86362329D01*
X97733500Y-84803773D01*
X97753502Y-84735652D01*
X97799530Y-84692960D01*
X97868431Y-84655672D01*
X97868433Y-84655671D01*
X97873017Y-84653190D01*
X97877130Y-84649989D01*
X98053102Y-84513024D01*
X98053108Y-84513019D01*
X98057220Y-84509818D01*
X98105025Y-84457889D01*
X98211786Y-84341916D01*
X98211789Y-84341912D01*
X98215314Y-84338083D01*
X98342984Y-84142669D01*
X98436749Y-83928907D01*
X98450353Y-83875189D01*
X98492770Y-83707685D01*
X98492770Y-83707684D01*
X98494051Y-83702626D01*
X98513327Y-83470000D01*
X98494051Y-83237374D01*
X98490742Y-83224307D01*
X98438029Y-83016146D01*
X98438027Y-83016141D01*
X98436749Y-83011093D01*
X98342984Y-82797331D01*
X98271516Y-82687940D01*
X98218165Y-82606281D01*
X98215314Y-82601917D01*
X98211789Y-82598088D01*
X98211786Y-82598084D01*
X98154679Y-82536050D01*
X98130157Y-82509413D01*
X98098737Y-82445749D01*
X98106724Y-82375203D01*
X98151582Y-82320174D01*
X98178826Y-82306021D01*
X98237758Y-82284040D01*
X98237762Y-82284038D01*
X98246204Y-82280889D01*
X98363261Y-82193261D01*
X98450889Y-82076204D01*
X98501989Y-81939201D01*
X98508500Y-81878638D01*
X98508500Y-80469594D01*
X98528502Y-80401473D01*
X98545405Y-80380499D01*
X99055499Y-79870405D01*
X99117811Y-79836379D01*
X99144594Y-79833500D01*
X102446533Y-79833500D01*
X102514654Y-79853502D01*
X102561147Y-79907158D01*
X102571251Y-79977432D01*
X102541757Y-80042012D01*
X102522043Y-80060367D01*
X102446739Y-80116739D01*
X102359111Y-80233796D01*
X102308011Y-80370799D01*
X102301500Y-80431362D01*
X102301500Y-81740406D01*
X102281498Y-81808527D01*
X102264595Y-81829501D01*
X99807747Y-84286348D01*
X99799461Y-84293888D01*
X99792982Y-84298000D01*
X99787557Y-84303777D01*
X99746357Y-84347651D01*
X99743602Y-84350493D01*
X99723865Y-84370230D01*
X99721385Y-84373427D01*
X99713682Y-84382447D01*
X99683414Y-84414679D01*
X99679595Y-84421625D01*
X99679593Y-84421628D01*
X99673652Y-84432434D01*
X99662801Y-84448953D01*
X99650386Y-84464959D01*
X99647241Y-84472228D01*
X99647238Y-84472232D01*
X99632826Y-84505537D01*
X99627609Y-84516187D01*
X99606305Y-84554940D01*
X99604334Y-84562615D01*
X99604334Y-84562616D01*
X99601267Y-84574562D01*
X99594863Y-84593266D01*
X99586819Y-84611855D01*
X99585580Y-84619678D01*
X99585577Y-84619688D01*
X99579901Y-84655524D01*
X99577495Y-84667144D01*
X99566500Y-84709970D01*
X99566500Y-84730224D01*
X99564949Y-84749934D01*
X99561780Y-84769943D01*
X99562526Y-84777835D01*
X99565941Y-84813961D01*
X99566500Y-84825819D01*
X99566500Y-86362329D01*
X99546498Y-86430450D01*
X99492842Y-86476943D01*
X99487635Y-86478988D01*
X99484228Y-86480577D01*
X99477262Y-86482885D01*
X99326348Y-86575970D01*
X99200970Y-86701348D01*
X99197117Y-86707595D01*
X99197116Y-86707596D01*
X99175799Y-86742157D01*
X99107885Y-86852262D01*
X99096127Y-86887745D01*
X99056605Y-87007018D01*
X99052113Y-87020574D01*
X99051415Y-87027408D01*
X99051414Y-87027412D01*
X99041825Y-87121270D01*
X99041500Y-87124455D01*
X99041501Y-88475544D01*
X99052113Y-88579426D01*
X99107885Y-88747738D01*
X99200970Y-88898652D01*
X99326348Y-89024030D01*
X99477262Y-89117115D01*
X99540807Y-89138171D01*
X99639048Y-89170725D01*
X99639052Y-89170726D01*
X99645574Y-89172887D01*
X99652408Y-89173585D01*
X99652412Y-89173586D01*
X99746271Y-89183175D01*
X99746277Y-89183175D01*
X99749455Y-89183500D01*
X100199929Y-89183500D01*
X100650544Y-89183499D01*
X100653721Y-89183174D01*
X100653730Y-89183174D01*
X100702467Y-89178195D01*
X100754426Y-89172887D01*
X100922738Y-89117115D01*
X101073652Y-89024030D01*
X101199030Y-88898652D01*
X101292115Y-88747738D01*
X101347887Y-88579426D01*
X101358500Y-88475545D01*
X101358499Y-87124456D01*
X101358086Y-87120407D01*
X101352950Y-87070134D01*
X101347887Y-87020574D01*
X101292115Y-86852262D01*
X101224201Y-86742157D01*
X101202884Y-86707596D01*
X101202883Y-86707595D01*
X101199030Y-86701348D01*
X101073652Y-86575970D01*
X100922738Y-86482885D01*
X100915774Y-86480577D01*
X100909121Y-86477475D01*
X100910172Y-86475221D01*
X100861496Y-86441520D01*
X100834240Y-86375964D01*
X100833500Y-86362329D01*
X100833500Y-85104594D01*
X100853502Y-85036473D01*
X100870405Y-85015499D01*
X102083129Y-83802776D01*
X102145441Y-83768750D01*
X102216257Y-83773815D01*
X102273092Y-83816362D01*
X102297794Y-83881466D01*
X102302121Y-83933679D01*
X102315436Y-84094368D01*
X102370704Y-84312616D01*
X102372800Y-84317394D01*
X102457718Y-84510989D01*
X102461140Y-84518791D01*
X102463990Y-84523153D01*
X102463992Y-84523157D01*
X102521942Y-84611855D01*
X102584278Y-84707268D01*
X102587803Y-84711097D01*
X102587806Y-84711101D01*
X102641975Y-84769943D01*
X102736760Y-84872906D01*
X102740879Y-84876112D01*
X102878850Y-84983500D01*
X102914424Y-85011189D01*
X102919005Y-85013668D01*
X103087022Y-85104594D01*
X103112426Y-85118342D01*
X103325365Y-85191444D01*
X103330499Y-85192301D01*
X103330504Y-85192302D01*
X103542294Y-85227643D01*
X103542296Y-85227643D01*
X103547431Y-85228500D01*
X103772569Y-85228500D01*
X103777704Y-85227643D01*
X103777706Y-85227643D01*
X103989501Y-85192301D01*
X103989504Y-85192300D01*
X103994635Y-85191444D01*
X103997924Y-85190315D01*
X104068364Y-85192965D01*
X104117442Y-85223346D01*
X105886348Y-86992253D01*
X105893888Y-87000539D01*
X105898000Y-87007018D01*
X105903777Y-87012443D01*
X105947651Y-87053643D01*
X105950493Y-87056398D01*
X105970230Y-87076135D01*
X105973427Y-87078615D01*
X105982447Y-87086318D01*
X106014679Y-87116586D01*
X106021625Y-87120405D01*
X106021628Y-87120407D01*
X106032434Y-87126348D01*
X106048953Y-87137199D01*
X106064959Y-87149614D01*
X106072228Y-87152759D01*
X106072232Y-87152762D01*
X106105537Y-87167174D01*
X106116187Y-87172391D01*
X106154940Y-87193695D01*
X106162615Y-87195666D01*
X106162616Y-87195666D01*
X106174562Y-87198733D01*
X106193267Y-87205137D01*
X106211855Y-87213181D01*
X106219678Y-87214420D01*
X106219688Y-87214423D01*
X106255524Y-87220099D01*
X106267144Y-87222505D01*
X106302289Y-87231528D01*
X106309970Y-87233500D01*
X106330224Y-87233500D01*
X106349934Y-87235051D01*
X106369943Y-87238220D01*
X106377835Y-87237474D01*
X106389263Y-87236394D01*
X106413962Y-87234059D01*
X106425819Y-87233500D01*
X111328207Y-87233500D01*
X111351816Y-87235732D01*
X111352119Y-87235790D01*
X111352123Y-87235790D01*
X111359906Y-87237275D01*
X111415951Y-87233749D01*
X111423862Y-87233500D01*
X111439856Y-87233500D01*
X111455730Y-87231494D01*
X111463590Y-87230752D01*
X111491049Y-87229024D01*
X111511737Y-87227723D01*
X111511738Y-87227723D01*
X111519650Y-87227225D01*
X111527191Y-87224775D01*
X111527487Y-87224679D01*
X111550631Y-87219506D01*
X111550935Y-87219468D01*
X111550940Y-87219467D01*
X111558797Y-87218474D01*
X111566162Y-87215558D01*
X111566166Y-87215557D01*
X111611011Y-87197801D01*
X111618430Y-87195129D01*
X111671875Y-87177764D01*
X111678572Y-87173514D01*
X111678831Y-87173350D01*
X111699958Y-87162585D01*
X111700246Y-87162471D01*
X111700251Y-87162468D01*
X111707617Y-87159552D01*
X111714025Y-87154896D01*
X111714031Y-87154893D01*
X111753052Y-87126542D01*
X111759589Y-87122099D01*
X111807018Y-87092000D01*
X111812659Y-87085993D01*
X111830446Y-87070312D01*
X111830691Y-87070134D01*
X111830693Y-87070132D01*
X111837107Y-87065472D01*
X111868594Y-87027412D01*
X111872903Y-87022204D01*
X111878134Y-87016270D01*
X111911158Y-86981102D01*
X111911160Y-86981099D01*
X111916586Y-86975321D01*
X111920558Y-86968097D01*
X111933881Y-86948494D01*
X111934080Y-86948254D01*
X111934084Y-86948247D01*
X111939133Y-86942144D01*
X111963047Y-86891324D01*
X111966629Y-86884292D01*
X111993695Y-86835060D01*
X111995665Y-86827385D01*
X111995668Y-86827379D01*
X111995744Y-86827081D01*
X112003776Y-86804772D01*
X112003906Y-86804497D01*
X112003909Y-86804489D01*
X112007283Y-86797318D01*
X112017806Y-86742151D01*
X112019532Y-86734429D01*
X112031529Y-86687707D01*
X112031529Y-86687706D01*
X112033500Y-86680030D01*
X112033500Y-86671793D01*
X112035732Y-86648184D01*
X112035790Y-86647881D01*
X112035790Y-86647877D01*
X112037275Y-86640094D01*
X112033749Y-86584049D01*
X112033500Y-86576138D01*
X112033500Y-79878767D01*
X112034027Y-79867584D01*
X112035702Y-79860091D01*
X112033562Y-79792014D01*
X112033500Y-79788055D01*
X112033500Y-79760144D01*
X112032995Y-79756144D01*
X112032062Y-79744301D01*
X112030922Y-79708029D01*
X112030673Y-79700110D01*
X112025022Y-79680658D01*
X112021014Y-79661306D01*
X112019467Y-79649063D01*
X112018474Y-79641203D01*
X112015556Y-79633832D01*
X112002200Y-79600097D01*
X111998355Y-79588870D01*
X111997721Y-79586687D01*
X111986018Y-79546407D01*
X111975707Y-79528972D01*
X111967012Y-79511224D01*
X111959552Y-79492383D01*
X111933564Y-79456613D01*
X111927048Y-79446693D01*
X111908580Y-79415465D01*
X111908578Y-79415462D01*
X111904542Y-79408638D01*
X111890221Y-79394317D01*
X111877380Y-79379283D01*
X111870132Y-79369307D01*
X111865472Y-79362893D01*
X111831407Y-79334712D01*
X111822626Y-79326722D01*
X111511500Y-79015595D01*
X111477475Y-78953283D01*
X111482540Y-78882467D01*
X111525087Y-78825632D01*
X111591607Y-78800821D01*
X111600596Y-78800500D01*
X166983357Y-78800500D01*
X167051478Y-78820502D01*
X167097971Y-78874158D01*
X167109357Y-78926500D01*
X167109357Y-84983500D01*
X179883500Y-84983500D01*
X179883500Y-78926500D01*
X179903502Y-78858379D01*
X179957158Y-78811886D01*
X180009500Y-78800500D01*
X180073500Y-78800500D01*
X180141621Y-78820502D01*
X180188114Y-78874158D01*
X180199500Y-78926500D01*
X180199500Y-102573500D01*
X180179498Y-102641621D01*
X180125842Y-102688114D01*
X180073500Y-102699500D01*
X93826500Y-102699500D01*
X93758379Y-102679498D01*
X93711886Y-102625842D01*
X93700500Y-102573500D01*
X93700500Y-78926500D01*
X93720502Y-78858379D01*
X93774158Y-78811886D01*
X93826500Y-78800500D01*
X98029405Y-78800500D01*
X98097526Y-78820502D01*
G37*
G04 #@! TD.AperFunction*
M02*
