G04 #@! TF.GenerationSoftware,KiCad,Pcbnew,(6.99.0-2452-gdb4f2d9dd8)*
G04 #@! TF.CreationDate,2022-08-01T22:38:18-05:00*
G04 #@! TF.ProjectId,PTP,5054502e-6b69-4636-9164-5f7063625858,rev?*
G04 #@! TF.SameCoordinates,Original*
G04 #@! TF.FileFunction,Copper,L1,Top*
G04 #@! TF.FilePolarity,Positive*
%FSLAX46Y46*%
G04 Gerber Fmt 4.6, Leading zero omitted, Abs format (unit mm)*
G04 Created by KiCad (PCBNEW (6.99.0-2452-gdb4f2d9dd8)) date 2022-08-01 22:38:18*
%MOMM*%
%LPD*%
G01*
G04 APERTURE LIST*
G04 #@! TA.AperFunction,ComponentPad*
%ADD10C,1.800000*%
G04 #@! TD*
G04 #@! TA.AperFunction,ComponentPad*
%ADD11R,1.800000X1.800000*%
G04 #@! TD*
G04 #@! TA.AperFunction,ComponentPad*
%ADD12R,1.700000X1.700000*%
G04 #@! TD*
G04 #@! TA.AperFunction,ComponentPad*
%ADD13O,1.700000X1.700000*%
G04 #@! TD*
G04 APERTURE END LIST*
D10*
X97100000Y-83470000D03*
D11*
X97099999Y-80929999D03*
D12*
X103659999Y-81329999D03*
D13*
X103659999Y-83869999D03*
X106199999Y-81329999D03*
X106199999Y-83869999D03*
X108739999Y-81329999D03*
X108739999Y-83869999D03*
G04 #@! TA.AperFunction,NonConductor*
G36*
X105183439Y-82241388D02*
G01*
X105215755Y-82266638D01*
X105231775Y-82284040D01*
X105276760Y-82332906D01*
X105280879Y-82336112D01*
X105331103Y-82375203D01*
X105454424Y-82471189D01*
X105478951Y-82484462D01*
X105487680Y-82489186D01*
X105538071Y-82539199D01*
X105553423Y-82608516D01*
X105528863Y-82675129D01*
X105487681Y-82710813D01*
X105454424Y-82728811D01*
X105450313Y-82732010D01*
X105450311Y-82732012D01*
X105295861Y-82852227D01*
X105276760Y-82867094D01*
X105273228Y-82870931D01*
X105127806Y-83028899D01*
X105127803Y-83028903D01*
X105124278Y-83032732D01*
X105121427Y-83037096D01*
X105035483Y-83168643D01*
X104981479Y-83214732D01*
X104911132Y-83224307D01*
X104846774Y-83194330D01*
X104824517Y-83168643D01*
X104738573Y-83037096D01*
X104735722Y-83032732D01*
X104732197Y-83028903D01*
X104732194Y-83028899D01*
X104592525Y-82877180D01*
X104561104Y-82813515D01*
X104569091Y-82742969D01*
X104613949Y-82687940D01*
X104641191Y-82673787D01*
X104756204Y-82630889D01*
X104768536Y-82621658D01*
X104866050Y-82548659D01*
X104873261Y-82543261D01*
X104913741Y-82489186D01*
X104955489Y-82433418D01*
X104955490Y-82433416D01*
X104960889Y-82426204D01*
X105004998Y-82307944D01*
X105047545Y-82251108D01*
X105114065Y-82226297D01*
X105183439Y-82241388D01*
G37*
G04 #@! TD.AperFunction*
G04 #@! TA.AperFunction,NonConductor*
G36*
X107553226Y-82005670D02*
G01*
X107575483Y-82031357D01*
X107664278Y-82167268D01*
X107667803Y-82171097D01*
X107667806Y-82171101D01*
X107732511Y-82241388D01*
X107816760Y-82332906D01*
X107820879Y-82336112D01*
X107871103Y-82375203D01*
X107994424Y-82471189D01*
X108018951Y-82484462D01*
X108027680Y-82489186D01*
X108078071Y-82539199D01*
X108093423Y-82608516D01*
X108068863Y-82675129D01*
X108027681Y-82710813D01*
X107994424Y-82728811D01*
X107990313Y-82732010D01*
X107990311Y-82732012D01*
X107835861Y-82852227D01*
X107816760Y-82867094D01*
X107813228Y-82870931D01*
X107667806Y-83028899D01*
X107667803Y-83028903D01*
X107664278Y-83032732D01*
X107661427Y-83037096D01*
X107575483Y-83168643D01*
X107521479Y-83214732D01*
X107451132Y-83224307D01*
X107386774Y-83194330D01*
X107364517Y-83168643D01*
X107278573Y-83037096D01*
X107275722Y-83032732D01*
X107272197Y-83028903D01*
X107272194Y-83028899D01*
X107126772Y-82870931D01*
X107123240Y-82867094D01*
X107104139Y-82852227D01*
X106949689Y-82732012D01*
X106949687Y-82732010D01*
X106945576Y-82728811D01*
X106912320Y-82710814D01*
X106861929Y-82660801D01*
X106846577Y-82591484D01*
X106871137Y-82524871D01*
X106912320Y-82489186D01*
X106921050Y-82484462D01*
X106945576Y-82471189D01*
X107068898Y-82375203D01*
X107119121Y-82336112D01*
X107123240Y-82332906D01*
X107207489Y-82241388D01*
X107272194Y-82171101D01*
X107272197Y-82171097D01*
X107275722Y-82167268D01*
X107364517Y-82031357D01*
X107418521Y-81985268D01*
X107488868Y-81975693D01*
X107553226Y-82005670D01*
G37*
G04 #@! TD.AperFunction*
G04 #@! TA.AperFunction,NonConductor*
G36*
X180141621Y-78820502D02*
G01*
X180188114Y-78874158D01*
X180199500Y-78926500D01*
X180199500Y-102573500D01*
X180179498Y-102641621D01*
X180125842Y-102688114D01*
X180073500Y-102699500D01*
X93826500Y-102699500D01*
X93758379Y-102679498D01*
X93711886Y-102625842D01*
X93700500Y-102573500D01*
X93700500Y-83470000D01*
X95686673Y-83470000D01*
X95705949Y-83702626D01*
X95707230Y-83707684D01*
X95707230Y-83707685D01*
X95749648Y-83875189D01*
X95763251Y-83928907D01*
X95857016Y-84142669D01*
X95984686Y-84338083D01*
X95988211Y-84341912D01*
X95988214Y-84341916D01*
X96094975Y-84457889D01*
X96142780Y-84509818D01*
X96146892Y-84513019D01*
X96146898Y-84513024D01*
X96322870Y-84649989D01*
X96326983Y-84653190D01*
X96331564Y-84655669D01*
X96433994Y-84711101D01*
X96532273Y-84764287D01*
X96753049Y-84840080D01*
X96758183Y-84840937D01*
X96758188Y-84840938D01*
X96978151Y-84877643D01*
X96978154Y-84877643D01*
X96983288Y-84878500D01*
X97216712Y-84878500D01*
X97221846Y-84877643D01*
X97221849Y-84877643D01*
X97441812Y-84840938D01*
X97441817Y-84840937D01*
X97446951Y-84840080D01*
X97667727Y-84764287D01*
X97766007Y-84711101D01*
X97868436Y-84655669D01*
X97873017Y-84653190D01*
X97877130Y-84649989D01*
X98053102Y-84513024D01*
X98053108Y-84513019D01*
X98057220Y-84509818D01*
X98105025Y-84457889D01*
X98211786Y-84341916D01*
X98211789Y-84341912D01*
X98215314Y-84338083D01*
X98342984Y-84142669D01*
X98436749Y-83928907D01*
X98450353Y-83875189D01*
X98451667Y-83870000D01*
X102296844Y-83870000D01*
X102297274Y-83875189D01*
X102301307Y-83923854D01*
X102315436Y-84094368D01*
X102370704Y-84312616D01*
X102461140Y-84518791D01*
X102463990Y-84523153D01*
X102463992Y-84523157D01*
X102478701Y-84545670D01*
X102584278Y-84707268D01*
X102587803Y-84711097D01*
X102587806Y-84711101D01*
X102689360Y-84821417D01*
X102736760Y-84872906D01*
X102914424Y-85011189D01*
X103112426Y-85118342D01*
X103325365Y-85191444D01*
X103330499Y-85192301D01*
X103330504Y-85192302D01*
X103542294Y-85227643D01*
X103542296Y-85227643D01*
X103547431Y-85228500D01*
X103772569Y-85228500D01*
X103777704Y-85227643D01*
X103777706Y-85227643D01*
X103989496Y-85192302D01*
X103989501Y-85192301D01*
X103994635Y-85191444D01*
X104207574Y-85118342D01*
X104405576Y-85011189D01*
X104583240Y-84872906D01*
X104630640Y-84821417D01*
X104732194Y-84711101D01*
X104732197Y-84711097D01*
X104735722Y-84707268D01*
X104824517Y-84571357D01*
X104878521Y-84525268D01*
X104948868Y-84515693D01*
X105013226Y-84545670D01*
X105035483Y-84571357D01*
X105124278Y-84707268D01*
X105127803Y-84711097D01*
X105127806Y-84711101D01*
X105229360Y-84821417D01*
X105276760Y-84872906D01*
X105454424Y-85011189D01*
X105652426Y-85118342D01*
X105865365Y-85191444D01*
X105870499Y-85192301D01*
X105870504Y-85192302D01*
X106082294Y-85227643D01*
X106082296Y-85227643D01*
X106087431Y-85228500D01*
X106312569Y-85228500D01*
X106317704Y-85227643D01*
X106317706Y-85227643D01*
X106529496Y-85192302D01*
X106529501Y-85192301D01*
X106534635Y-85191444D01*
X106747574Y-85118342D01*
X106945576Y-85011189D01*
X107123240Y-84872906D01*
X107170640Y-84821417D01*
X107272194Y-84711101D01*
X107272197Y-84711097D01*
X107275722Y-84707268D01*
X107364517Y-84571357D01*
X107418521Y-84525268D01*
X107488868Y-84515693D01*
X107553226Y-84545670D01*
X107575483Y-84571357D01*
X107664278Y-84707268D01*
X107667803Y-84711097D01*
X107667806Y-84711101D01*
X107769360Y-84821417D01*
X107816760Y-84872906D01*
X107994424Y-85011189D01*
X108192426Y-85118342D01*
X108405365Y-85191444D01*
X108410499Y-85192301D01*
X108410504Y-85192302D01*
X108622294Y-85227643D01*
X108622296Y-85227643D01*
X108627431Y-85228500D01*
X108852569Y-85228500D01*
X108857704Y-85227643D01*
X108857706Y-85227643D01*
X109069496Y-85192302D01*
X109069501Y-85192301D01*
X109074635Y-85191444D01*
X109287574Y-85118342D01*
X109485576Y-85011189D01*
X109663240Y-84872906D01*
X109710640Y-84821417D01*
X109812194Y-84711101D01*
X109812197Y-84711097D01*
X109815722Y-84707268D01*
X109921299Y-84545670D01*
X109936008Y-84523157D01*
X109936010Y-84523153D01*
X109938860Y-84518791D01*
X110029296Y-84312616D01*
X110084564Y-84094368D01*
X110098694Y-83923854D01*
X110102726Y-83875189D01*
X110103156Y-83870000D01*
X110089287Y-83702626D01*
X110084995Y-83650828D01*
X110084994Y-83650823D01*
X110084564Y-83645632D01*
X110029296Y-83427384D01*
X109938860Y-83221209D01*
X109934629Y-83214732D01*
X109818573Y-83037096D01*
X109815722Y-83032732D01*
X109812197Y-83028903D01*
X109812194Y-83028899D01*
X109666772Y-82870931D01*
X109663240Y-82867094D01*
X109644139Y-82852227D01*
X109489689Y-82732012D01*
X109489687Y-82732010D01*
X109485576Y-82728811D01*
X109452320Y-82710814D01*
X109401929Y-82660801D01*
X109386577Y-82591484D01*
X109411137Y-82524871D01*
X109452320Y-82489186D01*
X109461050Y-82484462D01*
X109485576Y-82471189D01*
X109608898Y-82375203D01*
X109659121Y-82336112D01*
X109663240Y-82332906D01*
X109747489Y-82241388D01*
X109812194Y-82171101D01*
X109812197Y-82171097D01*
X109815722Y-82167268D01*
X109921299Y-82005670D01*
X109936008Y-81983157D01*
X109936010Y-81983153D01*
X109938860Y-81978791D01*
X109981322Y-81881988D01*
X110027200Y-81777394D01*
X110029296Y-81772616D01*
X110084564Y-81554368D01*
X110103156Y-81330000D01*
X110084564Y-81105632D01*
X110029296Y-80887384D01*
X109938860Y-80681209D01*
X109934629Y-80674732D01*
X109818573Y-80497096D01*
X109815722Y-80492732D01*
X109812197Y-80488903D01*
X109812194Y-80488899D01*
X109666772Y-80330931D01*
X109663240Y-80327094D01*
X109485576Y-80188811D01*
X109287574Y-80081658D01*
X109074635Y-80008556D01*
X109069501Y-80007699D01*
X109069496Y-80007698D01*
X108857706Y-79972357D01*
X108857704Y-79972357D01*
X108852569Y-79971500D01*
X108627431Y-79971500D01*
X108622296Y-79972357D01*
X108622294Y-79972357D01*
X108410504Y-80007698D01*
X108410499Y-80007699D01*
X108405365Y-80008556D01*
X108192426Y-80081658D01*
X107994424Y-80188811D01*
X107816760Y-80327094D01*
X107813228Y-80330931D01*
X107667806Y-80488899D01*
X107667803Y-80488903D01*
X107664278Y-80492732D01*
X107661427Y-80497096D01*
X107575483Y-80628643D01*
X107521479Y-80674732D01*
X107451132Y-80684307D01*
X107386774Y-80654330D01*
X107364517Y-80628643D01*
X107278573Y-80497096D01*
X107275722Y-80492732D01*
X107272197Y-80488903D01*
X107272194Y-80488899D01*
X107126772Y-80330931D01*
X107123240Y-80327094D01*
X106945576Y-80188811D01*
X106747574Y-80081658D01*
X106534635Y-80008556D01*
X106529501Y-80007699D01*
X106529496Y-80007698D01*
X106317706Y-79972357D01*
X106317704Y-79972357D01*
X106312569Y-79971500D01*
X106087431Y-79971500D01*
X106082296Y-79972357D01*
X106082294Y-79972357D01*
X105870504Y-80007698D01*
X105870499Y-80007699D01*
X105865365Y-80008556D01*
X105652426Y-80081658D01*
X105454424Y-80188811D01*
X105276760Y-80327094D01*
X105273228Y-80330931D01*
X105215755Y-80393362D01*
X105154901Y-80429933D01*
X105083937Y-80427798D01*
X105025392Y-80387636D01*
X105004998Y-80352056D01*
X104964038Y-80242239D01*
X104964037Y-80242237D01*
X104960889Y-80233796D01*
X104873261Y-80116739D01*
X104756204Y-80029111D01*
X104619201Y-79978011D01*
X104582295Y-79974043D01*
X104561988Y-79971860D01*
X104561985Y-79971860D01*
X104558638Y-79971500D01*
X102761362Y-79971500D01*
X102758015Y-79971860D01*
X102758012Y-79971860D01*
X102737705Y-79974043D01*
X102700799Y-79978011D01*
X102563796Y-80029111D01*
X102446739Y-80116739D01*
X102359111Y-80233796D01*
X102308011Y-80370799D01*
X102301500Y-80431362D01*
X102301500Y-82228638D01*
X102308011Y-82289201D01*
X102359111Y-82426204D01*
X102364510Y-82433416D01*
X102364511Y-82433418D01*
X102406259Y-82489186D01*
X102446739Y-82543261D01*
X102453950Y-82548659D01*
X102551465Y-82621658D01*
X102563796Y-82630889D01*
X102678808Y-82673787D01*
X102735642Y-82716333D01*
X102760453Y-82782853D01*
X102745361Y-82852227D01*
X102727475Y-82877180D01*
X102587806Y-83028899D01*
X102587803Y-83028903D01*
X102584278Y-83032732D01*
X102581427Y-83037096D01*
X102465372Y-83214732D01*
X102461140Y-83221209D01*
X102370704Y-83427384D01*
X102315436Y-83645632D01*
X102315006Y-83650823D01*
X102315005Y-83650828D01*
X102310713Y-83702626D01*
X102296844Y-83870000D01*
X98451667Y-83870000D01*
X98492770Y-83707685D01*
X98492770Y-83707684D01*
X98494051Y-83702626D01*
X98513327Y-83470000D01*
X98494051Y-83237374D01*
X98490742Y-83224307D01*
X98438029Y-83016146D01*
X98438027Y-83016141D01*
X98436749Y-83011093D01*
X98342984Y-82797331D01*
X98271516Y-82687940D01*
X98218165Y-82606281D01*
X98215314Y-82601917D01*
X98211789Y-82598088D01*
X98211786Y-82598084D01*
X98154679Y-82536050D01*
X98130157Y-82509413D01*
X98098737Y-82445749D01*
X98106724Y-82375203D01*
X98151582Y-82320174D01*
X98178826Y-82306021D01*
X98237758Y-82284040D01*
X98237762Y-82284038D01*
X98246204Y-82280889D01*
X98320504Y-82225269D01*
X98356050Y-82198659D01*
X98363261Y-82193261D01*
X98450889Y-82076204D01*
X98501989Y-81939201D01*
X98508500Y-81878638D01*
X98508500Y-79981362D01*
X98507479Y-79971860D01*
X98502831Y-79928633D01*
X98501989Y-79920799D01*
X98450889Y-79783796D01*
X98363261Y-79666739D01*
X98246204Y-79579111D01*
X98109201Y-79528011D01*
X98072295Y-79524043D01*
X98051988Y-79521860D01*
X98051985Y-79521860D01*
X98048638Y-79521500D01*
X96151362Y-79521500D01*
X96148015Y-79521860D01*
X96148012Y-79521860D01*
X96127705Y-79524043D01*
X96090799Y-79528011D01*
X95953796Y-79579111D01*
X95836739Y-79666739D01*
X95749111Y-79783796D01*
X95698011Y-79920799D01*
X95697169Y-79928633D01*
X95692522Y-79971860D01*
X95691500Y-79981362D01*
X95691500Y-81878638D01*
X95698011Y-81939201D01*
X95749111Y-82076204D01*
X95836739Y-82193261D01*
X95843950Y-82198659D01*
X95879497Y-82225269D01*
X95953796Y-82280889D01*
X95962238Y-82284038D01*
X95962242Y-82284040D01*
X96021174Y-82306021D01*
X96078009Y-82348567D01*
X96102820Y-82415088D01*
X96087728Y-82484462D01*
X96069844Y-82509411D01*
X96045321Y-82536050D01*
X95988214Y-82598084D01*
X95988211Y-82598088D01*
X95984686Y-82601917D01*
X95981835Y-82606281D01*
X95928485Y-82687940D01*
X95857016Y-82797331D01*
X95763251Y-83011093D01*
X95761973Y-83016141D01*
X95761971Y-83016146D01*
X95709258Y-83224307D01*
X95705949Y-83237374D01*
X95686673Y-83470000D01*
X93700500Y-83470000D01*
X93700500Y-78926500D01*
X93720502Y-78858379D01*
X93774158Y-78811886D01*
X93826500Y-78800500D01*
X180073500Y-78800500D01*
X180141621Y-78820502D01*
G37*
G04 #@! TD.AperFunction*
M02*
