%TF.GenerationSoftware,KiCad,Pcbnew,(6.99.0-2452-gdb4f2d9dd8)*%
%TF.CreationDate,2022-08-01T22:38:23-05:00*%
%TF.ProjectId,PTP,5054502e-6b69-4636-9164-5f7063625858,rev?*%
%TF.SameCoordinates,Original*%
%TF.FileFunction,Drillmap*%
%TF.FilePolarity,Positive*%
%FSLAX45Y45*%
G04 Gerber Fmt 4.5, Leading zero omitted, Abs format (unit mm)*
G04 Created by KiCad (PCBNEW (6.99.0-2452-gdb4f2d9dd8)) date 2022-08-01 22:38:23*
%MOMM*%
%LPD*%
G01*
G04 APERTURE LIST*
%ADD10C,0.100000*%
%ADD11C,0.200000*%
G04 APERTURE END LIST*
D10*
X9370000Y-7880000D02*
X18020000Y-7880000D01*
X18020000Y-7880000D02*
X18020000Y-10270000D01*
X18020000Y-10270000D02*
X9370000Y-10270000D01*
X9370000Y-10270000D02*
X9370000Y-7880000D01*
D11*
X9612619Y-10568476D02*
X9612619Y-10368476D01*
X9612619Y-10368476D02*
X9660238Y-10368476D01*
X9660238Y-10368476D02*
X9688810Y-10378000D01*
X9688810Y-10378000D02*
X9707857Y-10397048D01*
X9707857Y-10397048D02*
X9717381Y-10416095D01*
X9717381Y-10416095D02*
X9726905Y-10454190D01*
X9726905Y-10454190D02*
X9726905Y-10482762D01*
X9726905Y-10482762D02*
X9717381Y-10520857D01*
X9717381Y-10520857D02*
X9707857Y-10539905D01*
X9707857Y-10539905D02*
X9688810Y-10558952D01*
X9688810Y-10558952D02*
X9660238Y-10568476D01*
X9660238Y-10568476D02*
X9612619Y-10568476D01*
X9812619Y-10568476D02*
X9812619Y-10435143D01*
X9812619Y-10473238D02*
X9822143Y-10454190D01*
X9822143Y-10454190D02*
X9831667Y-10444667D01*
X9831667Y-10444667D02*
X9850714Y-10435143D01*
X9850714Y-10435143D02*
X9869762Y-10435143D01*
X9936429Y-10568476D02*
X9936429Y-10435143D01*
X9936429Y-10368476D02*
X9926905Y-10378000D01*
X9926905Y-10378000D02*
X9936429Y-10387524D01*
X9936429Y-10387524D02*
X9945952Y-10378000D01*
X9945952Y-10378000D02*
X9936429Y-10368476D01*
X9936429Y-10368476D02*
X9936429Y-10387524D01*
X10060238Y-10568476D02*
X10041190Y-10558952D01*
X10041190Y-10558952D02*
X10031667Y-10539905D01*
X10031667Y-10539905D02*
X10031667Y-10368476D01*
X10165000Y-10568476D02*
X10145952Y-10558952D01*
X10145952Y-10558952D02*
X10136429Y-10539905D01*
X10136429Y-10539905D02*
X10136429Y-10368476D01*
X10361190Y-10568476D02*
X10361190Y-10368476D01*
X10361190Y-10368476D02*
X10427857Y-10511333D01*
X10427857Y-10511333D02*
X10494524Y-10368476D01*
X10494524Y-10368476D02*
X10494524Y-10568476D01*
X10675476Y-10568476D02*
X10675476Y-10463714D01*
X10675476Y-10463714D02*
X10665952Y-10444667D01*
X10665952Y-10444667D02*
X10646905Y-10435143D01*
X10646905Y-10435143D02*
X10608809Y-10435143D01*
X10608809Y-10435143D02*
X10589762Y-10444667D01*
X10675476Y-10558952D02*
X10656429Y-10568476D01*
X10656429Y-10568476D02*
X10608809Y-10568476D01*
X10608809Y-10568476D02*
X10589762Y-10558952D01*
X10589762Y-10558952D02*
X10580238Y-10539905D01*
X10580238Y-10539905D02*
X10580238Y-10520857D01*
X10580238Y-10520857D02*
X10589762Y-10501810D01*
X10589762Y-10501810D02*
X10608809Y-10492286D01*
X10608809Y-10492286D02*
X10656429Y-10492286D01*
X10656429Y-10492286D02*
X10675476Y-10482762D01*
X10770714Y-10435143D02*
X10770714Y-10635143D01*
X10770714Y-10444667D02*
X10789762Y-10435143D01*
X10789762Y-10435143D02*
X10827857Y-10435143D01*
X10827857Y-10435143D02*
X10846905Y-10444667D01*
X10846905Y-10444667D02*
X10856429Y-10454190D01*
X10856429Y-10454190D02*
X10865952Y-10473238D01*
X10865952Y-10473238D02*
X10865952Y-10530381D01*
X10865952Y-10530381D02*
X10856429Y-10549429D01*
X10856429Y-10549429D02*
X10846905Y-10558952D01*
X10846905Y-10558952D02*
X10827857Y-10568476D01*
X10827857Y-10568476D02*
X10789762Y-10568476D01*
X10789762Y-10568476D02*
X10770714Y-10558952D01*
X10951667Y-10549429D02*
X10961190Y-10558952D01*
X10961190Y-10558952D02*
X10951667Y-10568476D01*
X10951667Y-10568476D02*
X10942143Y-10558952D01*
X10942143Y-10558952D02*
X10951667Y-10549429D01*
X10951667Y-10549429D02*
X10951667Y-10568476D01*
X10951667Y-10444667D02*
X10961190Y-10454190D01*
X10961190Y-10454190D02*
X10951667Y-10463714D01*
X10951667Y-10463714D02*
X10942143Y-10454190D01*
X10942143Y-10454190D02*
X10951667Y-10444667D01*
X10951667Y-10444667D02*
X10951667Y-10463714D01*
M02*
