G04 #@! TF.GenerationSoftware,KiCad,Pcbnew,(6.99.0-2452-gdb4f2d9dd8)*
G04 #@! TF.CreationDate,2022-08-02T17:30:29-05:00*
G04 #@! TF.ProjectId,Blue Origin,426c7565-204f-4726-9967-696e2e6b6963,rev?*
G04 #@! TF.SameCoordinates,Original*
G04 #@! TF.FileFunction,Copper,L1,Top*
G04 #@! TF.FilePolarity,Positive*
%FSLAX46Y46*%
G04 Gerber Fmt 4.6, Leading zero omitted, Abs format (unit mm)*
G04 Created by KiCad (PCBNEW (6.99.0-2452-gdb4f2d9dd8)) date 2022-08-02 17:30:29*
%MOMM*%
%LPD*%
G01*
G04 APERTURE LIST*
G04 #@! TA.AperFunction,ComponentPad*
%ADD10R,1.800000X1.800000*%
G04 #@! TD*
G04 #@! TA.AperFunction,ComponentPad*
%ADD11C,1.800000*%
G04 #@! TD*
G04 #@! TA.AperFunction,ComponentPad*
%ADD12R,1.700000X1.700000*%
G04 #@! TD*
G04 #@! TA.AperFunction,ComponentPad*
%ADD13O,1.700000X1.700000*%
G04 #@! TD*
G04 APERTURE END LIST*
D10*
X108869999Y-60699999D03*
D11*
X106330000Y-60700000D03*
D12*
X103159999Y-69329999D03*
D13*
X103159999Y-71869999D03*
X105699999Y-69329999D03*
X105699999Y-71869999D03*
X108239999Y-69329999D03*
X108239999Y-71869999D03*
G04 #@! TA.AperFunction,NonConductor*
G36*
X104683439Y-70241388D02*
G01*
X104715755Y-70266638D01*
X104736526Y-70289201D01*
X104776760Y-70332906D01*
X104954424Y-70471189D01*
X104959005Y-70473668D01*
X104987680Y-70489186D01*
X105038071Y-70539199D01*
X105053423Y-70608516D01*
X105028863Y-70675129D01*
X104987681Y-70710813D01*
X104954424Y-70728811D01*
X104950313Y-70732010D01*
X104950311Y-70732012D01*
X104795861Y-70852227D01*
X104776760Y-70867094D01*
X104773228Y-70870931D01*
X104627806Y-71028899D01*
X104627803Y-71028903D01*
X104624278Y-71032732D01*
X104621427Y-71037096D01*
X104535483Y-71168643D01*
X104481479Y-71214732D01*
X104411132Y-71224307D01*
X104346774Y-71194330D01*
X104324517Y-71168643D01*
X104238573Y-71037096D01*
X104235722Y-71032732D01*
X104232197Y-71028903D01*
X104232194Y-71028899D01*
X104092525Y-70877180D01*
X104061104Y-70813515D01*
X104069091Y-70742969D01*
X104113949Y-70687940D01*
X104141191Y-70673787D01*
X104256204Y-70630889D01*
X104268536Y-70621658D01*
X104366050Y-70548659D01*
X104373261Y-70543261D01*
X104460889Y-70426204D01*
X104504998Y-70307944D01*
X104547545Y-70251108D01*
X104614065Y-70226297D01*
X104683439Y-70241388D01*
G37*
G04 #@! TD.AperFunction*
G04 #@! TA.AperFunction,NonConductor*
G36*
X107053226Y-70005670D02*
G01*
X107075483Y-70031357D01*
X107164278Y-70167268D01*
X107167803Y-70171097D01*
X107167806Y-70171101D01*
X107232511Y-70241388D01*
X107316760Y-70332906D01*
X107494424Y-70471189D01*
X107499005Y-70473668D01*
X107527680Y-70489186D01*
X107578071Y-70539199D01*
X107593423Y-70608516D01*
X107568863Y-70675129D01*
X107527681Y-70710813D01*
X107494424Y-70728811D01*
X107490313Y-70732010D01*
X107490311Y-70732012D01*
X107335861Y-70852227D01*
X107316760Y-70867094D01*
X107313228Y-70870931D01*
X107167806Y-71028899D01*
X107167803Y-71028903D01*
X107164278Y-71032732D01*
X107161427Y-71037096D01*
X107075483Y-71168643D01*
X107021479Y-71214732D01*
X106951132Y-71224307D01*
X106886774Y-71194330D01*
X106864517Y-71168643D01*
X106778573Y-71037096D01*
X106775722Y-71032732D01*
X106772197Y-71028903D01*
X106772194Y-71028899D01*
X106626772Y-70870931D01*
X106623240Y-70867094D01*
X106604139Y-70852227D01*
X106449689Y-70732012D01*
X106449687Y-70732010D01*
X106445576Y-70728811D01*
X106412320Y-70710814D01*
X106361929Y-70660801D01*
X106346577Y-70591484D01*
X106371137Y-70524871D01*
X106412320Y-70489186D01*
X106440995Y-70473668D01*
X106445576Y-70471189D01*
X106623240Y-70332906D01*
X106707489Y-70241388D01*
X106772194Y-70171101D01*
X106772197Y-70171097D01*
X106775722Y-70167268D01*
X106864517Y-70031357D01*
X106918521Y-69985268D01*
X106988868Y-69975693D01*
X107053226Y-70005670D01*
G37*
G04 #@! TD.AperFunction*
G04 #@! TA.AperFunction,NonConductor*
G36*
X170741621Y-46320502D02*
G01*
X170788114Y-46374158D01*
X170799500Y-46426500D01*
X170799500Y-74873500D01*
X170779498Y-74941621D01*
X170725842Y-74988114D01*
X170673500Y-74999500D01*
X100126500Y-74999500D01*
X100058379Y-74979498D01*
X100011886Y-74925842D01*
X100000500Y-74873500D01*
X100000500Y-71870000D01*
X101796844Y-71870000D01*
X101815436Y-72094368D01*
X101870704Y-72312616D01*
X101961140Y-72518791D01*
X101963990Y-72523153D01*
X101963992Y-72523157D01*
X101978701Y-72545670D01*
X102084278Y-72707268D01*
X102087803Y-72711097D01*
X102087806Y-72711101D01*
X102189360Y-72821417D01*
X102236760Y-72872906D01*
X102414424Y-73011189D01*
X102612426Y-73118342D01*
X102825365Y-73191444D01*
X102830499Y-73192301D01*
X102830504Y-73192302D01*
X103042294Y-73227643D01*
X103042296Y-73227643D01*
X103047431Y-73228500D01*
X103272569Y-73228500D01*
X103277704Y-73227643D01*
X103277706Y-73227643D01*
X103489496Y-73192302D01*
X103489501Y-73192301D01*
X103494635Y-73191444D01*
X103707574Y-73118342D01*
X103905576Y-73011189D01*
X104083240Y-72872906D01*
X104130640Y-72821417D01*
X104232194Y-72711101D01*
X104232197Y-72711097D01*
X104235722Y-72707268D01*
X104324517Y-72571357D01*
X104378521Y-72525268D01*
X104448868Y-72515693D01*
X104513226Y-72545670D01*
X104535483Y-72571357D01*
X104624278Y-72707268D01*
X104627803Y-72711097D01*
X104627806Y-72711101D01*
X104729360Y-72821417D01*
X104776760Y-72872906D01*
X104954424Y-73011189D01*
X105152426Y-73118342D01*
X105365365Y-73191444D01*
X105370499Y-73192301D01*
X105370504Y-73192302D01*
X105582294Y-73227643D01*
X105582296Y-73227643D01*
X105587431Y-73228500D01*
X105812569Y-73228500D01*
X105817704Y-73227643D01*
X105817706Y-73227643D01*
X106029496Y-73192302D01*
X106029501Y-73192301D01*
X106034635Y-73191444D01*
X106247574Y-73118342D01*
X106445576Y-73011189D01*
X106623240Y-72872906D01*
X106670640Y-72821417D01*
X106772194Y-72711101D01*
X106772197Y-72711097D01*
X106775722Y-72707268D01*
X106864517Y-72571357D01*
X106918521Y-72525268D01*
X106988868Y-72515693D01*
X107053226Y-72545670D01*
X107075483Y-72571357D01*
X107164278Y-72707268D01*
X107167803Y-72711097D01*
X107167806Y-72711101D01*
X107269360Y-72821417D01*
X107316760Y-72872906D01*
X107494424Y-73011189D01*
X107692426Y-73118342D01*
X107905365Y-73191444D01*
X107910499Y-73192301D01*
X107910504Y-73192302D01*
X108122294Y-73227643D01*
X108122296Y-73227643D01*
X108127431Y-73228500D01*
X108352569Y-73228500D01*
X108357704Y-73227643D01*
X108357706Y-73227643D01*
X108569496Y-73192302D01*
X108569501Y-73192301D01*
X108574635Y-73191444D01*
X108787574Y-73118342D01*
X108985576Y-73011189D01*
X109163240Y-72872906D01*
X109210640Y-72821417D01*
X109312194Y-72711101D01*
X109312197Y-72711097D01*
X109315722Y-72707268D01*
X109421299Y-72545670D01*
X109436008Y-72523157D01*
X109436010Y-72523153D01*
X109438860Y-72518791D01*
X109529296Y-72312616D01*
X109584564Y-72094368D01*
X109603156Y-71870000D01*
X109584564Y-71645632D01*
X109529296Y-71427384D01*
X109438860Y-71221209D01*
X109434629Y-71214732D01*
X109318573Y-71037096D01*
X109315722Y-71032732D01*
X109312197Y-71028903D01*
X109312194Y-71028899D01*
X109166772Y-70870931D01*
X109163240Y-70867094D01*
X109144139Y-70852227D01*
X108989689Y-70732012D01*
X108989687Y-70732010D01*
X108985576Y-70728811D01*
X108952320Y-70710814D01*
X108901929Y-70660801D01*
X108886577Y-70591484D01*
X108911137Y-70524871D01*
X108952320Y-70489186D01*
X108980995Y-70473668D01*
X108985576Y-70471189D01*
X109163240Y-70332906D01*
X109247489Y-70241388D01*
X109312194Y-70171101D01*
X109312197Y-70171097D01*
X109315722Y-70167268D01*
X109421299Y-70005670D01*
X109436008Y-69983157D01*
X109436010Y-69983153D01*
X109438860Y-69978791D01*
X109529296Y-69772616D01*
X109584564Y-69554368D01*
X109603156Y-69330000D01*
X109584564Y-69105632D01*
X109529296Y-68887384D01*
X109438860Y-68681209D01*
X109434629Y-68674732D01*
X109318573Y-68497096D01*
X109315722Y-68492732D01*
X109312197Y-68488903D01*
X109312194Y-68488899D01*
X109166772Y-68330931D01*
X109163240Y-68327094D01*
X108985576Y-68188811D01*
X108787574Y-68081658D01*
X108574635Y-68008556D01*
X108569501Y-68007699D01*
X108569496Y-68007698D01*
X108357706Y-67972357D01*
X108357704Y-67972357D01*
X108352569Y-67971500D01*
X108127431Y-67971500D01*
X108122296Y-67972357D01*
X108122294Y-67972357D01*
X107910504Y-68007698D01*
X107910499Y-68007699D01*
X107905365Y-68008556D01*
X107692426Y-68081658D01*
X107494424Y-68188811D01*
X107316760Y-68327094D01*
X107313228Y-68330931D01*
X107167806Y-68488899D01*
X107167803Y-68488903D01*
X107164278Y-68492732D01*
X107161427Y-68497096D01*
X107075483Y-68628643D01*
X107021479Y-68674732D01*
X106951132Y-68684307D01*
X106886774Y-68654330D01*
X106864517Y-68628643D01*
X106778573Y-68497096D01*
X106775722Y-68492732D01*
X106772197Y-68488903D01*
X106772194Y-68488899D01*
X106626772Y-68330931D01*
X106623240Y-68327094D01*
X106445576Y-68188811D01*
X106247574Y-68081658D01*
X106034635Y-68008556D01*
X106029501Y-68007699D01*
X106029496Y-68007698D01*
X105817706Y-67972357D01*
X105817704Y-67972357D01*
X105812569Y-67971500D01*
X105587431Y-67971500D01*
X105582296Y-67972357D01*
X105582294Y-67972357D01*
X105370504Y-68007698D01*
X105370499Y-68007699D01*
X105365365Y-68008556D01*
X105152426Y-68081658D01*
X104954424Y-68188811D01*
X104776760Y-68327094D01*
X104773228Y-68330931D01*
X104715755Y-68393362D01*
X104654901Y-68429933D01*
X104583937Y-68427798D01*
X104525392Y-68387636D01*
X104504998Y-68352056D01*
X104464038Y-68242239D01*
X104464037Y-68242237D01*
X104460889Y-68233796D01*
X104373261Y-68116739D01*
X104256204Y-68029111D01*
X104119201Y-67978011D01*
X104082295Y-67974043D01*
X104061988Y-67971860D01*
X104061985Y-67971860D01*
X104058638Y-67971500D01*
X102261362Y-67971500D01*
X102258015Y-67971860D01*
X102258012Y-67971860D01*
X102237705Y-67974043D01*
X102200799Y-67978011D01*
X102063796Y-68029111D01*
X101946739Y-68116739D01*
X101859111Y-68233796D01*
X101808011Y-68370799D01*
X101801500Y-68431362D01*
X101801500Y-70228638D01*
X101808011Y-70289201D01*
X101859111Y-70426204D01*
X101946739Y-70543261D01*
X101953950Y-70548659D01*
X102051465Y-70621658D01*
X102063796Y-70630889D01*
X102178808Y-70673787D01*
X102235642Y-70716333D01*
X102260453Y-70782853D01*
X102245361Y-70852227D01*
X102227475Y-70877180D01*
X102087806Y-71028899D01*
X102087803Y-71028903D01*
X102084278Y-71032732D01*
X102081427Y-71037096D01*
X101965372Y-71214732D01*
X101961140Y-71221209D01*
X101870704Y-71427384D01*
X101815436Y-71645632D01*
X101796844Y-71870000D01*
X100000500Y-71870000D01*
X100000500Y-60700000D01*
X104916673Y-60700000D01*
X104935949Y-60932626D01*
X104993251Y-61158907D01*
X105087016Y-61372669D01*
X105214686Y-61568083D01*
X105218211Y-61571912D01*
X105218214Y-61571916D01*
X105285741Y-61645269D01*
X105372780Y-61739818D01*
X105376891Y-61743018D01*
X105376898Y-61743024D01*
X105518732Y-61853418D01*
X105556983Y-61883190D01*
X105561564Y-61885669D01*
X105704942Y-61963261D01*
X105762273Y-61994287D01*
X105983049Y-62070080D01*
X105988183Y-62070937D01*
X105988188Y-62070938D01*
X106208151Y-62107643D01*
X106208154Y-62107643D01*
X106213288Y-62108500D01*
X106446712Y-62108500D01*
X106451846Y-62107643D01*
X106451849Y-62107643D01*
X106671812Y-62070938D01*
X106671817Y-62070937D01*
X106676951Y-62070080D01*
X106897727Y-61994287D01*
X106955059Y-61963261D01*
X107098436Y-61885669D01*
X107103017Y-61883190D01*
X107287220Y-61739818D01*
X107290747Y-61735986D01*
X107292248Y-61734605D01*
X107355914Y-61703185D01*
X107426459Y-61711174D01*
X107481487Y-61756034D01*
X107495638Y-61783274D01*
X107515961Y-61837759D01*
X107519111Y-61846204D01*
X107606739Y-61963261D01*
X107723796Y-62050889D01*
X107860799Y-62101989D01*
X107897705Y-62105957D01*
X107918012Y-62108140D01*
X107918015Y-62108140D01*
X107921362Y-62108500D01*
X109818638Y-62108500D01*
X109821985Y-62108140D01*
X109821988Y-62108140D01*
X109842295Y-62105957D01*
X109879201Y-62101989D01*
X110016204Y-62050889D01*
X110133261Y-61963261D01*
X110220889Y-61846204D01*
X110271989Y-61709201D01*
X110278500Y-61648638D01*
X110278500Y-59751362D01*
X110271989Y-59690799D01*
X110220889Y-59553796D01*
X110133261Y-59436739D01*
X110016204Y-59349111D01*
X109879201Y-59298011D01*
X109842295Y-59294043D01*
X109821988Y-59291860D01*
X109821985Y-59291860D01*
X109818638Y-59291500D01*
X107921362Y-59291500D01*
X107918015Y-59291860D01*
X107918012Y-59291860D01*
X107897705Y-59294043D01*
X107860799Y-59298011D01*
X107723796Y-59349111D01*
X107606739Y-59436739D01*
X107519111Y-59553796D01*
X107515963Y-59562237D01*
X107515961Y-59562241D01*
X107495638Y-59616726D01*
X107453091Y-59673561D01*
X107386571Y-59698371D01*
X107317197Y-59683279D01*
X107292248Y-59665395D01*
X107290747Y-59664014D01*
X107287220Y-59660182D01*
X107103017Y-59516810D01*
X106968383Y-59443950D01*
X106902312Y-59408194D01*
X106902309Y-59408193D01*
X106897727Y-59405713D01*
X106676951Y-59329920D01*
X106671817Y-59329063D01*
X106671812Y-59329062D01*
X106451849Y-59292357D01*
X106451846Y-59292357D01*
X106446712Y-59291500D01*
X106213288Y-59291500D01*
X106208154Y-59292357D01*
X106208151Y-59292357D01*
X105988188Y-59329062D01*
X105988183Y-59329063D01*
X105983049Y-59329920D01*
X105762273Y-59405713D01*
X105757691Y-59408193D01*
X105757688Y-59408194D01*
X105691617Y-59443950D01*
X105556983Y-59516810D01*
X105552872Y-59520009D01*
X105552870Y-59520011D01*
X105376898Y-59656976D01*
X105376892Y-59656981D01*
X105372780Y-59660182D01*
X105369248Y-59664019D01*
X105218214Y-59828084D01*
X105218211Y-59828088D01*
X105214686Y-59831917D01*
X105087016Y-60027331D01*
X104993251Y-60241093D01*
X104935949Y-60467374D01*
X104916673Y-60700000D01*
X100000500Y-60700000D01*
X100000500Y-46426500D01*
X100020502Y-46358379D01*
X100074158Y-46311886D01*
X100126500Y-46300500D01*
X170673500Y-46300500D01*
X170741621Y-46320502D01*
G37*
G04 #@! TD.AperFunction*
M02*
