G04 #@! TF.GenerationSoftware,KiCad,Pcbnew,(6.99.0-2452-gdb4f2d9dd8)*
G04 #@! TF.CreationDate,2022-08-02T17:30:29-05:00*
G04 #@! TF.ProjectId,Blue Origin,426c7565-204f-4726-9967-696e2e6b6963,rev?*
G04 #@! TF.SameCoordinates,Original*
G04 #@! TF.FileFunction,Copper,L2,Bot*
G04 #@! TF.FilePolarity,Positive*
%FSLAX46Y46*%
G04 Gerber Fmt 4.6, Leading zero omitted, Abs format (unit mm)*
G04 Created by KiCad (PCBNEW (6.99.0-2452-gdb4f2d9dd8)) date 2022-08-02 17:30:29*
%MOMM*%
%LPD*%
G01*
G04 APERTURE LIST*
G04 Aperture macros list*
%AMRoundRect*
0 Rectangle with rounded corners*
0 $1 Rounding radius*
0 $2 $3 $4 $5 $6 $7 $8 $9 X,Y pos of 4 corners*
0 Add a 4 corners polygon primitive as box body*
4,1,4,$2,$3,$4,$5,$6,$7,$8,$9,$2,$3,0*
0 Add four circle primitives for the rounded corners*
1,1,$1+$1,$2,$3*
1,1,$1+$1,$4,$5*
1,1,$1+$1,$6,$7*
1,1,$1+$1,$8,$9*
0 Add four rect primitives between the rounded corners*
20,1,$1+$1,$2,$3,$4,$5,0*
20,1,$1+$1,$4,$5,$6,$7,0*
20,1,$1+$1,$6,$7,$8,$9,0*
20,1,$1+$1,$8,$9,$2,$3,0*%
G04 Aperture macros list end*
%ADD10C,0.300000*%
G04 #@! TA.AperFunction,NonConductor*
%ADD11C,0.300000*%
G04 #@! TD*
G04 #@! TA.AperFunction,ComponentPad*
%ADD12R,1.800000X1.800000*%
G04 #@! TD*
G04 #@! TA.AperFunction,ComponentPad*
%ADD13C,1.800000*%
G04 #@! TD*
G04 #@! TA.AperFunction,ComponentPad*
%ADD14R,1.700000X1.700000*%
G04 #@! TD*
G04 #@! TA.AperFunction,ComponentPad*
%ADD15O,1.700000X1.700000*%
G04 #@! TD*
G04 #@! TA.AperFunction,SMDPad,CuDef*
%ADD16RoundRect,0.250000X-0.625000X0.400000X-0.625000X-0.400000X0.625000X-0.400000X0.625000X0.400000X0*%
G04 #@! TD*
G04 #@! TA.AperFunction,Conductor*
%ADD17C,0.250000*%
G04 #@! TD*
G04 APERTURE END LIST*
D10*
D11*
X167914285Y-48129285D02*
X167985714Y-48057857D01*
X167985714Y-48057857D02*
X168128571Y-47986428D01*
X168128571Y-47986428D02*
X168271428Y-47986428D01*
X168271428Y-47986428D02*
X168414285Y-48057857D01*
X168414285Y-48057857D02*
X168485714Y-48129285D01*
X168485714Y-48129285D02*
X168557142Y-48272142D01*
X168557142Y-48272142D02*
X168557142Y-48415000D01*
X168557142Y-48415000D02*
X168485714Y-48557857D01*
X168485714Y-48557857D02*
X168414285Y-48629285D01*
X168414285Y-48629285D02*
X168271428Y-48700714D01*
X168271428Y-48700714D02*
X168128571Y-48700714D01*
X168128571Y-48700714D02*
X167985714Y-48629285D01*
X167985714Y-48629285D02*
X167914285Y-48557857D01*
X167914285Y-47986428D02*
X167914285Y-48557857D01*
X167914285Y-48557857D02*
X167842857Y-48629285D01*
X167842857Y-48629285D02*
X167771428Y-48629285D01*
X167771428Y-48629285D02*
X167628571Y-48557857D01*
X167628571Y-48557857D02*
X167557142Y-48415000D01*
X167557142Y-48415000D02*
X167557142Y-48057857D01*
X167557142Y-48057857D02*
X167700000Y-47843571D01*
X167700000Y-47843571D02*
X167914285Y-47700714D01*
X167914285Y-47700714D02*
X168200000Y-47629285D01*
X168200000Y-47629285D02*
X168485714Y-47700714D01*
X168485714Y-47700714D02*
X168700000Y-47843571D01*
X168700000Y-47843571D02*
X168842857Y-48057857D01*
X168842857Y-48057857D02*
X168914285Y-48343571D01*
X168914285Y-48343571D02*
X168842857Y-48629285D01*
X168842857Y-48629285D02*
X168700000Y-48843571D01*
X168700000Y-48843571D02*
X168485714Y-48986428D01*
X168485714Y-48986428D02*
X168200000Y-49057857D01*
X168200000Y-49057857D02*
X167914285Y-48986428D01*
X167914285Y-48986428D02*
X167700000Y-48843571D01*
X166271429Y-48843571D02*
X166271429Y-48057857D01*
X166271429Y-48057857D02*
X166342857Y-47915000D01*
X166342857Y-47915000D02*
X166485714Y-47843571D01*
X166485714Y-47843571D02*
X166771429Y-47843571D01*
X166771429Y-47843571D02*
X166914286Y-47915000D01*
X166271429Y-48772142D02*
X166414286Y-48843571D01*
X166414286Y-48843571D02*
X166771429Y-48843571D01*
X166771429Y-48843571D02*
X166914286Y-48772142D01*
X166914286Y-48772142D02*
X166985714Y-48629285D01*
X166985714Y-48629285D02*
X166985714Y-48486428D01*
X166985714Y-48486428D02*
X166914286Y-48343571D01*
X166914286Y-48343571D02*
X166771429Y-48272142D01*
X166771429Y-48272142D02*
X166414286Y-48272142D01*
X166414286Y-48272142D02*
X166271429Y-48200714D01*
X165700000Y-47843571D02*
X165342857Y-48843571D01*
X165342857Y-48843571D02*
X164985714Y-47843571D01*
X164771429Y-48986428D02*
X163628571Y-48986428D01*
X163271429Y-47843571D02*
X163271429Y-49343571D01*
X163271429Y-47915000D02*
X163128572Y-47843571D01*
X163128572Y-47843571D02*
X162842857Y-47843571D01*
X162842857Y-47843571D02*
X162700000Y-47915000D01*
X162700000Y-47915000D02*
X162628572Y-47986428D01*
X162628572Y-47986428D02*
X162557143Y-48129285D01*
X162557143Y-48129285D02*
X162557143Y-48557857D01*
X162557143Y-48557857D02*
X162628572Y-48700714D01*
X162628572Y-48700714D02*
X162700000Y-48772142D01*
X162700000Y-48772142D02*
X162842857Y-48843571D01*
X162842857Y-48843571D02*
X163128572Y-48843571D01*
X163128572Y-48843571D02*
X163271429Y-48772142D01*
X161271429Y-47843571D02*
X161271429Y-48843571D01*
X161914286Y-47843571D02*
X161914286Y-48629285D01*
X161914286Y-48629285D02*
X161842857Y-48772142D01*
X161842857Y-48772142D02*
X161700000Y-48843571D01*
X161700000Y-48843571D02*
X161485714Y-48843571D01*
X161485714Y-48843571D02*
X161342857Y-48772142D01*
X161342857Y-48772142D02*
X161271429Y-48700714D01*
X160557143Y-48843571D02*
X160557143Y-47343571D01*
X160557143Y-47915000D02*
X160414286Y-47843571D01*
X160414286Y-47843571D02*
X160128571Y-47843571D01*
X160128571Y-47843571D02*
X159985714Y-47915000D01*
X159985714Y-47915000D02*
X159914286Y-47986428D01*
X159914286Y-47986428D02*
X159842857Y-48129285D01*
X159842857Y-48129285D02*
X159842857Y-48557857D01*
X159842857Y-48557857D02*
X159914286Y-48700714D01*
X159914286Y-48700714D02*
X159985714Y-48772142D01*
X159985714Y-48772142D02*
X160128571Y-48843571D01*
X160128571Y-48843571D02*
X160414286Y-48843571D01*
X160414286Y-48843571D02*
X160557143Y-48772142D01*
X159271428Y-48772142D02*
X159128571Y-48843571D01*
X159128571Y-48843571D02*
X158842857Y-48843571D01*
X158842857Y-48843571D02*
X158700000Y-48772142D01*
X158700000Y-48772142D02*
X158628571Y-48629285D01*
X158628571Y-48629285D02*
X158628571Y-48557857D01*
X158628571Y-48557857D02*
X158700000Y-48415000D01*
X158700000Y-48415000D02*
X158842857Y-48343571D01*
X158842857Y-48343571D02*
X159057143Y-48343571D01*
X159057143Y-48343571D02*
X159200000Y-48272142D01*
X159200000Y-48272142D02*
X159271428Y-48129285D01*
X159271428Y-48129285D02*
X159271428Y-48057857D01*
X159271428Y-48057857D02*
X159200000Y-47915000D01*
X159200000Y-47915000D02*
X159057143Y-47843571D01*
X159057143Y-47843571D02*
X158842857Y-47843571D01*
X158842857Y-47843571D02*
X158700000Y-47915000D01*
X168985714Y-50273571D02*
X168628571Y-51273571D01*
X168628571Y-51273571D02*
X168271428Y-50273571D01*
X167771428Y-49916428D02*
X167700000Y-49845000D01*
X167700000Y-49845000D02*
X167557143Y-49773571D01*
X167557143Y-49773571D02*
X167200000Y-49773571D01*
X167200000Y-49773571D02*
X167057143Y-49845000D01*
X167057143Y-49845000D02*
X166985714Y-49916428D01*
X166985714Y-49916428D02*
X166914285Y-50059285D01*
X166914285Y-50059285D02*
X166914285Y-50202142D01*
X166914285Y-50202142D02*
X166985714Y-50416428D01*
X166985714Y-50416428D02*
X167842857Y-51273571D01*
X167842857Y-51273571D02*
X166914285Y-51273571D01*
D12*
X108869999Y-60699999D03*
D13*
X106330000Y-60700000D03*
D14*
X103159999Y-69329999D03*
D15*
X103159999Y-71869999D03*
X105699999Y-69329999D03*
X105699999Y-71869999D03*
X108239999Y-69329999D03*
X108239999Y-71869999D03*
D16*
X101700000Y-60950000D03*
X101700000Y-64050000D03*
D17*
X112600000Y-62800000D02*
X112600000Y-72900000D01*
X112600000Y-72900000D02*
X111100000Y-74400000D01*
X108870000Y-60700000D02*
X110500000Y-60700000D01*
X110500000Y-60700000D02*
X112600000Y-62800000D01*
X111100000Y-74400000D02*
X105690000Y-74400000D01*
X105690000Y-74400000D02*
X103160000Y-71870000D01*
X101700000Y-60950000D02*
X101950000Y-60700000D01*
X101950000Y-60700000D02*
X106330000Y-60700000D01*
X103160000Y-69330000D02*
X103160000Y-65510000D01*
X103160000Y-65510000D02*
X101700000Y-64050000D01*
G04 #@! TA.AperFunction,NonConductor*
G36*
X107053226Y-70005670D02*
G01*
X107075483Y-70031357D01*
X107164278Y-70167268D01*
X107167803Y-70171097D01*
X107167806Y-70171101D01*
X107232511Y-70241388D01*
X107316760Y-70332906D01*
X107494424Y-70471189D01*
X107499005Y-70473668D01*
X107527680Y-70489186D01*
X107578071Y-70539199D01*
X107593423Y-70608516D01*
X107568863Y-70675129D01*
X107527681Y-70710813D01*
X107494424Y-70728811D01*
X107490313Y-70732010D01*
X107490311Y-70732012D01*
X107335861Y-70852227D01*
X107316760Y-70867094D01*
X107313228Y-70870931D01*
X107167806Y-71028899D01*
X107167803Y-71028903D01*
X107164278Y-71032732D01*
X107161427Y-71037096D01*
X107075483Y-71168643D01*
X107021479Y-71214732D01*
X106951132Y-71224307D01*
X106886774Y-71194330D01*
X106864517Y-71168643D01*
X106778573Y-71037096D01*
X106775722Y-71032732D01*
X106772197Y-71028903D01*
X106772194Y-71028899D01*
X106626772Y-70870931D01*
X106623240Y-70867094D01*
X106604139Y-70852227D01*
X106449689Y-70732012D01*
X106449687Y-70732010D01*
X106445576Y-70728811D01*
X106412320Y-70710814D01*
X106361929Y-70660801D01*
X106346577Y-70591484D01*
X106371137Y-70524871D01*
X106412320Y-70489186D01*
X106440995Y-70473668D01*
X106445576Y-70471189D01*
X106623240Y-70332906D01*
X106707489Y-70241388D01*
X106772194Y-70171101D01*
X106772197Y-70171097D01*
X106775722Y-70167268D01*
X106864517Y-70031357D01*
X106918521Y-69985268D01*
X106988868Y-69975693D01*
X107053226Y-70005670D01*
G37*
G04 #@! TD.AperFunction*
G04 #@! TA.AperFunction,NonConductor*
G36*
X104683439Y-70241388D02*
G01*
X104715755Y-70266638D01*
X104736526Y-70289201D01*
X104776760Y-70332906D01*
X104954424Y-70471189D01*
X104959005Y-70473668D01*
X104987680Y-70489186D01*
X105038071Y-70539199D01*
X105053423Y-70608516D01*
X105028863Y-70675129D01*
X104987681Y-70710813D01*
X104954424Y-70728811D01*
X104950313Y-70732010D01*
X104950311Y-70732012D01*
X104795861Y-70852227D01*
X104776760Y-70867094D01*
X104773228Y-70870931D01*
X104627806Y-71028899D01*
X104627803Y-71028903D01*
X104624278Y-71032732D01*
X104621427Y-71037096D01*
X104535483Y-71168643D01*
X104481479Y-71214732D01*
X104411132Y-71224307D01*
X104346774Y-71194330D01*
X104324517Y-71168643D01*
X104238573Y-71037096D01*
X104235722Y-71032732D01*
X104232197Y-71028903D01*
X104232194Y-71028899D01*
X104092525Y-70877180D01*
X104061104Y-70813515D01*
X104069091Y-70742969D01*
X104113949Y-70687940D01*
X104141191Y-70673787D01*
X104256204Y-70630889D01*
X104268536Y-70621658D01*
X104366050Y-70548659D01*
X104373261Y-70543261D01*
X104460889Y-70426204D01*
X104504998Y-70307944D01*
X104547545Y-70251108D01*
X104614065Y-70226297D01*
X104683439Y-70241388D01*
G37*
G04 #@! TD.AperFunction*
G04 #@! TA.AperFunction,NonConductor*
G36*
X157251478Y-46320502D02*
G01*
X157297971Y-46374158D01*
X157309357Y-46426500D01*
X157309357Y-52483500D01*
X170083500Y-52483500D01*
X170083500Y-46426500D01*
X170103502Y-46358379D01*
X170157158Y-46311886D01*
X170209500Y-46300500D01*
X170673500Y-46300500D01*
X170741621Y-46320502D01*
X170788114Y-46374158D01*
X170799500Y-46426500D01*
X170799500Y-74873500D01*
X170779498Y-74941621D01*
X170725842Y-74988114D01*
X170673500Y-74999500D01*
X111700594Y-74999500D01*
X111632473Y-74979498D01*
X111585980Y-74925842D01*
X111575876Y-74855568D01*
X111605370Y-74790988D01*
X111611499Y-74784405D01*
X112992247Y-73403657D01*
X113000537Y-73396113D01*
X113007018Y-73392000D01*
X113053659Y-73342332D01*
X113056413Y-73339491D01*
X113076134Y-73319770D01*
X113078612Y-73316575D01*
X113086318Y-73307553D01*
X113111158Y-73281101D01*
X113116586Y-73275321D01*
X113126346Y-73257568D01*
X113137199Y-73241045D01*
X113144753Y-73231306D01*
X113149613Y-73225041D01*
X113167176Y-73184457D01*
X113172383Y-73173827D01*
X113193695Y-73135060D01*
X113195666Y-73127383D01*
X113195668Y-73127378D01*
X113198732Y-73115442D01*
X113205138Y-73096730D01*
X113210034Y-73085417D01*
X113213181Y-73078145D01*
X113220097Y-73034481D01*
X113222504Y-73022860D01*
X113231528Y-72987711D01*
X113231528Y-72987710D01*
X113233500Y-72980030D01*
X113233500Y-72959769D01*
X113235051Y-72940058D01*
X113236979Y-72927885D01*
X113238219Y-72920057D01*
X113234059Y-72876046D01*
X113233500Y-72864189D01*
X113233500Y-62878763D01*
X113234027Y-62867579D01*
X113235701Y-62860091D01*
X113233562Y-62792032D01*
X113233500Y-62788075D01*
X113233500Y-62760144D01*
X113232994Y-62756138D01*
X113232061Y-62744292D01*
X113230922Y-62708037D01*
X113230673Y-62700110D01*
X113225022Y-62680658D01*
X113221014Y-62661306D01*
X113219468Y-62649068D01*
X113219467Y-62649066D01*
X113218474Y-62641203D01*
X113202194Y-62600086D01*
X113198359Y-62588885D01*
X113186018Y-62546406D01*
X113181985Y-62539587D01*
X113181983Y-62539582D01*
X113175707Y-62528971D01*
X113167010Y-62511221D01*
X113159552Y-62492383D01*
X113133571Y-62456623D01*
X113127053Y-62446701D01*
X113108578Y-62415460D01*
X113108574Y-62415455D01*
X113104542Y-62408637D01*
X113090218Y-62394313D01*
X113077376Y-62379278D01*
X113065472Y-62362893D01*
X113031406Y-62334711D01*
X113022627Y-62326722D01*
X111003652Y-60307747D01*
X110996112Y-60299461D01*
X110992000Y-60292982D01*
X110942348Y-60246356D01*
X110939507Y-60243602D01*
X110919770Y-60223865D01*
X110916573Y-60221385D01*
X110907551Y-60213680D01*
X110881100Y-60188841D01*
X110875321Y-60183414D01*
X110868375Y-60179595D01*
X110868372Y-60179593D01*
X110857566Y-60173652D01*
X110841047Y-60162801D01*
X110840583Y-60162441D01*
X110825041Y-60150386D01*
X110817772Y-60147241D01*
X110817768Y-60147238D01*
X110784463Y-60132826D01*
X110773813Y-60127609D01*
X110735060Y-60106305D01*
X110715437Y-60101267D01*
X110696734Y-60094863D01*
X110685420Y-60089967D01*
X110685419Y-60089967D01*
X110678145Y-60086819D01*
X110670322Y-60085580D01*
X110670312Y-60085577D01*
X110634476Y-60079901D01*
X110622856Y-60077495D01*
X110587711Y-60068472D01*
X110587710Y-60068472D01*
X110580030Y-60066500D01*
X110559776Y-60066500D01*
X110540065Y-60064949D01*
X110527886Y-60063020D01*
X110520057Y-60061780D01*
X110512165Y-60062526D01*
X110476039Y-60065941D01*
X110464181Y-60066500D01*
X110404500Y-60066500D01*
X110336379Y-60046498D01*
X110289886Y-59992842D01*
X110278500Y-59940500D01*
X110278500Y-59751362D01*
X110271989Y-59690799D01*
X110220889Y-59553796D01*
X110133261Y-59436739D01*
X110016204Y-59349111D01*
X109879201Y-59298011D01*
X109842295Y-59294043D01*
X109821988Y-59291860D01*
X109821985Y-59291860D01*
X109818638Y-59291500D01*
X107921362Y-59291500D01*
X107918015Y-59291860D01*
X107918012Y-59291860D01*
X107897705Y-59294043D01*
X107860799Y-59298011D01*
X107723796Y-59349111D01*
X107606739Y-59436739D01*
X107519111Y-59553796D01*
X107515963Y-59562237D01*
X107515961Y-59562241D01*
X107495638Y-59616726D01*
X107453091Y-59673561D01*
X107386571Y-59698371D01*
X107317197Y-59683279D01*
X107292248Y-59665395D01*
X107290747Y-59664014D01*
X107287220Y-59660182D01*
X107103017Y-59516810D01*
X106968383Y-59443950D01*
X106902312Y-59408194D01*
X106902309Y-59408193D01*
X106897727Y-59405713D01*
X106676951Y-59329920D01*
X106671817Y-59329063D01*
X106671812Y-59329062D01*
X106451849Y-59292357D01*
X106451846Y-59292357D01*
X106446712Y-59291500D01*
X106213288Y-59291500D01*
X106208154Y-59292357D01*
X106208151Y-59292357D01*
X105988188Y-59329062D01*
X105988183Y-59329063D01*
X105983049Y-59329920D01*
X105762273Y-59405713D01*
X105757691Y-59408193D01*
X105757688Y-59408194D01*
X105691617Y-59443950D01*
X105556983Y-59516810D01*
X105552872Y-59520009D01*
X105552870Y-59520011D01*
X105376898Y-59656976D01*
X105376892Y-59656981D01*
X105372780Y-59660182D01*
X105369248Y-59664019D01*
X105218214Y-59828084D01*
X105218211Y-59828088D01*
X105214686Y-59831917D01*
X105211835Y-59836281D01*
X105098721Y-60009415D01*
X105044718Y-60055504D01*
X104993238Y-60066500D01*
X102966372Y-60066500D01*
X102898251Y-60046498D01*
X102877277Y-60029595D01*
X102798652Y-59950970D01*
X102647738Y-59857885D01*
X102557803Y-59828084D01*
X102485952Y-59804275D01*
X102485948Y-59804274D01*
X102479426Y-59802113D01*
X102472592Y-59801415D01*
X102472588Y-59801414D01*
X102378729Y-59791825D01*
X102378723Y-59791825D01*
X102375545Y-59791500D01*
X101700106Y-59791500D01*
X101024456Y-59791501D01*
X101021279Y-59791826D01*
X101021270Y-59791826D01*
X100972533Y-59796805D01*
X100920574Y-59802113D01*
X100752262Y-59857885D01*
X100601348Y-59950970D01*
X100475970Y-60076348D01*
X100472117Y-60082595D01*
X100472116Y-60082596D01*
X100444355Y-60127604D01*
X100382885Y-60227262D01*
X100327113Y-60395574D01*
X100316500Y-60499455D01*
X100316501Y-61400544D01*
X100327113Y-61504426D01*
X100382885Y-61672738D01*
X100426234Y-61743018D01*
X100451065Y-61783274D01*
X100475970Y-61823652D01*
X100601348Y-61949030D01*
X100607595Y-61952883D01*
X100607596Y-61952884D01*
X100663829Y-61987569D01*
X100752262Y-62042115D01*
X100778741Y-62050889D01*
X100914048Y-62095725D01*
X100914052Y-62095726D01*
X100920574Y-62097887D01*
X100927408Y-62098585D01*
X100927412Y-62098586D01*
X101021271Y-62108175D01*
X101021277Y-62108175D01*
X101024455Y-62108500D01*
X101699894Y-62108500D01*
X102375544Y-62108499D01*
X102378721Y-62108174D01*
X102378730Y-62108174D01*
X102427467Y-62103195D01*
X102479426Y-62097887D01*
X102647738Y-62042115D01*
X102736171Y-61987569D01*
X102792404Y-61952884D01*
X102792405Y-61952883D01*
X102798652Y-61949030D01*
X102924030Y-61823652D01*
X102948936Y-61783274D01*
X102973766Y-61743018D01*
X103017115Y-61672738D01*
X103045443Y-61587247D01*
X103070725Y-61510952D01*
X103070726Y-61510948D01*
X103072887Y-61504426D01*
X103078785Y-61446693D01*
X103105607Y-61380959D01*
X103163710Y-61340160D01*
X103204133Y-61333500D01*
X104993238Y-61333500D01*
X105061359Y-61353502D01*
X105098721Y-61390585D01*
X105214686Y-61568083D01*
X105218211Y-61571912D01*
X105218214Y-61571916D01*
X105288842Y-61648638D01*
X105372780Y-61739818D01*
X105376891Y-61743018D01*
X105376898Y-61743024D01*
X105518732Y-61853418D01*
X105556983Y-61883190D01*
X105561564Y-61885669D01*
X105704942Y-61963261D01*
X105762273Y-61994287D01*
X105983049Y-62070080D01*
X105988183Y-62070937D01*
X105988188Y-62070938D01*
X106208151Y-62107643D01*
X106208154Y-62107643D01*
X106213288Y-62108500D01*
X106446712Y-62108500D01*
X106451846Y-62107643D01*
X106451849Y-62107643D01*
X106671812Y-62070938D01*
X106671817Y-62070937D01*
X106676951Y-62070080D01*
X106897727Y-61994287D01*
X106955059Y-61963261D01*
X107098436Y-61885669D01*
X107103017Y-61883190D01*
X107287220Y-61739818D01*
X107290747Y-61735986D01*
X107292248Y-61734605D01*
X107355914Y-61703185D01*
X107426459Y-61711174D01*
X107481487Y-61756034D01*
X107495638Y-61783274D01*
X107508369Y-61817404D01*
X107519111Y-61846204D01*
X107606739Y-61963261D01*
X107723796Y-62050889D01*
X107860799Y-62101989D01*
X107897705Y-62105957D01*
X107918012Y-62108140D01*
X107918015Y-62108140D01*
X107921362Y-62108500D01*
X109818638Y-62108500D01*
X109821985Y-62108140D01*
X109821988Y-62108140D01*
X109842295Y-62105957D01*
X109879201Y-62101989D01*
X110016204Y-62050889D01*
X110133261Y-61963261D01*
X110220889Y-61846204D01*
X110271989Y-61709201D01*
X110276970Y-61662872D01*
X110304140Y-61597280D01*
X110362458Y-61556790D01*
X110433409Y-61554256D01*
X110491343Y-61587247D01*
X111929595Y-63025499D01*
X111963621Y-63087811D01*
X111966500Y-63114594D01*
X111966500Y-72585405D01*
X111946498Y-72653526D01*
X111929595Y-72674500D01*
X110874500Y-73729595D01*
X110812188Y-73763621D01*
X110785405Y-73766500D01*
X106004595Y-73766500D01*
X105936474Y-73746498D01*
X105915500Y-73729595D01*
X105629500Y-73443595D01*
X105595474Y-73381283D01*
X105600539Y-73310468D01*
X105643086Y-73253632D01*
X105709606Y-73228821D01*
X105718595Y-73228500D01*
X105812569Y-73228500D01*
X105817704Y-73227643D01*
X105817706Y-73227643D01*
X106029496Y-73192302D01*
X106029501Y-73192301D01*
X106034635Y-73191444D01*
X106247574Y-73118342D01*
X106308415Y-73085417D01*
X106440995Y-73013668D01*
X106445576Y-73011189D01*
X106475741Y-72987711D01*
X106619121Y-72876112D01*
X106623240Y-72872906D01*
X106670640Y-72821417D01*
X106772194Y-72711101D01*
X106772197Y-72711097D01*
X106775722Y-72707268D01*
X106864517Y-72571357D01*
X106918521Y-72525268D01*
X106988868Y-72515693D01*
X107053226Y-72545670D01*
X107075483Y-72571357D01*
X107164278Y-72707268D01*
X107167803Y-72711097D01*
X107167806Y-72711101D01*
X107269360Y-72821417D01*
X107316760Y-72872906D01*
X107320879Y-72876112D01*
X107464260Y-72987711D01*
X107494424Y-73011189D01*
X107499005Y-73013668D01*
X107631586Y-73085417D01*
X107692426Y-73118342D01*
X107905365Y-73191444D01*
X107910499Y-73192301D01*
X107910504Y-73192302D01*
X108122294Y-73227643D01*
X108122296Y-73227643D01*
X108127431Y-73228500D01*
X108352569Y-73228500D01*
X108357704Y-73227643D01*
X108357706Y-73227643D01*
X108569496Y-73192302D01*
X108569501Y-73192301D01*
X108574635Y-73191444D01*
X108787574Y-73118342D01*
X108848415Y-73085417D01*
X108980995Y-73013668D01*
X108985576Y-73011189D01*
X109015741Y-72987711D01*
X109159121Y-72876112D01*
X109163240Y-72872906D01*
X109210640Y-72821417D01*
X109312194Y-72711101D01*
X109312197Y-72711097D01*
X109315722Y-72707268D01*
X109421299Y-72545670D01*
X109436008Y-72523157D01*
X109436010Y-72523153D01*
X109438860Y-72518791D01*
X109529296Y-72312616D01*
X109584564Y-72094368D01*
X109603156Y-71870000D01*
X109584564Y-71645632D01*
X109529296Y-71427384D01*
X109438860Y-71221209D01*
X109434629Y-71214732D01*
X109318573Y-71037096D01*
X109315722Y-71032732D01*
X109312197Y-71028903D01*
X109312194Y-71028899D01*
X109166772Y-70870931D01*
X109163240Y-70867094D01*
X109144139Y-70852227D01*
X108989689Y-70732012D01*
X108989687Y-70732010D01*
X108985576Y-70728811D01*
X108952320Y-70710814D01*
X108901929Y-70660801D01*
X108886577Y-70591484D01*
X108911137Y-70524871D01*
X108952320Y-70489186D01*
X108980995Y-70473668D01*
X108985576Y-70471189D01*
X109163240Y-70332906D01*
X109247489Y-70241388D01*
X109312194Y-70171101D01*
X109312197Y-70171097D01*
X109315722Y-70167268D01*
X109421299Y-70005670D01*
X109436008Y-69983157D01*
X109436010Y-69983153D01*
X109438860Y-69978791D01*
X109529296Y-69772616D01*
X109584564Y-69554368D01*
X109603156Y-69330000D01*
X109584564Y-69105632D01*
X109529296Y-68887384D01*
X109438860Y-68681209D01*
X109434629Y-68674732D01*
X109318573Y-68497096D01*
X109315722Y-68492732D01*
X109312197Y-68488903D01*
X109312194Y-68488899D01*
X109166772Y-68330931D01*
X109163240Y-68327094D01*
X108985576Y-68188811D01*
X108787574Y-68081658D01*
X108574635Y-68008556D01*
X108569501Y-68007699D01*
X108569496Y-68007698D01*
X108357706Y-67972357D01*
X108357704Y-67972357D01*
X108352569Y-67971500D01*
X108127431Y-67971500D01*
X108122296Y-67972357D01*
X108122294Y-67972357D01*
X107910504Y-68007698D01*
X107910499Y-68007699D01*
X107905365Y-68008556D01*
X107692426Y-68081658D01*
X107494424Y-68188811D01*
X107316760Y-68327094D01*
X107313228Y-68330931D01*
X107167806Y-68488899D01*
X107167803Y-68488903D01*
X107164278Y-68492732D01*
X107161427Y-68497096D01*
X107075483Y-68628643D01*
X107021479Y-68674732D01*
X106951132Y-68684307D01*
X106886774Y-68654330D01*
X106864517Y-68628643D01*
X106778573Y-68497096D01*
X106775722Y-68492732D01*
X106772197Y-68488903D01*
X106772194Y-68488899D01*
X106626772Y-68330931D01*
X106623240Y-68327094D01*
X106445576Y-68188811D01*
X106247574Y-68081658D01*
X106034635Y-68008556D01*
X106029501Y-68007699D01*
X106029496Y-68007698D01*
X105817706Y-67972357D01*
X105817704Y-67972357D01*
X105812569Y-67971500D01*
X105587431Y-67971500D01*
X105582296Y-67972357D01*
X105582294Y-67972357D01*
X105370504Y-68007698D01*
X105370499Y-68007699D01*
X105365365Y-68008556D01*
X105152426Y-68081658D01*
X104954424Y-68188811D01*
X104776760Y-68327094D01*
X104773228Y-68330931D01*
X104715755Y-68393362D01*
X104654901Y-68429933D01*
X104583937Y-68427798D01*
X104525392Y-68387636D01*
X104504998Y-68352056D01*
X104464038Y-68242239D01*
X104464037Y-68242237D01*
X104460889Y-68233796D01*
X104373261Y-68116739D01*
X104256204Y-68029111D01*
X104119201Y-67978011D01*
X104082295Y-67974043D01*
X104061988Y-67971860D01*
X104061985Y-67971860D01*
X104058638Y-67971500D01*
X103919500Y-67971500D01*
X103851379Y-67951498D01*
X103804886Y-67897842D01*
X103793500Y-67845500D01*
X103793500Y-65588767D01*
X103794027Y-65577584D01*
X103795702Y-65570091D01*
X103793562Y-65502000D01*
X103793500Y-65498043D01*
X103793500Y-65470144D01*
X103792996Y-65466153D01*
X103792063Y-65454311D01*
X103790923Y-65418036D01*
X103790674Y-65410111D01*
X103788462Y-65402497D01*
X103788461Y-65402492D01*
X103785023Y-65390659D01*
X103781012Y-65371295D01*
X103779467Y-65359064D01*
X103778474Y-65351203D01*
X103775557Y-65343836D01*
X103775556Y-65343831D01*
X103762198Y-65310092D01*
X103758354Y-65298865D01*
X103748230Y-65264022D01*
X103746018Y-65256407D01*
X103735707Y-65238972D01*
X103727012Y-65221224D01*
X103719552Y-65202383D01*
X103693564Y-65166613D01*
X103687048Y-65156693D01*
X103668580Y-65125465D01*
X103668578Y-65125462D01*
X103664542Y-65118638D01*
X103650221Y-65104317D01*
X103637380Y-65089283D01*
X103630131Y-65079306D01*
X103625472Y-65072893D01*
X103619368Y-65067843D01*
X103619363Y-65067838D01*
X103591402Y-65044707D01*
X103582621Y-65036717D01*
X103120404Y-64574499D01*
X103086379Y-64512187D01*
X103083500Y-64485404D01*
X103083499Y-63602662D01*
X103083499Y-63599456D01*
X103072887Y-63495574D01*
X103017115Y-63327262D01*
X102924030Y-63176348D01*
X102798652Y-63050970D01*
X102647738Y-62957885D01*
X102584193Y-62936829D01*
X102485952Y-62904275D01*
X102485948Y-62904274D01*
X102479426Y-62902113D01*
X102472592Y-62901415D01*
X102472588Y-62901414D01*
X102378729Y-62891825D01*
X102378723Y-62891825D01*
X102375545Y-62891500D01*
X101700106Y-62891500D01*
X101024456Y-62891501D01*
X101021279Y-62891826D01*
X101021270Y-62891826D01*
X100972533Y-62896805D01*
X100920574Y-62902113D01*
X100752262Y-62957885D01*
X100601348Y-63050970D01*
X100475970Y-63176348D01*
X100382885Y-63327262D01*
X100327113Y-63495574D01*
X100316500Y-63599455D01*
X100316501Y-64500544D01*
X100327113Y-64604426D01*
X100382885Y-64772738D01*
X100475970Y-64923652D01*
X100601348Y-65049030D01*
X100752262Y-65142115D01*
X100811693Y-65161808D01*
X100914048Y-65195725D01*
X100914052Y-65195726D01*
X100920574Y-65197887D01*
X100927408Y-65198585D01*
X100927412Y-65198586D01*
X101021271Y-65208175D01*
X101021277Y-65208175D01*
X101024455Y-65208500D01*
X101078732Y-65208500D01*
X101910404Y-65208499D01*
X101978525Y-65228501D01*
X101999500Y-65245404D01*
X102489596Y-65735501D01*
X102523621Y-65797813D01*
X102526500Y-65824596D01*
X102526500Y-67845500D01*
X102506498Y-67913621D01*
X102452842Y-67960114D01*
X102400500Y-67971500D01*
X102261362Y-67971500D01*
X102258015Y-67971860D01*
X102258012Y-67971860D01*
X102237705Y-67974043D01*
X102200799Y-67978011D01*
X102063796Y-68029111D01*
X101946739Y-68116739D01*
X101859111Y-68233796D01*
X101808011Y-68370799D01*
X101801500Y-68431362D01*
X101801500Y-70228638D01*
X101808011Y-70289201D01*
X101859111Y-70426204D01*
X101946739Y-70543261D01*
X101953950Y-70548659D01*
X102051465Y-70621658D01*
X102063796Y-70630889D01*
X102178808Y-70673787D01*
X102235642Y-70716333D01*
X102260453Y-70782853D01*
X102245361Y-70852227D01*
X102227475Y-70877180D01*
X102087806Y-71028899D01*
X102087803Y-71028903D01*
X102084278Y-71032732D01*
X102081427Y-71037096D01*
X101965372Y-71214732D01*
X101961140Y-71221209D01*
X101870704Y-71427384D01*
X101815436Y-71645632D01*
X101796844Y-71870000D01*
X101815436Y-72094368D01*
X101870704Y-72312616D01*
X101961140Y-72518791D01*
X101963990Y-72523153D01*
X101963992Y-72523157D01*
X101978701Y-72545670D01*
X102084278Y-72707268D01*
X102087803Y-72711097D01*
X102087806Y-72711101D01*
X102189360Y-72821417D01*
X102236760Y-72872906D01*
X102240879Y-72876112D01*
X102384260Y-72987711D01*
X102414424Y-73011189D01*
X102419005Y-73013668D01*
X102551586Y-73085417D01*
X102612426Y-73118342D01*
X102825365Y-73191444D01*
X102830499Y-73192301D01*
X102830504Y-73192302D01*
X103042294Y-73227643D01*
X103042296Y-73227643D01*
X103047431Y-73228500D01*
X103272569Y-73228500D01*
X103277704Y-73227643D01*
X103277706Y-73227643D01*
X103489501Y-73192301D01*
X103489504Y-73192300D01*
X103494635Y-73191444D01*
X103497924Y-73190315D01*
X103568364Y-73192965D01*
X103617442Y-73223346D01*
X105178501Y-74784405D01*
X105212527Y-74846717D01*
X105207462Y-74917532D01*
X105164915Y-74974368D01*
X105098395Y-74999179D01*
X105089406Y-74999500D01*
X100126500Y-74999500D01*
X100058379Y-74979498D01*
X100011886Y-74925842D01*
X100000500Y-74873500D01*
X100000500Y-46426500D01*
X100020502Y-46358379D01*
X100074158Y-46311886D01*
X100126500Y-46300500D01*
X157183357Y-46300500D01*
X157251478Y-46320502D01*
G37*
G04 #@! TD.AperFunction*
M02*
