G04 #@! TF.GenerationSoftware,KiCad,Pcbnew,(6.99.0-2452-gdb4f2d9dd8)*
G04 #@! TF.CreationDate,2022-08-02T17:30:30-05:00*
G04 #@! TF.ProjectId,Blue Origin,426c7565-204f-4726-9967-696e2e6b6963,rev?*
G04 #@! TF.SameCoordinates,Original*
G04 #@! TF.FileFunction,Legend,Bot*
G04 #@! TF.FilePolarity,Positive*
%FSLAX46Y46*%
G04 Gerber Fmt 4.6, Leading zero omitted, Abs format (unit mm)*
G04 Created by KiCad (PCBNEW (6.99.0-2452-gdb4f2d9dd8)) date 2022-08-02 17:30:30*
%MOMM*%
%LPD*%
G01*
G04 APERTURE LIST*
G04 Aperture macros list*
%AMRoundRect*
0 Rectangle with rounded corners*
0 $1 Rounding radius*
0 $2 $3 $4 $5 $6 $7 $8 $9 X,Y pos of 4 corners*
0 Add a 4 corners polygon primitive as box body*
4,1,4,$2,$3,$4,$5,$6,$7,$8,$9,$2,$3,0*
0 Add four circle primitives for the rounded corners*
1,1,$1+$1,$2,$3*
1,1,$1+$1,$4,$5*
1,1,$1+$1,$6,$7*
1,1,$1+$1,$8,$9*
0 Add four rect primitives between the rounded corners*
20,1,$1+$1,$2,$3,$4,$5,0*
20,1,$1+$1,$4,$5,$6,$7,0*
20,1,$1+$1,$6,$7,$8,$9,0*
20,1,$1+$1,$8,$9,$2,$3,0*%
G04 Aperture macros list end*
%ADD10C,0.150000*%
%ADD11C,0.120000*%
%ADD12R,1.800000X1.800000*%
%ADD13C,1.800000*%
%ADD14R,1.700000X1.700000*%
%ADD15O,1.700000X1.700000*%
%ADD16RoundRect,0.250000X-0.625000X0.400000X-0.625000X-0.400000X0.625000X-0.400000X0.625000X0.400000X0*%
G04 APERTURE END LIST*
D10*
X169100714Y-58323809D02*
X169957857Y-58323809D01*
X169957857Y-58323809D02*
X170053095Y-58276190D01*
X170053095Y-58276190D02*
X170100714Y-58180952D01*
X170100714Y-58180952D02*
X170100714Y-58133333D01*
X168767380Y-58323809D02*
X168815000Y-58276190D01*
X168815000Y-58276190D02*
X168862619Y-58323809D01*
X168862619Y-58323809D02*
X168815000Y-58371428D01*
X168815000Y-58371428D02*
X168767380Y-58323809D01*
X168767380Y-58323809D02*
X168862619Y-58323809D01*
X169767380Y-58942856D02*
X169719761Y-58847618D01*
X169719761Y-58847618D02*
X169624523Y-58799999D01*
X169624523Y-58799999D02*
X168767380Y-58799999D01*
X169719761Y-59752380D02*
X169767380Y-59657142D01*
X169767380Y-59657142D02*
X169767380Y-59466666D01*
X169767380Y-59466666D02*
X169719761Y-59371428D01*
X169719761Y-59371428D02*
X169672142Y-59323809D01*
X169672142Y-59323809D02*
X169576904Y-59276190D01*
X169576904Y-59276190D02*
X169291190Y-59276190D01*
X169291190Y-59276190D02*
X169195952Y-59323809D01*
X169195952Y-59323809D02*
X169148333Y-59371428D01*
X169148333Y-59371428D02*
X169100714Y-59466666D01*
X169100714Y-59466666D02*
X169100714Y-59657142D01*
X169100714Y-59657142D02*
X169148333Y-59752380D01*
X169100714Y-60180952D02*
X169957857Y-60180952D01*
X169957857Y-60180952D02*
X170053095Y-60133333D01*
X170053095Y-60133333D02*
X170100714Y-60038095D01*
X170100714Y-60038095D02*
X170100714Y-59990476D01*
X168767380Y-60180952D02*
X168815000Y-60133333D01*
X168815000Y-60133333D02*
X168862619Y-60180952D01*
X168862619Y-60180952D02*
X168815000Y-60228571D01*
X168815000Y-60228571D02*
X168767380Y-60180952D01*
X168767380Y-60180952D02*
X168862619Y-60180952D01*
X169767380Y-60799999D02*
X169719761Y-60704761D01*
X169719761Y-60704761D02*
X169624523Y-60657142D01*
X169624523Y-60657142D02*
X168767380Y-60657142D01*
X169719761Y-61609523D02*
X169767380Y-61514285D01*
X169767380Y-61514285D02*
X169767380Y-61323809D01*
X169767380Y-61323809D02*
X169719761Y-61228571D01*
X169719761Y-61228571D02*
X169672142Y-61180952D01*
X169672142Y-61180952D02*
X169576904Y-61133333D01*
X169576904Y-61133333D02*
X169291190Y-61133333D01*
X169291190Y-61133333D02*
X169195952Y-61180952D01*
X169195952Y-61180952D02*
X169148333Y-61228571D01*
X169148333Y-61228571D02*
X169100714Y-61323809D01*
X169100714Y-61323809D02*
X169100714Y-61514285D01*
X169100714Y-61514285D02*
X169148333Y-61609523D01*
X169100714Y-62038095D02*
X169957857Y-62038095D01*
X169957857Y-62038095D02*
X170053095Y-61990476D01*
X170053095Y-61990476D02*
X170100714Y-61895238D01*
X170100714Y-61895238D02*
X170100714Y-61847619D01*
X168767380Y-62038095D02*
X168815000Y-61990476D01*
X168815000Y-61990476D02*
X168862619Y-62038095D01*
X168862619Y-62038095D02*
X168815000Y-62085714D01*
X168815000Y-62085714D02*
X168767380Y-62038095D01*
X168767380Y-62038095D02*
X168862619Y-62038095D01*
X169767380Y-62657142D02*
X169719761Y-62561904D01*
X169719761Y-62561904D02*
X169624523Y-62514285D01*
X169624523Y-62514285D02*
X168767380Y-62514285D01*
X169719761Y-63466666D02*
X169767380Y-63371428D01*
X169767380Y-63371428D02*
X169767380Y-63180952D01*
X169767380Y-63180952D02*
X169719761Y-63085714D01*
X169719761Y-63085714D02*
X169672142Y-63038095D01*
X169672142Y-63038095D02*
X169576904Y-62990476D01*
X169576904Y-62990476D02*
X169291190Y-62990476D01*
X169291190Y-62990476D02*
X169195952Y-63038095D01*
X169195952Y-63038095D02*
X169148333Y-63085714D01*
X169148333Y-63085714D02*
X169100714Y-63180952D01*
X169100714Y-63180952D02*
X169100714Y-63371428D01*
X169100714Y-63371428D02*
X169148333Y-63466666D01*
X169100714Y-63895238D02*
X169957857Y-63895238D01*
X169957857Y-63895238D02*
X170053095Y-63847619D01*
X170053095Y-63847619D02*
X170100714Y-63752381D01*
X170100714Y-63752381D02*
X170100714Y-63704762D01*
X168767380Y-63895238D02*
X168815000Y-63847619D01*
X168815000Y-63847619D02*
X168862619Y-63895238D01*
X168862619Y-63895238D02*
X168815000Y-63942857D01*
X168815000Y-63942857D02*
X168767380Y-63895238D01*
X168767380Y-63895238D02*
X168862619Y-63895238D01*
X169767380Y-64514285D02*
X169719761Y-64419047D01*
X169719761Y-64419047D02*
X169624523Y-64371428D01*
X169624523Y-64371428D02*
X168767380Y-64371428D01*
X169719761Y-65323809D02*
X169767380Y-65228571D01*
X169767380Y-65228571D02*
X169767380Y-65038095D01*
X169767380Y-65038095D02*
X169719761Y-64942857D01*
X169719761Y-64942857D02*
X169672142Y-64895238D01*
X169672142Y-64895238D02*
X169576904Y-64847619D01*
X169576904Y-64847619D02*
X169291190Y-64847619D01*
X169291190Y-64847619D02*
X169195952Y-64895238D01*
X169195952Y-64895238D02*
X169148333Y-64942857D01*
X169148333Y-64942857D02*
X169100714Y-65038095D01*
X169100714Y-65038095D02*
X169100714Y-65228571D01*
X169100714Y-65228571D02*
X169148333Y-65323809D01*
D11*
X109570000Y-68000000D02*
X109570000Y-73200000D01*
X104430000Y-68000000D02*
X109570000Y-68000000D01*
X104430000Y-68000000D02*
X104430000Y-70600000D01*
X103160000Y-68000000D02*
X101830000Y-68000000D01*
X101830000Y-68000000D02*
X101830000Y-69330000D01*
X104430000Y-70600000D02*
X101830000Y-70600000D01*
X101830000Y-70600000D02*
X101830000Y-73200000D01*
X101830000Y-73200000D02*
X109570000Y-73200000D01*
X102610000Y-61772936D02*
X102610000Y-63227064D01*
X100790000Y-61772936D02*
X100790000Y-63227064D01*
%LPC*%
D12*
X108869999Y-60699999D03*
D13*
X106330000Y-60700000D03*
D14*
X103159999Y-69329999D03*
D15*
X103159999Y-71869999D03*
X105699999Y-69329999D03*
X105699999Y-71869999D03*
X108239999Y-69329999D03*
X108239999Y-71869999D03*
D16*
X101700000Y-60950000D03*
X101700000Y-64050000D03*
M02*
