%TF.GenerationSoftware,KiCad,Pcbnew,(6.99.0-2452-gdb4f2d9dd8)*%
%TF.CreationDate,2022-08-02T18:08:55-05:00*%
%TF.ProjectId,Blue Origin,426c7565-204f-4726-9967-696e2e6b6963,rev?*%
%TF.SameCoordinates,Original*%
%TF.FileFunction,Drillmap*%
%TF.FilePolarity,Positive*%
%FSLAX45Y45*%
G04 Gerber Fmt 4.5, Leading zero omitted, Abs format (unit mm)*
G04 Created by KiCad (PCBNEW (6.99.0-2452-gdb4f2d9dd8)) date 2022-08-02 18:08:55*
%MOMM*%
%LPD*%
G01*
G04 APERTURE LIST*
%ADD10C,0.105833*%
%ADD11C,0.200000*%
G04 APERTURE END LIST*
D10*
X8129634Y-11535981D02*
X8129634Y-11536027D01*
X8129634Y-11535981D02*
X8129634Y-11535981D01*
X8132431Y-11540100D02*
X8129634Y-11535981D01*
X8135173Y-11543768D02*
X8132431Y-11540100D01*
X8137943Y-11547010D02*
X8135173Y-11543768D01*
X8140823Y-11549852D02*
X8137943Y-11547010D01*
X8143898Y-11552319D02*
X8140823Y-11549852D01*
X8147250Y-11554438D02*
X8143898Y-11552319D01*
X8150963Y-11556233D02*
X8147250Y-11554438D01*
X8155118Y-11557730D02*
X8150963Y-11556233D01*
X8159801Y-11558956D02*
X8155118Y-11557730D01*
X8165093Y-11559935D02*
X8159801Y-11558956D01*
X8171077Y-11560693D02*
X8165093Y-11559935D01*
X8177838Y-11561255D02*
X8171077Y-11560693D01*
X8185457Y-11561648D02*
X8177838Y-11561255D01*
X8194019Y-11561898D02*
X8185457Y-11561648D01*
X8214301Y-11562066D02*
X8194019Y-11561898D01*
X8214301Y-11562066D02*
X8214301Y-11562066D01*
X8316647Y-11561833D02*
X8214301Y-11562066D01*
X8435819Y-11561007D02*
X8316647Y-11561833D01*
X8435819Y-11561007D02*
X8435819Y-11561007D01*
X8747542Y-11561087D02*
X8435819Y-11561007D01*
X8747542Y-11561087D02*
X8747542Y-11561087D01*
X8788510Y-11561088D02*
X8747542Y-11561087D01*
X8805526Y-11561051D02*
X8788510Y-11561088D01*
X8820447Y-11560954D02*
X8805526Y-11561051D01*
X8833438Y-11560771D02*
X8820447Y-11560954D01*
X8844662Y-11560477D02*
X8833438Y-11560771D01*
X8849662Y-11560280D02*
X8844662Y-11560477D01*
X8854282Y-11560045D02*
X8849662Y-11560280D01*
X8858542Y-11559770D02*
X8854282Y-11560045D01*
X8862463Y-11559451D02*
X8858542Y-11559770D01*
X8866065Y-11559084D02*
X8862463Y-11559451D01*
X8869368Y-11558667D02*
X8866065Y-11559084D01*
X8872392Y-11558197D02*
X8869368Y-11558667D01*
X8875160Y-11557669D02*
X8872392Y-11558197D01*
X8877689Y-11557081D02*
X8875160Y-11557669D01*
X8880003Y-11556430D02*
X8877689Y-11557081D01*
X8882119Y-11555713D02*
X8880003Y-11556430D01*
X8884060Y-11554925D02*
X8882119Y-11555713D01*
X8885846Y-11554065D02*
X8884060Y-11554925D01*
X8887496Y-11553128D02*
X8885846Y-11554065D01*
X8889032Y-11552112D02*
X8887496Y-11553128D01*
X8890474Y-11551013D02*
X8889032Y-11552112D01*
X8891842Y-11549828D02*
X8890474Y-11551013D01*
X8893157Y-11548554D02*
X8891842Y-11549828D01*
X8894439Y-11547187D02*
X8893157Y-11548554D01*
X8895709Y-11545725D02*
X8894439Y-11547187D01*
X8895709Y-11545725D02*
X8895709Y-11545725D01*
X8900662Y-11540049D02*
X8895709Y-11545725D01*
X8901299Y-11539057D02*
X8900662Y-11540049D01*
X8902262Y-11537393D02*
X8901299Y-11539057D01*
X8906292Y-11530362D02*
X8902262Y-11537393D01*
X8906292Y-11530362D02*
X8906292Y-11530362D01*
X8907373Y-11527576D02*
X8906292Y-11530362D01*
X8908423Y-11522982D02*
X8907373Y-11527576D01*
X8910408Y-11508319D02*
X8908423Y-11522982D01*
X8912206Y-11486268D02*
X8910408Y-11508319D01*
X8913773Y-11456723D02*
X8912206Y-11486268D01*
X8915066Y-11419578D02*
X8913773Y-11456723D01*
X8916043Y-11374728D02*
X8915066Y-11419578D01*
X8916875Y-11261488D02*
X8916043Y-11374728D01*
X8916875Y-11261488D02*
X8916875Y-11261488D01*
X8916875Y-10992613D02*
X8916875Y-11261488D01*
X8916875Y-10992613D02*
X8916875Y-10992613D01*
X9022708Y-10705387D02*
X8916875Y-10992613D01*
X9022708Y-10705387D02*
X9022708Y-10705387D01*
X9128542Y-10418161D02*
X9022708Y-10705387D01*
X9128542Y-10418161D02*
X9128542Y-10418161D01*
X9128542Y-10285847D02*
X9128542Y-10418161D01*
X9128542Y-10285847D02*
X9128542Y-10285847D01*
X9128542Y-10153535D02*
X9128542Y-10285847D01*
X9128542Y-10153535D02*
X9128542Y-10153535D01*
X8853375Y-9397530D02*
X9128542Y-10153535D01*
X8853375Y-9397530D02*
X8853375Y-9397530D01*
X8853375Y-8241453D02*
X8853375Y-9397530D01*
X8853375Y-8241453D02*
X8853375Y-8241453D01*
X8853375Y-7085377D02*
X8853375Y-8241453D01*
X8853375Y-7085377D02*
X8853375Y-7085377D01*
X8948625Y-6985393D02*
X8853375Y-7085377D01*
X8948625Y-6985393D02*
X8948625Y-6985393D01*
X9043875Y-6885408D02*
X8948625Y-6985393D01*
X9043875Y-6885408D02*
X9043875Y-6885408D01*
X9043715Y-6818698D02*
X9043875Y-6885408D01*
X9043715Y-6818698D02*
X9043715Y-6818698D01*
X9043524Y-6805050D02*
X9043715Y-6818698D01*
X9043039Y-6791839D02*
X9043524Y-6805050D01*
X9042292Y-6779388D02*
X9043039Y-6791839D01*
X9041317Y-6768021D02*
X9042292Y-6779388D01*
X9040753Y-6762845D02*
X9041317Y-6768021D01*
X9040145Y-6758061D02*
X9040753Y-6762845D01*
X9039496Y-6753709D02*
X9040145Y-6758061D01*
X9038809Y-6749831D02*
X9039496Y-6753709D01*
X9038091Y-6746466D02*
X9038809Y-6749831D01*
X9037343Y-6743655D02*
X9038091Y-6746466D01*
X9036571Y-6741439D02*
X9037343Y-6743655D01*
X9035778Y-6739857D02*
X9036571Y-6741439D01*
X9035778Y-6739857D02*
X9035778Y-6739857D01*
X9034546Y-6738348D02*
X9035778Y-6739857D01*
X9032488Y-6736348D02*
X9034546Y-6738348D01*
X9026078Y-6731003D02*
X9032488Y-6736348D01*
X9016927Y-6724087D02*
X9026078Y-6731003D01*
X9005415Y-6715866D02*
X9016927Y-6724087D01*
X8991921Y-6706603D02*
X9005415Y-6715866D01*
X8976824Y-6696565D02*
X8991921Y-6706603D01*
X8960502Y-6686016D02*
X8976824Y-6696565D01*
X8943336Y-6675221D02*
X8960502Y-6686016D01*
X8943336Y-6675221D02*
X8943336Y-6675221D01*
X8858669Y-6622717D02*
X8943336Y-6675221D01*
X8858669Y-6622717D02*
X8858669Y-6622717D01*
X8852804Y-5152769D02*
X8858669Y-6622717D01*
X8852804Y-5152769D02*
X8852804Y-5152769D01*
X8849119Y-4363259D02*
X8852804Y-5152769D01*
X8847178Y-4098602D02*
X8849119Y-4363259D01*
X8844912Y-3903506D02*
X8847178Y-4098602D01*
X8842124Y-3765088D02*
X8844912Y-3903506D01*
X8840475Y-3713109D02*
X8842124Y-3765088D01*
X8838621Y-3670470D02*
X8840475Y-3713109D01*
X8836540Y-3635561D02*
X8838621Y-3670470D01*
X8834207Y-3606772D02*
X8836540Y-3635561D01*
X8831597Y-3582492D02*
X8834207Y-3606772D01*
X8828686Y-3561113D02*
X8831597Y-3582492D01*
X8828686Y-3561113D02*
X8828686Y-3561113D01*
X8817277Y-3490433D02*
X8828686Y-3561113D01*
X8804828Y-3423487D02*
X8817277Y-3490433D01*
X8791370Y-3360349D02*
X8804828Y-3423487D01*
X8776938Y-3301094D02*
X8791370Y-3360349D01*
X8761565Y-3245795D02*
X8776938Y-3301094D01*
X8753536Y-3219653D02*
X8761565Y-3245795D01*
X8745285Y-3194528D02*
X8753536Y-3219653D01*
X8736815Y-3170429D02*
X8745285Y-3194528D01*
X8728130Y-3147366D02*
X8736815Y-3170429D01*
X8719235Y-3125347D02*
X8728130Y-3147366D01*
X8710135Y-3104383D02*
X8719235Y-3125347D01*
X8700832Y-3084482D02*
X8710135Y-3104383D01*
X8691332Y-3065654D02*
X8700832Y-3084482D01*
X8681639Y-3047908D02*
X8691332Y-3065654D01*
X8671756Y-3031253D02*
X8681639Y-3047908D01*
X8661688Y-3015698D02*
X8671756Y-3031253D01*
X8651439Y-3001254D02*
X8661688Y-3015698D01*
X8641013Y-2987928D02*
X8651439Y-3001254D01*
X8630415Y-2975731D02*
X8641013Y-2987928D01*
X8619649Y-2964672D02*
X8630415Y-2975731D01*
X8608718Y-2954759D02*
X8619649Y-2964672D01*
X8597627Y-2946003D02*
X8608718Y-2954759D01*
X8586380Y-2938412D02*
X8597627Y-2946003D01*
X8574982Y-2931996D02*
X8586380Y-2938412D01*
X8563436Y-2926763D02*
X8574982Y-2931996D01*
X8551747Y-2922725D02*
X8563436Y-2926763D01*
X8539919Y-2919888D02*
X8551747Y-2922725D01*
X8539919Y-2919888D02*
X8539919Y-2919888D01*
X8524694Y-2917966D02*
X8539919Y-2919888D01*
X8509664Y-2917934D02*
X8524694Y-2917966D01*
X8494839Y-2919773D02*
X8509664Y-2917934D01*
X8480226Y-2923464D02*
X8494839Y-2919773D01*
X8465834Y-2928988D02*
X8480226Y-2923464D01*
X8451673Y-2936326D02*
X8465834Y-2928988D01*
X8424072Y-2956367D02*
X8451673Y-2936326D01*
X8397493Y-2983433D02*
X8424072Y-2956367D01*
X8372003Y-3017372D02*
X8397493Y-2983433D01*
X8347671Y-3058030D02*
X8372003Y-3017372D01*
X8324564Y-3105253D02*
X8347671Y-3058030D01*
X8302752Y-3158890D02*
X8324564Y-3105253D01*
X8282302Y-3218786D02*
X8302752Y-3158890D01*
X8263282Y-3284789D02*
X8282302Y-3218786D01*
X8245761Y-3356745D02*
X8263282Y-3284789D01*
X8229806Y-3434502D02*
X8245761Y-3356745D01*
X8215487Y-3517905D02*
X8229806Y-3434502D01*
X8202871Y-3606803D02*
X8215487Y-3517905D01*
X8192027Y-3701041D02*
X8202871Y-3606803D01*
X8192027Y-3701041D02*
X8192027Y-3701041D01*
X8187494Y-3785221D02*
X8192027Y-3701041D01*
X8183853Y-3930174D02*
X8187494Y-3785221D01*
X8178883Y-4342741D02*
X8183853Y-3930174D01*
X8175657Y-5240916D02*
X8178883Y-4342741D01*
X8175657Y-5240916D02*
X8175657Y-5240916D01*
X8175269Y-6624988D02*
X8175657Y-5240916D01*
X8175269Y-6624988D02*
X8175269Y-6624988D01*
X8088343Y-6678273D02*
X8175269Y-6624988D01*
X8088343Y-6678273D02*
X8088343Y-6678273D01*
X8001417Y-6731559D02*
X8088343Y-6678273D01*
X8001417Y-6731559D02*
X8001417Y-6731559D01*
X7998436Y-6815856D02*
X8001417Y-6731559D01*
X7998436Y-6815856D02*
X7998436Y-6815856D01*
X7995454Y-6900155D02*
X7998436Y-6815856D01*
X7995454Y-6900155D02*
X7995454Y-6900155D01*
X8085748Y-6989879D02*
X7995454Y-6900155D01*
X8085748Y-6989879D02*
X8085748Y-6989879D01*
X8176042Y-7079603D02*
X8085748Y-6989879D01*
X8176042Y-7079603D02*
X8176042Y-7079603D01*
X8176042Y-8245535D02*
X8176042Y-7079603D01*
X8176042Y-8245535D02*
X8176042Y-8245535D01*
X8176042Y-9411468D02*
X8176042Y-8245535D01*
X8176042Y-9411468D02*
X8176042Y-9411468D01*
X8043750Y-9773109D02*
X8176042Y-9411468D01*
X8043750Y-9773109D02*
X8043750Y-9773109D01*
X7911458Y-10134749D02*
X8043750Y-9773109D01*
X7911458Y-10134749D02*
X7911458Y-10134749D01*
X7911458Y-10285199D02*
X7911458Y-10134749D01*
X7911458Y-10285199D02*
X7911458Y-10285199D01*
X7911458Y-10435649D02*
X7911458Y-10285199D01*
X7911458Y-10435649D02*
X7911458Y-10435649D01*
X8012000Y-10708219D02*
X7911458Y-10435649D01*
X8012000Y-10708219D02*
X8012000Y-10708219D01*
X8112542Y-10980788D02*
X8012000Y-10708219D01*
X8112542Y-10980788D02*
X8112542Y-10980788D01*
X8112542Y-11245365D02*
X8112542Y-10980788D01*
X8112542Y-11245365D02*
X8112542Y-11245365D01*
X8112678Y-11321750D02*
X8112542Y-11245365D01*
X8113162Y-11382881D02*
X8112678Y-11321750D01*
X8113569Y-11408321D02*
X8113162Y-11382881D01*
X8114105Y-11430662D02*
X8113569Y-11408321D01*
X8114784Y-11450141D02*
X8114105Y-11430662D01*
X8115619Y-11466999D02*
X8114784Y-11450141D01*
X8116626Y-11481472D02*
X8115619Y-11466999D01*
X8117818Y-11493798D02*
X8116626Y-11481472D01*
X8119208Y-11504217D02*
X8117818Y-11493798D01*
X8120811Y-11512965D02*
X8119208Y-11504217D01*
X8121697Y-11516788D02*
X8120811Y-11512965D01*
X8122642Y-11520283D02*
X8121697Y-11516788D01*
X8123646Y-11523479D02*
X8122642Y-11520283D01*
X8124713Y-11526407D02*
X8123646Y-11523479D01*
X8125843Y-11529095D02*
X8124713Y-11526407D01*
X8127039Y-11531575D02*
X8125843Y-11529095D01*
X8128302Y-11533876D02*
X8127039Y-11531575D01*
X8129634Y-11536027D02*
X8128302Y-11533876D01*
D11*
X8153786Y-11860834D02*
X8153786Y-11660834D01*
X8153786Y-11660834D02*
X8201405Y-11660834D01*
X8201405Y-11660834D02*
X8229976Y-11670358D01*
X8229976Y-11670358D02*
X8249024Y-11689405D01*
X8249024Y-11689405D02*
X8258548Y-11708453D01*
X8258548Y-11708453D02*
X8268072Y-11746548D01*
X8268072Y-11746548D02*
X8268072Y-11775120D01*
X8268072Y-11775120D02*
X8258548Y-11813215D01*
X8258548Y-11813215D02*
X8249024Y-11832262D01*
X8249024Y-11832262D02*
X8229976Y-11851310D01*
X8229976Y-11851310D02*
X8201405Y-11860834D01*
X8201405Y-11860834D02*
X8153786Y-11860834D01*
X8353786Y-11860834D02*
X8353786Y-11727501D01*
X8353786Y-11765596D02*
X8363310Y-11746548D01*
X8363310Y-11746548D02*
X8372833Y-11737024D01*
X8372833Y-11737024D02*
X8391881Y-11727501D01*
X8391881Y-11727501D02*
X8410929Y-11727501D01*
X8477595Y-11860834D02*
X8477595Y-11727501D01*
X8477595Y-11660834D02*
X8468072Y-11670358D01*
X8468072Y-11670358D02*
X8477595Y-11679882D01*
X8477595Y-11679882D02*
X8487119Y-11670358D01*
X8487119Y-11670358D02*
X8477595Y-11660834D01*
X8477595Y-11660834D02*
X8477595Y-11679882D01*
X8601405Y-11860834D02*
X8582357Y-11851310D01*
X8582357Y-11851310D02*
X8572834Y-11832262D01*
X8572834Y-11832262D02*
X8572834Y-11660834D01*
X8706167Y-11860834D02*
X8687119Y-11851310D01*
X8687119Y-11851310D02*
X8677595Y-11832262D01*
X8677595Y-11832262D02*
X8677595Y-11660834D01*
X8902357Y-11860834D02*
X8902357Y-11660834D01*
X8902357Y-11660834D02*
X8969024Y-11803691D01*
X8969024Y-11803691D02*
X9035691Y-11660834D01*
X9035691Y-11660834D02*
X9035691Y-11860834D01*
X9216643Y-11860834D02*
X9216643Y-11756072D01*
X9216643Y-11756072D02*
X9207119Y-11737024D01*
X9207119Y-11737024D02*
X9188072Y-11727501D01*
X9188072Y-11727501D02*
X9149976Y-11727501D01*
X9149976Y-11727501D02*
X9130929Y-11737024D01*
X9216643Y-11851310D02*
X9197595Y-11860834D01*
X9197595Y-11860834D02*
X9149976Y-11860834D01*
X9149976Y-11860834D02*
X9130929Y-11851310D01*
X9130929Y-11851310D02*
X9121405Y-11832262D01*
X9121405Y-11832262D02*
X9121405Y-11813215D01*
X9121405Y-11813215D02*
X9130929Y-11794167D01*
X9130929Y-11794167D02*
X9149976Y-11784643D01*
X9149976Y-11784643D02*
X9197595Y-11784643D01*
X9197595Y-11784643D02*
X9216643Y-11775120D01*
X9311881Y-11727501D02*
X9311881Y-11927501D01*
X9311881Y-11737024D02*
X9330929Y-11727501D01*
X9330929Y-11727501D02*
X9369024Y-11727501D01*
X9369024Y-11727501D02*
X9388072Y-11737024D01*
X9388072Y-11737024D02*
X9397595Y-11746548D01*
X9397595Y-11746548D02*
X9407119Y-11765596D01*
X9407119Y-11765596D02*
X9407119Y-11822739D01*
X9407119Y-11822739D02*
X9397595Y-11841786D01*
X9397595Y-11841786D02*
X9388072Y-11851310D01*
X9388072Y-11851310D02*
X9369024Y-11860834D01*
X9369024Y-11860834D02*
X9330929Y-11860834D01*
X9330929Y-11860834D02*
X9311881Y-11851310D01*
X9492834Y-11841786D02*
X9502357Y-11851310D01*
X9502357Y-11851310D02*
X9492834Y-11860834D01*
X9492834Y-11860834D02*
X9483310Y-11851310D01*
X9483310Y-11851310D02*
X9492834Y-11841786D01*
X9492834Y-11841786D02*
X9492834Y-11860834D01*
X9492834Y-11737024D02*
X9502357Y-11746548D01*
X9502357Y-11746548D02*
X9492834Y-11756072D01*
X9492834Y-11756072D02*
X9483310Y-11746548D01*
X9483310Y-11746548D02*
X9492834Y-11737024D01*
X9492834Y-11737024D02*
X9492834Y-11756072D01*
M02*
