G04 #@! TF.GenerationSoftware,KiCad,Pcbnew,(6.99.0-2452-gdb4f2d9dd8)*
G04 #@! TF.CreationDate,2022-08-02T18:08:52-05:00*
G04 #@! TF.ProjectId,Blue Origin,426c7565-204f-4726-9967-696e2e6b6963,rev?*
G04 #@! TF.SameCoordinates,Original*
G04 #@! TF.FileFunction,Copper,L2,Bot*
G04 #@! TF.FilePolarity,Positive*
%FSLAX46Y46*%
G04 Gerber Fmt 4.6, Leading zero omitted, Abs format (unit mm)*
G04 Created by KiCad (PCBNEW (6.99.0-2452-gdb4f2d9dd8)) date 2022-08-02 18:08:52*
%MOMM*%
%LPD*%
G01*
G04 APERTURE LIST*
G04 Aperture macros list*
%AMRoundRect*
0 Rectangle with rounded corners*
0 $1 Rounding radius*
0 $2 $3 $4 $5 $6 $7 $8 $9 X,Y pos of 4 corners*
0 Add a 4 corners polygon primitive as box body*
4,1,4,$2,$3,$4,$5,$6,$7,$8,$9,$2,$3,0*
0 Add four circle primitives for the rounded corners*
1,1,$1+$1,$2,$3*
1,1,$1+$1,$4,$5*
1,1,$1+$1,$6,$7*
1,1,$1+$1,$8,$9*
0 Add four rect primitives between the rounded corners*
20,1,$1+$1,$2,$3,$4,$5,0*
20,1,$1+$1,$4,$5,$6,$7,0*
20,1,$1+$1,$6,$7,$8,$9,0*
20,1,$1+$1,$8,$9,$2,$3,0*%
G04 Aperture macros list end*
%ADD10C,0.300000*%
G04 #@! TA.AperFunction,NonConductor*
%ADD11C,0.300000*%
G04 #@! TD*
G04 #@! TA.AperFunction,ComponentPad*
%ADD12R,1.800000X1.800000*%
G04 #@! TD*
G04 #@! TA.AperFunction,ComponentPad*
%ADD13C,1.800000*%
G04 #@! TD*
G04 #@! TA.AperFunction,ComponentPad*
%ADD14R,1.700000X1.700000*%
G04 #@! TD*
G04 #@! TA.AperFunction,ComponentPad*
%ADD15O,1.700000X1.700000*%
G04 #@! TD*
G04 #@! TA.AperFunction,SMDPad,CuDef*
%ADD16RoundRect,0.250000X0.400000X0.625000X-0.400000X0.625000X-0.400000X-0.625000X0.400000X-0.625000X0*%
G04 #@! TD*
G04 #@! TA.AperFunction,Conductor*
%ADD17C,0.250000*%
G04 #@! TD*
G04 APERTURE END LIST*
D10*
D11*
X83829285Y-38285714D02*
X83757857Y-38214285D01*
X83757857Y-38214285D02*
X83686428Y-38071428D01*
X83686428Y-38071428D02*
X83686428Y-37928571D01*
X83686428Y-37928571D02*
X83757857Y-37785714D01*
X83757857Y-37785714D02*
X83829285Y-37714285D01*
X83829285Y-37714285D02*
X83972142Y-37642857D01*
X83972142Y-37642857D02*
X84115000Y-37642857D01*
X84115000Y-37642857D02*
X84257857Y-37714285D01*
X84257857Y-37714285D02*
X84329285Y-37785714D01*
X84329285Y-37785714D02*
X84400714Y-37928571D01*
X84400714Y-37928571D02*
X84400714Y-38071428D01*
X84400714Y-38071428D02*
X84329285Y-38214285D01*
X84329285Y-38214285D02*
X84257857Y-38285714D01*
X83686428Y-38285714D02*
X84257857Y-38285714D01*
X84257857Y-38285714D02*
X84329285Y-38357142D01*
X84329285Y-38357142D02*
X84329285Y-38428571D01*
X84329285Y-38428571D02*
X84257857Y-38571428D01*
X84257857Y-38571428D02*
X84115000Y-38642857D01*
X84115000Y-38642857D02*
X83757857Y-38642857D01*
X83757857Y-38642857D02*
X83543571Y-38500000D01*
X83543571Y-38500000D02*
X83400714Y-38285714D01*
X83400714Y-38285714D02*
X83329285Y-38000000D01*
X83329285Y-38000000D02*
X83400714Y-37714285D01*
X83400714Y-37714285D02*
X83543571Y-37500000D01*
X83543571Y-37500000D02*
X83757857Y-37357142D01*
X83757857Y-37357142D02*
X84043571Y-37285714D01*
X84043571Y-37285714D02*
X84329285Y-37357142D01*
X84329285Y-37357142D02*
X84543571Y-37500000D01*
X84543571Y-37500000D02*
X84686428Y-37714285D01*
X84686428Y-37714285D02*
X84757857Y-38000000D01*
X84757857Y-38000000D02*
X84686428Y-38285714D01*
X84686428Y-38285714D02*
X84543571Y-38500000D01*
X84543571Y-39928571D02*
X83757857Y-39928571D01*
X83757857Y-39928571D02*
X83615000Y-39857142D01*
X83615000Y-39857142D02*
X83543571Y-39714285D01*
X83543571Y-39714285D02*
X83543571Y-39428571D01*
X83543571Y-39428571D02*
X83615000Y-39285713D01*
X84472142Y-39928571D02*
X84543571Y-39785713D01*
X84543571Y-39785713D02*
X84543571Y-39428571D01*
X84543571Y-39428571D02*
X84472142Y-39285713D01*
X84472142Y-39285713D02*
X84329285Y-39214285D01*
X84329285Y-39214285D02*
X84186428Y-39214285D01*
X84186428Y-39214285D02*
X84043571Y-39285713D01*
X84043571Y-39285713D02*
X83972142Y-39428571D01*
X83972142Y-39428571D02*
X83972142Y-39785713D01*
X83972142Y-39785713D02*
X83900714Y-39928571D01*
X83543571Y-40499999D02*
X84543571Y-40857142D01*
X84543571Y-40857142D02*
X83543571Y-41214285D01*
X84686428Y-41428571D02*
X84686428Y-42571428D01*
X83543571Y-42928570D02*
X85043571Y-42928570D01*
X83615000Y-42928570D02*
X83543571Y-43071428D01*
X83543571Y-43071428D02*
X83543571Y-43357142D01*
X83543571Y-43357142D02*
X83615000Y-43499999D01*
X83615000Y-43499999D02*
X83686428Y-43571428D01*
X83686428Y-43571428D02*
X83829285Y-43642856D01*
X83829285Y-43642856D02*
X84257857Y-43642856D01*
X84257857Y-43642856D02*
X84400714Y-43571428D01*
X84400714Y-43571428D02*
X84472142Y-43499999D01*
X84472142Y-43499999D02*
X84543571Y-43357142D01*
X84543571Y-43357142D02*
X84543571Y-43071428D01*
X84543571Y-43071428D02*
X84472142Y-42928570D01*
X83543571Y-44928571D02*
X84543571Y-44928571D01*
X83543571Y-44285713D02*
X84329285Y-44285713D01*
X84329285Y-44285713D02*
X84472142Y-44357142D01*
X84472142Y-44357142D02*
X84543571Y-44499999D01*
X84543571Y-44499999D02*
X84543571Y-44714285D01*
X84543571Y-44714285D02*
X84472142Y-44857142D01*
X84472142Y-44857142D02*
X84400714Y-44928571D01*
X84543571Y-45642856D02*
X83043571Y-45642856D01*
X83615000Y-45642856D02*
X83543571Y-45785714D01*
X83543571Y-45785714D02*
X83543571Y-46071428D01*
X83543571Y-46071428D02*
X83615000Y-46214285D01*
X83615000Y-46214285D02*
X83686428Y-46285714D01*
X83686428Y-46285714D02*
X83829285Y-46357142D01*
X83829285Y-46357142D02*
X84257857Y-46357142D01*
X84257857Y-46357142D02*
X84400714Y-46285714D01*
X84400714Y-46285714D02*
X84472142Y-46214285D01*
X84472142Y-46214285D02*
X84543571Y-46071428D01*
X84543571Y-46071428D02*
X84543571Y-45785714D01*
X84543571Y-45785714D02*
X84472142Y-45642856D01*
X84472142Y-46928571D02*
X84543571Y-47071428D01*
X84543571Y-47071428D02*
X84543571Y-47357142D01*
X84543571Y-47357142D02*
X84472142Y-47499999D01*
X84472142Y-47499999D02*
X84329285Y-47571428D01*
X84329285Y-47571428D02*
X84257857Y-47571428D01*
X84257857Y-47571428D02*
X84115000Y-47499999D01*
X84115000Y-47499999D02*
X84043571Y-47357142D01*
X84043571Y-47357142D02*
X84043571Y-47142857D01*
X84043571Y-47142857D02*
X83972142Y-46999999D01*
X83972142Y-46999999D02*
X83829285Y-46928571D01*
X83829285Y-46928571D02*
X83757857Y-46928571D01*
X83757857Y-46928571D02*
X83615000Y-46999999D01*
X83615000Y-46999999D02*
X83543571Y-47142857D01*
X83543571Y-47142857D02*
X83543571Y-47357142D01*
X83543571Y-47357142D02*
X83615000Y-47499999D01*
X85973571Y-37214285D02*
X86973571Y-37571428D01*
X86973571Y-37571428D02*
X85973571Y-37928571D01*
X85473571Y-38357142D02*
X85473571Y-39285714D01*
X85473571Y-39285714D02*
X86045000Y-38785714D01*
X86045000Y-38785714D02*
X86045000Y-38999999D01*
X86045000Y-38999999D02*
X86116428Y-39142857D01*
X86116428Y-39142857D02*
X86187857Y-39214285D01*
X86187857Y-39214285D02*
X86330714Y-39285714D01*
X86330714Y-39285714D02*
X86687857Y-39285714D01*
X86687857Y-39285714D02*
X86830714Y-39214285D01*
X86830714Y-39214285D02*
X86902142Y-39142857D01*
X86902142Y-39142857D02*
X86973571Y-38999999D01*
X86973571Y-38999999D02*
X86973571Y-38571428D01*
X86973571Y-38571428D02*
X86902142Y-38428571D01*
X86902142Y-38428571D02*
X86830714Y-38357142D01*
D12*
X85099999Y-113469999D03*
D13*
X85100000Y-110930000D03*
D14*
X82719999Y-101999999D03*
D15*
X82719999Y-104539999D03*
X85259999Y-101999999D03*
X85259999Y-104539999D03*
X87799999Y-101999999D03*
X87799999Y-104539999D03*
D16*
X86850000Y-96800000D03*
X83750000Y-96800000D03*
D17*
X85100000Y-113470000D02*
X82720000Y-111090000D01*
X82720000Y-111090000D02*
X82720000Y-104540000D01*
X86850000Y-96800000D02*
X88975000Y-98925000D01*
X88975000Y-98925000D02*
X88975000Y-107055000D01*
X88975000Y-107055000D02*
X85100000Y-110930000D01*
X82720000Y-102000000D02*
X82720000Y-97830000D01*
X82720000Y-97830000D02*
X83750000Y-96800000D01*
G04 #@! TA.AperFunction,NonConductor*
G36*
X85127187Y-29179904D02*
G01*
X85239124Y-29180143D01*
X85254627Y-29181136D01*
X85392225Y-29198509D01*
X85405817Y-29200989D01*
X85505727Y-29224945D01*
X85511361Y-29226296D01*
X85523129Y-29229731D01*
X85628656Y-29266192D01*
X85639498Y-29270512D01*
X85744583Y-29318131D01*
X85754358Y-29323084D01*
X85859099Y-29382042D01*
X85867772Y-29387399D01*
X85972093Y-29457810D01*
X85979656Y-29463336D01*
X86021855Y-29496653D01*
X86083477Y-29545306D01*
X86090040Y-29550861D01*
X86193233Y-29644441D01*
X86198874Y-29649886D01*
X86301303Y-29755101D01*
X86306132Y-29760351D01*
X86407629Y-29877163D01*
X86411749Y-29882158D01*
X86512197Y-30010546D01*
X86515677Y-30015216D01*
X86614912Y-30155079D01*
X86617914Y-30159507D01*
X86715791Y-30310720D01*
X86718375Y-30314887D01*
X86814820Y-30477420D01*
X86817039Y-30481317D01*
X86911882Y-30654947D01*
X86913795Y-30658589D01*
X87007023Y-30843355D01*
X87008677Y-30846759D01*
X87100151Y-31042451D01*
X87101585Y-31045633D01*
X87191246Y-31252175D01*
X87192495Y-31255155D01*
X87280281Y-31472469D01*
X87281370Y-31475261D01*
X87367185Y-31703157D01*
X87368114Y-31705709D01*
X87451960Y-31944265D01*
X87452777Y-31946670D01*
X87534506Y-32195526D01*
X87535244Y-32197848D01*
X87614696Y-32456545D01*
X87615617Y-32459696D01*
X87723574Y-32848027D01*
X87768355Y-33009108D01*
X87769380Y-33013040D01*
X87912773Y-33601790D01*
X87913584Y-33605339D01*
X88047442Y-34233345D01*
X88048086Y-34236575D01*
X88172005Y-34902929D01*
X88172519Y-34905888D01*
X88286114Y-35609651D01*
X88286330Y-35611100D01*
X88286318Y-35611128D01*
X88286343Y-35611188D01*
X88286572Y-35612730D01*
X88315229Y-35823199D01*
X88315659Y-35826731D01*
X88332367Y-35982164D01*
X88319760Y-36052033D01*
X88271381Y-36103994D01*
X88202590Y-36121551D01*
X88183500Y-36119153D01*
X88183500Y-36116500D01*
X82167482Y-36116500D01*
X82099361Y-36096498D01*
X82052868Y-36042842D01*
X82042732Y-35972796D01*
X82063725Y-35824874D01*
X82155109Y-35180938D01*
X82155676Y-35177321D01*
X82298212Y-34347114D01*
X82298966Y-34343110D01*
X82457637Y-33569792D01*
X82458643Y-33565307D01*
X82632680Y-32850570D01*
X82634030Y-32845491D01*
X82745771Y-32457725D01*
X82822655Y-32190924D01*
X82824482Y-32185115D01*
X82906736Y-31944205D01*
X82988141Y-31705779D01*
X83026815Y-31592507D01*
X83029338Y-31585753D01*
X83244467Y-31056753D01*
X83248007Y-31048842D01*
X83474812Y-30585307D01*
X83479873Y-30575979D01*
X83717050Y-30179671D01*
X83724419Y-30168707D01*
X83970305Y-29841324D01*
X83981152Y-29828710D01*
X84233686Y-29571549D01*
X84249555Y-29557875D01*
X84509330Y-29369251D01*
X84525389Y-29359337D01*
X84652311Y-29293573D01*
X84665106Y-29287824D01*
X84752203Y-29254391D01*
X84795398Y-29237811D01*
X84809692Y-29233280D01*
X84823742Y-29229731D01*
X84940905Y-29200136D01*
X84956242Y-29197259D01*
X85051171Y-29185483D01*
X85088810Y-29180814D01*
X85104590Y-29179856D01*
X85127187Y-29179904D01*
G37*
G04 #@! TD.AperFunction*
G04 #@! TA.AperFunction,NonConductor*
G36*
X86613226Y-102675670D02*
G01*
X86635483Y-102701357D01*
X86724278Y-102837268D01*
X86727803Y-102841097D01*
X86727806Y-102841101D01*
X86792511Y-102911388D01*
X86876760Y-103002906D01*
X87054424Y-103141189D01*
X87059005Y-103143668D01*
X87087680Y-103159186D01*
X87138071Y-103209199D01*
X87153423Y-103278516D01*
X87128863Y-103345129D01*
X87087681Y-103380813D01*
X87054424Y-103398811D01*
X87050313Y-103402010D01*
X87050311Y-103402012D01*
X86895861Y-103522227D01*
X86876760Y-103537094D01*
X86873228Y-103540931D01*
X86727806Y-103698899D01*
X86727803Y-103698903D01*
X86724278Y-103702732D01*
X86721427Y-103707096D01*
X86635483Y-103838643D01*
X86581479Y-103884732D01*
X86511132Y-103894307D01*
X86446774Y-103864330D01*
X86424517Y-103838643D01*
X86338573Y-103707096D01*
X86335722Y-103702732D01*
X86332197Y-103698903D01*
X86332194Y-103698899D01*
X86186772Y-103540931D01*
X86183240Y-103537094D01*
X86164139Y-103522227D01*
X86009689Y-103402012D01*
X86009687Y-103402010D01*
X86005576Y-103398811D01*
X85972320Y-103380814D01*
X85921929Y-103330801D01*
X85906577Y-103261484D01*
X85931137Y-103194871D01*
X85972320Y-103159186D01*
X86000995Y-103143668D01*
X86005576Y-103141189D01*
X86183240Y-103002906D01*
X86267489Y-102911388D01*
X86332194Y-102841101D01*
X86332197Y-102841097D01*
X86335722Y-102837268D01*
X86424517Y-102701357D01*
X86478521Y-102655268D01*
X86548868Y-102645693D01*
X86613226Y-102675670D01*
G37*
G04 #@! TD.AperFunction*
G04 #@! TA.AperFunction,NonConductor*
G36*
X84243439Y-102911388D02*
G01*
X84275755Y-102936638D01*
X84296526Y-102959201D01*
X84336760Y-103002906D01*
X84514424Y-103141189D01*
X84519005Y-103143668D01*
X84547680Y-103159186D01*
X84598071Y-103209199D01*
X84613423Y-103278516D01*
X84588863Y-103345129D01*
X84547681Y-103380813D01*
X84514424Y-103398811D01*
X84510313Y-103402010D01*
X84510311Y-103402012D01*
X84355861Y-103522227D01*
X84336760Y-103537094D01*
X84333228Y-103540931D01*
X84187806Y-103698899D01*
X84187803Y-103698903D01*
X84184278Y-103702732D01*
X84181427Y-103707096D01*
X84095483Y-103838643D01*
X84041479Y-103884732D01*
X83971132Y-103894307D01*
X83906774Y-103864330D01*
X83884517Y-103838643D01*
X83798573Y-103707096D01*
X83795722Y-103702732D01*
X83792197Y-103698903D01*
X83792194Y-103698899D01*
X83652525Y-103547180D01*
X83621104Y-103483515D01*
X83629091Y-103412969D01*
X83673949Y-103357940D01*
X83701191Y-103343787D01*
X83816204Y-103300889D01*
X83828536Y-103291658D01*
X83926050Y-103218659D01*
X83933261Y-103213261D01*
X84020889Y-103096204D01*
X84064998Y-102977944D01*
X84107545Y-102921108D01*
X84174065Y-102896297D01*
X84243439Y-102911388D01*
G37*
G04 #@! TD.AperFunction*
G04 #@! TA.AperFunction,NonConductor*
G36*
X86613226Y-105215670D02*
G01*
X86635483Y-105241357D01*
X86724278Y-105377268D01*
X86727803Y-105381097D01*
X86727806Y-105381101D01*
X86829360Y-105491417D01*
X86876760Y-105542906D01*
X87054424Y-105681189D01*
X87059005Y-105683668D01*
X87192885Y-105756120D01*
X87252426Y-105788342D01*
X87465365Y-105861444D01*
X87470499Y-105862301D01*
X87470504Y-105862302D01*
X87682294Y-105897643D01*
X87682296Y-105897643D01*
X87687431Y-105898500D01*
X87912569Y-105898500D01*
X87917704Y-105897643D01*
X87917706Y-105897643D01*
X88129496Y-105862302D01*
X88129501Y-105862301D01*
X88134635Y-105861444D01*
X88174588Y-105847728D01*
X88245512Y-105844527D01*
X88306908Y-105880180D01*
X88339282Y-105943365D01*
X88341500Y-105966901D01*
X88341500Y-106740406D01*
X88321498Y-106808527D01*
X88304595Y-106829501D01*
X85597277Y-109536818D01*
X85534965Y-109570844D01*
X85467269Y-109566895D01*
X85446951Y-109559920D01*
X85441817Y-109559063D01*
X85441812Y-109559062D01*
X85221849Y-109522357D01*
X85221846Y-109522357D01*
X85216712Y-109521500D01*
X84983288Y-109521500D01*
X84978154Y-109522357D01*
X84978151Y-109522357D01*
X84758188Y-109559062D01*
X84758183Y-109559063D01*
X84753049Y-109559920D01*
X84532273Y-109635713D01*
X84326983Y-109746810D01*
X84322872Y-109750009D01*
X84322870Y-109750011D01*
X84146898Y-109886976D01*
X84146892Y-109886981D01*
X84142780Y-109890182D01*
X84109595Y-109926230D01*
X83988214Y-110058084D01*
X83988211Y-110058088D01*
X83984686Y-110061917D01*
X83857016Y-110257331D01*
X83854921Y-110262107D01*
X83779136Y-110434880D01*
X83763251Y-110471093D01*
X83761973Y-110476141D01*
X83761971Y-110476146D01*
X83707230Y-110692315D01*
X83705949Y-110697374D01*
X83705519Y-110702565D01*
X83705518Y-110702570D01*
X83691462Y-110872202D01*
X83665902Y-110938439D01*
X83608591Y-110980342D01*
X83537722Y-110984608D01*
X83476797Y-110950892D01*
X83390405Y-110864500D01*
X83356379Y-110802188D01*
X83353500Y-110775405D01*
X83353500Y-105816921D01*
X83373502Y-105748800D01*
X83419531Y-105706107D01*
X83460995Y-105683668D01*
X83465576Y-105681189D01*
X83643240Y-105542906D01*
X83690640Y-105491417D01*
X83792194Y-105381101D01*
X83792197Y-105381097D01*
X83795722Y-105377268D01*
X83884517Y-105241357D01*
X83938521Y-105195268D01*
X84008868Y-105185693D01*
X84073226Y-105215670D01*
X84095483Y-105241357D01*
X84184278Y-105377268D01*
X84187803Y-105381097D01*
X84187806Y-105381101D01*
X84289360Y-105491417D01*
X84336760Y-105542906D01*
X84514424Y-105681189D01*
X84519005Y-105683668D01*
X84652885Y-105756120D01*
X84712426Y-105788342D01*
X84925365Y-105861444D01*
X84930499Y-105862301D01*
X84930504Y-105862302D01*
X85142294Y-105897643D01*
X85142296Y-105897643D01*
X85147431Y-105898500D01*
X85372569Y-105898500D01*
X85377704Y-105897643D01*
X85377706Y-105897643D01*
X85589496Y-105862302D01*
X85589501Y-105862301D01*
X85594635Y-105861444D01*
X85807574Y-105788342D01*
X85867116Y-105756120D01*
X86000995Y-105683668D01*
X86005576Y-105681189D01*
X86183240Y-105542906D01*
X86230640Y-105491417D01*
X86332194Y-105381101D01*
X86332197Y-105381097D01*
X86335722Y-105377268D01*
X86424517Y-105241357D01*
X86478521Y-105195268D01*
X86548868Y-105185693D01*
X86613226Y-105215670D01*
G37*
G04 #@! TD.AperFunction*
G04 #@! TA.AperFunction,NonConductor*
G36*
X88392012Y-38289726D02*
G01*
X88430396Y-38349452D01*
X88435474Y-38382413D01*
X88448605Y-39034557D01*
X88448622Y-39035630D01*
X88451715Y-39301829D01*
X88471279Y-40985930D01*
X88489183Y-43427307D01*
X88490685Y-43632154D01*
X88490687Y-43632490D01*
X88527538Y-51527593D01*
X88522775Y-51527615D01*
X88522764Y-51527812D01*
X88527540Y-51527793D01*
X88586187Y-66227072D01*
X88586147Y-66227169D01*
X88586172Y-66227229D01*
X88586161Y-66227293D01*
X88586248Y-66227414D01*
X88586305Y-66227552D01*
X88586307Y-66227554D01*
X88586460Y-66227616D01*
X88595853Y-66233441D01*
X88595854Y-66233442D01*
X89183809Y-66598048D01*
X89431864Y-66751873D01*
X89432678Y-66752378D01*
X89432956Y-66752551D01*
X89432973Y-66752594D01*
X89433121Y-66752655D01*
X89433290Y-66752761D01*
X89604159Y-66860206D01*
X89605393Y-66860993D01*
X89766585Y-66965175D01*
X89767243Y-66965600D01*
X89768612Y-66966498D01*
X89918141Y-67065921D01*
X89919682Y-67066962D01*
X90052888Y-67158395D01*
X90054813Y-67159742D01*
X90167600Y-67240294D01*
X90170342Y-67242309D01*
X90258060Y-67308605D01*
X90262776Y-67312350D01*
X90281614Y-67328058D01*
X90320856Y-67360780D01*
X90327968Y-67367183D01*
X90337980Y-67376911D01*
X90369160Y-67425824D01*
X90371387Y-67432216D01*
X90374169Y-67441286D01*
X90379619Y-67461778D01*
X90381068Y-67467823D01*
X90387139Y-67496235D01*
X90387985Y-67500566D01*
X90394169Y-67535516D01*
X90394716Y-67538873D01*
X90400754Y-67579336D01*
X90401128Y-67582039D01*
X90406896Y-67627404D01*
X90407162Y-67629663D01*
X90412508Y-67678780D01*
X90412787Y-67681641D01*
X90422286Y-67792336D01*
X90422521Y-67795567D01*
X90429801Y-67916964D01*
X90429942Y-67919882D01*
X90434687Y-68049079D01*
X90434759Y-68051916D01*
X90436254Y-68158565D01*
X90436642Y-68186288D01*
X90436647Y-68186895D01*
X90436611Y-68186983D01*
X90436648Y-68187075D01*
X90436654Y-68187751D01*
X90438129Y-68803301D01*
X90418290Y-68871470D01*
X90403361Y-68890508D01*
X89485964Y-69853504D01*
X89485869Y-69853543D01*
X89485825Y-69853650D01*
X88533464Y-70853346D01*
X88533369Y-70853385D01*
X88533325Y-70853492D01*
X88533322Y-70853495D01*
X88533296Y-70853561D01*
X88533211Y-70853768D01*
X88533214Y-70853774D01*
X88533211Y-70853781D01*
X88533252Y-70853873D01*
X88533252Y-82414435D01*
X88533211Y-82414534D01*
X88533252Y-82414633D01*
X88533252Y-93975202D01*
X88533211Y-93975301D01*
X88533252Y-93975400D01*
X88533283Y-93975476D01*
X88536199Y-93983488D01*
X91277316Y-101514557D01*
X91284915Y-101557652D01*
X91284915Y-102858374D01*
X91284874Y-102858473D01*
X91284915Y-102858572D01*
X91284915Y-104159039D01*
X91277145Y-104202603D01*
X90226650Y-107053598D01*
X90223124Y-107052299D01*
X90223062Y-107052591D01*
X90226547Y-107053875D01*
X89168292Y-109925938D01*
X89168212Y-109926131D01*
X89168253Y-109926230D01*
X89168253Y-112614455D01*
X89168252Y-112614780D01*
X89168212Y-112614876D01*
X89168251Y-112614970D01*
X89168250Y-112615382D01*
X89159932Y-113746404D01*
X89159905Y-113748220D01*
X89158152Y-113828716D01*
X89152613Y-114083120D01*
X89150178Y-114194933D01*
X89150134Y-114196515D01*
X89139522Y-114501337D01*
X89137268Y-114566086D01*
X89137167Y-114568375D01*
X89121653Y-114860900D01*
X89121413Y-114864465D01*
X89103860Y-115079785D01*
X89103137Y-115086456D01*
X89097262Y-115129841D01*
X89087397Y-115202685D01*
X89084495Y-115224110D01*
X89082467Y-115235277D01*
X89075292Y-115266668D01*
X89069929Y-115284166D01*
X89065898Y-115294556D01*
X89057746Y-115311639D01*
X89022142Y-115373756D01*
X89014209Y-115387473D01*
X89000074Y-115407231D01*
X88956787Y-115456830D01*
X88955371Y-115455594D01*
X88955254Y-115455768D01*
X88956653Y-115456983D01*
X88946648Y-115468503D01*
X88946645Y-115468507D01*
X88944020Y-115471530D01*
X88933258Y-115483002D01*
X88929058Y-115487269D01*
X88920601Y-115495463D01*
X88915423Y-115500208D01*
X88907408Y-115507151D01*
X88901285Y-115512128D01*
X88893356Y-115518171D01*
X88886518Y-115523032D01*
X88878301Y-115528470D01*
X88870966Y-115532971D01*
X88861901Y-115538117D01*
X88854405Y-115542046D01*
X88844025Y-115547049D01*
X88836694Y-115550299D01*
X88824441Y-115555271D01*
X88817513Y-115557848D01*
X88802992Y-115562770D01*
X88796680Y-115564727D01*
X88779586Y-115569538D01*
X88773960Y-115570982D01*
X88753942Y-115575632D01*
X88749033Y-115576670D01*
X88730084Y-115580283D01*
X88725914Y-115581078D01*
X88721736Y-115581802D01*
X88695341Y-115585907D01*
X88691771Y-115586409D01*
X88662088Y-115590155D01*
X88659067Y-115590500D01*
X88625830Y-115593882D01*
X88623306Y-115594113D01*
X88596422Y-115596303D01*
X88586432Y-115597117D01*
X88584333Y-115597270D01*
X88543566Y-115599903D01*
X88541913Y-115599998D01*
X88497276Y-115602263D01*
X88495994Y-115602321D01*
X88472814Y-115603234D01*
X88447425Y-115604233D01*
X88445772Y-115604288D01*
X88401459Y-115605450D01*
X88335062Y-115607191D01*
X88333683Y-115607219D01*
X88204779Y-115609031D01*
X88203950Y-115609039D01*
X88138075Y-115609469D01*
X88055702Y-115610005D01*
X88055159Y-115610008D01*
X87890282Y-115610371D01*
X87885002Y-115610383D01*
X87515532Y-115610373D01*
X87475547Y-115610372D01*
X87475517Y-115610372D01*
X84358290Y-115609566D01*
X84358289Y-115609566D01*
X84358287Y-115609565D01*
X84358143Y-115609566D01*
X84358067Y-115609566D01*
X84046599Y-115611728D01*
X83166584Y-115617834D01*
X83166419Y-115617835D01*
X82658418Y-115618990D01*
X82143643Y-115620160D01*
X82142310Y-115620156D01*
X81977744Y-115618789D01*
X81941495Y-115618488D01*
X81938896Y-115618439D01*
X81882294Y-115616791D01*
X81855977Y-115616025D01*
X81853152Y-115615911D01*
X81780404Y-115612158D01*
X81776445Y-115611891D01*
X81713524Y-115606654D01*
X81708157Y-115606091D01*
X81677559Y-115602215D01*
X81654581Y-115599305D01*
X81647502Y-115598204D01*
X81602625Y-115589902D01*
X81593664Y-115587903D01*
X81556812Y-115578258D01*
X81546003Y-115574904D01*
X81516026Y-115564103D01*
X81503884Y-115558996D01*
X81479168Y-115547044D01*
X81466718Y-115540129D01*
X81445265Y-115526571D01*
X81433740Y-115518344D01*
X81413590Y-115502174D01*
X81403977Y-115493614D01*
X81383622Y-115473534D01*
X81376308Y-115465677D01*
X81354779Y-115440476D01*
X81349661Y-115434075D01*
X81326432Y-115403001D01*
X81323113Y-115398344D01*
X81296785Y-115359573D01*
X81297620Y-115359006D01*
X81293786Y-115355196D01*
X81285199Y-115341328D01*
X81281872Y-115335628D01*
X81272422Y-115318413D01*
X81269386Y-115312518D01*
X81260307Y-115293694D01*
X81257639Y-115287779D01*
X81256121Y-115284166D01*
X81248773Y-115266685D01*
X81246542Y-115260994D01*
X81237897Y-115237264D01*
X81236091Y-115231937D01*
X81227668Y-115205141D01*
X81226231Y-115200225D01*
X81218037Y-115169900D01*
X81216951Y-115165569D01*
X81209263Y-115132393D01*
X81208081Y-115126692D01*
X81193128Y-115045102D01*
X81192171Y-115039056D01*
X81178972Y-114940155D01*
X81178456Y-114935672D01*
X81166922Y-114816344D01*
X81166645Y-114813005D01*
X81156779Y-114671168D01*
X81156630Y-114668664D01*
X81148387Y-114502401D01*
X81148308Y-114500550D01*
X81141573Y-114307270D01*
X81141533Y-114305904D01*
X81136204Y-114083786D01*
X81136184Y-114082780D01*
X81132128Y-113829359D01*
X81132116Y-113828340D01*
X81127285Y-113217933D01*
X81127281Y-113217161D01*
X81126911Y-113009594D01*
X81125918Y-112453745D01*
X81125959Y-112453646D01*
X81125918Y-112453546D01*
X81125918Y-109807980D01*
X81125959Y-109807881D01*
X81125879Y-109807687D01*
X80120539Y-107082196D01*
X80121873Y-107081704D01*
X80121719Y-107081446D01*
X80120436Y-107081919D01*
X80117496Y-107073949D01*
X80117496Y-107073947D01*
X79182809Y-104540000D01*
X81356844Y-104540000D01*
X81375436Y-104764368D01*
X81430704Y-104982616D01*
X81521140Y-105188791D01*
X81523990Y-105193153D01*
X81523992Y-105193157D01*
X81538701Y-105215670D01*
X81644278Y-105377268D01*
X81647803Y-105381097D01*
X81647806Y-105381101D01*
X81749360Y-105491417D01*
X81796760Y-105542906D01*
X81974424Y-105681189D01*
X81979005Y-105683668D01*
X82020469Y-105706107D01*
X82070860Y-105756120D01*
X82086500Y-105816921D01*
X82086500Y-111011233D01*
X82085973Y-111022416D01*
X82084298Y-111029909D01*
X82084547Y-111037835D01*
X82084547Y-111037836D01*
X82086438Y-111097986D01*
X82086500Y-111101945D01*
X82086500Y-111129856D01*
X82086997Y-111133790D01*
X82086997Y-111133791D01*
X82087005Y-111133856D01*
X82087938Y-111145693D01*
X82089327Y-111189889D01*
X82094978Y-111209339D01*
X82098987Y-111228700D01*
X82101526Y-111248797D01*
X82104445Y-111256168D01*
X82104445Y-111256170D01*
X82117804Y-111289912D01*
X82121649Y-111301142D01*
X82133982Y-111343593D01*
X82138015Y-111350412D01*
X82138017Y-111350417D01*
X82144293Y-111361028D01*
X82152988Y-111378776D01*
X82160448Y-111397617D01*
X82165110Y-111404033D01*
X82165110Y-111404034D01*
X82186436Y-111433387D01*
X82192952Y-111443307D01*
X82215458Y-111481362D01*
X82229779Y-111495683D01*
X82242619Y-111510716D01*
X82254528Y-111527107D01*
X82260634Y-111532158D01*
X82288605Y-111555298D01*
X82297384Y-111563288D01*
X83654595Y-112920499D01*
X83688621Y-112982811D01*
X83691500Y-113009594D01*
X83691500Y-114418638D01*
X83698011Y-114479201D01*
X83749111Y-114616204D01*
X83836739Y-114733261D01*
X83843950Y-114738659D01*
X83945729Y-114814850D01*
X83953796Y-114820889D01*
X84090799Y-114871989D01*
X84127705Y-114875957D01*
X84148012Y-114878140D01*
X84148015Y-114878140D01*
X84151362Y-114878500D01*
X86048638Y-114878500D01*
X86051985Y-114878140D01*
X86051988Y-114878140D01*
X86072295Y-114875957D01*
X86109201Y-114871989D01*
X86246204Y-114820889D01*
X86254272Y-114814850D01*
X86356050Y-114738659D01*
X86363261Y-114733261D01*
X86450889Y-114616204D01*
X86501989Y-114479201D01*
X86508500Y-114418638D01*
X86508500Y-112521362D01*
X86501989Y-112460799D01*
X86450889Y-112323796D01*
X86363261Y-112206739D01*
X86246204Y-112119111D01*
X86237762Y-112115962D01*
X86237758Y-112115960D01*
X86178826Y-112093979D01*
X86121991Y-112051433D01*
X86097180Y-111984912D01*
X86112272Y-111915538D01*
X86130156Y-111890589D01*
X86171651Y-111845513D01*
X86211786Y-111801916D01*
X86211789Y-111801912D01*
X86215314Y-111798083D01*
X86342984Y-111602669D01*
X86430114Y-111404034D01*
X86434656Y-111393679D01*
X86434657Y-111393677D01*
X86436749Y-111388907D01*
X86460421Y-111295431D01*
X86492770Y-111167685D01*
X86492770Y-111167684D01*
X86494051Y-111162626D01*
X86496441Y-111133791D01*
X86512897Y-110935189D01*
X86513327Y-110930000D01*
X86494051Y-110697374D01*
X86457974Y-110554906D01*
X86460642Y-110483959D01*
X86491024Y-110434880D01*
X89367247Y-107558657D01*
X89375537Y-107551113D01*
X89382018Y-107547000D01*
X89428659Y-107497332D01*
X89431413Y-107494491D01*
X89451135Y-107474769D01*
X89453612Y-107471576D01*
X89461317Y-107462555D01*
X89486159Y-107436100D01*
X89491586Y-107430321D01*
X89495407Y-107423371D01*
X89501346Y-107412568D01*
X89512202Y-107396041D01*
X89519757Y-107386302D01*
X89519758Y-107386300D01*
X89524614Y-107380040D01*
X89542174Y-107339460D01*
X89547391Y-107328812D01*
X89564875Y-107297009D01*
X89564876Y-107297007D01*
X89568695Y-107290060D01*
X89573733Y-107270437D01*
X89580137Y-107251734D01*
X89585033Y-107240420D01*
X89585033Y-107240419D01*
X89588181Y-107233145D01*
X89589420Y-107225322D01*
X89589423Y-107225312D01*
X89595099Y-107189476D01*
X89597505Y-107177856D01*
X89606528Y-107142711D01*
X89606528Y-107142710D01*
X89608500Y-107135030D01*
X89608500Y-107114776D01*
X89610051Y-107095065D01*
X89611980Y-107082886D01*
X89613220Y-107075057D01*
X89609059Y-107031038D01*
X89608500Y-107019181D01*
X89608500Y-99003767D01*
X89609027Y-98992584D01*
X89610702Y-98985091D01*
X89608562Y-98917000D01*
X89608500Y-98913043D01*
X89608500Y-98885144D01*
X89607996Y-98881153D01*
X89607063Y-98869311D01*
X89605923Y-98833036D01*
X89605674Y-98825111D01*
X89603462Y-98817497D01*
X89603461Y-98817492D01*
X89600023Y-98805659D01*
X89596012Y-98786295D01*
X89594467Y-98774064D01*
X89593474Y-98766203D01*
X89590557Y-98758836D01*
X89590556Y-98758831D01*
X89577198Y-98725092D01*
X89573354Y-98713865D01*
X89563230Y-98679022D01*
X89561018Y-98671407D01*
X89550707Y-98653972D01*
X89542012Y-98636224D01*
X89534552Y-98617383D01*
X89508564Y-98581613D01*
X89502048Y-98571693D01*
X89483580Y-98540465D01*
X89483578Y-98540462D01*
X89479542Y-98533638D01*
X89465221Y-98519317D01*
X89452380Y-98504283D01*
X89445131Y-98494306D01*
X89440472Y-98487893D01*
X89406395Y-98459702D01*
X89397616Y-98451712D01*
X88045405Y-97099500D01*
X88011379Y-97037188D01*
X88008500Y-97010405D01*
X88008499Y-96127662D01*
X88008499Y-96124456D01*
X87997887Y-96020574D01*
X87942115Y-95852262D01*
X87849030Y-95701348D01*
X87723652Y-95575970D01*
X87572738Y-95482885D01*
X87509193Y-95461829D01*
X87410952Y-95429275D01*
X87410948Y-95429274D01*
X87404426Y-95427113D01*
X87397592Y-95426415D01*
X87397588Y-95426414D01*
X87303729Y-95416825D01*
X87303723Y-95416825D01*
X87300545Y-95416500D01*
X86850071Y-95416500D01*
X86399456Y-95416501D01*
X86396279Y-95416826D01*
X86396270Y-95416826D01*
X86347533Y-95421805D01*
X86295574Y-95427113D01*
X86127262Y-95482885D01*
X85976348Y-95575970D01*
X85850970Y-95701348D01*
X85757885Y-95852262D01*
X85702113Y-96020574D01*
X85691500Y-96124455D01*
X85691501Y-97475544D01*
X85691826Y-97478721D01*
X85691826Y-97478730D01*
X85693866Y-97498699D01*
X85702113Y-97579426D01*
X85757885Y-97747738D01*
X85850970Y-97898652D01*
X85976348Y-98024030D01*
X86127262Y-98117115D01*
X86190807Y-98138171D01*
X86289048Y-98170725D01*
X86289052Y-98170726D01*
X86295574Y-98172887D01*
X86302408Y-98173585D01*
X86302412Y-98173586D01*
X86396271Y-98183175D01*
X86396277Y-98183175D01*
X86399455Y-98183500D01*
X86556882Y-98183500D01*
X87285404Y-98183499D01*
X87353525Y-98203501D01*
X87374499Y-98220404D01*
X88304595Y-99150500D01*
X88338621Y-99212812D01*
X88341500Y-99239595D01*
X88341500Y-100573099D01*
X88321498Y-100641220D01*
X88267842Y-100687713D01*
X88197568Y-100697817D01*
X88174588Y-100692272D01*
X88161308Y-100687713D01*
X88134635Y-100678556D01*
X88129501Y-100677699D01*
X88129496Y-100677698D01*
X87917706Y-100642357D01*
X87917704Y-100642357D01*
X87912569Y-100641500D01*
X87687431Y-100641500D01*
X87682296Y-100642357D01*
X87682294Y-100642357D01*
X87470504Y-100677698D01*
X87470499Y-100677699D01*
X87465365Y-100678556D01*
X87252426Y-100751658D01*
X87054424Y-100858811D01*
X86876760Y-100997094D01*
X86873228Y-101000931D01*
X86727806Y-101158899D01*
X86727803Y-101158903D01*
X86724278Y-101162732D01*
X86721427Y-101167096D01*
X86635483Y-101298643D01*
X86581479Y-101344732D01*
X86511132Y-101354307D01*
X86446774Y-101324330D01*
X86424517Y-101298643D01*
X86338573Y-101167096D01*
X86335722Y-101162732D01*
X86332197Y-101158903D01*
X86332194Y-101158899D01*
X86186772Y-101000931D01*
X86183240Y-100997094D01*
X86005576Y-100858811D01*
X85807574Y-100751658D01*
X85594635Y-100678556D01*
X85589501Y-100677699D01*
X85589496Y-100677698D01*
X85377706Y-100642357D01*
X85377704Y-100642357D01*
X85372569Y-100641500D01*
X85147431Y-100641500D01*
X85142296Y-100642357D01*
X85142294Y-100642357D01*
X84930504Y-100677698D01*
X84930499Y-100677699D01*
X84925365Y-100678556D01*
X84712426Y-100751658D01*
X84514424Y-100858811D01*
X84336760Y-100997094D01*
X84333228Y-101000931D01*
X84275755Y-101063362D01*
X84214901Y-101099933D01*
X84143937Y-101097798D01*
X84085392Y-101057636D01*
X84064998Y-101022056D01*
X84024038Y-100912239D01*
X84024037Y-100912237D01*
X84020889Y-100903796D01*
X83933261Y-100786739D01*
X83816204Y-100699111D01*
X83679201Y-100648011D01*
X83642295Y-100644043D01*
X83621988Y-100641860D01*
X83621985Y-100641860D01*
X83618638Y-100641500D01*
X83479500Y-100641500D01*
X83411379Y-100621498D01*
X83364886Y-100567842D01*
X83353500Y-100515500D01*
X83353500Y-98309500D01*
X83373502Y-98241379D01*
X83427158Y-98194886D01*
X83479500Y-98183500D01*
X84179526Y-98183499D01*
X84200544Y-98183499D01*
X84203721Y-98183174D01*
X84203730Y-98183174D01*
X84252467Y-98178195D01*
X84304426Y-98172887D01*
X84472738Y-98117115D01*
X84623652Y-98024030D01*
X84749030Y-97898652D01*
X84842115Y-97747738D01*
X84883062Y-97624166D01*
X84895725Y-97585952D01*
X84895726Y-97585948D01*
X84897887Y-97579426D01*
X84900793Y-97550989D01*
X84908175Y-97478729D01*
X84908175Y-97478723D01*
X84908500Y-97475545D01*
X84908499Y-96124456D01*
X84897887Y-96020574D01*
X84842115Y-95852262D01*
X84749030Y-95701348D01*
X84623652Y-95575970D01*
X84472738Y-95482885D01*
X84409193Y-95461829D01*
X84310952Y-95429275D01*
X84310948Y-95429274D01*
X84304426Y-95427113D01*
X84297592Y-95426415D01*
X84297588Y-95426414D01*
X84203729Y-95416825D01*
X84203723Y-95416825D01*
X84200545Y-95416500D01*
X83750071Y-95416500D01*
X83299456Y-95416501D01*
X83296279Y-95416826D01*
X83296270Y-95416826D01*
X83247533Y-95421805D01*
X83195574Y-95427113D01*
X83027262Y-95482885D01*
X82876348Y-95575970D01*
X82750970Y-95701348D01*
X82657885Y-95852262D01*
X82602113Y-96020574D01*
X82591500Y-96124455D01*
X82591500Y-96127660D01*
X82591501Y-97010404D01*
X82571499Y-97078525D01*
X82554596Y-97099500D01*
X82327742Y-97326353D01*
X82319463Y-97333887D01*
X82312982Y-97338000D01*
X82266357Y-97387651D01*
X82263602Y-97390493D01*
X82243865Y-97410230D01*
X82241385Y-97413427D01*
X82233682Y-97422447D01*
X82203414Y-97454679D01*
X82199595Y-97461625D01*
X82199593Y-97461628D01*
X82193652Y-97472434D01*
X82182801Y-97488953D01*
X82170386Y-97504959D01*
X82167241Y-97512228D01*
X82167238Y-97512232D01*
X82152826Y-97545537D01*
X82147609Y-97556187D01*
X82126305Y-97594940D01*
X82124334Y-97602615D01*
X82124334Y-97602616D01*
X82121267Y-97614562D01*
X82114863Y-97633266D01*
X82106819Y-97651855D01*
X82105580Y-97659678D01*
X82105577Y-97659688D01*
X82099901Y-97695524D01*
X82097495Y-97707144D01*
X82088861Y-97740775D01*
X82086500Y-97749970D01*
X82086500Y-97770224D01*
X82084949Y-97789934D01*
X82081780Y-97809943D01*
X82082526Y-97817835D01*
X82085941Y-97853961D01*
X82086500Y-97865819D01*
X82086500Y-100515500D01*
X82066498Y-100583621D01*
X82012842Y-100630114D01*
X81960500Y-100641500D01*
X81821362Y-100641500D01*
X81818015Y-100641860D01*
X81818012Y-100641860D01*
X81797705Y-100644043D01*
X81760799Y-100648011D01*
X81623796Y-100699111D01*
X81506739Y-100786739D01*
X81419111Y-100903796D01*
X81368011Y-101040799D01*
X81361500Y-101101362D01*
X81361500Y-102898638D01*
X81368011Y-102959201D01*
X81419111Y-103096204D01*
X81506739Y-103213261D01*
X81513950Y-103218659D01*
X81611465Y-103291658D01*
X81623796Y-103300889D01*
X81738808Y-103343787D01*
X81795642Y-103386333D01*
X81820453Y-103452853D01*
X81805361Y-103522227D01*
X81787475Y-103547180D01*
X81647806Y-103698899D01*
X81647803Y-103698903D01*
X81644278Y-103702732D01*
X81641427Y-103707096D01*
X81525372Y-103884732D01*
X81521140Y-103891209D01*
X81430704Y-104097384D01*
X81429422Y-104102445D01*
X81429422Y-104102446D01*
X81409327Y-104181799D01*
X81375436Y-104315632D01*
X81375006Y-104320823D01*
X81375005Y-104320828D01*
X81358024Y-104525763D01*
X81356844Y-104540000D01*
X79182809Y-104540000D01*
X79122871Y-104377508D01*
X79115085Y-104333903D01*
X79115085Y-102852091D01*
X79115126Y-102851992D01*
X79115085Y-102851893D01*
X79115085Y-101369907D01*
X79122754Y-101326620D01*
X80437951Y-97731315D01*
X80437971Y-97731260D01*
X80438042Y-97731087D01*
X80438038Y-97731077D01*
X81281104Y-95426415D01*
X81753687Y-94134531D01*
X81760882Y-94114862D01*
X81760957Y-94114681D01*
X81760916Y-94114582D01*
X81760916Y-82455454D01*
X81760957Y-82455355D01*
X81760916Y-82455256D01*
X81760916Y-70796133D01*
X81760957Y-70796034D01*
X81760958Y-70796032D01*
X81760839Y-70795749D01*
X81760799Y-70795651D01*
X81760699Y-70795610D01*
X80857904Y-69898504D01*
X80857903Y-69898502D01*
X80857863Y-69898404D01*
X80857763Y-69898363D01*
X80812659Y-69853543D01*
X79994106Y-69040154D01*
X79959884Y-68977950D01*
X79956998Y-68946324D01*
X79984320Y-68173759D01*
X79984320Y-68173756D01*
X79984853Y-68158673D01*
X79984898Y-68158565D01*
X79984860Y-68158474D01*
X79997753Y-67793932D01*
X80012269Y-67383488D01*
X80034666Y-67316116D01*
X80072340Y-67280518D01*
X80134672Y-67242309D01*
X80883608Y-66783213D01*
X80885522Y-66786336D01*
X80885726Y-66786166D01*
X80883832Y-66783076D01*
X81730163Y-66264278D01*
X81752920Y-66250328D01*
X81753078Y-66250263D01*
X81753135Y-66250126D01*
X81753222Y-66250006D01*
X81753211Y-66249940D01*
X81753236Y-66249880D01*
X81753195Y-66249781D01*
X81757074Y-52409480D01*
X81757075Y-52409259D01*
X81757115Y-52409160D01*
X81757075Y-52409062D01*
X81784501Y-44772379D01*
X81804747Y-44704331D01*
X81858570Y-44658031D01*
X81928879Y-44648180D01*
X81993354Y-44677904D01*
X82031523Y-44737768D01*
X82036500Y-44772832D01*
X82036500Y-48890643D01*
X88183500Y-48890643D01*
X88183500Y-38384950D01*
X88203502Y-38316829D01*
X88257158Y-38270336D01*
X88327432Y-38260232D01*
X88392012Y-38289726D01*
G37*
G04 #@! TD.AperFunction*
M02*
