<?xml version="1.0" encoding="UTF-8"?>
<!DOCTYPE svg PUBLIC "-//W3C//DTD SVG 1.1//EN" "http://www.w3.org/Graphics/SVG/1.1/DTD/svg11.dtd">
<!-- Creator: CorelDRAW 2021 (64-Bit) -->
<svg xmlns="http://www.w3.org/2000/svg" xml:space="preserve" width="4.91102in" height="6.1117in" version="1.1" style="shape-rendering:geometricPrecision; text-rendering:geometricPrecision; image-rendering:optimizeQuality; fill-rule:evenodd; clip-rule:evenodd"
viewBox="0 0 4927.57 6132.3"
 xmlns:xlink="http://www.w3.org/1999/xlink"
 xmlns:xodm="http://www.corel.com/coreldraw/odm/2003">
 <defs>
  <style type="text/css">
   <![CDATA[
    .str3 {stroke:#4D4D4D;stroke-width:3.01;stroke-miterlimit:2.61313;stroke-opacity:0.901961}
    .str0 {stroke:#F05500;stroke-width:111.48;stroke-miterlimit:2.61313}
    .str2 {stroke:#E6E6E6;stroke-width:3.01;stroke-miterlimit:2.61313}
    .str1 {stroke:#F05500;stroke-width:3.01;stroke-miterlimit:2.61313}
    .str5 {stroke:#F05500;stroke-width:3.01;stroke-miterlimit:4}
    .str4 {stroke:#F24F00;stroke-width:3.01;stroke-miterlimit:4}
    .fil0 {fill:#4D4D4D}
    .fil5 {fill:#4D4D4D;fill-rule:nonzero}
    .fil2 {fill:#E6E6E6;fill-rule:nonzero}
    .fil1 {fill:#F05500;fill-rule:nonzero}
    .fil4 {fill:#323232;fill-opacity:0.901961}
    .fil3 {fill:#F05500;fill-opacity:0.901961}
   ]]>
  </style>
 </defs>
 <g id="Layer_x0020_1">
  <metadata id="CorelCorpID_0Corel-Layer"/>
  <path class="fil0" d="M-0 1029.28l2456.64 -1029.28 2470.93 1011.27 -370.85 2638.62 -1813.69 1442.51 1996.64 0c55.19,0 100.34,45.15 100.34,100.34l0 839.22c0,55.19 -45.15,100.34 -100.34,100.34l-4544.48 0c-55.19,0 -100.34,-45.15 -100.34,-100.34l0 -839.22c0,-55.19 45.15,-100.34 100.34,-100.34l1983.79 0 -1821.27 -1434.91 -357.72 -2628.22z"/>
  <polygon class="fil0 str0" points="212.39,1164.96 2457.26,222.97 4715.18,1148.48 4376.3,3563.34 2457.26,5035.6 539.27,3570.3 "/>
  <path id="CT3" class="fil1 str1" d="M696.09 5325.24l-36.64 25.51c-20.16,-23.84 -44.4,-41.93 -72.75,-54.23 -28.23,-12.32 -59.27,-18.49 -93.21,-18.49 -36.97,0 -71.24,8.13 -102.83,24.25 -31.57,16.13 -55.92,37.83 -73.28,65 -17.35,27.17 -26.07,57.85 -26.07,91.78 0,51.4 19.39,94.31 58.19,128.61 38.8,34.41 87.72,51.61 146.9,51.61 64.97,0 119.28,-23.05 163.05,-69.19l36.64 25.21c-23.18,26.69 -52.06,47.42 -86.64,61.97 -34.6,14.57 -73.3,21.9 -115.96,21.9 -81.26,0 -145.39,-24.54 -192.28,-73.6 -39.33,-41.36 -59.04,-91.39 -59.04,-149.94 0,-61.56 23.81,-113.46 71.44,-155.5 47.74,-42.11 107.45,-63.13 179.22,-63.13 43.32,0 82.44,7.72 117.37,23.16 34.9,15.53 63.58,37.24 85.88,65.09zm47.21 -36.64l0 -41.06 254.13 0 0 41.06 -103.46 0 0 380 -47.21 0 0 -380 -103.46 0zm932.85 36.64l-36.64 25.51c-20.16,-23.84 -44.4,-41.93 -72.74,-54.23 -28.23,-12.32 -59.27,-18.49 -93.21,-18.49 -36.97,0 -71.24,8.13 -102.83,24.25 -31.57,16.13 -55.92,37.83 -73.28,65 -17.35,27.17 -26.07,57.85 -26.07,91.78 0,51.4 19.39,94.31 58.18,128.61 38.8,34.41 87.72,51.61 146.9,51.61 64.97,0 119.28,-23.05 163.05,-69.19l36.64 25.21c-23.18,26.69 -52.05,47.42 -86.64,61.97 -34.6,14.57 -73.29,21.9 -115.96,21.9 -81.26,0 -145.39,-24.54 -192.28,-73.6 -39.33,-41.36 -59.04,-91.39 -59.04,-149.94 0,-61.56 23.81,-113.46 71.44,-155.5 47.74,-42.11 107.45,-63.13 179.22,-63.13 43.32,0 82.44,7.72 117.37,23.16 34.91,15.53 63.58,37.24 85.88,65.09zm80.18 31.97l43.97 0 0 145.32c0,35.48 2.16,59.83 6.35,73.22 6.25,19.06 18.43,34.11 36.21,45.16 17.8,11.04 39.12,16.6 63.81,16.6 24.68,0 45.6,-5.38 62.83,-16.13 17.15,-10.84 29.1,-24.91 35.56,-42.52 4.42,-12.02 6.7,-37.42 6.7,-76.34l0 -145.32 45.25 0 0 152.65c0,42.9 -5.5,75.17 -16.6,96.86 -11,21.79 -27.7,38.8 -49.9,51.03 -22.2,12.3 -50,18.47 -83.52,18.47 -33.52,0 -61.42,-6.17 -83.84,-18.47 -22.43,-12.23 -39.23,-29.42 -50.22,-51.42 -11.1,-21.98 -16.6,-55.11 -16.6,-99.29l0 -149.83zm402.11 311.38l0 -431.61 43.97 0 0 174.17c18.53,-20.63 39.23,-36.07 62.18,-46.23 22.95,-10.27 48.06,-15.35 75.34,-15.35 48.59,0 90.1,15.94 124.48,47.8 34.38,31.95 51.63,70.56 51.63,116.1 0,44.86 -17.35,83.28 -52.06,115.03 -34.7,31.77 -76.41,47.71 -125.23,47.71 -28.02,0 -53.36,-5.38 -76.09,-16.13 -22.75,-10.75 -42.79,-26.98 -60.24,-48.78l0 57.28 -43.97 0zm177.06 -31.08c24.46,0 47.21,-5.47 67.9,-16.31 20.79,-10.95 37.29,-26.3 49.57,-46.04 12.28,-19.63 18.43,-40.56 18.43,-62.56 0,-21.98 -6.15,-43 -18.53,-62.93 -12.4,-19.86 -29,-35.39 -49.9,-46.53 -20.91,-11.04 -43.22,-16.62 -66.94,-16.62 -24.03,0 -46.98,5.58 -68.75,16.62 -21.65,11.14 -38.35,26.1 -50,44.86 -11.63,18.76 -17.46,39.88 -17.46,63.43 0,35.87 13.04,65.88 39.23,89.91 26.09,24.14 58.19,36.16 96.45,36.16zm550.72 -72.12l37.29 17.78c-12.3,21.61 -26.42,39.1 -42.46,52.38 -16.07,13.21 -34.07,23.37 -54.11,30.31 -20.14,6.94 -42.79,10.36 -68.1,10.36 -56.25,0 -100.12,-16.62 -131.81,-49.85 -31.69,-33.23 -47.51,-70.76 -47.51,-112.59 0,-39.4 13.46,-74.58 40.3,-105.35 33.93,-39.19 79.53,-58.84 136.53,-58.84 58.74,0 105.72,20.13 140.75,60.3 24.89,28.36 37.62,63.72 38.05,106.24l-310.38 0c0.85,36.07 13.68,65.59 38.37,88.55 24.78,23.07 55.39,34.59 91.71,34.59 17.57,0 34.7,-2.73 51.3,-8.2 16.6,-5.47 30.71,-12.71 42.36,-21.79 11.63,-9.09 24.23,-23.66 37.72,-43.88zm0.43 -83.86c-5.93,-21.41 -14.56,-38.42 -25.87,-51.22 -11.42,-12.8 -26.42,-23.07 -45.05,-30.88 -18.66,-7.83 -38.27,-11.73 -58.74,-11.73 -33.95,0 -63.05,9.77 -87.41,29.42 -17.88,14.35 -31.24,35.76 -40.4,64.41l257.47 0zm472.57 -244.54l0 431.61 -43.97 0 0 -53.56c-18.55,20.43 -39.25,35.77 -62.3,45.93 -22.95,10.18 -48.17,15.26 -75.43,15.26 -48.49,0 -90,-15.94 -124.37,-47.8 -34.38,-31.95 -51.51,-70.67 -51.51,-116.4 0,-44.68 17.35,-82.99 52.06,-114.76 34.58,-31.75 76.29,-47.69 125.11,-47.69 28.13,0 53.56,5.47 76.41,16.33 22.75,10.84 42.79,27.17 60.04,48.96l0 -177.88 43.97 0zm-176.96 151.29c-24.58,0 -47.31,5.49 -68,16.42 -20.81,10.86 -37.29,26.21 -49.59,45.95 -12.28,19.72 -18.41,40.65 -18.41,62.74 0,21.79 6.13,42.7 18.53,62.65 12.38,19.93 28.98,35.48 49.9,46.53 20.9,11.14 43.32,16.7 67.25,16.7 24.03,0 46.98,-5.47 68.53,-16.51 21.67,-11.04 38.27,-25.89 49.9,-44.75 11.65,-18.76 17.48,-39.99 17.48,-63.54 0,-35.87 -13.06,-65.88 -39.25,-90.02 -26.07,-24.14 -58.18,-36.16 -96.33,-36.16zm456.83 -140.74l46.56 0 0 421.06 -46.56 0 0 -421.06zm145.5 109.68l43.97 0 0 55.8c17.78,-21.3 37.39,-37.24 58.84,-47.69 21.57,-10.45 44.95,-15.73 70.26,-15.73 25.76,0 48.62,5.85 68.55,17.69 19.94,11.82 34.7,27.76 44.2,47.78 9.47,19.94 14.21,51.12 14.21,93.44l0 160.1 -43.97 0 0 -148.37c0,-35.78 -1.73,-59.72 -5.07,-71.74 -5.38,-20.52 -15.3,-35.96 -29.84,-46.42 -14.56,-10.36 -33.53,-15.55 -56.9,-15.55 -26.84,0 -50.88,8.02 -71.99,24.05 -21.24,15.94 -35.26,35.78 -41.94,59.42 -4.2,15.44 -6.35,43.59 -6.35,84.56l0 114.05 -43.97 0 0 -311.38zm727.98 64.7l-35.03 19.75c-30.39,-36.37 -71.87,-54.55 -124.48,-54.55 -42.02,0 -76.94,12.21 -104.74,36.55 -27.7,24.35 -41.61,53.86 -41.61,88.66 0,22.66 6.36,43.97 19.19,63.9 12.73,19.95 30.28,35.48 52.6,46.53 22.2,11.04 47.19,16.51 74.89,16.51 50.65,0 92.03,-18.18 124.15,-54.52l35.03 20.9c-16.5,22.39 -38.57,39.69 -66.27,52.1 -27.82,12.3 -59.38,18.47 -94.84,18.47 -54.54,0 -99.69,-15.64 -135.58,-46.82 -35.88,-31.27 -53.77,-69.19 -53.77,-113.96 0,-30.01 8.39,-57.96 25.21,-83.76 16.7,-25.8 39.76,-45.94 69.08,-60.4 29.41,-14.46 62.18,-21.7 98.49,-21.7 22.85,0 44.85,3.12 66.07,9.38 21.12,6.26 39.12,14.46 53.89,24.53 14.86,10.07 27.37,22.86 37.72,38.42zm133.19 183.35c10.78,0 19.84,3.42 27.49,10.27 7.54,6.92 11.31,15.24 11.31,25.21 0,9.77 -3.77,18.08 -11.31,25.03 -7.66,6.92 -16.72,10.45 -27.49,10.45 -10.67,0 -19.81,-3.53 -27.47,-10.45 -7.55,-6.94 -11.32,-15.26 -11.32,-25.03 0,-9.97 3.77,-18.29 11.32,-25.21 7.66,-6.85 16.8,-10.27 27.47,-10.27z"/>
  <path class="fil2 str2" d="M250.23 5800.41l0 -17.41 97.69 0 0 17.41 -39.77 0 0 161.1 -18.16 0 0 -161.1 -39.77 0zm196.61 -17.41l83.28 178.51 -19.19 0 -27.89 -58.67 -77.36 0 -27.72 58.67 -19.89 0 84.28 -178.51 4.48 0zm-2.24 37.46l-30.7 64.97 61.28 0 -30.58 -64.97zm279.36 -4.51l-14.08 10.81c-7.75,-10.1 -17.08,-17.77 -27.97,-22.99 -10.86,-5.23 -22.8,-7.83 -35.84,-7.83 -14.21,0 -27.39,3.44 -39.53,10.27 -12.13,6.84 -21.51,16.03 -28.18,27.56 -6.67,11.51 -10.02,24.52 -10.02,38.9 0,21.8 7.46,39.99 22.37,54.53 14.92,14.58 33.72,21.88 56.47,21.88 24.99,0 45.87,-9.78 62.7,-29.34l14.08 10.69c-8.9,11.31 -20.01,20.1 -33.31,26.27 -13.3,6.17 -28.17,9.28 -44.58,9.28 -31.24,0 -55.9,-10.39 -73.93,-31.2 -15.11,-17.54 -22.7,-38.74 -22.7,-63.56 0,-26.11 9.16,-48.11 27.47,-65.93 18.36,-17.85 41.3,-26.77 68.91,-26.77 16.65,0 31.7,3.28 45.12,9.82 13.42,6.59 24.44,15.79 33.01,27.6zm18.16 -15.54l0 -17.41 97.69 0 0 17.41 -39.77 0 0 161.1 -18.16 0 0 -161.1 -39.77 0zm121.03 -17.41l17.9 0 0 178.51 -17.9 0 0 -178.51zm224.99 32.95l-14.08 10.81c-7.75,-10.1 -17.08,-17.77 -27.97,-22.99 -10.86,-5.23 -22.8,-7.83 -35.84,-7.83 -14.21,0 -27.39,3.44 -39.53,10.27 -12.13,6.84 -21.51,16.03 -28.18,27.56 -6.67,11.51 -10.02,24.52 -10.02,38.9 0,21.8 7.46,39.99 22.37,54.53 14.92,14.58 33.72,21.88 56.47,21.88 24.98,0 45.86,-9.78 62.69,-29.34l14.08 10.69c-8.9,11.31 -20.02,20.1 -33.31,26.27 -13.31,6.17 -28.18,9.28 -44.59,9.28 -31.24,0 -55.9,-10.39 -73.92,-31.2 -15.12,-17.54 -22.71,-38.74 -22.71,-63.56 0,-26.11 9.16,-48.11 27.47,-65.93 18.36,-17.85 41.31,-26.77 68.91,-26.77 16.65,0 31.7,3.28 45.12,9.82 13.42,6.59 24.44,15.79 33.02,27.6zm17.4 112.17l15.16 -9.13c10.7,19.73 23.05,29.59 37.05,29.59 6.01,0 11.65,-1.41 16.91,-4.18 5.26,-2.77 9.28,-6.55 12.02,-11.23 2.77,-4.69 4.14,-9.65 4.14,-14.92 0,-5.96 -2.02,-11.8 -6.08,-17.57 -5.59,-7.92 -15.79,-17.49 -30.67,-28.64 -14.92,-11.26 -24.19,-19.39 -27.83,-24.39 -6.34,-8.42 -9.49,-17.54 -9.49,-27.31 0,-7.75 1.86,-14.83 5.59,-21.22 3.72,-6.38 8.98,-11.39 15.79,-15.08 6.8,-3.69 14.13,-5.51 22.08,-5.51 8.46,0 16.37,2.07 23.7,6.26 7.34,4.15 15.13,11.8 23.33,22.95l-14.58 11.06c-6.75,-8.9 -12.52,-14.79 -17.27,-17.61 -4.77,-2.87 -9.95,-4.27 -15.54,-4.27 -7.26,0 -13.18,2.2 -17.78,6.55 -4.59,4.39 -6.92,9.73 -6.92,16.16 0,3.85 0.83,7.62 2.44,11.26 1.62,3.65 4.6,7.59 8.92,11.9 2.31,2.23 10.07,8.2 23.16,17.82 15.49,11.43 26.14,21.59 31.9,30.46 5.77,8.9 8.66,17.85 8.66,26.85 0,12.92 -4.92,24.2 -14.74,33.72 -9.86,9.57 -21.85,14.34 -35.93,14.34 -10.85,0 -20.72,-2.9 -29.54,-8.7 -8.83,-5.8 -16.99,-15.54 -24.45,-29.16zm429.24 -127.7l0 -17.41 97.69 0 0 17.41 -39.77 0 0 161.1 -18.16 0 0 -161.1 -39.77 0zm124.51 -17.41l35.64 0c19.85,0 33.32,0.83 40.36,2.45 10.65,2.41 19.27,7.58 25.9,15.58 6.67,7.95 9.98,17.77 9.98,29.41 0,9.7 -2.28,18.24 -6.87,25.57 -4.56,7.38 -11.11,12.93 -19.64,16.7 -8.5,3.77 -20.27,5.67 -35.27,5.76l64.27 83.04 -21.92 0 -64.27 -83.04 -10.28 0 0 83.04 -17.9 0 0 -178.51zm17.9 17.41l0 60.66 30.83 0.25c11.97,0 20.8,-1.13 26.52,-3.41 5.72,-2.28 10.19,-5.89 13.42,-10.86 3.18,-4.97 4.8,-10.52 4.8,-16.7 0,-5.96 -1.62,-11.43 -4.89,-16.32 -3.23,-4.89 -7.51,-8.36 -12.8,-10.48 -5.26,-2.11 -14.05,-3.14 -26.32,-3.14l-31.57 0zm205.11 -17.41l83.28 178.51 -19.19 0 -27.89 -58.67 -77.36 0 -27.72 58.67 -19.89 0 84.28 -178.51 4.48 0zm-2.24 37.46l-30.7 64.97 61.28 0 -30.58 -64.97zm110.56 -37.46l17.9 0 0 178.51 -17.9 0 0 -178.51zm58.93 178.51l0 -178.51 3.85 0 118.71 136.53 0 -136.53 17.9 0 0 178.51 -4.06 0 -118 -135.33 0 135.33 -18.39 0zm181.16 -178.51l17.9 0 0 178.51 -17.9 0 0 -178.51zm58.93 178.51l0 -178.51 3.85 0 118.71 136.53 0 -136.53 17.9 0 0 178.51 -4.06 0 -118 -135.33 0 135.33 -18.39 0zm356.17 -148.59l-13.83 13.1c-9.99,-9.78 -20.92,-17.2 -32.81,-22.24 -11.89,-5.06 -23.49,-7.59 -34.8,-7.59 -14.05,0 -27.44,3.44 -40.11,10.31 -12.72,6.88 -22.58,16.21 -29.55,28.01 -7,11.77 -10.48,24.2 -10.48,37.34 0,13.42 3.61,26.18 10.82,38.33 7.2,12.1 17.2,21.58 29.92,28.51 12.76,6.92 26.68,10.41 41.85,10.41 18.39,0 33.98,-5.18 46.7,-15.5 12.72,-10.31 20.26,-23.74 22.62,-40.19l-56.93 0 0 -17.4 77.06 0c-0.16,27.56 -8.36,49.47 -24.61,65.67 -16.29,16.21 -37.99,24.32 -65.25,24.32 -33.07,0 -59.25,-11.23 -78.56,-33.73 -14.83,-17.31 -22.26,-37.33 -22.26,-60.08 0,-16.86 4.27,-32.61 12.77,-47.19 8.54,-14.54 20.23,-25.95 35.05,-34.15 14.88,-8.21 31.67,-12.31 50.39,-12.31 15.18,0 29.47,2.74 42.85,8.17 13.39,5.47 26.47,14.18 39.19,26.23zm331.29 -12.51l0 -17.41 97.7 0 0 17.41 -39.77 0 0 161.1 -18.16 0 0 -161.1 -39.77 0zm123.77 -17.41l102.17 0 0 17.41 -84.27 0 0 55.93 83.53 0 0 17.41 -83.53 0 0 70.35 83.53 0 0 17.41 -101.43 0 0 -178.51zm299.36 32.95l-14.08 10.81c-7.75,-10.1 -17.08,-17.77 -27.96,-22.99 -10.86,-5.23 -22.8,-7.83 -35.84,-7.83 -14.21,0 -27.39,3.44 -39.53,10.27 -12.14,6.84 -21.51,16.03 -28.18,27.56 -6.67,11.51 -10.02,24.52 -10.02,38.9 0,21.8 7.46,39.99 22.37,54.53 14.92,14.58 33.72,21.88 56.47,21.88 24.98,0 45.87,-9.78 62.69,-29.34l14.08 10.69c-8.9,11.31 -20.01,20.1 -33.31,26.27 -13.31,6.17 -28.18,9.28 -44.58,9.28 -31.24,0 -55.9,-10.39 -73.93,-31.2 -15.12,-17.54 -22.7,-38.74 -22.7,-63.56 0,-26.11 9.16,-48.11 27.47,-65.93 18.36,-17.85 41.31,-26.77 68.91,-26.77 16.65,0 31.7,3.28 45.12,9.82 13.43,6.59 24.44,15.79 33.02,27.6zm35.55 -32.95l17.9 0 0 74.83 91 0 0 -74.83 17.9 0 0 178.51 -17.9 0 0 -86.27 -91 0 0 86.27 -17.9 0 0 -178.51zm170.35 178.51l0 -178.51 3.85 0 118.71 136.53 0 -136.53 17.9 0 0 178.51 -4.06 0 -118 -135.33 0 135.33 -18.39 0zm268.75 -182.98c27.01,0 49.63,9.03 67.83,27.06 18.18,18.02 27.31,40.23 27.31,66.58 0,26.15 -9.08,48.31 -27.23,66.5 -18.19,18.19 -40.32,27.3 -66.47,27.3 -26.44,0 -48.77,-9.08 -66.96,-27.18 -18.19,-18.11 -27.31,-40.03 -27.31,-65.76 0,-17.15 4.15,-33.03 12.44,-47.68 8.28,-14.64 19.59,-26.11 33.93,-34.4 14.3,-8.28 29.8,-12.43 46.46,-12.43zm0.79 17.41c-13.18,0 -25.7,3.44 -37.54,10.31 -11.82,6.89 -21.06,16.13 -27.73,27.77 -6.62,11.68 -9.93,24.65 -9.93,38.99 0,21.17 7.33,39.06 22.05,53.65 14.7,14.62 32.44,21.92 53.16,21.92 13.88,0 26.68,-3.35 38.45,-10.07 11.8,-6.71 21,-15.92 27.59,-27.55 6.59,-11.64 9.9,-24.57 9.9,-38.83 0,-14.17 -3.31,-26.96 -9.9,-38.4 -6.59,-11.44 -15.92,-20.59 -27.88,-27.47 -11.98,-6.87 -24.7,-10.31 -38.16,-10.31zm130.19 -12.93l17.9 0 0 161.1 68.86 0 0 17.41 -86.76 0 0 -178.51zm199.92 -4.48c27.02,0 49.64,9.03 67.83,27.06 18.18,18.02 27.31,40.23 27.31,66.58 0,26.15 -9.08,48.31 -27.23,66.5 -18.19,18.19 -40.32,27.3 -66.47,27.3 -26.44,0 -48.77,-9.08 -66.96,-27.18 -18.19,-18.11 -27.31,-40.03 -27.31,-65.76 0,-17.15 4.15,-33.03 12.44,-47.68 8.28,-14.64 19.59,-26.11 33.93,-34.4 14.3,-8.28 29.8,-12.43 46.45,-12.43zm0.79 17.41c-13.18,0 -25.7,3.44 -37.54,10.31 -11.82,6.89 -21.06,16.13 -27.73,27.77 -6.62,11.68 -9.93,24.65 -9.93,38.99 0,21.17 7.33,39.06 22.05,53.65 14.7,14.62 32.44,21.92 53.16,21.92 13.88,0 26.68,-3.35 38.45,-10.07 11.8,-6.71 21,-15.92 27.59,-27.55 6.59,-11.64 9.9,-24.57 9.9,-38.83 0,-14.17 -3.31,-26.96 -9.9,-38.4 -6.59,-11.44 -15.92,-20.59 -27.88,-27.47 -11.98,-6.87 -24.7,-10.31 -38.16,-10.31zm302.72 16.98l-13.84 13.1c-9.98,-9.78 -20.92,-17.2 -32.81,-22.24 -11.89,-5.06 -23.49,-7.59 -34.8,-7.59 -14.05,0 -27.43,3.44 -40.11,10.31 -12.72,6.88 -22.59,16.21 -29.55,28.01 -7,11.77 -10.48,24.2 -10.48,37.34 0,13.42 3.61,26.18 10.82,38.33 7.2,12.1 17.2,21.58 29.92,28.51 12.76,6.92 26.68,10.41 41.85,10.41 18.39,0 33.98,-5.18 46.7,-15.5 12.72,-10.31 20.26,-23.74 22.62,-40.19l-56.93 0 0 -17.4 77.06 0c-0.17,27.56 -8.36,49.47 -24.61,65.67 -16.29,16.21 -37.99,24.32 -65.25,24.32 -33.08,0 -59.25,-11.23 -78.56,-33.73 -14.83,-17.31 -22.26,-37.33 -22.26,-60.08 0,-16.86 4.27,-32.61 12.76,-47.19 8.54,-14.54 20.23,-25.95 35.05,-34.15 14.88,-8.21 31.66,-12.31 50.39,-12.31 15.17,0 29.47,2.74 42.84,8.17 13.39,5.47 26.47,14.18 39.19,26.23zm30.34 -29.92l20.42 0 46.16 74.55 45.37 -74.55 20.3 0 -56.68 93.15 0 85.35 -17.9 0 0 -85.35 -57.68 -93.15z"/>
  <path class="fil1 str1" d="M1369.77 5778.53l17.4 0 0 231.21 -17.4 0 0 -231.21zm1442.3 0l17.41 0 0 231.21 -17.41 0 0 -231.21z"/>
  <polygon id="Left" class="fil3 str3" points="2455.54,4028.19 1193.28,3187.75 1086.76,1679.94 2455.54,2458.03 "/>
  <polygon id="Right" class="fil3 str3" points="3710.74,3187.77 2455.54,4028.19 2455.54,2458.03 3811.23,1679.94 "/>
  <polygon id="Top" class="fil4 str3" points="2455.54,2458.03 1086.76,1679.94 2455.54,998.96 3811.23,1679.94 "/>
  <path id="_3" class="fil1 str4" d="M1776.38 1534.07c6.29,-4.67 12.58,-9.34 18.87,-14.02 11.73,-8.71 25.19,-12.61 38.15,-18.19 25.74,-11.08 51.47,-22.17 77.21,-33.26 45.9,-19.77 91.8,-39.54 137.7,-59.31 28.28,-12.18 56.57,-24.37 84.85,-36.54 12.6,-5.43 25.19,-10.86 37.8,-16.28 5.14,-2.22 10.29,-2.99 15.8,-3.21 49.97,-2.05 99.94,-4.1 149.91,-6.16 21.44,-0.88 42.88,-1.76 64.31,-2.64 10.71,-0.44 21.41,-0.88 32.12,-1.32 2.68,-0.11 5.35,-0.22 8.03,-0.33 4.72,-0.19 8.19,2.12 12.12,3.83 9.89,4.31 19.78,8.63 29.68,12.94 45.85,19.99 92.3,38.55 137.5,60.09 20.79,9.91 38.05,21.06 51.24,41.06 5.49,8.32 9.22,16.95 11.56,26.64 0.59,2.43 1.07,4.88 1.45,7.36 0.32,2.04 1.46,2.48 3.33,2.54 2.84,0.08 5.66,0.18 8.5,0.29 10.9,0.41 21.79,1.02 32.67,1.84 50.52,3.82 98.56,10.53 145.99,31.21 37.53,16.37 75.06,32.73 112.59,49.1 37.93,16.54 73.63,34.58 105.63,61.88 73.02,62.31 85.72,141.99 13.41,211.45 -30.42,29.22 -66.6,47.13 -102.34,67.23 -35.69,20.06 -71.38,40.13 -107.06,60.19 -71.39,40.13 -142.77,80.27 -214.16,120.4 -38.09,21.42 -100.72,20.67 -138.85,0.42 -51.3,-27.24 -102.59,-54.49 -153.89,-81.73 18.18,-9.63 36.36,-19.27 54.54,-28.9 40.54,-1.76 81.08,-3.52 121.63,-5.28 21.21,-0.92 40.4,-4.36 59.51,-14.68 46.89,-25.34 93.79,-50.67 140.68,-76.01 23.46,-12.67 46.91,-25.34 70.37,-38.02 23.45,-12.67 47.74,-22.3 66.79,-43.1 45.61,-49.8 1.7,-102.1 -39.27,-134.37 -42.98,-33.85 -91.71,-53.63 -140.33,-75.71 -24.75,-11.24 -48.56,-11.58 -74.54,-9.84 -13.89,0.94 -27.39,2.98 -40.82,6.78 -27.57,7.79 -51.39,22.36 -76.59,34.67 -39.59,19.35 -79.18,38.7 -118.78,58.05 -20.71,10.12 -39.86,22.82 -62.81,28.85 -20.31,5.33 -40.62,10.67 -60.94,16.01 -2.55,0.67 -5.1,1.34 -7.66,2.01 -2.42,0.64 -4.27,3 -7.35,1.47 -3.37,-1.67 -6.75,-3.35 -10.12,-5.02 -6.72,-3.33 -13.43,-6.67 -20.15,-10.01 -13.33,-6.62 -26.66,-13.24 -39.98,-19.85 -6.61,-3.29 -13.22,-6.57 -19.83,-9.85 -1.39,-0.69 -6.05,-0.64 -3.73,-2.61 1.43,-1.21 2.86,-2.43 4.29,-3.64 2.85,-2.42 5.7,-4.84 8.56,-7.26 6.01,-5.1 12.02,-10.2 18.03,-15.3 6.48,-5.5 12.29,-11.57 20.28,-15.34 45.86,-21.65 91.72,-43.3 137.58,-64.95 28.22,-13.32 56.67,-26.14 84.64,-39.99 5.32,-2.63 10.39,-5.54 15.17,-9.08 7.44,-5.52 13.22,-11.03 16.03,-20.43 7.89,-26.38 -24.08,-33.99 -40.19,-41.3 -22.06,-10.02 -44.13,-20.04 -66.19,-30.05 -8.64,-3.92 -16.34,-8.87 -26.77,-8.43 -6.65,0.28 -13.31,0.56 -19.96,0.84 -26.64,1.12 -53.29,2.24 -79.94,3.36 -6.77,0.28 -13.54,0.56 -20.32,0.85 -3.39,0.14 -6.77,0.28 -10.16,0.42 -6.35,0.26 -11.64,2.71 -17.2,5.19 -46.53,20.68 -93.07,41.36 -139.6,62.04 -26.34,11.7 -52.68,23.41 -79.02,35.12 -14.59,6.49 -29.18,12.97 -43.77,19.45 -8.99,3.99 -17.51,8.81 -27.26,11.2 -12.18,2.99 -24.37,5.97 -36.55,8.96 -34.11,-17.24 -68.23,-34.48 -102.34,-51.72z"/>
  <path id="T" class="fil5 str5" d="M2850.07 2539.31c-1.47,44.8 -2.94,89.6 -4.42,134.4 -0.19,5.81 -0.24,11.36 1.77,17.04 1.06,3.01 2.13,6.01 3.19,9.01 2.11,5.97 4.22,11.95 6.34,17.92 1.05,2.97 2.1,5.94 3.15,8.9 0.7,1.96 0.75,8.98 4.12,6.81 6.99,-4.51 13.99,-9.02 20.98,-13.53 13.86,-8.94 27.72,-17.88 41.59,-26.83 6.87,-4.43 13.74,-8.86 20.61,-13.29 3.42,-2.2 6.84,-4.41 10.26,-6.62 1.71,-1.1 3.87,-1.32 4.63,-3.82 0.68,-2.22 1.35,-4.43 2.03,-6.64 5.42,-17.78 10.84,-35.56 16.26,-53.34 2,-6.55 3.85,-12.98 4.19,-19.93 0.24,-4.65 0.47,-9.3 0.7,-13.94 0.15,-2.98 2.45,-4.29 3.7,-6.43 1.28,-2.18 2.55,-4.35 3.82,-6.53 2.55,-4.35 5.1,-8.71 7.65,-13.06 1.27,-2.18 2.55,-4.35 3.82,-6.53 2.57,-4.38 7.04,-4.78 10.65,-7.04 7.77,-4.87 15.54,-9.73 23.32,-14.6 26.73,-16.74 53.46,-33.47 80.19,-50.21 3.54,-2.22 7.09,-4.44 10.63,-6.66 1.79,-1.12 3.58,-2.24 5.36,-3.36 1.21,-0.76 0.15,1.42 0.1,2.14 -0.08,1.25 -0.17,2.5 -0.25,3.74 -0.17,2.5 -0.34,4.99 -0.51,7.48 -0.34,4.98 -0.68,9.96 -1.02,14.94 -2.69,39.47 -5.39,78.95 -8.08,118.42 -5.26,77.01 -10.51,154.02 -15.77,231.04 -11.18,163.77 -22.36,327.55 -33.54,491.33 -0.27,4.01 2.12,6.73 3.3,10.06 1.11,3.14 2.23,6.29 3.34,9.43 1.11,3.13 2.21,6.26 3.32,9.39 0.77,2.19 0.67,10.12 4.25,7.4 16.47,-12.51 32.92,-25.06 49.46,-37.49 8.15,-6.13 16.29,-12.25 24.44,-18.38 2.03,-1.52 4.06,-3.05 6.08,-4.57 2.51,-1.89 2.56,-4.5 3.38,-7.01 1.7,-5.18 3.4,-10.37 5.1,-15.55 3.41,-10.41 6.82,-20.81 10.23,-31.21 0.86,-2.61 1.71,-5.22 2.57,-7.83 2.36,-7.21 1.24,-14.36 1.84,-21.53 0.65,-7.83 1.31,-15.65 1.96,-23.47 1.31,-15.74 2.63,-31.47 3.94,-47.21 5.36,-64.12 10.71,-128.23 16.06,-192.35 13.66,-163.58 27.32,-327.17 40.98,-490.74 2.06,-24.72 4.13,-49.43 6.19,-74.15 0.51,-6.13 -1.94,-12.42 5.19,-16.89 2.14,-1.34 4.29,-2.68 6.43,-4.02 8.32,-5.21 16.64,-10.42 24.97,-15.64 15.49,-9.7 30.97,-19.39 46.46,-29.09 7.18,-4.5 14.36,-8.99 21.54,-13.49 3.45,-2.16 6.91,-4.32 10.36,-6.49 1.04,-0.65 6.01,-4.86 7.72,-3.55 3.73,2.86 7.47,5.71 11.2,8.57 2.76,2.11 1.12,10.39 0.9,12.66 -0.49,4.95 -0.96,9.74 0.19,14.74 2.69,11.76 5.39,23.52 8.09,35.28 0.34,1.46 0.67,2.92 1.01,4.37 0.28,1.26 -0.71,4.85 1.42,3.5 2.99,-1.9 5.97,-3.8 8.95,-5.69 5.94,-3.78 11.89,-7.56 17.83,-11.35 11.79,-7.5 23.58,-15 35.36,-22.5 5.85,-3.72 11.69,-7.44 17.54,-11.16 8.7,-5.53 7.89,-14.01 10.44,-21.79 2.76,-8.4 5.51,-16.8 8.26,-25.21 2.77,-8.43 7.26,-16.11 8.3,-25.29 4.12,-36.52 8.25,-73.05 12.38,-109.58 1.05,-9.28 2.1,-18.57 3.14,-27.85 0.38,-3.31 -2.59,-3.44 -4.25,-4.9 -3.05,-2.66 -6.09,-5.33 -9.14,-8 -6.15,-5.39 -12.31,-10.78 -18.46,-16.16 -1.55,-1.36 -3.1,-2.72 -4.65,-4.08 -0.85,-0.75 -1.53,-0.71 -2.46,-0.15 -8.67,5.23 -17.35,10.46 -26.02,15.69 -16.87,10.18 -33.75,20.35 -50.61,30.52 -60.42,36.44 -120.84,72.87 -181.25,109.31 -92.14,55.57 -184.29,111.14 -276.43,166.71 -14.51,8.75 -29.02,17.5 -43.54,26.25 -3.45,2.09 -6.74,3.93 -8.93,7.68 -1.63,2.78 -3.26,5.57 -4.89,8.36 -3.26,5.57 -6.53,11.15 -9.78,16.72 -13.05,22.29 -26.1,44.58 -39.15,66.87z"/>
  <path id="C" class="fil5 str5" d="M1599 2374.79c-24.51,63.88 -49.02,127.75 -73.53,191.62 -3.18,8.27 -13.21,26.28 -12.14,36.56 0.48,4.64 0.96,9.28 1.44,13.91 0.96,9.22 1.92,18.45 2.88,27.68 1.89,18.25 3.79,36.51 5.68,54.76 0.94,9.03 1.88,18.06 2.81,27.09 0.99,9.48 23.07,59.65 26.34,67.94 9.65,24.52 19.3,49.04 28.94,73.56 13.61,34.59 27.22,69.18 40.83,103.77 6.75,17.15 13.49,34.3 20.24,51.45 3.36,8.54 6.72,17.08 10.08,25.61 3.16,8.03 4.31,16.63 9.58,24.07 9.17,12.93 18.33,25.86 27.5,38.8 2.45,3.44 25.92,37.33 29.63,40.05 54.21,39.73 108.42,79.46 162.63,119.2 27.86,20.42 55.73,40.84 83.59,61.26 18.2,13.34 37.73,24.44 53.38,41.54 9.23,10.08 18.46,20.17 27.68,30.25 4.63,5.06 9.26,10.12 13.89,15.18 2.33,2.54 0.69,5.04 0.78,7.6 0.09,2.52 0.17,5.05 0.26,7.57 0.34,10.05 0.68,20.1 1.02,30.14 0.34,9.96 0.68,19.92 1.01,29.88 0.17,4.95 0.34,9.89 0.5,14.84 0.11,3.28 -3.2,0.63 -4.92,-0.02 -2.21,-0.83 -4.42,-1.66 -6.63,-2.49 -8.78,-3.29 -17.57,-6.59 -26.35,-9.89 -16.25,-6.1 -27.76,-17.71 -40.96,-27.62 -27.86,-20.92 -55.71,-41.83 -83.58,-62.75 -40.62,-30.5 -81.24,-61 -121.86,-91.5 -24.59,-18.46 -49.91,-35.9 -73.2,-56.15 -11.95,-10.4 -23.25,-20.98 -32.42,-34.16 -6.39,-9.18 -12.77,-18.36 -19.16,-27.54 -12.74,-18.31 -25.49,-36.63 -38.23,-54.94 -8.29,-11.91 -15.99,-24.04 -22.3,-37.18 -12.13,-25.27 -22.38,-51.27 -32.87,-77.22 -42.09,-104.05 -84.19,-208.1 -126.28,-312.15 -8.05,-19.9 -15.4,-39.93 -20.99,-60.71 -5.17,-19.27 -5.41,-38.87 -7.7,-58.37 -2.32,-19.79 -4.65,-39.59 -6.97,-59.39 -3.03,-25.76 2.96,-47.99 11.59,-71.46 17.21,-46.84 34.43,-93.69 51.64,-140.53 8.87,-24.14 18.58,-47.95 26.55,-72.44 3.66,-11.26 7.99,-22.06 13.77,-32.44 2.48,-4.45 5.18,-8.72 8.23,-12.81 1.8,-2.43 4.36,-2.11 6.66,-2.92 4.37,-1.54 8.73,-3.07 13.1,-4.61 8.84,-3.1 17.68,-6.21 26.52,-9.32 8.98,-3.16 17.96,-6.31 26.93,-9.46 4.52,-1.59 26.83,8.11 30.08,9.59 18.11,8.25 34.59,19.08 51.56,29.19 80.31,47.87 160.61,95.75 240.91,143.62 12.11,7.22 24.22,14.43 36.32,21.65 9.39,5.6 19.74,9.13 27.84,17.31 3.76,3.8 7.53,7.6 11.3,11.4 7.56,7.63 15.11,15.25 22.66,22.88 3.79,3.83 7.58,7.65 11.37,11.48 3.59,3.63 8.22,5.83 8.44,12.23 0.32,9.44 0.65,18.88 0.97,28.32 0.64,18.68 1.28,37.36 1.92,56.04 0.19,5.47 0.38,10.94 0.56,16.41 0.09,2.73 0.19,5.46 0.28,8.18 0.07,2.08 1.36,5.55 -2.05,4.91 -8.49,-1.59 -16.99,-3.18 -25.48,-4.77 -10.15,-1.9 -20.31,-2.01 -29.79,-7.88 -53.27,-33 -106.55,-66.01 -159.83,-99.02 -43.44,-26.91 -86.87,-53.82 -130.31,-80.74 -9.45,-5.85 -18.89,-11.7 -28.34,-17.56 -2.3,-1.42 -4.26,-0.8 -6.54,-0.28 -3.2,0.73 -6.4,1.45 -9.6,2.17 -12.63,2.86 -25.27,5.72 -37.91,8.58z"/>
 </g>
</svg>
