<?xml version="1.0" encoding="UTF-8" standalone="no"?>
<!-- Creator: CorelDRAW 2021 (64-Bit) -->

<svg
   xml:space="preserve"
   width="4.6094627in"
   height="4.926569in"
   version="1.1"
   style="clip-rule:evenodd;fill-rule:evenodd;image-rendering:optimizeQuality;shape-rendering:geometricPrecision;text-rendering:geometricPrecision"
   viewBox="0 0 4624.9967 4943.1743"
   id="svg23"
   sodipodi:docname="CTCubed logo white silkscreen.svg"
   inkscape:version="1.2 (dc2aeda, 2022-05-15)"
   xmlns:inkscape="http://www.inkscape.org/namespaces/inkscape"
   xmlns:sodipodi="http://sodipodi.sourceforge.net/DTD/sodipodi-0.dtd"
   xmlns="http://www.w3.org/2000/svg"
   xmlns:svg="http://www.w3.org/2000/svg"><sodipodi:namedview
   id="namedview25"
   pagecolor="#ffffff"
   bordercolor="#000000"
   borderopacity="0.25"
   inkscape:showpageshadow="2"
   inkscape:pageopacity="0.0"
   inkscape:pagecheckerboard="0"
   inkscape:deskcolor="#d1d1d1"
   inkscape:document-units="in"
   showgrid="false"
   inkscape:zoom="1.5135646"
   inkscape:cx="164.84265"
   inkscape:cy="249.41123"
   inkscape:window-width="1800"
   inkscape:window-height="1097"
   inkscape:window-x="0"
   inkscape:window-y="44"
   inkscape:window-maximized="0"
   inkscape:current-layer="Layer_x0020_1" />
 <defs
   id="defs4">
  <style
   type="text/css"
   id="style2">
   <![CDATA[
    .str3 {stroke:#4D4D4D;stroke-width:3.01;stroke-miterlimit:2.61313;stroke-opacity:0.901961}
    .str0 {stroke:#F05500;stroke-width:111.48;stroke-miterlimit:2.61313}
    .str2 {stroke:#E6E6E6;stroke-width:3.01;stroke-miterlimit:2.61313}
    .str1 {stroke:#F05500;stroke-width:3.01;stroke-miterlimit:2.61313}
    .str5 {stroke:#F05500;stroke-width:3.01;stroke-miterlimit:4}
    .str4 {stroke:#F24F00;stroke-width:3.01;stroke-miterlimit:4}
    .fil0 {fill:#4D4D4D}
    .fil5 {fill:#4D4D4D;fill-rule:nonzero}
    .fil2 {fill:#E6E6E6;fill-rule:nonzero}
    .fil1 {fill:#F05500;fill-rule:nonzero}
    .fil4 {fill:#323232;fill-opacity:0.901961}
    .fil3 {fill:#F05500;fill-opacity:0.901961}
   ]]>
  </style>
 </defs>
 <g
   id="Layer_x0020_1"
   inkscape:label="Layer 1"
   inkscape:groupmode="layer"
   transform="translate(-151.40076,-162.62656)">
  <metadata
   id="CorelCorpID_0Corel-Layer" />
  
  <polygon
   class="fil0 str0"
   points="2457.26,5035.6 539.27,3570.3 212.39,1164.96 2457.26,222.97 4715.18,1148.48 4376.3,3563.34 "
   id="polygon9"
   style="fill:none;stroke-width:111.37410216;stroke-dasharray:none" />
  
  
  
  
  
  
  <path
   id="_3"
   class="fil1 str4"
   d="m 1776.38,1534.07 c 6.29,-4.67 12.58,-9.34 18.87,-14.02 11.73,-8.71 25.19,-12.61 38.15,-18.19 25.74,-11.08 51.47,-22.17 77.21,-33.26 45.9,-19.77 91.8,-39.54 137.7,-59.31 28.28,-12.18 56.57,-24.37 84.85,-36.54 12.6,-5.43 25.19,-10.86 37.8,-16.28 5.14,-2.22 10.29,-2.99 15.8,-3.21 49.97,-2.05 99.94,-4.1 149.91,-6.16 21.44,-0.88 42.88,-1.76 64.31,-2.64 10.71,-0.44 21.41,-0.88 32.12,-1.32 2.68,-0.11 5.35,-0.22 8.03,-0.33 4.72,-0.19 8.19,2.12 12.12,3.83 9.89,4.31 19.78,8.63 29.68,12.94 45.85,19.99 92.3,38.55 137.5,60.09 20.79,9.91 38.05,21.06 51.24,41.06 5.49,8.32 9.22,16.95 11.56,26.64 0.59,2.43 1.07,4.88 1.45,7.36 0.32,2.04 1.46,2.48 3.33,2.54 2.84,0.08 5.66,0.18 8.5,0.29 10.9,0.41 21.79,1.02 32.67,1.84 50.52,3.82 98.56,10.53 145.99,31.21 37.53,16.37 75.06,32.73 112.59,49.1 37.93,16.54 73.63,34.58 105.63,61.88 73.02,62.31 85.72,141.99 13.41,211.45 -30.42,29.22 -66.6,47.13 -102.34,67.23 -35.69,20.06 -71.38,40.13 -107.06,60.19 -71.39,40.13 -142.77,80.27 -214.16,120.4 -38.09,21.42 -100.72,20.67 -138.85,0.42 -51.3,-27.24 -102.59,-54.49 -153.89,-81.73 18.18,-9.63 36.36,-19.27 54.54,-28.9 40.54,-1.76 81.08,-3.52 121.63,-5.28 21.21,-0.92 40.4,-4.36 59.51,-14.68 46.89,-25.34 93.79,-50.67 140.68,-76.01 23.46,-12.67 46.91,-25.34 70.37,-38.02 23.45,-12.67 47.74,-22.3 66.79,-43.1 45.61,-49.8 1.7,-102.1 -39.27,-134.37 -42.98,-33.85 -91.71,-53.63 -140.33,-75.71 -24.75,-11.24 -48.56,-11.58 -74.54,-9.84 -13.89,0.94 -27.39,2.98 -40.82,6.78 -27.57,7.79 -51.39,22.36 -76.59,34.67 -39.59,19.35 -79.18,38.7 -118.78,58.05 -20.71,10.12 -39.86,22.82 -62.81,28.85 -20.31,5.33 -40.62,10.67 -60.94,16.01 -2.55,0.67 -5.1,1.34 -7.66,2.01 -2.42,0.64 -4.27,3 -7.35,1.47 -3.37,-1.67 -6.75,-3.35 -10.12,-5.02 -6.72,-3.33 -13.43,-6.67 -20.15,-10.01 -13.33,-6.62 -26.66,-13.24 -39.98,-19.85 -6.61,-3.29 -13.22,-6.57 -19.83,-9.85 -1.39,-0.69 -6.05,-0.64 -3.73,-2.61 1.43,-1.21 2.86,-2.43 4.29,-3.64 2.85,-2.42 5.7,-4.84 8.56,-7.26 6.01,-5.1 12.02,-10.2 18.03,-15.3 6.48,-5.5 12.29,-11.57 20.28,-15.34 45.86,-21.65 91.72,-43.3 137.58,-64.95 28.22,-13.32 56.67,-26.14 84.64,-39.99 5.32,-2.63 10.39,-5.54 15.17,-9.08 7.44,-5.52 13.22,-11.03 16.03,-20.43 7.89,-26.38 -24.08,-33.99 -40.19,-41.3 -22.06,-10.02 -44.13,-20.04 -66.19,-30.05 -8.64,-3.92 -16.34,-8.87 -26.77,-8.43 -6.65,0.28 -13.31,0.56 -19.96,0.84 -26.64,1.12 -53.29,2.24 -79.94,3.36 -6.77,0.28 -13.54,0.56 -20.32,0.85 -3.39,0.14 -6.77,0.28 -10.16,0.42 -6.35,0.26 -11.64,2.71 -17.2,5.19 -46.53,20.68 -93.07,41.36 -139.6,62.04 -26.34,11.7 -52.68,23.41 -79.02,35.12 -14.59,6.49 -29.18,12.97 -43.77,19.45 -8.99,3.99 -17.51,8.81 -27.26,11.2 -12.18,2.99 -24.37,5.97 -36.55,8.96 -34.11,-17.24 -68.23,-34.48 -102.34,-51.72 z" /><path
   id="Right"
   style="clip-rule:evenodd;fill-rule:evenodd;image-rendering:optimizeQuality;shape-rendering:geometricPrecision;text-rendering:geometricPrecision"
   class="fil3 str3"
   d="m 3811.2334,1679.9389 -1355.689,778.0856 v 1570.1748 l 1255.1927,-840.4287 z m -320.5347,411.212 c 0.93,-0.56 1.62,-0.6071 2.47,0.1429 l 4.6339,4.0827 c 6.15,5.38 12.3244,10.7776 18.4744,16.1676 3.05,2.67 6.0749,5.3421 9.1248,8.0021 1.66,1.46 4.6465,1.5893 4.2665,4.8993 -1.04,9.28 -2.0937,18.5642 -3.1437,27.8442 -4.13,36.5299 -8.2711,73.0603 -12.3911,109.5803 -1.04,9.18 -5.5179,16.8625 -8.2879,25.2925 -2.75,8.4099 -5.5075,16.8108 -8.2675,25.2108 -2.55,7.78 -1.7314,16.2513 -10.4314,21.7813 -5.85,3.72 -11.7057,7.4463 -17.5557,11.1663 -11.78,7.5 -23.5664,14.9958 -35.3564,22.4958 -5.94,3.79 -11.8811,7.5699 -17.8211,11.3499 -2.98,1.89 -5.9716,3.7954 -8.9616,5.6954 -2.1299,1.35 -1.1285,-2.2511 -1.4085,-3.5111 -0.34,-1.45 -0.6807,-2.9085 -1.0207,-4.3685 -2.7,-11.76 -5.3938,-23.5148 -8.0838,-35.2748 -1.15,-4.9999 -0.6737,-9.7886 -0.1837,-14.7386 0.22,-2.27 1.8618,-10.5464 -0.8982,-12.6564 -3.73,-2.86 -7.4771,-5.7138 -11.2071,-8.5737 -1.71,-1.31 -6.6763,2.9019 -7.7163,3.5519 -3.45,2.17 -6.9201,4.3316 -10.3701,6.4916 -7.18,4.4999 -14.3564,8.9934 -21.5364,13.4934 -15.49,9.6999 -30.9714,19.3894 -46.4614,29.0894 -8.33,5.22 -16.6459,10.4268 -24.9659,15.6368 -2.14,1.34 -4.2903,2.6815 -6.4303,4.0215 -7.1299,4.47 -4.675,10.7521 -5.185,16.882 -2.06,24.72 -4.1253,49.4428 -6.1853,74.1627 -13.66,163.5699 -27.3306,327.1432 -40.9906,490.7231 -5.35,64.1199 -10.7055,128.2376 -16.0655,192.3575 -1.31,15.74 -2.6298,31.4767 -3.9398,47.2167 -0.65,7.82 -1.3097,15.6253 -1.9597,23.4553 -0.6,7.1699 0.5227,14.3263 -1.8373,21.5363 -0.86,2.61 -1.7121,5.2289 -2.5721,7.8389 -3.41,10.3999 -6.8172,20.8024 -10.2272,31.2124 -1.7,5.18 -3.4034,10.3547 -5.1034,15.5347 -0.82,2.51 -0.8583,5.1323 -3.3683,7.0223 -2.02,1.52 -4.0532,3.0527 -6.0832,4.5727 -8.15,6.13 -16.2851,12.2422 -24.4351,18.3722 -16.54,12.43 -32.9922,24.9899 -49.4622,37.4999 -3.58,2.72 -3.4761,-5.2202 -4.2461,-7.4102 -1.11,-3.13 -2.2174,-6.2603 -3.3274,-9.3903 -1.11,-3.1399 -2.2378,-6.291 -3.3478,-9.431 -1.18,-3.33 -3.5566,-6.054 -3.2866,-10.064 11.18,-163.7798 22.3596,-327.5451 33.5396,-491.315 5.26,-77.0199 10.4993,-154.0314 15.7593,-231.0413 2.69,-39.47 5.3938,-78.9495 8.0838,-118.4194 l 1.0207,-14.9428 c 0.17,-2.49 0.3403,-4.9918 0.5103,-7.4918 0.08,-1.24 0.165,-2.4857 0.245,-3.7357 0.05,-0.72 1.1079,-2.9034 -0.1021,-2.1434 -1.78,1.12 -3.5584,2.2482 -5.3484,3.3682 -3.54,2.22 -7.0955,4.4349 -10.6355,6.6548 -26.7299,16.74 -53.4547,33.4776 -80.1847,50.2176 -7.78,4.87 -15.5627,9.7257 -23.3327,14.5957 -3.61,2.26 -8.0655,2.6627 -10.6355,7.0427 -1.27,2.18 -2.5474,4.3524 -3.8174,6.5324 -2.55,4.3499 -5.1051,8.6943 -7.6551,13.0443 -1.27,2.18 -2.5373,4.3523 -3.8173,6.5323 -1.25,2.14 -3.5653,3.4503 -3.7153,6.4303 -0.23,4.64 -0.4541,9.2925 -0.6941,13.9425 -0.34,6.95 -2.1848,13.3737 -4.1848,19.9237 l -16.2696,53.3408 c -0.68,2.21 -1.341,4.4348 -2.021,6.6548 -0.76,2.5 -2.9239,2.7174 -4.6339,3.8174 -3.42,2.21 -6.848,4.414 -10.268,6.614 l -20.5974,13.2893 c -13.8699,8.9499 -27.7429,17.9039 -41.6029,26.8439 -6.99,4.51 -13.9748,9.0038 -20.9648,13.5138 -3.37,2.17 -3.4236,-4.8378 -4.1236,-6.7977 -1.05,-2.96 -2.0937,-5.9304 -3.1437,-8.9004 -2.12,-5.97 -4.2386,-11.9532 -6.3486,-17.9231 -1.06,-3 -2.1245,-5.9925 -3.1845,-9.0025 -2.01,-5.6799 -1.966,-11.2353 -1.776,-17.0453 1.48,-44.8 2.9598,-89.6033 4.4298,-134.4033 l 0.02,-0.061 39.1533,-66.8547 c 3.25,-5.5699 6.5181,-11.1487 9.7781,-16.7187 1.63,-2.79 3.2693,-5.5896 4.8993,-8.3696 2.19,-3.75 5.4707,-5.5855 8.9207,-7.6755 14.52,-8.75 29.0323,-17.5019 43.5423,-26.2519 92.1399,-55.57 184.2809,-111.1481 276.4208,-166.7181 60.41,-36.4399 120.8326,-72.8545 181.2526,-109.2945 16.8599,-10.17 33.7353,-20.3384 50.6053,-30.5184 8.67,-5.2299 17.3574,-10.468 26.0274,-15.698 z" /><path
   id="Left"
   style="clip-rule:evenodd;fill-rule:evenodd;image-rendering:optimizeQuality;shape-rendering:geometricPrecision;text-rendering:geometricPrecision"
   class="fil3 str3"
   d="m 1086.7499,1679.9389 106.5387,1507.8113 1262.2558,840.4491 V 2458.0245 Z m 497.8474,501.1136 c 4.52,-1.59 26.8193,8.1144 30.0693,9.5944 18.1099,8.2499 34.5948,19.0814 51.5648,29.1914 80.3099,47.87 160.6012,95.7399 240.9011,143.6099 12.11,7.2199 24.2363,14.4388 36.3362,21.6588 9.39,5.6 19.7238,9.1308 27.8238,17.3108 3.76,3.8 7.5392,7.5908 11.3092,11.3908 7.5599,7.6299 15.1091,15.2536 22.6591,22.8836 3.79,3.83 7.5804,7.6425 11.3704,11.4725 3.59,3.63 8.2108,5.8277 8.4308,12.2277 0.32,9.44 0.6598,18.8942 0.9798,28.3341 l 1.9189,56.0354 c 0.19,5.47 0.3712,10.9426 0.5512,16.4126 0.09,2.73 0.1958,5.4454 0.2858,8.1654 0.07,2.08 1.3686,5.5597 -2.0414,4.9197 -8.49,-1.59 -16.9862,-3.1868 -25.4762,-4.7768 -10.15,-1.9 -20.3239,-2.0096 -29.8039,-7.8796 -53.2699,-33 -106.5383,-65.9961 -159.8182,-99.0061 -43.44,-26.91 -86.8806,-53.8363 -130.3206,-80.7563 -9.45,-5.85 -18.8841,-11.6957 -28.3341,-17.5557 -2.3,-1.42 -4.2727,-0.7854 -6.5527,-0.2654 -3.2,0.73 -6.3944,1.4439 -9.5944,2.1639 -12.63,2.86 -25.2681,5.7137 -37.9081,8.5737 l 0.061,0.041 c -24.51,63.88 -49.0199,127.7323 -73.5299,191.6023 -3.1799,8.27 -13.2161,26.2808 -12.1461,36.5608 0.48,4.64 0.949,9.2921 1.429,13.9221 0.96,9.2199 1.9183,18.4508 2.8783,27.6808 1.89,18.25 3.8054,36.4994 5.6954,54.7494 0.94,9.0299 1.8667,18.0588 2.7967,27.0888 0.99,9.48 23.084,59.667 26.354,67.957 9.65,24.5199 19.2861,49.0303 28.9261,73.5502 l 40.8272,103.7625 c 6.75,17.15 13.5003,34.3127 20.2503,51.4627 3.36,8.54 6.7244,17.0687 10.0843,25.5987 3.16,8.03 4.304,16.6277 9.574,24.0677 9.17,12.9299 18.3272,25.8663 27.4972,38.8062 2.45,3.44 25.9306,37.3316 29.6406,40.0516 54.2099,39.7299 108.4049,79.4551 162.6149,119.1951 27.8599,20.42 55.7338,40.8413 83.5937,61.2613 18.2,13.34 37.7317,24.4417 53.3817,41.5417 9.2299,10.08 18.4608,20.173 27.6808,30.253 l 13.9017,15.1877 c 2.33,2.54 0.6857,5.0339 0.7757,7.5939 0.09,2.52 0.155,5.0534 0.245,7.5734 0.34,10.05 0.6807,20.0905 1.0207,30.1305 0.34,9.96 0.6906,19.9256 1.0206,29.8856 0.17,4.95 0.33,9.8907 0.49,14.8407 0.11,3.28 -3.1997,0.6296 -4.9197,-0.02 l -6.614,-2.4905 c -8.78,-3.29 -17.574,-6.6006 -26.354,-9.9006 -16.25,-6.1 -27.7702,-17.7096 -40.9701,-27.6196 -27.86,-20.92 -55.7034,-41.8111 -83.5734,-62.7311 l -121.8693,-91.5142 c -24.59,-18.46 -49.8929,-35.8875 -73.1829,-56.1375 -11.9499,-10.4 -23.2672,-20.9924 -32.4372,-34.1724 -6.39,-9.18 -12.758,-18.358 -19.148,-27.538 -12.74,-18.31 -25.4947,-36.623 -38.2347,-54.933 -8.29,-11.91 -15.9817,-24.0537 -22.2917,-37.1936 -12.1299,-25.27 -22.3963,-51.2544 -32.8863,-77.2044 -42.09,-104.0499 -84.1887,-208.1151 -126.2787,-312.165 -8.0499,-19.9 -15.3952,-39.9302 -20.9852,-60.7102 -5.17,-19.2699 -5.4059,-38.8625 -7.6959,-58.3625 -2.32,-19.79 -4.641,-39.5832 -6.961,-59.3832 -3.03,-25.76 2.9445,-47.9981 11.5745,-71.4681 17.21,-46.84 34.4365,-93.6874 51.6464,-140.5274 8.87,-24.1399 18.5882,-47.9579 26.5582,-72.4479 3.66,-11.26 7.9788,-22.0573 13.7587,-32.4372 2.48,-4.45 5.1767,-8.7094 8.2267,-12.7994 1.8,-2.43 4.3753,-2.1091 6.6753,-2.9191 4.37,-1.54 8.7151,-3.0735 13.0851,-4.6135 8.84,-3.1 17.6773,-6.219 26.5173,-9.329 8.98,-3.16 17.976,-6.3015 26.946,-9.4515 z" />
  
  
 </g>
</svg>
