<?xml version="1.0" encoding="UTF-8" standalone="no"?>
<!-- Creator: CorelDRAW 2021 (64-Bit) -->

<svg
   xml:space="preserve"
   width="0.755723in"
   height="0.44368467in"
   version="1.1"
   style="clip-rule:evenodd;fill-rule:evenodd;image-rendering:optimizeQuality;shape-rendering:geometricPrecision;text-rendering:geometricPrecision"
   viewBox="0 0 758.26979 445.18013"
   id="svg6487"
   sodipodi:docname="CTCubed words - first word.svg"
   inkscape:version="1.2 (dc2aeda, 2022-05-15)"
   xmlns:inkscape="http://www.inkscape.org/namespaces/inkscape"
   xmlns:sodipodi="http://sodipodi.sourceforge.net/DTD/sodipodi-0.dtd"
   xmlns="http://www.w3.org/2000/svg"
   xmlns:svg="http://www.w3.org/2000/svg"><sodipodi:namedview
   id="namedview6489"
   pagecolor="#ffffff"
   bordercolor="#000000"
   borderopacity="0.25"
   inkscape:showpageshadow="2"
   inkscape:pageopacity="0.0"
   inkscape:pagecheckerboard="0"
   inkscape:deskcolor="#d1d1d1"
   inkscape:document-units="in"
   showgrid="false"
   inkscape:zoom="1.4151119"
   inkscape:cx="7.7732366"
   inkscape:cy="73.13909"
   inkscape:window-width="1800"
   inkscape:window-height="1097"
   inkscape:window-x="0"
   inkscape:window-y="44"
   inkscape:window-maximized="0"
   inkscape:current-layer="Layer_x0020_1" />
 <defs
   id="defs6468">
  <style
   type="text/css"
   id="style6466">
   <![CDATA[
    .str3 {stroke:#4D4D4D;stroke-width:3.01;stroke-miterlimit:2.61313;stroke-opacity:0.901961}
    .str0 {stroke:#F05500;stroke-width:111.48;stroke-miterlimit:2.61313}
    .str2 {stroke:#E6E6E6;stroke-width:3.01;stroke-miterlimit:2.61313}
    .str1 {stroke:#F05500;stroke-width:3.01;stroke-miterlimit:2.61313}
    .str5 {stroke:#F05500;stroke-width:3.01;stroke-miterlimit:4}
    .str4 {stroke:#F24F00;stroke-width:3.01;stroke-miterlimit:4}
    .fil0 {fill:#4D4D4D}
    .fil5 {fill:#4D4D4D;fill-rule:nonzero}
    .fil2 {fill:#E6E6E6;fill-rule:nonzero}
    .fil1 {fill:#F05500;fill-rule:nonzero}
    .fil4 {fill:#323232;fill-opacity:0.901961}
    .fil3 {fill:#F05500;fill-opacity:0.901961}
   ]]>
  </style>
 </defs>
 <g
   id="Layer_x0020_1"
   inkscape:label="Layer 1"
   inkscape:groupmode="layer"
   transform="translate(-240.665,-5235.495)">
  <metadata
   id="CorelCorpID_0Corel-Layer" />
  
  
  <path
   id="CT3"
   class="fil1 str1"
   d="m 696.09,5325.24 -36.64,25.51 c -20.16,-23.84 -44.4,-41.93 -72.75,-54.23 -28.23,-12.32 -59.27,-18.49 -93.21,-18.49 -36.97,0 -71.24,8.13 -102.83,24.25 -31.57,16.13 -55.92,37.83 -73.28,65 -17.35,27.17 -26.07,57.85 -26.07,91.78 0,51.4 19.39,94.31 58.19,128.61 38.8,34.41 87.72,51.61 146.9,51.61 64.97,0 119.28,-23.05 163.05,-69.19 l 36.64,25.21 c -23.18,26.69 -52.06,47.42 -86.64,61.97 -34.6,14.57 -73.3,21.9 -115.96,21.9 -81.26,0 -145.39,-24.54 -192.28,-73.6 -39.33,-41.36 -59.04,-91.39 -59.04,-149.94 0,-61.56 23.81,-113.46 71.44,-155.5 47.74,-42.11 107.45,-63.13 179.22,-63.13 43.32,0 82.44,7.72 117.37,23.16 34.9,15.53 63.58,37.24 85.88,65.09 z m 47.21,-36.64 v -41.06 h 254.13 v 41.06 H 893.97 v 380 h -47.21 v -380 z"
   sodipodi:nodetypes="cccsccscscccscscscccccccccccc" />
  
  
  
  
  
  
  
  
 </g>
</svg>
