<?xml version="1.0" encoding="UTF-8" standalone="no"?>
<!-- Creator: CorelDRAW 2021 (64-Bit) -->

<svg
   xml:space="preserve"
   width="2.7216754in"
   height="3.0235412in"
   version="1.1"
   style="clip-rule:evenodd;fill-rule:evenodd;image-rendering:optimizeQuality;shape-rendering:geometricPrecision;text-rendering:geometricPrecision"
   viewBox="0 0 2730.8475 3033.7323"
   id="svg23"
   sodipodi:docname="CTCubed black silkscreen.svg"
   inkscape:version="1.2 (dc2aeda, 2022-05-15)"
   xmlns:inkscape="http://www.inkscape.org/namespaces/inkscape"
   xmlns:sodipodi="http://sodipodi.sourceforge.net/DTD/sodipodi-0.dtd"
   xmlns="http://www.w3.org/2000/svg"
   xmlns:svg="http://www.w3.org/2000/svg"><sodipodi:namedview
   id="namedview25"
   pagecolor="#ffffff"
   bordercolor="#000000"
   borderopacity="0.25"
   inkscape:showpageshadow="2"
   inkscape:pageopacity="0.0"
   inkscape:pagecheckerboard="0"
   inkscape:deskcolor="#d1d1d1"
   inkscape:document-units="in"
   showgrid="false"
   inkscape:zoom="2.0716013"
   inkscape:cx="184.15706"
   inkscape:cy="163.88289"
   inkscape:window-width="1800"
   inkscape:window-height="1097"
   inkscape:window-x="0"
   inkscape:window-y="44"
   inkscape:window-maximized="0"
   inkscape:current-layer="Layer_x0020_1" />
 <defs
   id="defs4">
  <style
   type="text/css"
   id="style2">
   <![CDATA[
    .str3 {stroke:#4D4D4D;stroke-width:3.01;stroke-miterlimit:2.61313;stroke-opacity:0.901961}
    .str0 {stroke:#F05500;stroke-width:111.48;stroke-miterlimit:2.61313}
    .str2 {stroke:#E6E6E6;stroke-width:3.01;stroke-miterlimit:2.61313}
    .str1 {stroke:#F05500;stroke-width:3.01;stroke-miterlimit:2.61313}
    .str5 {stroke:#F05500;stroke-width:3.01;stroke-miterlimit:4}
    .str4 {stroke:#F24F00;stroke-width:3.01;stroke-miterlimit:4}
    .fil0 {fill:#4D4D4D}
    .fil5 {fill:#4D4D4D;fill-rule:nonzero}
    .fil2 {fill:#E6E6E6;fill-rule:nonzero}
    .fil1 {fill:#F05500;fill-rule:nonzero}
    .fil4 {fill:#323232;fill-opacity:0.901961}
    .fil3 {fill:#F05500;fill-opacity:0.901961}
   ]]>
  </style>
 </defs>
 <g
   id="Layer_x0020_1"
   inkscape:label="Layer 1"
   inkscape:groupmode="layer"
   transform="translate(-1083.559,-997.27742)">
  <metadata
   id="CorelCorpID_0Corel-Layer" />
  
  
  
  
  
  <polygon
   id="Left"
   class="fil3 str3"
   points="2455.54,4028.19 1193.28,3187.75 1086.76,1679.94 2455.54,2458.03 "
   style="fill:#ffffff;fill-opacity:0.89999998" />
  <polygon
   id="Right"
   class="fil3 str3"
   points="3710.74,3187.77 2455.54,4028.19 2455.54,2458.03 3811.23,1679.94 "
   style="fill:#ffffff;fill-opacity:0.89999998" />
  <polygon
   id="Top"
   class="fil4 str3"
   points="2455.54,2458.03 1086.76,1679.94 2455.54,998.96 3811.23,1679.94 "
   style="fill:#000000;fill-opacity:0.89999998" />
  <path
   id="_3"
   class="fil1 str4"
   d="m 1776.38,1534.07 c 6.29,-4.67 12.58,-9.34 18.87,-14.02 11.73,-8.71 25.19,-12.61 38.15,-18.19 25.74,-11.08 51.47,-22.17 77.21,-33.26 45.9,-19.77 91.8,-39.54 137.7,-59.31 28.28,-12.18 56.57,-24.37 84.85,-36.54 12.6,-5.43 25.19,-10.86 37.8,-16.28 5.14,-2.22 10.29,-2.99 15.8,-3.21 49.97,-2.05 99.94,-4.1 149.91,-6.16 21.44,-0.88 42.88,-1.76 64.31,-2.64 10.71,-0.44 21.41,-0.88 32.12,-1.32 2.68,-0.11 5.35,-0.22 8.03,-0.33 4.72,-0.19 8.19,2.12 12.12,3.83 9.89,4.31 19.78,8.63 29.68,12.94 45.85,19.99 92.3,38.55 137.5,60.09 20.79,9.91 38.05,21.06 51.24,41.06 5.49,8.32 9.22,16.95 11.56,26.64 0.59,2.43 1.07,4.88 1.45,7.36 0.32,2.04 1.46,2.48 3.33,2.54 2.84,0.08 5.66,0.18 8.5,0.29 10.9,0.41 21.79,1.02 32.67,1.84 50.52,3.82 98.56,10.53 145.99,31.21 37.53,16.37 75.06,32.73 112.59,49.1 37.93,16.54 73.63,34.58 105.63,61.88 73.02,62.31 85.72,141.99 13.41,211.45 -30.42,29.22 -66.6,47.13 -102.34,67.23 -35.69,20.06 -71.38,40.13 -107.06,60.19 -71.39,40.13 -142.77,80.27 -214.16,120.4 -38.09,21.42 -100.72,20.67 -138.85,0.42 -51.3,-27.24 -102.59,-54.49 -153.89,-81.73 18.18,-9.63 36.36,-19.27 54.54,-28.9 40.54,-1.76 81.08,-3.52 121.63,-5.28 21.21,-0.92 40.4,-4.36 59.51,-14.68 46.89,-25.34 93.79,-50.67 140.68,-76.01 23.46,-12.67 46.91,-25.34 70.37,-38.02 23.45,-12.67 47.74,-22.3 66.79,-43.1 45.61,-49.8 1.7,-102.1 -39.27,-134.37 -42.98,-33.85 -91.71,-53.63 -140.33,-75.71 -24.75,-11.24 -48.56,-11.58 -74.54,-9.84 -13.89,0.94 -27.39,2.98 -40.82,6.78 -27.57,7.79 -51.39,22.36 -76.59,34.67 -39.59,19.35 -79.18,38.7 -118.78,58.05 -20.71,10.12 -39.86,22.82 -62.81,28.85 -20.31,5.33 -40.62,10.67 -60.94,16.01 -2.55,0.67 -5.1,1.34 -7.66,2.01 -2.42,0.64 -4.27,3 -7.35,1.47 -3.37,-1.67 -6.75,-3.35 -10.12,-5.02 -6.72,-3.33 -13.43,-6.67 -20.15,-10.01 -13.33,-6.62 -26.66,-13.24 -39.98,-19.85 -6.61,-3.29 -13.22,-6.57 -19.83,-9.85 -1.39,-0.69 -6.05,-0.64 -3.73,-2.61 1.43,-1.21 2.86,-2.43 4.29,-3.64 2.85,-2.42 5.7,-4.84 8.56,-7.26 6.01,-5.1 12.02,-10.2 18.03,-15.3 6.48,-5.5 12.29,-11.57 20.28,-15.34 45.86,-21.65 91.72,-43.3 137.58,-64.95 28.22,-13.32 56.67,-26.14 84.64,-39.99 5.32,-2.63 10.39,-5.54 15.17,-9.08 7.44,-5.52 13.22,-11.03 16.03,-20.43 7.89,-26.38 -24.08,-33.99 -40.19,-41.3 -22.06,-10.02 -44.13,-20.04 -66.19,-30.05 -8.64,-3.92 -16.34,-8.87 -26.77,-8.43 -6.65,0.28 -13.31,0.56 -19.96,0.84 -26.64,1.12 -53.29,2.24 -79.94,3.36 -6.77,0.28 -13.54,0.56 -20.32,0.85 -3.39,0.14 -6.77,0.28 -10.16,0.42 -6.35,0.26 -11.64,2.71 -17.2,5.19 -46.53,20.68 -93.07,41.36 -139.6,62.04 -26.34,11.7 -52.68,23.41 -79.02,35.12 -14.59,6.49 -29.18,12.97 -43.77,19.45 -8.99,3.99 -17.51,8.81 -27.26,11.2 -12.18,2.99 -24.37,5.97 -36.55,8.96 -34.11,-17.24 -68.23,-34.48 -102.34,-51.72 z"
   style="fill:#ffffff;fill-opacity:1" />
  
  
 </g>
</svg>
