<?xml version="1.0" encoding="UTF-8" standalone="no"?>
<!-- Creator: CorelDRAW 2021 (64-Bit) -->

<svg
   xml:space="preserve"
   width="4.4304681in"
   height="0.44370458in"
   version="1.1"
   style="clip-rule:evenodd;fill-rule:evenodd;image-rendering:optimizeQuality;shape-rendering:geometricPrecision;text-rendering:geometricPrecision"
   viewBox="0 0 4445.3988 445.20011"
   id="svg6487"
   sodipodi:docname="CTCubed words.svg"
   inkscape:version="1.2 (dc2aeda, 2022-05-15)"
   xmlns:inkscape="http://www.inkscape.org/namespaces/inkscape"
   xmlns:sodipodi="http://sodipodi.sourceforge.net/DTD/sodipodi-0.dtd"
   xmlns="http://www.w3.org/2000/svg"
   xmlns:svg="http://www.w3.org/2000/svg"><sodipodi:namedview
   id="namedview6489"
   pagecolor="#ffffff"
   bordercolor="#000000"
   borderopacity="0.25"
   inkscape:showpageshadow="2"
   inkscape:pageopacity="0.0"
   inkscape:pagecheckerboard="0"
   inkscape:deskcolor="#d1d1d1"
   inkscape:document-units="in"
   showgrid="false"
   inkscape:zoom="0.95764116"
   inkscape:cx="19.840417"
   inkscape:cy="-119.56462"
   inkscape:window-width="1800"
   inkscape:window-height="1097"
   inkscape:window-x="0"
   inkscape:window-y="44"
   inkscape:window-maximized="0"
   inkscape:current-layer="Layer_x0020_1" />
 <defs
   id="defs6468">
  <style
   type="text/css"
   id="style6466">
   <![CDATA[
    .str3 {stroke:#4D4D4D;stroke-width:3.01;stroke-miterlimit:2.61313;stroke-opacity:0.901961}
    .str0 {stroke:#F05500;stroke-width:111.48;stroke-miterlimit:2.61313}
    .str2 {stroke:#E6E6E6;stroke-width:3.01;stroke-miterlimit:2.61313}
    .str1 {stroke:#F05500;stroke-width:3.01;stroke-miterlimit:2.61313}
    .str5 {stroke:#F05500;stroke-width:3.01;stroke-miterlimit:4}
    .str4 {stroke:#F24F00;stroke-width:3.01;stroke-miterlimit:4}
    .fil0 {fill:#4D4D4D}
    .fil5 {fill:#4D4D4D;fill-rule:nonzero}
    .fil2 {fill:#E6E6E6;fill-rule:nonzero}
    .fil1 {fill:#F05500;fill-rule:nonzero}
    .fil4 {fill:#323232;fill-opacity:0.901961}
    .fil3 {fill:#F05500;fill-opacity:0.901961}
   ]]>
  </style>
 </defs>
 <g
   id="Layer_x0020_1"
   inkscape:label="Layer 1"
   inkscape:groupmode="layer"
   transform="translate(-240.665,-5235.475)">
  <metadata
   id="CorelCorpID_0Corel-Layer" />
  
  
  <path
   id="CT3"
   class="fil1 str1"
   d="m 696.09,5325.24 -36.64,25.51 c -20.16,-23.84 -44.4,-41.93 -72.75,-54.23 -28.23,-12.32 -59.27,-18.49 -93.21,-18.49 -36.97,0 -71.24,8.13 -102.83,24.25 -31.57,16.13 -55.92,37.83 -73.28,65 -17.35,27.17 -26.07,57.85 -26.07,91.78 0,51.4 19.39,94.31 58.19,128.61 38.8,34.41 87.72,51.61 146.9,51.61 64.97,0 119.28,-23.05 163.05,-69.19 l 36.64,25.21 c -23.18,26.69 -52.06,47.42 -86.64,61.97 -34.6,14.57 -73.3,21.9 -115.96,21.9 -81.26,0 -145.39,-24.54 -192.28,-73.6 -39.33,-41.36 -59.04,-91.39 -59.04,-149.94 0,-61.56 23.81,-113.46 71.44,-155.5 47.74,-42.11 107.45,-63.13 179.22,-63.13 43.32,0 82.44,7.72 117.37,23.16 34.9,15.53 63.58,37.24 85.88,65.09 z m 47.21,-36.64 v -41.06 h 254.13 v 41.06 H 893.97 v 380 h -47.21 v -380 z m 932.85,36.64 -36.64,25.51 c -20.16,-23.84 -44.4,-41.93 -72.74,-54.23 -28.23,-12.32 -59.27,-18.49 -93.21,-18.49 -36.97,0 -71.24,8.13 -102.83,24.25 -31.57,16.13 -55.92,37.83 -73.28,65 -17.35,27.17 -26.07,57.85 -26.07,91.78 0,51.4 19.39,94.31 58.18,128.61 38.8,34.41 87.72,51.61 146.9,51.61 64.97,0 119.28,-23.05 163.05,-69.19 l 36.64,25.21 c -23.18,26.69 -52.05,47.42 -86.64,61.97 -34.6,14.57 -73.29,21.9 -115.96,21.9 -81.26,0 -145.39,-24.54 -192.28,-73.6 -39.33,-41.36 -59.04,-91.39 -59.04,-149.94 0,-61.56 23.81,-113.46 71.44,-155.5 47.74,-42.11 107.45,-63.13 179.22,-63.13 43.32,0 82.44,7.72 117.37,23.16 34.91,15.53 63.58,37.24 85.88,65.09 z m 80.18,31.97 h 43.97 v 145.32 c 0,35.48 2.16,59.83 6.35,73.22 6.25,19.06 18.43,34.11 36.21,45.16 17.8,11.04 39.12,16.6 63.81,16.6 24.68,0 45.6,-5.38 62.83,-16.13 17.15,-10.84 29.1,-24.91 35.56,-42.52 4.42,-12.02 6.7,-37.42 6.7,-76.34 V 5357.2 h 45.25 v 152.65 c 0,42.9 -5.5,75.17 -16.6,96.86 -11,21.79 -27.7,38.8 -49.9,51.03 -22.2,12.3 -50,18.47 -83.52,18.47 -33.52,0 -61.42,-6.17 -83.84,-18.47 -22.43,-12.23 -39.23,-29.42 -50.22,-51.42 -11.1,-21.98 -16.6,-55.11 -16.6,-99.29 V 5357.2 Z m 402.11,311.38 v -431.61 h 43.97 v 174.17 c 18.53,-20.63 39.23,-36.07 62.18,-46.23 22.95,-10.27 48.06,-15.35 75.34,-15.35 48.59,0 90.1,15.94 124.48,47.8 34.38,31.95 51.63,70.56 51.63,116.1 0,44.86 -17.35,83.28 -52.06,115.03 -34.7,31.77 -76.41,47.71 -125.23,47.71 -28.02,0 -53.36,-5.38 -76.09,-16.13 -22.75,-10.75 -42.79,-26.98 -60.24,-48.78 v 57.28 h -43.97 z m 177.06,-31.08 c 24.46,0 47.21,-5.47 67.9,-16.31 20.79,-10.95 37.29,-26.3 49.57,-46.04 12.28,-19.63 18.43,-40.56 18.43,-62.56 0,-21.98 -6.15,-43 -18.53,-62.93 -12.4,-19.86 -29,-35.39 -49.9,-46.53 -20.91,-11.04 -43.22,-16.62 -66.94,-16.62 -24.03,0 -46.98,5.58 -68.75,16.62 -21.65,11.14 -38.35,26.1 -50,44.86 -11.63,18.76 -17.46,39.88 -17.46,63.43 0,35.87 13.04,65.88 39.23,89.91 26.09,24.14 58.19,36.16 96.45,36.16 z m 550.72,-72.12 37.29,17.78 c -12.3,21.61 -26.42,39.1 -42.46,52.38 -16.07,13.21 -34.07,23.37 -54.11,30.31 -20.14,6.94 -42.79,10.36 -68.1,10.36 -56.25,0 -100.12,-16.62 -131.81,-49.85 -31.69,-33.23 -47.51,-70.76 -47.51,-112.59 0,-39.4 13.46,-74.58 40.3,-105.35 33.93,-39.19 79.53,-58.84 136.53,-58.84 58.74,0 105.72,20.13 140.75,60.3 24.89,28.36 37.62,63.72 38.05,106.24 h -310.38 c 0.85,36.07 13.68,65.59 38.37,88.55 24.78,23.07 55.39,34.59 91.71,34.59 17.57,0 34.7,-2.73 51.3,-8.2 16.6,-5.47 30.71,-12.71 42.36,-21.79 11.63,-9.09 24.23,-23.66 37.72,-43.88 z m 0.43,-83.86 c -5.93,-21.41 -14.56,-38.42 -25.87,-51.22 -11.42,-12.8 -26.42,-23.07 -45.05,-30.88 -18.66,-7.83 -38.27,-11.73 -58.74,-11.73 -33.95,0 -63.05,9.77 -87.41,29.42 -17.88,14.35 -31.24,35.76 -40.4,64.41 z m 472.57,-244.54 v 431.61 h -43.97 v -53.56 c -18.55,20.43 -39.25,35.77 -62.3,45.93 -22.95,10.18 -48.17,15.26 -75.43,15.26 -48.49,0 -90,-15.94 -124.37,-47.8 -34.38,-31.95 -51.51,-70.67 -51.51,-116.4 0,-44.68 17.35,-82.99 52.06,-114.76 34.58,-31.75 76.29,-47.69 125.11,-47.69 28.13,0 53.56,5.47 76.41,16.33 22.75,10.84 42.79,27.17 60.04,48.96 v -177.88 h 43.97 z m -176.96,151.29 c -24.58,0 -47.31,5.49 -68,16.42 -20.81,10.86 -37.29,26.21 -49.59,45.95 -12.28,19.72 -18.41,40.65 -18.41,62.74 0,21.79 6.13,42.7 18.53,62.65 12.38,19.93 28.98,35.48 49.9,46.53 20.9,11.14 43.32,16.7 67.25,16.7 24.03,0 46.98,-5.47 68.53,-16.51 21.67,-11.04 38.27,-25.89 49.9,-44.75 11.65,-18.76 17.48,-39.99 17.48,-63.54 0,-35.87 -13.06,-65.88 -39.25,-90.02 -26.07,-24.14 -58.18,-36.16 -96.33,-36.16 z m 456.83,-140.74 h 46.56 v 421.06 h -46.56 z m 145.5,109.68 h 43.97 v 55.8 c 17.78,-21.3 37.39,-37.24 58.84,-47.69 21.57,-10.45 44.95,-15.73 70.26,-15.73 25.76,0 48.62,5.85 68.55,17.69 19.94,11.82 34.7,27.76 44.2,47.78 9.47,19.94 14.21,51.12 14.21,93.44 v 160.1 h -43.97 v -148.37 c 0,-35.78 -1.73,-59.72 -5.07,-71.74 -5.38,-20.52 -15.3,-35.96 -29.84,-46.42 -14.56,-10.36 -33.53,-15.55 -56.9,-15.55 -26.84,0 -50.88,8.02 -71.99,24.05 -21.24,15.94 -35.26,35.78 -41.94,59.42 -4.2,15.44 -6.35,43.59 -6.35,84.56 v 114.05 h -43.97 v -311.38 z m 727.98,64.7 -35.03,19.75 c -30.39,-36.37 -71.87,-54.55 -124.48,-54.55 -42.02,0 -76.94,12.21 -104.74,36.55 -27.7,24.35 -41.61,53.86 -41.61,88.66 0,22.66 6.36,43.97 19.19,63.9 12.73,19.95 30.28,35.48 52.6,46.53 22.2,11.04 47.19,16.51 74.89,16.51 50.65,0 92.03,-18.18 124.15,-54.52 l 35.03,20.9 c -16.5,22.39 -38.57,39.69 -66.27,52.1 -27.82,12.3 -59.38,18.47 -94.84,18.47 -54.54,0 -99.69,-15.64 -135.58,-46.82 -35.88,-31.27 -53.77,-69.19 -53.77,-113.96 0,-30.01 8.39,-57.96 25.21,-83.76 16.7,-25.8 39.76,-45.94 69.08,-60.4 29.41,-14.46 62.18,-21.7 98.49,-21.7 22.85,0 44.85,3.12 66.07,9.38 21.12,6.26 39.12,14.46 53.89,24.53 14.86,10.07 27.37,22.86 37.72,38.42 z m 133.19,183.35 c 10.78,0 19.84,3.42 27.49,10.27 7.54,6.92 11.31,15.24 11.31,25.21 0,9.77 -3.77,18.08 -11.31,25.03 -7.66,6.92 -16.72,10.45 -27.49,10.45 -10.67,0 -19.81,-3.53 -27.47,-10.45 -7.55,-6.94 -11.32,-15.26 -11.32,-25.03 0,-9.97 3.77,-18.29 11.32,-25.21 7.66,-6.85 16.8,-10.27 27.47,-10.27 z" />
  
  
  
  
  
  
  
  
 </g>
</svg>
