<?xml version="1.0" encoding="UTF-8" standalone="no"?>
<!-- Creator: CorelDRAW 2021 (64-Bit) -->

<svg
   xml:space="preserve"
   width="4.9110284in"
   height="5.2529268in"
   version="1.1"
   style="clip-rule:evenodd;fill-rule:evenodd;image-rendering:optimizeQuality;shape-rendering:geometricPrecision;text-rendering:geometricPrecision"
   viewBox="0 0 4927.5786 5270.6322"
   id="svg23"
   sodipodi:docname="CTCubed logo front mask.svg"
   inkscape:version="1.2 (dc2aeda, 2022-05-15)"
   inkscape:export-filename="CTCubed logo front mask.png"
   inkscape:export-xdpi="1600"
   inkscape:export-ydpi="1600"
   xmlns:inkscape="http://www.inkscape.org/namespaces/inkscape"
   xmlns:sodipodi="http://sodipodi.sourceforge.net/DTD/sodipodi-0.dtd"
   xmlns="http://www.w3.org/2000/svg"
   xmlns:svg="http://www.w3.org/2000/svg"><sodipodi:namedview
   id="namedview25"
   pagecolor="#ffffff"
   bordercolor="#000000"
   borderopacity="0.25"
   inkscape:showpageshadow="2"
   inkscape:pageopacity="0.0"
   inkscape:pagecheckerboard="0"
   inkscape:deskcolor="#d1d1d1"
   inkscape:document-units="in"
   showgrid="false"
   inkscape:zoom="1.7453663"
   inkscape:cx="181.33729"
   inkscape:cy="254.10139"
   inkscape:window-width="1800"
   inkscape:window-height="1097"
   inkscape:window-x="0"
   inkscape:window-y="45"
   inkscape:window-maximized="0"
   inkscape:current-layer="Layer_x0020_1" />
 <defs
   id="defs4">
  <style
   type="text/css"
   id="style2">
   <![CDATA[
    .str3 {stroke:#4D4D4D;stroke-width:3.01;stroke-miterlimit:2.61313;stroke-opacity:0.901961}
    .str0 {stroke:#F05500;stroke-width:111.48;stroke-miterlimit:2.61313}
    .str2 {stroke:#E6E6E6;stroke-width:3.01;stroke-miterlimit:2.61313}
    .str1 {stroke:#F05500;stroke-width:3.01;stroke-miterlimit:2.61313}
    .str5 {stroke:#F05500;stroke-width:3.01;stroke-miterlimit:4}
    .str4 {stroke:#F24F00;stroke-width:3.01;stroke-miterlimit:4}
    .fil0 {fill:#4D4D4D}
    .fil5 {fill:#4D4D4D;fill-rule:nonzero}
    .fil2 {fill:#E6E6E6;fill-rule:nonzero}
    .fil1 {fill:#F05500;fill-rule:nonzero}
    .fil4 {fill:#323232;fill-opacity:0.901961}
    .fil3 {fill:#F05500;fill-opacity:0.901961}
   ]]>
  </style>
 </defs>
 <g
   id="Layer_x0020_1"
   inkscape:label="Layer 1"
   inkscape:groupmode="layer"
   transform="translate(0.01)">
  <metadata
   id="CorelCorpID_0Corel-Layer" />
  <path
   class="fil0"
   d="M 0,1029.28 2456.64,0 4927.57,1011.27 4568.7179,3646.8905 2459.3361,5270.631 369.70791,3654.4905 -0.01,1029.27 Z"
   id="path7"
   sodipodi:nodetypes="cccccccc" />
  <polygon
   class="fil0 str0"
   points="4715.18,1148.48 4376.3,3563.34 2457.26,5035.6 539.27,3570.3 212.39,1164.96 2457.26,222.97 "
   id="polygon9" />
  
  
  
  <polygon
   id="Left"
   class="fil3 str3"
   points="1086.76,1679.94 2455.54,2458.03 2455.54,4028.19 1193.28,3187.75 " />
  <polygon
   id="Right"
   class="fil3 str3"
   points="2455.54,2458.03 3811.23,1679.94 3710.74,3187.77 2455.54,4028.19 " />
  <polygon
   id="Top"
   class="fil4 str3"
   points="2455.54,998.96 3811.23,1679.94 2455.54,2458.03 1086.76,1679.94 " />
  <path
   id="_3"
   class="fil1 str4"
   d="m 1776.38,1534.07 c 6.29,-4.67 12.58,-9.34 18.87,-14.02 11.73,-8.71 25.19,-12.61 38.15,-18.19 25.74,-11.08 51.47,-22.17 77.21,-33.26 45.9,-19.77 91.8,-39.54 137.7,-59.31 28.28,-12.18 56.57,-24.37 84.85,-36.54 12.6,-5.43 25.19,-10.86 37.8,-16.28 5.14,-2.22 10.29,-2.99 15.8,-3.21 49.97,-2.05 99.94,-4.1 149.91,-6.16 21.44,-0.88 42.88,-1.76 64.31,-2.64 10.71,-0.44 21.41,-0.88 32.12,-1.32 2.68,-0.11 5.35,-0.22 8.03,-0.33 4.72,-0.19 8.19,2.12 12.12,3.83 9.89,4.31 19.78,8.63 29.68,12.94 45.85,19.99 92.3,38.55 137.5,60.09 20.79,9.91 38.05,21.06 51.24,41.06 5.49,8.32 9.22,16.95 11.56,26.64 0.59,2.43 1.07,4.88 1.45,7.36 0.32,2.04 1.46,2.48 3.33,2.54 2.84,0.08 5.66,0.18 8.5,0.29 10.9,0.41 21.79,1.02 32.67,1.84 50.52,3.82 98.56,10.53 145.99,31.21 37.53,16.37 75.06,32.73 112.59,49.1 37.93,16.54 73.63,34.58 105.63,61.88 73.02,62.31 85.72,141.99 13.41,211.45 -30.42,29.22 -66.6,47.13 -102.34,67.23 -35.69,20.06 -71.38,40.13 -107.06,60.19 -71.39,40.13 -142.77,80.27 -214.16,120.4 -38.09,21.42 -100.72,20.67 -138.85,0.42 -51.3,-27.24 -102.59,-54.49 -153.89,-81.73 18.18,-9.63 36.36,-19.27 54.54,-28.9 40.54,-1.76 81.08,-3.52 121.63,-5.28 21.21,-0.92 40.4,-4.36 59.51,-14.68 46.89,-25.34 93.79,-50.67 140.68,-76.01 23.46,-12.67 46.91,-25.34 70.37,-38.02 23.45,-12.67 47.74,-22.3 66.79,-43.1 45.61,-49.8 1.7,-102.1 -39.27,-134.37 -42.98,-33.85 -91.71,-53.63 -140.33,-75.71 -24.75,-11.24 -48.56,-11.58 -74.54,-9.84 -13.89,0.94 -27.39,2.98 -40.82,6.78 -27.57,7.79 -51.39,22.36 -76.59,34.67 -39.59,19.35 -79.18,38.7 -118.78,58.05 -20.71,10.12 -39.86,22.82 -62.81,28.85 -20.31,5.33 -40.62,10.67 -60.94,16.01 -2.55,0.67 -5.1,1.34 -7.66,2.01 -2.42,0.64 -4.27,3 -7.35,1.47 -3.37,-1.67 -6.75,-3.35 -10.12,-5.02 -6.72,-3.33 -13.43,-6.67 -20.15,-10.01 -13.33,-6.62 -26.66,-13.24 -39.98,-19.85 -6.61,-3.29 -13.22,-6.57 -19.83,-9.85 -1.39,-0.69 -6.05,-0.64 -3.73,-2.61 1.43,-1.21 2.86,-2.43 4.29,-3.64 2.85,-2.42 5.7,-4.84 8.56,-7.26 6.01,-5.1 12.02,-10.2 18.03,-15.3 6.48,-5.5 12.29,-11.57 20.28,-15.34 45.86,-21.65 91.72,-43.3 137.58,-64.95 28.22,-13.32 56.67,-26.14 84.64,-39.99 5.32,-2.63 10.39,-5.54 15.17,-9.08 7.44,-5.52 13.22,-11.03 16.03,-20.43 7.89,-26.38 -24.08,-33.99 -40.19,-41.3 -22.06,-10.02 -44.13,-20.04 -66.19,-30.05 -8.64,-3.92 -16.34,-8.87 -26.77,-8.43 -6.65,0.28 -13.31,0.56 -19.96,0.84 -26.64,1.12 -53.29,2.24 -79.94,3.36 -6.77,0.28 -13.54,0.56 -20.32,0.85 -3.39,0.14 -6.77,0.28 -10.16,0.42 -6.35,0.26 -11.64,2.71 -17.2,5.19 -46.53,20.68 -93.07,41.36 -139.6,62.04 -26.34,11.7 -52.68,23.41 -79.02,35.12 -14.59,6.49 -29.18,12.97 -43.77,19.45 -8.99,3.99 -17.51,8.81 -27.26,11.2 -12.18,2.99 -24.37,5.97 -36.55,8.96 -34.11,-17.24 -68.23,-34.48 -102.34,-51.72 z" />
  <path
   id="T"
   class="fil5 str5"
   d="m 2850.07,2539.31 c -1.47,44.8 -2.94,89.6 -4.42,134.4 -0.19,5.81 -0.24,11.36 1.77,17.04 1.06,3.01 2.13,6.01 3.19,9.01 2.11,5.97 4.22,11.95 6.34,17.92 1.05,2.97 2.1,5.94 3.15,8.9 0.7,1.96 0.75,8.98 4.12,6.81 6.99,-4.51 13.99,-9.02 20.98,-13.53 13.86,-8.94 27.72,-17.88 41.59,-26.83 6.87,-4.43 13.74,-8.86 20.61,-13.29 3.42,-2.2 6.84,-4.41 10.26,-6.62 1.71,-1.1 3.87,-1.32 4.63,-3.82 0.68,-2.22 1.35,-4.43 2.03,-6.64 5.42,-17.78 10.84,-35.56 16.26,-53.34 2,-6.55 3.85,-12.98 4.19,-19.93 0.24,-4.65 0.47,-9.3 0.7,-13.94 0.15,-2.98 2.45,-4.29 3.7,-6.43 1.28,-2.18 2.55,-4.35 3.82,-6.53 2.55,-4.35 5.1,-8.71 7.65,-13.06 1.27,-2.18 2.55,-4.35 3.82,-6.53 2.57,-4.38 7.04,-4.78 10.65,-7.04 7.77,-4.87 15.54,-9.73 23.32,-14.6 26.73,-16.74 53.46,-33.47 80.19,-50.21 3.54,-2.22 7.09,-4.44 10.63,-6.66 1.79,-1.12 3.58,-2.24 5.36,-3.36 1.21,-0.76 0.15,1.42 0.1,2.14 -0.08,1.25 -0.17,2.5 -0.25,3.74 -0.17,2.5 -0.34,4.99 -0.51,7.48 -0.34,4.98 -0.68,9.96 -1.02,14.94 -2.69,39.47 -5.39,78.95 -8.08,118.42 -5.26,77.01 -10.51,154.02 -15.77,231.04 -11.18,163.77 -22.36,327.55 -33.54,491.33 -0.27,4.01 2.12,6.73 3.3,10.06 1.11,3.14 2.23,6.29 3.34,9.43 1.11,3.13 2.21,6.26 3.32,9.39 0.77,2.19 0.67,10.12 4.25,7.4 16.47,-12.51 32.92,-25.06 49.46,-37.49 8.15,-6.13 16.29,-12.25 24.44,-18.38 2.03,-1.52 4.06,-3.05 6.08,-4.57 2.51,-1.89 2.56,-4.5 3.38,-7.01 1.7,-5.18 3.4,-10.37 5.1,-15.55 3.41,-10.41 6.82,-20.81 10.23,-31.21 0.86,-2.61 1.71,-5.22 2.57,-7.83 2.36,-7.21 1.24,-14.36 1.84,-21.53 0.65,-7.83 1.31,-15.65 1.96,-23.47 1.31,-15.74 2.63,-31.47 3.94,-47.21 5.36,-64.12 10.71,-128.23 16.06,-192.35 13.66,-163.58 27.32,-327.17 40.98,-490.74 2.06,-24.72 4.13,-49.43 6.19,-74.15 0.51,-6.13 -1.94,-12.42 5.19,-16.89 2.14,-1.34 4.29,-2.68 6.43,-4.02 8.32,-5.21 16.64,-10.42 24.97,-15.64 15.49,-9.7 30.97,-19.39 46.46,-29.09 7.18,-4.5 14.36,-8.99 21.54,-13.49 3.45,-2.16 6.91,-4.32 10.36,-6.49 1.04,-0.65 6.01,-4.86 7.72,-3.55 3.73,2.86 7.47,5.71 11.2,8.57 2.76,2.11 1.12,10.39 0.9,12.66 -0.49,4.95 -0.96,9.74 0.19,14.74 2.69,11.76 5.39,23.52 8.09,35.28 0.34,1.46 0.67,2.92 1.01,4.37 0.28,1.26 -0.71,4.85 1.42,3.5 2.99,-1.9 5.97,-3.8 8.95,-5.69 5.94,-3.78 11.89,-7.56 17.83,-11.35 11.79,-7.5 23.58,-15 35.36,-22.5 5.85,-3.72 11.69,-7.44 17.54,-11.16 8.7,-5.53 7.89,-14.01 10.44,-21.79 2.76,-8.4 5.51,-16.8 8.26,-25.21 2.77,-8.43 7.26,-16.11 8.3,-25.29 4.12,-36.52 8.25,-73.05 12.38,-109.58 1.05,-9.28 2.1,-18.57 3.14,-27.85 0.38,-3.31 -2.59,-3.44 -4.25,-4.9 -3.05,-2.66 -6.09,-5.33 -9.14,-8 -6.15,-5.39 -12.31,-10.78 -18.46,-16.16 -1.55,-1.36 -3.1,-2.72 -4.65,-4.08 -0.85,-0.75 -1.53,-0.71 -2.46,-0.15 -8.67,5.23 -17.35,10.46 -26.02,15.69 -16.87,10.18 -33.75,20.35 -50.61,30.52 -60.42,36.44 -120.84,72.87 -181.25,109.31 -92.14,55.57 -184.29,111.14 -276.43,166.71 -14.51,8.75 -29.02,17.5 -43.54,26.25 -3.45,2.09 -6.74,3.93 -8.93,7.68 -1.63,2.78 -3.26,5.57 -4.89,8.36 -3.26,5.57 -6.53,11.15 -9.78,16.72 -13.05,22.29 -26.1,44.58 -39.15,66.87 z" />
  <path
   id="C"
   class="fil5 str5"
   d="m 1599,2374.79 c -24.51,63.88 -49.02,127.75 -73.53,191.62 -3.18,8.27 -13.21,26.28 -12.14,36.56 0.48,4.64 0.96,9.28 1.44,13.91 0.96,9.22 1.92,18.45 2.88,27.68 1.89,18.25 3.79,36.51 5.68,54.76 0.94,9.03 1.88,18.06 2.81,27.09 0.99,9.48 23.07,59.65 26.34,67.94 9.65,24.52 19.3,49.04 28.94,73.56 13.61,34.59 27.22,69.18 40.83,103.77 6.75,17.15 13.49,34.3 20.24,51.45 3.36,8.54 6.72,17.08 10.08,25.61 3.16,8.03 4.31,16.63 9.58,24.07 9.17,12.93 18.33,25.86 27.5,38.8 2.45,3.44 25.92,37.33 29.63,40.05 54.21,39.73 108.42,79.46 162.63,119.2 27.86,20.42 55.73,40.84 83.59,61.26 18.2,13.34 37.73,24.44 53.38,41.54 9.23,10.08 18.46,20.17 27.68,30.25 4.63,5.06 9.26,10.12 13.89,15.18 2.33,2.54 0.69,5.04 0.78,7.6 0.09,2.52 0.17,5.05 0.26,7.57 0.34,10.05 0.68,20.1 1.02,30.14 0.34,9.96 0.68,19.92 1.01,29.88 0.17,4.95 0.34,9.89 0.5,14.84 0.11,3.28 -3.2,0.63 -4.92,-0.02 -2.21,-0.83 -4.42,-1.66 -6.63,-2.49 -8.78,-3.29 -17.57,-6.59 -26.35,-9.89 -16.25,-6.1 -27.76,-17.71 -40.96,-27.62 -27.86,-20.92 -55.71,-41.83 -83.58,-62.75 -40.62,-30.5 -81.24,-61 -121.86,-91.5 -24.59,-18.46 -49.91,-35.9 -73.2,-56.15 -11.95,-10.4 -23.25,-20.98 -32.42,-34.16 -6.39,-9.18 -12.77,-18.36 -19.16,-27.54 -12.74,-18.31 -25.49,-36.63 -38.23,-54.94 -8.29,-11.91 -15.99,-24.04 -22.3,-37.18 -12.13,-25.27 -22.38,-51.27 -32.87,-77.22 -42.09,-104.05 -84.19,-208.1 -126.28,-312.15 -8.05,-19.9 -15.4,-39.93 -20.99,-60.71 -5.17,-19.27 -5.41,-38.87 -7.7,-58.37 -2.32,-19.79 -4.65,-39.59 -6.97,-59.39 -3.03,-25.76 2.96,-47.99 11.59,-71.46 17.21,-46.84 34.43,-93.69 51.64,-140.53 8.87,-24.14 18.58,-47.95 26.55,-72.44 3.66,-11.26 7.99,-22.06 13.77,-32.44 2.48,-4.45 5.18,-8.72 8.23,-12.81 1.8,-2.43 4.36,-2.11 6.66,-2.92 4.37,-1.54 8.73,-3.07 13.1,-4.61 8.84,-3.1 17.68,-6.21 26.52,-9.32 8.98,-3.16 17.96,-6.31 26.93,-9.46 4.52,-1.59 26.83,8.11 30.08,9.59 18.11,8.25 34.59,19.08 51.56,29.19 80.31,47.87 160.61,95.75 240.91,143.62 12.11,7.22 24.22,14.43 36.32,21.65 9.39,5.6 19.74,9.13 27.84,17.31 3.76,3.8 7.53,7.6 11.3,11.4 7.56,7.63 15.11,15.25 22.66,22.88 3.79,3.83 7.58,7.65 11.37,11.48 3.59,3.63 8.22,5.83 8.44,12.23 0.32,9.44 0.65,18.88 0.97,28.32 0.64,18.68 1.28,37.36 1.92,56.04 0.19,5.47 0.38,10.94 0.56,16.41 0.09,2.73 0.19,5.46 0.28,8.18 0.07,2.08 1.36,5.55 -2.05,4.91 -8.49,-1.59 -16.99,-3.18 -25.48,-4.77 -10.15,-1.9 -20.31,-2.01 -29.79,-7.88 -53.27,-33 -106.55,-66.01 -159.83,-99.02 -43.44,-26.91 -86.87,-53.82 -130.31,-80.74 -9.45,-5.85 -18.89,-11.7 -28.34,-17.56 -2.3,-1.42 -4.26,-0.8 -6.54,-0.28 -3.2,0.73 -6.4,1.45 -9.6,2.17 -12.63,2.86 -25.27,5.72 -37.91,8.58 z" />
 </g>
</svg>
