<?xml version="1.0" encoding="UTF-8" standalone="no"?>
<!-- Creator: CorelDRAW 2021 (64-Bit) -->

<svg
   xml:space="preserve"
   width="1.0449582in"
   height="0.43024993in"
   version="1.1"
   style="clip-rule:evenodd;fill-rule:evenodd;image-rendering:optimizeQuality;shape-rendering:geometricPrecision;text-rendering:geometricPrecision"
   viewBox="0 0 1048.4798 431.70011"
   id="svg6487"
   sodipodi:docname="CTCubed words - third word.svg"
   inkscape:version="1.2 (dc2aeda, 2022-05-15)"
   xmlns:inkscape="http://www.inkscape.org/namespaces/inkscape"
   xmlns:sodipodi="http://sodipodi.sourceforge.net/DTD/sodipodi-0.dtd"
   xmlns="http://www.w3.org/2000/svg"
   xmlns:svg="http://www.w3.org/2000/svg"><sodipodi:namedview
   id="namedview6489"
   pagecolor="#ffffff"
   bordercolor="#000000"
   borderopacity="0.25"
   inkscape:showpageshadow="2"
   inkscape:pageopacity="0.0"
   inkscape:pagecheckerboard="0"
   inkscape:deskcolor="#d1d1d1"
   inkscape:document-units="in"
   showgrid="false"
   inkscape:zoom="1.4151119"
   inkscape:cx="-236.02373"
   inkscape:cy="35.686223"
   inkscape:window-width="1800"
   inkscape:window-height="1097"
   inkscape:window-x="0"
   inkscape:window-y="44"
   inkscape:window-maximized="0"
   inkscape:current-layer="Layer_x0020_1" />
 <defs
   id="defs6468">
  <style
   type="text/css"
   id="style6466">
   <![CDATA[
    .str3 {stroke:#4D4D4D;stroke-width:3.01;stroke-miterlimit:2.61313;stroke-opacity:0.901961}
    .str0 {stroke:#F05500;stroke-width:111.48;stroke-miterlimit:2.61313}
    .str2 {stroke:#E6E6E6;stroke-width:3.01;stroke-miterlimit:2.61313}
    .str1 {stroke:#F05500;stroke-width:3.01;stroke-miterlimit:2.61313}
    .str5 {stroke:#F05500;stroke-width:3.01;stroke-miterlimit:4}
    .str4 {stroke:#F24F00;stroke-width:3.01;stroke-miterlimit:4}
    .fil0 {fill:#4D4D4D}
    .fil5 {fill:#4D4D4D;fill-rule:nonzero}
    .fil2 {fill:#E6E6E6;fill-rule:nonzero}
    .fil1 {fill:#F05500;fill-rule:nonzero}
    .fil4 {fill:#323232;fill-opacity:0.901961}
    .fil3 {fill:#F05500;fill-opacity:0.901961}
   ]]>
  </style>
 </defs>
 <g
   id="Layer_x0020_1"
   inkscape:label="Layer 1"
   inkscape:groupmode="layer"
   transform="translate(-3637.585,-5246.035)">
  <metadata
   id="CorelCorpID_0Corel-Layer" />
  
  
  <path
   id="CT3"
   class="fil1 str1"
   d="m 3639.09,5247.54 h 46.56 v 421.06 h -46.56 z m 145.5,109.68 h 43.97 v 55.8 c 17.78,-21.3 37.39,-37.24 58.84,-47.69 21.57,-10.45 44.95,-15.73 70.26,-15.73 25.76,0 48.62,5.85 68.55,17.69 19.94,11.82 34.7,27.76 44.2,47.78 9.47,19.94 14.21,51.12 14.21,93.44 v 160.1 h -43.97 v -148.37 c 0,-35.78 -1.73,-59.72 -5.07,-71.74 -5.38,-20.52 -15.3,-35.96 -29.84,-46.42 -14.56,-10.36 -33.53,-15.55 -56.9,-15.55 -26.84,0 -50.88,8.02 -71.99,24.05 -21.24,15.94 -35.26,35.78 -41.94,59.42 -4.2,15.44 -6.35,43.59 -6.35,84.56 v 114.05 h -43.97 v -311.38 z m 727.98,64.7 -35.03,19.75 c -30.39,-36.37 -71.87,-54.55 -124.48,-54.55 -42.02,0 -76.94,12.21 -104.74,36.55 -27.7,24.35 -41.61,53.86 -41.61,88.66 0,22.66 6.36,43.97 19.19,63.9 12.73,19.95 30.28,35.48 52.6,46.53 22.2,11.04 47.19,16.51 74.89,16.51 50.65,0 92.03,-18.18 124.15,-54.52 l 35.03,20.9 c -16.5,22.39 -38.57,39.69 -66.27,52.1 -27.82,12.3 -59.38,18.47 -94.84,18.47 -54.54,0 -99.69,-15.64 -135.58,-46.82 -35.88,-31.27 -53.77,-69.19 -53.77,-113.96 0,-30.01 8.39,-57.96 25.21,-83.76 16.7,-25.8 39.76,-45.94 69.08,-60.4 29.41,-14.46 62.18,-21.7 98.49,-21.7 22.85,0 44.85,3.12 66.07,9.38 21.12,6.26 39.12,14.46 53.89,24.53 14.86,10.07 27.37,22.86 37.72,38.42 z m 133.19,183.35 c 10.78,0 19.84,3.42 27.49,10.27 7.54,6.92 11.31,15.24 11.31,25.21 0,9.77 -3.77,18.08 -11.31,25.03 -7.66,6.92 -16.72,10.45 -27.49,10.45 -10.67,0 -19.81,-3.53 -27.47,-10.45 -7.55,-6.94 -11.32,-15.26 -11.32,-25.03 0,-9.97 3.77,-18.29 11.32,-25.21 7.66,-6.85 16.8,-10.27 27.47,-10.27 z"
   sodipodi:nodetypes="cccccccccsccsccsccsccsccccccscsccscccscsccsccccscscscscs" />
  
  
  
  
  
  
  
  
 </g>
</svg>
