G04 #@! TF.GenerationSoftware,KiCad,Pcbnew,(6.99.0-2103-gdc6c27b686)*
G04 #@! TF.CreationDate,2022-07-02T21:52:12+09:00*
G04 #@! TF.ProjectId,an225,616e3232-352e-46b6-9963-61645f706362,rev?*
G04 #@! TF.SameCoordinates,Original*
G04 #@! TF.FileFunction,Legend,Top*
G04 #@! TF.FilePolarity,Positive*
%FSLAX46Y46*%
G04 Gerber Fmt 4.6, Leading zero omitted, Abs format (unit mm)*
G04 Created by KiCad (PCBNEW (6.99.0-2103-gdc6c27b686)) date 2022-07-02 21:52:12*
%MOMM*%
%LPD*%
G01*
G04 APERTURE LIST*
%ADD10C,0.150000*%
%ADD11R,1.700000X1.700000*%
%ADD12O,1.700000X1.700000*%
G04 APERTURE END LIST*
D10*
G36*
X119983090Y-45976213D02*
G01*
X120145461Y-46084765D01*
X120258011Y-46166179D01*
X120387586Y-46265685D01*
X120531272Y-46383283D01*
X120686154Y-46518972D01*
X120849320Y-46672754D01*
X121017854Y-46844628D01*
X121103224Y-46937350D01*
X121188843Y-47034594D01*
X121274348Y-47136361D01*
X121359373Y-47242652D01*
X121443556Y-47353465D01*
X121526530Y-47468802D01*
X121607933Y-47588661D01*
X121687400Y-47713043D01*
X121764567Y-47841949D01*
X121839069Y-47975377D01*
X121910543Y-48113328D01*
X121978623Y-48255803D01*
X122226802Y-48809436D01*
X122448034Y-49333060D01*
X122644070Y-49839162D01*
X122816662Y-50340229D01*
X122967560Y-50848748D01*
X123098516Y-51377205D01*
X123211281Y-51938087D01*
X123307606Y-52543880D01*
X123389241Y-53207072D01*
X123457939Y-53940149D01*
X123515450Y-54755597D01*
X123563525Y-55665904D01*
X123603915Y-56683555D01*
X123638373Y-57821038D01*
X123696491Y-60505446D01*
X123744011Y-62927196D01*
X123800755Y-64760518D01*
X123839386Y-65487393D01*
X123888486Y-66104210D01*
X123950773Y-66623319D01*
X124028968Y-67057069D01*
X124125793Y-67417809D01*
X124243967Y-67717890D01*
X124386212Y-67969661D01*
X124555247Y-68185471D01*
X124753793Y-68377671D01*
X124984570Y-68558609D01*
X125553703Y-68936101D01*
X126262920Y-69388688D01*
X126546904Y-69565841D01*
X126788386Y-69709681D01*
X126990803Y-69819792D01*
X127157592Y-69895758D01*
X127228699Y-69920807D01*
X127292187Y-69937164D01*
X127348486Y-69944777D01*
X127398026Y-69943594D01*
X127441235Y-69933564D01*
X127478544Y-69914633D01*
X127510381Y-69886751D01*
X127537178Y-69849866D01*
X127559362Y-69803925D01*
X127577363Y-69748876D01*
X127591612Y-69684669D01*
X127602537Y-69611250D01*
X127616136Y-69436570D01*
X127621594Y-69224422D01*
X127621838Y-68686059D01*
X127624796Y-68230961D01*
X127631821Y-68046835D01*
X127645503Y-67888965D01*
X127655533Y-67819245D01*
X127668059Y-67755331D01*
X127683358Y-67696971D01*
X127701707Y-67643913D01*
X127723385Y-67595903D01*
X127748668Y-67552691D01*
X127777833Y-67514023D01*
X127811158Y-67479647D01*
X127848921Y-67449310D01*
X127891398Y-67422759D01*
X127938867Y-67399744D01*
X127991605Y-67380010D01*
X128049889Y-67363306D01*
X128113998Y-67349378D01*
X128184207Y-67337976D01*
X128260795Y-67328845D01*
X128434216Y-67316390D01*
X128636479Y-67309995D01*
X129136404Y-67307302D01*
X129402987Y-67307881D01*
X129636177Y-67311934D01*
X129838077Y-67322936D01*
X129927950Y-67332129D01*
X130010790Y-67344362D01*
X130086860Y-67360068D01*
X130156421Y-67379684D01*
X130219738Y-67403642D01*
X130277073Y-67432378D01*
X130328690Y-67466325D01*
X130374851Y-67505918D01*
X130415819Y-67551591D01*
X130451857Y-67603779D01*
X130483228Y-67662915D01*
X130510196Y-67729434D01*
X130533022Y-67803770D01*
X130551971Y-67886358D01*
X130567305Y-67977632D01*
X130579287Y-68078026D01*
X130588180Y-68187975D01*
X130594247Y-68307912D01*
X130598955Y-68579489D01*
X130595515Y-68896233D01*
X130572605Y-69679117D01*
X130550743Y-70464439D01*
X130549785Y-70786970D01*
X130559325Y-71069815D01*
X130582252Y-71318278D01*
X130599637Y-71431273D01*
X130621451Y-71537660D01*
X130648055Y-71638102D01*
X130679810Y-71733261D01*
X130717077Y-71823802D01*
X130760217Y-71910385D01*
X130809591Y-71993674D01*
X130865559Y-72074332D01*
X130928483Y-72153021D01*
X130998723Y-72230404D01*
X131076641Y-72307143D01*
X131162597Y-72383902D01*
X131360067Y-72540129D01*
X131594022Y-72704385D01*
X131867348Y-72881973D01*
X132543662Y-73298350D01*
X133354491Y-73788744D01*
X134047191Y-74201840D01*
X134548246Y-74494195D01*
X134703933Y-74581519D01*
X134784141Y-74622365D01*
X134793934Y-74624314D01*
X134803604Y-74622320D01*
X134813137Y-74616477D01*
X134822521Y-74606876D01*
X134831744Y-74593610D01*
X134840794Y-74576770D01*
X134849659Y-74556449D01*
X134858326Y-74532738D01*
X134875018Y-74475517D01*
X134890772Y-74405842D01*
X134905491Y-74324451D01*
X134919076Y-74232078D01*
X134931429Y-74129462D01*
X134942454Y-74017338D01*
X134952051Y-73896442D01*
X134960122Y-73767511D01*
X134966571Y-73631281D01*
X134971298Y-73488489D01*
X134974207Y-73339870D01*
X134975198Y-73186162D01*
X134978165Y-72686819D01*
X134985211Y-72484792D01*
X134998933Y-72311573D01*
X135008993Y-72235075D01*
X135021556Y-72164947D01*
X135036901Y-72100913D01*
X135055305Y-72042697D01*
X135077047Y-71990020D01*
X135102405Y-71942606D01*
X135131657Y-71900179D01*
X135165081Y-71862460D01*
X135202956Y-71829174D01*
X135245560Y-71800043D01*
X135293170Y-71774789D01*
X135346064Y-71753137D01*
X135404522Y-71734809D01*
X135468821Y-71719527D01*
X135539240Y-71707016D01*
X135616055Y-71696998D01*
X135789992Y-71683332D01*
X135992856Y-71676315D01*
X136494268Y-71673360D01*
X136761643Y-71673971D01*
X136995514Y-71678244D01*
X137197982Y-71689842D01*
X137288096Y-71699533D01*
X137371146Y-71712428D01*
X137447395Y-71728987D01*
X137517106Y-71749665D01*
X137580541Y-71774922D01*
X137637962Y-71805215D01*
X137689632Y-71841002D01*
X137735814Y-71882741D01*
X137776769Y-71930889D01*
X137812761Y-71985905D01*
X137844051Y-72048246D01*
X137870903Y-72118371D01*
X137893579Y-72196736D01*
X137912341Y-72283800D01*
X137927452Y-72380020D01*
X137939174Y-72485855D01*
X137947770Y-72601762D01*
X137953502Y-72728200D01*
X137957425Y-73014496D01*
X137953042Y-73348406D01*
X137927760Y-74173720D01*
X137901537Y-75000233D01*
X137894917Y-75336988D01*
X137894484Y-75628823D01*
X137901630Y-75880300D01*
X137917748Y-76095978D01*
X137944232Y-76280419D01*
X137982475Y-76438184D01*
X138033871Y-76573833D01*
X138064936Y-76634790D01*
X138099813Y-76691928D01*
X138181694Y-76797029D01*
X138280907Y-76893697D01*
X138398847Y-76986492D01*
X138536906Y-77079977D01*
X138878956Y-77287255D01*
X139363114Y-77577414D01*
X139914942Y-77914176D01*
X140466489Y-78255766D01*
X140949806Y-78560408D01*
X141412681Y-78853646D01*
X141599089Y-78965446D01*
X141758328Y-79051909D01*
X141828428Y-79085140D01*
X141892538Y-79111440D01*
X141950925Y-79130609D01*
X142003857Y-79142447D01*
X142051600Y-79146756D01*
X142094423Y-79143336D01*
X142132593Y-79131988D01*
X142166377Y-79112513D01*
X142196041Y-79084712D01*
X142221855Y-79048385D01*
X142244085Y-79003333D01*
X142262997Y-78949357D01*
X142278861Y-78886259D01*
X142291942Y-78813837D01*
X142302509Y-78731895D01*
X142310829Y-78640231D01*
X142321795Y-78426945D01*
X142326980Y-78172385D01*
X142328562Y-77533072D01*
X142331536Y-76964201D01*
X142338599Y-76734044D01*
X142352352Y-76536706D01*
X142362435Y-76449555D01*
X142375027Y-76369663D01*
X142390407Y-76296713D01*
X142408854Y-76230391D01*
X142430646Y-76170380D01*
X142456062Y-76116364D01*
X142485382Y-76068029D01*
X142518883Y-76025059D01*
X142556845Y-75987137D01*
X142599547Y-75953950D01*
X142647266Y-75925180D01*
X142700283Y-75900513D01*
X142758875Y-75879633D01*
X142823322Y-75862223D01*
X142893903Y-75847970D01*
X142970895Y-75836557D01*
X143145232Y-75820989D01*
X143348564Y-75812994D01*
X143851130Y-75809628D01*
X144119116Y-75810261D01*
X144353503Y-75814688D01*
X144556374Y-75826704D01*
X144646643Y-75836744D01*
X144729815Y-75850104D01*
X144806151Y-75867259D01*
X144875912Y-75888683D01*
X144939357Y-75914850D01*
X144996748Y-75946235D01*
X145048346Y-75983311D01*
X145094410Y-76026554D01*
X145135202Y-76076438D01*
X145170982Y-76133436D01*
X145202011Y-76198024D01*
X145228550Y-76270675D01*
X145250859Y-76351864D01*
X145269198Y-76442066D01*
X145283829Y-76541754D01*
X145295012Y-76651403D01*
X145303007Y-76771487D01*
X145308076Y-76902480D01*
X145310476Y-77199093D01*
X145304297Y-77545037D01*
X145274542Y-78400092D01*
X145258833Y-78857075D01*
X145255779Y-79263112D01*
X145262226Y-79450078D01*
X145275710Y-79627970D01*
X145297522Y-79798009D01*
X145328954Y-79961417D01*
X145371297Y-80119414D01*
X145425843Y-80273221D01*
X145493882Y-80424059D01*
X145576706Y-80573150D01*
X145675607Y-80721713D01*
X145791874Y-80870970D01*
X145926801Y-81022143D01*
X146081677Y-81176451D01*
X146257795Y-81335116D01*
X146456445Y-81499360D01*
X146678919Y-81670401D01*
X146926508Y-81849463D01*
X147200503Y-82037766D01*
X147502195Y-82236530D01*
X148193838Y-82670328D01*
X149011767Y-83160624D01*
X149966311Y-83717186D01*
X152326565Y-85068180D01*
X155150115Y-86696959D01*
X157363220Y-88029152D01*
X158263392Y-88603406D01*
X159037996Y-89126767D01*
X159696045Y-89606985D01*
X160246556Y-90051812D01*
X160698540Y-90469000D01*
X161061014Y-90866298D01*
X161342991Y-91251459D01*
X161553486Y-91632233D01*
X161701512Y-92016371D01*
X161796085Y-92411625D01*
X161846218Y-92825746D01*
X161860926Y-93266485D01*
X161862506Y-93346060D01*
X161866277Y-93420856D01*
X161874583Y-93555212D01*
X161876214Y-93614322D01*
X161874227Y-93667755D01*
X161867170Y-93715287D01*
X161861286Y-93736769D01*
X161853590Y-93756691D01*
X161843901Y-93775026D01*
X161832036Y-93791745D01*
X161817815Y-93806820D01*
X161801056Y-93820223D01*
X161781577Y-93831926D01*
X161759196Y-93841901D01*
X161733733Y-93850120D01*
X161705005Y-93856554D01*
X161672832Y-93861176D01*
X161637031Y-93863958D01*
X161553820Y-93863889D01*
X161453922Y-93856121D01*
X161335884Y-93840431D01*
X161198253Y-93816594D01*
X161039577Y-93784384D01*
X160858404Y-93743579D01*
X160653283Y-93693953D01*
X160422759Y-93635281D01*
X160165382Y-93567340D01*
X159564258Y-93402749D01*
X158838292Y-93198386D01*
X157975866Y-92952452D01*
X155795164Y-92328692D01*
X151674705Y-91159402D01*
X149815662Y-90643453D01*
X149738177Y-90624954D01*
X149612653Y-90591626D01*
X149243708Y-90487994D01*
X148761259Y-90347584D01*
X148217738Y-90185424D01*
X147673378Y-90023143D01*
X147188647Y-89882399D01*
X146816325Y-89778270D01*
X146609193Y-89725838D01*
X146530792Y-89707382D01*
X146406769Y-89674778D01*
X146047270Y-89574377D01*
X145581517Y-89439150D01*
X145060331Y-89283607D01*
X144525372Y-89124237D01*
X144022113Y-88978599D01*
X143607102Y-88862791D01*
X143336892Y-88792916D01*
X142918415Y-88680085D01*
X142099715Y-88447330D01*
X140998997Y-88128612D01*
X139734466Y-87757889D01*
X131939561Y-85508279D01*
X131902204Y-85502158D01*
X131861324Y-85493982D01*
X131769580Y-85472193D01*
X131665501Y-85444364D01*
X131550261Y-85411948D01*
X131290988Y-85339165D01*
X131149302Y-85301702D01*
X131001145Y-85265462D01*
X130731482Y-85183428D01*
X130407572Y-85107398D01*
X130036794Y-85037549D01*
X129626524Y-84974055D01*
X128717029Y-84866834D01*
X127738114Y-84787134D01*
X126748807Y-84736354D01*
X125808136Y-84715894D01*
X124975129Y-84727155D01*
X124617446Y-84745118D01*
X124308814Y-84771535D01*
X124258343Y-84771839D01*
X124211002Y-84773962D01*
X124188467Y-84776274D01*
X124166669Y-84779724D01*
X124145592Y-84784539D01*
X124125220Y-84790947D01*
X124105539Y-84799174D01*
X124086532Y-84809448D01*
X124068184Y-84821997D01*
X124050480Y-84837048D01*
X124033404Y-84854829D01*
X124016941Y-84875567D01*
X124001075Y-84899490D01*
X123985792Y-84926825D01*
X123971074Y-84957799D01*
X123956908Y-84992641D01*
X123943277Y-85031577D01*
X123930166Y-85074835D01*
X123917560Y-85122643D01*
X123905443Y-85175227D01*
X123893800Y-85232817D01*
X123882615Y-85295638D01*
X123871873Y-85363918D01*
X123861558Y-85437885D01*
X123842149Y-85603790D01*
X123824263Y-85795172D01*
X123807778Y-86013852D01*
X123792569Y-86261648D01*
X123778513Y-86540380D01*
X123765487Y-86851869D01*
X123753366Y-87197934D01*
X123742027Y-87580395D01*
X123731347Y-88001072D01*
X123721201Y-88461785D01*
X123711467Y-88964353D01*
X123692737Y-90102334D01*
X123674167Y-91429574D01*
X123633553Y-94710065D01*
X123575289Y-98642744D01*
X123505173Y-102003651D01*
X123432028Y-104436015D01*
X123364677Y-105583065D01*
X123339791Y-105748579D01*
X123331151Y-105825471D01*
X123326375Y-105899705D01*
X123326460Y-105972220D01*
X123332402Y-106043956D01*
X123345198Y-106115851D01*
X123354478Y-106152151D01*
X123365845Y-106188844D01*
X123379424Y-106226046D01*
X123395340Y-106263875D01*
X123413716Y-106302448D01*
X123434679Y-106341883D01*
X123484859Y-106423807D01*
X123546877Y-106510586D01*
X123621729Y-106603159D01*
X123710413Y-106702466D01*
X123813925Y-106809445D01*
X123933261Y-106925036D01*
X124069419Y-107050178D01*
X124223395Y-107185810D01*
X124396186Y-107332871D01*
X124588788Y-107492300D01*
X124802199Y-107665036D01*
X125037415Y-107852019D01*
X125295433Y-108054188D01*
X125577249Y-108272481D01*
X126216264Y-108761199D01*
X126962433Y-109325686D01*
X128808132Y-110712018D01*
X130654522Y-112093802D01*
X132044540Y-113115160D01*
X132589639Y-113500933D01*
X133046120Y-113808903D01*
X133422475Y-114043171D01*
X133727196Y-114207839D01*
X133968774Y-114307007D01*
X134068538Y-114333310D01*
X134155701Y-114344776D01*
X134231324Y-114341917D01*
X134296469Y-114325247D01*
X134352197Y-114295278D01*
X134399569Y-114252522D01*
X134439648Y-114197493D01*
X134473493Y-114130702D01*
X134526734Y-113963887D01*
X134605128Y-113511678D01*
X134639130Y-113295913D01*
X134674515Y-113102554D01*
X134711171Y-112931339D01*
X134748988Y-112782007D01*
X134787856Y-112654294D01*
X134827664Y-112547940D01*
X134868303Y-112462683D01*
X134909661Y-112398260D01*
X134951628Y-112354410D01*
X134994095Y-112330871D01*
X135015481Y-112326636D01*
X135036951Y-112327381D01*
X135080084Y-112343678D01*
X135123386Y-112379500D01*
X135166745Y-112434585D01*
X135210052Y-112508672D01*
X135253196Y-112601499D01*
X135296066Y-112712803D01*
X135338552Y-112842323D01*
X135380545Y-112989796D01*
X135421933Y-113154962D01*
X135502454Y-113537322D01*
X135579232Y-113987307D01*
X135651386Y-114502823D01*
X135718033Y-115081773D01*
X135778288Y-115722064D01*
X135831271Y-116421599D01*
X135856516Y-116980244D01*
X135860452Y-117561871D01*
X135845151Y-118155219D01*
X135812686Y-118749026D01*
X135765132Y-119332031D01*
X135704561Y-119892971D01*
X135633047Y-120420584D01*
X135552663Y-120903609D01*
X135465481Y-121330785D01*
X135373576Y-121690848D01*
X135279021Y-121972538D01*
X135183889Y-122164592D01*
X135136754Y-122223486D01*
X135090252Y-122255749D01*
X135044643Y-122259971D01*
X135000186Y-122234746D01*
X134957139Y-122178666D01*
X134915762Y-122090323D01*
X134839054Y-121811217D01*
X134818722Y-121717664D01*
X134797970Y-121632403D01*
X134776768Y-121555392D01*
X134755085Y-121486591D01*
X134732889Y-121425957D01*
X134710150Y-121373449D01*
X134686837Y-121329026D01*
X134662919Y-121292647D01*
X134650723Y-121277460D01*
X134638364Y-121264269D01*
X134625838Y-121253067D01*
X134613142Y-121243851D01*
X134600270Y-121236615D01*
X134587221Y-121231352D01*
X134573989Y-121228060D01*
X134560571Y-121226731D01*
X134546962Y-121227361D01*
X134533160Y-121229946D01*
X134519160Y-121234478D01*
X134504958Y-121240954D01*
X134490550Y-121249369D01*
X134475933Y-121259716D01*
X134446055Y-121286190D01*
X134430922Y-121300806D01*
X134415834Y-121314340D01*
X134400787Y-121326790D01*
X134385776Y-121338155D01*
X134370796Y-121348435D01*
X134355842Y-121357629D01*
X134340911Y-121365737D01*
X134325996Y-121372757D01*
X134311092Y-121378690D01*
X134296197Y-121383533D01*
X134281303Y-121387288D01*
X134266407Y-121389952D01*
X134251505Y-121391525D01*
X134236590Y-121392006D01*
X134221658Y-121391395D01*
X134206705Y-121389691D01*
X134191726Y-121386894D01*
X134176715Y-121383001D01*
X134161669Y-121378014D01*
X134146582Y-121371931D01*
X134131449Y-121364751D01*
X134116266Y-121356473D01*
X134101029Y-121347098D01*
X134085731Y-121336624D01*
X134070368Y-121325050D01*
X134054937Y-121312376D01*
X134039431Y-121298601D01*
X134023846Y-121283724D01*
X134008177Y-121267745D01*
X133992419Y-121250662D01*
X133976568Y-121232476D01*
X133960619Y-121213186D01*
X133360980Y-120869465D01*
X131918934Y-120139301D01*
X127622360Y-118052579D01*
X123300374Y-116018901D01*
X121826563Y-115355041D01*
X121182453Y-115104146D01*
X121174068Y-115105123D01*
X121165235Y-115108021D01*
X121155978Y-115112792D01*
X121146320Y-115119389D01*
X121136285Y-115127764D01*
X121125898Y-115137869D01*
X121115181Y-115149655D01*
X121104160Y-115163076D01*
X121092857Y-115178083D01*
X121081296Y-115194628D01*
X121057499Y-115232143D01*
X121032959Y-115275237D01*
X121007866Y-115323527D01*
X120982412Y-115376631D01*
X120956787Y-115434166D01*
X120931183Y-115495749D01*
X120905790Y-115560997D01*
X120880799Y-115629526D01*
X120856402Y-115700955D01*
X120832788Y-115774900D01*
X120810149Y-115850979D01*
X120791873Y-115907982D01*
X120770724Y-115962123D01*
X120746931Y-116013471D01*
X120720718Y-116062095D01*
X120692314Y-116108064D01*
X120661943Y-116151446D01*
X120629833Y-116192312D01*
X120596209Y-116230729D01*
X120561299Y-116266767D01*
X120525328Y-116300495D01*
X120488522Y-116331983D01*
X120451109Y-116361298D01*
X120375365Y-116413689D01*
X120299905Y-116458221D01*
X120226541Y-116495445D01*
X120157083Y-116525914D01*
X120093343Y-116550181D01*
X120037132Y-116568797D01*
X119954537Y-116591287D01*
X119923786Y-116597802D01*
X119923786Y-45940029D01*
X119983090Y-45976213D01*
G37*
X119983090Y-45976213D02*
X120145461Y-46084765D01*
X120258011Y-46166179D01*
X120387586Y-46265685D01*
X120531272Y-46383283D01*
X120686154Y-46518972D01*
X120849320Y-46672754D01*
X121017854Y-46844628D01*
X121103224Y-46937350D01*
X121188843Y-47034594D01*
X121274348Y-47136361D01*
X121359373Y-47242652D01*
X121443556Y-47353465D01*
X121526530Y-47468802D01*
X121607933Y-47588661D01*
X121687400Y-47713043D01*
X121764567Y-47841949D01*
X121839069Y-47975377D01*
X121910543Y-48113328D01*
X121978623Y-48255803D01*
X122226802Y-48809436D01*
X122448034Y-49333060D01*
X122644070Y-49839162D01*
X122816662Y-50340229D01*
X122967560Y-50848748D01*
X123098516Y-51377205D01*
X123211281Y-51938087D01*
X123307606Y-52543880D01*
X123389241Y-53207072D01*
X123457939Y-53940149D01*
X123515450Y-54755597D01*
X123563525Y-55665904D01*
X123603915Y-56683555D01*
X123638373Y-57821038D01*
X123696491Y-60505446D01*
X123744011Y-62927196D01*
X123800755Y-64760518D01*
X123839386Y-65487393D01*
X123888486Y-66104210D01*
X123950773Y-66623319D01*
X124028968Y-67057069D01*
X124125793Y-67417809D01*
X124243967Y-67717890D01*
X124386212Y-67969661D01*
X124555247Y-68185471D01*
X124753793Y-68377671D01*
X124984570Y-68558609D01*
X125553703Y-68936101D01*
X126262920Y-69388688D01*
X126546904Y-69565841D01*
X126788386Y-69709681D01*
X126990803Y-69819792D01*
X127157592Y-69895758D01*
X127228699Y-69920807D01*
X127292187Y-69937164D01*
X127348486Y-69944777D01*
X127398026Y-69943594D01*
X127441235Y-69933564D01*
X127478544Y-69914633D01*
X127510381Y-69886751D01*
X127537178Y-69849866D01*
X127559362Y-69803925D01*
X127577363Y-69748876D01*
X127591612Y-69684669D01*
X127602537Y-69611250D01*
X127616136Y-69436570D01*
X127621594Y-69224422D01*
X127621838Y-68686059D01*
X127624796Y-68230961D01*
X127631821Y-68046835D01*
X127645503Y-67888965D01*
X127655533Y-67819245D01*
X127668059Y-67755331D01*
X127683358Y-67696971D01*
X127701707Y-67643913D01*
X127723385Y-67595903D01*
X127748668Y-67552691D01*
X127777833Y-67514023D01*
X127811158Y-67479647D01*
X127848921Y-67449310D01*
X127891398Y-67422759D01*
X127938867Y-67399744D01*
X127991605Y-67380010D01*
X128049889Y-67363306D01*
X128113998Y-67349378D01*
X128184207Y-67337976D01*
X128260795Y-67328845D01*
X128434216Y-67316390D01*
X128636479Y-67309995D01*
X129136404Y-67307302D01*
X129402987Y-67307881D01*
X129636177Y-67311934D01*
X129838077Y-67322936D01*
X129927950Y-67332129D01*
X130010790Y-67344362D01*
X130086860Y-67360068D01*
X130156421Y-67379684D01*
X130219738Y-67403642D01*
X130277073Y-67432378D01*
X130328690Y-67466325D01*
X130374851Y-67505918D01*
X130415819Y-67551591D01*
X130451857Y-67603779D01*
X130483228Y-67662915D01*
X130510196Y-67729434D01*
X130533022Y-67803770D01*
X130551971Y-67886358D01*
X130567305Y-67977632D01*
X130579287Y-68078026D01*
X130588180Y-68187975D01*
X130594247Y-68307912D01*
X130598955Y-68579489D01*
X130595515Y-68896233D01*
X130572605Y-69679117D01*
X130550743Y-70464439D01*
X130549785Y-70786970D01*
X130559325Y-71069815D01*
X130582252Y-71318278D01*
X130599637Y-71431273D01*
X130621451Y-71537660D01*
X130648055Y-71638102D01*
X130679810Y-71733261D01*
X130717077Y-71823802D01*
X130760217Y-71910385D01*
X130809591Y-71993674D01*
X130865559Y-72074332D01*
X130928483Y-72153021D01*
X130998723Y-72230404D01*
X131076641Y-72307143D01*
X131162597Y-72383902D01*
X131360067Y-72540129D01*
X131594022Y-72704385D01*
X131867348Y-72881973D01*
X132543662Y-73298350D01*
X133354491Y-73788744D01*
X134047191Y-74201840D01*
X134548246Y-74494195D01*
X134703933Y-74581519D01*
X134784141Y-74622365D01*
X134793934Y-74624314D01*
X134803604Y-74622320D01*
X134813137Y-74616477D01*
X134822521Y-74606876D01*
X134831744Y-74593610D01*
X134840794Y-74576770D01*
X134849659Y-74556449D01*
X134858326Y-74532738D01*
X134875018Y-74475517D01*
X134890772Y-74405842D01*
X134905491Y-74324451D01*
X134919076Y-74232078D01*
X134931429Y-74129462D01*
X134942454Y-74017338D01*
X134952051Y-73896442D01*
X134960122Y-73767511D01*
X134966571Y-73631281D01*
X134971298Y-73488489D01*
X134974207Y-73339870D01*
X134975198Y-73186162D01*
X134978165Y-72686819D01*
X134985211Y-72484792D01*
X134998933Y-72311573D01*
X135008993Y-72235075D01*
X135021556Y-72164947D01*
X135036901Y-72100913D01*
X135055305Y-72042697D01*
X135077047Y-71990020D01*
X135102405Y-71942606D01*
X135131657Y-71900179D01*
X135165081Y-71862460D01*
X135202956Y-71829174D01*
X135245560Y-71800043D01*
X135293170Y-71774789D01*
X135346064Y-71753137D01*
X135404522Y-71734809D01*
X135468821Y-71719527D01*
X135539240Y-71707016D01*
X135616055Y-71696998D01*
X135789992Y-71683332D01*
X135992856Y-71676315D01*
X136494268Y-71673360D01*
X136761643Y-71673971D01*
X136995514Y-71678244D01*
X137197982Y-71689842D01*
X137288096Y-71699533D01*
X137371146Y-71712428D01*
X137447395Y-71728987D01*
X137517106Y-71749665D01*
X137580541Y-71774922D01*
X137637962Y-71805215D01*
X137689632Y-71841002D01*
X137735814Y-71882741D01*
X137776769Y-71930889D01*
X137812761Y-71985905D01*
X137844051Y-72048246D01*
X137870903Y-72118371D01*
X137893579Y-72196736D01*
X137912341Y-72283800D01*
X137927452Y-72380020D01*
X137939174Y-72485855D01*
X137947770Y-72601762D01*
X137953502Y-72728200D01*
X137957425Y-73014496D01*
X137953042Y-73348406D01*
X137927760Y-74173720D01*
X137901537Y-75000233D01*
X137894917Y-75336988D01*
X137894484Y-75628823D01*
X137901630Y-75880300D01*
X137917748Y-76095978D01*
X137944232Y-76280419D01*
X137982475Y-76438184D01*
X138033871Y-76573833D01*
X138064936Y-76634790D01*
X138099813Y-76691928D01*
X138181694Y-76797029D01*
X138280907Y-76893697D01*
X138398847Y-76986492D01*
X138536906Y-77079977D01*
X138878956Y-77287255D01*
X139363114Y-77577414D01*
X139914942Y-77914176D01*
X140466489Y-78255766D01*
X140949806Y-78560408D01*
X141412681Y-78853646D01*
X141599089Y-78965446D01*
X141758328Y-79051909D01*
X141828428Y-79085140D01*
X141892538Y-79111440D01*
X141950925Y-79130609D01*
X142003857Y-79142447D01*
X142051600Y-79146756D01*
X142094423Y-79143336D01*
X142132593Y-79131988D01*
X142166377Y-79112513D01*
X142196041Y-79084712D01*
X142221855Y-79048385D01*
X142244085Y-79003333D01*
X142262997Y-78949357D01*
X142278861Y-78886259D01*
X142291942Y-78813837D01*
X142302509Y-78731895D01*
X142310829Y-78640231D01*
X142321795Y-78426945D01*
X142326980Y-78172385D01*
X142328562Y-77533072D01*
X142331536Y-76964201D01*
X142338599Y-76734044D01*
X142352352Y-76536706D01*
X142362435Y-76449555D01*
X142375027Y-76369663D01*
X142390407Y-76296713D01*
X142408854Y-76230391D01*
X142430646Y-76170380D01*
X142456062Y-76116364D01*
X142485382Y-76068029D01*
X142518883Y-76025059D01*
X142556845Y-75987137D01*
X142599547Y-75953950D01*
X142647266Y-75925180D01*
X142700283Y-75900513D01*
X142758875Y-75879633D01*
X142823322Y-75862223D01*
X142893903Y-75847970D01*
X142970895Y-75836557D01*
X143145232Y-75820989D01*
X143348564Y-75812994D01*
X143851130Y-75809628D01*
X144119116Y-75810261D01*
X144353503Y-75814688D01*
X144556374Y-75826704D01*
X144646643Y-75836744D01*
X144729815Y-75850104D01*
X144806151Y-75867259D01*
X144875912Y-75888683D01*
X144939357Y-75914850D01*
X144996748Y-75946235D01*
X145048346Y-75983311D01*
X145094410Y-76026554D01*
X145135202Y-76076438D01*
X145170982Y-76133436D01*
X145202011Y-76198024D01*
X145228550Y-76270675D01*
X145250859Y-76351864D01*
X145269198Y-76442066D01*
X145283829Y-76541754D01*
X145295012Y-76651403D01*
X145303007Y-76771487D01*
X145308076Y-76902480D01*
X145310476Y-77199093D01*
X145304297Y-77545037D01*
X145274542Y-78400092D01*
X145258833Y-78857075D01*
X145255779Y-79263112D01*
X145262226Y-79450078D01*
X145275710Y-79627970D01*
X145297522Y-79798009D01*
X145328954Y-79961417D01*
X145371297Y-80119414D01*
X145425843Y-80273221D01*
X145493882Y-80424059D01*
X145576706Y-80573150D01*
X145675607Y-80721713D01*
X145791874Y-80870970D01*
X145926801Y-81022143D01*
X146081677Y-81176451D01*
X146257795Y-81335116D01*
X146456445Y-81499360D01*
X146678919Y-81670401D01*
X146926508Y-81849463D01*
X147200503Y-82037766D01*
X147502195Y-82236530D01*
X148193838Y-82670328D01*
X149011767Y-83160624D01*
X149966311Y-83717186D01*
X152326565Y-85068180D01*
X155150115Y-86696959D01*
X157363220Y-88029152D01*
X158263392Y-88603406D01*
X159037996Y-89126767D01*
X159696045Y-89606985D01*
X160246556Y-90051812D01*
X160698540Y-90469000D01*
X161061014Y-90866298D01*
X161342991Y-91251459D01*
X161553486Y-91632233D01*
X161701512Y-92016371D01*
X161796085Y-92411625D01*
X161846218Y-92825746D01*
X161860926Y-93266485D01*
X161862506Y-93346060D01*
X161866277Y-93420856D01*
X161874583Y-93555212D01*
X161876214Y-93614322D01*
X161874227Y-93667755D01*
X161867170Y-93715287D01*
X161861286Y-93736769D01*
X161853590Y-93756691D01*
X161843901Y-93775026D01*
X161832036Y-93791745D01*
X161817815Y-93806820D01*
X161801056Y-93820223D01*
X161781577Y-93831926D01*
X161759196Y-93841901D01*
X161733733Y-93850120D01*
X161705005Y-93856554D01*
X161672832Y-93861176D01*
X161637031Y-93863958D01*
X161553820Y-93863889D01*
X161453922Y-93856121D01*
X161335884Y-93840431D01*
X161198253Y-93816594D01*
X161039577Y-93784384D01*
X160858404Y-93743579D01*
X160653283Y-93693953D01*
X160422759Y-93635281D01*
X160165382Y-93567340D01*
X159564258Y-93402749D01*
X158838292Y-93198386D01*
X157975866Y-92952452D01*
X155795164Y-92328692D01*
X151674705Y-91159402D01*
X149815662Y-90643453D01*
X149738177Y-90624954D01*
X149612653Y-90591626D01*
X149243708Y-90487994D01*
X148761259Y-90347584D01*
X148217738Y-90185424D01*
X147673378Y-90023143D01*
X147188647Y-89882399D01*
X146816325Y-89778270D01*
X146609193Y-89725838D01*
X146530792Y-89707382D01*
X146406769Y-89674778D01*
X146047270Y-89574377D01*
X145581517Y-89439150D01*
X145060331Y-89283607D01*
X144525372Y-89124237D01*
X144022113Y-88978599D01*
X143607102Y-88862791D01*
X143336892Y-88792916D01*
X142918415Y-88680085D01*
X142099715Y-88447330D01*
X140998997Y-88128612D01*
X139734466Y-87757889D01*
X131939561Y-85508279D01*
X131902204Y-85502158D01*
X131861324Y-85493982D01*
X131769580Y-85472193D01*
X131665501Y-85444364D01*
X131550261Y-85411948D01*
X131290988Y-85339165D01*
X131149302Y-85301702D01*
X131001145Y-85265462D01*
X130731482Y-85183428D01*
X130407572Y-85107398D01*
X130036794Y-85037549D01*
X129626524Y-84974055D01*
X128717029Y-84866834D01*
X127738114Y-84787134D01*
X126748807Y-84736354D01*
X125808136Y-84715894D01*
X124975129Y-84727155D01*
X124617446Y-84745118D01*
X124308814Y-84771535D01*
X124258343Y-84771839D01*
X124211002Y-84773962D01*
X124188467Y-84776274D01*
X124166669Y-84779724D01*
X124145592Y-84784539D01*
X124125220Y-84790947D01*
X124105539Y-84799174D01*
X124086532Y-84809448D01*
X124068184Y-84821997D01*
X124050480Y-84837048D01*
X124033404Y-84854829D01*
X124016941Y-84875567D01*
X124001075Y-84899490D01*
X123985792Y-84926825D01*
X123971074Y-84957799D01*
X123956908Y-84992641D01*
X123943277Y-85031577D01*
X123930166Y-85074835D01*
X123917560Y-85122643D01*
X123905443Y-85175227D01*
X123893800Y-85232817D01*
X123882615Y-85295638D01*
X123871873Y-85363918D01*
X123861558Y-85437885D01*
X123842149Y-85603790D01*
X123824263Y-85795172D01*
X123807778Y-86013852D01*
X123792569Y-86261648D01*
X123778513Y-86540380D01*
X123765487Y-86851869D01*
X123753366Y-87197934D01*
X123742027Y-87580395D01*
X123731347Y-88001072D01*
X123721201Y-88461785D01*
X123711467Y-88964353D01*
X123692737Y-90102334D01*
X123674167Y-91429574D01*
X123633553Y-94710065D01*
X123575289Y-98642744D01*
X123505173Y-102003651D01*
X123432028Y-104436015D01*
X123364677Y-105583065D01*
X123339791Y-105748579D01*
X123331151Y-105825471D01*
X123326375Y-105899705D01*
X123326460Y-105972220D01*
X123332402Y-106043956D01*
X123345198Y-106115851D01*
X123354478Y-106152151D01*
X123365845Y-106188844D01*
X123379424Y-106226046D01*
X123395340Y-106263875D01*
X123413716Y-106302448D01*
X123434679Y-106341883D01*
X123484859Y-106423807D01*
X123546877Y-106510586D01*
X123621729Y-106603159D01*
X123710413Y-106702466D01*
X123813925Y-106809445D01*
X123933261Y-106925036D01*
X124069419Y-107050178D01*
X124223395Y-107185810D01*
X124396186Y-107332871D01*
X124588788Y-107492300D01*
X124802199Y-107665036D01*
X125037415Y-107852019D01*
X125295433Y-108054188D01*
X125577249Y-108272481D01*
X126216264Y-108761199D01*
X126962433Y-109325686D01*
X128808132Y-110712018D01*
X130654522Y-112093802D01*
X132044540Y-113115160D01*
X132589639Y-113500933D01*
X133046120Y-113808903D01*
X133422475Y-114043171D01*
X133727196Y-114207839D01*
X133968774Y-114307007D01*
X134068538Y-114333310D01*
X134155701Y-114344776D01*
X134231324Y-114341917D01*
X134296469Y-114325247D01*
X134352197Y-114295278D01*
X134399569Y-114252522D01*
X134439648Y-114197493D01*
X134473493Y-114130702D01*
X134526734Y-113963887D01*
X134605128Y-113511678D01*
X134639130Y-113295913D01*
X134674515Y-113102554D01*
X134711171Y-112931339D01*
X134748988Y-112782007D01*
X134787856Y-112654294D01*
X134827664Y-112547940D01*
X134868303Y-112462683D01*
X134909661Y-112398260D01*
X134951628Y-112354410D01*
X134994095Y-112330871D01*
X135015481Y-112326636D01*
X135036951Y-112327381D01*
X135080084Y-112343678D01*
X135123386Y-112379500D01*
X135166745Y-112434585D01*
X135210052Y-112508672D01*
X135253196Y-112601499D01*
X135296066Y-112712803D01*
X135338552Y-112842323D01*
X135380545Y-112989796D01*
X135421933Y-113154962D01*
X135502454Y-113537322D01*
X135579232Y-113987307D01*
X135651386Y-114502823D01*
X135718033Y-115081773D01*
X135778288Y-115722064D01*
X135831271Y-116421599D01*
X135856516Y-116980244D01*
X135860452Y-117561871D01*
X135845151Y-118155219D01*
X135812686Y-118749026D01*
X135765132Y-119332031D01*
X135704561Y-119892971D01*
X135633047Y-120420584D01*
X135552663Y-120903609D01*
X135465481Y-121330785D01*
X135373576Y-121690848D01*
X135279021Y-121972538D01*
X135183889Y-122164592D01*
X135136754Y-122223486D01*
X135090252Y-122255749D01*
X135044643Y-122259971D01*
X135000186Y-122234746D01*
X134957139Y-122178666D01*
X134915762Y-122090323D01*
X134839054Y-121811217D01*
X134818722Y-121717664D01*
X134797970Y-121632403D01*
X134776768Y-121555392D01*
X134755085Y-121486591D01*
X134732889Y-121425957D01*
X134710150Y-121373449D01*
X134686837Y-121329026D01*
X134662919Y-121292647D01*
X134650723Y-121277460D01*
X134638364Y-121264269D01*
X134625838Y-121253067D01*
X134613142Y-121243851D01*
X134600270Y-121236615D01*
X134587221Y-121231352D01*
X134573989Y-121228060D01*
X134560571Y-121226731D01*
X134546962Y-121227361D01*
X134533160Y-121229946D01*
X134519160Y-121234478D01*
X134504958Y-121240954D01*
X134490550Y-121249369D01*
X134475933Y-121259716D01*
X134446055Y-121286190D01*
X134430922Y-121300806D01*
X134415834Y-121314340D01*
X134400787Y-121326790D01*
X134385776Y-121338155D01*
X134370796Y-121348435D01*
X134355842Y-121357629D01*
X134340911Y-121365737D01*
X134325996Y-121372757D01*
X134311092Y-121378690D01*
X134296197Y-121383533D01*
X134281303Y-121387288D01*
X134266407Y-121389952D01*
X134251505Y-121391525D01*
X134236590Y-121392006D01*
X134221658Y-121391395D01*
X134206705Y-121389691D01*
X134191726Y-121386894D01*
X134176715Y-121383001D01*
X134161669Y-121378014D01*
X134146582Y-121371931D01*
X134131449Y-121364751D01*
X134116266Y-121356473D01*
X134101029Y-121347098D01*
X134085731Y-121336624D01*
X134070368Y-121325050D01*
X134054937Y-121312376D01*
X134039431Y-121298601D01*
X134023846Y-121283724D01*
X134008177Y-121267745D01*
X133992419Y-121250662D01*
X133976568Y-121232476D01*
X133960619Y-121213186D01*
X133360980Y-120869465D01*
X131918934Y-120139301D01*
X127622360Y-118052579D01*
X123300374Y-116018901D01*
X121826563Y-115355041D01*
X121182453Y-115104146D01*
X121174068Y-115105123D01*
X121165235Y-115108021D01*
X121155978Y-115112792D01*
X121146320Y-115119389D01*
X121136285Y-115127764D01*
X121125898Y-115137869D01*
X121115181Y-115149655D01*
X121104160Y-115163076D01*
X121092857Y-115178083D01*
X121081296Y-115194628D01*
X121057499Y-115232143D01*
X121032959Y-115275237D01*
X121007866Y-115323527D01*
X120982412Y-115376631D01*
X120956787Y-115434166D01*
X120931183Y-115495749D01*
X120905790Y-115560997D01*
X120880799Y-115629526D01*
X120856402Y-115700955D01*
X120832788Y-115774900D01*
X120810149Y-115850979D01*
X120791873Y-115907982D01*
X120770724Y-115962123D01*
X120746931Y-116013471D01*
X120720718Y-116062095D01*
X120692314Y-116108064D01*
X120661943Y-116151446D01*
X120629833Y-116192312D01*
X120596209Y-116230729D01*
X120561299Y-116266767D01*
X120525328Y-116300495D01*
X120488522Y-116331983D01*
X120451109Y-116361298D01*
X120375365Y-116413689D01*
X120299905Y-116458221D01*
X120226541Y-116495445D01*
X120157083Y-116525914D01*
X120093343Y-116550181D01*
X120037132Y-116568797D01*
X119954537Y-116591287D01*
X119923786Y-116597802D01*
X119923786Y-45940029D01*
X119983090Y-45976213D01*
%LPC*%
D11*
X117374999Y-71224999D03*
D12*
X117374999Y-73764999D03*
X119914999Y-71224999D03*
X119914999Y-73764999D03*
X122454999Y-71224999D03*
X122454999Y-73764999D03*
M02*
