G04 #@! TF.GenerationSoftware,KiCad,Pcbnew,(6.99.0-2452-gdb4f2d9dd8)*
G04 #@! TF.CreationDate,2022-08-02T18:55:21-05:00*
G04 #@! TF.ProjectId,AIAA,41494141-2e6b-4696-9361-645f70636258,rev?*
G04 #@! TF.SameCoordinates,Original*
G04 #@! TF.FileFunction,Copper,L1,Top*
G04 #@! TF.FilePolarity,Positive*
%FSLAX46Y46*%
G04 Gerber Fmt 4.6, Leading zero omitted, Abs format (unit mm)*
G04 Created by KiCad (PCBNEW (6.99.0-2452-gdb4f2d9dd8)) date 2022-08-02 18:55:21*
%MOMM*%
%LPD*%
G01*
G04 APERTURE LIST*
G04 #@! TA.AperFunction,ComponentPad*
%ADD10R,1.800000X1.800000*%
G04 #@! TD*
G04 #@! TA.AperFunction,ComponentPad*
%ADD11C,1.800000*%
G04 #@! TD*
G04 #@! TA.AperFunction,ComponentPad*
%ADD12R,1.700000X1.700000*%
G04 #@! TD*
G04 #@! TA.AperFunction,ComponentPad*
%ADD13O,1.700000X1.700000*%
G04 #@! TD*
G04 APERTURE END LIST*
D10*
X67399999Y-166499999D03*
D11*
X67400000Y-163960000D03*
D12*
X80759999Y-163929999D03*
D13*
X80759999Y-166469999D03*
X83299999Y-163929999D03*
X83299999Y-166469999D03*
X85839999Y-163929999D03*
X85839999Y-166469999D03*
G04 #@! TA.AperFunction,NonConductor*
G36*
X82283439Y-164841388D02*
G01*
X82315755Y-164866638D01*
X82336526Y-164889201D01*
X82376760Y-164932906D01*
X82380879Y-164936112D01*
X82533364Y-165054797D01*
X82554424Y-165071189D01*
X82573354Y-165081433D01*
X82587680Y-165089186D01*
X82638071Y-165139199D01*
X82653423Y-165208516D01*
X82628863Y-165275129D01*
X82587681Y-165310813D01*
X82554424Y-165328811D01*
X82550313Y-165332010D01*
X82550311Y-165332012D01*
X82395861Y-165452227D01*
X82376760Y-165467094D01*
X82373228Y-165470931D01*
X82227806Y-165628899D01*
X82227803Y-165628903D01*
X82224278Y-165632732D01*
X82221427Y-165637096D01*
X82135483Y-165768643D01*
X82081479Y-165814732D01*
X82011132Y-165824307D01*
X81946774Y-165794330D01*
X81924517Y-165768643D01*
X81838573Y-165637096D01*
X81835722Y-165632732D01*
X81832197Y-165628903D01*
X81832194Y-165628899D01*
X81692525Y-165477180D01*
X81661104Y-165413515D01*
X81669091Y-165342969D01*
X81713949Y-165287940D01*
X81741191Y-165273787D01*
X81856204Y-165230889D01*
X81868536Y-165221658D01*
X81966050Y-165148659D01*
X81973261Y-165143261D01*
X82029610Y-165067988D01*
X82055489Y-165033418D01*
X82055490Y-165033416D01*
X82060889Y-165026204D01*
X82104998Y-164907944D01*
X82147545Y-164851108D01*
X82214065Y-164826297D01*
X82283439Y-164841388D01*
G37*
G04 #@! TD.AperFunction*
G04 #@! TA.AperFunction,NonConductor*
G36*
X84653226Y-164605670D02*
G01*
X84675483Y-164631357D01*
X84764278Y-164767268D01*
X84767803Y-164771097D01*
X84767806Y-164771101D01*
X84832511Y-164841388D01*
X84916760Y-164932906D01*
X84920879Y-164936112D01*
X85073364Y-165054797D01*
X85094424Y-165071189D01*
X85113354Y-165081433D01*
X85127680Y-165089186D01*
X85178071Y-165139199D01*
X85193423Y-165208516D01*
X85168863Y-165275129D01*
X85127681Y-165310813D01*
X85094424Y-165328811D01*
X85090313Y-165332010D01*
X85090311Y-165332012D01*
X84935861Y-165452227D01*
X84916760Y-165467094D01*
X84913228Y-165470931D01*
X84767806Y-165628899D01*
X84767803Y-165628903D01*
X84764278Y-165632732D01*
X84761427Y-165637096D01*
X84675483Y-165768643D01*
X84621479Y-165814732D01*
X84551132Y-165824307D01*
X84486774Y-165794330D01*
X84464517Y-165768643D01*
X84378573Y-165637096D01*
X84375722Y-165632732D01*
X84372197Y-165628903D01*
X84372194Y-165628899D01*
X84226772Y-165470931D01*
X84223240Y-165467094D01*
X84204139Y-165452227D01*
X84049689Y-165332012D01*
X84049687Y-165332010D01*
X84045576Y-165328811D01*
X84012320Y-165310814D01*
X83961929Y-165260801D01*
X83946577Y-165191484D01*
X83971137Y-165124871D01*
X84012320Y-165089186D01*
X84026647Y-165081433D01*
X84045576Y-165071189D01*
X84066637Y-165054797D01*
X84219121Y-164936112D01*
X84223240Y-164932906D01*
X84307489Y-164841388D01*
X84372194Y-164771101D01*
X84372197Y-164771097D01*
X84375722Y-164767268D01*
X84464517Y-164631357D01*
X84518521Y-164585268D01*
X84588868Y-164575693D01*
X84653226Y-164605670D01*
G37*
G04 #@! TD.AperFunction*
G04 #@! TA.AperFunction,NonConductor*
G36*
X100948606Y-95152341D02*
G01*
X100983984Y-95175369D01*
X101197199Y-95372148D01*
X101198209Y-95373092D01*
X101980452Y-96113065D01*
X101981014Y-96113597D01*
X101981548Y-96114105D01*
X103127322Y-97210746D01*
X103127638Y-97211049D01*
X104517366Y-98550465D01*
X104516914Y-98550934D01*
X104517072Y-98551053D01*
X104517508Y-98550602D01*
X104536310Y-98568778D01*
X107866354Y-101787914D01*
X107901429Y-101849641D01*
X107897564Y-101920532D01*
X107855986Y-101978080D01*
X107789895Y-102004014D01*
X107780693Y-102004490D01*
X106693888Y-102020990D01*
X106693885Y-102020790D01*
X106693753Y-102020820D01*
X106693756Y-102020992D01*
X105301007Y-102042138D01*
X105300911Y-102042098D01*
X105300812Y-102042139D01*
X105300807Y-102042141D01*
X105300804Y-102042141D01*
X105300728Y-102042174D01*
X105300528Y-102042256D01*
X105300526Y-102042260D01*
X105300522Y-102042262D01*
X105300443Y-102042461D01*
X105300370Y-102042639D01*
X105300372Y-102042643D01*
X105300370Y-102042647D01*
X105300411Y-102042742D01*
X105292579Y-115473531D01*
X105292538Y-115473631D01*
X105292579Y-115473730D01*
X105292343Y-130935034D01*
X105292302Y-130935133D01*
X105292343Y-130935232D01*
X105292343Y-169973493D01*
X105272341Y-170041614D01*
X105218685Y-170088107D01*
X105166343Y-170099493D01*
X62439843Y-170099493D01*
X62371722Y-170079491D01*
X62325229Y-170025835D01*
X62313843Y-169973493D01*
X62313843Y-163960000D01*
X65986673Y-163960000D01*
X65987103Y-163965189D01*
X66002779Y-164154368D01*
X66005949Y-164192626D01*
X66007230Y-164197684D01*
X66007230Y-164197685D01*
X66052739Y-164377394D01*
X66063251Y-164418907D01*
X66157016Y-164632669D01*
X66159866Y-164637031D01*
X66159868Y-164637035D01*
X66244954Y-164767268D01*
X66284686Y-164828083D01*
X66288211Y-164831912D01*
X66288214Y-164831916D01*
X66328349Y-164875513D01*
X66369843Y-164920587D01*
X66401263Y-164984251D01*
X66393276Y-165054797D01*
X66348418Y-165109826D01*
X66321174Y-165123979D01*
X66262242Y-165145960D01*
X66262238Y-165145962D01*
X66253796Y-165149111D01*
X66136739Y-165236739D01*
X66131341Y-165243950D01*
X66067815Y-165328811D01*
X66049111Y-165353796D01*
X65998011Y-165490799D01*
X65991500Y-165551362D01*
X65991500Y-167448638D01*
X65998011Y-167509201D01*
X66049111Y-167646204D01*
X66136739Y-167763261D01*
X66253796Y-167850889D01*
X66390799Y-167901989D01*
X66427705Y-167905957D01*
X66448012Y-167908140D01*
X66448015Y-167908140D01*
X66451362Y-167908500D01*
X68348638Y-167908500D01*
X68351985Y-167908140D01*
X68351988Y-167908140D01*
X68372295Y-167905957D01*
X68409201Y-167901989D01*
X68546204Y-167850889D01*
X68663261Y-167763261D01*
X68750889Y-167646204D01*
X68801989Y-167509201D01*
X68808500Y-167448638D01*
X68808500Y-166470000D01*
X79396844Y-166470000D01*
X79415436Y-166694368D01*
X79470704Y-166912616D01*
X79561140Y-167118791D01*
X79563990Y-167123153D01*
X79563992Y-167123157D01*
X79578701Y-167145670D01*
X79684278Y-167307268D01*
X79687803Y-167311097D01*
X79687806Y-167311101D01*
X79789360Y-167421417D01*
X79836760Y-167472906D01*
X80014424Y-167611189D01*
X80212426Y-167718342D01*
X80425365Y-167791444D01*
X80430499Y-167792301D01*
X80430504Y-167792302D01*
X80642294Y-167827643D01*
X80642296Y-167827643D01*
X80647431Y-167828500D01*
X80872569Y-167828500D01*
X80877704Y-167827643D01*
X80877706Y-167827643D01*
X81089496Y-167792302D01*
X81089501Y-167792301D01*
X81094635Y-167791444D01*
X81307574Y-167718342D01*
X81505576Y-167611189D01*
X81683240Y-167472906D01*
X81730640Y-167421417D01*
X81832194Y-167311101D01*
X81832197Y-167311097D01*
X81835722Y-167307268D01*
X81924517Y-167171357D01*
X81978521Y-167125268D01*
X82048868Y-167115693D01*
X82113226Y-167145670D01*
X82135483Y-167171357D01*
X82224278Y-167307268D01*
X82227803Y-167311097D01*
X82227806Y-167311101D01*
X82329360Y-167421417D01*
X82376760Y-167472906D01*
X82554424Y-167611189D01*
X82752426Y-167718342D01*
X82965365Y-167791444D01*
X82970499Y-167792301D01*
X82970504Y-167792302D01*
X83182294Y-167827643D01*
X83182296Y-167827643D01*
X83187431Y-167828500D01*
X83412569Y-167828500D01*
X83417704Y-167827643D01*
X83417706Y-167827643D01*
X83629496Y-167792302D01*
X83629501Y-167792301D01*
X83634635Y-167791444D01*
X83847574Y-167718342D01*
X84045576Y-167611189D01*
X84223240Y-167472906D01*
X84270640Y-167421417D01*
X84372194Y-167311101D01*
X84372197Y-167311097D01*
X84375722Y-167307268D01*
X84464517Y-167171357D01*
X84518521Y-167125268D01*
X84588868Y-167115693D01*
X84653226Y-167145670D01*
X84675483Y-167171357D01*
X84764278Y-167307268D01*
X84767803Y-167311097D01*
X84767806Y-167311101D01*
X84869360Y-167421417D01*
X84916760Y-167472906D01*
X85094424Y-167611189D01*
X85292426Y-167718342D01*
X85505365Y-167791444D01*
X85510499Y-167792301D01*
X85510504Y-167792302D01*
X85722294Y-167827643D01*
X85722296Y-167827643D01*
X85727431Y-167828500D01*
X85952569Y-167828500D01*
X85957704Y-167827643D01*
X85957706Y-167827643D01*
X86169496Y-167792302D01*
X86169501Y-167792301D01*
X86174635Y-167791444D01*
X86387574Y-167718342D01*
X86585576Y-167611189D01*
X86763240Y-167472906D01*
X86810640Y-167421417D01*
X86912194Y-167311101D01*
X86912197Y-167311097D01*
X86915722Y-167307268D01*
X87021299Y-167145670D01*
X87036008Y-167123157D01*
X87036010Y-167123153D01*
X87038860Y-167118791D01*
X87129296Y-166912616D01*
X87184564Y-166694368D01*
X87203156Y-166470000D01*
X87184564Y-166245632D01*
X87129296Y-166027384D01*
X87038860Y-165821209D01*
X87034629Y-165814732D01*
X86918573Y-165637096D01*
X86915722Y-165632732D01*
X86912197Y-165628903D01*
X86912194Y-165628899D01*
X86766772Y-165470931D01*
X86763240Y-165467094D01*
X86744139Y-165452227D01*
X86589689Y-165332012D01*
X86589687Y-165332010D01*
X86585576Y-165328811D01*
X86552320Y-165310814D01*
X86501929Y-165260801D01*
X86486577Y-165191484D01*
X86511137Y-165124871D01*
X86552320Y-165089186D01*
X86566647Y-165081433D01*
X86585576Y-165071189D01*
X86606637Y-165054797D01*
X86759121Y-164936112D01*
X86763240Y-164932906D01*
X86847489Y-164841388D01*
X86912194Y-164771101D01*
X86912197Y-164771097D01*
X86915722Y-164767268D01*
X86946552Y-164720079D01*
X87036008Y-164583157D01*
X87036010Y-164583153D01*
X87038860Y-164578791D01*
X87129296Y-164372616D01*
X87184564Y-164154368D01*
X87203156Y-163930000D01*
X87201976Y-163915763D01*
X87184995Y-163710828D01*
X87184994Y-163710823D01*
X87184564Y-163705632D01*
X87129296Y-163487384D01*
X87098509Y-163417196D01*
X87040954Y-163285982D01*
X87040952Y-163285978D01*
X87038860Y-163281209D01*
X87034629Y-163274732D01*
X86918573Y-163097096D01*
X86915722Y-163092732D01*
X86912197Y-163088903D01*
X86912194Y-163088899D01*
X86766772Y-162930931D01*
X86763240Y-162927094D01*
X86585576Y-162788811D01*
X86387574Y-162681658D01*
X86174635Y-162608556D01*
X86169501Y-162607699D01*
X86169496Y-162607698D01*
X85957706Y-162572357D01*
X85957704Y-162572357D01*
X85952569Y-162571500D01*
X85727431Y-162571500D01*
X85722296Y-162572357D01*
X85722294Y-162572357D01*
X85510504Y-162607698D01*
X85510499Y-162607699D01*
X85505365Y-162608556D01*
X85292426Y-162681658D01*
X85094424Y-162788811D01*
X84916760Y-162927094D01*
X84913228Y-162930931D01*
X84767806Y-163088899D01*
X84767803Y-163088903D01*
X84764278Y-163092732D01*
X84761427Y-163097096D01*
X84675483Y-163228643D01*
X84621479Y-163274732D01*
X84551132Y-163284307D01*
X84486774Y-163254330D01*
X84464517Y-163228643D01*
X84378573Y-163097096D01*
X84375722Y-163092732D01*
X84372197Y-163088903D01*
X84372194Y-163088899D01*
X84226772Y-162930931D01*
X84223240Y-162927094D01*
X84045576Y-162788811D01*
X83847574Y-162681658D01*
X83634635Y-162608556D01*
X83629501Y-162607699D01*
X83629496Y-162607698D01*
X83417706Y-162572357D01*
X83417704Y-162572357D01*
X83412569Y-162571500D01*
X83187431Y-162571500D01*
X83182296Y-162572357D01*
X83182294Y-162572357D01*
X82970504Y-162607698D01*
X82970499Y-162607699D01*
X82965365Y-162608556D01*
X82752426Y-162681658D01*
X82554424Y-162788811D01*
X82376760Y-162927094D01*
X82373228Y-162930931D01*
X82315755Y-162993362D01*
X82254901Y-163029933D01*
X82183937Y-163027798D01*
X82125392Y-162987636D01*
X82104998Y-162952056D01*
X82064038Y-162842239D01*
X82064037Y-162842237D01*
X82060889Y-162833796D01*
X81973261Y-162716739D01*
X81908413Y-162668194D01*
X81863418Y-162634511D01*
X81863416Y-162634510D01*
X81856204Y-162629111D01*
X81719201Y-162578011D01*
X81682295Y-162574043D01*
X81661988Y-162571860D01*
X81661985Y-162571860D01*
X81658638Y-162571500D01*
X79861362Y-162571500D01*
X79858015Y-162571860D01*
X79858012Y-162571860D01*
X79837705Y-162574043D01*
X79800799Y-162578011D01*
X79663796Y-162629111D01*
X79656584Y-162634510D01*
X79656582Y-162634511D01*
X79611587Y-162668194D01*
X79546739Y-162716739D01*
X79459111Y-162833796D01*
X79408011Y-162970799D01*
X79401500Y-163031362D01*
X79401500Y-164828638D01*
X79408011Y-164889201D01*
X79459111Y-165026204D01*
X79464510Y-165033416D01*
X79464511Y-165033418D01*
X79490390Y-165067988D01*
X79546739Y-165143261D01*
X79553950Y-165148659D01*
X79651465Y-165221658D01*
X79663796Y-165230889D01*
X79778808Y-165273787D01*
X79835642Y-165316333D01*
X79860453Y-165382853D01*
X79845361Y-165452227D01*
X79827475Y-165477180D01*
X79687806Y-165628899D01*
X79687803Y-165628903D01*
X79684278Y-165632732D01*
X79681427Y-165637096D01*
X79565372Y-165814732D01*
X79561140Y-165821209D01*
X79470704Y-166027384D01*
X79415436Y-166245632D01*
X79396844Y-166470000D01*
X68808500Y-166470000D01*
X68808500Y-165551362D01*
X68801989Y-165490799D01*
X68750889Y-165353796D01*
X68732186Y-165328811D01*
X68668659Y-165243950D01*
X68663261Y-165236739D01*
X68546204Y-165149111D01*
X68537762Y-165145962D01*
X68537758Y-165145960D01*
X68478826Y-165123979D01*
X68421991Y-165081433D01*
X68397180Y-165014912D01*
X68412272Y-164945538D01*
X68430156Y-164920589D01*
X68471651Y-164875513D01*
X68511786Y-164831916D01*
X68511789Y-164831912D01*
X68515314Y-164828083D01*
X68555046Y-164767268D01*
X68640132Y-164637035D01*
X68640134Y-164637031D01*
X68642984Y-164632669D01*
X68736749Y-164418907D01*
X68747262Y-164377394D01*
X68792770Y-164197685D01*
X68792770Y-164197684D01*
X68794051Y-164192626D01*
X68797222Y-164154368D01*
X68812897Y-163965189D01*
X68813327Y-163960000D01*
X68794051Y-163727374D01*
X68736749Y-163501093D01*
X68711440Y-163443393D01*
X68645079Y-163292107D01*
X68642984Y-163287331D01*
X68638985Y-163281209D01*
X68546824Y-163140147D01*
X68515314Y-163091917D01*
X68511789Y-163088088D01*
X68511786Y-163088084D01*
X68360752Y-162924019D01*
X68357220Y-162920182D01*
X68353108Y-162916981D01*
X68353102Y-162916976D01*
X68177130Y-162780011D01*
X68177128Y-162780009D01*
X68173017Y-162776810D01*
X68062015Y-162716739D01*
X67972312Y-162668194D01*
X67972309Y-162668193D01*
X67967727Y-162665713D01*
X67746951Y-162589920D01*
X67741817Y-162589063D01*
X67741812Y-162589062D01*
X67521849Y-162552357D01*
X67521846Y-162552357D01*
X67516712Y-162551500D01*
X67283288Y-162551500D01*
X67278154Y-162552357D01*
X67278151Y-162552357D01*
X67058188Y-162589062D01*
X67058183Y-162589063D01*
X67053049Y-162589920D01*
X66832273Y-162665713D01*
X66827691Y-162668193D01*
X66827688Y-162668194D01*
X66737985Y-162716739D01*
X66626983Y-162776810D01*
X66622872Y-162780009D01*
X66622870Y-162780011D01*
X66446898Y-162916976D01*
X66446892Y-162916981D01*
X66442780Y-162920182D01*
X66439248Y-162924019D01*
X66288214Y-163088084D01*
X66288211Y-163088088D01*
X66284686Y-163091917D01*
X66253176Y-163140147D01*
X66161016Y-163281209D01*
X66157016Y-163287331D01*
X66154921Y-163292107D01*
X66088561Y-163443393D01*
X66063251Y-163501093D01*
X66005949Y-163727374D01*
X65986673Y-163960000D01*
X62313843Y-163960000D01*
X62313843Y-129243827D01*
X62313682Y-127852868D01*
X62313689Y-127851502D01*
X62325440Y-126755839D01*
X62325478Y-126753823D01*
X62337742Y-126294978D01*
X62337881Y-126291540D01*
X62355600Y-125963944D01*
X62356051Y-125958115D01*
X62428729Y-125236961D01*
X62429205Y-125232896D01*
X62524683Y-124518821D01*
X62525301Y-124514719D01*
X62643464Y-123808762D01*
X62644225Y-123804636D01*
X62785117Y-123106530D01*
X62786025Y-123102394D01*
X62949616Y-122412297D01*
X62950670Y-122408164D01*
X63136971Y-121726017D01*
X63138169Y-121721904D01*
X63347210Y-121047588D01*
X63348551Y-121043509D01*
X63580335Y-120377028D01*
X63581815Y-120372998D01*
X63836323Y-119714405D01*
X63837934Y-119710437D01*
X64115223Y-119059585D01*
X64116959Y-119055694D01*
X64417003Y-118412643D01*
X64418855Y-118408841D01*
X64448408Y-118350682D01*
X64741716Y-117773468D01*
X64743632Y-117769848D01*
X65089317Y-117142151D01*
X65091367Y-117138570D01*
X65459818Y-116518652D01*
X65461933Y-116515221D01*
X65853256Y-115902905D01*
X65855470Y-115899560D01*
X66269779Y-115294694D01*
X66270706Y-115293380D01*
X66270723Y-115293373D01*
X66270740Y-115293332D01*
X66271783Y-115291853D01*
X66567339Y-114885112D01*
X66569148Y-114882685D01*
X66875035Y-114482317D01*
X66876886Y-114479952D01*
X67192846Y-114086219D01*
X67194739Y-114083917D01*
X67520430Y-113697169D01*
X67522366Y-113694924D01*
X67857551Y-113315392D01*
X67859498Y-113313238D01*
X68203961Y-112941126D01*
X68205918Y-112939061D01*
X68559293Y-112574732D01*
X68561310Y-112572702D01*
X68923355Y-112216386D01*
X68925452Y-112214369D01*
X69295945Y-111866281D01*
X69298096Y-111864307D01*
X69676720Y-111524750D01*
X69678917Y-111522825D01*
X70065406Y-111192051D01*
X70067649Y-111190176D01*
X70461860Y-110868336D01*
X70464094Y-110866555D01*
X70865666Y-110553987D01*
X70867990Y-110552222D01*
X71182143Y-110319265D01*
X71276593Y-110249226D01*
X71278982Y-110247497D01*
X71694434Y-109954261D01*
X71696880Y-109952577D01*
X72118826Y-109669417D01*
X72120231Y-109668500D01*
X72120279Y-109668480D01*
X72120285Y-109668464D01*
X72121513Y-109667663D01*
X72609645Y-109357817D01*
X72612572Y-109356015D01*
X73107966Y-109060200D01*
X73110940Y-109058479D01*
X73613413Y-108776734D01*
X73616433Y-108775094D01*
X73616515Y-108775051D01*
X74125753Y-108507498D01*
X74128803Y-108505948D01*
X74644627Y-108252639D01*
X74647719Y-108251173D01*
X74648233Y-108250938D01*
X75169782Y-108012248D01*
X75172926Y-108010861D01*
X75700933Y-107786433D01*
X75704116Y-107785131D01*
X76229882Y-107578412D01*
X76237824Y-107575290D01*
X76241032Y-107574079D01*
X76241903Y-107573764D01*
X76397141Y-107517572D01*
X76780052Y-107378970D01*
X76783306Y-107377842D01*
X77119689Y-107266381D01*
X77327544Y-107197508D01*
X77330773Y-107196487D01*
X77652295Y-107099623D01*
X77879738Y-107031102D01*
X77883054Y-107030152D01*
X78436562Y-106879794D01*
X78439904Y-106878935D01*
X78997629Y-106743719D01*
X79000998Y-106742951D01*
X79562661Y-106622984D01*
X79566053Y-106622308D01*
X80131468Y-106517678D01*
X80134881Y-106517095D01*
X80703592Y-106427942D01*
X80707067Y-106427447D01*
X80982334Y-106392119D01*
X80984907Y-106391816D01*
X81281876Y-106359895D01*
X81284233Y-106359664D01*
X81872222Y-106307619D01*
X81874470Y-106307440D01*
X82517798Y-106262086D01*
X82517882Y-106262080D01*
X82517959Y-106262080D01*
X82517974Y-106262074D01*
X82517995Y-106262072D01*
X82666860Y-106251240D01*
X82669484Y-106251077D01*
X82842193Y-106242128D01*
X82844662Y-106242024D01*
X82964077Y-106238183D01*
X83073254Y-106234672D01*
X83076036Y-106234613D01*
X83352219Y-106231902D01*
X83354486Y-106231901D01*
X83416309Y-106232440D01*
X83507058Y-106233232D01*
X83508785Y-106233259D01*
X83670344Y-106236883D01*
X83672202Y-106236938D01*
X83822695Y-106242536D01*
X83841413Y-106243232D01*
X83843399Y-106243322D01*
X83863619Y-106244396D01*
X84019279Y-106252665D01*
X84021372Y-106252794D01*
X84202771Y-106265553D01*
X84204941Y-106265726D01*
X84380794Y-106281382D01*
X84391914Y-106282372D01*
X84391806Y-106283588D01*
X84391920Y-106283628D01*
X84392030Y-106282382D01*
X84392109Y-106282389D01*
X84391997Y-106283654D01*
X84392005Y-106283657D01*
X84392111Y-106282388D01*
X84438595Y-106286260D01*
X84501753Y-106291521D01*
X84501885Y-106291532D01*
X84501893Y-106291536D01*
X84501979Y-106291540D01*
X84502073Y-106291548D01*
X84501927Y-106293266D01*
X84501998Y-106293271D01*
X84502082Y-106291545D01*
X84605372Y-106296562D01*
X84605312Y-106297793D01*
X84605368Y-106297795D01*
X84605382Y-106296566D01*
X84605473Y-106296567D01*
X84605560Y-106296571D01*
X84605503Y-106297800D01*
X84605559Y-106297802D01*
X84605570Y-106296568D01*
X84702769Y-106297400D01*
X84702890Y-106297401D01*
X84702900Y-106297405D01*
X84702977Y-106297402D01*
X84703075Y-106297403D01*
X84703060Y-106298882D01*
X84703142Y-106298881D01*
X84703087Y-106297398D01*
X84794954Y-106293994D01*
X84794993Y-106295052D01*
X84795060Y-106295048D01*
X84794967Y-106293998D01*
X84795057Y-106293990D01*
X84795139Y-106293987D01*
X84795178Y-106295042D01*
X84795245Y-106295038D01*
X84795151Y-106293982D01*
X84882089Y-106286282D01*
X84882169Y-106287188D01*
X84882418Y-106287163D01*
X84882286Y-106286260D01*
X84964813Y-106274213D01*
X84965010Y-106275562D01*
X84965101Y-106275545D01*
X84964828Y-106274216D01*
X84964906Y-106274200D01*
X84964993Y-106274187D01*
X84965193Y-106275528D01*
X84965286Y-106275511D01*
X84965007Y-106274178D01*
X85043643Y-106257727D01*
X85043813Y-106258541D01*
X85044056Y-106258481D01*
X85043834Y-106257680D01*
X85119096Y-106236770D01*
X85119275Y-106237415D01*
X85119506Y-106237344D01*
X85119284Y-106236712D01*
X85191696Y-106211284D01*
X85192046Y-106212280D01*
X85192127Y-106212249D01*
X85191715Y-106211284D01*
X85191797Y-106211249D01*
X85191868Y-106211224D01*
X85192216Y-106212214D01*
X85192295Y-106212183D01*
X85191880Y-106211213D01*
X85261959Y-106181214D01*
X85262352Y-106182133D01*
X85262425Y-106182100D01*
X85261976Y-106181213D01*
X85262049Y-106181176D01*
X85262126Y-106181143D01*
X85262518Y-106182057D01*
X85262591Y-106182024D01*
X85262138Y-106181131D01*
X85330401Y-106146505D01*
X85330926Y-106147540D01*
X85331001Y-106147499D01*
X85330417Y-106146503D01*
X85330492Y-106146459D01*
X85330563Y-106146423D01*
X85331085Y-106147453D01*
X85331161Y-106147412D01*
X85330573Y-106146411D01*
X85397541Y-106107103D01*
X85398119Y-106108087D01*
X85398184Y-106108047D01*
X85397557Y-106107100D01*
X85397634Y-106107049D01*
X85397700Y-106107010D01*
X85398278Y-106107989D01*
X85398341Y-106107951D01*
X85397708Y-106107000D01*
X85463902Y-106062950D01*
X85464687Y-106064129D01*
X85464753Y-106064082D01*
X85463914Y-106062947D01*
X85463983Y-106062896D01*
X85464055Y-106062848D01*
X85464838Y-106064022D01*
X85464904Y-106063974D01*
X85464062Y-106062837D01*
X85529998Y-106013993D01*
X85530689Y-106014925D01*
X85530887Y-106014777D01*
X85530154Y-106013873D01*
X85596354Y-105960174D01*
X85597270Y-105961303D01*
X85597313Y-105961266D01*
X85596362Y-105960171D01*
X85596423Y-105960118D01*
X85596499Y-105960056D01*
X85597415Y-105961179D01*
X85597460Y-105961140D01*
X85596504Y-105960047D01*
X85663484Y-105901438D01*
X85664300Y-105902371D01*
X85664487Y-105902202D01*
X85663630Y-105901305D01*
X85802147Y-105769000D01*
X85803151Y-105770051D01*
X85803198Y-105770005D01*
X85802156Y-105768996D01*
X85802217Y-105768933D01*
X85802283Y-105768870D01*
X85803284Y-105769919D01*
X85803331Y-105769872D01*
X85802287Y-105768861D01*
X85950156Y-105616227D01*
X85951145Y-105617185D01*
X85951308Y-105617022D01*
X85950293Y-105616084D01*
X86290680Y-105248051D01*
X86290846Y-105247872D01*
X86491428Y-105031838D01*
X86492470Y-105030729D01*
X86718108Y-104793522D01*
X86719607Y-104791973D01*
X86752705Y-104758349D01*
X86975020Y-104532500D01*
X86976817Y-104530711D01*
X87055391Y-104454074D01*
X87118123Y-104420829D01*
X87188870Y-104426777D01*
X87245171Y-104470030D01*
X87269362Y-104543017D01*
X87274235Y-105031838D01*
X87277684Y-105377854D01*
X87273251Y-105377898D01*
X87273240Y-105378117D01*
X87277687Y-105378057D01*
X87288553Y-106177094D01*
X87284010Y-106177156D01*
X87284008Y-106177202D01*
X87288555Y-106177098D01*
X87293475Y-106392119D01*
X87294118Y-106420239D01*
X87294087Y-106420353D01*
X87294120Y-106420352D01*
X87294122Y-106420443D01*
X87294063Y-106420444D01*
X87294060Y-106420454D01*
X87294125Y-106420451D01*
X87298844Y-106509906D01*
X87298816Y-106509953D01*
X87298826Y-106509992D01*
X87298810Y-106510031D01*
X87298856Y-106510143D01*
X87298857Y-106510157D01*
X87298879Y-106510203D01*
X87298917Y-106510355D01*
X87298952Y-106510376D01*
X87298968Y-106510414D01*
X87298982Y-106510420D01*
X87298989Y-106510434D01*
X87299139Y-106510487D01*
X87299181Y-106510512D01*
X87299219Y-106510518D01*
X87299252Y-106510531D01*
X87299264Y-106510531D01*
X87299380Y-106510572D01*
X87299430Y-106510548D01*
X87310516Y-106512157D01*
X87368184Y-106520526D01*
X87452431Y-106532753D01*
X87455444Y-106533228D01*
X87663332Y-106568599D01*
X87665483Y-106568986D01*
X88188483Y-106667783D01*
X88190502Y-106668181D01*
X88336796Y-106698330D01*
X88747502Y-106782972D01*
X88749236Y-106783343D01*
X88936035Y-106824588D01*
X88996400Y-106837917D01*
X88999810Y-106838670D01*
X89001574Y-106839072D01*
X89212637Y-106888865D01*
X89215541Y-106889587D01*
X89645253Y-107001800D01*
X89648349Y-107002651D01*
X89746953Y-107031102D01*
X90079820Y-107127147D01*
X90081556Y-107127648D01*
X90084500Y-107128536D01*
X90520478Y-107265943D01*
X90523295Y-107266868D01*
X90797680Y-107360498D01*
X90960859Y-107416181D01*
X90963532Y-107417127D01*
X91169574Y-107492725D01*
X91401783Y-107577925D01*
X91404405Y-107578920D01*
X91842259Y-107750723D01*
X91844810Y-107751756D01*
X92152733Y-107880408D01*
X92281227Y-107934093D01*
X92283687Y-107935152D01*
X92457571Y-108012249D01*
X92717685Y-108127579D01*
X92720143Y-108128700D01*
X93150750Y-108330775D01*
X93153163Y-108331939D01*
X93579227Y-108543134D01*
X93581646Y-108544366D01*
X94002181Y-108764229D01*
X94004600Y-108765527D01*
X94418665Y-108993629D01*
X94421081Y-108994996D01*
X94827583Y-109230832D01*
X94830000Y-109232270D01*
X95014992Y-109345283D01*
X95227982Y-109475401D01*
X95230477Y-109476966D01*
X95618829Y-109726864D01*
X95621325Y-109728512D01*
X95998607Y-109984411D01*
X95998648Y-109984449D01*
X95998801Y-109984543D01*
X95999886Y-109985279D01*
X95999914Y-109985298D01*
X96000348Y-109985595D01*
X96000368Y-109985645D01*
X96000502Y-109985701D01*
X96000793Y-109985900D01*
X96187780Y-110115138D01*
X96187437Y-110115634D01*
X96187608Y-110115745D01*
X96187944Y-110115250D01*
X96344033Y-110221206D01*
X96342398Y-110223615D01*
X96342431Y-110223638D01*
X96344034Y-110221208D01*
X96344081Y-110221239D01*
X96344193Y-110221315D01*
X96342556Y-110223728D01*
X96342592Y-110223754D01*
X96344198Y-110221316D01*
X96452821Y-110292876D01*
X96451662Y-110294635D01*
X96451712Y-110294666D01*
X96452826Y-110292883D01*
X96452922Y-110292943D01*
X96452982Y-110292982D01*
X96451836Y-110294744D01*
X96451880Y-110294772D01*
X96452988Y-110292983D01*
X96484338Y-110312409D01*
X96484148Y-110312716D01*
X96484345Y-110312827D01*
X96484508Y-110312504D01*
X96487389Y-110313957D01*
X96487391Y-110313957D01*
X96497773Y-110319191D01*
X96497778Y-110319205D01*
X96497783Y-110319207D01*
X96497786Y-110319214D01*
X96497960Y-110319286D01*
X96498032Y-110319322D01*
X96498046Y-110319323D01*
X96498157Y-110319372D01*
X96498245Y-110319338D01*
X96498339Y-110319345D01*
X96498431Y-110319265D01*
X96498543Y-110319222D01*
X96498545Y-110319217D01*
X96498552Y-110319214D01*
X96498586Y-110319132D01*
X96498652Y-110319075D01*
X96498661Y-110318955D01*
X96498667Y-110318941D01*
X96498667Y-110318935D01*
X96498710Y-110318831D01*
X96498676Y-110318749D01*
X96498683Y-110318661D01*
X96498673Y-110318650D01*
X96498765Y-110314499D01*
X96505879Y-109991626D01*
X96508160Y-109991676D01*
X96508159Y-109991653D01*
X96505880Y-109991623D01*
X96505881Y-109991546D01*
X96505883Y-109991433D01*
X96508154Y-109991473D01*
X96508153Y-109991444D01*
X96505881Y-109991429D01*
X96511788Y-109100234D01*
X96516563Y-109100266D01*
X96516565Y-109100241D01*
X96511787Y-109100232D01*
X96511986Y-108993378D01*
X96517243Y-106170836D01*
X96517284Y-106170737D01*
X96517243Y-106170637D01*
X96517243Y-102022743D01*
X96517284Y-102022646D01*
X96517283Y-102022644D01*
X96517284Y-102022642D01*
X96517209Y-102022460D01*
X96517129Y-102022262D01*
X96517127Y-102022261D01*
X96517126Y-102022259D01*
X96516908Y-102022169D01*
X96516846Y-102022143D01*
X96516845Y-102022143D01*
X96516743Y-102022101D01*
X96516645Y-102022141D01*
X95113328Y-102010993D01*
X95113350Y-102008237D01*
X95113281Y-102008248D01*
X95113259Y-102010992D01*
X95113133Y-102010991D01*
X95094905Y-102010846D01*
X94018879Y-102002298D01*
X93950921Y-101981756D01*
X93904856Y-101927733D01*
X93895310Y-101857381D01*
X93925314Y-101793036D01*
X93932277Y-101785740D01*
X97258967Y-98567715D01*
X97276524Y-98550731D01*
X97276880Y-98550545D01*
X97276802Y-98550464D01*
X99810905Y-96114153D01*
X99811613Y-96113478D01*
X100593182Y-95373663D01*
X100595428Y-95371588D01*
X100814159Y-95174382D01*
X100878147Y-95143623D01*
X100948606Y-95152341D01*
G37*
G04 #@! TD.AperFunction*
M02*
