%TF.GenerationSoftware,KiCad,Pcbnew,(6.99.0-2452-gdb4f2d9dd8)*%
%TF.CreationDate,2022-08-02T18:55:24-05:00*%
%TF.ProjectId,AIAA,41494141-2e6b-4696-9361-645f70636258,rev?*%
%TF.SameCoordinates,Original*%
%TF.FileFunction,Drillmap*%
%TF.FilePolarity,Positive*%
%FSLAX45Y45*%
G04 Gerber Fmt 4.5, Leading zero omitted, Abs format (unit mm)*
G04 Created by KiCad (PCBNEW (6.99.0-2452-gdb4f2d9dd8)) date 2022-08-02 18:55:24*
%MOMM*%
%LPD*%
G01*
G04 APERTURE LIST*
%ADD10C,0.042333*%
%ADD11C,0.200000*%
%ADD12C,0.090000*%
%ADD13C,0.100000*%
G04 APERTURE END LIST*
D10*
X6231334Y-17009999D02*
X6231334Y-12924394D01*
X6231334Y-17009999D02*
X6231334Y-17009999D01*
X10529284Y-17009999D02*
X6231334Y-17009999D01*
X10529284Y-17009999D02*
X10529284Y-17009999D01*
X10529284Y-13093513D02*
X10529284Y-17009999D01*
X10529284Y-13093513D02*
X10529284Y-13093513D01*
X10529308Y-11547363D02*
X10529284Y-13093513D01*
X10529308Y-11547363D02*
X10529308Y-11547363D01*
X10530091Y-10204264D02*
X10529308Y-11547363D01*
X10530091Y-10204264D02*
X10530091Y-10204264D01*
X10669386Y-10202149D02*
X10530091Y-10204264D01*
X10669386Y-10202149D02*
X10669386Y-10202149D01*
X10808682Y-10200034D02*
X10669386Y-10202149D01*
X10808682Y-10200034D02*
X10808682Y-10200034D01*
X10451779Y-9855018D02*
X10808682Y-10200034D01*
X10451779Y-9855018D02*
X10451779Y-9855018D01*
X10312783Y-9721054D02*
X10451779Y-9855018D01*
X10198163Y-9611350D02*
X10312783Y-9721054D01*
X10119805Y-9537225D02*
X10198163Y-9611350D01*
X10097937Y-9517043D02*
X10119805Y-9537225D01*
X10091980Y-9511791D02*
X10097937Y-9517043D01*
X10089590Y-9510001D02*
X10091980Y-9511791D01*
X10089590Y-9510001D02*
X10089590Y-9510001D01*
X10059395Y-9537225D02*
X10089590Y-9510001D01*
X9981087Y-9611350D02*
X10059395Y-9537225D01*
X9727638Y-9855018D02*
X9981087Y-9611350D01*
X9727638Y-9855018D02*
X9727638Y-9855018D01*
X9370971Y-10200034D02*
X9727638Y-9855018D01*
X9370971Y-10200034D02*
X9370971Y-10200034D01*
X9511323Y-10201149D02*
X9370971Y-10200034D01*
X9511323Y-10201149D02*
X9511323Y-10201149D01*
X9651674Y-10202264D02*
X9511323Y-10201149D01*
X9651674Y-10202264D02*
X9651674Y-10202264D01*
X9651674Y-10617074D02*
X9651674Y-10202264D01*
X9651674Y-10617074D02*
X9651674Y-10617074D01*
X9651129Y-10910033D02*
X9651674Y-10617074D01*
X9650538Y-10999152D02*
X9651129Y-10910033D01*
X9649817Y-11031883D02*
X9650538Y-10999152D01*
X9649817Y-11031883D02*
X9649817Y-11031883D01*
X9648467Y-11031202D02*
X9649817Y-11031883D01*
X9645317Y-11029251D02*
X9648467Y-11031202D01*
X9634439Y-11022085D02*
X9645317Y-11029251D01*
X9618814Y-11011478D02*
X9634439Y-11022085D01*
X9600075Y-10998526D02*
X9618814Y-11011478D01*
X9600075Y-10998526D02*
X9600075Y-10998526D01*
X9562040Y-10972728D02*
X9600075Y-10998526D01*
X9522951Y-10947575D02*
X9562040Y-10972728D01*
X9482908Y-10923112D02*
X9522951Y-10947575D01*
X9442012Y-10899386D02*
X9482908Y-10923112D01*
X9400364Y-10876443D02*
X9442012Y-10899386D01*
X9358065Y-10854328D02*
X9400364Y-10876443D01*
X9315215Y-10833088D02*
X9358065Y-10854328D01*
X9271916Y-10812768D02*
X9315215Y-10833088D01*
X9228267Y-10793416D02*
X9271916Y-10812768D01*
X9184371Y-10775075D02*
X9228267Y-10793416D01*
X9140327Y-10757794D02*
X9184371Y-10775075D01*
X9096236Y-10741616D02*
X9140327Y-10757794D01*
X9052200Y-10726590D02*
X9096236Y-10741616D01*
X9008319Y-10712760D02*
X9052200Y-10726590D01*
X8964693Y-10700172D02*
X9008319Y-10712760D01*
X8921424Y-10688873D02*
X8964693Y-10700172D01*
X8921424Y-10688873D02*
X8921424Y-10688873D01*
X8900084Y-10683838D02*
X8921424Y-10688873D01*
X8874839Y-10678264D02*
X8900084Y-10683838D01*
X8818963Y-10666749D02*
X8874839Y-10678264D01*
X8766446Y-10656828D02*
X8818963Y-10666749D01*
X8745399Y-10653247D02*
X8766446Y-10656828D01*
X8729935Y-10651003D02*
X8745399Y-10653247D01*
X8729935Y-10651003D02*
X8729935Y-10651003D01*
X8729462Y-10642033D02*
X8729935Y-10651003D01*
X8728905Y-10617699D02*
X8729462Y-10642033D01*
X8727819Y-10537795D02*
X8728905Y-10617699D01*
X8727819Y-10537795D02*
X8727819Y-10537795D01*
X8726691Y-10424707D02*
X8727819Y-10537795D01*
X8726691Y-10424707D02*
X8726691Y-10424707D01*
X8697555Y-10453125D02*
X8726691Y-10424707D01*
X8671847Y-10479242D02*
X8697555Y-10453125D01*
X8649151Y-10503101D02*
X8671847Y-10479242D01*
X8629053Y-10524748D02*
X8649151Y-10503101D01*
X8594986Y-10561581D02*
X8629053Y-10524748D01*
X8580187Y-10576858D02*
X8594986Y-10561581D01*
X8566322Y-10590100D02*
X8580187Y-10576858D01*
X8559611Y-10595973D02*
X8566322Y-10590100D01*
X8552977Y-10601354D02*
X8559611Y-10595973D01*
X8546370Y-10606249D02*
X8552977Y-10601354D01*
X8539736Y-10610663D02*
X8546370Y-10606249D01*
X8533025Y-10614602D02*
X8539736Y-10610663D01*
X8526184Y-10618072D02*
X8533025Y-10614602D01*
X8519161Y-10621079D02*
X8526184Y-10618072D01*
X8511904Y-10623627D02*
X8519161Y-10621079D01*
X8504362Y-10625722D02*
X8511904Y-10623627D01*
X8496482Y-10627371D02*
X8504362Y-10625722D01*
X8488213Y-10628578D02*
X8496482Y-10627371D01*
X8479502Y-10629349D02*
X8488213Y-10628578D01*
X8470298Y-10629690D02*
X8479502Y-10629349D01*
X8460549Y-10629607D02*
X8470298Y-10629690D01*
X8450202Y-10629104D02*
X8460549Y-10629607D01*
X8439206Y-10628188D02*
X8450202Y-10629104D01*
X8439206Y-10628188D02*
X8439206Y-10628188D01*
X8420386Y-10626513D02*
X8439206Y-10628188D01*
X8402032Y-10625222D02*
X8420386Y-10626513D01*
X8384246Y-10624277D02*
X8402032Y-10625222D01*
X8367132Y-10623641D02*
X8384246Y-10624277D01*
X8350794Y-10623274D02*
X8367132Y-10623641D01*
X8335333Y-10623139D02*
X8350794Y-10623274D01*
X8307461Y-10623413D02*
X8335333Y-10623139D01*
X8284344Y-10624156D02*
X8307461Y-10623413D01*
X8266807Y-10625065D02*
X8284344Y-10624156D01*
X8251786Y-10626158D02*
X8266807Y-10625065D01*
X8251786Y-10626158D02*
X8251786Y-10626158D01*
X8187335Y-10630702D02*
X8251786Y-10626158D01*
X8128299Y-10635927D02*
X8187335Y-10630702D01*
X8098357Y-10639146D02*
X8128299Y-10635927D01*
X8070525Y-10642718D02*
X8098357Y-10639146D01*
X8070525Y-10642718D02*
X8070525Y-10642718D01*
X8013306Y-10651687D02*
X8070525Y-10642718D01*
X7956428Y-10662213D02*
X8013306Y-10651687D01*
X7899920Y-10674282D02*
X7956428Y-10662213D01*
X7843809Y-10687886D02*
X7899920Y-10674282D01*
X7788126Y-10703012D02*
X7843809Y-10687886D01*
X7732898Y-10719651D02*
X7788126Y-10703012D01*
X7678154Y-10737790D02*
X7732898Y-10719651D01*
X7623923Y-10757420D02*
X7678154Y-10737790D01*
X7570234Y-10778529D02*
X7623923Y-10757420D01*
X7517115Y-10801107D02*
X7570234Y-10778529D01*
X7464595Y-10825143D02*
X7517115Y-10801107D01*
X7412704Y-10850626D02*
X7464595Y-10825143D01*
X7361468Y-10877545D02*
X7412704Y-10850626D01*
X7310918Y-10905889D02*
X7361468Y-10877545D01*
X7261083Y-10935648D02*
X7310918Y-10905889D01*
X7211990Y-10966810D02*
X7261083Y-10935648D01*
X7211990Y-10966810D02*
X7211990Y-10966810D01*
X7169537Y-10995299D02*
X7211990Y-10966810D01*
X7127748Y-11024795D02*
X7169537Y-10995299D01*
X7086648Y-11055272D02*
X7127748Y-11024795D01*
X7046263Y-11086706D02*
X7086648Y-11055272D01*
X7006620Y-11119071D02*
X7046263Y-11086706D01*
X6967745Y-11152342D02*
X7006620Y-11119071D01*
X6929665Y-11186493D02*
X6967745Y-11152342D01*
X6892406Y-11221499D02*
X6929665Y-11186493D01*
X6855993Y-11257336D02*
X6892406Y-11221499D01*
X6820454Y-11293976D02*
X6855993Y-11257336D01*
X6785815Y-11331396D02*
X6820454Y-11293976D01*
X6752101Y-11369570D02*
X6785815Y-11331396D01*
X6719340Y-11408473D02*
X6752101Y-11369570D01*
X6687558Y-11448078D02*
X6719340Y-11408473D01*
X6656780Y-11488362D02*
X6687558Y-11448078D01*
X6627034Y-11529299D02*
X6656780Y-11488362D01*
X6627034Y-11529299D02*
X6627034Y-11529299D01*
X6585392Y-11590093D02*
X6627034Y-11529299D01*
X6546043Y-11651664D02*
X6585392Y-11590093D01*
X6508986Y-11714013D02*
X6546043Y-11651664D01*
X6474220Y-11777141D02*
X6508986Y-11714013D01*
X6441745Y-11841051D02*
X6474220Y-11777141D01*
X6411559Y-11905744D02*
X6441745Y-11841051D01*
X6383663Y-11971221D02*
X6411559Y-11905744D01*
X6358056Y-12037485D02*
X6383663Y-11971221D01*
X6334737Y-12104537D02*
X6358056Y-12037485D01*
X6313706Y-12172378D02*
X6334737Y-12104537D01*
X6294962Y-12241010D02*
X6313706Y-12172378D01*
X6278504Y-12310436D02*
X6294962Y-12241010D01*
X6264333Y-12380656D02*
X6278504Y-12310436D01*
X6252446Y-12451672D02*
X6264333Y-12380656D01*
X6242844Y-12523486D02*
X6252446Y-12451672D01*
X6235526Y-12596099D02*
X6242844Y-12523486D01*
X6235526Y-12596099D02*
X6235526Y-12596099D01*
X6233729Y-12629322D02*
X6235526Y-12596099D01*
X6232495Y-12675485D02*
X6233729Y-12629322D01*
X6231318Y-12785215D02*
X6232495Y-12675485D01*
X6231334Y-12924394D02*
X6231318Y-12785215D01*
D11*
D12*
X6695000Y-16351000D02*
X6785000Y-16441000D01*
X6785000Y-16351000D02*
X6695000Y-16441000D01*
X6695000Y-16605000D02*
X6785000Y-16695000D01*
X6785000Y-16605000D02*
X6695000Y-16695000D01*
D13*
X8126000Y-16393000D02*
G75*
G03*
X8126000Y-16393000I-50000J0D01*
G01*
X8126000Y-16647000D02*
G75*
G03*
X8126000Y-16647000I-50000J0D01*
G01*
X8380000Y-16393000D02*
G75*
G03*
X8380000Y-16393000I-50000J0D01*
G01*
X8380000Y-16647000D02*
G75*
G03*
X8380000Y-16647000I-50000J0D01*
G01*
X8634000Y-16393000D02*
G75*
G03*
X8634000Y-16393000I-50000J0D01*
G01*
X8634000Y-16647000D02*
G75*
G03*
X8634000Y-16647000I-50000J0D01*
G01*
D11*
X6476821Y-17305592D02*
X6476821Y-17105592D01*
X6476821Y-17105592D02*
X6524440Y-17105592D01*
X6524440Y-17105592D02*
X6553011Y-17115116D01*
X6553011Y-17115116D02*
X6572059Y-17134164D01*
X6572059Y-17134164D02*
X6581582Y-17153211D01*
X6581582Y-17153211D02*
X6591106Y-17191306D01*
X6591106Y-17191306D02*
X6591106Y-17219878D01*
X6591106Y-17219878D02*
X6581582Y-17257973D01*
X6581582Y-17257973D02*
X6572059Y-17277021D01*
X6572059Y-17277021D02*
X6553011Y-17296068D01*
X6553011Y-17296068D02*
X6524440Y-17305592D01*
X6524440Y-17305592D02*
X6476821Y-17305592D01*
X6676821Y-17305592D02*
X6676821Y-17172259D01*
X6676821Y-17210354D02*
X6686344Y-17191306D01*
X6686344Y-17191306D02*
X6695868Y-17181783D01*
X6695868Y-17181783D02*
X6714916Y-17172259D01*
X6714916Y-17172259D02*
X6733963Y-17172259D01*
X6800630Y-17305592D02*
X6800630Y-17172259D01*
X6800630Y-17105592D02*
X6791106Y-17115116D01*
X6791106Y-17115116D02*
X6800630Y-17124640D01*
X6800630Y-17124640D02*
X6810154Y-17115116D01*
X6810154Y-17115116D02*
X6800630Y-17105592D01*
X6800630Y-17105592D02*
X6800630Y-17124640D01*
X6924440Y-17305592D02*
X6905392Y-17296068D01*
X6905392Y-17296068D02*
X6895868Y-17277021D01*
X6895868Y-17277021D02*
X6895868Y-17105592D01*
X7029201Y-17305592D02*
X7010154Y-17296068D01*
X7010154Y-17296068D02*
X7000630Y-17277021D01*
X7000630Y-17277021D02*
X7000630Y-17105592D01*
X7225392Y-17305592D02*
X7225392Y-17105592D01*
X7225392Y-17105592D02*
X7292059Y-17248449D01*
X7292059Y-17248449D02*
X7358725Y-17105592D01*
X7358725Y-17105592D02*
X7358725Y-17305592D01*
X7539678Y-17305592D02*
X7539678Y-17200830D01*
X7539678Y-17200830D02*
X7530154Y-17181783D01*
X7530154Y-17181783D02*
X7511106Y-17172259D01*
X7511106Y-17172259D02*
X7473011Y-17172259D01*
X7473011Y-17172259D02*
X7453963Y-17181783D01*
X7539678Y-17296068D02*
X7520630Y-17305592D01*
X7520630Y-17305592D02*
X7473011Y-17305592D01*
X7473011Y-17305592D02*
X7453963Y-17296068D01*
X7453963Y-17296068D02*
X7444440Y-17277021D01*
X7444440Y-17277021D02*
X7444440Y-17257973D01*
X7444440Y-17257973D02*
X7453963Y-17238925D01*
X7453963Y-17238925D02*
X7473011Y-17229402D01*
X7473011Y-17229402D02*
X7520630Y-17229402D01*
X7520630Y-17229402D02*
X7539678Y-17219878D01*
X7634916Y-17172259D02*
X7634916Y-17372259D01*
X7634916Y-17181783D02*
X7653963Y-17172259D01*
X7653963Y-17172259D02*
X7692059Y-17172259D01*
X7692059Y-17172259D02*
X7711106Y-17181783D01*
X7711106Y-17181783D02*
X7720630Y-17191306D01*
X7720630Y-17191306D02*
X7730154Y-17210354D01*
X7730154Y-17210354D02*
X7730154Y-17267497D01*
X7730154Y-17267497D02*
X7720630Y-17286544D01*
X7720630Y-17286544D02*
X7711106Y-17296068D01*
X7711106Y-17296068D02*
X7692059Y-17305592D01*
X7692059Y-17305592D02*
X7653963Y-17305592D01*
X7653963Y-17305592D02*
X7634916Y-17296068D01*
X7815868Y-17286544D02*
X7825392Y-17296068D01*
X7825392Y-17296068D02*
X7815868Y-17305592D01*
X7815868Y-17305592D02*
X7806344Y-17296068D01*
X7806344Y-17296068D02*
X7815868Y-17286544D01*
X7815868Y-17286544D02*
X7815868Y-17305592D01*
X7815868Y-17181783D02*
X7825392Y-17191306D01*
X7825392Y-17191306D02*
X7815868Y-17200830D01*
X7815868Y-17200830D02*
X7806344Y-17191306D01*
X7806344Y-17191306D02*
X7815868Y-17181783D01*
X7815868Y-17181783D02*
X7815868Y-17200830D01*
D12*
X6139202Y-17607116D02*
X6229202Y-17697116D01*
X6229202Y-17607116D02*
X6139202Y-17697116D01*
D11*
X6514916Y-17525592D02*
X6533963Y-17525592D01*
X6533963Y-17525592D02*
X6553011Y-17535116D01*
X6553011Y-17535116D02*
X6562535Y-17544640D01*
X6562535Y-17544640D02*
X6572059Y-17563687D01*
X6572059Y-17563687D02*
X6581582Y-17601783D01*
X6581582Y-17601783D02*
X6581582Y-17649402D01*
X6581582Y-17649402D02*
X6572059Y-17687497D01*
X6572059Y-17687497D02*
X6562535Y-17706544D01*
X6562535Y-17706544D02*
X6553011Y-17716068D01*
X6553011Y-17716068D02*
X6533963Y-17725592D01*
X6533963Y-17725592D02*
X6514916Y-17725592D01*
X6514916Y-17725592D02*
X6495868Y-17716068D01*
X6495868Y-17716068D02*
X6486344Y-17706544D01*
X6486344Y-17706544D02*
X6476821Y-17687497D01*
X6476821Y-17687497D02*
X6467297Y-17649402D01*
X6467297Y-17649402D02*
X6467297Y-17601783D01*
X6467297Y-17601783D02*
X6476821Y-17563687D01*
X6476821Y-17563687D02*
X6486344Y-17544640D01*
X6486344Y-17544640D02*
X6495868Y-17535116D01*
X6495868Y-17535116D02*
X6514916Y-17525592D01*
X6667297Y-17706544D02*
X6676821Y-17716068D01*
X6676821Y-17716068D02*
X6667297Y-17725592D01*
X6667297Y-17725592D02*
X6657773Y-17716068D01*
X6657773Y-17716068D02*
X6667297Y-17706544D01*
X6667297Y-17706544D02*
X6667297Y-17725592D01*
X6772059Y-17725592D02*
X6810154Y-17725592D01*
X6810154Y-17725592D02*
X6829202Y-17716068D01*
X6829202Y-17716068D02*
X6838725Y-17706544D01*
X6838725Y-17706544D02*
X6857773Y-17677973D01*
X6857773Y-17677973D02*
X6867297Y-17639878D01*
X6867297Y-17639878D02*
X6867297Y-17563687D01*
X6867297Y-17563687D02*
X6857773Y-17544640D01*
X6857773Y-17544640D02*
X6848249Y-17535116D01*
X6848249Y-17535116D02*
X6829202Y-17525592D01*
X6829202Y-17525592D02*
X6791106Y-17525592D01*
X6791106Y-17525592D02*
X6772059Y-17535116D01*
X6772059Y-17535116D02*
X6762535Y-17544640D01*
X6762535Y-17544640D02*
X6753011Y-17563687D01*
X6753011Y-17563687D02*
X6753011Y-17611306D01*
X6753011Y-17611306D02*
X6762535Y-17630354D01*
X6762535Y-17630354D02*
X6772059Y-17639878D01*
X6772059Y-17639878D02*
X6791106Y-17649402D01*
X6791106Y-17649402D02*
X6829202Y-17649402D01*
X6829202Y-17649402D02*
X6848249Y-17639878D01*
X6848249Y-17639878D02*
X6857773Y-17630354D01*
X6857773Y-17630354D02*
X6867297Y-17611306D01*
X6991106Y-17525592D02*
X7010154Y-17525592D01*
X7010154Y-17525592D02*
X7029202Y-17535116D01*
X7029202Y-17535116D02*
X7038725Y-17544640D01*
X7038725Y-17544640D02*
X7048249Y-17563687D01*
X7048249Y-17563687D02*
X7057773Y-17601783D01*
X7057773Y-17601783D02*
X7057773Y-17649402D01*
X7057773Y-17649402D02*
X7048249Y-17687497D01*
X7048249Y-17687497D02*
X7038725Y-17706544D01*
X7038725Y-17706544D02*
X7029202Y-17716068D01*
X7029202Y-17716068D02*
X7010154Y-17725592D01*
X7010154Y-17725592D02*
X6991106Y-17725592D01*
X6991106Y-17725592D02*
X6972059Y-17716068D01*
X6972059Y-17716068D02*
X6962535Y-17706544D01*
X6962535Y-17706544D02*
X6953011Y-17687497D01*
X6953011Y-17687497D02*
X6943487Y-17649402D01*
X6943487Y-17649402D02*
X6943487Y-17601783D01*
X6943487Y-17601783D02*
X6953011Y-17563687D01*
X6953011Y-17563687D02*
X6962535Y-17544640D01*
X6962535Y-17544640D02*
X6972059Y-17535116D01*
X6972059Y-17535116D02*
X6991106Y-17525592D01*
X7181582Y-17525592D02*
X7200630Y-17525592D01*
X7200630Y-17525592D02*
X7219678Y-17535116D01*
X7219678Y-17535116D02*
X7229202Y-17544640D01*
X7229202Y-17544640D02*
X7238725Y-17563687D01*
X7238725Y-17563687D02*
X7248249Y-17601783D01*
X7248249Y-17601783D02*
X7248249Y-17649402D01*
X7248249Y-17649402D02*
X7238725Y-17687497D01*
X7238725Y-17687497D02*
X7229202Y-17706544D01*
X7229202Y-17706544D02*
X7219678Y-17716068D01*
X7219678Y-17716068D02*
X7200630Y-17725592D01*
X7200630Y-17725592D02*
X7181582Y-17725592D01*
X7181582Y-17725592D02*
X7162535Y-17716068D01*
X7162535Y-17716068D02*
X7153011Y-17706544D01*
X7153011Y-17706544D02*
X7143487Y-17687497D01*
X7143487Y-17687497D02*
X7133963Y-17649402D01*
X7133963Y-17649402D02*
X7133963Y-17601783D01*
X7133963Y-17601783D02*
X7143487Y-17563687D01*
X7143487Y-17563687D02*
X7153011Y-17544640D01*
X7153011Y-17544640D02*
X7162535Y-17535116D01*
X7162535Y-17535116D02*
X7181582Y-17525592D01*
X7333963Y-17725592D02*
X7333963Y-17592259D01*
X7333963Y-17611306D02*
X7343487Y-17601783D01*
X7343487Y-17601783D02*
X7362535Y-17592259D01*
X7362535Y-17592259D02*
X7391106Y-17592259D01*
X7391106Y-17592259D02*
X7410154Y-17601783D01*
X7410154Y-17601783D02*
X7419678Y-17620830D01*
X7419678Y-17620830D02*
X7419678Y-17725592D01*
X7419678Y-17620830D02*
X7429202Y-17601783D01*
X7429202Y-17601783D02*
X7448249Y-17592259D01*
X7448249Y-17592259D02*
X7476821Y-17592259D01*
X7476821Y-17592259D02*
X7495868Y-17601783D01*
X7495868Y-17601783D02*
X7505392Y-17620830D01*
X7505392Y-17620830D02*
X7505392Y-17725592D01*
X7600630Y-17725592D02*
X7600630Y-17592259D01*
X7600630Y-17611306D02*
X7610154Y-17601783D01*
X7610154Y-17601783D02*
X7629202Y-17592259D01*
X7629202Y-17592259D02*
X7657773Y-17592259D01*
X7657773Y-17592259D02*
X7676821Y-17601783D01*
X7676821Y-17601783D02*
X7686344Y-17620830D01*
X7686344Y-17620830D02*
X7686344Y-17725592D01*
X7686344Y-17620830D02*
X7695868Y-17601783D01*
X7695868Y-17601783D02*
X7714916Y-17592259D01*
X7714916Y-17592259D02*
X7743487Y-17592259D01*
X7743487Y-17592259D02*
X7762535Y-17601783D01*
X7762535Y-17601783D02*
X7772059Y-17620830D01*
X7772059Y-17620830D02*
X7772059Y-17725592D01*
X8130154Y-17516068D02*
X7958725Y-17773211D01*
X8354916Y-17525592D02*
X8373964Y-17525592D01*
X8373964Y-17525592D02*
X8393011Y-17535116D01*
X8393011Y-17535116D02*
X8402535Y-17544640D01*
X8402535Y-17544640D02*
X8412059Y-17563687D01*
X8412059Y-17563687D02*
X8421583Y-17601783D01*
X8421583Y-17601783D02*
X8421583Y-17649402D01*
X8421583Y-17649402D02*
X8412059Y-17687497D01*
X8412059Y-17687497D02*
X8402535Y-17706544D01*
X8402535Y-17706544D02*
X8393011Y-17716068D01*
X8393011Y-17716068D02*
X8373964Y-17725592D01*
X8373964Y-17725592D02*
X8354916Y-17725592D01*
X8354916Y-17725592D02*
X8335868Y-17716068D01*
X8335868Y-17716068D02*
X8326344Y-17706544D01*
X8326344Y-17706544D02*
X8316821Y-17687497D01*
X8316821Y-17687497D02*
X8307297Y-17649402D01*
X8307297Y-17649402D02*
X8307297Y-17601783D01*
X8307297Y-17601783D02*
X8316821Y-17563687D01*
X8316821Y-17563687D02*
X8326344Y-17544640D01*
X8326344Y-17544640D02*
X8335868Y-17535116D01*
X8335868Y-17535116D02*
X8354916Y-17525592D01*
X8507297Y-17706544D02*
X8516821Y-17716068D01*
X8516821Y-17716068D02*
X8507297Y-17725592D01*
X8507297Y-17725592D02*
X8497773Y-17716068D01*
X8497773Y-17716068D02*
X8507297Y-17706544D01*
X8507297Y-17706544D02*
X8507297Y-17725592D01*
X8640630Y-17525592D02*
X8659678Y-17525592D01*
X8659678Y-17525592D02*
X8678726Y-17535116D01*
X8678726Y-17535116D02*
X8688249Y-17544640D01*
X8688249Y-17544640D02*
X8697773Y-17563687D01*
X8697773Y-17563687D02*
X8707297Y-17601783D01*
X8707297Y-17601783D02*
X8707297Y-17649402D01*
X8707297Y-17649402D02*
X8697773Y-17687497D01*
X8697773Y-17687497D02*
X8688249Y-17706544D01*
X8688249Y-17706544D02*
X8678726Y-17716068D01*
X8678726Y-17716068D02*
X8659678Y-17725592D01*
X8659678Y-17725592D02*
X8640630Y-17725592D01*
X8640630Y-17725592D02*
X8621583Y-17716068D01*
X8621583Y-17716068D02*
X8612059Y-17706544D01*
X8612059Y-17706544D02*
X8602535Y-17687497D01*
X8602535Y-17687497D02*
X8593011Y-17649402D01*
X8593011Y-17649402D02*
X8593011Y-17601783D01*
X8593011Y-17601783D02*
X8602535Y-17563687D01*
X8602535Y-17563687D02*
X8612059Y-17544640D01*
X8612059Y-17544640D02*
X8621583Y-17535116D01*
X8621583Y-17535116D02*
X8640630Y-17525592D01*
X8773964Y-17525592D02*
X8897773Y-17525592D01*
X8897773Y-17525592D02*
X8831106Y-17601783D01*
X8831106Y-17601783D02*
X8859678Y-17601783D01*
X8859678Y-17601783D02*
X8878726Y-17611306D01*
X8878726Y-17611306D02*
X8888249Y-17620830D01*
X8888249Y-17620830D02*
X8897773Y-17639878D01*
X8897773Y-17639878D02*
X8897773Y-17687497D01*
X8897773Y-17687497D02*
X8888249Y-17706544D01*
X8888249Y-17706544D02*
X8878726Y-17716068D01*
X8878726Y-17716068D02*
X8859678Y-17725592D01*
X8859678Y-17725592D02*
X8802535Y-17725592D01*
X8802535Y-17725592D02*
X8783487Y-17716068D01*
X8783487Y-17716068D02*
X8773964Y-17706544D01*
X9078726Y-17525592D02*
X8983487Y-17525592D01*
X8983487Y-17525592D02*
X8973964Y-17620830D01*
X8973964Y-17620830D02*
X8983487Y-17611306D01*
X8983487Y-17611306D02*
X9002535Y-17601783D01*
X9002535Y-17601783D02*
X9050154Y-17601783D01*
X9050154Y-17601783D02*
X9069202Y-17611306D01*
X9069202Y-17611306D02*
X9078726Y-17620830D01*
X9078726Y-17620830D02*
X9088249Y-17639878D01*
X9088249Y-17639878D02*
X9088249Y-17687497D01*
X9088249Y-17687497D02*
X9078726Y-17706544D01*
X9078726Y-17706544D02*
X9069202Y-17716068D01*
X9069202Y-17716068D02*
X9050154Y-17725592D01*
X9050154Y-17725592D02*
X9002535Y-17725592D01*
X9002535Y-17725592D02*
X8983487Y-17716068D01*
X8983487Y-17716068D02*
X8973964Y-17706544D01*
X9259678Y-17592259D02*
X9259678Y-17725592D01*
X9212059Y-17516068D02*
X9164440Y-17658925D01*
X9164440Y-17658925D02*
X9288249Y-17658925D01*
X9354916Y-17525592D02*
X9354916Y-17563687D01*
X9431107Y-17525592D02*
X9431107Y-17563687D01*
X9693964Y-17801783D02*
X9684440Y-17792259D01*
X9684440Y-17792259D02*
X9665392Y-17763687D01*
X9665392Y-17763687D02*
X9655868Y-17744640D01*
X9655868Y-17744640D02*
X9646345Y-17716068D01*
X9646345Y-17716068D02*
X9636821Y-17668449D01*
X9636821Y-17668449D02*
X9636821Y-17630354D01*
X9636821Y-17630354D02*
X9646345Y-17582735D01*
X9646345Y-17582735D02*
X9655868Y-17554164D01*
X9655868Y-17554164D02*
X9665392Y-17535116D01*
X9665392Y-17535116D02*
X9684440Y-17506544D01*
X9684440Y-17506544D02*
X9693964Y-17497021D01*
X9760630Y-17544640D02*
X9770154Y-17535116D01*
X9770154Y-17535116D02*
X9789202Y-17525592D01*
X9789202Y-17525592D02*
X9836821Y-17525592D01*
X9836821Y-17525592D02*
X9855868Y-17535116D01*
X9855868Y-17535116D02*
X9865392Y-17544640D01*
X9865392Y-17544640D02*
X9874916Y-17563687D01*
X9874916Y-17563687D02*
X9874916Y-17582735D01*
X9874916Y-17582735D02*
X9865392Y-17611306D01*
X9865392Y-17611306D02*
X9751107Y-17725592D01*
X9751107Y-17725592D02*
X9874916Y-17725592D01*
X10080630Y-17725592D02*
X10080630Y-17525592D01*
X10166345Y-17725592D02*
X10166345Y-17620830D01*
X10166345Y-17620830D02*
X10156821Y-17601783D01*
X10156821Y-17601783D02*
X10137773Y-17592259D01*
X10137773Y-17592259D02*
X10109202Y-17592259D01*
X10109202Y-17592259D02*
X10090154Y-17601783D01*
X10090154Y-17601783D02*
X10080630Y-17611306D01*
X10290154Y-17725592D02*
X10271107Y-17716068D01*
X10271107Y-17716068D02*
X10261583Y-17706544D01*
X10261583Y-17706544D02*
X10252059Y-17687497D01*
X10252059Y-17687497D02*
X10252059Y-17630354D01*
X10252059Y-17630354D02*
X10261583Y-17611306D01*
X10261583Y-17611306D02*
X10271107Y-17601783D01*
X10271107Y-17601783D02*
X10290154Y-17592259D01*
X10290154Y-17592259D02*
X10318726Y-17592259D01*
X10318726Y-17592259D02*
X10337773Y-17601783D01*
X10337773Y-17601783D02*
X10347297Y-17611306D01*
X10347297Y-17611306D02*
X10356821Y-17630354D01*
X10356821Y-17630354D02*
X10356821Y-17687497D01*
X10356821Y-17687497D02*
X10347297Y-17706544D01*
X10347297Y-17706544D02*
X10337773Y-17716068D01*
X10337773Y-17716068D02*
X10318726Y-17725592D01*
X10318726Y-17725592D02*
X10290154Y-17725592D01*
X10471107Y-17725592D02*
X10452059Y-17716068D01*
X10452059Y-17716068D02*
X10442535Y-17697021D01*
X10442535Y-17697021D02*
X10442535Y-17525592D01*
X10623488Y-17716068D02*
X10604440Y-17725592D01*
X10604440Y-17725592D02*
X10566345Y-17725592D01*
X10566345Y-17725592D02*
X10547297Y-17716068D01*
X10547297Y-17716068D02*
X10537773Y-17697021D01*
X10537773Y-17697021D02*
X10537773Y-17620830D01*
X10537773Y-17620830D02*
X10547297Y-17601783D01*
X10547297Y-17601783D02*
X10566345Y-17592259D01*
X10566345Y-17592259D02*
X10604440Y-17592259D01*
X10604440Y-17592259D02*
X10623488Y-17601783D01*
X10623488Y-17601783D02*
X10633011Y-17620830D01*
X10633011Y-17620830D02*
X10633011Y-17639878D01*
X10633011Y-17639878D02*
X10537773Y-17658925D01*
X10709202Y-17716068D02*
X10728249Y-17725592D01*
X10728249Y-17725592D02*
X10766345Y-17725592D01*
X10766345Y-17725592D02*
X10785392Y-17716068D01*
X10785392Y-17716068D02*
X10794916Y-17697021D01*
X10794916Y-17697021D02*
X10794916Y-17687497D01*
X10794916Y-17687497D02*
X10785392Y-17668449D01*
X10785392Y-17668449D02*
X10766345Y-17658925D01*
X10766345Y-17658925D02*
X10737773Y-17658925D01*
X10737773Y-17658925D02*
X10718726Y-17649402D01*
X10718726Y-17649402D02*
X10709202Y-17630354D01*
X10709202Y-17630354D02*
X10709202Y-17620830D01*
X10709202Y-17620830D02*
X10718726Y-17601783D01*
X10718726Y-17601783D02*
X10737773Y-17592259D01*
X10737773Y-17592259D02*
X10766345Y-17592259D01*
X10766345Y-17592259D02*
X10785392Y-17601783D01*
X10861583Y-17801783D02*
X10871107Y-17792259D01*
X10871107Y-17792259D02*
X10890154Y-17763687D01*
X10890154Y-17763687D02*
X10899678Y-17744640D01*
X10899678Y-17744640D02*
X10909202Y-17716068D01*
X10909202Y-17716068D02*
X10918726Y-17668449D01*
X10918726Y-17668449D02*
X10918726Y-17630354D01*
X10918726Y-17630354D02*
X10909202Y-17582735D01*
X10909202Y-17582735D02*
X10899678Y-17554164D01*
X10899678Y-17554164D02*
X10890154Y-17535116D01*
X10890154Y-17535116D02*
X10871107Y-17506544D01*
X10871107Y-17506544D02*
X10861583Y-17497021D01*
D13*
X6229202Y-17916116D02*
G75*
G03*
X6229202Y-17916116I-50000J0D01*
G01*
D11*
X6581582Y-17989592D02*
X6467297Y-17989592D01*
X6524440Y-17989592D02*
X6524440Y-17789592D01*
X6524440Y-17789592D02*
X6505392Y-17818164D01*
X6505392Y-17818164D02*
X6486344Y-17837211D01*
X6486344Y-17837211D02*
X6467297Y-17846735D01*
X6667297Y-17970544D02*
X6676821Y-17980068D01*
X6676821Y-17980068D02*
X6667297Y-17989592D01*
X6667297Y-17989592D02*
X6657773Y-17980068D01*
X6657773Y-17980068D02*
X6667297Y-17970544D01*
X6667297Y-17970544D02*
X6667297Y-17989592D01*
X6800630Y-17789592D02*
X6819678Y-17789592D01*
X6819678Y-17789592D02*
X6838725Y-17799116D01*
X6838725Y-17799116D02*
X6848249Y-17808640D01*
X6848249Y-17808640D02*
X6857773Y-17827687D01*
X6857773Y-17827687D02*
X6867297Y-17865783D01*
X6867297Y-17865783D02*
X6867297Y-17913402D01*
X6867297Y-17913402D02*
X6857773Y-17951497D01*
X6857773Y-17951497D02*
X6848249Y-17970544D01*
X6848249Y-17970544D02*
X6838725Y-17980068D01*
X6838725Y-17980068D02*
X6819678Y-17989592D01*
X6819678Y-17989592D02*
X6800630Y-17989592D01*
X6800630Y-17989592D02*
X6781582Y-17980068D01*
X6781582Y-17980068D02*
X6772059Y-17970544D01*
X6772059Y-17970544D02*
X6762535Y-17951497D01*
X6762535Y-17951497D02*
X6753011Y-17913402D01*
X6753011Y-17913402D02*
X6753011Y-17865783D01*
X6753011Y-17865783D02*
X6762535Y-17827687D01*
X6762535Y-17827687D02*
X6772059Y-17808640D01*
X6772059Y-17808640D02*
X6781582Y-17799116D01*
X6781582Y-17799116D02*
X6800630Y-17789592D01*
X6991106Y-17789592D02*
X7010154Y-17789592D01*
X7010154Y-17789592D02*
X7029202Y-17799116D01*
X7029202Y-17799116D02*
X7038725Y-17808640D01*
X7038725Y-17808640D02*
X7048249Y-17827687D01*
X7048249Y-17827687D02*
X7057773Y-17865783D01*
X7057773Y-17865783D02*
X7057773Y-17913402D01*
X7057773Y-17913402D02*
X7048249Y-17951497D01*
X7048249Y-17951497D02*
X7038725Y-17970544D01*
X7038725Y-17970544D02*
X7029202Y-17980068D01*
X7029202Y-17980068D02*
X7010154Y-17989592D01*
X7010154Y-17989592D02*
X6991106Y-17989592D01*
X6991106Y-17989592D02*
X6972059Y-17980068D01*
X6972059Y-17980068D02*
X6962535Y-17970544D01*
X6962535Y-17970544D02*
X6953011Y-17951497D01*
X6953011Y-17951497D02*
X6943487Y-17913402D01*
X6943487Y-17913402D02*
X6943487Y-17865783D01*
X6943487Y-17865783D02*
X6953011Y-17827687D01*
X6953011Y-17827687D02*
X6962535Y-17808640D01*
X6962535Y-17808640D02*
X6972059Y-17799116D01*
X6972059Y-17799116D02*
X6991106Y-17789592D01*
X7181582Y-17789592D02*
X7200630Y-17789592D01*
X7200630Y-17789592D02*
X7219678Y-17799116D01*
X7219678Y-17799116D02*
X7229202Y-17808640D01*
X7229202Y-17808640D02*
X7238725Y-17827687D01*
X7238725Y-17827687D02*
X7248249Y-17865783D01*
X7248249Y-17865783D02*
X7248249Y-17913402D01*
X7248249Y-17913402D02*
X7238725Y-17951497D01*
X7238725Y-17951497D02*
X7229202Y-17970544D01*
X7229202Y-17970544D02*
X7219678Y-17980068D01*
X7219678Y-17980068D02*
X7200630Y-17989592D01*
X7200630Y-17989592D02*
X7181582Y-17989592D01*
X7181582Y-17989592D02*
X7162535Y-17980068D01*
X7162535Y-17980068D02*
X7153011Y-17970544D01*
X7153011Y-17970544D02*
X7143487Y-17951497D01*
X7143487Y-17951497D02*
X7133963Y-17913402D01*
X7133963Y-17913402D02*
X7133963Y-17865783D01*
X7133963Y-17865783D02*
X7143487Y-17827687D01*
X7143487Y-17827687D02*
X7153011Y-17808640D01*
X7153011Y-17808640D02*
X7162535Y-17799116D01*
X7162535Y-17799116D02*
X7181582Y-17789592D01*
X7333963Y-17989592D02*
X7333963Y-17856259D01*
X7333963Y-17875306D02*
X7343487Y-17865783D01*
X7343487Y-17865783D02*
X7362535Y-17856259D01*
X7362535Y-17856259D02*
X7391106Y-17856259D01*
X7391106Y-17856259D02*
X7410154Y-17865783D01*
X7410154Y-17865783D02*
X7419678Y-17884830D01*
X7419678Y-17884830D02*
X7419678Y-17989592D01*
X7419678Y-17884830D02*
X7429202Y-17865783D01*
X7429202Y-17865783D02*
X7448249Y-17856259D01*
X7448249Y-17856259D02*
X7476821Y-17856259D01*
X7476821Y-17856259D02*
X7495868Y-17865783D01*
X7495868Y-17865783D02*
X7505392Y-17884830D01*
X7505392Y-17884830D02*
X7505392Y-17989592D01*
X7600630Y-17989592D02*
X7600630Y-17856259D01*
X7600630Y-17875306D02*
X7610154Y-17865783D01*
X7610154Y-17865783D02*
X7629202Y-17856259D01*
X7629202Y-17856259D02*
X7657773Y-17856259D01*
X7657773Y-17856259D02*
X7676821Y-17865783D01*
X7676821Y-17865783D02*
X7686344Y-17884830D01*
X7686344Y-17884830D02*
X7686344Y-17989592D01*
X7686344Y-17884830D02*
X7695868Y-17865783D01*
X7695868Y-17865783D02*
X7714916Y-17856259D01*
X7714916Y-17856259D02*
X7743487Y-17856259D01*
X7743487Y-17856259D02*
X7762535Y-17865783D01*
X7762535Y-17865783D02*
X7772059Y-17884830D01*
X7772059Y-17884830D02*
X7772059Y-17989592D01*
X8130154Y-17780068D02*
X7958725Y-18037211D01*
X8354916Y-17789592D02*
X8373964Y-17789592D01*
X8373964Y-17789592D02*
X8393011Y-17799116D01*
X8393011Y-17799116D02*
X8402535Y-17808640D01*
X8402535Y-17808640D02*
X8412059Y-17827687D01*
X8412059Y-17827687D02*
X8421583Y-17865783D01*
X8421583Y-17865783D02*
X8421583Y-17913402D01*
X8421583Y-17913402D02*
X8412059Y-17951497D01*
X8412059Y-17951497D02*
X8402535Y-17970544D01*
X8402535Y-17970544D02*
X8393011Y-17980068D01*
X8393011Y-17980068D02*
X8373964Y-17989592D01*
X8373964Y-17989592D02*
X8354916Y-17989592D01*
X8354916Y-17989592D02*
X8335868Y-17980068D01*
X8335868Y-17980068D02*
X8326344Y-17970544D01*
X8326344Y-17970544D02*
X8316821Y-17951497D01*
X8316821Y-17951497D02*
X8307297Y-17913402D01*
X8307297Y-17913402D02*
X8307297Y-17865783D01*
X8307297Y-17865783D02*
X8316821Y-17827687D01*
X8316821Y-17827687D02*
X8326344Y-17808640D01*
X8326344Y-17808640D02*
X8335868Y-17799116D01*
X8335868Y-17799116D02*
X8354916Y-17789592D01*
X8507297Y-17970544D02*
X8516821Y-17980068D01*
X8516821Y-17980068D02*
X8507297Y-17989592D01*
X8507297Y-17989592D02*
X8497773Y-17980068D01*
X8497773Y-17980068D02*
X8507297Y-17970544D01*
X8507297Y-17970544D02*
X8507297Y-17989592D01*
X8640630Y-17789592D02*
X8659678Y-17789592D01*
X8659678Y-17789592D02*
X8678726Y-17799116D01*
X8678726Y-17799116D02*
X8688249Y-17808640D01*
X8688249Y-17808640D02*
X8697773Y-17827687D01*
X8697773Y-17827687D02*
X8707297Y-17865783D01*
X8707297Y-17865783D02*
X8707297Y-17913402D01*
X8707297Y-17913402D02*
X8697773Y-17951497D01*
X8697773Y-17951497D02*
X8688249Y-17970544D01*
X8688249Y-17970544D02*
X8678726Y-17980068D01*
X8678726Y-17980068D02*
X8659678Y-17989592D01*
X8659678Y-17989592D02*
X8640630Y-17989592D01*
X8640630Y-17989592D02*
X8621583Y-17980068D01*
X8621583Y-17980068D02*
X8612059Y-17970544D01*
X8612059Y-17970544D02*
X8602535Y-17951497D01*
X8602535Y-17951497D02*
X8593011Y-17913402D01*
X8593011Y-17913402D02*
X8593011Y-17865783D01*
X8593011Y-17865783D02*
X8602535Y-17827687D01*
X8602535Y-17827687D02*
X8612059Y-17808640D01*
X8612059Y-17808640D02*
X8621583Y-17799116D01*
X8621583Y-17799116D02*
X8640630Y-17789592D01*
X8773964Y-17789592D02*
X8897773Y-17789592D01*
X8897773Y-17789592D02*
X8831106Y-17865783D01*
X8831106Y-17865783D02*
X8859678Y-17865783D01*
X8859678Y-17865783D02*
X8878726Y-17875306D01*
X8878726Y-17875306D02*
X8888249Y-17884830D01*
X8888249Y-17884830D02*
X8897773Y-17903878D01*
X8897773Y-17903878D02*
X8897773Y-17951497D01*
X8897773Y-17951497D02*
X8888249Y-17970544D01*
X8888249Y-17970544D02*
X8878726Y-17980068D01*
X8878726Y-17980068D02*
X8859678Y-17989592D01*
X8859678Y-17989592D02*
X8802535Y-17989592D01*
X8802535Y-17989592D02*
X8783487Y-17980068D01*
X8783487Y-17980068D02*
X8773964Y-17970544D01*
X8993011Y-17989592D02*
X9031106Y-17989592D01*
X9031106Y-17989592D02*
X9050154Y-17980068D01*
X9050154Y-17980068D02*
X9059678Y-17970544D01*
X9059678Y-17970544D02*
X9078726Y-17941973D01*
X9078726Y-17941973D02*
X9088249Y-17903878D01*
X9088249Y-17903878D02*
X9088249Y-17827687D01*
X9088249Y-17827687D02*
X9078726Y-17808640D01*
X9078726Y-17808640D02*
X9069202Y-17799116D01*
X9069202Y-17799116D02*
X9050154Y-17789592D01*
X9050154Y-17789592D02*
X9012059Y-17789592D01*
X9012059Y-17789592D02*
X8993011Y-17799116D01*
X8993011Y-17799116D02*
X8983487Y-17808640D01*
X8983487Y-17808640D02*
X8973964Y-17827687D01*
X8973964Y-17827687D02*
X8973964Y-17875306D01*
X8973964Y-17875306D02*
X8983487Y-17894354D01*
X8983487Y-17894354D02*
X8993011Y-17903878D01*
X8993011Y-17903878D02*
X9012059Y-17913402D01*
X9012059Y-17913402D02*
X9050154Y-17913402D01*
X9050154Y-17913402D02*
X9069202Y-17903878D01*
X9069202Y-17903878D02*
X9078726Y-17894354D01*
X9078726Y-17894354D02*
X9088249Y-17875306D01*
X9259678Y-17856259D02*
X9259678Y-17989592D01*
X9212059Y-17780068D02*
X9164440Y-17922925D01*
X9164440Y-17922925D02*
X9288249Y-17922925D01*
X9354916Y-17789592D02*
X9354916Y-17827687D01*
X9431107Y-17789592D02*
X9431107Y-17827687D01*
X9693964Y-18065783D02*
X9684440Y-18056259D01*
X9684440Y-18056259D02*
X9665392Y-18027687D01*
X9665392Y-18027687D02*
X9655868Y-18008640D01*
X9655868Y-18008640D02*
X9646345Y-17980068D01*
X9646345Y-17980068D02*
X9636821Y-17932449D01*
X9636821Y-17932449D02*
X9636821Y-17894354D01*
X9636821Y-17894354D02*
X9646345Y-17846735D01*
X9646345Y-17846735D02*
X9655868Y-17818164D01*
X9655868Y-17818164D02*
X9665392Y-17799116D01*
X9665392Y-17799116D02*
X9684440Y-17770544D01*
X9684440Y-17770544D02*
X9693964Y-17761021D01*
X9855868Y-17789592D02*
X9817773Y-17789592D01*
X9817773Y-17789592D02*
X9798726Y-17799116D01*
X9798726Y-17799116D02*
X9789202Y-17808640D01*
X9789202Y-17808640D02*
X9770154Y-17837211D01*
X9770154Y-17837211D02*
X9760630Y-17875306D01*
X9760630Y-17875306D02*
X9760630Y-17951497D01*
X9760630Y-17951497D02*
X9770154Y-17970544D01*
X9770154Y-17970544D02*
X9779678Y-17980068D01*
X9779678Y-17980068D02*
X9798726Y-17989592D01*
X9798726Y-17989592D02*
X9836821Y-17989592D01*
X9836821Y-17989592D02*
X9855868Y-17980068D01*
X9855868Y-17980068D02*
X9865392Y-17970544D01*
X9865392Y-17970544D02*
X9874916Y-17951497D01*
X9874916Y-17951497D02*
X9874916Y-17903878D01*
X9874916Y-17903878D02*
X9865392Y-17884830D01*
X9865392Y-17884830D02*
X9855868Y-17875306D01*
X9855868Y-17875306D02*
X9836821Y-17865783D01*
X9836821Y-17865783D02*
X9798726Y-17865783D01*
X9798726Y-17865783D02*
X9779678Y-17875306D01*
X9779678Y-17875306D02*
X9770154Y-17884830D01*
X9770154Y-17884830D02*
X9760630Y-17903878D01*
X10080630Y-17989592D02*
X10080630Y-17789592D01*
X10166345Y-17989592D02*
X10166345Y-17884830D01*
X10166345Y-17884830D02*
X10156821Y-17865783D01*
X10156821Y-17865783D02*
X10137773Y-17856259D01*
X10137773Y-17856259D02*
X10109202Y-17856259D01*
X10109202Y-17856259D02*
X10090154Y-17865783D01*
X10090154Y-17865783D02*
X10080630Y-17875306D01*
X10290154Y-17989592D02*
X10271107Y-17980068D01*
X10271107Y-17980068D02*
X10261583Y-17970544D01*
X10261583Y-17970544D02*
X10252059Y-17951497D01*
X10252059Y-17951497D02*
X10252059Y-17894354D01*
X10252059Y-17894354D02*
X10261583Y-17875306D01*
X10261583Y-17875306D02*
X10271107Y-17865783D01*
X10271107Y-17865783D02*
X10290154Y-17856259D01*
X10290154Y-17856259D02*
X10318726Y-17856259D01*
X10318726Y-17856259D02*
X10337773Y-17865783D01*
X10337773Y-17865783D02*
X10347297Y-17875306D01*
X10347297Y-17875306D02*
X10356821Y-17894354D01*
X10356821Y-17894354D02*
X10356821Y-17951497D01*
X10356821Y-17951497D02*
X10347297Y-17970544D01*
X10347297Y-17970544D02*
X10337773Y-17980068D01*
X10337773Y-17980068D02*
X10318726Y-17989592D01*
X10318726Y-17989592D02*
X10290154Y-17989592D01*
X10471107Y-17989592D02*
X10452059Y-17980068D01*
X10452059Y-17980068D02*
X10442535Y-17961021D01*
X10442535Y-17961021D02*
X10442535Y-17789592D01*
X10623488Y-17980068D02*
X10604440Y-17989592D01*
X10604440Y-17989592D02*
X10566345Y-17989592D01*
X10566345Y-17989592D02*
X10547297Y-17980068D01*
X10547297Y-17980068D02*
X10537773Y-17961021D01*
X10537773Y-17961021D02*
X10537773Y-17884830D01*
X10537773Y-17884830D02*
X10547297Y-17865783D01*
X10547297Y-17865783D02*
X10566345Y-17856259D01*
X10566345Y-17856259D02*
X10604440Y-17856259D01*
X10604440Y-17856259D02*
X10623488Y-17865783D01*
X10623488Y-17865783D02*
X10633011Y-17884830D01*
X10633011Y-17884830D02*
X10633011Y-17903878D01*
X10633011Y-17903878D02*
X10537773Y-17922925D01*
X10709202Y-17980068D02*
X10728249Y-17989592D01*
X10728249Y-17989592D02*
X10766345Y-17989592D01*
X10766345Y-17989592D02*
X10785392Y-17980068D01*
X10785392Y-17980068D02*
X10794916Y-17961021D01*
X10794916Y-17961021D02*
X10794916Y-17951497D01*
X10794916Y-17951497D02*
X10785392Y-17932449D01*
X10785392Y-17932449D02*
X10766345Y-17922925D01*
X10766345Y-17922925D02*
X10737773Y-17922925D01*
X10737773Y-17922925D02*
X10718726Y-17913402D01*
X10718726Y-17913402D02*
X10709202Y-17894354D01*
X10709202Y-17894354D02*
X10709202Y-17884830D01*
X10709202Y-17884830D02*
X10718726Y-17865783D01*
X10718726Y-17865783D02*
X10737773Y-17856259D01*
X10737773Y-17856259D02*
X10766345Y-17856259D01*
X10766345Y-17856259D02*
X10785392Y-17865783D01*
X10861583Y-18065783D02*
X10871107Y-18056259D01*
X10871107Y-18056259D02*
X10890154Y-18027687D01*
X10890154Y-18027687D02*
X10899678Y-18008640D01*
X10899678Y-18008640D02*
X10909202Y-17980068D01*
X10909202Y-17980068D02*
X10918726Y-17932449D01*
X10918726Y-17932449D02*
X10918726Y-17894354D01*
X10918726Y-17894354D02*
X10909202Y-17846735D01*
X10909202Y-17846735D02*
X10899678Y-17818164D01*
X10899678Y-17818164D02*
X10890154Y-17799116D01*
X10890154Y-17799116D02*
X10871107Y-17770544D01*
X10871107Y-17770544D02*
X10861583Y-17761021D01*
M02*
