G04 #@! TF.GenerationSoftware,KiCad,Pcbnew,(6.99.0-2452-gdb4f2d9dd8)*
G04 #@! TF.CreationDate,2022-08-02T18:55:21-05:00*
G04 #@! TF.ProjectId,AIAA,41494141-2e6b-4696-9361-645f70636258,rev?*
G04 #@! TF.SameCoordinates,Original*
G04 #@! TF.FileFunction,Legend,Top*
G04 #@! TF.FilePolarity,Positive*
%FSLAX46Y46*%
G04 Gerber Fmt 4.6, Leading zero omitted, Abs format (unit mm)*
G04 Created by KiCad (PCBNEW (6.99.0-2452-gdb4f2d9dd8)) date 2022-08-02 18:55:21*
%MOMM*%
%LPD*%
G01*
G04 APERTURE LIST*
%ADD10C,0.150000*%
%ADD11C,0.010000*%
%ADD12C,0.025000*%
%ADD13C,0.050000*%
%ADD14C,0.120000*%
%ADD15R,1.800000X1.800000*%
%ADD16C,1.800000*%
%ADD17R,1.700000X1.700000*%
%ADD18O,1.700000X1.700000*%
G04 APERTURE END LIST*
D10*
G36*
X89916817Y-167007505D02*
G01*
X89963791Y-167009899D01*
X90010920Y-167013892D01*
X90058088Y-167019485D01*
X90105180Y-167026681D01*
X90152082Y-167035481D01*
X90198678Y-167045888D01*
X90244854Y-167057904D01*
X90290494Y-167071531D01*
X90335485Y-167086770D01*
X90379711Y-167103623D01*
X90423057Y-167122094D01*
X90465408Y-167142183D01*
X90506650Y-167163893D01*
X90546668Y-167187225D01*
X90585346Y-167212183D01*
X90622570Y-167238767D01*
X90658225Y-167266979D01*
X90692196Y-167296823D01*
X90724368Y-167328299D01*
X90754627Y-167361410D01*
X90782857Y-167396158D01*
X90808944Y-167432545D01*
X90832772Y-167470572D01*
X90854228Y-167510243D01*
X90873195Y-167551558D01*
X90889559Y-167594520D01*
X90903206Y-167639131D01*
X90914020Y-167685393D01*
X90921887Y-167733308D01*
X90926691Y-167782878D01*
X90928318Y-167834104D01*
X90927751Y-167857207D01*
X90926054Y-167880400D01*
X90923232Y-167903629D01*
X90919293Y-167926841D01*
X90914242Y-167949981D01*
X90908084Y-167972995D01*
X90900826Y-167995829D01*
X90892474Y-168018429D01*
X90883033Y-168040741D01*
X90872510Y-168062712D01*
X90860910Y-168084286D01*
X90848240Y-168105411D01*
X90834506Y-168126032D01*
X90819713Y-168146094D01*
X90803867Y-168165545D01*
X90786974Y-168184330D01*
X90769041Y-168202395D01*
X90750073Y-168219686D01*
X90730077Y-168236149D01*
X90709057Y-168251729D01*
X90687021Y-168266374D01*
X90663974Y-168280029D01*
X90639921Y-168292639D01*
X90614870Y-168304152D01*
X90588826Y-168314512D01*
X90561795Y-168323666D01*
X90533782Y-168331560D01*
X90504794Y-168338140D01*
X90474837Y-168343352D01*
X90443917Y-168347142D01*
X90412040Y-168349455D01*
X90379211Y-168350238D01*
X90356452Y-168349747D01*
X90332396Y-168348210D01*
X90307344Y-168345530D01*
X90281599Y-168341614D01*
X90264199Y-168338268D01*
X90246715Y-168334301D01*
X90229237Y-168329686D01*
X90211853Y-168324392D01*
X90194653Y-168318393D01*
X90177727Y-168311660D01*
X90161164Y-168304164D01*
X90145054Y-168295878D01*
X90129486Y-168286772D01*
X90114549Y-168276819D01*
X90095315Y-168285814D01*
X90075583Y-168294023D01*
X90055434Y-168301475D01*
X90034948Y-168308198D01*
X90014204Y-168314220D01*
X89993282Y-168319570D01*
X89972262Y-168324276D01*
X89951224Y-168328366D01*
X89930248Y-168331869D01*
X89909414Y-168334813D01*
X89888801Y-168337226D01*
X89868490Y-168339137D01*
X89848560Y-168340574D01*
X89829091Y-168341566D01*
X89810163Y-168342140D01*
X89791856Y-168342325D01*
X89770458Y-168341933D01*
X89748838Y-168340754D01*
X89727056Y-168338786D01*
X89705170Y-168336026D01*
X89683240Y-168332469D01*
X89661324Y-168328113D01*
X89639482Y-168322955D01*
X89617773Y-168316991D01*
X89596256Y-168310218D01*
X89574990Y-168302633D01*
X89554034Y-168294233D01*
X89533447Y-168285014D01*
X89513288Y-168274973D01*
X89493617Y-168264108D01*
X89474492Y-168252414D01*
X89455973Y-168239889D01*
X89438118Y-168226530D01*
X89420987Y-168212332D01*
X89404639Y-168197293D01*
X89389133Y-168181411D01*
X89374527Y-168164680D01*
X89360882Y-168147099D01*
X89348256Y-168128664D01*
X89336708Y-168109372D01*
X89326297Y-168089219D01*
X89317083Y-168068203D01*
X89309124Y-168046320D01*
X89302480Y-168023567D01*
X89297209Y-167999941D01*
X89293371Y-167975438D01*
X89291025Y-167950056D01*
X89290230Y-167923790D01*
X89290322Y-167921152D01*
X89560167Y-167921152D01*
X89561607Y-167943785D01*
X89565796Y-167964720D01*
X89572536Y-167983990D01*
X89581627Y-168001627D01*
X89592871Y-168017664D01*
X89606071Y-168032134D01*
X89621028Y-168045070D01*
X89637543Y-168056506D01*
X89655418Y-168066472D01*
X89674455Y-168075004D01*
X89694456Y-168082133D01*
X89715221Y-168087892D01*
X89736554Y-168092314D01*
X89758254Y-168095432D01*
X89780125Y-168097278D01*
X89801967Y-168097886D01*
X89815551Y-168097698D01*
X89837191Y-168096632D01*
X89859938Y-168094479D01*
X89883328Y-168091075D01*
X89906898Y-168086253D01*
X89930186Y-168079849D01*
X89952728Y-168071697D01*
X89974061Y-168061633D01*
X89993724Y-168049491D01*
X90011252Y-168035106D01*
X90026182Y-168018312D01*
X90086852Y-167719359D01*
X90083673Y-167699460D01*
X90074694Y-167683652D01*
X90060747Y-167671492D01*
X90042669Y-167662536D01*
X90021293Y-167656341D01*
X90003600Y-167653241D01*
X89984873Y-167651258D01*
X89965465Y-167650206D01*
X89945729Y-167649896D01*
X89913940Y-167650866D01*
X89881323Y-167653798D01*
X89848274Y-167658729D01*
X89815191Y-167665696D01*
X89782471Y-167674733D01*
X89750512Y-167685878D01*
X89719710Y-167699166D01*
X89690464Y-167714633D01*
X89663171Y-167732315D01*
X89638227Y-167752249D01*
X89616031Y-167774471D01*
X89596980Y-167799016D01*
X89581470Y-167825920D01*
X89569900Y-167855220D01*
X89562666Y-167886953D01*
X89560167Y-167921152D01*
X89290322Y-167921152D01*
X89291344Y-167892010D01*
X89294628Y-167861216D01*
X89299989Y-167831409D01*
X89307339Y-167802590D01*
X89316586Y-167774762D01*
X89327640Y-167747925D01*
X89340411Y-167722082D01*
X89354808Y-167697233D01*
X89370742Y-167673380D01*
X89388120Y-167650526D01*
X89406854Y-167628670D01*
X89426853Y-167607816D01*
X89448026Y-167587963D01*
X89470283Y-167569115D01*
X89493533Y-167551272D01*
X89517687Y-167534437D01*
X89542653Y-167518609D01*
X89568342Y-167503792D01*
X89594663Y-167489986D01*
X89621525Y-167477194D01*
X89648838Y-167465416D01*
X89676512Y-167454654D01*
X89704456Y-167444909D01*
X89732580Y-167436184D01*
X89760794Y-167428480D01*
X89789007Y-167421798D01*
X89817128Y-167416140D01*
X89845068Y-167411507D01*
X89872736Y-167407901D01*
X89900041Y-167405324D01*
X89926894Y-167403776D01*
X89953203Y-167403260D01*
X89973897Y-167403455D01*
X89994413Y-167404052D01*
X90014719Y-167405069D01*
X90034784Y-167406524D01*
X90054577Y-167408435D01*
X90074067Y-167410821D01*
X90093220Y-167413699D01*
X90112008Y-167417088D01*
X90130397Y-167421005D01*
X90148357Y-167425470D01*
X90165856Y-167430499D01*
X90182863Y-167436112D01*
X90199347Y-167442325D01*
X90230617Y-167456628D01*
X90259417Y-167473553D01*
X90285494Y-167493246D01*
X90308598Y-167515850D01*
X90328477Y-167541510D01*
X90344881Y-167570373D01*
X90357558Y-167602582D01*
X90362421Y-167619986D01*
X90366257Y-167638282D01*
X90369036Y-167657487D01*
X90370727Y-167677619D01*
X90371297Y-167698696D01*
X90370508Y-167721094D01*
X90368275Y-167743308D01*
X90364806Y-167765382D01*
X90360307Y-167787358D01*
X90354983Y-167809281D01*
X90349041Y-167831192D01*
X90342687Y-167853136D01*
X90336127Y-167875155D01*
X90329566Y-167897293D01*
X90323212Y-167919592D01*
X90317270Y-167942096D01*
X90311946Y-167964848D01*
X90307447Y-167987891D01*
X90303978Y-168011268D01*
X90301746Y-168035023D01*
X90300956Y-168059198D01*
X90303456Y-168073031D01*
X90314750Y-168086818D01*
X90330819Y-168094247D01*
X90348118Y-168097900D01*
X90368485Y-168099698D01*
X90386685Y-168100085D01*
X90417503Y-168098815D01*
X90446621Y-168095078D01*
X90474001Y-168088982D01*
X90499603Y-168080638D01*
X90523386Y-168070152D01*
X90545310Y-168057635D01*
X90565335Y-168043194D01*
X90583422Y-168026940D01*
X90599531Y-168008980D01*
X90613622Y-167989424D01*
X90625654Y-167968380D01*
X90635588Y-167945957D01*
X90643384Y-167922265D01*
X90649002Y-167897411D01*
X90652402Y-167871505D01*
X90653545Y-167844655D01*
X90652413Y-167808348D01*
X90649064Y-167773202D01*
X90643570Y-167739216D01*
X90636002Y-167706390D01*
X90626430Y-167674724D01*
X90614926Y-167644217D01*
X90601560Y-167614869D01*
X90586404Y-167586678D01*
X90569528Y-167559644D01*
X90551004Y-167533767D01*
X90530902Y-167509047D01*
X90509294Y-167485481D01*
X90486250Y-167463071D01*
X90461842Y-167441816D01*
X90436140Y-167421714D01*
X90409216Y-167402765D01*
X90381141Y-167384969D01*
X90351985Y-167368326D01*
X90321819Y-167352834D01*
X90290715Y-167338493D01*
X90258744Y-167325303D01*
X90225976Y-167313262D01*
X90192482Y-167302371D01*
X90158335Y-167292629D01*
X90123603Y-167284035D01*
X90088359Y-167276589D01*
X90052674Y-167270290D01*
X90016619Y-167265137D01*
X89980263Y-167261131D01*
X89943680Y-167258270D01*
X89906939Y-167256553D01*
X89870111Y-167255981D01*
X89824444Y-167256891D01*
X89779627Y-167259583D01*
X89735701Y-167264003D01*
X89692704Y-167270098D01*
X89650675Y-167277813D01*
X89609654Y-167287094D01*
X89569681Y-167297888D01*
X89530794Y-167310139D01*
X89493032Y-167323795D01*
X89456436Y-167338800D01*
X89421044Y-167355101D01*
X89386895Y-167372643D01*
X89354029Y-167391373D01*
X89322486Y-167411237D01*
X89292303Y-167432180D01*
X89263522Y-167454148D01*
X89236180Y-167477087D01*
X89210318Y-167500943D01*
X89185974Y-167525663D01*
X89163188Y-167551191D01*
X89142000Y-167577474D01*
X89122447Y-167604457D01*
X89104571Y-167632087D01*
X89088409Y-167660310D01*
X89074001Y-167689071D01*
X89061387Y-167718316D01*
X89050606Y-167747992D01*
X89041697Y-167778044D01*
X89034700Y-167808417D01*
X89029653Y-167839059D01*
X89026596Y-167869914D01*
X89025568Y-167900929D01*
X89027111Y-167945661D01*
X89031646Y-167988540D01*
X89039034Y-168029596D01*
X89049134Y-168068857D01*
X89061807Y-168106350D01*
X89076912Y-168142104D01*
X89094310Y-168176148D01*
X89113860Y-168208510D01*
X89135422Y-168239218D01*
X89158857Y-168268301D01*
X89184025Y-168295786D01*
X89210785Y-168321703D01*
X89238998Y-168346079D01*
X89268523Y-168368943D01*
X89299221Y-168390324D01*
X89330951Y-168410249D01*
X89363574Y-168428746D01*
X89396950Y-168445845D01*
X89430938Y-168461574D01*
X89465399Y-168475961D01*
X89500192Y-168489033D01*
X89535178Y-168500821D01*
X89570217Y-168511351D01*
X89605168Y-168520653D01*
X89639892Y-168528754D01*
X89674249Y-168535683D01*
X89708098Y-168541468D01*
X89741300Y-168546138D01*
X89773715Y-168549721D01*
X89805202Y-168552245D01*
X89835623Y-168553738D01*
X89864836Y-168554230D01*
X89877127Y-168554143D01*
X89901798Y-168553438D01*
X89926652Y-168552000D01*
X89951771Y-168549803D01*
X89977235Y-168546819D01*
X90003127Y-168543020D01*
X90029526Y-168538378D01*
X90056515Y-168532866D01*
X90084174Y-168526456D01*
X90112585Y-168519120D01*
X90141829Y-168510830D01*
X90171986Y-168501560D01*
X90203139Y-168491280D01*
X90235367Y-168479965D01*
X90251910Y-168473909D01*
X90268753Y-168467584D01*
X90285905Y-168460987D01*
X90303377Y-168454112D01*
X90321179Y-168446958D01*
X90321179Y-168733162D01*
X90291368Y-168741849D01*
X90260764Y-168749943D01*
X90229574Y-168757448D01*
X90198005Y-168764369D01*
X90166263Y-168770711D01*
X90134555Y-168776478D01*
X90103089Y-168781673D01*
X90072069Y-168786303D01*
X90041705Y-168790371D01*
X90012201Y-168793883D01*
X89983765Y-168796841D01*
X89956603Y-168799252D01*
X89930922Y-168801119D01*
X89906930Y-168802447D01*
X89884832Y-168803241D01*
X89864836Y-168803504D01*
X89811982Y-168802426D01*
X89759328Y-168799216D01*
X89706971Y-168793911D01*
X89655008Y-168786548D01*
X89603536Y-168777165D01*
X89552652Y-168765798D01*
X89502451Y-168752485D01*
X89453033Y-168737263D01*
X89404493Y-168720169D01*
X89356928Y-168701240D01*
X89310435Y-168680512D01*
X89265112Y-168658025D01*
X89221055Y-168633813D01*
X89178361Y-168607915D01*
X89137126Y-168580367D01*
X89097449Y-168551207D01*
X89059425Y-168520472D01*
X89023152Y-168488199D01*
X88988727Y-168454425D01*
X88956246Y-168419186D01*
X88925807Y-168382522D01*
X88897506Y-168344467D01*
X88871441Y-168305060D01*
X88847708Y-168264337D01*
X88826403Y-168222336D01*
X88807625Y-168179094D01*
X88791470Y-168134648D01*
X88778035Y-168089034D01*
X88767417Y-168042291D01*
X88759713Y-167994455D01*
X88755019Y-167945564D01*
X88753433Y-167895653D01*
X88753639Y-167877493D01*
X88754258Y-167859448D01*
X88755290Y-167841520D01*
X88756737Y-167823711D01*
X88758598Y-167806023D01*
X88760875Y-167788458D01*
X88763568Y-167771019D01*
X88768388Y-167745097D01*
X88774148Y-167719468D01*
X88780850Y-167694137D01*
X88788496Y-167669111D01*
X88797088Y-167644397D01*
X88806629Y-167620001D01*
X88823525Y-167581341D01*
X88842104Y-167543996D01*
X88862304Y-167507961D01*
X88884062Y-167473231D01*
X88907314Y-167439799D01*
X88931998Y-167407659D01*
X88958051Y-167376806D01*
X88985410Y-167347234D01*
X89014012Y-167318937D01*
X89043794Y-167291909D01*
X89074692Y-167266145D01*
X89106645Y-167241638D01*
X89139589Y-167218384D01*
X89173461Y-167196375D01*
X89208199Y-167175607D01*
X89243738Y-167156074D01*
X89280017Y-167137769D01*
X89316972Y-167120687D01*
X89354541Y-167104823D01*
X89392660Y-167090169D01*
X89431267Y-167076722D01*
X89470298Y-167064474D01*
X89509691Y-167053420D01*
X89549382Y-167043554D01*
X89589309Y-167034871D01*
X89629409Y-167027364D01*
X89669619Y-167021028D01*
X89709875Y-167015857D01*
X89750116Y-167011845D01*
X89790277Y-167008987D01*
X89830297Y-167007276D01*
X89870111Y-167006707D01*
X89916817Y-167007505D01*
G37*
G36*
X92121264Y-167087734D02*
G01*
X92161628Y-167089467D01*
X92202459Y-167092384D01*
X92243634Y-167096505D01*
X92285032Y-167101853D01*
X92326532Y-167108449D01*
X92368012Y-167116317D01*
X92409352Y-167125478D01*
X92450430Y-167135954D01*
X92491124Y-167147766D01*
X92531313Y-167160938D01*
X92570877Y-167175492D01*
X92609693Y-167191448D01*
X92647640Y-167208830D01*
X92684597Y-167227659D01*
X92720443Y-167247958D01*
X92755057Y-167269748D01*
X92788316Y-167293052D01*
X92820101Y-167317891D01*
X92850288Y-167344288D01*
X92878758Y-167372265D01*
X92905389Y-167401844D01*
X92930059Y-167433046D01*
X92952647Y-167465894D01*
X92973033Y-167500411D01*
X92991093Y-167536617D01*
X93006709Y-167574535D01*
X93019757Y-167614188D01*
X93030116Y-167655596D01*
X93037666Y-167698783D01*
X93042285Y-167743771D01*
X93043852Y-167790580D01*
X93042285Y-167837428D01*
X93037666Y-167882449D01*
X93030116Y-167925665D01*
X93019757Y-167967099D01*
X93006709Y-168006772D01*
X92991093Y-168044707D01*
X92973033Y-168080926D01*
X92952647Y-168115451D01*
X92930059Y-168148306D01*
X92905389Y-168179511D01*
X92878758Y-168209090D01*
X92850288Y-168237065D01*
X92820101Y-168263458D01*
X92788316Y-168288291D01*
X92755057Y-168311587D01*
X92720443Y-168333367D01*
X92684597Y-168353655D01*
X92647640Y-168372472D01*
X92609693Y-168389841D01*
X92570877Y-168405784D01*
X92531313Y-168420324D01*
X92491124Y-168433482D01*
X92450430Y-168445282D01*
X92409352Y-168455744D01*
X92368012Y-168464892D01*
X92326532Y-168472748D01*
X92285032Y-168479335D01*
X92243634Y-168484674D01*
X92202459Y-168488787D01*
X92161628Y-168491698D01*
X92121264Y-168493428D01*
X92081486Y-168494000D01*
X91307725Y-168494000D01*
X91307725Y-168242087D01*
X91584696Y-168242087D01*
X92058625Y-168242087D01*
X92086589Y-168241817D01*
X92115109Y-168240982D01*
X92144088Y-168239551D01*
X92173433Y-168237491D01*
X92203048Y-168234768D01*
X92232840Y-168231350D01*
X92262713Y-168227204D01*
X92292574Y-168222297D01*
X92322326Y-168216596D01*
X92351877Y-168210067D01*
X92381131Y-168202679D01*
X92409994Y-168194398D01*
X92438370Y-168185191D01*
X92466167Y-168175026D01*
X92493288Y-168163869D01*
X92519639Y-168151687D01*
X92545127Y-168138448D01*
X92569655Y-168124119D01*
X92593130Y-168108666D01*
X92615457Y-168092057D01*
X92636541Y-168074259D01*
X92656289Y-168055239D01*
X92674604Y-168034964D01*
X92691393Y-168013401D01*
X92706561Y-167990517D01*
X92720014Y-167966279D01*
X92731656Y-167940655D01*
X92741394Y-167913611D01*
X92749133Y-167885114D01*
X92754777Y-167855132D01*
X92758233Y-167823632D01*
X92759406Y-167790580D01*
X92758233Y-167757568D01*
X92754777Y-167726105D01*
X92749133Y-167696158D01*
X92741394Y-167667695D01*
X92731656Y-167640681D01*
X92720014Y-167615085D01*
X92706561Y-167590874D01*
X92691393Y-167568014D01*
X92674604Y-167546473D01*
X92656289Y-167526218D01*
X92636541Y-167507217D01*
X92615457Y-167489436D01*
X92593130Y-167472842D01*
X92569655Y-167457403D01*
X92545127Y-167443086D01*
X92519639Y-167429858D01*
X92493288Y-167417686D01*
X92466167Y-167406537D01*
X92438370Y-167396379D01*
X92409994Y-167387179D01*
X92381131Y-167378903D01*
X92351877Y-167371519D01*
X92322326Y-167364995D01*
X92292574Y-167359296D01*
X92262713Y-167354391D01*
X92232840Y-167350247D01*
X92203048Y-167346830D01*
X92173433Y-167344108D01*
X92144088Y-167342048D01*
X92115109Y-167340618D01*
X92086589Y-167339783D01*
X92058625Y-167339512D01*
X91584696Y-167339512D01*
X91584696Y-168242087D01*
X91307725Y-168242087D01*
X91307725Y-167087161D01*
X92081486Y-167087161D01*
X92121264Y-167087734D01*
G37*
G36*
X93633405Y-167791899D02*
G01*
X93634313Y-167765607D01*
X93637010Y-167739674D01*
X93641452Y-167714130D01*
X93647594Y-167689007D01*
X93655395Y-167664336D01*
X93664811Y-167640148D01*
X93675797Y-167616475D01*
X93688311Y-167593348D01*
X93702310Y-167570798D01*
X93717750Y-167548856D01*
X93734588Y-167527553D01*
X93752779Y-167506921D01*
X93772282Y-167486992D01*
X93793052Y-167467795D01*
X93815046Y-167449363D01*
X93838221Y-167431726D01*
X93862533Y-167414917D01*
X93887939Y-167398965D01*
X93914396Y-167383903D01*
X93941859Y-167369762D01*
X93970287Y-167356572D01*
X93999635Y-167344365D01*
X94029859Y-167333173D01*
X94060918Y-167323026D01*
X94092766Y-167313956D01*
X94125362Y-167305994D01*
X94158660Y-167299171D01*
X94192619Y-167293519D01*
X94227194Y-167289068D01*
X94262343Y-167285850D01*
X94298022Y-167283897D01*
X94334187Y-167283239D01*
X94358241Y-167283602D01*
X94382253Y-167284685D01*
X94406207Y-167286480D01*
X94430087Y-167288978D01*
X94453875Y-167292170D01*
X94477555Y-167296048D01*
X94501112Y-167300603D01*
X94524529Y-167305825D01*
X94547789Y-167311707D01*
X94570876Y-167318240D01*
X94593774Y-167325415D01*
X94616467Y-167333224D01*
X94638938Y-167341657D01*
X94661170Y-167350706D01*
X94683148Y-167360362D01*
X94704856Y-167370617D01*
X94726275Y-167381462D01*
X94747392Y-167392888D01*
X94768188Y-167404886D01*
X94788649Y-167417448D01*
X94808756Y-167430566D01*
X94828495Y-167444230D01*
X94847848Y-167458431D01*
X94866800Y-167473162D01*
X94885334Y-167488413D01*
X94903433Y-167504176D01*
X94921082Y-167520441D01*
X94938264Y-167537201D01*
X94954963Y-167554447D01*
X94971162Y-167572169D01*
X94986845Y-167590360D01*
X95001995Y-167609010D01*
X95001995Y-167235318D01*
X94984340Y-167223399D01*
X94966414Y-167211795D01*
X94948222Y-167200511D01*
X94929771Y-167189551D01*
X94911068Y-167178919D01*
X94892119Y-167168619D01*
X94872930Y-167158656D01*
X94853508Y-167149033D01*
X94833859Y-167139754D01*
X94813990Y-167130825D01*
X94793908Y-167122248D01*
X94773618Y-167114028D01*
X94753127Y-167106168D01*
X94732441Y-167098674D01*
X94711568Y-167091549D01*
X94690512Y-167084798D01*
X94669282Y-167078423D01*
X94647883Y-167072431D01*
X94626322Y-167066823D01*
X94604605Y-167061606D01*
X94582738Y-167056782D01*
X94560728Y-167052356D01*
X94538582Y-167048333D01*
X94516306Y-167044715D01*
X94493906Y-167041508D01*
X94471389Y-167038715D01*
X94448762Y-167036340D01*
X94426029Y-167034388D01*
X94403199Y-167032862D01*
X94380278Y-167031768D01*
X94357272Y-167031108D01*
X94334187Y-167030887D01*
X94283233Y-167031879D01*
X94232960Y-167034821D01*
X94183427Y-167039666D01*
X94134698Y-167046366D01*
X94086832Y-167054873D01*
X94039893Y-167065139D01*
X93993940Y-167077115D01*
X93949037Y-167090753D01*
X93905244Y-167106007D01*
X93862622Y-167122826D01*
X93821234Y-167141164D01*
X93781140Y-167160973D01*
X93742403Y-167182203D01*
X93705083Y-167204808D01*
X93669243Y-167228739D01*
X93634944Y-167253948D01*
X93602246Y-167280387D01*
X93571213Y-167308008D01*
X93541905Y-167336763D01*
X93514383Y-167366604D01*
X93488710Y-167397483D01*
X93464947Y-167429351D01*
X93443155Y-167462161D01*
X93423396Y-167495865D01*
X93405731Y-167530415D01*
X93390222Y-167565761D01*
X93376930Y-167601858D01*
X93365917Y-167638655D01*
X93357244Y-167676106D01*
X93350973Y-167714163D01*
X93347165Y-167752776D01*
X93345882Y-167791899D01*
X93347165Y-167831014D01*
X93350973Y-167869606D01*
X93357244Y-167907626D01*
X93365917Y-167945029D01*
X93376930Y-167981767D01*
X93390222Y-168017793D01*
X93405731Y-168053060D01*
X93423396Y-168087521D01*
X93443155Y-168121128D01*
X93464947Y-168153835D01*
X93488710Y-168185594D01*
X93514383Y-168216359D01*
X93541905Y-168246082D01*
X93571213Y-168274717D01*
X93602246Y-168302215D01*
X93634944Y-168328531D01*
X93669243Y-168353617D01*
X93705083Y-168377425D01*
X93742403Y-168399909D01*
X93781140Y-168421022D01*
X93821234Y-168440717D01*
X93862622Y-168458946D01*
X93905244Y-168475662D01*
X93949037Y-168490819D01*
X93993940Y-168504369D01*
X94039893Y-168516265D01*
X94086832Y-168526460D01*
X94134698Y-168534907D01*
X94183427Y-168541559D01*
X94232960Y-168546369D01*
X94283233Y-168549289D01*
X94334187Y-168550273D01*
X94357265Y-168550060D01*
X94380254Y-168549422D01*
X94403147Y-168548363D01*
X94425939Y-168546886D01*
X94448626Y-168544995D01*
X94471201Y-168542692D01*
X94493660Y-168539981D01*
X94515997Y-168536864D01*
X94538207Y-168533346D01*
X94560286Y-168529429D01*
X94582227Y-168525117D01*
X94604025Y-168520412D01*
X94625676Y-168515319D01*
X94647173Y-168509839D01*
X94668512Y-168503978D01*
X94689688Y-168497736D01*
X94710695Y-168491119D01*
X94731528Y-168484129D01*
X94752182Y-168476769D01*
X94772652Y-168469043D01*
X94792931Y-168460954D01*
X94813016Y-168452504D01*
X94832901Y-168443698D01*
X94852581Y-168434539D01*
X94872049Y-168425029D01*
X94891302Y-168415171D01*
X94910334Y-168404970D01*
X94929140Y-168394429D01*
X94947714Y-168383549D01*
X94966052Y-168372336D01*
X94984147Y-168360791D01*
X95001995Y-168348919D01*
X95001995Y-167977866D01*
X94986613Y-167996462D01*
X94970727Y-168014574D01*
X94954354Y-168032197D01*
X94937507Y-168049321D01*
X94920202Y-168065941D01*
X94902454Y-168082050D01*
X94884277Y-168097639D01*
X94865687Y-168112704D01*
X94846698Y-168127235D01*
X94827326Y-168141227D01*
X94807585Y-168154673D01*
X94787489Y-168167565D01*
X94767055Y-168179896D01*
X94746296Y-168191660D01*
X94725229Y-168202849D01*
X94703866Y-168213456D01*
X94682225Y-168223475D01*
X94660318Y-168232898D01*
X94638162Y-168241719D01*
X94615772Y-168249930D01*
X94593161Y-168257524D01*
X94570345Y-168264495D01*
X94547339Y-168270835D01*
X94524158Y-168276537D01*
X94500816Y-168281595D01*
X94477329Y-168286001D01*
X94453712Y-168289748D01*
X94429978Y-168292830D01*
X94406144Y-168295239D01*
X94382224Y-168296969D01*
X94358234Y-168298012D01*
X94334187Y-168298361D01*
X94298022Y-168297710D01*
X94262343Y-168295779D01*
X94227194Y-168292596D01*
X94192619Y-168288194D01*
X94158660Y-168282600D01*
X94125362Y-168275846D01*
X94092766Y-168267963D01*
X94060918Y-168258979D01*
X94029859Y-168248926D01*
X93999635Y-168237833D01*
X93970287Y-168225731D01*
X93941859Y-168212650D01*
X93914396Y-168198620D01*
X93887939Y-168183671D01*
X93862533Y-168167833D01*
X93838221Y-168151137D01*
X93815046Y-168133614D01*
X93793052Y-168115292D01*
X93772282Y-168096202D01*
X93752779Y-168076374D01*
X93734588Y-168055839D01*
X93717750Y-168034627D01*
X93702310Y-168012768D01*
X93688311Y-167990292D01*
X93675797Y-167967229D01*
X93664811Y-167943610D01*
X93655395Y-167919465D01*
X93647594Y-167894823D01*
X93641452Y-167869715D01*
X93637010Y-167844172D01*
X93634313Y-167818223D01*
X93633405Y-167791899D01*
G37*
G36*
X96533691Y-168138333D02*
G01*
X96533477Y-168117115D01*
X96532831Y-168096724D01*
X96531752Y-168077140D01*
X96530235Y-168058342D01*
X96528277Y-168040311D01*
X96523026Y-168006464D01*
X96515972Y-167975437D01*
X96507088Y-167947067D01*
X96496349Y-167921191D01*
X96483728Y-167897645D01*
X96469198Y-167876268D01*
X96452733Y-167856896D01*
X96434307Y-167839366D01*
X96413894Y-167823515D01*
X96391466Y-167809180D01*
X96366998Y-167796199D01*
X96340463Y-167784409D01*
X96311834Y-167773645D01*
X96296727Y-167768598D01*
X96321255Y-167756289D01*
X96343771Y-167742949D01*
X96364335Y-167728601D01*
X96383005Y-167713266D01*
X96399842Y-167696965D01*
X96414903Y-167679719D01*
X96428249Y-167661549D01*
X96439938Y-167642477D01*
X96450031Y-167622525D01*
X96458585Y-167601712D01*
X96465661Y-167580061D01*
X96471318Y-167557593D01*
X96475614Y-167534329D01*
X96478609Y-167510290D01*
X96480363Y-167485498D01*
X96480935Y-167459973D01*
X96480209Y-167437317D01*
X96478055Y-167415188D01*
X96474506Y-167393600D01*
X96469599Y-167372564D01*
X96463368Y-167352094D01*
X96455847Y-167332202D01*
X96447070Y-167312901D01*
X96437074Y-167294202D01*
X96425892Y-167276120D01*
X96413559Y-167258665D01*
X96400110Y-167241851D01*
X96385579Y-167225691D01*
X96370001Y-167210197D01*
X96353412Y-167195381D01*
X96335844Y-167181256D01*
X96317335Y-167167834D01*
X96297917Y-167155129D01*
X96277626Y-167143152D01*
X96256496Y-167131917D01*
X96234562Y-167121435D01*
X96211859Y-167111720D01*
X96188421Y-167102784D01*
X96164284Y-167094639D01*
X96139481Y-167087298D01*
X96114048Y-167080774D01*
X96088019Y-167075079D01*
X96061429Y-167070225D01*
X96034312Y-167066226D01*
X96006704Y-167063094D01*
X95978639Y-167060841D01*
X95950152Y-167059480D01*
X95921277Y-167059024D01*
X95886391Y-167059735D01*
X95868677Y-167060623D01*
X95850826Y-167061867D01*
X95832874Y-167063466D01*
X95814852Y-167065420D01*
X95796796Y-167067729D01*
X95778738Y-167070393D01*
X95760712Y-167073411D01*
X95742752Y-167076785D01*
X95724892Y-167080513D01*
X95707165Y-167084596D01*
X95689604Y-167089033D01*
X95672244Y-167093825D01*
X95655118Y-167098971D01*
X95638260Y-167104471D01*
X95605482Y-167116535D01*
X95574178Y-167130014D01*
X95544618Y-167144909D01*
X95517071Y-167161219D01*
X95491807Y-167178943D01*
X95469094Y-167198081D01*
X95449202Y-167218631D01*
X95432400Y-167240594D01*
X95432400Y-167517126D01*
X95455626Y-167494615D01*
X95479945Y-167472968D01*
X95505330Y-167452267D01*
X95531751Y-167432592D01*
X95559179Y-167414025D01*
X95587586Y-167396646D01*
X95616942Y-167380538D01*
X95647218Y-167365781D01*
X95678385Y-167352456D01*
X95710415Y-167340644D01*
X95743278Y-167330427D01*
X95776945Y-167321886D01*
X95811388Y-167315101D01*
X95828891Y-167312393D01*
X95846577Y-167310155D01*
X95864442Y-167308396D01*
X95882483Y-167307127D01*
X95900697Y-167306358D01*
X95919078Y-167306100D01*
X95936931Y-167306350D01*
X95970709Y-167308298D01*
X96001951Y-167312071D01*
X96030698Y-167317536D01*
X96056990Y-167324563D01*
X96080868Y-167333021D01*
X96102373Y-167342780D01*
X96121545Y-167353709D01*
X96138425Y-167365676D01*
X96153053Y-167378553D01*
X96165469Y-167392206D01*
X96175716Y-167406507D01*
X96187104Y-167428885D01*
X96193836Y-167451983D01*
X96196050Y-167475360D01*
X96193655Y-167499579D01*
X96186446Y-167523465D01*
X96174382Y-167546572D01*
X96163624Y-167561323D01*
X96150679Y-167575395D01*
X96135536Y-167588656D01*
X96118183Y-167600974D01*
X96098610Y-167612216D01*
X96076804Y-167622249D01*
X96052753Y-167630941D01*
X96026446Y-167638159D01*
X95997872Y-167643770D01*
X95967019Y-167647641D01*
X95933875Y-167649640D01*
X95916441Y-167649896D01*
X95692226Y-167649896D01*
X95692226Y-167899610D01*
X95916441Y-167899610D01*
X95938444Y-167899889D01*
X95959616Y-167900715D01*
X95979965Y-167902069D01*
X95999501Y-167903934D01*
X96018232Y-167906293D01*
X96036167Y-167909127D01*
X96069682Y-167916151D01*
X96100116Y-167924866D01*
X96127538Y-167935128D01*
X96152019Y-167946797D01*
X96173628Y-167959730D01*
X96192434Y-167973787D01*
X96208507Y-167988826D01*
X96221917Y-168004704D01*
X96232732Y-168021280D01*
X96241023Y-168038412D01*
X96246859Y-168055959D01*
X96250309Y-168073780D01*
X96251444Y-168091732D01*
X96250397Y-168118334D01*
X96247188Y-168143543D01*
X96241718Y-168167312D01*
X96233886Y-168189599D01*
X96223591Y-168210358D01*
X96210733Y-168229545D01*
X96195211Y-168247115D01*
X96176926Y-168263025D01*
X96155775Y-168277230D01*
X96131660Y-168289684D01*
X96104479Y-168300345D01*
X96074133Y-168309166D01*
X96040520Y-168316105D01*
X96022457Y-168318855D01*
X96003540Y-168321116D01*
X95983756Y-168322885D01*
X95963093Y-168324156D01*
X95941538Y-168324922D01*
X95919078Y-168325179D01*
X95889817Y-168324448D01*
X95858177Y-168322236D01*
X95824540Y-168318516D01*
X95807092Y-168316082D01*
X95789289Y-168313261D01*
X95771178Y-168310048D01*
X95752807Y-168306441D01*
X95734224Y-168302436D01*
X95715477Y-168298030D01*
X95696612Y-168293220D01*
X95677680Y-168288001D01*
X95658726Y-168282370D01*
X95639799Y-168276324D01*
X95620947Y-168269860D01*
X95602217Y-168262973D01*
X95583658Y-168255661D01*
X95565316Y-168247920D01*
X95547241Y-168239747D01*
X95529480Y-168231138D01*
X95512080Y-168222089D01*
X95495090Y-168212597D01*
X95478556Y-168202660D01*
X95462528Y-168192272D01*
X95447053Y-168181431D01*
X95432179Y-168170134D01*
X95417952Y-168158376D01*
X95404423Y-168146155D01*
X95391637Y-168133467D01*
X95379644Y-168120308D01*
X95379644Y-168428933D01*
X95402366Y-168447134D01*
X95427803Y-168463997D01*
X95455658Y-168479545D01*
X95485637Y-168493800D01*
X95517446Y-168506786D01*
X95550788Y-168518524D01*
X95567942Y-168523932D01*
X95585369Y-168529037D01*
X95603032Y-168533841D01*
X95620894Y-168538348D01*
X95638919Y-168542559D01*
X95657069Y-168546479D01*
X95675308Y-168550109D01*
X95693598Y-168553453D01*
X95711903Y-168556513D01*
X95730186Y-168559292D01*
X95748410Y-168561793D01*
X95766538Y-168564019D01*
X95784534Y-168565972D01*
X95802360Y-168567656D01*
X95819979Y-168569073D01*
X95854452Y-168571118D01*
X95887656Y-168572130D01*
X95903691Y-168572255D01*
X95936326Y-168571891D01*
X95968509Y-168570792D01*
X96000200Y-168568945D01*
X96031362Y-168566340D01*
X96061956Y-168562965D01*
X96091944Y-168558808D01*
X96121288Y-168553858D01*
X96149950Y-168548102D01*
X96177891Y-168541530D01*
X96205073Y-168534130D01*
X96231458Y-168525890D01*
X96257007Y-168516799D01*
X96281683Y-168506845D01*
X96305448Y-168496016D01*
X96328262Y-168484301D01*
X96350088Y-168471688D01*
X96370887Y-168458166D01*
X96390621Y-168443723D01*
X96409253Y-168428347D01*
X96426743Y-168412028D01*
X96443054Y-168394752D01*
X96458147Y-168376510D01*
X96471984Y-168357288D01*
X96484527Y-168337077D01*
X96495738Y-168315863D01*
X96505578Y-168293635D01*
X96514008Y-168270382D01*
X96520992Y-168246092D01*
X96526491Y-168220754D01*
X96530465Y-168194356D01*
X96532878Y-168166886D01*
X96533691Y-168138333D01*
G37*
G36*
X97554426Y-167060086D02*
G01*
X97594758Y-167063228D01*
X97633759Y-167068386D01*
X97671430Y-167075493D01*
X97707771Y-167084485D01*
X97742784Y-167095295D01*
X97776468Y-167107859D01*
X97808824Y-167122112D01*
X97839853Y-167137987D01*
X97869555Y-167155420D01*
X97897931Y-167174345D01*
X97924982Y-167194697D01*
X97950707Y-167216410D01*
X97975108Y-167239419D01*
X97998186Y-167263659D01*
X98019939Y-167289064D01*
X98040370Y-167315569D01*
X98059479Y-167343109D01*
X98077266Y-167371618D01*
X98093732Y-167401031D01*
X98108878Y-167431282D01*
X98122703Y-167462306D01*
X98135209Y-167494039D01*
X98146397Y-167526413D01*
X98156266Y-167559365D01*
X98164817Y-167592828D01*
X98172051Y-167626738D01*
X98177969Y-167661028D01*
X98182571Y-167695634D01*
X98185857Y-167730490D01*
X98187828Y-167765531D01*
X98188485Y-167800692D01*
X98187792Y-167836596D01*
X98185717Y-167872461D01*
X98182266Y-167908215D01*
X98177446Y-167943786D01*
X98171264Y-167979102D01*
X98163725Y-168014090D01*
X98154836Y-168048678D01*
X98144604Y-168082795D01*
X98133035Y-168116367D01*
X98120135Y-168149323D01*
X98105912Y-168181590D01*
X98090371Y-168213096D01*
X98073518Y-168243770D01*
X98055361Y-168273538D01*
X98035906Y-168302329D01*
X98015158Y-168330070D01*
X97993126Y-168356689D01*
X97969814Y-168382114D01*
X97945230Y-168406273D01*
X97919379Y-168429094D01*
X97892269Y-168450504D01*
X97863906Y-168470431D01*
X97834296Y-168488802D01*
X97803446Y-168505547D01*
X97771361Y-168520592D01*
X97738049Y-168533865D01*
X97703517Y-168545294D01*
X97667769Y-168554808D01*
X97630814Y-168562333D01*
X97592657Y-168567797D01*
X97553304Y-168571128D01*
X97512763Y-168572255D01*
X97470939Y-168571208D01*
X97430454Y-168568110D01*
X97391306Y-168563024D01*
X97353497Y-168556013D01*
X97317023Y-168547142D01*
X97281886Y-168536473D01*
X97248084Y-168524071D01*
X97215616Y-168509998D01*
X97184482Y-168494319D01*
X97154681Y-168477096D01*
X97126213Y-168458393D01*
X97099076Y-168438275D01*
X97073269Y-168416803D01*
X97048793Y-168394042D01*
X97025646Y-168370056D01*
X97003828Y-168344908D01*
X96983338Y-168318660D01*
X96964175Y-168291378D01*
X96946338Y-168263124D01*
X96929827Y-168233962D01*
X96914641Y-168203955D01*
X96900780Y-168173167D01*
X96888242Y-168141662D01*
X96877027Y-168109502D01*
X96867134Y-168076752D01*
X96858563Y-168043475D01*
X96851312Y-168009735D01*
X96845381Y-167975594D01*
X96840769Y-167941117D01*
X96837476Y-167906367D01*
X96835501Y-167871408D01*
X96834842Y-167836302D01*
X96835386Y-167808166D01*
X97117090Y-167808166D01*
X97117481Y-167832393D01*
X97118654Y-167856572D01*
X97120609Y-167880658D01*
X97123344Y-167904601D01*
X97126858Y-167928354D01*
X97131151Y-167951872D01*
X97136220Y-167975105D01*
X97142066Y-167998006D01*
X97148688Y-168020529D01*
X97156084Y-168042627D01*
X97164253Y-168064250D01*
X97173195Y-168085353D01*
X97182908Y-168105888D01*
X97193392Y-168125808D01*
X97204645Y-168145065D01*
X97216667Y-168163612D01*
X97229457Y-168181402D01*
X97243013Y-168198387D01*
X97257335Y-168214520D01*
X97272422Y-168229754D01*
X97288273Y-168244041D01*
X97304886Y-168257333D01*
X97322262Y-168269585D01*
X97340398Y-168280748D01*
X97359294Y-168290775D01*
X97378949Y-168299618D01*
X97399362Y-168307231D01*
X97420532Y-168313566D01*
X97442458Y-168318576D01*
X97465139Y-168322213D01*
X97488574Y-168324429D01*
X97512763Y-168325179D01*
X97537170Y-168324452D01*
X97560767Y-168322303D01*
X97583558Y-168318778D01*
X97605544Y-168313921D01*
X97626727Y-168307779D01*
X97647110Y-168300398D01*
X97666696Y-168291824D01*
X97685485Y-168282101D01*
X97703482Y-168271277D01*
X97720687Y-168259397D01*
X97737103Y-168246506D01*
X97752733Y-168232652D01*
X97767578Y-168217878D01*
X97781641Y-168202231D01*
X97794924Y-168185758D01*
X97807430Y-168168503D01*
X97819160Y-168150513D01*
X97830117Y-168131833D01*
X97840303Y-168112509D01*
X97849721Y-168092588D01*
X97858372Y-168072114D01*
X97866259Y-168051133D01*
X97873384Y-168029692D01*
X97879750Y-168007836D01*
X97885358Y-167985612D01*
X97890212Y-167963064D01*
X97894312Y-167940238D01*
X97897662Y-167917181D01*
X97900263Y-167893938D01*
X97902119Y-167870555D01*
X97903230Y-167847078D01*
X97903600Y-167823553D01*
X97903209Y-167799518D01*
X97902037Y-167775503D01*
X97900085Y-167751558D01*
X97897355Y-167727730D01*
X97893850Y-167704069D01*
X97889571Y-167680623D01*
X97884520Y-167657440D01*
X97878699Y-167634571D01*
X97872110Y-167612062D01*
X97864754Y-167589964D01*
X97856633Y-167568324D01*
X97847750Y-167547192D01*
X97838106Y-167526616D01*
X97827703Y-167506644D01*
X97816543Y-167487326D01*
X97804627Y-167468711D01*
X97791958Y-167450846D01*
X97778537Y-167433781D01*
X97764367Y-167417564D01*
X97749448Y-167402244D01*
X97733784Y-167387870D01*
X97717375Y-167374490D01*
X97700224Y-167362153D01*
X97682332Y-167350909D01*
X97663702Y-167340804D01*
X97644335Y-167331889D01*
X97624233Y-167324212D01*
X97603398Y-167317822D01*
X97581831Y-167312766D01*
X97559535Y-167309095D01*
X97536512Y-167306857D01*
X97512763Y-167306100D01*
X97488381Y-167306828D01*
X97464777Y-167308980D01*
X97441950Y-167312512D01*
X97419901Y-167317377D01*
X97398628Y-167323529D01*
X97378133Y-167330921D01*
X97358413Y-167339509D01*
X97339470Y-167349246D01*
X97321303Y-167360086D01*
X97303912Y-167371984D01*
X97287297Y-167384892D01*
X97271456Y-167398766D01*
X97256391Y-167413560D01*
X97242100Y-167429226D01*
X97228585Y-167445720D01*
X97215843Y-167462995D01*
X97203876Y-167481006D01*
X97192682Y-167499707D01*
X97182262Y-167519050D01*
X97172615Y-167538992D01*
X97163742Y-167559485D01*
X97155641Y-167580483D01*
X97148313Y-167601941D01*
X97141757Y-167623813D01*
X97135974Y-167646053D01*
X97130962Y-167668614D01*
X97126722Y-167691452D01*
X97123254Y-167714519D01*
X97120557Y-167737769D01*
X97118630Y-167761158D01*
X97117475Y-167784639D01*
X97117090Y-167808166D01*
X96835386Y-167808166D01*
X96835536Y-167800382D01*
X96837611Y-167764469D01*
X96841063Y-167728638D01*
X96845886Y-167692963D01*
X96852072Y-167657518D01*
X96859617Y-167622377D01*
X96868515Y-167587615D01*
X96878758Y-167553307D01*
X96890342Y-167519525D01*
X96903259Y-167486346D01*
X96917505Y-167453843D01*
X96933073Y-167422089D01*
X96949957Y-167391161D01*
X96968151Y-167361132D01*
X96987649Y-167332075D01*
X97008444Y-167304067D01*
X97030532Y-167277180D01*
X97053905Y-167251489D01*
X97078558Y-167227069D01*
X97104485Y-167203993D01*
X97131680Y-167182337D01*
X97160136Y-167162174D01*
X97189848Y-167143578D01*
X97220810Y-167126625D01*
X97253015Y-167111388D01*
X97286457Y-167097941D01*
X97321131Y-167086359D01*
X97357031Y-167076717D01*
X97394150Y-167069088D01*
X97432482Y-167063546D01*
X97472022Y-167060167D01*
X97512763Y-167059024D01*
X97554426Y-167060086D01*
G37*
D11*
G36*
X102550214Y-165252095D02*
G01*
X102551767Y-165252548D01*
X102552255Y-165252686D01*
X102563976Y-165256081D01*
X102565101Y-165256420D01*
X102565776Y-165256635D01*
X102626737Y-165277155D01*
X102685765Y-165299864D01*
X102687212Y-165300448D01*
X102688652Y-165301046D01*
X102746460Y-165326143D01*
X102781821Y-165343299D01*
X102738809Y-165388006D01*
X102696007Y-165432944D01*
X102653445Y-165478129D01*
X102611145Y-165523587D01*
X102611144Y-165523587D01*
X102610431Y-165522545D01*
X102609904Y-165521826D01*
X102581248Y-165481478D01*
X102551829Y-165440949D01*
X102522224Y-165400980D01*
X102492495Y-165361582D01*
X102486369Y-165353656D01*
X102480251Y-165345901D01*
X102475498Y-165339895D01*
X102469416Y-165332130D01*
X102468001Y-165330317D01*
X102487735Y-165310463D01*
X102507550Y-165290682D01*
X102547320Y-165251257D01*
X102550214Y-165252095D01*
G37*
X102550214Y-165252095D02*
X102551767Y-165252548D01*
X102552255Y-165252686D01*
X102563976Y-165256081D01*
X102565101Y-165256420D01*
X102565776Y-165256635D01*
X102626737Y-165277155D01*
X102685765Y-165299864D01*
X102687212Y-165300448D01*
X102688652Y-165301046D01*
X102746460Y-165326143D01*
X102781821Y-165343299D01*
X102738809Y-165388006D01*
X102696007Y-165432944D01*
X102653445Y-165478129D01*
X102611145Y-165523587D01*
X102611144Y-165523587D01*
X102610431Y-165522545D01*
X102609904Y-165521826D01*
X102581248Y-165481478D01*
X102551829Y-165440949D01*
X102522224Y-165400980D01*
X102492495Y-165361582D01*
X102486369Y-165353656D01*
X102480251Y-165345901D01*
X102475498Y-165339895D01*
X102469416Y-165332130D01*
X102468001Y-165330317D01*
X102487735Y-165310463D01*
X102507550Y-165290682D01*
X102547320Y-165251257D01*
X102550214Y-165252095D01*
G36*
X102434513Y-165609825D02*
G01*
X102434670Y-165610042D01*
X102434983Y-165610487D01*
X102444537Y-165624219D01*
X102445183Y-165625157D01*
X102455482Y-165640451D01*
X102465723Y-165655797D01*
X102476062Y-165671072D01*
X102390423Y-165766831D01*
X102305375Y-165863050D01*
X102279912Y-165892224D01*
X102254647Y-165921582D01*
X102204296Y-165980459D01*
X102204296Y-165607045D01*
X102267617Y-165538624D01*
X102299466Y-165504581D01*
X102331520Y-165470726D01*
X102434513Y-165609825D01*
G37*
X102434513Y-165609825D02*
X102434670Y-165610042D01*
X102434983Y-165610487D01*
X102444537Y-165624219D01*
X102445183Y-165625157D01*
X102455482Y-165640451D01*
X102465723Y-165655797D01*
X102476062Y-165671072D01*
X102390423Y-165766831D01*
X102305375Y-165863050D01*
X102279912Y-165892224D01*
X102254647Y-165921582D01*
X102204296Y-165980459D01*
X102204296Y-165607045D01*
X102267617Y-165538624D01*
X102299466Y-165504581D01*
X102331520Y-165470726D01*
X102434513Y-165609825D01*
G36*
X102010871Y-166210780D02*
G01*
X101921076Y-166321031D01*
X101832090Y-166431957D01*
X101743845Y-166543476D01*
X101656274Y-166655499D01*
X101338311Y-166655499D01*
X101338571Y-166653168D01*
X101376736Y-166601501D01*
X101415042Y-166549933D01*
X101559398Y-166364330D01*
X101632705Y-166272391D01*
X101706777Y-166181049D01*
X101781621Y-166090323D01*
X101857246Y-166000230D01*
X101933660Y-165910790D01*
X102010871Y-165822019D01*
X102010871Y-166210780D01*
G37*
X102010871Y-166210780D02*
X101921076Y-166321031D01*
X101832090Y-166431957D01*
X101743845Y-166543476D01*
X101656274Y-166655499D01*
X101338311Y-166655499D01*
X101338571Y-166653168D01*
X101376736Y-166601501D01*
X101415042Y-166549933D01*
X101559398Y-166364330D01*
X101632705Y-166272391D01*
X101706777Y-166181049D01*
X101781621Y-166090323D01*
X101857246Y-166000230D01*
X101933660Y-165910790D01*
X102010871Y-165822019D01*
X102010871Y-166210780D01*
G36*
X101471170Y-166898529D02*
G01*
X101435991Y-166945892D01*
X101401021Y-166993403D01*
X101366287Y-167041027D01*
X101365604Y-167038256D01*
X101348942Y-166945993D01*
X101348844Y-166945361D01*
X101348762Y-166944761D01*
X101338313Y-166851310D01*
X101506561Y-166851310D01*
X101471170Y-166898529D01*
G37*
X101471170Y-166898529D02*
X101435991Y-166945892D01*
X101401021Y-166993403D01*
X101366287Y-167041027D01*
X101365604Y-167038256D01*
X101348942Y-166945993D01*
X101348844Y-166945361D01*
X101348762Y-166944761D01*
X101338313Y-166851310D01*
X101506561Y-166851310D01*
X101471170Y-166898529D01*
G36*
X100380630Y-167393875D02*
G01*
X100351740Y-167307336D01*
X100326978Y-167218951D01*
X100306460Y-167128834D01*
X100290300Y-167037104D01*
X100278616Y-166943876D01*
X100271672Y-166851291D01*
X100564405Y-166851291D01*
X100569909Y-166919339D01*
X100578245Y-166986522D01*
X100589351Y-167052779D01*
X100603167Y-167118047D01*
X100619630Y-167182267D01*
X100638681Y-167245378D01*
X100660257Y-167307318D01*
X100684298Y-167368026D01*
X100710742Y-167427442D01*
X100739529Y-167485505D01*
X100753391Y-167510781D01*
X100785055Y-167458249D01*
X100828658Y-167388356D01*
X100872982Y-167318957D01*
X100917973Y-167250020D01*
X100963579Y-167181512D01*
X101056420Y-167045648D01*
X101151077Y-166911102D01*
X101151148Y-166911796D01*
X101152181Y-166922153D01*
X101153200Y-166933226D01*
X101154295Y-166944280D01*
X101154921Y-166949790D01*
X101155626Y-166955283D01*
X101159373Y-166981036D01*
X101163532Y-167006691D01*
X101168092Y-167032248D01*
X101172999Y-167057491D01*
X101173033Y-167057688D01*
X101173079Y-167057884D01*
X101178373Y-167083063D01*
X101184083Y-167108320D01*
X101190163Y-167133474D01*
X101196579Y-167158423D01*
X101196600Y-167158510D01*
X101196624Y-167158594D01*
X101196606Y-167158526D01*
X101196579Y-167158423D01*
X101173079Y-167057884D01*
X101173041Y-167057705D01*
X101172999Y-167057491D01*
X101155637Y-166955263D01*
X101151148Y-166911796D01*
X101151079Y-166911099D01*
X101151077Y-166911102D01*
X101144902Y-166851310D01*
X101338302Y-166851310D01*
X101340325Y-166874934D01*
X101342764Y-166898481D01*
X101345607Y-166921956D01*
X101348762Y-166944761D01*
X101348829Y-166945364D01*
X101348942Y-166945993D01*
X101352464Y-166968699D01*
X101356461Y-166991967D01*
X101360836Y-167015161D01*
X101365588Y-167038275D01*
X101366259Y-167041065D01*
X101366287Y-167041027D01*
X101388196Y-167129937D01*
X101416164Y-167220381D01*
X101449069Y-167309557D01*
X101486469Y-167397439D01*
X101527925Y-167483998D01*
X101572996Y-167569205D01*
X101621242Y-167653032D01*
X101672223Y-167735452D01*
X101725498Y-167816435D01*
X101780628Y-167895953D01*
X101837171Y-167973978D01*
X101894688Y-168050482D01*
X102010881Y-168198814D01*
X102204292Y-168198814D01*
X102320561Y-168050482D01*
X102434657Y-167895953D01*
X102489792Y-167816435D01*
X102543066Y-167735452D01*
X102594041Y-167653032D01*
X102642276Y-167569205D01*
X102687334Y-167483998D01*
X102728774Y-167397439D01*
X102766158Y-167309557D01*
X102799046Y-167220381D01*
X102827000Y-167129937D01*
X102849580Y-167038256D01*
X102866347Y-166945364D01*
X102876863Y-166851291D01*
X102204292Y-166851291D01*
X102204292Y-168198814D01*
X102010881Y-168198814D01*
X102010881Y-166851291D01*
X101338311Y-166851291D01*
X101338313Y-166851310D01*
X101338302Y-166851310D01*
X101144902Y-166851310D01*
X101144900Y-166851291D01*
X100564405Y-166851291D01*
X100271672Y-166851291D01*
X100271520Y-166849268D01*
X100269130Y-166753395D01*
X100271520Y-166657523D01*
X100271671Y-166655508D01*
X101338302Y-166655508D01*
X101656268Y-166655508D01*
X101656274Y-166655499D01*
X102010881Y-166655499D01*
X102204292Y-166655499D01*
X102876863Y-166655499D01*
X102866347Y-166560598D01*
X102849580Y-166467091D01*
X102827000Y-166374985D01*
X102799046Y-166284285D01*
X102766158Y-166194997D01*
X102728774Y-166107128D01*
X102687334Y-166020683D01*
X102642276Y-165935667D01*
X102594041Y-165852087D01*
X102543066Y-165769949D01*
X102489792Y-165689257D01*
X102444537Y-165624219D01*
X102439963Y-165617569D01*
X102434983Y-165610487D01*
X102434657Y-165610019D01*
X102434513Y-165609825D01*
X102409231Y-165574740D01*
X102383515Y-165539784D01*
X102357590Y-165505126D01*
X102331523Y-165470722D01*
X102331520Y-165470726D01*
X102320561Y-165455925D01*
X102204292Y-165307712D01*
X102204292Y-166655499D01*
X102010881Y-166655499D01*
X102010881Y-165307977D01*
X101894612Y-165456308D01*
X101780516Y-165610838D01*
X101725381Y-165690356D01*
X101672107Y-165771339D01*
X101621132Y-165853758D01*
X101572897Y-165937586D01*
X101527840Y-166022793D01*
X101486399Y-166109351D01*
X101449016Y-166197233D01*
X101416127Y-166286410D01*
X101388173Y-166376853D01*
X101365593Y-166468535D01*
X101348826Y-166561426D01*
X101338571Y-166653168D01*
X101338561Y-166653182D01*
X101338302Y-166655508D01*
X100271671Y-166655508D01*
X100271672Y-166655499D01*
X100564405Y-166655499D01*
X101144900Y-166655499D01*
X101148986Y-166603301D01*
X101154849Y-166551484D01*
X101171655Y-166449026D01*
X101194808Y-166348182D01*
X101223800Y-166249008D01*
X101258120Y-166151562D01*
X101297258Y-166055899D01*
X101340706Y-165962076D01*
X101387953Y-165870150D01*
X101438490Y-165780177D01*
X101491807Y-165692215D01*
X101547394Y-165606318D01*
X101604742Y-165522545D01*
X101663341Y-165440952D01*
X101722681Y-165361595D01*
X101764880Y-165307712D01*
X101841548Y-165209816D01*
X102373625Y-165209816D01*
X102469416Y-165332130D01*
X102474131Y-165338169D01*
X102475498Y-165339895D01*
X102492492Y-165361595D01*
X102609904Y-165521826D01*
X102610421Y-165522554D01*
X102611144Y-165523587D01*
X102667779Y-165606318D01*
X102723367Y-165692215D01*
X102776683Y-165780177D01*
X102827220Y-165870150D01*
X102874467Y-165962076D01*
X102917915Y-166055899D01*
X102957054Y-166151562D01*
X102991373Y-166249008D01*
X103020365Y-166348182D01*
X103043519Y-166449026D01*
X103060325Y-166551484D01*
X103070273Y-166655499D01*
X103650769Y-166655499D01*
X103645265Y-166587451D01*
X103636929Y-166520268D01*
X103625823Y-166454012D01*
X103612007Y-166388743D01*
X103595543Y-166324523D01*
X103576493Y-166261412D01*
X103554916Y-166199472D01*
X103530876Y-166138764D01*
X103504431Y-166079348D01*
X103475645Y-166021286D01*
X103444578Y-165964638D01*
X103411291Y-165909466D01*
X103375845Y-165855830D01*
X103338302Y-165803792D01*
X103298723Y-165753412D01*
X103257168Y-165704752D01*
X103213700Y-165657873D01*
X103168379Y-165612835D01*
X103121267Y-165569699D01*
X103072424Y-165528527D01*
X103021913Y-165489379D01*
X102969793Y-165452317D01*
X102916127Y-165417401D01*
X102860975Y-165384693D01*
X102804399Y-165354254D01*
X102781821Y-165343299D01*
X102781832Y-165343288D01*
X102764220Y-165334599D01*
X102755383Y-165330311D01*
X102746485Y-165326132D01*
X102731790Y-165319481D01*
X102717008Y-165312987D01*
X102702146Y-165306645D01*
X102688652Y-165301046D01*
X102687219Y-165300424D01*
X102685765Y-165299864D01*
X102672209Y-165294393D01*
X102657133Y-165288485D01*
X102641981Y-165282732D01*
X102626751Y-165277142D01*
X102611445Y-165271721D01*
X102596069Y-165266463D01*
X102580622Y-165261365D01*
X102565776Y-165256635D01*
X102565075Y-165256399D01*
X102563976Y-165256081D01*
X102560675Y-165255086D01*
X102556224Y-165253810D01*
X102552255Y-165252686D01*
X102550214Y-165252095D01*
X102547324Y-165251252D01*
X102547320Y-165251257D01*
X102502295Y-165238217D01*
X102438458Y-165222669D01*
X102373625Y-165209816D01*
X101841548Y-165209816D01*
X101776716Y-165222692D01*
X101712881Y-165238260D01*
X101650104Y-165256460D01*
X101588447Y-165277231D01*
X101527971Y-165300512D01*
X101468736Y-165326242D01*
X101410804Y-165354360D01*
X101354235Y-165384805D01*
X101299091Y-165417517D01*
X101245433Y-165452434D01*
X101142819Y-165528643D01*
X101046880Y-165612944D01*
X100958105Y-165704851D01*
X100876982Y-165803877D01*
X100803999Y-165909536D01*
X100770713Y-165964700D01*
X100739646Y-166021339D01*
X100710858Y-166079393D01*
X100684410Y-166138801D01*
X100660363Y-166199502D01*
X100638779Y-166261435D01*
X100619719Y-166324539D01*
X100603242Y-166388754D01*
X100589412Y-166454018D01*
X100578288Y-166520271D01*
X100569932Y-166587452D01*
X100564405Y-166655499D01*
X100271672Y-166655499D01*
X100278616Y-166562914D01*
X100290300Y-166469687D01*
X100306460Y-166377956D01*
X100326978Y-166287840D01*
X100351740Y-166199454D01*
X100380630Y-166112916D01*
X100413534Y-166028342D01*
X100450336Y-165945849D01*
X100490921Y-165865553D01*
X100535174Y-165787572D01*
X100582980Y-165712022D01*
X100634223Y-165639019D01*
X100688788Y-165568681D01*
X100746560Y-165501124D01*
X100807424Y-165436465D01*
X100871265Y-165374820D01*
X100937966Y-165316307D01*
X101007414Y-165261041D01*
X101079493Y-165209141D01*
X101154088Y-165160721D01*
X101231083Y-165115900D01*
X101310364Y-165074794D01*
X101391814Y-165037519D01*
X101475320Y-165004192D01*
X101560765Y-164974930D01*
X101648035Y-164949850D01*
X101737014Y-164929068D01*
X101827587Y-164912701D01*
X101919639Y-164900866D01*
X102013055Y-164893679D01*
X102107719Y-164891258D01*
X102202382Y-164893679D01*
X102295796Y-164900866D01*
X102387844Y-164912701D01*
X102478413Y-164929068D01*
X102567386Y-164949850D01*
X102654648Y-164974930D01*
X102740086Y-165004192D01*
X102823582Y-165037519D01*
X102905023Y-165074794D01*
X102983951Y-165115723D01*
X102984300Y-165115912D01*
X102984652Y-165116109D01*
X102993209Y-165121091D01*
X102996189Y-165122864D01*
X102998171Y-165124022D01*
X103000164Y-165125162D01*
X103000178Y-165125148D01*
X102993209Y-165121091D01*
X102992245Y-165120517D01*
X102988294Y-165118180D01*
X102986304Y-165117034D01*
X102984652Y-165116109D01*
X102984293Y-165115900D01*
X102983951Y-165115723D01*
X102964692Y-165105278D01*
X102944943Y-165094873D01*
X102925054Y-165084704D01*
X102905028Y-165074777D01*
X102884867Y-165065097D01*
X102864571Y-165055662D01*
X102844144Y-165046469D01*
X102823586Y-165037519D01*
X102819016Y-165035595D01*
X102814423Y-165033718D01*
X102805187Y-165030058D01*
X102786689Y-165022791D01*
X102844377Y-164969232D01*
X102873333Y-164942560D01*
X102902548Y-164916131D01*
X102954977Y-164870534D01*
X103007913Y-164825448D01*
X103061393Y-164780914D01*
X103115455Y-164736973D01*
X103170137Y-164693663D01*
X103225477Y-164651027D01*
X103281513Y-164609104D01*
X103338283Y-164567935D01*
X103396268Y-164528045D01*
X103454849Y-164488732D01*
X103514497Y-164450571D01*
X103575683Y-164414140D01*
X103607000Y-164396753D01*
X103638878Y-164380015D01*
X103671376Y-164363999D01*
X103704553Y-164348775D01*
X103738468Y-164334417D01*
X103773180Y-164320995D01*
X103808747Y-164308584D01*
X103845229Y-164297254D01*
X103859089Y-164293453D01*
X103873283Y-164289975D01*
X103887812Y-164286873D01*
X103902676Y-164284202D01*
X103917875Y-164282016D01*
X103933408Y-164280369D01*
X103949277Y-164279315D01*
X103957337Y-164279028D01*
X103965480Y-164278909D01*
X103970956Y-164278925D01*
X103976470Y-164279021D01*
X103982022Y-164279197D01*
X103987610Y-164279457D01*
X103993236Y-164279804D01*
X103998899Y-164280240D01*
X104004599Y-164280767D01*
X104010336Y-164281389D01*
X104016015Y-164282051D01*
X104021744Y-164282862D01*
X104027521Y-164283846D01*
X104033348Y-164285029D01*
X104039225Y-164286436D01*
X104045151Y-164288090D01*
X104048133Y-164289018D01*
X104051128Y-164290017D01*
X104054135Y-164291090D01*
X104057155Y-164292241D01*
X104080460Y-164300716D01*
X104083337Y-164302240D01*
X104086208Y-164303828D01*
X104089073Y-164305472D01*
X104091929Y-164307162D01*
X104094771Y-164308890D01*
X104097599Y-164310645D01*
X104103198Y-164314204D01*
X104108748Y-164317749D01*
X104114249Y-164321322D01*
X104116965Y-164323156D01*
X104119651Y-164325043D01*
X104122299Y-164326998D01*
X104124902Y-164329035D01*
X104143403Y-164347793D01*
X104145814Y-164350106D01*
X104148095Y-164352476D01*
X104150258Y-164354899D01*
X104152313Y-164357370D01*
X104154272Y-164359885D01*
X104156148Y-164362439D01*
X104157950Y-164365027D01*
X104159692Y-164367644D01*
X104163038Y-164372949D01*
X104166277Y-164378315D01*
X104169503Y-164383706D01*
X104172806Y-164389083D01*
X104178235Y-164400070D01*
X104183034Y-164411002D01*
X104187240Y-164421874D01*
X104190888Y-164432681D01*
X104194011Y-164443418D01*
X104196645Y-164454080D01*
X104198825Y-164464662D01*
X104200586Y-164475159D01*
X104201962Y-164485566D01*
X104202988Y-164495878D01*
X104203700Y-164506091D01*
X104204133Y-164516198D01*
X104204297Y-164536079D01*
X104203761Y-164555481D01*
X104202564Y-164574683D01*
X104200792Y-164593606D01*
X104198491Y-164612263D01*
X104195709Y-164630669D01*
X104192494Y-164648840D01*
X104188891Y-164666790D01*
X104184948Y-164684534D01*
X104180713Y-164702087D01*
X104165374Y-164757589D01*
X104148235Y-164812036D01*
X104129455Y-164865516D01*
X104109190Y-164918114D01*
X104087597Y-164969919D01*
X104064836Y-165021017D01*
X104041062Y-165071495D01*
X104016433Y-165121441D01*
X104290267Y-165140510D01*
X103727769Y-165614899D01*
X103780427Y-164880939D01*
X103953956Y-165087852D01*
X103972503Y-165037266D01*
X103990308Y-164986534D01*
X104007177Y-164935684D01*
X104022915Y-164884742D01*
X104037326Y-164833739D01*
X104050214Y-164782703D01*
X104061384Y-164731661D01*
X104070641Y-164680641D01*
X104072970Y-164664585D01*
X104074977Y-164648583D01*
X104076637Y-164632668D01*
X104077925Y-164616870D01*
X104078817Y-164601222D01*
X104079286Y-164585753D01*
X104079308Y-164570496D01*
X104078858Y-164555481D01*
X104078492Y-164548112D01*
X104077986Y-164540802D01*
X104077340Y-164533574D01*
X104076550Y-164526449D01*
X104075614Y-164519448D01*
X104074530Y-164512594D01*
X104073295Y-164505907D01*
X104071908Y-164499409D01*
X104070365Y-164493122D01*
X104068666Y-164487067D01*
X104066806Y-164481267D01*
X104064785Y-164475742D01*
X104062600Y-164470515D01*
X104060248Y-164465606D01*
X104057727Y-164461037D01*
X104055035Y-164456831D01*
X104052242Y-164453070D01*
X104049405Y-164449619D01*
X104046507Y-164446465D01*
X104043529Y-164443595D01*
X104040451Y-164440995D01*
X104037256Y-164438654D01*
X104033925Y-164436559D01*
X104030438Y-164434697D01*
X104026778Y-164433054D01*
X104022926Y-164431619D01*
X104018863Y-164430379D01*
X104014570Y-164429321D01*
X104010029Y-164428431D01*
X104005220Y-164427699D01*
X104000127Y-164427110D01*
X103994729Y-164426652D01*
X103989088Y-164426540D01*
X103983283Y-164426604D01*
X103977325Y-164426843D01*
X103971225Y-164427259D01*
X103964991Y-164427854D01*
X103958633Y-164428628D01*
X103952163Y-164429583D01*
X103945590Y-164430720D01*
X103938923Y-164432039D01*
X103932174Y-164433543D01*
X103925352Y-164435231D01*
X103918467Y-164437107D01*
X103911529Y-164439170D01*
X103904548Y-164441421D01*
X103897534Y-164443863D01*
X103890498Y-164446495D01*
X103876400Y-164451611D01*
X103862289Y-164457121D01*
X103848171Y-164463006D01*
X103834051Y-164469245D01*
X103805830Y-164482708D01*
X103777674Y-164497348D01*
X103749629Y-164513005D01*
X103721743Y-164529519D01*
X103694063Y-164546728D01*
X103666636Y-164564473D01*
X103639239Y-164582651D01*
X103612014Y-164601249D01*
X103584958Y-164620239D01*
X103558066Y-164639593D01*
X103531335Y-164659281D01*
X103504762Y-164679275D01*
X103478343Y-164699548D01*
X103452075Y-164720070D01*
X103400055Y-164762092D01*
X103348561Y-164804970D01*
X103297574Y-164848643D01*
X103247077Y-164893048D01*
X103197050Y-164938122D01*
X103147477Y-164983804D01*
X103098339Y-165030031D01*
X103049619Y-165076741D01*
X103043363Y-165082711D01*
X103037157Y-165088737D01*
X103024838Y-165100891D01*
X103012546Y-165113075D01*
X103000178Y-165125148D01*
X103061278Y-165160721D01*
X103135861Y-165209141D01*
X103207928Y-165261041D01*
X103277364Y-165316307D01*
X103344053Y-165374820D01*
X103407882Y-165436465D01*
X103468733Y-165501124D01*
X103526493Y-165568681D01*
X103581046Y-165639019D01*
X103632277Y-165712022D01*
X103680071Y-165787572D01*
X103724313Y-165865553D01*
X103764888Y-165945849D01*
X103801681Y-166028342D01*
X103834576Y-166112916D01*
X103863459Y-166199454D01*
X103888213Y-166287840D01*
X103908726Y-166377956D01*
X103924880Y-166469687D01*
X103936561Y-166562914D01*
X103943654Y-166657523D01*
X103946044Y-166753395D01*
X103943654Y-166849267D01*
X103936561Y-166943876D01*
X103924880Y-167037104D01*
X103908726Y-167128834D01*
X103888213Y-167218951D01*
X103863459Y-167307336D01*
X103834576Y-167393874D01*
X103801681Y-167478448D01*
X103764888Y-167560942D01*
X103724313Y-167641237D01*
X103680071Y-167719218D01*
X103632277Y-167794769D01*
X103581046Y-167867771D01*
X103526493Y-167938109D01*
X103468733Y-168005666D01*
X103407882Y-168070325D01*
X103344053Y-168131970D01*
X103277364Y-168190483D01*
X103207928Y-168245749D01*
X103135861Y-168297649D01*
X103061278Y-168346069D01*
X102984293Y-168390890D01*
X102905023Y-168431997D01*
X102823582Y-168469272D01*
X102740086Y-168502598D01*
X102654648Y-168531860D01*
X102567386Y-168556940D01*
X102478413Y-168577722D01*
X102387844Y-168594089D01*
X102295796Y-168605924D01*
X102202382Y-168613111D01*
X102107719Y-168615532D01*
X102013055Y-168613111D01*
X101919639Y-168605924D01*
X101827587Y-168594089D01*
X101737014Y-168577722D01*
X101648035Y-168556940D01*
X101560765Y-168531860D01*
X101475320Y-168502598D01*
X101391814Y-168469272D01*
X101310364Y-168431997D01*
X101231083Y-168390890D01*
X101154088Y-168346069D01*
X101079493Y-168297650D01*
X101007414Y-168245749D01*
X100937967Y-168190483D01*
X100871265Y-168131970D01*
X100807424Y-168070326D01*
X100746560Y-168005666D01*
X100688788Y-167938109D01*
X100634223Y-167867771D01*
X100585776Y-167798752D01*
X100584653Y-167797092D01*
X100584634Y-167797126D01*
X100582980Y-167794769D01*
X100535175Y-167719218D01*
X100490922Y-167641237D01*
X100450336Y-167560942D01*
X100427969Y-167510804D01*
X100753377Y-167510804D01*
X100761895Y-167526544D01*
X100766194Y-167534390D01*
X100770585Y-167542172D01*
X100778700Y-167556100D01*
X100786951Y-167569929D01*
X100795339Y-167583664D01*
X100803865Y-167597311D01*
X100812527Y-167610867D01*
X100821324Y-167624326D01*
X100830254Y-167637688D01*
X100839315Y-167650951D01*
X100848510Y-167664112D01*
X100857841Y-167677173D01*
X100867301Y-167690132D01*
X100876300Y-167702206D01*
X100876872Y-167702998D01*
X100877667Y-167704011D01*
X100881420Y-167708906D01*
X100886027Y-167714765D01*
X100895280Y-167726450D01*
X100895287Y-167726439D01*
X100916451Y-167753378D01*
X100958005Y-167802038D01*
X101001473Y-167848918D01*
X101046794Y-167893956D01*
X101093907Y-167937091D01*
X101142749Y-167978264D01*
X101193261Y-168017411D01*
X101245380Y-168054473D01*
X101299046Y-168089389D01*
X101354198Y-168122097D01*
X101410774Y-168152537D01*
X101468713Y-168180647D01*
X101527955Y-168206367D01*
X101588436Y-168229635D01*
X101650098Y-168250391D01*
X101712878Y-168268574D01*
X101776715Y-168284122D01*
X101841548Y-168296974D01*
X102373625Y-168296974D01*
X102438458Y-168284122D01*
X102502295Y-168268574D01*
X102565075Y-168250391D01*
X102626737Y-168229635D01*
X102687219Y-168206367D01*
X102746460Y-168180647D01*
X102804399Y-168152537D01*
X102860975Y-168122097D01*
X102916127Y-168089389D01*
X102969793Y-168054473D01*
X103072424Y-167978264D01*
X103168379Y-167893956D01*
X103257168Y-167802038D01*
X103338302Y-167702998D01*
X103411291Y-167597325D01*
X103444578Y-167542152D01*
X103475645Y-167485505D01*
X103504431Y-167427442D01*
X103530876Y-167368026D01*
X103554916Y-167307318D01*
X103576493Y-167245378D01*
X103595543Y-167182267D01*
X103612007Y-167118047D01*
X103625823Y-167052779D01*
X103636929Y-166986522D01*
X103645265Y-166919339D01*
X103650769Y-166851291D01*
X103070273Y-166851291D01*
X103066188Y-166903490D01*
X103060324Y-166955306D01*
X103043519Y-167057764D01*
X103020365Y-167158608D01*
X102991373Y-167257782D01*
X102957053Y-167355229D01*
X102917915Y-167450892D01*
X102874467Y-167544714D01*
X102827220Y-167636640D01*
X102776683Y-167726613D01*
X102723367Y-167814576D01*
X102667779Y-167900472D01*
X102610431Y-167984245D01*
X102551832Y-168065838D01*
X102492492Y-168145195D01*
X102373625Y-168296974D01*
X101841548Y-168296974D01*
X101722953Y-168145185D01*
X101605523Y-167984208D01*
X101548470Y-167900419D01*
X101493179Y-167814506D01*
X101440138Y-167726528D01*
X101389838Y-167636541D01*
X101342769Y-167544605D01*
X101299421Y-167450775D01*
X101260284Y-167355111D01*
X101225846Y-167257670D01*
X101196624Y-167158594D01*
X101202462Y-167179903D01*
X101208635Y-167201185D01*
X101215059Y-167222389D01*
X101221669Y-167243534D01*
X101162064Y-167328813D01*
X101102865Y-167414352D01*
X101044117Y-167500175D01*
X100985869Y-167586303D01*
X100962944Y-167621186D01*
X100940294Y-167656220D01*
X100895287Y-167726439D01*
X100877667Y-167704011D01*
X100876884Y-167702989D01*
X100876300Y-167702206D01*
X100839329Y-167650960D01*
X100803883Y-167597325D01*
X100770596Y-167542152D01*
X100753391Y-167510781D01*
X100753377Y-167510804D01*
X100427969Y-167510804D01*
X100413534Y-167478449D01*
X100380630Y-167393875D01*
G37*
X100380630Y-167393875D02*
X100351740Y-167307336D01*
X100326978Y-167218951D01*
X100306460Y-167128834D01*
X100290300Y-167037104D01*
X100278616Y-166943876D01*
X100271672Y-166851291D01*
X100564405Y-166851291D01*
X100569909Y-166919339D01*
X100578245Y-166986522D01*
X100589351Y-167052779D01*
X100603167Y-167118047D01*
X100619630Y-167182267D01*
X100638681Y-167245378D01*
X100660257Y-167307318D01*
X100684298Y-167368026D01*
X100710742Y-167427442D01*
X100739529Y-167485505D01*
X100753391Y-167510781D01*
X100785055Y-167458249D01*
X100828658Y-167388356D01*
X100872982Y-167318957D01*
X100917973Y-167250020D01*
X100963579Y-167181512D01*
X101056420Y-167045648D01*
X101151077Y-166911102D01*
X101151148Y-166911796D01*
X101152181Y-166922153D01*
X101153200Y-166933226D01*
X101154295Y-166944280D01*
X101154921Y-166949790D01*
X101155626Y-166955283D01*
X101159373Y-166981036D01*
X101163532Y-167006691D01*
X101168092Y-167032248D01*
X101172999Y-167057491D01*
X101173033Y-167057688D01*
X101173079Y-167057884D01*
X101178373Y-167083063D01*
X101184083Y-167108320D01*
X101190163Y-167133474D01*
X101196579Y-167158423D01*
X101196600Y-167158510D01*
X101196624Y-167158594D01*
X101196606Y-167158526D01*
X101196579Y-167158423D01*
X101173079Y-167057884D01*
X101173041Y-167057705D01*
X101172999Y-167057491D01*
X101155637Y-166955263D01*
X101151148Y-166911796D01*
X101151079Y-166911099D01*
X101151077Y-166911102D01*
X101144902Y-166851310D01*
X101338302Y-166851310D01*
X101340325Y-166874934D01*
X101342764Y-166898481D01*
X101345607Y-166921956D01*
X101348762Y-166944761D01*
X101348829Y-166945364D01*
X101348942Y-166945993D01*
X101352464Y-166968699D01*
X101356461Y-166991967D01*
X101360836Y-167015161D01*
X101365588Y-167038275D01*
X101366259Y-167041065D01*
X101366287Y-167041027D01*
X101388196Y-167129937D01*
X101416164Y-167220381D01*
X101449069Y-167309557D01*
X101486469Y-167397439D01*
X101527925Y-167483998D01*
X101572996Y-167569205D01*
X101621242Y-167653032D01*
X101672223Y-167735452D01*
X101725498Y-167816435D01*
X101780628Y-167895953D01*
X101837171Y-167973978D01*
X101894688Y-168050482D01*
X102010881Y-168198814D01*
X102204292Y-168198814D01*
X102320561Y-168050482D01*
X102434657Y-167895953D01*
X102489792Y-167816435D01*
X102543066Y-167735452D01*
X102594041Y-167653032D01*
X102642276Y-167569205D01*
X102687334Y-167483998D01*
X102728774Y-167397439D01*
X102766158Y-167309557D01*
X102799046Y-167220381D01*
X102827000Y-167129937D01*
X102849580Y-167038256D01*
X102866347Y-166945364D01*
X102876863Y-166851291D01*
X102204292Y-166851291D01*
X102204292Y-168198814D01*
X102010881Y-168198814D01*
X102010881Y-166851291D01*
X101338311Y-166851291D01*
X101338313Y-166851310D01*
X101338302Y-166851310D01*
X101144902Y-166851310D01*
X101144900Y-166851291D01*
X100564405Y-166851291D01*
X100271672Y-166851291D01*
X100271520Y-166849268D01*
X100269130Y-166753395D01*
X100271520Y-166657523D01*
X100271671Y-166655508D01*
X101338302Y-166655508D01*
X101656268Y-166655508D01*
X101656274Y-166655499D01*
X102010881Y-166655499D01*
X102204292Y-166655499D01*
X102876863Y-166655499D01*
X102866347Y-166560598D01*
X102849580Y-166467091D01*
X102827000Y-166374985D01*
X102799046Y-166284285D01*
X102766158Y-166194997D01*
X102728774Y-166107128D01*
X102687334Y-166020683D01*
X102642276Y-165935667D01*
X102594041Y-165852087D01*
X102543066Y-165769949D01*
X102489792Y-165689257D01*
X102444537Y-165624219D01*
X102439963Y-165617569D01*
X102434983Y-165610487D01*
X102434657Y-165610019D01*
X102434513Y-165609825D01*
X102409231Y-165574740D01*
X102383515Y-165539784D01*
X102357590Y-165505126D01*
X102331523Y-165470722D01*
X102331520Y-165470726D01*
X102320561Y-165455925D01*
X102204292Y-165307712D01*
X102204292Y-166655499D01*
X102010881Y-166655499D01*
X102010881Y-165307977D01*
X101894612Y-165456308D01*
X101780516Y-165610838D01*
X101725381Y-165690356D01*
X101672107Y-165771339D01*
X101621132Y-165853758D01*
X101572897Y-165937586D01*
X101527840Y-166022793D01*
X101486399Y-166109351D01*
X101449016Y-166197233D01*
X101416127Y-166286410D01*
X101388173Y-166376853D01*
X101365593Y-166468535D01*
X101348826Y-166561426D01*
X101338571Y-166653168D01*
X101338561Y-166653182D01*
X101338302Y-166655508D01*
X100271671Y-166655508D01*
X100271672Y-166655499D01*
X100564405Y-166655499D01*
X101144900Y-166655499D01*
X101148986Y-166603301D01*
X101154849Y-166551484D01*
X101171655Y-166449026D01*
X101194808Y-166348182D01*
X101223800Y-166249008D01*
X101258120Y-166151562D01*
X101297258Y-166055899D01*
X101340706Y-165962076D01*
X101387953Y-165870150D01*
X101438490Y-165780177D01*
X101491807Y-165692215D01*
X101547394Y-165606318D01*
X101604742Y-165522545D01*
X101663341Y-165440952D01*
X101722681Y-165361595D01*
X101764880Y-165307712D01*
X101841548Y-165209816D01*
X102373625Y-165209816D01*
X102469416Y-165332130D01*
X102474131Y-165338169D01*
X102475498Y-165339895D01*
X102492492Y-165361595D01*
X102609904Y-165521826D01*
X102610421Y-165522554D01*
X102611144Y-165523587D01*
X102667779Y-165606318D01*
X102723367Y-165692215D01*
X102776683Y-165780177D01*
X102827220Y-165870150D01*
X102874467Y-165962076D01*
X102917915Y-166055899D01*
X102957054Y-166151562D01*
X102991373Y-166249008D01*
X103020365Y-166348182D01*
X103043519Y-166449026D01*
X103060325Y-166551484D01*
X103070273Y-166655499D01*
X103650769Y-166655499D01*
X103645265Y-166587451D01*
X103636929Y-166520268D01*
X103625823Y-166454012D01*
X103612007Y-166388743D01*
X103595543Y-166324523D01*
X103576493Y-166261412D01*
X103554916Y-166199472D01*
X103530876Y-166138764D01*
X103504431Y-166079348D01*
X103475645Y-166021286D01*
X103444578Y-165964638D01*
X103411291Y-165909466D01*
X103375845Y-165855830D01*
X103338302Y-165803792D01*
X103298723Y-165753412D01*
X103257168Y-165704752D01*
X103213700Y-165657873D01*
X103168379Y-165612835D01*
X103121267Y-165569699D01*
X103072424Y-165528527D01*
X103021913Y-165489379D01*
X102969793Y-165452317D01*
X102916127Y-165417401D01*
X102860975Y-165384693D01*
X102804399Y-165354254D01*
X102781821Y-165343299D01*
X102781832Y-165343288D01*
X102764220Y-165334599D01*
X102755383Y-165330311D01*
X102746485Y-165326132D01*
X102731790Y-165319481D01*
X102717008Y-165312987D01*
X102702146Y-165306645D01*
X102688652Y-165301046D01*
X102687219Y-165300424D01*
X102685765Y-165299864D01*
X102672209Y-165294393D01*
X102657133Y-165288485D01*
X102641981Y-165282732D01*
X102626751Y-165277142D01*
X102611445Y-165271721D01*
X102596069Y-165266463D01*
X102580622Y-165261365D01*
X102565776Y-165256635D01*
X102565075Y-165256399D01*
X102563976Y-165256081D01*
X102560675Y-165255086D01*
X102556224Y-165253810D01*
X102552255Y-165252686D01*
X102550214Y-165252095D01*
X102547324Y-165251252D01*
X102547320Y-165251257D01*
X102502295Y-165238217D01*
X102438458Y-165222669D01*
X102373625Y-165209816D01*
X101841548Y-165209816D01*
X101776716Y-165222692D01*
X101712881Y-165238260D01*
X101650104Y-165256460D01*
X101588447Y-165277231D01*
X101527971Y-165300512D01*
X101468736Y-165326242D01*
X101410804Y-165354360D01*
X101354235Y-165384805D01*
X101299091Y-165417517D01*
X101245433Y-165452434D01*
X101142819Y-165528643D01*
X101046880Y-165612944D01*
X100958105Y-165704851D01*
X100876982Y-165803877D01*
X100803999Y-165909536D01*
X100770713Y-165964700D01*
X100739646Y-166021339D01*
X100710858Y-166079393D01*
X100684410Y-166138801D01*
X100660363Y-166199502D01*
X100638779Y-166261435D01*
X100619719Y-166324539D01*
X100603242Y-166388754D01*
X100589412Y-166454018D01*
X100578288Y-166520271D01*
X100569932Y-166587452D01*
X100564405Y-166655499D01*
X100271672Y-166655499D01*
X100278616Y-166562914D01*
X100290300Y-166469687D01*
X100306460Y-166377956D01*
X100326978Y-166287840D01*
X100351740Y-166199454D01*
X100380630Y-166112916D01*
X100413534Y-166028342D01*
X100450336Y-165945849D01*
X100490921Y-165865553D01*
X100535174Y-165787572D01*
X100582980Y-165712022D01*
X100634223Y-165639019D01*
X100688788Y-165568681D01*
X100746560Y-165501124D01*
X100807424Y-165436465D01*
X100871265Y-165374820D01*
X100937966Y-165316307D01*
X101007414Y-165261041D01*
X101079493Y-165209141D01*
X101154088Y-165160721D01*
X101231083Y-165115900D01*
X101310364Y-165074794D01*
X101391814Y-165037519D01*
X101475320Y-165004192D01*
X101560765Y-164974930D01*
X101648035Y-164949850D01*
X101737014Y-164929068D01*
X101827587Y-164912701D01*
X101919639Y-164900866D01*
X102013055Y-164893679D01*
X102107719Y-164891258D01*
X102202382Y-164893679D01*
X102295796Y-164900866D01*
X102387844Y-164912701D01*
X102478413Y-164929068D01*
X102567386Y-164949850D01*
X102654648Y-164974930D01*
X102740086Y-165004192D01*
X102823582Y-165037519D01*
X102905023Y-165074794D01*
X102983951Y-165115723D01*
X102984300Y-165115912D01*
X102984652Y-165116109D01*
X102993209Y-165121091D01*
X102996189Y-165122864D01*
X102998171Y-165124022D01*
X103000164Y-165125162D01*
X103000178Y-165125148D01*
X102993209Y-165121091D01*
X102992245Y-165120517D01*
X102988294Y-165118180D01*
X102986304Y-165117034D01*
X102984652Y-165116109D01*
X102984293Y-165115900D01*
X102983951Y-165115723D01*
X102964692Y-165105278D01*
X102944943Y-165094873D01*
X102925054Y-165084704D01*
X102905028Y-165074777D01*
X102884867Y-165065097D01*
X102864571Y-165055662D01*
X102844144Y-165046469D01*
X102823586Y-165037519D01*
X102819016Y-165035595D01*
X102814423Y-165033718D01*
X102805187Y-165030058D01*
X102786689Y-165022791D01*
X102844377Y-164969232D01*
X102873333Y-164942560D01*
X102902548Y-164916131D01*
X102954977Y-164870534D01*
X103007913Y-164825448D01*
X103061393Y-164780914D01*
X103115455Y-164736973D01*
X103170137Y-164693663D01*
X103225477Y-164651027D01*
X103281513Y-164609104D01*
X103338283Y-164567935D01*
X103396268Y-164528045D01*
X103454849Y-164488732D01*
X103514497Y-164450571D01*
X103575683Y-164414140D01*
X103607000Y-164396753D01*
X103638878Y-164380015D01*
X103671376Y-164363999D01*
X103704553Y-164348775D01*
X103738468Y-164334417D01*
X103773180Y-164320995D01*
X103808747Y-164308584D01*
X103845229Y-164297254D01*
X103859089Y-164293453D01*
X103873283Y-164289975D01*
X103887812Y-164286873D01*
X103902676Y-164284202D01*
X103917875Y-164282016D01*
X103933408Y-164280369D01*
X103949277Y-164279315D01*
X103957337Y-164279028D01*
X103965480Y-164278909D01*
X103970956Y-164278925D01*
X103976470Y-164279021D01*
X103982022Y-164279197D01*
X103987610Y-164279457D01*
X103993236Y-164279804D01*
X103998899Y-164280240D01*
X104004599Y-164280767D01*
X104010336Y-164281389D01*
X104016015Y-164282051D01*
X104021744Y-164282862D01*
X104027521Y-164283846D01*
X104033348Y-164285029D01*
X104039225Y-164286436D01*
X104045151Y-164288090D01*
X104048133Y-164289018D01*
X104051128Y-164290017D01*
X104054135Y-164291090D01*
X104057155Y-164292241D01*
X104080460Y-164300716D01*
X104083337Y-164302240D01*
X104086208Y-164303828D01*
X104089073Y-164305472D01*
X104091929Y-164307162D01*
X104094771Y-164308890D01*
X104097599Y-164310645D01*
X104103198Y-164314204D01*
X104108748Y-164317749D01*
X104114249Y-164321322D01*
X104116965Y-164323156D01*
X104119651Y-164325043D01*
X104122299Y-164326998D01*
X104124902Y-164329035D01*
X104143403Y-164347793D01*
X104145814Y-164350106D01*
X104148095Y-164352476D01*
X104150258Y-164354899D01*
X104152313Y-164357370D01*
X104154272Y-164359885D01*
X104156148Y-164362439D01*
X104157950Y-164365027D01*
X104159692Y-164367644D01*
X104163038Y-164372949D01*
X104166277Y-164378315D01*
X104169503Y-164383706D01*
X104172806Y-164389083D01*
X104178235Y-164400070D01*
X104183034Y-164411002D01*
X104187240Y-164421874D01*
X104190888Y-164432681D01*
X104194011Y-164443418D01*
X104196645Y-164454080D01*
X104198825Y-164464662D01*
X104200586Y-164475159D01*
X104201962Y-164485566D01*
X104202988Y-164495878D01*
X104203700Y-164506091D01*
X104204133Y-164516198D01*
X104204297Y-164536079D01*
X104203761Y-164555481D01*
X104202564Y-164574683D01*
X104200792Y-164593606D01*
X104198491Y-164612263D01*
X104195709Y-164630669D01*
X104192494Y-164648840D01*
X104188891Y-164666790D01*
X104184948Y-164684534D01*
X104180713Y-164702087D01*
X104165374Y-164757589D01*
X104148235Y-164812036D01*
X104129455Y-164865516D01*
X104109190Y-164918114D01*
X104087597Y-164969919D01*
X104064836Y-165021017D01*
X104041062Y-165071495D01*
X104016433Y-165121441D01*
X104290267Y-165140510D01*
X103727769Y-165614899D01*
X103780427Y-164880939D01*
X103953956Y-165087852D01*
X103972503Y-165037266D01*
X103990308Y-164986534D01*
X104007177Y-164935684D01*
X104022915Y-164884742D01*
X104037326Y-164833739D01*
X104050214Y-164782703D01*
X104061384Y-164731661D01*
X104070641Y-164680641D01*
X104072970Y-164664585D01*
X104074977Y-164648583D01*
X104076637Y-164632668D01*
X104077925Y-164616870D01*
X104078817Y-164601222D01*
X104079286Y-164585753D01*
X104079308Y-164570496D01*
X104078858Y-164555481D01*
X104078492Y-164548112D01*
X104077986Y-164540802D01*
X104077340Y-164533574D01*
X104076550Y-164526449D01*
X104075614Y-164519448D01*
X104074530Y-164512594D01*
X104073295Y-164505907D01*
X104071908Y-164499409D01*
X104070365Y-164493122D01*
X104068666Y-164487067D01*
X104066806Y-164481267D01*
X104064785Y-164475742D01*
X104062600Y-164470515D01*
X104060248Y-164465606D01*
X104057727Y-164461037D01*
X104055035Y-164456831D01*
X104052242Y-164453070D01*
X104049405Y-164449619D01*
X104046507Y-164446465D01*
X104043529Y-164443595D01*
X104040451Y-164440995D01*
X104037256Y-164438654D01*
X104033925Y-164436559D01*
X104030438Y-164434697D01*
X104026778Y-164433054D01*
X104022926Y-164431619D01*
X104018863Y-164430379D01*
X104014570Y-164429321D01*
X104010029Y-164428431D01*
X104005220Y-164427699D01*
X104000127Y-164427110D01*
X103994729Y-164426652D01*
X103989088Y-164426540D01*
X103983283Y-164426604D01*
X103977325Y-164426843D01*
X103971225Y-164427259D01*
X103964991Y-164427854D01*
X103958633Y-164428628D01*
X103952163Y-164429583D01*
X103945590Y-164430720D01*
X103938923Y-164432039D01*
X103932174Y-164433543D01*
X103925352Y-164435231D01*
X103918467Y-164437107D01*
X103911529Y-164439170D01*
X103904548Y-164441421D01*
X103897534Y-164443863D01*
X103890498Y-164446495D01*
X103876400Y-164451611D01*
X103862289Y-164457121D01*
X103848171Y-164463006D01*
X103834051Y-164469245D01*
X103805830Y-164482708D01*
X103777674Y-164497348D01*
X103749629Y-164513005D01*
X103721743Y-164529519D01*
X103694063Y-164546728D01*
X103666636Y-164564473D01*
X103639239Y-164582651D01*
X103612014Y-164601249D01*
X103584958Y-164620239D01*
X103558066Y-164639593D01*
X103531335Y-164659281D01*
X103504762Y-164679275D01*
X103478343Y-164699548D01*
X103452075Y-164720070D01*
X103400055Y-164762092D01*
X103348561Y-164804970D01*
X103297574Y-164848643D01*
X103247077Y-164893048D01*
X103197050Y-164938122D01*
X103147477Y-164983804D01*
X103098339Y-165030031D01*
X103049619Y-165076741D01*
X103043363Y-165082711D01*
X103037157Y-165088737D01*
X103024838Y-165100891D01*
X103012546Y-165113075D01*
X103000178Y-165125148D01*
X103061278Y-165160721D01*
X103135861Y-165209141D01*
X103207928Y-165261041D01*
X103277364Y-165316307D01*
X103344053Y-165374820D01*
X103407882Y-165436465D01*
X103468733Y-165501124D01*
X103526493Y-165568681D01*
X103581046Y-165639019D01*
X103632277Y-165712022D01*
X103680071Y-165787572D01*
X103724313Y-165865553D01*
X103764888Y-165945849D01*
X103801681Y-166028342D01*
X103834576Y-166112916D01*
X103863459Y-166199454D01*
X103888213Y-166287840D01*
X103908726Y-166377956D01*
X103924880Y-166469687D01*
X103936561Y-166562914D01*
X103943654Y-166657523D01*
X103946044Y-166753395D01*
X103943654Y-166849267D01*
X103936561Y-166943876D01*
X103924880Y-167037104D01*
X103908726Y-167128834D01*
X103888213Y-167218951D01*
X103863459Y-167307336D01*
X103834576Y-167393874D01*
X103801681Y-167478448D01*
X103764888Y-167560942D01*
X103724313Y-167641237D01*
X103680071Y-167719218D01*
X103632277Y-167794769D01*
X103581046Y-167867771D01*
X103526493Y-167938109D01*
X103468733Y-168005666D01*
X103407882Y-168070325D01*
X103344053Y-168131970D01*
X103277364Y-168190483D01*
X103207928Y-168245749D01*
X103135861Y-168297649D01*
X103061278Y-168346069D01*
X102984293Y-168390890D01*
X102905023Y-168431997D01*
X102823582Y-168469272D01*
X102740086Y-168502598D01*
X102654648Y-168531860D01*
X102567386Y-168556940D01*
X102478413Y-168577722D01*
X102387844Y-168594089D01*
X102295796Y-168605924D01*
X102202382Y-168613111D01*
X102107719Y-168615532D01*
X102013055Y-168613111D01*
X101919639Y-168605924D01*
X101827587Y-168594089D01*
X101737014Y-168577722D01*
X101648035Y-168556940D01*
X101560765Y-168531860D01*
X101475320Y-168502598D01*
X101391814Y-168469272D01*
X101310364Y-168431997D01*
X101231083Y-168390890D01*
X101154088Y-168346069D01*
X101079493Y-168297650D01*
X101007414Y-168245749D01*
X100937967Y-168190483D01*
X100871265Y-168131970D01*
X100807424Y-168070326D01*
X100746560Y-168005666D01*
X100688788Y-167938109D01*
X100634223Y-167867771D01*
X100585776Y-167798752D01*
X100584653Y-167797092D01*
X100584634Y-167797126D01*
X100582980Y-167794769D01*
X100535175Y-167719218D01*
X100490922Y-167641237D01*
X100450336Y-167560942D01*
X100427969Y-167510804D01*
X100753377Y-167510804D01*
X100761895Y-167526544D01*
X100766194Y-167534390D01*
X100770585Y-167542172D01*
X100778700Y-167556100D01*
X100786951Y-167569929D01*
X100795339Y-167583664D01*
X100803865Y-167597311D01*
X100812527Y-167610867D01*
X100821324Y-167624326D01*
X100830254Y-167637688D01*
X100839315Y-167650951D01*
X100848510Y-167664112D01*
X100857841Y-167677173D01*
X100867301Y-167690132D01*
X100876300Y-167702206D01*
X100876872Y-167702998D01*
X100877667Y-167704011D01*
X100881420Y-167708906D01*
X100886027Y-167714765D01*
X100895280Y-167726450D01*
X100895287Y-167726439D01*
X100916451Y-167753378D01*
X100958005Y-167802038D01*
X101001473Y-167848918D01*
X101046794Y-167893956D01*
X101093907Y-167937091D01*
X101142749Y-167978264D01*
X101193261Y-168017411D01*
X101245380Y-168054473D01*
X101299046Y-168089389D01*
X101354198Y-168122097D01*
X101410774Y-168152537D01*
X101468713Y-168180647D01*
X101527955Y-168206367D01*
X101588436Y-168229635D01*
X101650098Y-168250391D01*
X101712878Y-168268574D01*
X101776715Y-168284122D01*
X101841548Y-168296974D01*
X102373625Y-168296974D01*
X102438458Y-168284122D01*
X102502295Y-168268574D01*
X102565075Y-168250391D01*
X102626737Y-168229635D01*
X102687219Y-168206367D01*
X102746460Y-168180647D01*
X102804399Y-168152537D01*
X102860975Y-168122097D01*
X102916127Y-168089389D01*
X102969793Y-168054473D01*
X103072424Y-167978264D01*
X103168379Y-167893956D01*
X103257168Y-167802038D01*
X103338302Y-167702998D01*
X103411291Y-167597325D01*
X103444578Y-167542152D01*
X103475645Y-167485505D01*
X103504431Y-167427442D01*
X103530876Y-167368026D01*
X103554916Y-167307318D01*
X103576493Y-167245378D01*
X103595543Y-167182267D01*
X103612007Y-167118047D01*
X103625823Y-167052779D01*
X103636929Y-166986522D01*
X103645265Y-166919339D01*
X103650769Y-166851291D01*
X103070273Y-166851291D01*
X103066188Y-166903490D01*
X103060324Y-166955306D01*
X103043519Y-167057764D01*
X103020365Y-167158608D01*
X102991373Y-167257782D01*
X102957053Y-167355229D01*
X102917915Y-167450892D01*
X102874467Y-167544714D01*
X102827220Y-167636640D01*
X102776683Y-167726613D01*
X102723367Y-167814576D01*
X102667779Y-167900472D01*
X102610431Y-167984245D01*
X102551832Y-168065838D01*
X102492492Y-168145195D01*
X102373625Y-168296974D01*
X101841548Y-168296974D01*
X101722953Y-168145185D01*
X101605523Y-167984208D01*
X101548470Y-167900419D01*
X101493179Y-167814506D01*
X101440138Y-167726528D01*
X101389838Y-167636541D01*
X101342769Y-167544605D01*
X101299421Y-167450775D01*
X101260284Y-167355111D01*
X101225846Y-167257670D01*
X101196624Y-167158594D01*
X101202462Y-167179903D01*
X101208635Y-167201185D01*
X101215059Y-167222389D01*
X101221669Y-167243534D01*
X101162064Y-167328813D01*
X101102865Y-167414352D01*
X101044117Y-167500175D01*
X100985869Y-167586303D01*
X100962944Y-167621186D01*
X100940294Y-167656220D01*
X100895287Y-167726439D01*
X100877667Y-167704011D01*
X100876884Y-167702989D01*
X100876300Y-167702206D01*
X100839329Y-167650960D01*
X100803883Y-167597325D01*
X100770596Y-167542152D01*
X100753391Y-167510781D01*
X100753377Y-167510804D01*
X100427969Y-167510804D01*
X100413534Y-167478449D01*
X100380630Y-167393875D01*
G36*
X100585776Y-167798752D02*
G01*
X100596754Y-167814987D01*
X100609037Y-167832744D01*
X100621517Y-167850348D01*
X100634211Y-167867785D01*
X100647546Y-167885623D01*
X100661088Y-167903291D01*
X100674834Y-167920789D01*
X100688781Y-167938117D01*
X100699489Y-167951043D01*
X100710363Y-167963820D01*
X100721350Y-167976496D01*
X100732396Y-167989121D01*
X100723957Y-168003060D01*
X100715416Y-168016946D01*
X100706902Y-168030847D01*
X100698548Y-168044828D01*
X100631268Y-168161876D01*
X100565524Y-168279522D01*
X100533585Y-168338693D01*
X100502459Y-168398160D01*
X100472288Y-168457975D01*
X100443215Y-168518184D01*
X100415308Y-168578544D01*
X100388425Y-168639459D01*
X100362994Y-168700766D01*
X100339443Y-168762299D01*
X100318198Y-168823893D01*
X100308574Y-168854663D01*
X100299688Y-168885386D01*
X100291592Y-168916042D01*
X100284339Y-168946611D01*
X100277984Y-168977072D01*
X100272580Y-169007405D01*
X100270962Y-169022138D01*
X100269711Y-169036716D01*
X100268870Y-169051063D01*
X100268481Y-169065103D01*
X100268589Y-169078759D01*
X100268842Y-169085418D01*
X100269236Y-169091953D01*
X100269775Y-169098353D01*
X100270466Y-169104608D01*
X100271312Y-169110711D01*
X100272321Y-169116649D01*
X100273696Y-169122366D01*
X100275147Y-169127721D01*
X100276684Y-169132730D01*
X100278316Y-169137408D01*
X100280051Y-169141772D01*
X100281899Y-169145837D01*
X100282868Y-169147762D01*
X100283869Y-169149619D01*
X100284902Y-169151409D01*
X100285969Y-169153134D01*
X100287071Y-169154796D01*
X100288208Y-169156398D01*
X100289383Y-169157940D01*
X100290596Y-169159426D01*
X100291849Y-169160857D01*
X100293142Y-169162236D01*
X100294477Y-169163563D01*
X100295854Y-169164841D01*
X100297275Y-169166073D01*
X100298741Y-169167259D01*
X100300254Y-169168403D01*
X100301813Y-169169505D01*
X100305079Y-169171595D01*
X100308546Y-169173545D01*
X100312453Y-169175430D01*
X100316718Y-169177117D01*
X100321320Y-169178606D01*
X100326239Y-169179896D01*
X100331455Y-169180988D01*
X100336946Y-169181881D01*
X100342693Y-169182577D01*
X100348674Y-169183073D01*
X100354869Y-169183371D01*
X100361257Y-169183471D01*
X100367819Y-169183373D01*
X100374532Y-169183075D01*
X100381377Y-169182580D01*
X100388332Y-169181885D01*
X100395378Y-169180993D01*
X100402494Y-169179901D01*
X100416886Y-169177329D01*
X100431464Y-169174206D01*
X100446195Y-169170576D01*
X100461046Y-169166480D01*
X100475985Y-169161963D01*
X100490976Y-169157067D01*
X100505989Y-169151835D01*
X100520988Y-169146312D01*
X100551108Y-169134021D01*
X100581049Y-169120896D01*
X100610816Y-169106993D01*
X100640413Y-169092364D01*
X100669847Y-169077064D01*
X100699122Y-169061147D01*
X100757217Y-169027675D01*
X100814743Y-168992380D01*
X100871740Y-168955693D01*
X100928251Y-168918045D01*
X100984319Y-168879868D01*
X101039808Y-168840347D01*
X101094958Y-168800191D01*
X101149779Y-168759439D01*
X101204280Y-168718128D01*
X101312361Y-168633981D01*
X101419279Y-168548053D01*
X101372315Y-168598173D01*
X101324850Y-168647877D01*
X101276826Y-168697098D01*
X101228189Y-168745767D01*
X101178882Y-168793817D01*
X101128850Y-168841177D01*
X101078036Y-168887781D01*
X101026383Y-168933559D01*
X101000361Y-168956277D01*
X100974079Y-168978771D01*
X100947524Y-169001017D01*
X100920683Y-169022990D01*
X100893545Y-169044665D01*
X100866097Y-169066018D01*
X100838327Y-169087024D01*
X100810221Y-169107658D01*
X100781797Y-169128048D01*
X100753034Y-169148098D01*
X100723869Y-169167739D01*
X100694236Y-169186902D01*
X100664070Y-169205520D01*
X100633305Y-169223524D01*
X100601876Y-169240845D01*
X100569719Y-169257416D01*
X100553252Y-169265267D01*
X100536562Y-169272899D01*
X100519598Y-169280240D01*
X100502312Y-169287218D01*
X100484654Y-169293762D01*
X100466574Y-169299800D01*
X100448023Y-169305261D01*
X100438556Y-169307753D01*
X100428952Y-169310074D01*
X100409509Y-169314135D01*
X100389295Y-169317554D01*
X100378908Y-169318916D01*
X100368337Y-169319988D01*
X100357586Y-169320728D01*
X100346659Y-169321092D01*
X100335557Y-169321037D01*
X100324286Y-169320521D01*
X100312847Y-169319500D01*
X100301244Y-169317932D01*
X100289480Y-169315773D01*
X100277558Y-169312980D01*
X100265481Y-169309510D01*
X100253252Y-169305320D01*
X100247237Y-169302838D01*
X100241292Y-169300157D01*
X100235416Y-169297275D01*
X100229605Y-169294195D01*
X100223856Y-169290916D01*
X100218166Y-169287439D01*
X100212532Y-169283766D01*
X100206950Y-169279895D01*
X100201917Y-169275644D01*
X100196941Y-169271241D01*
X100192028Y-169266707D01*
X100187183Y-169262064D01*
X100182413Y-169257334D01*
X100177723Y-169252539D01*
X100173119Y-169247702D01*
X100168606Y-169242843D01*
X100161481Y-169232239D01*
X100157962Y-169226881D01*
X100154498Y-169221492D01*
X100151108Y-169216079D01*
X100147812Y-169210646D01*
X100144629Y-169205200D01*
X100141580Y-169199745D01*
X100139323Y-169194363D01*
X100137116Y-169188938D01*
X100132833Y-169177981D01*
X100128698Y-169166925D01*
X100124681Y-169155820D01*
X100121928Y-169145008D01*
X100119509Y-169134297D01*
X100117406Y-169123683D01*
X100115602Y-169113164D01*
X100114078Y-169102734D01*
X100112816Y-169092390D01*
X100111798Y-169082128D01*
X100111006Y-169071945D01*
X100110027Y-169051798D01*
X100109734Y-169031917D01*
X100109981Y-169012272D01*
X100110625Y-168992833D01*
X100114080Y-168954995D01*
X100118815Y-168917841D01*
X100124722Y-168881308D01*
X100131692Y-168845332D01*
X100139617Y-168809853D01*
X100148389Y-168774808D01*
X100157899Y-168740134D01*
X100168038Y-168705770D01*
X100178634Y-168671706D01*
X100189752Y-168637954D01*
X100201342Y-168604479D01*
X100213353Y-168571249D01*
X100225737Y-168538230D01*
X100238442Y-168505387D01*
X100264621Y-168440101D01*
X100299887Y-168356855D01*
X100336759Y-168274569D01*
X100375111Y-168193173D01*
X100414817Y-168112596D01*
X100455750Y-168032770D01*
X100497784Y-167953623D01*
X100540794Y-167875087D01*
X100584634Y-167797126D01*
X100585776Y-167798752D01*
G37*
X100585776Y-167798752D02*
X100596754Y-167814987D01*
X100609037Y-167832744D01*
X100621517Y-167850348D01*
X100634211Y-167867785D01*
X100647546Y-167885623D01*
X100661088Y-167903291D01*
X100674834Y-167920789D01*
X100688781Y-167938117D01*
X100699489Y-167951043D01*
X100710363Y-167963820D01*
X100721350Y-167976496D01*
X100732396Y-167989121D01*
X100723957Y-168003060D01*
X100715416Y-168016946D01*
X100706902Y-168030847D01*
X100698548Y-168044828D01*
X100631268Y-168161876D01*
X100565524Y-168279522D01*
X100533585Y-168338693D01*
X100502459Y-168398160D01*
X100472288Y-168457975D01*
X100443215Y-168518184D01*
X100415308Y-168578544D01*
X100388425Y-168639459D01*
X100362994Y-168700766D01*
X100339443Y-168762299D01*
X100318198Y-168823893D01*
X100308574Y-168854663D01*
X100299688Y-168885386D01*
X100291592Y-168916042D01*
X100284339Y-168946611D01*
X100277984Y-168977072D01*
X100272580Y-169007405D01*
X100270962Y-169022138D01*
X100269711Y-169036716D01*
X100268870Y-169051063D01*
X100268481Y-169065103D01*
X100268589Y-169078759D01*
X100268842Y-169085418D01*
X100269236Y-169091953D01*
X100269775Y-169098353D01*
X100270466Y-169104608D01*
X100271312Y-169110711D01*
X100272321Y-169116649D01*
X100273696Y-169122366D01*
X100275147Y-169127721D01*
X100276684Y-169132730D01*
X100278316Y-169137408D01*
X100280051Y-169141772D01*
X100281899Y-169145837D01*
X100282868Y-169147762D01*
X100283869Y-169149619D01*
X100284902Y-169151409D01*
X100285969Y-169153134D01*
X100287071Y-169154796D01*
X100288208Y-169156398D01*
X100289383Y-169157940D01*
X100290596Y-169159426D01*
X100291849Y-169160857D01*
X100293142Y-169162236D01*
X100294477Y-169163563D01*
X100295854Y-169164841D01*
X100297275Y-169166073D01*
X100298741Y-169167259D01*
X100300254Y-169168403D01*
X100301813Y-169169505D01*
X100305079Y-169171595D01*
X100308546Y-169173545D01*
X100312453Y-169175430D01*
X100316718Y-169177117D01*
X100321320Y-169178606D01*
X100326239Y-169179896D01*
X100331455Y-169180988D01*
X100336946Y-169181881D01*
X100342693Y-169182577D01*
X100348674Y-169183073D01*
X100354869Y-169183371D01*
X100361257Y-169183471D01*
X100367819Y-169183373D01*
X100374532Y-169183075D01*
X100381377Y-169182580D01*
X100388332Y-169181885D01*
X100395378Y-169180993D01*
X100402494Y-169179901D01*
X100416886Y-169177329D01*
X100431464Y-169174206D01*
X100446195Y-169170576D01*
X100461046Y-169166480D01*
X100475985Y-169161963D01*
X100490976Y-169157067D01*
X100505989Y-169151835D01*
X100520988Y-169146312D01*
X100551108Y-169134021D01*
X100581049Y-169120896D01*
X100610816Y-169106993D01*
X100640413Y-169092364D01*
X100669847Y-169077064D01*
X100699122Y-169061147D01*
X100757217Y-169027675D01*
X100814743Y-168992380D01*
X100871740Y-168955693D01*
X100928251Y-168918045D01*
X100984319Y-168879868D01*
X101039808Y-168840347D01*
X101094958Y-168800191D01*
X101149779Y-168759439D01*
X101204280Y-168718128D01*
X101312361Y-168633981D01*
X101419279Y-168548053D01*
X101372315Y-168598173D01*
X101324850Y-168647877D01*
X101276826Y-168697098D01*
X101228189Y-168745767D01*
X101178882Y-168793817D01*
X101128850Y-168841177D01*
X101078036Y-168887781D01*
X101026383Y-168933559D01*
X101000361Y-168956277D01*
X100974079Y-168978771D01*
X100947524Y-169001017D01*
X100920683Y-169022990D01*
X100893545Y-169044665D01*
X100866097Y-169066018D01*
X100838327Y-169087024D01*
X100810221Y-169107658D01*
X100781797Y-169128048D01*
X100753034Y-169148098D01*
X100723869Y-169167739D01*
X100694236Y-169186902D01*
X100664070Y-169205520D01*
X100633305Y-169223524D01*
X100601876Y-169240845D01*
X100569719Y-169257416D01*
X100553252Y-169265267D01*
X100536562Y-169272899D01*
X100519598Y-169280240D01*
X100502312Y-169287218D01*
X100484654Y-169293762D01*
X100466574Y-169299800D01*
X100448023Y-169305261D01*
X100438556Y-169307753D01*
X100428952Y-169310074D01*
X100409509Y-169314135D01*
X100389295Y-169317554D01*
X100378908Y-169318916D01*
X100368337Y-169319988D01*
X100357586Y-169320728D01*
X100346659Y-169321092D01*
X100335557Y-169321037D01*
X100324286Y-169320521D01*
X100312847Y-169319500D01*
X100301244Y-169317932D01*
X100289480Y-169315773D01*
X100277558Y-169312980D01*
X100265481Y-169309510D01*
X100253252Y-169305320D01*
X100247237Y-169302838D01*
X100241292Y-169300157D01*
X100235416Y-169297275D01*
X100229605Y-169294195D01*
X100223856Y-169290916D01*
X100218166Y-169287439D01*
X100212532Y-169283766D01*
X100206950Y-169279895D01*
X100201917Y-169275644D01*
X100196941Y-169271241D01*
X100192028Y-169266707D01*
X100187183Y-169262064D01*
X100182413Y-169257334D01*
X100177723Y-169252539D01*
X100173119Y-169247702D01*
X100168606Y-169242843D01*
X100161481Y-169232239D01*
X100157962Y-169226881D01*
X100154498Y-169221492D01*
X100151108Y-169216079D01*
X100147812Y-169210646D01*
X100144629Y-169205200D01*
X100141580Y-169199745D01*
X100139323Y-169194363D01*
X100137116Y-169188938D01*
X100132833Y-169177981D01*
X100128698Y-169166925D01*
X100124681Y-169155820D01*
X100121928Y-169145008D01*
X100119509Y-169134297D01*
X100117406Y-169123683D01*
X100115602Y-169113164D01*
X100114078Y-169102734D01*
X100112816Y-169092390D01*
X100111798Y-169082128D01*
X100111006Y-169071945D01*
X100110027Y-169051798D01*
X100109734Y-169031917D01*
X100109981Y-169012272D01*
X100110625Y-168992833D01*
X100114080Y-168954995D01*
X100118815Y-168917841D01*
X100124722Y-168881308D01*
X100131692Y-168845332D01*
X100139617Y-168809853D01*
X100148389Y-168774808D01*
X100157899Y-168740134D01*
X100168038Y-168705770D01*
X100178634Y-168671706D01*
X100189752Y-168637954D01*
X100201342Y-168604479D01*
X100213353Y-168571249D01*
X100225737Y-168538230D01*
X100238442Y-168505387D01*
X100264621Y-168440101D01*
X100299887Y-168356855D01*
X100336759Y-168274569D01*
X100375111Y-168193173D01*
X100414817Y-168112596D01*
X100455750Y-168032770D01*
X100497784Y-167953623D01*
X100540794Y-167875087D01*
X100584634Y-167797126D01*
X100585776Y-167798752D01*
G36*
X100574224Y-163155608D02*
G01*
X100269159Y-163155608D01*
X100128930Y-162942883D01*
X99443131Y-162942883D01*
X99589444Y-162720368D01*
X99983939Y-162720368D01*
X99704009Y-162292802D01*
X99138860Y-163155608D01*
X98833530Y-163155608D01*
X99704009Y-161880052D01*
X100574224Y-163155608D01*
G37*
X100574224Y-163155608D02*
X100269159Y-163155608D01*
X100128930Y-162942883D01*
X99443131Y-162942883D01*
X99589444Y-162720368D01*
X99983939Y-162720368D01*
X99704009Y-162292802D01*
X99138860Y-163155608D01*
X98833530Y-163155608D01*
X99704009Y-161880052D01*
X100574224Y-163155608D01*
G36*
X103710594Y-162117647D02*
G01*
X102715232Y-162117647D01*
X102715232Y-162422712D01*
X103530412Y-162422712D01*
X103530412Y-162620356D01*
X102715232Y-162620356D01*
X102715232Y-162940502D01*
X103710594Y-162940502D01*
X103710594Y-163155608D01*
X102442447Y-163155608D01*
X102442447Y-161900160D01*
X103710594Y-161900160D01*
X103710594Y-162117647D01*
G37*
X103710594Y-162117647D02*
X102715232Y-162117647D01*
X102715232Y-162422712D01*
X103530412Y-162422712D01*
X103530412Y-162620356D01*
X102715232Y-162620356D01*
X102715232Y-162940502D01*
X103710594Y-162940502D01*
X103710594Y-163155608D01*
X102442447Y-163155608D01*
X102442447Y-161900160D01*
X103710594Y-161900160D01*
X103710594Y-162117647D01*
G36*
X98393264Y-161900160D02*
G01*
X98426367Y-161900826D01*
X98458169Y-161902793D01*
X98488686Y-161906011D01*
X98517934Y-161910432D01*
X98545930Y-161916007D01*
X98572690Y-161922688D01*
X98598230Y-161930427D01*
X98622568Y-161939174D01*
X98645718Y-161948881D01*
X98667698Y-161959499D01*
X98688525Y-161970980D01*
X98708213Y-161983276D01*
X98726780Y-161996337D01*
X98744243Y-162010115D01*
X98760617Y-162024562D01*
X98775919Y-162039628D01*
X98790165Y-162055266D01*
X98803371Y-162071427D01*
X98815555Y-162088061D01*
X98826732Y-162105122D01*
X98836919Y-162122559D01*
X98846132Y-162140324D01*
X98854387Y-162158369D01*
X98861701Y-162176645D01*
X98868091Y-162195104D01*
X98873572Y-162213697D01*
X98878161Y-162232375D01*
X98881875Y-162251090D01*
X98886740Y-162288436D01*
X98888300Y-162325345D01*
X98886696Y-162362282D01*
X98881798Y-162399703D01*
X98873473Y-162437213D01*
X98861589Y-162474417D01*
X98846014Y-162510919D01*
X98836801Y-162528783D01*
X98826615Y-162546323D01*
X98815441Y-162563489D01*
X98803261Y-162580232D01*
X98790059Y-162596504D01*
X98775819Y-162612253D01*
X98760523Y-162627431D01*
X98744157Y-162641988D01*
X98726702Y-162655875D01*
X98708142Y-162669043D01*
X98688462Y-162681441D01*
X98667644Y-162693021D01*
X98645672Y-162703732D01*
X98622530Y-162713526D01*
X98598200Y-162722353D01*
X98572666Y-162730164D01*
X98545913Y-162736909D01*
X98517923Y-162742538D01*
X98488679Y-162747002D01*
X98458166Y-162750253D01*
X98426366Y-162752239D01*
X98393264Y-162752912D01*
X97802979Y-162752912D01*
X97802979Y-163155608D01*
X97530458Y-163155608D01*
X97530458Y-162515316D01*
X97803243Y-162515316D01*
X98335848Y-162515316D01*
X98356179Y-162515012D01*
X98375465Y-162514116D01*
X98393734Y-162512650D01*
X98411012Y-162510637D01*
X98427325Y-162508100D01*
X98442698Y-162505063D01*
X98457158Y-162501547D01*
X98470732Y-162497577D01*
X98483444Y-162493174D01*
X98495322Y-162488362D01*
X98506392Y-162483164D01*
X98516679Y-162477602D01*
X98526209Y-162471700D01*
X98535010Y-162465480D01*
X98543106Y-162458966D01*
X98550524Y-162452180D01*
X98557291Y-162445145D01*
X98563431Y-162437884D01*
X98568972Y-162430420D01*
X98573939Y-162422777D01*
X98578359Y-162414976D01*
X98582258Y-162407040D01*
X98585661Y-162398994D01*
X98588595Y-162390859D01*
X98591087Y-162382658D01*
X98593161Y-162374415D01*
X98596164Y-162357893D01*
X98597812Y-162341475D01*
X98598315Y-162325345D01*
X98597812Y-162309635D01*
X98596164Y-162293584D01*
X98593161Y-162277380D01*
X98588595Y-162261209D01*
X98582258Y-162245258D01*
X98573939Y-162229714D01*
X98568972Y-162222153D01*
X98563431Y-162214764D01*
X98557291Y-162207570D01*
X98550524Y-162200594D01*
X98543106Y-162193861D01*
X98535010Y-162187392D01*
X98526209Y-162181212D01*
X98516679Y-162175344D01*
X98506392Y-162169811D01*
X98495322Y-162164637D01*
X98483444Y-162159845D01*
X98470732Y-162155458D01*
X98457158Y-162151500D01*
X98442698Y-162147993D01*
X98427325Y-162144963D01*
X98411012Y-162142430D01*
X98393734Y-162140420D01*
X98375465Y-162138956D01*
X98356179Y-162138060D01*
X98335848Y-162137756D01*
X97803243Y-162137756D01*
X97803243Y-162515316D01*
X97530458Y-162515316D01*
X97530458Y-161900160D01*
X98393264Y-161900160D01*
G37*
X98393264Y-161900160D02*
X98426367Y-161900826D01*
X98458169Y-161902793D01*
X98488686Y-161906011D01*
X98517934Y-161910432D01*
X98545930Y-161916007D01*
X98572690Y-161922688D01*
X98598230Y-161930427D01*
X98622568Y-161939174D01*
X98645718Y-161948881D01*
X98667698Y-161959499D01*
X98688525Y-161970980D01*
X98708213Y-161983276D01*
X98726780Y-161996337D01*
X98744243Y-162010115D01*
X98760617Y-162024562D01*
X98775919Y-162039628D01*
X98790165Y-162055266D01*
X98803371Y-162071427D01*
X98815555Y-162088061D01*
X98826732Y-162105122D01*
X98836919Y-162122559D01*
X98846132Y-162140324D01*
X98854387Y-162158369D01*
X98861701Y-162176645D01*
X98868091Y-162195104D01*
X98873572Y-162213697D01*
X98878161Y-162232375D01*
X98881875Y-162251090D01*
X98886740Y-162288436D01*
X98888300Y-162325345D01*
X98886696Y-162362282D01*
X98881798Y-162399703D01*
X98873473Y-162437213D01*
X98861589Y-162474417D01*
X98846014Y-162510919D01*
X98836801Y-162528783D01*
X98826615Y-162546323D01*
X98815441Y-162563489D01*
X98803261Y-162580232D01*
X98790059Y-162596504D01*
X98775819Y-162612253D01*
X98760523Y-162627431D01*
X98744157Y-162641988D01*
X98726702Y-162655875D01*
X98708142Y-162669043D01*
X98688462Y-162681441D01*
X98667644Y-162693021D01*
X98645672Y-162703732D01*
X98622530Y-162713526D01*
X98598200Y-162722353D01*
X98572666Y-162730164D01*
X98545913Y-162736909D01*
X98517923Y-162742538D01*
X98488679Y-162747002D01*
X98458166Y-162750253D01*
X98426366Y-162752239D01*
X98393264Y-162752912D01*
X97802979Y-162752912D01*
X97802979Y-163155608D01*
X97530458Y-163155608D01*
X97530458Y-162515316D01*
X97803243Y-162515316D01*
X98335848Y-162515316D01*
X98356179Y-162515012D01*
X98375465Y-162514116D01*
X98393734Y-162512650D01*
X98411012Y-162510637D01*
X98427325Y-162508100D01*
X98442698Y-162505063D01*
X98457158Y-162501547D01*
X98470732Y-162497577D01*
X98483444Y-162493174D01*
X98495322Y-162488362D01*
X98506392Y-162483164D01*
X98516679Y-162477602D01*
X98526209Y-162471700D01*
X98535010Y-162465480D01*
X98543106Y-162458966D01*
X98550524Y-162452180D01*
X98557291Y-162445145D01*
X98563431Y-162437884D01*
X98568972Y-162430420D01*
X98573939Y-162422777D01*
X98578359Y-162414976D01*
X98582258Y-162407040D01*
X98585661Y-162398994D01*
X98588595Y-162390859D01*
X98591087Y-162382658D01*
X98593161Y-162374415D01*
X98596164Y-162357893D01*
X98597812Y-162341475D01*
X98598315Y-162325345D01*
X98597812Y-162309635D01*
X98596164Y-162293584D01*
X98593161Y-162277380D01*
X98588595Y-162261209D01*
X98582258Y-162245258D01*
X98573939Y-162229714D01*
X98568972Y-162222153D01*
X98563431Y-162214764D01*
X98557291Y-162207570D01*
X98550524Y-162200594D01*
X98543106Y-162193861D01*
X98535010Y-162187392D01*
X98526209Y-162181212D01*
X98516679Y-162175344D01*
X98506392Y-162169811D01*
X98495322Y-162164637D01*
X98483444Y-162159845D01*
X98470732Y-162155458D01*
X98457158Y-162151500D01*
X98442698Y-162147993D01*
X98427325Y-162144963D01*
X98411012Y-162142430D01*
X98393734Y-162140420D01*
X98375465Y-162138956D01*
X98356179Y-162138060D01*
X98335848Y-162137756D01*
X97803243Y-162137756D01*
X97803243Y-162515316D01*
X97530458Y-162515316D01*
X97530458Y-161900160D01*
X98393264Y-161900160D01*
G36*
X93103449Y-161900160D02*
G01*
X93136553Y-161900841D01*
X93168354Y-161902849D01*
X93198871Y-161906135D01*
X93228120Y-161910648D01*
X93256116Y-161916337D01*
X93282877Y-161923152D01*
X93308418Y-161931043D01*
X93332757Y-161939959D01*
X93355909Y-161949850D01*
X93377891Y-161960665D01*
X93398720Y-161972354D01*
X93418412Y-161984866D01*
X93436983Y-161998152D01*
X93454450Y-162012160D01*
X93470829Y-162026840D01*
X93486137Y-162042142D01*
X93500389Y-162058015D01*
X93513603Y-162074409D01*
X93525795Y-162091274D01*
X93536981Y-162108558D01*
X93547178Y-162126212D01*
X93556403Y-162144185D01*
X93564670Y-162162427D01*
X93571998Y-162180887D01*
X93578402Y-162199515D01*
X93583899Y-162218260D01*
X93592237Y-162255901D01*
X93597143Y-162293406D01*
X93598750Y-162330372D01*
X93597863Y-162359071D01*
X93595165Y-162387917D01*
X93590601Y-162416760D01*
X93584115Y-162445450D01*
X93575650Y-162473835D01*
X93570659Y-162487867D01*
X93565152Y-162501767D01*
X93559122Y-162515515D01*
X93552563Y-162529093D01*
X93545468Y-162542483D01*
X93537830Y-162555665D01*
X93529641Y-162568621D01*
X93520894Y-162581332D01*
X93511583Y-162593778D01*
X93501702Y-162605942D01*
X93491241Y-162617805D01*
X93480196Y-162629347D01*
X93468558Y-162640550D01*
X93456321Y-162651395D01*
X93443478Y-162661863D01*
X93430022Y-162671936D01*
X93415946Y-162681594D01*
X93401243Y-162690820D01*
X93385905Y-162699593D01*
X93369927Y-162707896D01*
X93353300Y-162715709D01*
X93336019Y-162723014D01*
X93626001Y-163155608D01*
X93320936Y-163155608D01*
X93055824Y-162762966D01*
X92518191Y-162762966D01*
X92518191Y-163155608D01*
X92245670Y-163155608D01*
X92245670Y-162522725D01*
X92518456Y-162522725D01*
X93063763Y-162522725D01*
X93082709Y-162522428D01*
X93100672Y-162521553D01*
X93117675Y-162520119D01*
X93133744Y-162518149D01*
X93148905Y-162515663D01*
X93163181Y-162512682D01*
X93176600Y-162509227D01*
X93189184Y-162505320D01*
X93200960Y-162500981D01*
X93211952Y-162496231D01*
X93222187Y-162491091D01*
X93231688Y-162485583D01*
X93240481Y-162479727D01*
X93248591Y-162473544D01*
X93256043Y-162467056D01*
X93262862Y-162460283D01*
X93269074Y-162453247D01*
X93274703Y-162445968D01*
X93279774Y-162438467D01*
X93284313Y-162430766D01*
X93288345Y-162422886D01*
X93291894Y-162414847D01*
X93294986Y-162406671D01*
X93297647Y-162398379D01*
X93299900Y-162389991D01*
X93301771Y-162381529D01*
X93304469Y-162364465D01*
X93305940Y-162347357D01*
X93306386Y-162330372D01*
X93305940Y-162314662D01*
X93304469Y-162298611D01*
X93301771Y-162282407D01*
X93297646Y-162266236D01*
X93291894Y-162250285D01*
X93288344Y-162242450D01*
X93284313Y-162234741D01*
X93279774Y-162227180D01*
X93274702Y-162219791D01*
X93269073Y-162212597D01*
X93262862Y-162205621D01*
X93256043Y-162198888D01*
X93248591Y-162192419D01*
X93240481Y-162186239D01*
X93231688Y-162180371D01*
X93222186Y-162174839D01*
X93211952Y-162169664D01*
X93200960Y-162164872D01*
X93189184Y-162160485D01*
X93176599Y-162156527D01*
X93163181Y-162153021D01*
X93148905Y-162149990D01*
X93133744Y-162147458D01*
X93117675Y-162145447D01*
X93100672Y-162143983D01*
X93082709Y-162143087D01*
X93063763Y-162142783D01*
X92518456Y-162142783D01*
X92518456Y-162522725D01*
X92245670Y-162522725D01*
X92245670Y-161900160D01*
X93103449Y-161900160D01*
G37*
X93103449Y-161900160D02*
X93136553Y-161900841D01*
X93168354Y-161902849D01*
X93198871Y-161906135D01*
X93228120Y-161910648D01*
X93256116Y-161916337D01*
X93282877Y-161923152D01*
X93308418Y-161931043D01*
X93332757Y-161939959D01*
X93355909Y-161949850D01*
X93377891Y-161960665D01*
X93398720Y-161972354D01*
X93418412Y-161984866D01*
X93436983Y-161998152D01*
X93454450Y-162012160D01*
X93470829Y-162026840D01*
X93486137Y-162042142D01*
X93500389Y-162058015D01*
X93513603Y-162074409D01*
X93525795Y-162091274D01*
X93536981Y-162108558D01*
X93547178Y-162126212D01*
X93556403Y-162144185D01*
X93564670Y-162162427D01*
X93571998Y-162180887D01*
X93578402Y-162199515D01*
X93583899Y-162218260D01*
X93592237Y-162255901D01*
X93597143Y-162293406D01*
X93598750Y-162330372D01*
X93597863Y-162359071D01*
X93595165Y-162387917D01*
X93590601Y-162416760D01*
X93584115Y-162445450D01*
X93575650Y-162473835D01*
X93570659Y-162487867D01*
X93565152Y-162501767D01*
X93559122Y-162515515D01*
X93552563Y-162529093D01*
X93545468Y-162542483D01*
X93537830Y-162555665D01*
X93529641Y-162568621D01*
X93520894Y-162581332D01*
X93511583Y-162593778D01*
X93501702Y-162605942D01*
X93491241Y-162617805D01*
X93480196Y-162629347D01*
X93468558Y-162640550D01*
X93456321Y-162651395D01*
X93443478Y-162661863D01*
X93430022Y-162671936D01*
X93415946Y-162681594D01*
X93401243Y-162690820D01*
X93385905Y-162699593D01*
X93369927Y-162707896D01*
X93353300Y-162715709D01*
X93336019Y-162723014D01*
X93626001Y-163155608D01*
X93320936Y-163155608D01*
X93055824Y-162762966D01*
X92518191Y-162762966D01*
X92518191Y-163155608D01*
X92245670Y-163155608D01*
X92245670Y-162522725D01*
X92518456Y-162522725D01*
X93063763Y-162522725D01*
X93082709Y-162522428D01*
X93100672Y-162521553D01*
X93117675Y-162520119D01*
X93133744Y-162518149D01*
X93148905Y-162515663D01*
X93163181Y-162512682D01*
X93176600Y-162509227D01*
X93189184Y-162505320D01*
X93200960Y-162500981D01*
X93211952Y-162496231D01*
X93222187Y-162491091D01*
X93231688Y-162485583D01*
X93240481Y-162479727D01*
X93248591Y-162473544D01*
X93256043Y-162467056D01*
X93262862Y-162460283D01*
X93269074Y-162453247D01*
X93274703Y-162445968D01*
X93279774Y-162438467D01*
X93284313Y-162430766D01*
X93288345Y-162422886D01*
X93291894Y-162414847D01*
X93294986Y-162406671D01*
X93297647Y-162398379D01*
X93299900Y-162389991D01*
X93301771Y-162381529D01*
X93304469Y-162364465D01*
X93305940Y-162347357D01*
X93306386Y-162330372D01*
X93305940Y-162314662D01*
X93304469Y-162298611D01*
X93301771Y-162282407D01*
X93297646Y-162266236D01*
X93291894Y-162250285D01*
X93288344Y-162242450D01*
X93284313Y-162234741D01*
X93279774Y-162227180D01*
X93274702Y-162219791D01*
X93269073Y-162212597D01*
X93262862Y-162205621D01*
X93256043Y-162198888D01*
X93248591Y-162192419D01*
X93240481Y-162186239D01*
X93231688Y-162180371D01*
X93222186Y-162174839D01*
X93211952Y-162169664D01*
X93200960Y-162164872D01*
X93189184Y-162160485D01*
X93176599Y-162156527D01*
X93163181Y-162153021D01*
X93148905Y-162149990D01*
X93133744Y-162147458D01*
X93117675Y-162145447D01*
X93100672Y-162143983D01*
X93082709Y-162143087D01*
X93063763Y-162142783D01*
X92518456Y-162142783D01*
X92518456Y-162522725D01*
X92245670Y-162522725D01*
X92245670Y-161900160D01*
X93103449Y-161900160D01*
G36*
X91908062Y-162117647D02*
G01*
X90912700Y-162117647D01*
X90912700Y-162422712D01*
X91728145Y-162422712D01*
X91728145Y-162620356D01*
X90912700Y-162620356D01*
X90912700Y-162940502D01*
X91908062Y-162940502D01*
X91908062Y-163155608D01*
X90640179Y-163155608D01*
X90640179Y-161900160D01*
X91908062Y-161900160D01*
X91908062Y-162117647D01*
G37*
X91908062Y-162117647D02*
X90912700Y-162117647D01*
X90912700Y-162422712D01*
X91728145Y-162422712D01*
X91728145Y-162620356D01*
X90912700Y-162620356D01*
X90912700Y-162940502D01*
X91908062Y-162940502D01*
X91908062Y-163155608D01*
X90640179Y-163155608D01*
X90640179Y-161900160D01*
X91908062Y-161900160D01*
X91908062Y-162117647D01*
G36*
X90430100Y-163155608D02*
G01*
X90125035Y-163155608D01*
X89984806Y-162942883D01*
X89301652Y-162942883D01*
X89447966Y-162720368D01*
X89839815Y-162720368D01*
X89559885Y-162292802D01*
X89279692Y-162720368D01*
X89279956Y-162720368D01*
X89133642Y-162942883D01*
X89132054Y-162942883D01*
X88994471Y-163155608D01*
X88689406Y-163155608D01*
X89559885Y-161880052D01*
X90430100Y-163155608D01*
G37*
X90430100Y-163155608D02*
X90125035Y-163155608D01*
X89984806Y-162942883D01*
X89301652Y-162942883D01*
X89447966Y-162720368D01*
X89839815Y-162720368D01*
X89559885Y-162292802D01*
X89279692Y-162720368D01*
X89279956Y-162720368D01*
X89133642Y-162942883D01*
X89132054Y-162942883D01*
X88994471Y-163155608D01*
X88689406Y-163155608D01*
X89559885Y-161880052D01*
X90430100Y-163155608D01*
G36*
X96582655Y-161880479D02*
G01*
X96629558Y-161881710D01*
X96675614Y-161883667D01*
X96720631Y-161886273D01*
X96806787Y-161893125D01*
X96886496Y-161901648D01*
X96958231Y-161911225D01*
X97020462Y-161921240D01*
X97071661Y-161931074D01*
X97110300Y-161940112D01*
X97097865Y-162167654D01*
X97052697Y-162155729D01*
X97001780Y-162144540D01*
X96945195Y-162134349D01*
X96883024Y-162125420D01*
X96815345Y-162118016D01*
X96742240Y-162112401D01*
X96663790Y-162108839D01*
X96580075Y-162107593D01*
X96538827Y-162107905D01*
X96497853Y-162108913D01*
X96457482Y-162110720D01*
X96418043Y-162113435D01*
X96379866Y-162117161D01*
X96343280Y-162122006D01*
X96308615Y-162128075D01*
X96292106Y-162131602D01*
X96276201Y-162135474D01*
X96260940Y-162139705D01*
X96246366Y-162144308D01*
X96232519Y-162149296D01*
X96219440Y-162154683D01*
X96207171Y-162160482D01*
X96195753Y-162166706D01*
X96185227Y-162173368D01*
X96175634Y-162180482D01*
X96167015Y-162188060D01*
X96159412Y-162196116D01*
X96152866Y-162204664D01*
X96147417Y-162213715D01*
X96143108Y-162223285D01*
X96139979Y-162233385D01*
X96138071Y-162244029D01*
X96137426Y-162255231D01*
X96137428Y-162255231D01*
X96140513Y-162277959D01*
X96149506Y-162297559D01*
X96164014Y-162314302D01*
X96183641Y-162328460D01*
X96207995Y-162340305D01*
X96236682Y-162350106D01*
X96269306Y-162358137D01*
X96305476Y-162364669D01*
X96386872Y-162374320D01*
X96477719Y-162381232D01*
X96675161Y-162395526D01*
X96775453Y-162407252D01*
X96872590Y-162424926D01*
X96918991Y-162436672D01*
X96963422Y-162450720D01*
X97005488Y-162467341D01*
X97044796Y-162486807D01*
X97080952Y-162509389D01*
X97113562Y-162535359D01*
X97142232Y-162564987D01*
X97166568Y-162598546D01*
X97186176Y-162636307D01*
X97200663Y-162678542D01*
X97209634Y-162725522D01*
X97212695Y-162777518D01*
X97211615Y-162809262D01*
X97208425Y-162839334D01*
X97203195Y-162867778D01*
X97195999Y-162894639D01*
X97186906Y-162919959D01*
X97175991Y-162943781D01*
X97163323Y-162966150D01*
X97148976Y-162987110D01*
X97133020Y-163006702D01*
X97115529Y-163024971D01*
X97096573Y-163041961D01*
X97076224Y-163057715D01*
X97054555Y-163072276D01*
X97031637Y-163085688D01*
X96982342Y-163109240D01*
X96928914Y-163128717D01*
X96871928Y-163144467D01*
X96811958Y-163156840D01*
X96749579Y-163166183D01*
X96685367Y-163172844D01*
X96619895Y-163177170D01*
X96553739Y-163179511D01*
X96487473Y-163180214D01*
X96405787Y-163179298D01*
X96322687Y-163176605D01*
X96239116Y-163172219D01*
X96156016Y-163166224D01*
X96074330Y-163158704D01*
X95995000Y-163149741D01*
X95918970Y-163139421D01*
X95847181Y-163127826D01*
X95857235Y-162900285D01*
X95930830Y-162912650D01*
X96003678Y-162923357D01*
X96076221Y-162932408D01*
X96148905Y-162939807D01*
X96222171Y-162945556D01*
X96296463Y-162949659D01*
X96372226Y-162952118D01*
X96449901Y-162952937D01*
X96498321Y-162952565D01*
X96545845Y-162951377D01*
X96592165Y-162949264D01*
X96636974Y-162946116D01*
X96679964Y-162941823D01*
X96720829Y-162936277D01*
X96759260Y-162929369D01*
X96777467Y-162925370D01*
X96794951Y-162920988D01*
X96811673Y-162916212D01*
X96827594Y-162911027D01*
X96842676Y-162905419D01*
X96856882Y-162899374D01*
X96870171Y-162892880D01*
X96882507Y-162885922D01*
X96893850Y-162878487D01*
X96904162Y-162870561D01*
X96913405Y-162862130D01*
X96921540Y-162853181D01*
X96928529Y-162843700D01*
X96934333Y-162833673D01*
X96938914Y-162823087D01*
X96942234Y-162811928D01*
X96944255Y-162800183D01*
X96944937Y-162787837D01*
X96941845Y-162763095D01*
X96932834Y-162741666D01*
X96918298Y-162723273D01*
X96898631Y-162707640D01*
X96874229Y-162694489D01*
X96845486Y-162683543D01*
X96812796Y-162674525D01*
X96776554Y-162667158D01*
X96694994Y-162656269D01*
X96603962Y-162648659D01*
X96406112Y-162634412D01*
X96305609Y-162623341D01*
X96208262Y-162606683D01*
X96161760Y-162595566D01*
X96117231Y-162582221D01*
X96075069Y-162566372D01*
X96035670Y-162547740D01*
X95999429Y-162526049D01*
X95966739Y-162501022D01*
X95937995Y-162472382D01*
X95913593Y-162439852D01*
X95893926Y-162403154D01*
X95879390Y-162362011D01*
X95870379Y-162316147D01*
X95867288Y-162265285D01*
X95868401Y-162234243D01*
X95871683Y-162204886D01*
X95877043Y-162177168D01*
X95884393Y-162151042D01*
X95893642Y-162126463D01*
X95904702Y-162103384D01*
X95917483Y-162081761D01*
X95931896Y-162061547D01*
X95947851Y-162042697D01*
X95965260Y-162025165D01*
X95984032Y-162008904D01*
X96004079Y-161993869D01*
X96025312Y-161980014D01*
X96047640Y-161967294D01*
X96095226Y-161945073D01*
X96146124Y-161926839D01*
X96199619Y-161912226D01*
X96254996Y-161900867D01*
X96311540Y-161892396D01*
X96368536Y-161886445D01*
X96425271Y-161882649D01*
X96481029Y-161880640D01*
X96535096Y-161880052D01*
X96582655Y-161880479D01*
G37*
X96582655Y-161880479D02*
X96629558Y-161881710D01*
X96675614Y-161883667D01*
X96720631Y-161886273D01*
X96806787Y-161893125D01*
X96886496Y-161901648D01*
X96958231Y-161911225D01*
X97020462Y-161921240D01*
X97071661Y-161931074D01*
X97110300Y-161940112D01*
X97097865Y-162167654D01*
X97052697Y-162155729D01*
X97001780Y-162144540D01*
X96945195Y-162134349D01*
X96883024Y-162125420D01*
X96815345Y-162118016D01*
X96742240Y-162112401D01*
X96663790Y-162108839D01*
X96580075Y-162107593D01*
X96538827Y-162107905D01*
X96497853Y-162108913D01*
X96457482Y-162110720D01*
X96418043Y-162113435D01*
X96379866Y-162117161D01*
X96343280Y-162122006D01*
X96308615Y-162128075D01*
X96292106Y-162131602D01*
X96276201Y-162135474D01*
X96260940Y-162139705D01*
X96246366Y-162144308D01*
X96232519Y-162149296D01*
X96219440Y-162154683D01*
X96207171Y-162160482D01*
X96195753Y-162166706D01*
X96185227Y-162173368D01*
X96175634Y-162180482D01*
X96167015Y-162188060D01*
X96159412Y-162196116D01*
X96152866Y-162204664D01*
X96147417Y-162213715D01*
X96143108Y-162223285D01*
X96139979Y-162233385D01*
X96138071Y-162244029D01*
X96137426Y-162255231D01*
X96137428Y-162255231D01*
X96140513Y-162277959D01*
X96149506Y-162297559D01*
X96164014Y-162314302D01*
X96183641Y-162328460D01*
X96207995Y-162340305D01*
X96236682Y-162350106D01*
X96269306Y-162358137D01*
X96305476Y-162364669D01*
X96386872Y-162374320D01*
X96477719Y-162381232D01*
X96675161Y-162395526D01*
X96775453Y-162407252D01*
X96872590Y-162424926D01*
X96918991Y-162436672D01*
X96963422Y-162450720D01*
X97005488Y-162467341D01*
X97044796Y-162486807D01*
X97080952Y-162509389D01*
X97113562Y-162535359D01*
X97142232Y-162564987D01*
X97166568Y-162598546D01*
X97186176Y-162636307D01*
X97200663Y-162678542D01*
X97209634Y-162725522D01*
X97212695Y-162777518D01*
X97211615Y-162809262D01*
X97208425Y-162839334D01*
X97203195Y-162867778D01*
X97195999Y-162894639D01*
X97186906Y-162919959D01*
X97175991Y-162943781D01*
X97163323Y-162966150D01*
X97148976Y-162987110D01*
X97133020Y-163006702D01*
X97115529Y-163024971D01*
X97096573Y-163041961D01*
X97076224Y-163057715D01*
X97054555Y-163072276D01*
X97031637Y-163085688D01*
X96982342Y-163109240D01*
X96928914Y-163128717D01*
X96871928Y-163144467D01*
X96811958Y-163156840D01*
X96749579Y-163166183D01*
X96685367Y-163172844D01*
X96619895Y-163177170D01*
X96553739Y-163179511D01*
X96487473Y-163180214D01*
X96405787Y-163179298D01*
X96322687Y-163176605D01*
X96239116Y-163172219D01*
X96156016Y-163166224D01*
X96074330Y-163158704D01*
X95995000Y-163149741D01*
X95918970Y-163139421D01*
X95847181Y-163127826D01*
X95857235Y-162900285D01*
X95930830Y-162912650D01*
X96003678Y-162923357D01*
X96076221Y-162932408D01*
X96148905Y-162939807D01*
X96222171Y-162945556D01*
X96296463Y-162949659D01*
X96372226Y-162952118D01*
X96449901Y-162952937D01*
X96498321Y-162952565D01*
X96545845Y-162951377D01*
X96592165Y-162949264D01*
X96636974Y-162946116D01*
X96679964Y-162941823D01*
X96720829Y-162936277D01*
X96759260Y-162929369D01*
X96777467Y-162925370D01*
X96794951Y-162920988D01*
X96811673Y-162916212D01*
X96827594Y-162911027D01*
X96842676Y-162905419D01*
X96856882Y-162899374D01*
X96870171Y-162892880D01*
X96882507Y-162885922D01*
X96893850Y-162878487D01*
X96904162Y-162870561D01*
X96913405Y-162862130D01*
X96921540Y-162853181D01*
X96928529Y-162843700D01*
X96934333Y-162833673D01*
X96938914Y-162823087D01*
X96942234Y-162811928D01*
X96944255Y-162800183D01*
X96944937Y-162787837D01*
X96941845Y-162763095D01*
X96932834Y-162741666D01*
X96918298Y-162723273D01*
X96898631Y-162707640D01*
X96874229Y-162694489D01*
X96845486Y-162683543D01*
X96812796Y-162674525D01*
X96776554Y-162667158D01*
X96694994Y-162656269D01*
X96603962Y-162648659D01*
X96406112Y-162634412D01*
X96305609Y-162623341D01*
X96208262Y-162606683D01*
X96161760Y-162595566D01*
X96117231Y-162582221D01*
X96075069Y-162566372D01*
X96035670Y-162547740D01*
X95999429Y-162526049D01*
X95966739Y-162501022D01*
X95937995Y-162472382D01*
X95913593Y-162439852D01*
X95893926Y-162403154D01*
X95879390Y-162362011D01*
X95870379Y-162316147D01*
X95867288Y-162265285D01*
X95868401Y-162234243D01*
X95871683Y-162204886D01*
X95877043Y-162177168D01*
X95884393Y-162151042D01*
X95893642Y-162126463D01*
X95904702Y-162103384D01*
X95917483Y-162081761D01*
X95931896Y-162061547D01*
X95947851Y-162042697D01*
X95965260Y-162025165D01*
X95984032Y-162008904D01*
X96004079Y-161993869D01*
X96025312Y-161980014D01*
X96047640Y-161967294D01*
X96095226Y-161945073D01*
X96146124Y-161926839D01*
X96199619Y-161912226D01*
X96254996Y-161900867D01*
X96311540Y-161892396D01*
X96368536Y-161886445D01*
X96425271Y-161882649D01*
X96481029Y-161880640D01*
X96535096Y-161880052D01*
X96582655Y-161880479D01*
G36*
X93850187Y-162492419D02*
G01*
X93853575Y-162455685D01*
X93859154Y-162419946D01*
X93866870Y-162385215D01*
X93876669Y-162351506D01*
X93888495Y-162318835D01*
X93902296Y-162287215D01*
X93918016Y-162256661D01*
X93935600Y-162227187D01*
X93954994Y-162198806D01*
X93976144Y-162171534D01*
X93998995Y-162145384D01*
X94023493Y-162120371D01*
X94049582Y-162096509D01*
X94077210Y-162073813D01*
X94106320Y-162052295D01*
X94168772Y-162012856D01*
X94236503Y-161978306D01*
X94309076Y-161948759D01*
X94386055Y-161924328D01*
X94467004Y-161905128D01*
X94551488Y-161891273D01*
X94639070Y-161882876D01*
X94729314Y-161880052D01*
X94774975Y-161880760D01*
X94819995Y-161882876D01*
X94864321Y-161886385D01*
X94907900Y-161891273D01*
X94950680Y-161897525D01*
X94992607Y-161905128D01*
X95033628Y-161914067D01*
X95073690Y-161924328D01*
X95112740Y-161935897D01*
X95150725Y-161948759D01*
X95187593Y-161962900D01*
X95223289Y-161978306D01*
X95257761Y-161994963D01*
X95290955Y-162012856D01*
X95322820Y-162031972D01*
X95353301Y-162052295D01*
X95382346Y-162073813D01*
X95409901Y-162096509D01*
X95435914Y-162120371D01*
X95460331Y-162145384D01*
X95483100Y-162171534D01*
X95504168Y-162198806D01*
X95523480Y-162227187D01*
X95540985Y-162256661D01*
X95556630Y-162287215D01*
X95570360Y-162318835D01*
X95582124Y-162351506D01*
X95591868Y-162385215D01*
X95599538Y-162419946D01*
X95605083Y-162455685D01*
X95608449Y-162492419D01*
X95609583Y-162530133D01*
X95608448Y-162567404D01*
X95605080Y-162603752D01*
X95599532Y-162639159D01*
X95591857Y-162673608D01*
X95582107Y-162707082D01*
X95570337Y-162739564D01*
X95556600Y-162771037D01*
X95540948Y-162801484D01*
X95523435Y-162830888D01*
X95504114Y-162859232D01*
X95483039Y-162886499D01*
X95460262Y-162912672D01*
X95435836Y-162937734D01*
X95409815Y-162961669D01*
X95382253Y-162984458D01*
X95353202Y-163006085D01*
X95290845Y-163045786D01*
X95223172Y-163080634D01*
X95150608Y-163110494D01*
X95073578Y-163135231D01*
X94992509Y-163154707D01*
X94907824Y-163168787D01*
X94819951Y-163177335D01*
X94729314Y-163180214D01*
X94683887Y-163179492D01*
X94639070Y-163177337D01*
X94594919Y-163173767D01*
X94551488Y-163168798D01*
X94508832Y-163162446D01*
X94467004Y-163154730D01*
X94426061Y-163145665D01*
X94386055Y-163135268D01*
X94347042Y-163123557D01*
X94309076Y-163110548D01*
X94272211Y-163096258D01*
X94236503Y-163080704D01*
X94202005Y-163063903D01*
X94168772Y-163045871D01*
X94136859Y-163026626D01*
X94106320Y-163006184D01*
X94077210Y-162984563D01*
X94049582Y-162961779D01*
X94023493Y-162937848D01*
X93998995Y-162912789D01*
X93976144Y-162886617D01*
X93954994Y-162859349D01*
X93935600Y-162831003D01*
X93918016Y-162801595D01*
X93902296Y-162771143D01*
X93888495Y-162739662D01*
X93876669Y-162707170D01*
X93866870Y-162673684D01*
X93859154Y-162639220D01*
X93853575Y-162603796D01*
X93850187Y-162567428D01*
X93849054Y-162530397D01*
X94141675Y-162530397D01*
X94142396Y-162553805D01*
X94144539Y-162576643D01*
X94148077Y-162598900D01*
X94152980Y-162620565D01*
X94159221Y-162641626D01*
X94166771Y-162662073D01*
X94175601Y-162681892D01*
X94185683Y-162701074D01*
X94196988Y-162719607D01*
X94209489Y-162737480D01*
X94223156Y-162754680D01*
X94237962Y-162771197D01*
X94253878Y-162787019D01*
X94270874Y-162802135D01*
X94288924Y-162816534D01*
X94307999Y-162830203D01*
X94349107Y-162855311D01*
X94393972Y-162877366D01*
X94442366Y-162896278D01*
X94494063Y-162911956D01*
X94548833Y-162924308D01*
X94606450Y-162933244D01*
X94666686Y-162938672D01*
X94729314Y-162940502D01*
X94760913Y-162940042D01*
X94791942Y-162938672D01*
X94822374Y-162936402D01*
X94852179Y-162933244D01*
X94881329Y-162929209D01*
X94909796Y-162924308D01*
X94937551Y-162918553D01*
X94964566Y-162911956D01*
X94990813Y-162904527D01*
X95016262Y-162896278D01*
X95040886Y-162887221D01*
X95064657Y-162877366D01*
X95087544Y-162866726D01*
X95109522Y-162855311D01*
X95130560Y-162843133D01*
X95150630Y-162830203D01*
X95169704Y-162816534D01*
X95187754Y-162802135D01*
X95204751Y-162787019D01*
X95220666Y-162771197D01*
X95235472Y-162754680D01*
X95249140Y-162737480D01*
X95261640Y-162719607D01*
X95272946Y-162701074D01*
X95283028Y-162681892D01*
X95291858Y-162662073D01*
X95299408Y-162641626D01*
X95305648Y-162620565D01*
X95310552Y-162598900D01*
X95314089Y-162576643D01*
X95316233Y-162553805D01*
X95316953Y-162530397D01*
X95316233Y-162506571D01*
X95314089Y-162483367D01*
X95310552Y-162460795D01*
X95305648Y-162438863D01*
X95299408Y-162417579D01*
X95291858Y-162396954D01*
X95283028Y-162376995D01*
X95272946Y-162357711D01*
X95261640Y-162339112D01*
X95249140Y-162321205D01*
X95235472Y-162304000D01*
X95220666Y-162287505D01*
X95204751Y-162271730D01*
X95187754Y-162256682D01*
X95169704Y-162242371D01*
X95150630Y-162228806D01*
X95109522Y-162203946D01*
X95064657Y-162182173D01*
X95016262Y-162163558D01*
X94964566Y-162148170D01*
X94909796Y-162136079D01*
X94852179Y-162127356D01*
X94791942Y-162122071D01*
X94729314Y-162120293D01*
X94697715Y-162120739D01*
X94666686Y-162122071D01*
X94636255Y-162124279D01*
X94606450Y-162127356D01*
X94577300Y-162131292D01*
X94548833Y-162136079D01*
X94521078Y-162141708D01*
X94494063Y-162148170D01*
X94467816Y-162155456D01*
X94442366Y-162163558D01*
X94417742Y-162172467D01*
X94393972Y-162182173D01*
X94371084Y-162192669D01*
X94349107Y-162203946D01*
X94328069Y-162215994D01*
X94307999Y-162228806D01*
X94288924Y-162242371D01*
X94270874Y-162256682D01*
X94253878Y-162271730D01*
X94237962Y-162287505D01*
X94223156Y-162304000D01*
X94209489Y-162321205D01*
X94196988Y-162339112D01*
X94185683Y-162357711D01*
X94175601Y-162376995D01*
X94166771Y-162396954D01*
X94159221Y-162417579D01*
X94152980Y-162438863D01*
X94148077Y-162460795D01*
X94144539Y-162483367D01*
X94142396Y-162506571D01*
X94141675Y-162530397D01*
X93849054Y-162530397D01*
X93849046Y-162530133D01*
X93850187Y-162492419D01*
G37*
X93850187Y-162492419D02*
X93853575Y-162455685D01*
X93859154Y-162419946D01*
X93866870Y-162385215D01*
X93876669Y-162351506D01*
X93888495Y-162318835D01*
X93902296Y-162287215D01*
X93918016Y-162256661D01*
X93935600Y-162227187D01*
X93954994Y-162198806D01*
X93976144Y-162171534D01*
X93998995Y-162145384D01*
X94023493Y-162120371D01*
X94049582Y-162096509D01*
X94077210Y-162073813D01*
X94106320Y-162052295D01*
X94168772Y-162012856D01*
X94236503Y-161978306D01*
X94309076Y-161948759D01*
X94386055Y-161924328D01*
X94467004Y-161905128D01*
X94551488Y-161891273D01*
X94639070Y-161882876D01*
X94729314Y-161880052D01*
X94774975Y-161880760D01*
X94819995Y-161882876D01*
X94864321Y-161886385D01*
X94907900Y-161891273D01*
X94950680Y-161897525D01*
X94992607Y-161905128D01*
X95033628Y-161914067D01*
X95073690Y-161924328D01*
X95112740Y-161935897D01*
X95150725Y-161948759D01*
X95187593Y-161962900D01*
X95223289Y-161978306D01*
X95257761Y-161994963D01*
X95290955Y-162012856D01*
X95322820Y-162031972D01*
X95353301Y-162052295D01*
X95382346Y-162073813D01*
X95409901Y-162096509D01*
X95435914Y-162120371D01*
X95460331Y-162145384D01*
X95483100Y-162171534D01*
X95504168Y-162198806D01*
X95523480Y-162227187D01*
X95540985Y-162256661D01*
X95556630Y-162287215D01*
X95570360Y-162318835D01*
X95582124Y-162351506D01*
X95591868Y-162385215D01*
X95599538Y-162419946D01*
X95605083Y-162455685D01*
X95608449Y-162492419D01*
X95609583Y-162530133D01*
X95608448Y-162567404D01*
X95605080Y-162603752D01*
X95599532Y-162639159D01*
X95591857Y-162673608D01*
X95582107Y-162707082D01*
X95570337Y-162739564D01*
X95556600Y-162771037D01*
X95540948Y-162801484D01*
X95523435Y-162830888D01*
X95504114Y-162859232D01*
X95483039Y-162886499D01*
X95460262Y-162912672D01*
X95435836Y-162937734D01*
X95409815Y-162961669D01*
X95382253Y-162984458D01*
X95353202Y-163006085D01*
X95290845Y-163045786D01*
X95223172Y-163080634D01*
X95150608Y-163110494D01*
X95073578Y-163135231D01*
X94992509Y-163154707D01*
X94907824Y-163168787D01*
X94819951Y-163177335D01*
X94729314Y-163180214D01*
X94683887Y-163179492D01*
X94639070Y-163177337D01*
X94594919Y-163173767D01*
X94551488Y-163168798D01*
X94508832Y-163162446D01*
X94467004Y-163154730D01*
X94426061Y-163145665D01*
X94386055Y-163135268D01*
X94347042Y-163123557D01*
X94309076Y-163110548D01*
X94272211Y-163096258D01*
X94236503Y-163080704D01*
X94202005Y-163063903D01*
X94168772Y-163045871D01*
X94136859Y-163026626D01*
X94106320Y-163006184D01*
X94077210Y-162984563D01*
X94049582Y-162961779D01*
X94023493Y-162937848D01*
X93998995Y-162912789D01*
X93976144Y-162886617D01*
X93954994Y-162859349D01*
X93935600Y-162831003D01*
X93918016Y-162801595D01*
X93902296Y-162771143D01*
X93888495Y-162739662D01*
X93876669Y-162707170D01*
X93866870Y-162673684D01*
X93859154Y-162639220D01*
X93853575Y-162603796D01*
X93850187Y-162567428D01*
X93849054Y-162530397D01*
X94141675Y-162530397D01*
X94142396Y-162553805D01*
X94144539Y-162576643D01*
X94148077Y-162598900D01*
X94152980Y-162620565D01*
X94159221Y-162641626D01*
X94166771Y-162662073D01*
X94175601Y-162681892D01*
X94185683Y-162701074D01*
X94196988Y-162719607D01*
X94209489Y-162737480D01*
X94223156Y-162754680D01*
X94237962Y-162771197D01*
X94253878Y-162787019D01*
X94270874Y-162802135D01*
X94288924Y-162816534D01*
X94307999Y-162830203D01*
X94349107Y-162855311D01*
X94393972Y-162877366D01*
X94442366Y-162896278D01*
X94494063Y-162911956D01*
X94548833Y-162924308D01*
X94606450Y-162933244D01*
X94666686Y-162938672D01*
X94729314Y-162940502D01*
X94760913Y-162940042D01*
X94791942Y-162938672D01*
X94822374Y-162936402D01*
X94852179Y-162933244D01*
X94881329Y-162929209D01*
X94909796Y-162924308D01*
X94937551Y-162918553D01*
X94964566Y-162911956D01*
X94990813Y-162904527D01*
X95016262Y-162896278D01*
X95040886Y-162887221D01*
X95064657Y-162877366D01*
X95087544Y-162866726D01*
X95109522Y-162855311D01*
X95130560Y-162843133D01*
X95150630Y-162830203D01*
X95169704Y-162816534D01*
X95187754Y-162802135D01*
X95204751Y-162787019D01*
X95220666Y-162771197D01*
X95235472Y-162754680D01*
X95249140Y-162737480D01*
X95261640Y-162719607D01*
X95272946Y-162701074D01*
X95283028Y-162681892D01*
X95291858Y-162662073D01*
X95299408Y-162641626D01*
X95305648Y-162620565D01*
X95310552Y-162598900D01*
X95314089Y-162576643D01*
X95316233Y-162553805D01*
X95316953Y-162530397D01*
X95316233Y-162506571D01*
X95314089Y-162483367D01*
X95310552Y-162460795D01*
X95305648Y-162438863D01*
X95299408Y-162417579D01*
X95291858Y-162396954D01*
X95283028Y-162376995D01*
X95272946Y-162357711D01*
X95261640Y-162339112D01*
X95249140Y-162321205D01*
X95235472Y-162304000D01*
X95220666Y-162287505D01*
X95204751Y-162271730D01*
X95187754Y-162256682D01*
X95169704Y-162242371D01*
X95150630Y-162228806D01*
X95109522Y-162203946D01*
X95064657Y-162182173D01*
X95016262Y-162163558D01*
X94964566Y-162148170D01*
X94909796Y-162136079D01*
X94852179Y-162127356D01*
X94791942Y-162122071D01*
X94729314Y-162120293D01*
X94697715Y-162120739D01*
X94666686Y-162122071D01*
X94636255Y-162124279D01*
X94606450Y-162127356D01*
X94577300Y-162131292D01*
X94548833Y-162136079D01*
X94521078Y-162141708D01*
X94494063Y-162148170D01*
X94467816Y-162155456D01*
X94442366Y-162163558D01*
X94417742Y-162172467D01*
X94393972Y-162182173D01*
X94371084Y-162192669D01*
X94349107Y-162203946D01*
X94328069Y-162215994D01*
X94307999Y-162228806D01*
X94288924Y-162242371D01*
X94270874Y-162256682D01*
X94253878Y-162271730D01*
X94237962Y-162287505D01*
X94223156Y-162304000D01*
X94209489Y-162321205D01*
X94196988Y-162339112D01*
X94185683Y-162357711D01*
X94175601Y-162376995D01*
X94166771Y-162396954D01*
X94159221Y-162417579D01*
X94152980Y-162438863D01*
X94148077Y-162460795D01*
X94144539Y-162483367D01*
X94142396Y-162506571D01*
X94141675Y-162530397D01*
X93849054Y-162530397D01*
X93849046Y-162530133D01*
X93850187Y-162492419D01*
G36*
X101563934Y-161880228D02*
G01*
X101604745Y-161881553D01*
X101644689Y-161883765D01*
X101683800Y-161886869D01*
X101722109Y-161890867D01*
X101759649Y-161895763D01*
X101796452Y-161901560D01*
X101832550Y-161908263D01*
X101867975Y-161915874D01*
X101902759Y-161924397D01*
X101936935Y-161933835D01*
X101970534Y-161944192D01*
X102003590Y-161955472D01*
X102036133Y-161967678D01*
X102068197Y-161980813D01*
X102099812Y-161994881D01*
X102099812Y-162252585D01*
X102075895Y-162239123D01*
X102050206Y-162225973D01*
X102022787Y-162213212D01*
X101993677Y-162200917D01*
X101962916Y-162189164D01*
X101930543Y-162178031D01*
X101896600Y-162167594D01*
X101861125Y-162157930D01*
X101824158Y-162149116D01*
X101785741Y-162141227D01*
X101745911Y-162134342D01*
X101704710Y-162128537D01*
X101662178Y-162123888D01*
X101618353Y-162120472D01*
X101573277Y-162118366D01*
X101526988Y-162117647D01*
X101491113Y-162118100D01*
X101456174Y-162119452D01*
X101422183Y-162121692D01*
X101389155Y-162124812D01*
X101357103Y-162128802D01*
X101326039Y-162133653D01*
X101295978Y-162139354D01*
X101266933Y-162145896D01*
X101238916Y-162153269D01*
X101211942Y-162161464D01*
X101186024Y-162170471D01*
X101161175Y-162180281D01*
X101137407Y-162190883D01*
X101114736Y-162202269D01*
X101093173Y-162214428D01*
X101072733Y-162227350D01*
X101053428Y-162241027D01*
X101035273Y-162255449D01*
X101018279Y-162270605D01*
X101002461Y-162286487D01*
X100987832Y-162303085D01*
X100974405Y-162320388D01*
X100962193Y-162338388D01*
X100951211Y-162357075D01*
X100941470Y-162376438D01*
X100932985Y-162396470D01*
X100925769Y-162417158D01*
X100919835Y-162438496D01*
X100915197Y-162460471D01*
X100911867Y-162483076D01*
X100909860Y-162506299D01*
X100909187Y-162530133D01*
X100909852Y-162553990D01*
X100911840Y-162577237D01*
X100915140Y-162599862D01*
X100919741Y-162621857D01*
X100925634Y-162643213D01*
X100932808Y-162663919D01*
X100941251Y-162683966D01*
X100950954Y-162703344D01*
X100961907Y-162722044D01*
X100974098Y-162740056D01*
X100987517Y-162757371D01*
X101002154Y-162773978D01*
X101017998Y-162789869D01*
X101035038Y-162805034D01*
X101053265Y-162819463D01*
X101072667Y-162833147D01*
X101114956Y-162858239D01*
X101161821Y-162880235D01*
X101213177Y-162899058D01*
X101268942Y-162914630D01*
X101329031Y-162926876D01*
X101393359Y-162935717D01*
X101461843Y-162941079D01*
X101534398Y-162942883D01*
X101578664Y-162942249D01*
X101622285Y-162940396D01*
X101665145Y-162937392D01*
X101707125Y-162933308D01*
X101748108Y-162928213D01*
X101787977Y-162922177D01*
X101826615Y-162915270D01*
X101863903Y-162907561D01*
X101899725Y-162899120D01*
X101933962Y-162890018D01*
X101966499Y-162880323D01*
X101997216Y-162870106D01*
X102025997Y-162859436D01*
X102052724Y-162848383D01*
X102077280Y-162837017D01*
X102099547Y-162825408D01*
X102099547Y-163068295D01*
X102067905Y-163081897D01*
X102035770Y-163094625D01*
X102003121Y-163106477D01*
X101969934Y-163117454D01*
X101936190Y-163127555D01*
X101901866Y-163136779D01*
X101866941Y-163145127D01*
X101831392Y-163152598D01*
X101795198Y-163159191D01*
X101758338Y-163164907D01*
X101720789Y-163169744D01*
X101682530Y-163173703D01*
X101643540Y-163176782D01*
X101603796Y-163178983D01*
X101563278Y-163180303D01*
X101521962Y-163180743D01*
X101470318Y-163180063D01*
X101419928Y-163178029D01*
X101370817Y-163174650D01*
X101323012Y-163169934D01*
X101276538Y-163163890D01*
X101231419Y-163156527D01*
X101187680Y-163147853D01*
X101145348Y-163137877D01*
X101104447Y-163126607D01*
X101065003Y-163114053D01*
X101027040Y-163100223D01*
X100990585Y-163085126D01*
X100955661Y-163068770D01*
X100922296Y-163051164D01*
X100890513Y-163032317D01*
X100860338Y-163012237D01*
X100831796Y-162990933D01*
X100804913Y-162968414D01*
X100779713Y-162944688D01*
X100756222Y-162919764D01*
X100734466Y-162893651D01*
X100714469Y-162866358D01*
X100696257Y-162837892D01*
X100679854Y-162808264D01*
X100665287Y-162777480D01*
X100652580Y-162745551D01*
X100641759Y-162712485D01*
X100632849Y-162678290D01*
X100625875Y-162642975D01*
X100620862Y-162606549D01*
X100617836Y-162569020D01*
X100616821Y-162530397D01*
X100616823Y-162530397D01*
X100617837Y-162491775D01*
X100620864Y-162454246D01*
X100625876Y-162417820D01*
X100632851Y-162382505D01*
X100641762Y-162348309D01*
X100652584Y-162315242D01*
X100665291Y-162283312D01*
X100679860Y-162252527D01*
X100696264Y-162222896D01*
X100714478Y-162194429D01*
X100734478Y-162167133D01*
X100756237Y-162141016D01*
X100779732Y-162116089D01*
X100804936Y-162092359D01*
X100831824Y-162069835D01*
X100860371Y-162048525D01*
X100890553Y-162028438D01*
X100922343Y-162009584D01*
X100955717Y-161991970D01*
X100990650Y-161975604D01*
X101065089Y-161946656D01*
X101145460Y-161922807D01*
X101231560Y-161904126D01*
X101323189Y-161890683D01*
X101420145Y-161882547D01*
X101522226Y-161879787D01*
X101563934Y-161880228D01*
G37*
X101563934Y-161880228D02*
X101604745Y-161881553D01*
X101644689Y-161883765D01*
X101683800Y-161886869D01*
X101722109Y-161890867D01*
X101759649Y-161895763D01*
X101796452Y-161901560D01*
X101832550Y-161908263D01*
X101867975Y-161915874D01*
X101902759Y-161924397D01*
X101936935Y-161933835D01*
X101970534Y-161944192D01*
X102003590Y-161955472D01*
X102036133Y-161967678D01*
X102068197Y-161980813D01*
X102099812Y-161994881D01*
X102099812Y-162252585D01*
X102075895Y-162239123D01*
X102050206Y-162225973D01*
X102022787Y-162213212D01*
X101993677Y-162200917D01*
X101962916Y-162189164D01*
X101930543Y-162178031D01*
X101896600Y-162167594D01*
X101861125Y-162157930D01*
X101824158Y-162149116D01*
X101785741Y-162141227D01*
X101745911Y-162134342D01*
X101704710Y-162128537D01*
X101662178Y-162123888D01*
X101618353Y-162120472D01*
X101573277Y-162118366D01*
X101526988Y-162117647D01*
X101491113Y-162118100D01*
X101456174Y-162119452D01*
X101422183Y-162121692D01*
X101389155Y-162124812D01*
X101357103Y-162128802D01*
X101326039Y-162133653D01*
X101295978Y-162139354D01*
X101266933Y-162145896D01*
X101238916Y-162153269D01*
X101211942Y-162161464D01*
X101186024Y-162170471D01*
X101161175Y-162180281D01*
X101137407Y-162190883D01*
X101114736Y-162202269D01*
X101093173Y-162214428D01*
X101072733Y-162227350D01*
X101053428Y-162241027D01*
X101035273Y-162255449D01*
X101018279Y-162270605D01*
X101002461Y-162286487D01*
X100987832Y-162303085D01*
X100974405Y-162320388D01*
X100962193Y-162338388D01*
X100951211Y-162357075D01*
X100941470Y-162376438D01*
X100932985Y-162396470D01*
X100925769Y-162417158D01*
X100919835Y-162438496D01*
X100915197Y-162460471D01*
X100911867Y-162483076D01*
X100909860Y-162506299D01*
X100909187Y-162530133D01*
X100909852Y-162553990D01*
X100911840Y-162577237D01*
X100915140Y-162599862D01*
X100919741Y-162621857D01*
X100925634Y-162643213D01*
X100932808Y-162663919D01*
X100941251Y-162683966D01*
X100950954Y-162703344D01*
X100961907Y-162722044D01*
X100974098Y-162740056D01*
X100987517Y-162757371D01*
X101002154Y-162773978D01*
X101017998Y-162789869D01*
X101035038Y-162805034D01*
X101053265Y-162819463D01*
X101072667Y-162833147D01*
X101114956Y-162858239D01*
X101161821Y-162880235D01*
X101213177Y-162899058D01*
X101268942Y-162914630D01*
X101329031Y-162926876D01*
X101393359Y-162935717D01*
X101461843Y-162941079D01*
X101534398Y-162942883D01*
X101578664Y-162942249D01*
X101622285Y-162940396D01*
X101665145Y-162937392D01*
X101707125Y-162933308D01*
X101748108Y-162928213D01*
X101787977Y-162922177D01*
X101826615Y-162915270D01*
X101863903Y-162907561D01*
X101899725Y-162899120D01*
X101933962Y-162890018D01*
X101966499Y-162880323D01*
X101997216Y-162870106D01*
X102025997Y-162859436D01*
X102052724Y-162848383D01*
X102077280Y-162837017D01*
X102099547Y-162825408D01*
X102099547Y-163068295D01*
X102067905Y-163081897D01*
X102035770Y-163094625D01*
X102003121Y-163106477D01*
X101969934Y-163117454D01*
X101936190Y-163127555D01*
X101901866Y-163136779D01*
X101866941Y-163145127D01*
X101831392Y-163152598D01*
X101795198Y-163159191D01*
X101758338Y-163164907D01*
X101720789Y-163169744D01*
X101682530Y-163173703D01*
X101643540Y-163176782D01*
X101603796Y-163178983D01*
X101563278Y-163180303D01*
X101521962Y-163180743D01*
X101470318Y-163180063D01*
X101419928Y-163178029D01*
X101370817Y-163174650D01*
X101323012Y-163169934D01*
X101276538Y-163163890D01*
X101231419Y-163156527D01*
X101187680Y-163147853D01*
X101145348Y-163137877D01*
X101104447Y-163126607D01*
X101065003Y-163114053D01*
X101027040Y-163100223D01*
X100990585Y-163085126D01*
X100955661Y-163068770D01*
X100922296Y-163051164D01*
X100890513Y-163032317D01*
X100860338Y-163012237D01*
X100831796Y-162990933D01*
X100804913Y-162968414D01*
X100779713Y-162944688D01*
X100756222Y-162919764D01*
X100734466Y-162893651D01*
X100714469Y-162866358D01*
X100696257Y-162837892D01*
X100679854Y-162808264D01*
X100665287Y-162777480D01*
X100652580Y-162745551D01*
X100641759Y-162712485D01*
X100632849Y-162678290D01*
X100625875Y-162642975D01*
X100620862Y-162606549D01*
X100617836Y-162569020D01*
X100616821Y-162530397D01*
X100616823Y-162530397D01*
X100617837Y-162491775D01*
X100620864Y-162454246D01*
X100625876Y-162417820D01*
X100632851Y-162382505D01*
X100641762Y-162348309D01*
X100652584Y-162315242D01*
X100665291Y-162283312D01*
X100679860Y-162252527D01*
X100696264Y-162222896D01*
X100714478Y-162194429D01*
X100734478Y-162167133D01*
X100756237Y-162141016D01*
X100779732Y-162116089D01*
X100804936Y-162092359D01*
X100831824Y-162069835D01*
X100860371Y-162048525D01*
X100890553Y-162028438D01*
X100922343Y-162009584D01*
X100955717Y-161991970D01*
X100990650Y-161975604D01*
X101065089Y-161946656D01*
X101145460Y-161922807D01*
X101231560Y-161904126D01*
X101323189Y-161890683D01*
X101420145Y-161882547D01*
X101522226Y-161879787D01*
X101563934Y-161880228D01*
G36*
X95739758Y-165695079D02*
G01*
X95434693Y-165695079D01*
X95294464Y-165482618D01*
X94608928Y-165482618D01*
X94755243Y-165260104D01*
X95149473Y-165260104D01*
X94869543Y-164832272D01*
X94304394Y-165695079D01*
X93999064Y-165695079D01*
X94869543Y-164419787D01*
X95739758Y-165695079D01*
G37*
X95739758Y-165695079D02*
X95434693Y-165695079D01*
X95294464Y-165482618D01*
X94608928Y-165482618D01*
X94755243Y-165260104D01*
X95149473Y-165260104D01*
X94869543Y-164832272D01*
X94304394Y-165695079D01*
X93999064Y-165695079D01*
X94869543Y-164419787D01*
X95739758Y-165695079D01*
G36*
X99051018Y-164657383D02*
G01*
X98055656Y-164657383D01*
X98055656Y-164962447D01*
X98871102Y-164962447D01*
X98871102Y-165160091D01*
X98055656Y-165160091D01*
X98055656Y-165479972D01*
X99051018Y-165479972D01*
X99051018Y-165695079D01*
X97783135Y-165695079D01*
X97783135Y-164439631D01*
X99051018Y-164439631D01*
X99051018Y-164657383D01*
G37*
X99051018Y-164657383D02*
X98055656Y-164657383D01*
X98055656Y-164962447D01*
X98871102Y-164962447D01*
X98871102Y-165160091D01*
X98055656Y-165160091D01*
X98055656Y-165479972D01*
X99051018Y-165479972D01*
X99051018Y-165695079D01*
X97783135Y-165695079D01*
X97783135Y-164439631D01*
X99051018Y-164439631D01*
X99051018Y-164657383D01*
G36*
X93026192Y-165460129D02*
G01*
X93941385Y-165460129D01*
X93941385Y-165695079D01*
X92753670Y-165695079D01*
X92753670Y-164439631D01*
X93026192Y-164439631D01*
X93026192Y-165460129D01*
G37*
X93026192Y-165460129D02*
X93941385Y-165460129D01*
X93941385Y-165695079D01*
X92753670Y-165695079D01*
X92753670Y-164439631D01*
X93026192Y-164439631D01*
X93026192Y-165460129D01*
G36*
X91565691Y-165460129D02*
G01*
X92480885Y-165460129D01*
X92480885Y-165695079D01*
X91292906Y-165695079D01*
X91292906Y-164439631D01*
X91565691Y-164439631D01*
X91565691Y-165460129D01*
G37*
X91565691Y-165460129D02*
X92480885Y-165460129D01*
X92480885Y-165695079D01*
X91292906Y-165695079D01*
X91292906Y-164439631D01*
X91565691Y-164439631D01*
X91565691Y-165460129D01*
G36*
X90867721Y-165695079D02*
G01*
X90595200Y-165695079D01*
X90595200Y-164439631D01*
X90867721Y-164439631D01*
X90867721Y-165695079D01*
G37*
X90867721Y-165695079D02*
X90595200Y-165695079D01*
X90595200Y-164439631D01*
X90867721Y-164439631D01*
X90867721Y-165695079D01*
G36*
X96689526Y-164420105D02*
G01*
X96733490Y-164421842D01*
X96777006Y-164424714D01*
X96820026Y-164428704D01*
X96862504Y-164433793D01*
X96904392Y-164439963D01*
X96945643Y-164447195D01*
X96986210Y-164455472D01*
X97026045Y-164464776D01*
X97065100Y-164475087D01*
X97103330Y-164486389D01*
X97140685Y-164498662D01*
X97177120Y-164511888D01*
X97212587Y-164526049D01*
X97247038Y-164541128D01*
X97280427Y-164557105D01*
X97280427Y-164799728D01*
X97213827Y-164769581D01*
X97144902Y-164741462D01*
X97109430Y-164728355D01*
X97073211Y-164715985D01*
X97036191Y-164704428D01*
X96998314Y-164693763D01*
X96959526Y-164684065D01*
X96919771Y-164675410D01*
X96878995Y-164667877D01*
X96837141Y-164661541D01*
X96794157Y-164656480D01*
X96749985Y-164652770D01*
X96704572Y-164650488D01*
X96657862Y-164649710D01*
X96609257Y-164650827D01*
X96559484Y-164654304D01*
X96509138Y-164660333D01*
X96458812Y-164669103D01*
X96409101Y-164680804D01*
X96384660Y-164687814D01*
X96360596Y-164695628D01*
X96336983Y-164704270D01*
X96313893Y-164713763D01*
X96291403Y-164724133D01*
X96269586Y-164735402D01*
X96248516Y-164747594D01*
X96228267Y-164760732D01*
X96208914Y-164774842D01*
X96190531Y-164789947D01*
X96173192Y-164806069D01*
X96156971Y-164823234D01*
X96141943Y-164841465D01*
X96128182Y-164860785D01*
X96115762Y-164881219D01*
X96104757Y-164902790D01*
X96095241Y-164925523D01*
X96087290Y-164949440D01*
X96080975Y-164974566D01*
X96076374Y-165000924D01*
X96073558Y-165028538D01*
X96072603Y-165057433D01*
X96073323Y-165082187D01*
X96075463Y-165106289D01*
X96078994Y-165129731D01*
X96083888Y-165152502D01*
X96090113Y-165174595D01*
X96097643Y-165196001D01*
X96106446Y-165216711D01*
X96116495Y-165236717D01*
X96127759Y-165256008D01*
X96140210Y-165274578D01*
X96153819Y-165292416D01*
X96168555Y-165309515D01*
X96184391Y-165325865D01*
X96201296Y-165341457D01*
X96219242Y-165356284D01*
X96238199Y-165370335D01*
X96258138Y-165383603D01*
X96279030Y-165396078D01*
X96323557Y-165418617D01*
X96371544Y-165437880D01*
X96422758Y-165453799D01*
X96476967Y-165466302D01*
X96533935Y-165475319D01*
X96593429Y-165480781D01*
X96655216Y-165482618D01*
X96692370Y-165481922D01*
X96730495Y-165479758D01*
X96769273Y-165476009D01*
X96808385Y-165470558D01*
X96847513Y-165463289D01*
X96886337Y-165454084D01*
X96924540Y-165442828D01*
X96961802Y-165429403D01*
X96979981Y-165421841D01*
X96997806Y-165413693D01*
X97015236Y-165404945D01*
X97032232Y-165395582D01*
X97048754Y-165385589D01*
X97064762Y-165374951D01*
X97080217Y-165363655D01*
X97095078Y-165351686D01*
X97109306Y-165339029D01*
X97122861Y-165325669D01*
X97135702Y-165311592D01*
X97147791Y-165296784D01*
X97159088Y-165281229D01*
X97169552Y-165264913D01*
X97179143Y-165247822D01*
X97187823Y-165229941D01*
X96755228Y-165229941D01*
X96755228Y-165027270D01*
X97492887Y-165027270D01*
X97493000Y-165035399D01*
X97493300Y-165043095D01*
X97494209Y-165058226D01*
X97494695Y-165066182D01*
X97495118Y-165074746D01*
X97495418Y-165084178D01*
X97495532Y-165094739D01*
X97494363Y-165132405D01*
X97490899Y-165168951D01*
X97485204Y-165204372D01*
X97477344Y-165238664D01*
X97467383Y-165271821D01*
X97455385Y-165303839D01*
X97441415Y-165334712D01*
X97425537Y-165364436D01*
X97407817Y-165393005D01*
X97388318Y-165420414D01*
X97367105Y-165446659D01*
X97344243Y-165471734D01*
X97319797Y-165495635D01*
X97293831Y-165518356D01*
X97266409Y-165539893D01*
X97237596Y-165560240D01*
X97176057Y-165597346D01*
X97109729Y-165629633D01*
X97039129Y-165657063D01*
X96964774Y-165679596D01*
X96887180Y-165697190D01*
X96806865Y-165709807D01*
X96724344Y-165717407D01*
X96640135Y-165719949D01*
X96597418Y-165719269D01*
X96555087Y-165717234D01*
X96513203Y-165713852D01*
X96471832Y-165709130D01*
X96431036Y-165703078D01*
X96390880Y-165695701D01*
X96351427Y-165687009D01*
X96312741Y-165677008D01*
X96274886Y-165665707D01*
X96237925Y-165653114D01*
X96201921Y-165639235D01*
X96166940Y-165624080D01*
X96133044Y-165607656D01*
X96100297Y-165589971D01*
X96068762Y-165571032D01*
X96038505Y-165550847D01*
X96009587Y-165529425D01*
X95982074Y-165506772D01*
X95956028Y-165482897D01*
X95931513Y-165457808D01*
X95908594Y-165431511D01*
X95887333Y-165404016D01*
X95867795Y-165375330D01*
X95850043Y-165345460D01*
X95834141Y-165314415D01*
X95820152Y-165282203D01*
X95808141Y-165248830D01*
X95798171Y-165214305D01*
X95790305Y-165178636D01*
X95784608Y-165141831D01*
X95781143Y-165103896D01*
X95779974Y-165064841D01*
X95781214Y-165024045D01*
X95784882Y-164984648D01*
X95790903Y-164946643D01*
X95799201Y-164910024D01*
X95809697Y-164874784D01*
X95822317Y-164840916D01*
X95836983Y-164808413D01*
X95853619Y-164777268D01*
X95872149Y-164747475D01*
X95892496Y-164719026D01*
X95914584Y-164691915D01*
X95938336Y-164666135D01*
X95963676Y-164641679D01*
X95990528Y-164618541D01*
X96018815Y-164596713D01*
X96048460Y-164576189D01*
X96111520Y-164539024D01*
X96179097Y-164506991D01*
X96250579Y-164480037D01*
X96325355Y-164458106D01*
X96402812Y-164441144D01*
X96482340Y-164429095D01*
X96563327Y-164421906D01*
X96645162Y-164419522D01*
X96689526Y-164420105D01*
G37*
X96689526Y-164420105D02*
X96733490Y-164421842D01*
X96777006Y-164424714D01*
X96820026Y-164428704D01*
X96862504Y-164433793D01*
X96904392Y-164439963D01*
X96945643Y-164447195D01*
X96986210Y-164455472D01*
X97026045Y-164464776D01*
X97065100Y-164475087D01*
X97103330Y-164486389D01*
X97140685Y-164498662D01*
X97177120Y-164511888D01*
X97212587Y-164526049D01*
X97247038Y-164541128D01*
X97280427Y-164557105D01*
X97280427Y-164799728D01*
X97213827Y-164769581D01*
X97144902Y-164741462D01*
X97109430Y-164728355D01*
X97073211Y-164715985D01*
X97036191Y-164704428D01*
X96998314Y-164693763D01*
X96959526Y-164684065D01*
X96919771Y-164675410D01*
X96878995Y-164667877D01*
X96837141Y-164661541D01*
X96794157Y-164656480D01*
X96749985Y-164652770D01*
X96704572Y-164650488D01*
X96657862Y-164649710D01*
X96609257Y-164650827D01*
X96559484Y-164654304D01*
X96509138Y-164660333D01*
X96458812Y-164669103D01*
X96409101Y-164680804D01*
X96384660Y-164687814D01*
X96360596Y-164695628D01*
X96336983Y-164704270D01*
X96313893Y-164713763D01*
X96291403Y-164724133D01*
X96269586Y-164735402D01*
X96248516Y-164747594D01*
X96228267Y-164760732D01*
X96208914Y-164774842D01*
X96190531Y-164789947D01*
X96173192Y-164806069D01*
X96156971Y-164823234D01*
X96141943Y-164841465D01*
X96128182Y-164860785D01*
X96115762Y-164881219D01*
X96104757Y-164902790D01*
X96095241Y-164925523D01*
X96087290Y-164949440D01*
X96080975Y-164974566D01*
X96076374Y-165000924D01*
X96073558Y-165028538D01*
X96072603Y-165057433D01*
X96073323Y-165082187D01*
X96075463Y-165106289D01*
X96078994Y-165129731D01*
X96083888Y-165152502D01*
X96090113Y-165174595D01*
X96097643Y-165196001D01*
X96106446Y-165216711D01*
X96116495Y-165236717D01*
X96127759Y-165256008D01*
X96140210Y-165274578D01*
X96153819Y-165292416D01*
X96168555Y-165309515D01*
X96184391Y-165325865D01*
X96201296Y-165341457D01*
X96219242Y-165356284D01*
X96238199Y-165370335D01*
X96258138Y-165383603D01*
X96279030Y-165396078D01*
X96323557Y-165418617D01*
X96371544Y-165437880D01*
X96422758Y-165453799D01*
X96476967Y-165466302D01*
X96533935Y-165475319D01*
X96593429Y-165480781D01*
X96655216Y-165482618D01*
X96692370Y-165481922D01*
X96730495Y-165479758D01*
X96769273Y-165476009D01*
X96808385Y-165470558D01*
X96847513Y-165463289D01*
X96886337Y-165454084D01*
X96924540Y-165442828D01*
X96961802Y-165429403D01*
X96979981Y-165421841D01*
X96997806Y-165413693D01*
X97015236Y-165404945D01*
X97032232Y-165395582D01*
X97048754Y-165385589D01*
X97064762Y-165374951D01*
X97080217Y-165363655D01*
X97095078Y-165351686D01*
X97109306Y-165339029D01*
X97122861Y-165325669D01*
X97135702Y-165311592D01*
X97147791Y-165296784D01*
X97159088Y-165281229D01*
X97169552Y-165264913D01*
X97179143Y-165247822D01*
X97187823Y-165229941D01*
X96755228Y-165229941D01*
X96755228Y-165027270D01*
X97492887Y-165027270D01*
X97493000Y-165035399D01*
X97493300Y-165043095D01*
X97494209Y-165058226D01*
X97494695Y-165066182D01*
X97495118Y-165074746D01*
X97495418Y-165084178D01*
X97495532Y-165094739D01*
X97494363Y-165132405D01*
X97490899Y-165168951D01*
X97485204Y-165204372D01*
X97477344Y-165238664D01*
X97467383Y-165271821D01*
X97455385Y-165303839D01*
X97441415Y-165334712D01*
X97425537Y-165364436D01*
X97407817Y-165393005D01*
X97388318Y-165420414D01*
X97367105Y-165446659D01*
X97344243Y-165471734D01*
X97319797Y-165495635D01*
X97293831Y-165518356D01*
X97266409Y-165539893D01*
X97237596Y-165560240D01*
X97176057Y-165597346D01*
X97109729Y-165629633D01*
X97039129Y-165657063D01*
X96964774Y-165679596D01*
X96887180Y-165697190D01*
X96806865Y-165709807D01*
X96724344Y-165717407D01*
X96640135Y-165719949D01*
X96597418Y-165719269D01*
X96555087Y-165717234D01*
X96513203Y-165713852D01*
X96471832Y-165709130D01*
X96431036Y-165703078D01*
X96390880Y-165695701D01*
X96351427Y-165687009D01*
X96312741Y-165677008D01*
X96274886Y-165665707D01*
X96237925Y-165653114D01*
X96201921Y-165639235D01*
X96166940Y-165624080D01*
X96133044Y-165607656D01*
X96100297Y-165589971D01*
X96068762Y-165571032D01*
X96038505Y-165550847D01*
X96009587Y-165529425D01*
X95982074Y-165506772D01*
X95956028Y-165482897D01*
X95931513Y-165457808D01*
X95908594Y-165431511D01*
X95887333Y-165404016D01*
X95867795Y-165375330D01*
X95850043Y-165345460D01*
X95834141Y-165314415D01*
X95820152Y-165282203D01*
X95808141Y-165248830D01*
X95798171Y-165214305D01*
X95790305Y-165178636D01*
X95784608Y-165141831D01*
X95781143Y-165103896D01*
X95779974Y-165064841D01*
X95781214Y-165024045D01*
X95784882Y-164984648D01*
X95790903Y-164946643D01*
X95799201Y-164910024D01*
X95809697Y-164874784D01*
X95822317Y-164840916D01*
X95836983Y-164808413D01*
X95853619Y-164777268D01*
X95872149Y-164747475D01*
X95892496Y-164719026D01*
X95914584Y-164691915D01*
X95938336Y-164666135D01*
X95963676Y-164641679D01*
X95990528Y-164618541D01*
X96018815Y-164596713D01*
X96048460Y-164576189D01*
X96111520Y-164539024D01*
X96179097Y-164506991D01*
X96250579Y-164480037D01*
X96325355Y-164458106D01*
X96402812Y-164441144D01*
X96482340Y-164429095D01*
X96563327Y-164421906D01*
X96645162Y-164419522D01*
X96689526Y-164420105D01*
G36*
X89534750Y-165290002D02*
G01*
X90064975Y-164439631D01*
X90385121Y-164439631D01*
X89534750Y-165720214D01*
X88689406Y-164439631D01*
X89012198Y-164439631D01*
X89534750Y-165290002D01*
G37*
X89534750Y-165290002D02*
X90064975Y-164439631D01*
X90385121Y-164439631D01*
X89534750Y-165720214D01*
X88689406Y-164439631D01*
X89012198Y-164439631D01*
X89534750Y-165290002D01*
D12*
G36*
X69948956Y-158648015D02*
G01*
X69948896Y-158648102D01*
X69948898Y-158647916D01*
X69948956Y-158648015D01*
G37*
X69948956Y-158648015D02*
X69948896Y-158648102D01*
X69948898Y-158647916D01*
X69948956Y-158648015D01*
G36*
X75267357Y-150928415D02*
G01*
X76325122Y-150932763D01*
X77382887Y-150937112D01*
X77956405Y-154646253D01*
X78539056Y-158364400D01*
X78621018Y-158075763D01*
X78837431Y-157283215D01*
X79541979Y-154671128D01*
X80535768Y-150968858D01*
X81611021Y-150968858D01*
X82370418Y-150971061D01*
X82601429Y-150973446D01*
X82686273Y-150976358D01*
X81681021Y-154726548D01*
X80681013Y-158474480D01*
X81450036Y-157370359D01*
X82657196Y-155625432D01*
X84910398Y-155625432D01*
X85745669Y-155625432D01*
X86152332Y-155624213D01*
X86408587Y-155619977D01*
X86488900Y-155616456D01*
X86541919Y-155611854D01*
X86571079Y-155606063D01*
X86577785Y-155602687D01*
X86579815Y-155598973D01*
X86540393Y-155271532D01*
X86447187Y-154521432D01*
X86315681Y-153470345D01*
X86031158Y-153907597D01*
X85328519Y-154985142D01*
X84910398Y-155625432D01*
X82657196Y-155625432D01*
X83291600Y-154708413D01*
X85896942Y-150937104D01*
X86958607Y-150931604D01*
X87370766Y-150930739D01*
X87708163Y-150932448D01*
X87935989Y-150936378D01*
X87997935Y-150939066D01*
X88019436Y-150942178D01*
X88595531Y-154696332D01*
X89172462Y-158434418D01*
X89846403Y-157458584D01*
X91129548Y-155600883D01*
X93387391Y-155600883D01*
X93387924Y-155602715D01*
X93389625Y-155604460D01*
X93392551Y-155606120D01*
X93396758Y-155607697D01*
X93402301Y-155609191D01*
X93417624Y-155611944D01*
X93438969Y-155614392D01*
X93466784Y-155616550D01*
X93501520Y-155618433D01*
X93543625Y-155620056D01*
X93593549Y-155621433D01*
X93651742Y-155622579D01*
X93794729Y-155624235D01*
X93976181Y-155625144D01*
X94199692Y-155625420D01*
X95026440Y-155625420D01*
X95026440Y-155574273D01*
X94987236Y-155221776D01*
X94900248Y-154512891D01*
X94811410Y-153815108D01*
X94766657Y-153495915D01*
X94557819Y-153805882D01*
X94099403Y-154502284D01*
X93629943Y-155221264D01*
X93387970Y-155598962D01*
X93387391Y-155600883D01*
X91129548Y-155600883D01*
X92439323Y-153704625D01*
X94358303Y-150926500D01*
X96462408Y-150926500D01*
X96474262Y-150984708D01*
X97651104Y-158631394D01*
X97651024Y-158635166D01*
X97650887Y-158636965D01*
X97650653Y-158638706D01*
X97650297Y-158640391D01*
X97649795Y-158642021D01*
X97649121Y-158643596D01*
X97648252Y-158645118D01*
X97647163Y-158646588D01*
X97645830Y-158648006D01*
X97644227Y-158649373D01*
X97642330Y-158650690D01*
X97640115Y-158651959D01*
X97637557Y-158653180D01*
X97634632Y-158654353D01*
X97631314Y-158655481D01*
X97627580Y-158656564D01*
X97623405Y-158657602D01*
X97618764Y-158658597D01*
X97613633Y-158659549D01*
X97607987Y-158660460D01*
X97601802Y-158661331D01*
X97595053Y-158662162D01*
X97587715Y-158662954D01*
X97579764Y-158663709D01*
X97571176Y-158664426D01*
X97551988Y-158665755D01*
X97529954Y-158666947D01*
X97504879Y-158668010D01*
X97476566Y-158668951D01*
X97444818Y-158669779D01*
X97409439Y-158670499D01*
X97370232Y-158671120D01*
X97327001Y-158671649D01*
X97279550Y-158672094D01*
X97227681Y-158672461D01*
X97171199Y-158672758D01*
X97043608Y-158673171D01*
X96895205Y-158673394D01*
X96529674Y-158673501D01*
X95408243Y-158673501D01*
X95397589Y-158625874D01*
X95393911Y-158604644D01*
X95387508Y-158562289D01*
X95367937Y-158424362D01*
X95341697Y-158232411D01*
X95311609Y-158006749D01*
X95254878Y-157582921D01*
X95224256Y-157366460D01*
X95212227Y-157297665D01*
X92282047Y-157297665D01*
X91355701Y-158673497D01*
X89148239Y-158673497D01*
X87589408Y-158668832D01*
X87115356Y-158663783D01*
X86941427Y-158657620D01*
X86934579Y-158598419D01*
X86915450Y-158448957D01*
X86852076Y-157969563D01*
X86762073Y-157297379D01*
X85290380Y-157302804D01*
X83818689Y-157308228D01*
X83363606Y-157990018D01*
X82908524Y-158671803D01*
X79611814Y-158672555D01*
X77283514Y-158669238D01*
X76315106Y-158660054D01*
X76228594Y-158008716D01*
X76134514Y-157345193D01*
X76123801Y-157297566D01*
X74658413Y-157298318D01*
X73193025Y-157299069D01*
X72731523Y-157986218D01*
X72270023Y-158673367D01*
X71105219Y-158673367D01*
X70544844Y-158672150D01*
X70187913Y-158668001D01*
X70075154Y-158664594D01*
X70000554Y-158660172D01*
X69959880Y-158654644D01*
X69950942Y-158651436D01*
X69948956Y-158648015D01*
X70734790Y-157500035D01*
X72026670Y-155625424D01*
X74282081Y-155625424D01*
X75959864Y-155625424D01*
X75948876Y-155577798D01*
X75935029Y-155479973D01*
X75905449Y-155248823D01*
X75816466Y-154524758D01*
X75726963Y-153810641D01*
X75696819Y-153590258D01*
X75687325Y-153528867D01*
X75682283Y-153505582D01*
X75672149Y-153516352D01*
X75646348Y-153551406D01*
X75552906Y-153686573D01*
X75234740Y-154162602D01*
X74810267Y-154809001D01*
X74361969Y-155501103D01*
X74282081Y-155625424D01*
X72026670Y-155625424D01*
X72612369Y-154775533D01*
X75267357Y-150928415D01*
G37*
X75267357Y-150928415D02*
X76325122Y-150932763D01*
X77382887Y-150937112D01*
X77956405Y-154646253D01*
X78539056Y-158364400D01*
X78621018Y-158075763D01*
X78837431Y-157283215D01*
X79541979Y-154671128D01*
X80535768Y-150968858D01*
X81611021Y-150968858D01*
X82370418Y-150971061D01*
X82601429Y-150973446D01*
X82686273Y-150976358D01*
X81681021Y-154726548D01*
X80681013Y-158474480D01*
X81450036Y-157370359D01*
X82657196Y-155625432D01*
X84910398Y-155625432D01*
X85745669Y-155625432D01*
X86152332Y-155624213D01*
X86408587Y-155619977D01*
X86488900Y-155616456D01*
X86541919Y-155611854D01*
X86571079Y-155606063D01*
X86577785Y-155602687D01*
X86579815Y-155598973D01*
X86540393Y-155271532D01*
X86447187Y-154521432D01*
X86315681Y-153470345D01*
X86031158Y-153907597D01*
X85328519Y-154985142D01*
X84910398Y-155625432D01*
X82657196Y-155625432D01*
X83291600Y-154708413D01*
X85896942Y-150937104D01*
X86958607Y-150931604D01*
X87370766Y-150930739D01*
X87708163Y-150932448D01*
X87935989Y-150936378D01*
X87997935Y-150939066D01*
X88019436Y-150942178D01*
X88595531Y-154696332D01*
X89172462Y-158434418D01*
X89846403Y-157458584D01*
X91129548Y-155600883D01*
X93387391Y-155600883D01*
X93387924Y-155602715D01*
X93389625Y-155604460D01*
X93392551Y-155606120D01*
X93396758Y-155607697D01*
X93402301Y-155609191D01*
X93417624Y-155611944D01*
X93438969Y-155614392D01*
X93466784Y-155616550D01*
X93501520Y-155618433D01*
X93543625Y-155620056D01*
X93593549Y-155621433D01*
X93651742Y-155622579D01*
X93794729Y-155624235D01*
X93976181Y-155625144D01*
X94199692Y-155625420D01*
X95026440Y-155625420D01*
X95026440Y-155574273D01*
X94987236Y-155221776D01*
X94900248Y-154512891D01*
X94811410Y-153815108D01*
X94766657Y-153495915D01*
X94557819Y-153805882D01*
X94099403Y-154502284D01*
X93629943Y-155221264D01*
X93387970Y-155598962D01*
X93387391Y-155600883D01*
X91129548Y-155600883D01*
X92439323Y-153704625D01*
X94358303Y-150926500D01*
X96462408Y-150926500D01*
X96474262Y-150984708D01*
X97651104Y-158631394D01*
X97651024Y-158635166D01*
X97650887Y-158636965D01*
X97650653Y-158638706D01*
X97650297Y-158640391D01*
X97649795Y-158642021D01*
X97649121Y-158643596D01*
X97648252Y-158645118D01*
X97647163Y-158646588D01*
X97645830Y-158648006D01*
X97644227Y-158649373D01*
X97642330Y-158650690D01*
X97640115Y-158651959D01*
X97637557Y-158653180D01*
X97634632Y-158654353D01*
X97631314Y-158655481D01*
X97627580Y-158656564D01*
X97623405Y-158657602D01*
X97618764Y-158658597D01*
X97613633Y-158659549D01*
X97607987Y-158660460D01*
X97601802Y-158661331D01*
X97595053Y-158662162D01*
X97587715Y-158662954D01*
X97579764Y-158663709D01*
X97571176Y-158664426D01*
X97551988Y-158665755D01*
X97529954Y-158666947D01*
X97504879Y-158668010D01*
X97476566Y-158668951D01*
X97444818Y-158669779D01*
X97409439Y-158670499D01*
X97370232Y-158671120D01*
X97327001Y-158671649D01*
X97279550Y-158672094D01*
X97227681Y-158672461D01*
X97171199Y-158672758D01*
X97043608Y-158673171D01*
X96895205Y-158673394D01*
X96529674Y-158673501D01*
X95408243Y-158673501D01*
X95397589Y-158625874D01*
X95393911Y-158604644D01*
X95387508Y-158562289D01*
X95367937Y-158424362D01*
X95341697Y-158232411D01*
X95311609Y-158006749D01*
X95254878Y-157582921D01*
X95224256Y-157366460D01*
X95212227Y-157297665D01*
X92282047Y-157297665D01*
X91355701Y-158673497D01*
X89148239Y-158673497D01*
X87589408Y-158668832D01*
X87115356Y-158663783D01*
X86941427Y-158657620D01*
X86934579Y-158598419D01*
X86915450Y-158448957D01*
X86852076Y-157969563D01*
X86762073Y-157297379D01*
X85290380Y-157302804D01*
X83818689Y-157308228D01*
X83363606Y-157990018D01*
X82908524Y-158671803D01*
X79611814Y-158672555D01*
X77283514Y-158669238D01*
X76315106Y-158660054D01*
X76228594Y-158008716D01*
X76134514Y-157345193D01*
X76123801Y-157297566D01*
X74658413Y-157298318D01*
X73193025Y-157299069D01*
X72731523Y-157986218D01*
X72270023Y-158673367D01*
X71105219Y-158673367D01*
X70544844Y-158672150D01*
X70187913Y-158668001D01*
X70075154Y-158664594D01*
X70000554Y-158660172D01*
X69959880Y-158654644D01*
X69950942Y-158651436D01*
X69948956Y-158648015D01*
X70734790Y-157500035D01*
X72026670Y-155625424D01*
X74282081Y-155625424D01*
X75959864Y-155625424D01*
X75948876Y-155577798D01*
X75935029Y-155479973D01*
X75905449Y-155248823D01*
X75816466Y-154524758D01*
X75726963Y-153810641D01*
X75696819Y-153590258D01*
X75687325Y-153528867D01*
X75682283Y-153505582D01*
X75672149Y-153516352D01*
X75646348Y-153551406D01*
X75552906Y-153686573D01*
X75234740Y-154162602D01*
X74810267Y-154809001D01*
X74361969Y-155501103D01*
X74282081Y-155625424D01*
X72026670Y-155625424D01*
X72612369Y-154775533D01*
X75267357Y-150928415D01*
D13*
G36*
X84228131Y-118628230D02*
G01*
X84525835Y-118639731D01*
X84811133Y-118659808D01*
X85088790Y-118689050D01*
X85363570Y-118728046D01*
X85640239Y-118777386D01*
X85923562Y-118837658D01*
X86218304Y-118909452D01*
X86551445Y-119002044D01*
X86879184Y-119106779D01*
X87201280Y-119223382D01*
X87517489Y-119351581D01*
X87827569Y-119491101D01*
X88131277Y-119641671D01*
X88718606Y-119974865D01*
X89277535Y-120348976D01*
X89806123Y-120761818D01*
X90302427Y-121211207D01*
X90764507Y-121694956D01*
X91190421Y-122210879D01*
X91578228Y-122756792D01*
X91925985Y-123330508D01*
X92231752Y-123929841D01*
X92493587Y-124552606D01*
X92607423Y-124872092D01*
X92709548Y-125196617D01*
X92799719Y-125525907D01*
X92877694Y-125859689D01*
X92943229Y-126197690D01*
X92996083Y-126539636D01*
X93022753Y-126788272D01*
X93042829Y-127080842D01*
X93056176Y-127402023D01*
X93062656Y-127736492D01*
X93062132Y-128068928D01*
X93054468Y-128384005D01*
X93039526Y-128666403D01*
X93017171Y-128900798D01*
X92960332Y-129285452D01*
X92888341Y-129665435D01*
X92801371Y-130040388D01*
X92699597Y-130409956D01*
X92583191Y-130773782D01*
X92452328Y-131131508D01*
X92307182Y-131482779D01*
X92147927Y-131827238D01*
X91974736Y-132164528D01*
X91787784Y-132494292D01*
X91587245Y-132816174D01*
X91373292Y-133129817D01*
X91146099Y-133434865D01*
X90905841Y-133730960D01*
X90652690Y-134017747D01*
X90386822Y-134294868D01*
X90114702Y-134555883D01*
X89832486Y-134804955D01*
X89540681Y-135041834D01*
X89239795Y-135266271D01*
X88930334Y-135478015D01*
X88612805Y-135676817D01*
X88287715Y-135862427D01*
X87955571Y-136034595D01*
X87616880Y-136193071D01*
X87272148Y-136337606D01*
X86921882Y-136467949D01*
X86566589Y-136583851D01*
X86206776Y-136685062D01*
X85842950Y-136771333D01*
X85475618Y-136842412D01*
X85105286Y-136898051D01*
X84868237Y-136922216D01*
X84587693Y-136940458D01*
X84278326Y-136952649D01*
X83954805Y-136958658D01*
X83631800Y-136958358D01*
X83323982Y-136951617D01*
X83046022Y-136938308D01*
X82812588Y-136918300D01*
X82812587Y-136918299D01*
X82812587Y-136918297D01*
X82812586Y-136918297D01*
X82812586Y-136918296D01*
X82603960Y-136890485D01*
X82376390Y-136852718D01*
X82136119Y-136806416D01*
X81889393Y-136753004D01*
X81642457Y-136693905D01*
X81401555Y-136630541D01*
X81172933Y-136564337D01*
X80962834Y-136496715D01*
X80645246Y-136381879D01*
X80333780Y-136256428D01*
X80028622Y-136120595D01*
X79729961Y-135974617D01*
X79437985Y-135818729D01*
X79152880Y-135653166D01*
X78874835Y-135478163D01*
X78604036Y-135293955D01*
X78084930Y-134898869D01*
X77597063Y-134469789D01*
X77141935Y-134008598D01*
X76721046Y-133517178D01*
X76335898Y-132997411D01*
X75987990Y-132451182D01*
X75678824Y-131880370D01*
X75409900Y-131286860D01*
X75290998Y-130982182D01*
X75182719Y-130672534D01*
X75085250Y-130358153D01*
X74998780Y-130039274D01*
X74923496Y-129716133D01*
X74859585Y-129388963D01*
X74807236Y-129058002D01*
X74766635Y-128723483D01*
X74745688Y-128450576D01*
X74734520Y-128143374D01*
X74732736Y-127813553D01*
X74739941Y-127472789D01*
X74755742Y-127132757D01*
X74779743Y-126805131D01*
X74811551Y-126501587D01*
X74850770Y-126233800D01*
X74945284Y-125762637D01*
X75063255Y-125299702D01*
X75204219Y-124845697D01*
X75367713Y-124401327D01*
X75553271Y-123967292D01*
X75760429Y-123544297D01*
X75988724Y-123133044D01*
X76237691Y-122734235D01*
X76506866Y-122348574D01*
X76795785Y-121976764D01*
X77103983Y-121619506D01*
X77430996Y-121277504D01*
X77776361Y-120951461D01*
X78139613Y-120642079D01*
X78520287Y-120350062D01*
X78917920Y-120076112D01*
X79083236Y-119971774D01*
X79256640Y-119868904D01*
X79437157Y-119767903D01*
X79623809Y-119669175D01*
X79815622Y-119573124D01*
X80011620Y-119480151D01*
X80210827Y-119390661D01*
X80412267Y-119305055D01*
X80614964Y-119223738D01*
X80817943Y-119147112D01*
X81020228Y-119075580D01*
X81220843Y-119009546D01*
X81418812Y-118949412D01*
X81613160Y-118895581D01*
X81802910Y-118848457D01*
X81987088Y-118808442D01*
X82238692Y-118760294D01*
X82473558Y-118720642D01*
X82698507Y-118688836D01*
X82920361Y-118664225D01*
X83145940Y-118646157D01*
X83382068Y-118633984D01*
X83635566Y-118627053D01*
X83913254Y-118624715D01*
X84228131Y-118628230D01*
G37*
X84228131Y-118628230D02*
X84525835Y-118639731D01*
X84811133Y-118659808D01*
X85088790Y-118689050D01*
X85363570Y-118728046D01*
X85640239Y-118777386D01*
X85923562Y-118837658D01*
X86218304Y-118909452D01*
X86551445Y-119002044D01*
X86879184Y-119106779D01*
X87201280Y-119223382D01*
X87517489Y-119351581D01*
X87827569Y-119491101D01*
X88131277Y-119641671D01*
X88718606Y-119974865D01*
X89277535Y-120348976D01*
X89806123Y-120761818D01*
X90302427Y-121211207D01*
X90764507Y-121694956D01*
X91190421Y-122210879D01*
X91578228Y-122756792D01*
X91925985Y-123330508D01*
X92231752Y-123929841D01*
X92493587Y-124552606D01*
X92607423Y-124872092D01*
X92709548Y-125196617D01*
X92799719Y-125525907D01*
X92877694Y-125859689D01*
X92943229Y-126197690D01*
X92996083Y-126539636D01*
X93022753Y-126788272D01*
X93042829Y-127080842D01*
X93056176Y-127402023D01*
X93062656Y-127736492D01*
X93062132Y-128068928D01*
X93054468Y-128384005D01*
X93039526Y-128666403D01*
X93017171Y-128900798D01*
X92960332Y-129285452D01*
X92888341Y-129665435D01*
X92801371Y-130040388D01*
X92699597Y-130409956D01*
X92583191Y-130773782D01*
X92452328Y-131131508D01*
X92307182Y-131482779D01*
X92147927Y-131827238D01*
X91974736Y-132164528D01*
X91787784Y-132494292D01*
X91587245Y-132816174D01*
X91373292Y-133129817D01*
X91146099Y-133434865D01*
X90905841Y-133730960D01*
X90652690Y-134017747D01*
X90386822Y-134294868D01*
X90114702Y-134555883D01*
X89832486Y-134804955D01*
X89540681Y-135041834D01*
X89239795Y-135266271D01*
X88930334Y-135478015D01*
X88612805Y-135676817D01*
X88287715Y-135862427D01*
X87955571Y-136034595D01*
X87616880Y-136193071D01*
X87272148Y-136337606D01*
X86921882Y-136467949D01*
X86566589Y-136583851D01*
X86206776Y-136685062D01*
X85842950Y-136771333D01*
X85475618Y-136842412D01*
X85105286Y-136898051D01*
X84868237Y-136922216D01*
X84587693Y-136940458D01*
X84278326Y-136952649D01*
X83954805Y-136958658D01*
X83631800Y-136958358D01*
X83323982Y-136951617D01*
X83046022Y-136938308D01*
X82812588Y-136918300D01*
X82812587Y-136918299D01*
X82812587Y-136918297D01*
X82812586Y-136918297D01*
X82812586Y-136918296D01*
X82603960Y-136890485D01*
X82376390Y-136852718D01*
X82136119Y-136806416D01*
X81889393Y-136753004D01*
X81642457Y-136693905D01*
X81401555Y-136630541D01*
X81172933Y-136564337D01*
X80962834Y-136496715D01*
X80645246Y-136381879D01*
X80333780Y-136256428D01*
X80028622Y-136120595D01*
X79729961Y-135974617D01*
X79437985Y-135818729D01*
X79152880Y-135653166D01*
X78874835Y-135478163D01*
X78604036Y-135293955D01*
X78084930Y-134898869D01*
X77597063Y-134469789D01*
X77141935Y-134008598D01*
X76721046Y-133517178D01*
X76335898Y-132997411D01*
X75987990Y-132451182D01*
X75678824Y-131880370D01*
X75409900Y-131286860D01*
X75290998Y-130982182D01*
X75182719Y-130672534D01*
X75085250Y-130358153D01*
X74998780Y-130039274D01*
X74923496Y-129716133D01*
X74859585Y-129388963D01*
X74807236Y-129058002D01*
X74766635Y-128723483D01*
X74745688Y-128450576D01*
X74734520Y-128143374D01*
X74732736Y-127813553D01*
X74739941Y-127472789D01*
X74755742Y-127132757D01*
X74779743Y-126805131D01*
X74811551Y-126501587D01*
X74850770Y-126233800D01*
X74945284Y-125762637D01*
X75063255Y-125299702D01*
X75204219Y-124845697D01*
X75367713Y-124401327D01*
X75553271Y-123967292D01*
X75760429Y-123544297D01*
X75988724Y-123133044D01*
X76237691Y-122734235D01*
X76506866Y-122348574D01*
X76795785Y-121976764D01*
X77103983Y-121619506D01*
X77430996Y-121277504D01*
X77776361Y-120951461D01*
X78139613Y-120642079D01*
X78520287Y-120350062D01*
X78917920Y-120076112D01*
X79083236Y-119971774D01*
X79256640Y-119868904D01*
X79437157Y-119767903D01*
X79623809Y-119669175D01*
X79815622Y-119573124D01*
X80011620Y-119480151D01*
X80210827Y-119390661D01*
X80412267Y-119305055D01*
X80614964Y-119223738D01*
X80817943Y-119147112D01*
X81020228Y-119075580D01*
X81220843Y-119009546D01*
X81418812Y-118949412D01*
X81613160Y-118895581D01*
X81802910Y-118848457D01*
X81987088Y-118808442D01*
X82238692Y-118760294D01*
X82473558Y-118720642D01*
X82698507Y-118688836D01*
X82920361Y-118664225D01*
X83145940Y-118646157D01*
X83382068Y-118633984D01*
X83635566Y-118627053D01*
X83913254Y-118624715D01*
X84228131Y-118628230D01*
G36*
X100931650Y-95136705D02*
G01*
X100991211Y-95189224D01*
X101209890Y-95391045D01*
X101993479Y-96132292D01*
X103139675Y-97229337D01*
X104529633Y-98568972D01*
X108098664Y-102019139D01*
X105312752Y-102061471D01*
X105304925Y-115492463D01*
X105273110Y-128098615D01*
X105206729Y-129936550D01*
X105074566Y-130953971D01*
X104929400Y-131799788D01*
X104750826Y-132637109D01*
X104539311Y-133465012D01*
X104295320Y-134282576D01*
X104019320Y-135088879D01*
X103711777Y-135883000D01*
X103373158Y-136664017D01*
X103003928Y-137431009D01*
X102604554Y-138183055D01*
X102175502Y-138919232D01*
X101717239Y-139638620D01*
X101230230Y-140340297D01*
X100714943Y-141023341D01*
X100171842Y-141686832D01*
X99601395Y-142329847D01*
X99004067Y-142951465D01*
X98376491Y-143554255D01*
X97726917Y-144129801D01*
X97056334Y-144677606D01*
X96365729Y-145197172D01*
X95656092Y-145688002D01*
X94928410Y-146149601D01*
X94183673Y-146581471D01*
X93422867Y-146983114D01*
X92646983Y-147354035D01*
X91857007Y-147693736D01*
X91053928Y-148001721D01*
X90238736Y-148277492D01*
X89412417Y-148520552D01*
X88575960Y-148730406D01*
X87730354Y-148906555D01*
X86876587Y-149048503D01*
X86381470Y-149111894D01*
X85843363Y-149165338D01*
X85277062Y-149208180D01*
X84697364Y-149239764D01*
X84119064Y-149259437D01*
X83556957Y-149266543D01*
X83025840Y-149260427D01*
X82540507Y-149240436D01*
X82540505Y-149240436D01*
X82038675Y-149205232D01*
X81544623Y-149159505D01*
X81056168Y-149102925D01*
X80571132Y-149035159D01*
X80087335Y-148955878D01*
X79602598Y-148864750D01*
X79114742Y-148761446D01*
X78621586Y-148645633D01*
X77656156Y-148383404D01*
X76706889Y-148076221D01*
X75775182Y-147725078D01*
X74862434Y-147330965D01*
X73970041Y-146894875D01*
X73099400Y-146417800D01*
X72251908Y-145900732D01*
X71428964Y-145344664D01*
X70631963Y-144750586D01*
X69862304Y-144119492D01*
X69121383Y-143452373D01*
X68410599Y-142750222D01*
X67731347Y-142014030D01*
X67085025Y-141244790D01*
X66473032Y-140443494D01*
X65896762Y-139611133D01*
X65523573Y-139024532D01*
X65170461Y-138429105D01*
X64837487Y-137825023D01*
X64524710Y-137212460D01*
X64232187Y-136591586D01*
X63959977Y-135962575D01*
X63708140Y-135325598D01*
X63476734Y-134680827D01*
X63265817Y-134028435D01*
X63075448Y-133368594D01*
X62905686Y-132701475D01*
X62756590Y-132027252D01*
X62628218Y-131346096D01*
X62520630Y-130658179D01*
X62433883Y-129963673D01*
X62368036Y-129262752D01*
X62349401Y-128941949D01*
X62336040Y-128539191D01*
X62327962Y-128082658D01*
X62325174Y-127600535D01*
X62327685Y-127121005D01*
X62335502Y-126672250D01*
X62348633Y-126282453D01*
X62367086Y-125979798D01*
X62440267Y-125253667D01*
X62536287Y-124535529D01*
X62655154Y-123825370D01*
X62796873Y-123123172D01*
X62961450Y-122428919D01*
X63148891Y-121742594D01*
X63359203Y-121064182D01*
X63592391Y-120393665D01*
X63848461Y-119731028D01*
X64127420Y-119076253D01*
X64429273Y-118429324D01*
X64754026Y-117790226D01*
X65101687Y-117158940D01*
X65472259Y-116535452D01*
X65865750Y-115919743D01*
X66282166Y-115311799D01*
X66579628Y-114902434D01*
X66887403Y-114499596D01*
X67205227Y-114103538D01*
X67532838Y-113714513D01*
X67869972Y-113332775D01*
X68216366Y-112958575D01*
X68571757Y-112592168D01*
X68935882Y-112233807D01*
X69308478Y-111883743D01*
X69689281Y-111542231D01*
X70078028Y-111209524D01*
X70474457Y-110885874D01*
X70878304Y-110571534D01*
X71289306Y-110266757D01*
X71707200Y-109971797D01*
X72131723Y-109686907D01*
X72622654Y-109375285D01*
X73121012Y-109077699D01*
X73626511Y-108794258D01*
X74138863Y-108525069D01*
X74657780Y-108270241D01*
X75182977Y-108029883D01*
X75714164Y-107804103D01*
X76251056Y-107593010D01*
X76793365Y-107396711D01*
X77340804Y-107215316D01*
X77893085Y-107048932D01*
X78449921Y-106897669D01*
X79011025Y-106761634D01*
X79576110Y-106640937D01*
X80144889Y-106535684D01*
X80717074Y-106445986D01*
X80988475Y-106409428D01*
X81271077Y-106375209D01*
X81821867Y-106318168D01*
X82066047Y-106297541D01*
X82273413Y-106283638D01*
X82431961Y-106277555D01*
X82529687Y-106280390D01*
X82539140Y-106282216D01*
X82543143Y-106283630D01*
X82546608Y-106285438D01*
X82549495Y-106287685D01*
X82551761Y-106290417D01*
X82553366Y-106293679D01*
X82554269Y-106297517D01*
X82554428Y-106301976D01*
X82553801Y-106307101D01*
X82552349Y-106312937D01*
X82550028Y-106319531D01*
X82546799Y-106326927D01*
X82542620Y-106335171D01*
X82537450Y-106344308D01*
X82531246Y-106354384D01*
X82515577Y-106377532D01*
X82495283Y-106404979D01*
X82470033Y-106437087D01*
X82439498Y-106474220D01*
X82403347Y-106516741D01*
X82361250Y-106565012D01*
X82312878Y-106619396D01*
X82257900Y-106680257D01*
X82195987Y-106747958D01*
X82126808Y-106822861D01*
X81965332Y-106995726D01*
X81770834Y-107201756D01*
X81540672Y-107443855D01*
X81272207Y-107724928D01*
X80962798Y-108047877D01*
X80210587Y-108831022D01*
X78492090Y-110630893D01*
X77972024Y-111185161D01*
X77831619Y-111339046D01*
X77784234Y-111396733D01*
X77829614Y-111447865D01*
X77955077Y-111582962D01*
X78411494Y-112068224D01*
X79902960Y-113641255D01*
X80718456Y-114503576D01*
X81381386Y-115214053D01*
X81823686Y-115699064D01*
X81940830Y-115834013D01*
X81977292Y-115884988D01*
X81972328Y-115888170D01*
X81964272Y-115891770D01*
X81953303Y-115895749D01*
X81939599Y-115900064D01*
X81923342Y-115904677D01*
X81904709Y-115909548D01*
X81861036Y-115919898D01*
X81810017Y-115930793D01*
X81753088Y-115941912D01*
X81691683Y-115952931D01*
X81627240Y-115963529D01*
X81376136Y-116007728D01*
X81115372Y-116062767D01*
X80846497Y-116128043D01*
X80571061Y-116202956D01*
X80290614Y-116286905D01*
X80006704Y-116379288D01*
X79720881Y-116479506D01*
X79434695Y-116586956D01*
X79149695Y-116701038D01*
X78867431Y-116821151D01*
X78589452Y-116946695D01*
X78317308Y-117077067D01*
X78052548Y-117211667D01*
X77796721Y-117349895D01*
X77551377Y-117491149D01*
X77318066Y-117634828D01*
X76866462Y-117937586D01*
X76430081Y-118259598D01*
X76009519Y-118600074D01*
X75605374Y-118958222D01*
X75218243Y-119333251D01*
X74848721Y-119724371D01*
X74497407Y-120130790D01*
X74164898Y-120551717D01*
X73851789Y-120986361D01*
X73558678Y-121433933D01*
X73286162Y-121893639D01*
X73034837Y-122364690D01*
X72805301Y-122846294D01*
X72598151Y-123337660D01*
X72413983Y-123837998D01*
X72253394Y-124346517D01*
X72148440Y-124727528D01*
X72058014Y-125098234D01*
X71981357Y-125463471D01*
X71917710Y-125828071D01*
X71866316Y-126196870D01*
X71826415Y-126574701D01*
X71797251Y-126966398D01*
X71778064Y-127376796D01*
X71771843Y-127921065D01*
X71790300Y-128464513D01*
X71833112Y-129006167D01*
X71899956Y-129545051D01*
X71990506Y-130080192D01*
X72104439Y-130610614D01*
X72241432Y-131135344D01*
X72401160Y-131653406D01*
X72583299Y-132163827D01*
X72787526Y-132665630D01*
X73013516Y-133157843D01*
X73260946Y-133639491D01*
X73529492Y-134109599D01*
X73818829Y-134567192D01*
X74128634Y-135011296D01*
X74458582Y-135440936D01*
X74819159Y-135867826D01*
X75197696Y-136275601D01*
X75593535Y-136663884D01*
X76006016Y-137032299D01*
X76434483Y-137380468D01*
X76878276Y-137708015D01*
X77336738Y-138014562D01*
X77809209Y-138299734D01*
X78295033Y-138563153D01*
X78793550Y-138804442D01*
X79304103Y-139023225D01*
X79826033Y-139219125D01*
X80358681Y-139391764D01*
X80901390Y-139540766D01*
X81453500Y-139665755D01*
X82014355Y-139766353D01*
X82199063Y-139793787D01*
X82370603Y-139815506D01*
X82540813Y-139832142D01*
X82721532Y-139844331D01*
X82924596Y-139852707D01*
X83161844Y-139857904D01*
X83445113Y-139860557D01*
X83786240Y-139861300D01*
X84410978Y-139857908D01*
X84648275Y-139852709D01*
X84851380Y-139844322D01*
X85032185Y-139832109D01*
X85202581Y-139815431D01*
X85374462Y-139793649D01*
X85559720Y-139766124D01*
X86160999Y-139657984D01*
X86750590Y-139523391D01*
X87328003Y-139362636D01*
X87892749Y-139176013D01*
X88444338Y-138963812D01*
X88982281Y-138726327D01*
X89506089Y-138463849D01*
X90015271Y-138176670D01*
X90509338Y-137865083D01*
X90987802Y-137529380D01*
X91450172Y-137169853D01*
X91895959Y-136786794D01*
X92324673Y-136380495D01*
X92735826Y-135951248D01*
X93128927Y-135499346D01*
X93503487Y-135025081D01*
X93723474Y-134722930D01*
X93932994Y-134415209D01*
X94132083Y-134101829D01*
X94320777Y-133782701D01*
X94499114Y-133457735D01*
X94667130Y-133126842D01*
X94824862Y-132789932D01*
X94972346Y-132446918D01*
X95109620Y-132097708D01*
X95236720Y-131742215D01*
X95353682Y-131380348D01*
X95460543Y-131012020D01*
X95557341Y-130637139D01*
X95644111Y-130255618D01*
X95720891Y-129867367D01*
X95787716Y-129472297D01*
X95820545Y-129206445D01*
X95847273Y-128881618D01*
X95867447Y-128516430D01*
X95880616Y-128129497D01*
X95886327Y-127739433D01*
X95884128Y-127364854D01*
X95873567Y-127024374D01*
X95854191Y-126736608D01*
X95755766Y-125951806D01*
X95609883Y-125184225D01*
X95417538Y-124435302D01*
X95179724Y-123706471D01*
X94897436Y-122999167D01*
X94571669Y-122314824D01*
X94203417Y-121654879D01*
X93793674Y-121020766D01*
X93343435Y-120413920D01*
X92853695Y-119835776D01*
X92325447Y-119287769D01*
X91759687Y-118771335D01*
X91157408Y-118287907D01*
X90519606Y-117838922D01*
X89847274Y-117425815D01*
X89141408Y-117050019D01*
X88921003Y-116945646D01*
X88656904Y-116827436D01*
X88370008Y-116703943D01*
X88081217Y-116583723D01*
X87811430Y-116475327D01*
X87581548Y-116387311D01*
X87412469Y-116328229D01*
X87357263Y-116312211D01*
X87325095Y-116306634D01*
X87323859Y-116308135D01*
X87322609Y-116312587D01*
X87320078Y-116330055D01*
X87314954Y-116397179D01*
X87309867Y-116503301D01*
X87304959Y-116643713D01*
X87300375Y-116813709D01*
X87296259Y-117008583D01*
X87290005Y-117454137D01*
X87278741Y-118601640D01*
X84252236Y-115432721D01*
X80809718Y-111833592D01*
X80393689Y-111403382D01*
X83836220Y-107834627D01*
X87278752Y-104265871D01*
X87290028Y-105396755D01*
X87300895Y-106195794D01*
X87306462Y-106439138D01*
X87311192Y-106528837D01*
X87465832Y-106551276D01*
X87676301Y-106587083D01*
X88201477Y-106686291D01*
X88760234Y-106801448D01*
X89012679Y-106857189D01*
X89226086Y-106907537D01*
X89658774Y-107020528D01*
X90095028Y-107146403D01*
X90533840Y-107284704D01*
X90974203Y-107434970D01*
X91415107Y-107596741D01*
X91855547Y-107769559D01*
X92294512Y-107952962D01*
X92730997Y-108146491D01*
X93163992Y-108349686D01*
X93592490Y-108562087D01*
X94015482Y-108783234D01*
X94431962Y-109012668D01*
X94840921Y-109249928D01*
X95241351Y-109494555D01*
X95632244Y-109746088D01*
X96012593Y-110004068D01*
X96199986Y-110133588D01*
X96356233Y-110239654D01*
X96465015Y-110311320D01*
X96496506Y-110330832D01*
X96510010Y-110337641D01*
X96517223Y-110010330D01*
X96523130Y-109119138D01*
X96528588Y-106189543D01*
X96528588Y-102041447D01*
X95125069Y-102030293D01*
X93721554Y-102019139D01*
X97288224Y-98568972D01*
X99822710Y-96132293D01*
X100605793Y-95391046D01*
X100907750Y-95118806D01*
X100931650Y-95136705D01*
G37*
X100931650Y-95136705D02*
X100991211Y-95189224D01*
X101209890Y-95391045D01*
X101993479Y-96132292D01*
X103139675Y-97229337D01*
X104529633Y-98568972D01*
X108098664Y-102019139D01*
X105312752Y-102061471D01*
X105304925Y-115492463D01*
X105273110Y-128098615D01*
X105206729Y-129936550D01*
X105074566Y-130953971D01*
X104929400Y-131799788D01*
X104750826Y-132637109D01*
X104539311Y-133465012D01*
X104295320Y-134282576D01*
X104019320Y-135088879D01*
X103711777Y-135883000D01*
X103373158Y-136664017D01*
X103003928Y-137431009D01*
X102604554Y-138183055D01*
X102175502Y-138919232D01*
X101717239Y-139638620D01*
X101230230Y-140340297D01*
X100714943Y-141023341D01*
X100171842Y-141686832D01*
X99601395Y-142329847D01*
X99004067Y-142951465D01*
X98376491Y-143554255D01*
X97726917Y-144129801D01*
X97056334Y-144677606D01*
X96365729Y-145197172D01*
X95656092Y-145688002D01*
X94928410Y-146149601D01*
X94183673Y-146581471D01*
X93422867Y-146983114D01*
X92646983Y-147354035D01*
X91857007Y-147693736D01*
X91053928Y-148001721D01*
X90238736Y-148277492D01*
X89412417Y-148520552D01*
X88575960Y-148730406D01*
X87730354Y-148906555D01*
X86876587Y-149048503D01*
X86381470Y-149111894D01*
X85843363Y-149165338D01*
X85277062Y-149208180D01*
X84697364Y-149239764D01*
X84119064Y-149259437D01*
X83556957Y-149266543D01*
X83025840Y-149260427D01*
X82540507Y-149240436D01*
X82540505Y-149240436D01*
X82038675Y-149205232D01*
X81544623Y-149159505D01*
X81056168Y-149102925D01*
X80571132Y-149035159D01*
X80087335Y-148955878D01*
X79602598Y-148864750D01*
X79114742Y-148761446D01*
X78621586Y-148645633D01*
X77656156Y-148383404D01*
X76706889Y-148076221D01*
X75775182Y-147725078D01*
X74862434Y-147330965D01*
X73970041Y-146894875D01*
X73099400Y-146417800D01*
X72251908Y-145900732D01*
X71428964Y-145344664D01*
X70631963Y-144750586D01*
X69862304Y-144119492D01*
X69121383Y-143452373D01*
X68410599Y-142750222D01*
X67731347Y-142014030D01*
X67085025Y-141244790D01*
X66473032Y-140443494D01*
X65896762Y-139611133D01*
X65523573Y-139024532D01*
X65170461Y-138429105D01*
X64837487Y-137825023D01*
X64524710Y-137212460D01*
X64232187Y-136591586D01*
X63959977Y-135962575D01*
X63708140Y-135325598D01*
X63476734Y-134680827D01*
X63265817Y-134028435D01*
X63075448Y-133368594D01*
X62905686Y-132701475D01*
X62756590Y-132027252D01*
X62628218Y-131346096D01*
X62520630Y-130658179D01*
X62433883Y-129963673D01*
X62368036Y-129262752D01*
X62349401Y-128941949D01*
X62336040Y-128539191D01*
X62327962Y-128082658D01*
X62325174Y-127600535D01*
X62327685Y-127121005D01*
X62335502Y-126672250D01*
X62348633Y-126282453D01*
X62367086Y-125979798D01*
X62440267Y-125253667D01*
X62536287Y-124535529D01*
X62655154Y-123825370D01*
X62796873Y-123123172D01*
X62961450Y-122428919D01*
X63148891Y-121742594D01*
X63359203Y-121064182D01*
X63592391Y-120393665D01*
X63848461Y-119731028D01*
X64127420Y-119076253D01*
X64429273Y-118429324D01*
X64754026Y-117790226D01*
X65101687Y-117158940D01*
X65472259Y-116535452D01*
X65865750Y-115919743D01*
X66282166Y-115311799D01*
X66579628Y-114902434D01*
X66887403Y-114499596D01*
X67205227Y-114103538D01*
X67532838Y-113714513D01*
X67869972Y-113332775D01*
X68216366Y-112958575D01*
X68571757Y-112592168D01*
X68935882Y-112233807D01*
X69308478Y-111883743D01*
X69689281Y-111542231D01*
X70078028Y-111209524D01*
X70474457Y-110885874D01*
X70878304Y-110571534D01*
X71289306Y-110266757D01*
X71707200Y-109971797D01*
X72131723Y-109686907D01*
X72622654Y-109375285D01*
X73121012Y-109077699D01*
X73626511Y-108794258D01*
X74138863Y-108525069D01*
X74657780Y-108270241D01*
X75182977Y-108029883D01*
X75714164Y-107804103D01*
X76251056Y-107593010D01*
X76793365Y-107396711D01*
X77340804Y-107215316D01*
X77893085Y-107048932D01*
X78449921Y-106897669D01*
X79011025Y-106761634D01*
X79576110Y-106640937D01*
X80144889Y-106535684D01*
X80717074Y-106445986D01*
X80988475Y-106409428D01*
X81271077Y-106375209D01*
X81821867Y-106318168D01*
X82066047Y-106297541D01*
X82273413Y-106283638D01*
X82431961Y-106277555D01*
X82529687Y-106280390D01*
X82539140Y-106282216D01*
X82543143Y-106283630D01*
X82546608Y-106285438D01*
X82549495Y-106287685D01*
X82551761Y-106290417D01*
X82553366Y-106293679D01*
X82554269Y-106297517D01*
X82554428Y-106301976D01*
X82553801Y-106307101D01*
X82552349Y-106312937D01*
X82550028Y-106319531D01*
X82546799Y-106326927D01*
X82542620Y-106335171D01*
X82537450Y-106344308D01*
X82531246Y-106354384D01*
X82515577Y-106377532D01*
X82495283Y-106404979D01*
X82470033Y-106437087D01*
X82439498Y-106474220D01*
X82403347Y-106516741D01*
X82361250Y-106565012D01*
X82312878Y-106619396D01*
X82257900Y-106680257D01*
X82195987Y-106747958D01*
X82126808Y-106822861D01*
X81965332Y-106995726D01*
X81770834Y-107201756D01*
X81540672Y-107443855D01*
X81272207Y-107724928D01*
X80962798Y-108047877D01*
X80210587Y-108831022D01*
X78492090Y-110630893D01*
X77972024Y-111185161D01*
X77831619Y-111339046D01*
X77784234Y-111396733D01*
X77829614Y-111447865D01*
X77955077Y-111582962D01*
X78411494Y-112068224D01*
X79902960Y-113641255D01*
X80718456Y-114503576D01*
X81381386Y-115214053D01*
X81823686Y-115699064D01*
X81940830Y-115834013D01*
X81977292Y-115884988D01*
X81972328Y-115888170D01*
X81964272Y-115891770D01*
X81953303Y-115895749D01*
X81939599Y-115900064D01*
X81923342Y-115904677D01*
X81904709Y-115909548D01*
X81861036Y-115919898D01*
X81810017Y-115930793D01*
X81753088Y-115941912D01*
X81691683Y-115952931D01*
X81627240Y-115963529D01*
X81376136Y-116007728D01*
X81115372Y-116062767D01*
X80846497Y-116128043D01*
X80571061Y-116202956D01*
X80290614Y-116286905D01*
X80006704Y-116379288D01*
X79720881Y-116479506D01*
X79434695Y-116586956D01*
X79149695Y-116701038D01*
X78867431Y-116821151D01*
X78589452Y-116946695D01*
X78317308Y-117077067D01*
X78052548Y-117211667D01*
X77796721Y-117349895D01*
X77551377Y-117491149D01*
X77318066Y-117634828D01*
X76866462Y-117937586D01*
X76430081Y-118259598D01*
X76009519Y-118600074D01*
X75605374Y-118958222D01*
X75218243Y-119333251D01*
X74848721Y-119724371D01*
X74497407Y-120130790D01*
X74164898Y-120551717D01*
X73851789Y-120986361D01*
X73558678Y-121433933D01*
X73286162Y-121893639D01*
X73034837Y-122364690D01*
X72805301Y-122846294D01*
X72598151Y-123337660D01*
X72413983Y-123837998D01*
X72253394Y-124346517D01*
X72148440Y-124727528D01*
X72058014Y-125098234D01*
X71981357Y-125463471D01*
X71917710Y-125828071D01*
X71866316Y-126196870D01*
X71826415Y-126574701D01*
X71797251Y-126966398D01*
X71778064Y-127376796D01*
X71771843Y-127921065D01*
X71790300Y-128464513D01*
X71833112Y-129006167D01*
X71899956Y-129545051D01*
X71990506Y-130080192D01*
X72104439Y-130610614D01*
X72241432Y-131135344D01*
X72401160Y-131653406D01*
X72583299Y-132163827D01*
X72787526Y-132665630D01*
X73013516Y-133157843D01*
X73260946Y-133639491D01*
X73529492Y-134109599D01*
X73818829Y-134567192D01*
X74128634Y-135011296D01*
X74458582Y-135440936D01*
X74819159Y-135867826D01*
X75197696Y-136275601D01*
X75593535Y-136663884D01*
X76006016Y-137032299D01*
X76434483Y-137380468D01*
X76878276Y-137708015D01*
X77336738Y-138014562D01*
X77809209Y-138299734D01*
X78295033Y-138563153D01*
X78793550Y-138804442D01*
X79304103Y-139023225D01*
X79826033Y-139219125D01*
X80358681Y-139391764D01*
X80901390Y-139540766D01*
X81453500Y-139665755D01*
X82014355Y-139766353D01*
X82199063Y-139793787D01*
X82370603Y-139815506D01*
X82540813Y-139832142D01*
X82721532Y-139844331D01*
X82924596Y-139852707D01*
X83161844Y-139857904D01*
X83445113Y-139860557D01*
X83786240Y-139861300D01*
X84410978Y-139857908D01*
X84648275Y-139852709D01*
X84851380Y-139844322D01*
X85032185Y-139832109D01*
X85202581Y-139815431D01*
X85374462Y-139793649D01*
X85559720Y-139766124D01*
X86160999Y-139657984D01*
X86750590Y-139523391D01*
X87328003Y-139362636D01*
X87892749Y-139176013D01*
X88444338Y-138963812D01*
X88982281Y-138726327D01*
X89506089Y-138463849D01*
X90015271Y-138176670D01*
X90509338Y-137865083D01*
X90987802Y-137529380D01*
X91450172Y-137169853D01*
X91895959Y-136786794D01*
X92324673Y-136380495D01*
X92735826Y-135951248D01*
X93128927Y-135499346D01*
X93503487Y-135025081D01*
X93723474Y-134722930D01*
X93932994Y-134415209D01*
X94132083Y-134101829D01*
X94320777Y-133782701D01*
X94499114Y-133457735D01*
X94667130Y-133126842D01*
X94824862Y-132789932D01*
X94972346Y-132446918D01*
X95109620Y-132097708D01*
X95236720Y-131742215D01*
X95353682Y-131380348D01*
X95460543Y-131012020D01*
X95557341Y-130637139D01*
X95644111Y-130255618D01*
X95720891Y-129867367D01*
X95787716Y-129472297D01*
X95820545Y-129206445D01*
X95847273Y-128881618D01*
X95867447Y-128516430D01*
X95880616Y-128129497D01*
X95886327Y-127739433D01*
X95884128Y-127364854D01*
X95873567Y-127024374D01*
X95854191Y-126736608D01*
X95755766Y-125951806D01*
X95609883Y-125184225D01*
X95417538Y-124435302D01*
X95179724Y-123706471D01*
X94897436Y-122999167D01*
X94571669Y-122314824D01*
X94203417Y-121654879D01*
X93793674Y-121020766D01*
X93343435Y-120413920D01*
X92853695Y-119835776D01*
X92325447Y-119287769D01*
X91759687Y-118771335D01*
X91157408Y-118287907D01*
X90519606Y-117838922D01*
X89847274Y-117425815D01*
X89141408Y-117050019D01*
X88921003Y-116945646D01*
X88656904Y-116827436D01*
X88370008Y-116703943D01*
X88081217Y-116583723D01*
X87811430Y-116475327D01*
X87581548Y-116387311D01*
X87412469Y-116328229D01*
X87357263Y-116312211D01*
X87325095Y-116306634D01*
X87323859Y-116308135D01*
X87322609Y-116312587D01*
X87320078Y-116330055D01*
X87314954Y-116397179D01*
X87309867Y-116503301D01*
X87304959Y-116643713D01*
X87300375Y-116813709D01*
X87296259Y-117008583D01*
X87290005Y-117454137D01*
X87278741Y-118601640D01*
X84252236Y-115432721D01*
X80809718Y-111833592D01*
X80393689Y-111403382D01*
X83836220Y-107834627D01*
X87278752Y-104265871D01*
X87290028Y-105396755D01*
X87300895Y-106195794D01*
X87306462Y-106439138D01*
X87311192Y-106528837D01*
X87465832Y-106551276D01*
X87676301Y-106587083D01*
X88201477Y-106686291D01*
X88760234Y-106801448D01*
X89012679Y-106857189D01*
X89226086Y-106907537D01*
X89658774Y-107020528D01*
X90095028Y-107146403D01*
X90533840Y-107284704D01*
X90974203Y-107434970D01*
X91415107Y-107596741D01*
X91855547Y-107769559D01*
X92294512Y-107952962D01*
X92730997Y-108146491D01*
X93163992Y-108349686D01*
X93592490Y-108562087D01*
X94015482Y-108783234D01*
X94431962Y-109012668D01*
X94840921Y-109249928D01*
X95241351Y-109494555D01*
X95632244Y-109746088D01*
X96012593Y-110004068D01*
X96199986Y-110133588D01*
X96356233Y-110239654D01*
X96465015Y-110311320D01*
X96496506Y-110330832D01*
X96510010Y-110337641D01*
X96517223Y-110010330D01*
X96523130Y-109119138D01*
X96528588Y-106189543D01*
X96528588Y-102041447D01*
X95125069Y-102030293D01*
X93721554Y-102019139D01*
X97288224Y-98568972D01*
X99822710Y-96132293D01*
X100605793Y-95391046D01*
X100907750Y-95118806D01*
X100931650Y-95136705D01*
D14*
X65855000Y-167790000D02*
X68945000Y-167790000D01*
X67400462Y-162240001D02*
G75*
G03*
X65855170Y-167789999I-462J-2989999D01*
G01*
X68944830Y-167790000D02*
G75*
G03*
X67399538Y-162240000I-1544830J2560000D01*
G01*
X69900000Y-165230000D02*
G75*
G03*
X69900000Y-165230000I-2500000J0D01*
G01*
%LPC*%
D15*
X67399999Y-166499999D03*
D16*
X67400000Y-163960000D03*
D17*
X80759999Y-163929999D03*
D18*
X80759999Y-166469999D03*
X83299999Y-163929999D03*
X83299999Y-166469999D03*
X85839999Y-163929999D03*
X85839999Y-166469999D03*
M02*
