G04 #@! TF.GenerationSoftware,KiCad,Pcbnew,(6.99.0-2452-gdb4f2d9dd8)*
G04 #@! TF.CreationDate,2022-08-02T18:55:21-05:00*
G04 #@! TF.ProjectId,AIAA,41494141-2e6b-4696-9361-645f70636258,rev?*
G04 #@! TF.SameCoordinates,Original*
G04 #@! TF.FileFunction,Legend,Bot*
G04 #@! TF.FilePolarity,Positive*
%FSLAX46Y46*%
G04 Gerber Fmt 4.6, Leading zero omitted, Abs format (unit mm)*
G04 Created by KiCad (PCBNEW (6.99.0-2452-gdb4f2d9dd8)) date 2022-08-02 18:55:21*
%MOMM*%
%LPD*%
G01*
G04 APERTURE LIST*
G04 Aperture macros list*
%AMRoundRect*
0 Rectangle with rounded corners*
0 $1 Rounding radius*
0 $2 $3 $4 $5 $6 $7 $8 $9 X,Y pos of 4 corners*
0 Add a 4 corners polygon primitive as box body*
4,1,4,$2,$3,$4,$5,$6,$7,$8,$9,$2,$3,0*
0 Add four circle primitives for the rounded corners*
1,1,$1+$1,$2,$3*
1,1,$1+$1,$4,$5*
1,1,$1+$1,$6,$7*
1,1,$1+$1,$8,$9*
0 Add four rect primitives between the rounded corners*
20,1,$1+$1,$2,$3,$4,$5,0*
20,1,$1+$1,$4,$5,$6,$7,0*
20,1,$1+$1,$6,$7,$8,$9,0*
20,1,$1+$1,$8,$9,$2,$3,0*%
G04 Aperture macros list end*
%ADD10C,0.150000*%
%ADD11C,0.120000*%
%ADD12R,1.800000X1.800000*%
%ADD13C,1.800000*%
%ADD14R,1.700000X1.700000*%
%ADD15O,1.700000X1.700000*%
%ADD16RoundRect,0.250000X-0.400000X-0.625000X0.400000X-0.625000X0.400000X0.625000X-0.400000X0.625000X0*%
G04 APERTURE END LIST*
D10*
X103400714Y-124023809D02*
X104257857Y-124023809D01*
X104257857Y-124023809D02*
X104353095Y-123976190D01*
X104353095Y-123976190D02*
X104400714Y-123880952D01*
X104400714Y-123880952D02*
X104400714Y-123833333D01*
X103067380Y-124023809D02*
X103115000Y-123976190D01*
X103115000Y-123976190D02*
X103162619Y-124023809D01*
X103162619Y-124023809D02*
X103115000Y-124071428D01*
X103115000Y-124071428D02*
X103067380Y-124023809D01*
X103067380Y-124023809D02*
X103162619Y-124023809D01*
X104067380Y-124642856D02*
X104019761Y-124547618D01*
X104019761Y-124547618D02*
X103924523Y-124499999D01*
X103924523Y-124499999D02*
X103067380Y-124499999D01*
X104019761Y-125452380D02*
X104067380Y-125357142D01*
X104067380Y-125357142D02*
X104067380Y-125166666D01*
X104067380Y-125166666D02*
X104019761Y-125071428D01*
X104019761Y-125071428D02*
X103972142Y-125023809D01*
X103972142Y-125023809D02*
X103876904Y-124976190D01*
X103876904Y-124976190D02*
X103591190Y-124976190D01*
X103591190Y-124976190D02*
X103495952Y-125023809D01*
X103495952Y-125023809D02*
X103448333Y-125071428D01*
X103448333Y-125071428D02*
X103400714Y-125166666D01*
X103400714Y-125166666D02*
X103400714Y-125357142D01*
X103400714Y-125357142D02*
X103448333Y-125452380D01*
X103400714Y-125880952D02*
X104257857Y-125880952D01*
X104257857Y-125880952D02*
X104353095Y-125833333D01*
X104353095Y-125833333D02*
X104400714Y-125738095D01*
X104400714Y-125738095D02*
X104400714Y-125690476D01*
X103067380Y-125880952D02*
X103115000Y-125833333D01*
X103115000Y-125833333D02*
X103162619Y-125880952D01*
X103162619Y-125880952D02*
X103115000Y-125928571D01*
X103115000Y-125928571D02*
X103067380Y-125880952D01*
X103067380Y-125880952D02*
X103162619Y-125880952D01*
X104067380Y-126499999D02*
X104019761Y-126404761D01*
X104019761Y-126404761D02*
X103924523Y-126357142D01*
X103924523Y-126357142D02*
X103067380Y-126357142D01*
X104019761Y-127309523D02*
X104067380Y-127214285D01*
X104067380Y-127214285D02*
X104067380Y-127023809D01*
X104067380Y-127023809D02*
X104019761Y-126928571D01*
X104019761Y-126928571D02*
X103972142Y-126880952D01*
X103972142Y-126880952D02*
X103876904Y-126833333D01*
X103876904Y-126833333D02*
X103591190Y-126833333D01*
X103591190Y-126833333D02*
X103495952Y-126880952D01*
X103495952Y-126880952D02*
X103448333Y-126928571D01*
X103448333Y-126928571D02*
X103400714Y-127023809D01*
X103400714Y-127023809D02*
X103400714Y-127214285D01*
X103400714Y-127214285D02*
X103448333Y-127309523D01*
X103400714Y-127738095D02*
X104257857Y-127738095D01*
X104257857Y-127738095D02*
X104353095Y-127690476D01*
X104353095Y-127690476D02*
X104400714Y-127595238D01*
X104400714Y-127595238D02*
X104400714Y-127547619D01*
X103067380Y-127738095D02*
X103115000Y-127690476D01*
X103115000Y-127690476D02*
X103162619Y-127738095D01*
X103162619Y-127738095D02*
X103115000Y-127785714D01*
X103115000Y-127785714D02*
X103067380Y-127738095D01*
X103067380Y-127738095D02*
X103162619Y-127738095D01*
X104067380Y-128357142D02*
X104019761Y-128261904D01*
X104019761Y-128261904D02*
X103924523Y-128214285D01*
X103924523Y-128214285D02*
X103067380Y-128214285D01*
X104019761Y-129166666D02*
X104067380Y-129071428D01*
X104067380Y-129071428D02*
X104067380Y-128880952D01*
X104067380Y-128880952D02*
X104019761Y-128785714D01*
X104019761Y-128785714D02*
X103972142Y-128738095D01*
X103972142Y-128738095D02*
X103876904Y-128690476D01*
X103876904Y-128690476D02*
X103591190Y-128690476D01*
X103591190Y-128690476D02*
X103495952Y-128738095D01*
X103495952Y-128738095D02*
X103448333Y-128785714D01*
X103448333Y-128785714D02*
X103400714Y-128880952D01*
X103400714Y-128880952D02*
X103400714Y-129071428D01*
X103400714Y-129071428D02*
X103448333Y-129166666D01*
X103400714Y-129595238D02*
X104257857Y-129595238D01*
X104257857Y-129595238D02*
X104353095Y-129547619D01*
X104353095Y-129547619D02*
X104400714Y-129452381D01*
X104400714Y-129452381D02*
X104400714Y-129404762D01*
X103067380Y-129595238D02*
X103115000Y-129547619D01*
X103115000Y-129547619D02*
X103162619Y-129595238D01*
X103162619Y-129595238D02*
X103115000Y-129642857D01*
X103115000Y-129642857D02*
X103067380Y-129595238D01*
X103067380Y-129595238D02*
X103162619Y-129595238D01*
X104067380Y-130214285D02*
X104019761Y-130119047D01*
X104019761Y-130119047D02*
X103924523Y-130071428D01*
X103924523Y-130071428D02*
X103067380Y-130071428D01*
X104019761Y-131023809D02*
X104067380Y-130928571D01*
X104067380Y-130928571D02*
X104067380Y-130738095D01*
X104067380Y-130738095D02*
X104019761Y-130642857D01*
X104019761Y-130642857D02*
X103972142Y-130595238D01*
X103972142Y-130595238D02*
X103876904Y-130547619D01*
X103876904Y-130547619D02*
X103591190Y-130547619D01*
X103591190Y-130547619D02*
X103495952Y-130595238D01*
X103495952Y-130595238D02*
X103448333Y-130642857D01*
X103448333Y-130642857D02*
X103400714Y-130738095D01*
X103400714Y-130738095D02*
X103400714Y-130928571D01*
X103400714Y-130928571D02*
X103448333Y-131023809D01*
D11*
X87170000Y-162600000D02*
X87170000Y-167800000D01*
X82030000Y-162600000D02*
X87170000Y-162600000D01*
X82030000Y-162600000D02*
X82030000Y-165200000D01*
X80760000Y-162600000D02*
X79430000Y-162600000D01*
X79430000Y-162600000D02*
X79430000Y-163930000D01*
X82030000Y-165200000D02*
X79430000Y-165200000D01*
X79430000Y-165200000D02*
X79430000Y-167800000D01*
X79430000Y-167800000D02*
X87170000Y-167800000D01*
X73822936Y-162990000D02*
X75277064Y-162990000D01*
X73822936Y-164810000D02*
X75277064Y-164810000D01*
%LPC*%
D12*
X67399999Y-166499999D03*
D13*
X67400000Y-163960000D03*
D14*
X80759999Y-163929999D03*
D15*
X80759999Y-166469999D03*
X83299999Y-163929999D03*
X83299999Y-166469999D03*
X85839999Y-163929999D03*
X85839999Y-166469999D03*
D16*
X73000000Y-163900000D03*
X76100000Y-163900000D03*
M02*
