%TF.GenerationSoftware,KiCad,Pcbnew,(6.99.0-2452-gdb4f2d9dd8)*%
%TF.CreationDate,2022-08-01T23:27:35-05:00*%
%TF.ProjectId,AWS,4157532e-6b69-4636-9164-5f7063625858,rev?*%
%TF.SameCoordinates,Original*%
%TF.FileFunction,Drillmap*%
%TF.FilePolarity,Positive*%
%FSLAX45Y45*%
G04 Gerber Fmt 4.5, Leading zero omitted, Abs format (unit mm)*
G04 Created by KiCad (PCBNEW (6.99.0-2452-gdb4f2d9dd8)) date 2022-08-01 23:27:35*
%MOMM*%
%LPD*%
G01*
G04 APERTURE LIST*
%ADD10C,0.100000*%
%ADD11C,0.200000*%
%ADD12C,0.090000*%
G04 APERTURE END LIST*
D10*
X10000000Y-5000000D02*
X17500000Y-5000000D01*
X17500000Y-5000000D02*
X17500000Y-7500000D01*
X17500000Y-7500000D02*
X10000000Y-7500000D01*
X10000000Y-7500000D02*
X10000000Y-5000000D01*
D11*
D12*
X10591000Y-6215000D02*
X10681000Y-6305000D01*
X10681000Y-6215000D02*
X10591000Y-6305000D01*
X10845000Y-6215000D02*
X10935000Y-6305000D01*
X10935000Y-6215000D02*
X10845000Y-6305000D01*
D10*
X10366000Y-6933000D02*
G75*
G03*
X10366000Y-6933000I-50000J0D01*
G01*
X10366000Y-7187000D02*
G75*
G03*
X10366000Y-7187000I-50000J0D01*
G01*
X10620000Y-6933000D02*
G75*
G03*
X10620000Y-6933000I-50000J0D01*
G01*
X10620000Y-7187000D02*
G75*
G03*
X10620000Y-7187000I-50000J0D01*
G01*
X10874000Y-6933000D02*
G75*
G03*
X10874000Y-6933000I-50000J0D01*
G01*
X10874000Y-7187000D02*
G75*
G03*
X10874000Y-7187000I-50000J0D01*
G01*
D11*
X10242619Y-7798476D02*
X10242619Y-7598476D01*
X10242619Y-7598476D02*
X10290238Y-7598476D01*
X10290238Y-7598476D02*
X10318810Y-7608000D01*
X10318810Y-7608000D02*
X10337857Y-7627048D01*
X10337857Y-7627048D02*
X10347381Y-7646095D01*
X10347381Y-7646095D02*
X10356905Y-7684190D01*
X10356905Y-7684190D02*
X10356905Y-7712762D01*
X10356905Y-7712762D02*
X10347381Y-7750857D01*
X10347381Y-7750857D02*
X10337857Y-7769905D01*
X10337857Y-7769905D02*
X10318810Y-7788952D01*
X10318810Y-7788952D02*
X10290238Y-7798476D01*
X10290238Y-7798476D02*
X10242619Y-7798476D01*
X10442619Y-7798476D02*
X10442619Y-7665143D01*
X10442619Y-7703238D02*
X10452143Y-7684190D01*
X10452143Y-7684190D02*
X10461667Y-7674667D01*
X10461667Y-7674667D02*
X10480714Y-7665143D01*
X10480714Y-7665143D02*
X10499762Y-7665143D01*
X10566429Y-7798476D02*
X10566429Y-7665143D01*
X10566429Y-7598476D02*
X10556905Y-7608000D01*
X10556905Y-7608000D02*
X10566429Y-7617524D01*
X10566429Y-7617524D02*
X10575952Y-7608000D01*
X10575952Y-7608000D02*
X10566429Y-7598476D01*
X10566429Y-7598476D02*
X10566429Y-7617524D01*
X10690238Y-7798476D02*
X10671190Y-7788952D01*
X10671190Y-7788952D02*
X10661667Y-7769905D01*
X10661667Y-7769905D02*
X10661667Y-7598476D01*
X10795000Y-7798476D02*
X10775952Y-7788952D01*
X10775952Y-7788952D02*
X10766429Y-7769905D01*
X10766429Y-7769905D02*
X10766429Y-7598476D01*
X10991190Y-7798476D02*
X10991190Y-7598476D01*
X10991190Y-7598476D02*
X11057857Y-7741333D01*
X11057857Y-7741333D02*
X11124524Y-7598476D01*
X11124524Y-7598476D02*
X11124524Y-7798476D01*
X11305476Y-7798476D02*
X11305476Y-7693714D01*
X11305476Y-7693714D02*
X11295952Y-7674667D01*
X11295952Y-7674667D02*
X11276905Y-7665143D01*
X11276905Y-7665143D02*
X11238809Y-7665143D01*
X11238809Y-7665143D02*
X11219762Y-7674667D01*
X11305476Y-7788952D02*
X11286428Y-7798476D01*
X11286428Y-7798476D02*
X11238809Y-7798476D01*
X11238809Y-7798476D02*
X11219762Y-7788952D01*
X11219762Y-7788952D02*
X11210238Y-7769905D01*
X11210238Y-7769905D02*
X11210238Y-7750857D01*
X11210238Y-7750857D02*
X11219762Y-7731809D01*
X11219762Y-7731809D02*
X11238809Y-7722286D01*
X11238809Y-7722286D02*
X11286428Y-7722286D01*
X11286428Y-7722286D02*
X11305476Y-7712762D01*
X11400714Y-7665143D02*
X11400714Y-7865143D01*
X11400714Y-7674667D02*
X11419762Y-7665143D01*
X11419762Y-7665143D02*
X11457857Y-7665143D01*
X11457857Y-7665143D02*
X11476905Y-7674667D01*
X11476905Y-7674667D02*
X11486428Y-7684190D01*
X11486428Y-7684190D02*
X11495952Y-7703238D01*
X11495952Y-7703238D02*
X11495952Y-7760381D01*
X11495952Y-7760381D02*
X11486428Y-7779428D01*
X11486428Y-7779428D02*
X11476905Y-7788952D01*
X11476905Y-7788952D02*
X11457857Y-7798476D01*
X11457857Y-7798476D02*
X11419762Y-7798476D01*
X11419762Y-7798476D02*
X11400714Y-7788952D01*
X11581667Y-7779428D02*
X11591190Y-7788952D01*
X11591190Y-7788952D02*
X11581667Y-7798476D01*
X11581667Y-7798476D02*
X11572143Y-7788952D01*
X11572143Y-7788952D02*
X11581667Y-7779428D01*
X11581667Y-7779428D02*
X11581667Y-7798476D01*
X11581667Y-7674667D02*
X11591190Y-7684190D01*
X11591190Y-7684190D02*
X11581667Y-7693714D01*
X11581667Y-7693714D02*
X11572143Y-7684190D01*
X11572143Y-7684190D02*
X11581667Y-7674667D01*
X11581667Y-7674667D02*
X11581667Y-7693714D01*
D12*
X9905000Y-8100000D02*
X9995000Y-8190000D01*
X9995000Y-8100000D02*
X9905000Y-8190000D01*
D11*
X10280714Y-8018476D02*
X10299762Y-8018476D01*
X10299762Y-8018476D02*
X10318810Y-8028000D01*
X10318810Y-8028000D02*
X10328333Y-8037524D01*
X10328333Y-8037524D02*
X10337857Y-8056571D01*
X10337857Y-8056571D02*
X10347381Y-8094667D01*
X10347381Y-8094667D02*
X10347381Y-8142286D01*
X10347381Y-8142286D02*
X10337857Y-8180381D01*
X10337857Y-8180381D02*
X10328333Y-8199428D01*
X10328333Y-8199428D02*
X10318810Y-8208952D01*
X10318810Y-8208952D02*
X10299762Y-8218476D01*
X10299762Y-8218476D02*
X10280714Y-8218476D01*
X10280714Y-8218476D02*
X10261667Y-8208952D01*
X10261667Y-8208952D02*
X10252143Y-8199428D01*
X10252143Y-8199428D02*
X10242619Y-8180381D01*
X10242619Y-8180381D02*
X10233095Y-8142286D01*
X10233095Y-8142286D02*
X10233095Y-8094667D01*
X10233095Y-8094667D02*
X10242619Y-8056571D01*
X10242619Y-8056571D02*
X10252143Y-8037524D01*
X10252143Y-8037524D02*
X10261667Y-8028000D01*
X10261667Y-8028000D02*
X10280714Y-8018476D01*
X10433095Y-8199428D02*
X10442619Y-8208952D01*
X10442619Y-8208952D02*
X10433095Y-8218476D01*
X10433095Y-8218476D02*
X10423571Y-8208952D01*
X10423571Y-8208952D02*
X10433095Y-8199428D01*
X10433095Y-8199428D02*
X10433095Y-8218476D01*
X10537857Y-8218476D02*
X10575952Y-8218476D01*
X10575952Y-8218476D02*
X10595000Y-8208952D01*
X10595000Y-8208952D02*
X10604524Y-8199428D01*
X10604524Y-8199428D02*
X10623571Y-8170857D01*
X10623571Y-8170857D02*
X10633095Y-8132762D01*
X10633095Y-8132762D02*
X10633095Y-8056571D01*
X10633095Y-8056571D02*
X10623571Y-8037524D01*
X10623571Y-8037524D02*
X10614048Y-8028000D01*
X10614048Y-8028000D02*
X10595000Y-8018476D01*
X10595000Y-8018476D02*
X10556905Y-8018476D01*
X10556905Y-8018476D02*
X10537857Y-8028000D01*
X10537857Y-8028000D02*
X10528333Y-8037524D01*
X10528333Y-8037524D02*
X10518810Y-8056571D01*
X10518810Y-8056571D02*
X10518810Y-8104190D01*
X10518810Y-8104190D02*
X10528333Y-8123238D01*
X10528333Y-8123238D02*
X10537857Y-8132762D01*
X10537857Y-8132762D02*
X10556905Y-8142286D01*
X10556905Y-8142286D02*
X10595000Y-8142286D01*
X10595000Y-8142286D02*
X10614048Y-8132762D01*
X10614048Y-8132762D02*
X10623571Y-8123238D01*
X10623571Y-8123238D02*
X10633095Y-8104190D01*
X10756905Y-8018476D02*
X10775952Y-8018476D01*
X10775952Y-8018476D02*
X10795000Y-8028000D01*
X10795000Y-8028000D02*
X10804524Y-8037524D01*
X10804524Y-8037524D02*
X10814048Y-8056571D01*
X10814048Y-8056571D02*
X10823571Y-8094667D01*
X10823571Y-8094667D02*
X10823571Y-8142286D01*
X10823571Y-8142286D02*
X10814048Y-8180381D01*
X10814048Y-8180381D02*
X10804524Y-8199428D01*
X10804524Y-8199428D02*
X10795000Y-8208952D01*
X10795000Y-8208952D02*
X10775952Y-8218476D01*
X10775952Y-8218476D02*
X10756905Y-8218476D01*
X10756905Y-8218476D02*
X10737857Y-8208952D01*
X10737857Y-8208952D02*
X10728333Y-8199428D01*
X10728333Y-8199428D02*
X10718810Y-8180381D01*
X10718810Y-8180381D02*
X10709286Y-8142286D01*
X10709286Y-8142286D02*
X10709286Y-8094667D01*
X10709286Y-8094667D02*
X10718810Y-8056571D01*
X10718810Y-8056571D02*
X10728333Y-8037524D01*
X10728333Y-8037524D02*
X10737857Y-8028000D01*
X10737857Y-8028000D02*
X10756905Y-8018476D01*
X10947381Y-8018476D02*
X10966429Y-8018476D01*
X10966429Y-8018476D02*
X10985476Y-8028000D01*
X10985476Y-8028000D02*
X10995000Y-8037524D01*
X10995000Y-8037524D02*
X11004524Y-8056571D01*
X11004524Y-8056571D02*
X11014048Y-8094667D01*
X11014048Y-8094667D02*
X11014048Y-8142286D01*
X11014048Y-8142286D02*
X11004524Y-8180381D01*
X11004524Y-8180381D02*
X10995000Y-8199428D01*
X10995000Y-8199428D02*
X10985476Y-8208952D01*
X10985476Y-8208952D02*
X10966429Y-8218476D01*
X10966429Y-8218476D02*
X10947381Y-8218476D01*
X10947381Y-8218476D02*
X10928333Y-8208952D01*
X10928333Y-8208952D02*
X10918810Y-8199428D01*
X10918810Y-8199428D02*
X10909286Y-8180381D01*
X10909286Y-8180381D02*
X10899762Y-8142286D01*
X10899762Y-8142286D02*
X10899762Y-8094667D01*
X10899762Y-8094667D02*
X10909286Y-8056571D01*
X10909286Y-8056571D02*
X10918810Y-8037524D01*
X10918810Y-8037524D02*
X10928333Y-8028000D01*
X10928333Y-8028000D02*
X10947381Y-8018476D01*
X11099762Y-8218476D02*
X11099762Y-8085143D01*
X11099762Y-8104190D02*
X11109286Y-8094667D01*
X11109286Y-8094667D02*
X11128333Y-8085143D01*
X11128333Y-8085143D02*
X11156905Y-8085143D01*
X11156905Y-8085143D02*
X11175952Y-8094667D01*
X11175952Y-8094667D02*
X11185476Y-8113714D01*
X11185476Y-8113714D02*
X11185476Y-8218476D01*
X11185476Y-8113714D02*
X11195000Y-8094667D01*
X11195000Y-8094667D02*
X11214048Y-8085143D01*
X11214048Y-8085143D02*
X11242619Y-8085143D01*
X11242619Y-8085143D02*
X11261667Y-8094667D01*
X11261667Y-8094667D02*
X11271190Y-8113714D01*
X11271190Y-8113714D02*
X11271190Y-8218476D01*
X11366429Y-8218476D02*
X11366429Y-8085143D01*
X11366429Y-8104190D02*
X11375952Y-8094667D01*
X11375952Y-8094667D02*
X11395000Y-8085143D01*
X11395000Y-8085143D02*
X11423571Y-8085143D01*
X11423571Y-8085143D02*
X11442619Y-8094667D01*
X11442619Y-8094667D02*
X11452143Y-8113714D01*
X11452143Y-8113714D02*
X11452143Y-8218476D01*
X11452143Y-8113714D02*
X11461667Y-8094667D01*
X11461667Y-8094667D02*
X11480714Y-8085143D01*
X11480714Y-8085143D02*
X11509286Y-8085143D01*
X11509286Y-8085143D02*
X11528333Y-8094667D01*
X11528333Y-8094667D02*
X11537857Y-8113714D01*
X11537857Y-8113714D02*
X11537857Y-8218476D01*
X11895952Y-8008952D02*
X11724524Y-8266095D01*
X12120714Y-8018476D02*
X12139762Y-8018476D01*
X12139762Y-8018476D02*
X12158810Y-8028000D01*
X12158810Y-8028000D02*
X12168333Y-8037524D01*
X12168333Y-8037524D02*
X12177857Y-8056571D01*
X12177857Y-8056571D02*
X12187381Y-8094667D01*
X12187381Y-8094667D02*
X12187381Y-8142286D01*
X12187381Y-8142286D02*
X12177857Y-8180381D01*
X12177857Y-8180381D02*
X12168333Y-8199428D01*
X12168333Y-8199428D02*
X12158810Y-8208952D01*
X12158810Y-8208952D02*
X12139762Y-8218476D01*
X12139762Y-8218476D02*
X12120714Y-8218476D01*
X12120714Y-8218476D02*
X12101667Y-8208952D01*
X12101667Y-8208952D02*
X12092143Y-8199428D01*
X12092143Y-8199428D02*
X12082619Y-8180381D01*
X12082619Y-8180381D02*
X12073095Y-8142286D01*
X12073095Y-8142286D02*
X12073095Y-8094667D01*
X12073095Y-8094667D02*
X12082619Y-8056571D01*
X12082619Y-8056571D02*
X12092143Y-8037524D01*
X12092143Y-8037524D02*
X12101667Y-8028000D01*
X12101667Y-8028000D02*
X12120714Y-8018476D01*
X12273095Y-8199428D02*
X12282619Y-8208952D01*
X12282619Y-8208952D02*
X12273095Y-8218476D01*
X12273095Y-8218476D02*
X12263571Y-8208952D01*
X12263571Y-8208952D02*
X12273095Y-8199428D01*
X12273095Y-8199428D02*
X12273095Y-8218476D01*
X12406429Y-8018476D02*
X12425476Y-8018476D01*
X12425476Y-8018476D02*
X12444524Y-8028000D01*
X12444524Y-8028000D02*
X12454048Y-8037524D01*
X12454048Y-8037524D02*
X12463571Y-8056571D01*
X12463571Y-8056571D02*
X12473095Y-8094667D01*
X12473095Y-8094667D02*
X12473095Y-8142286D01*
X12473095Y-8142286D02*
X12463571Y-8180381D01*
X12463571Y-8180381D02*
X12454048Y-8199428D01*
X12454048Y-8199428D02*
X12444524Y-8208952D01*
X12444524Y-8208952D02*
X12425476Y-8218476D01*
X12425476Y-8218476D02*
X12406429Y-8218476D01*
X12406429Y-8218476D02*
X12387381Y-8208952D01*
X12387381Y-8208952D02*
X12377857Y-8199428D01*
X12377857Y-8199428D02*
X12368333Y-8180381D01*
X12368333Y-8180381D02*
X12358810Y-8142286D01*
X12358810Y-8142286D02*
X12358810Y-8094667D01*
X12358810Y-8094667D02*
X12368333Y-8056571D01*
X12368333Y-8056571D02*
X12377857Y-8037524D01*
X12377857Y-8037524D02*
X12387381Y-8028000D01*
X12387381Y-8028000D02*
X12406429Y-8018476D01*
X12539762Y-8018476D02*
X12663571Y-8018476D01*
X12663571Y-8018476D02*
X12596905Y-8094667D01*
X12596905Y-8094667D02*
X12625476Y-8094667D01*
X12625476Y-8094667D02*
X12644524Y-8104190D01*
X12644524Y-8104190D02*
X12654048Y-8113714D01*
X12654048Y-8113714D02*
X12663571Y-8132762D01*
X12663571Y-8132762D02*
X12663571Y-8180381D01*
X12663571Y-8180381D02*
X12654048Y-8199428D01*
X12654048Y-8199428D02*
X12644524Y-8208952D01*
X12644524Y-8208952D02*
X12625476Y-8218476D01*
X12625476Y-8218476D02*
X12568333Y-8218476D01*
X12568333Y-8218476D02*
X12549286Y-8208952D01*
X12549286Y-8208952D02*
X12539762Y-8199428D01*
X12844524Y-8018476D02*
X12749286Y-8018476D01*
X12749286Y-8018476D02*
X12739762Y-8113714D01*
X12739762Y-8113714D02*
X12749286Y-8104190D01*
X12749286Y-8104190D02*
X12768333Y-8094667D01*
X12768333Y-8094667D02*
X12815952Y-8094667D01*
X12815952Y-8094667D02*
X12835000Y-8104190D01*
X12835000Y-8104190D02*
X12844524Y-8113714D01*
X12844524Y-8113714D02*
X12854048Y-8132762D01*
X12854048Y-8132762D02*
X12854048Y-8180381D01*
X12854048Y-8180381D02*
X12844524Y-8199428D01*
X12844524Y-8199428D02*
X12835000Y-8208952D01*
X12835000Y-8208952D02*
X12815952Y-8218476D01*
X12815952Y-8218476D02*
X12768333Y-8218476D01*
X12768333Y-8218476D02*
X12749286Y-8208952D01*
X12749286Y-8208952D02*
X12739762Y-8199428D01*
X13025476Y-8085143D02*
X13025476Y-8218476D01*
X12977857Y-8008952D02*
X12930238Y-8151809D01*
X12930238Y-8151809D02*
X13054048Y-8151809D01*
X13120714Y-8018476D02*
X13120714Y-8056571D01*
X13196905Y-8018476D02*
X13196905Y-8056571D01*
X13459762Y-8294667D02*
X13450238Y-8285143D01*
X13450238Y-8285143D02*
X13431191Y-8256571D01*
X13431191Y-8256571D02*
X13421667Y-8237524D01*
X13421667Y-8237524D02*
X13412143Y-8208952D01*
X13412143Y-8208952D02*
X13402619Y-8161333D01*
X13402619Y-8161333D02*
X13402619Y-8123238D01*
X13402619Y-8123238D02*
X13412143Y-8075619D01*
X13412143Y-8075619D02*
X13421667Y-8047048D01*
X13421667Y-8047048D02*
X13431191Y-8028000D01*
X13431191Y-8028000D02*
X13450238Y-7999428D01*
X13450238Y-7999428D02*
X13459762Y-7989905D01*
X13526429Y-8037524D02*
X13535952Y-8028000D01*
X13535952Y-8028000D02*
X13555000Y-8018476D01*
X13555000Y-8018476D02*
X13602619Y-8018476D01*
X13602619Y-8018476D02*
X13621667Y-8028000D01*
X13621667Y-8028000D02*
X13631191Y-8037524D01*
X13631191Y-8037524D02*
X13640714Y-8056571D01*
X13640714Y-8056571D02*
X13640714Y-8075619D01*
X13640714Y-8075619D02*
X13631191Y-8104190D01*
X13631191Y-8104190D02*
X13516905Y-8218476D01*
X13516905Y-8218476D02*
X13640714Y-8218476D01*
X13846429Y-8218476D02*
X13846429Y-8018476D01*
X13932143Y-8218476D02*
X13932143Y-8113714D01*
X13932143Y-8113714D02*
X13922619Y-8094667D01*
X13922619Y-8094667D02*
X13903572Y-8085143D01*
X13903572Y-8085143D02*
X13875000Y-8085143D01*
X13875000Y-8085143D02*
X13855952Y-8094667D01*
X13855952Y-8094667D02*
X13846429Y-8104190D01*
X14055952Y-8218476D02*
X14036905Y-8208952D01*
X14036905Y-8208952D02*
X14027381Y-8199428D01*
X14027381Y-8199428D02*
X14017857Y-8180381D01*
X14017857Y-8180381D02*
X14017857Y-8123238D01*
X14017857Y-8123238D02*
X14027381Y-8104190D01*
X14027381Y-8104190D02*
X14036905Y-8094667D01*
X14036905Y-8094667D02*
X14055952Y-8085143D01*
X14055952Y-8085143D02*
X14084524Y-8085143D01*
X14084524Y-8085143D02*
X14103572Y-8094667D01*
X14103572Y-8094667D02*
X14113095Y-8104190D01*
X14113095Y-8104190D02*
X14122619Y-8123238D01*
X14122619Y-8123238D02*
X14122619Y-8180381D01*
X14122619Y-8180381D02*
X14113095Y-8199428D01*
X14113095Y-8199428D02*
X14103572Y-8208952D01*
X14103572Y-8208952D02*
X14084524Y-8218476D01*
X14084524Y-8218476D02*
X14055952Y-8218476D01*
X14236905Y-8218476D02*
X14217857Y-8208952D01*
X14217857Y-8208952D02*
X14208333Y-8189905D01*
X14208333Y-8189905D02*
X14208333Y-8018476D01*
X14389286Y-8208952D02*
X14370238Y-8218476D01*
X14370238Y-8218476D02*
X14332143Y-8218476D01*
X14332143Y-8218476D02*
X14313095Y-8208952D01*
X14313095Y-8208952D02*
X14303572Y-8189905D01*
X14303572Y-8189905D02*
X14303572Y-8113714D01*
X14303572Y-8113714D02*
X14313095Y-8094667D01*
X14313095Y-8094667D02*
X14332143Y-8085143D01*
X14332143Y-8085143D02*
X14370238Y-8085143D01*
X14370238Y-8085143D02*
X14389286Y-8094667D01*
X14389286Y-8094667D02*
X14398810Y-8113714D01*
X14398810Y-8113714D02*
X14398810Y-8132762D01*
X14398810Y-8132762D02*
X14303572Y-8151809D01*
X14475000Y-8208952D02*
X14494048Y-8218476D01*
X14494048Y-8218476D02*
X14532143Y-8218476D01*
X14532143Y-8218476D02*
X14551191Y-8208952D01*
X14551191Y-8208952D02*
X14560714Y-8189905D01*
X14560714Y-8189905D02*
X14560714Y-8180381D01*
X14560714Y-8180381D02*
X14551191Y-8161333D01*
X14551191Y-8161333D02*
X14532143Y-8151809D01*
X14532143Y-8151809D02*
X14503572Y-8151809D01*
X14503572Y-8151809D02*
X14484524Y-8142286D01*
X14484524Y-8142286D02*
X14475000Y-8123238D01*
X14475000Y-8123238D02*
X14475000Y-8113714D01*
X14475000Y-8113714D02*
X14484524Y-8094667D01*
X14484524Y-8094667D02*
X14503572Y-8085143D01*
X14503572Y-8085143D02*
X14532143Y-8085143D01*
X14532143Y-8085143D02*
X14551191Y-8094667D01*
X14627381Y-8294667D02*
X14636905Y-8285143D01*
X14636905Y-8285143D02*
X14655953Y-8256571D01*
X14655953Y-8256571D02*
X14665476Y-8237524D01*
X14665476Y-8237524D02*
X14675000Y-8208952D01*
X14675000Y-8208952D02*
X14684524Y-8161333D01*
X14684524Y-8161333D02*
X14684524Y-8123238D01*
X14684524Y-8123238D02*
X14675000Y-8075619D01*
X14675000Y-8075619D02*
X14665476Y-8047048D01*
X14665476Y-8047048D02*
X14655953Y-8028000D01*
X14655953Y-8028000D02*
X14636905Y-7999428D01*
X14636905Y-7999428D02*
X14627381Y-7989905D01*
D10*
X9995000Y-8409000D02*
G75*
G03*
X9995000Y-8409000I-50000J0D01*
G01*
D11*
X10347381Y-8482476D02*
X10233095Y-8482476D01*
X10290238Y-8482476D02*
X10290238Y-8282476D01*
X10290238Y-8282476D02*
X10271190Y-8311048D01*
X10271190Y-8311048D02*
X10252143Y-8330095D01*
X10252143Y-8330095D02*
X10233095Y-8339619D01*
X10433095Y-8463429D02*
X10442619Y-8472952D01*
X10442619Y-8472952D02*
X10433095Y-8482476D01*
X10433095Y-8482476D02*
X10423571Y-8472952D01*
X10423571Y-8472952D02*
X10433095Y-8463429D01*
X10433095Y-8463429D02*
X10433095Y-8482476D01*
X10566429Y-8282476D02*
X10585476Y-8282476D01*
X10585476Y-8282476D02*
X10604524Y-8292000D01*
X10604524Y-8292000D02*
X10614048Y-8301524D01*
X10614048Y-8301524D02*
X10623571Y-8320571D01*
X10623571Y-8320571D02*
X10633095Y-8358667D01*
X10633095Y-8358667D02*
X10633095Y-8406286D01*
X10633095Y-8406286D02*
X10623571Y-8444381D01*
X10623571Y-8444381D02*
X10614048Y-8463429D01*
X10614048Y-8463429D02*
X10604524Y-8472952D01*
X10604524Y-8472952D02*
X10585476Y-8482476D01*
X10585476Y-8482476D02*
X10566429Y-8482476D01*
X10566429Y-8482476D02*
X10547381Y-8472952D01*
X10547381Y-8472952D02*
X10537857Y-8463429D01*
X10537857Y-8463429D02*
X10528333Y-8444381D01*
X10528333Y-8444381D02*
X10518810Y-8406286D01*
X10518810Y-8406286D02*
X10518810Y-8358667D01*
X10518810Y-8358667D02*
X10528333Y-8320571D01*
X10528333Y-8320571D02*
X10537857Y-8301524D01*
X10537857Y-8301524D02*
X10547381Y-8292000D01*
X10547381Y-8292000D02*
X10566429Y-8282476D01*
X10756905Y-8282476D02*
X10775952Y-8282476D01*
X10775952Y-8282476D02*
X10795000Y-8292000D01*
X10795000Y-8292000D02*
X10804524Y-8301524D01*
X10804524Y-8301524D02*
X10814048Y-8320571D01*
X10814048Y-8320571D02*
X10823571Y-8358667D01*
X10823571Y-8358667D02*
X10823571Y-8406286D01*
X10823571Y-8406286D02*
X10814048Y-8444381D01*
X10814048Y-8444381D02*
X10804524Y-8463429D01*
X10804524Y-8463429D02*
X10795000Y-8472952D01*
X10795000Y-8472952D02*
X10775952Y-8482476D01*
X10775952Y-8482476D02*
X10756905Y-8482476D01*
X10756905Y-8482476D02*
X10737857Y-8472952D01*
X10737857Y-8472952D02*
X10728333Y-8463429D01*
X10728333Y-8463429D02*
X10718810Y-8444381D01*
X10718810Y-8444381D02*
X10709286Y-8406286D01*
X10709286Y-8406286D02*
X10709286Y-8358667D01*
X10709286Y-8358667D02*
X10718810Y-8320571D01*
X10718810Y-8320571D02*
X10728333Y-8301524D01*
X10728333Y-8301524D02*
X10737857Y-8292000D01*
X10737857Y-8292000D02*
X10756905Y-8282476D01*
X10947381Y-8282476D02*
X10966429Y-8282476D01*
X10966429Y-8282476D02*
X10985476Y-8292000D01*
X10985476Y-8292000D02*
X10995000Y-8301524D01*
X10995000Y-8301524D02*
X11004524Y-8320571D01*
X11004524Y-8320571D02*
X11014048Y-8358667D01*
X11014048Y-8358667D02*
X11014048Y-8406286D01*
X11014048Y-8406286D02*
X11004524Y-8444381D01*
X11004524Y-8444381D02*
X10995000Y-8463429D01*
X10995000Y-8463429D02*
X10985476Y-8472952D01*
X10985476Y-8472952D02*
X10966429Y-8482476D01*
X10966429Y-8482476D02*
X10947381Y-8482476D01*
X10947381Y-8482476D02*
X10928333Y-8472952D01*
X10928333Y-8472952D02*
X10918810Y-8463429D01*
X10918810Y-8463429D02*
X10909286Y-8444381D01*
X10909286Y-8444381D02*
X10899762Y-8406286D01*
X10899762Y-8406286D02*
X10899762Y-8358667D01*
X10899762Y-8358667D02*
X10909286Y-8320571D01*
X10909286Y-8320571D02*
X10918810Y-8301524D01*
X10918810Y-8301524D02*
X10928333Y-8292000D01*
X10928333Y-8292000D02*
X10947381Y-8282476D01*
X11099762Y-8482476D02*
X11099762Y-8349143D01*
X11099762Y-8368190D02*
X11109286Y-8358667D01*
X11109286Y-8358667D02*
X11128333Y-8349143D01*
X11128333Y-8349143D02*
X11156905Y-8349143D01*
X11156905Y-8349143D02*
X11175952Y-8358667D01*
X11175952Y-8358667D02*
X11185476Y-8377714D01*
X11185476Y-8377714D02*
X11185476Y-8482476D01*
X11185476Y-8377714D02*
X11195000Y-8358667D01*
X11195000Y-8358667D02*
X11214048Y-8349143D01*
X11214048Y-8349143D02*
X11242619Y-8349143D01*
X11242619Y-8349143D02*
X11261667Y-8358667D01*
X11261667Y-8358667D02*
X11271190Y-8377714D01*
X11271190Y-8377714D02*
X11271190Y-8482476D01*
X11366429Y-8482476D02*
X11366429Y-8349143D01*
X11366429Y-8368190D02*
X11375952Y-8358667D01*
X11375952Y-8358667D02*
X11395000Y-8349143D01*
X11395000Y-8349143D02*
X11423571Y-8349143D01*
X11423571Y-8349143D02*
X11442619Y-8358667D01*
X11442619Y-8358667D02*
X11452143Y-8377714D01*
X11452143Y-8377714D02*
X11452143Y-8482476D01*
X11452143Y-8377714D02*
X11461667Y-8358667D01*
X11461667Y-8358667D02*
X11480714Y-8349143D01*
X11480714Y-8349143D02*
X11509286Y-8349143D01*
X11509286Y-8349143D02*
X11528333Y-8358667D01*
X11528333Y-8358667D02*
X11537857Y-8377714D01*
X11537857Y-8377714D02*
X11537857Y-8482476D01*
X11895952Y-8272952D02*
X11724524Y-8530095D01*
X12120714Y-8282476D02*
X12139762Y-8282476D01*
X12139762Y-8282476D02*
X12158810Y-8292000D01*
X12158810Y-8292000D02*
X12168333Y-8301524D01*
X12168333Y-8301524D02*
X12177857Y-8320571D01*
X12177857Y-8320571D02*
X12187381Y-8358667D01*
X12187381Y-8358667D02*
X12187381Y-8406286D01*
X12187381Y-8406286D02*
X12177857Y-8444381D01*
X12177857Y-8444381D02*
X12168333Y-8463429D01*
X12168333Y-8463429D02*
X12158810Y-8472952D01*
X12158810Y-8472952D02*
X12139762Y-8482476D01*
X12139762Y-8482476D02*
X12120714Y-8482476D01*
X12120714Y-8482476D02*
X12101667Y-8472952D01*
X12101667Y-8472952D02*
X12092143Y-8463429D01*
X12092143Y-8463429D02*
X12082619Y-8444381D01*
X12082619Y-8444381D02*
X12073095Y-8406286D01*
X12073095Y-8406286D02*
X12073095Y-8358667D01*
X12073095Y-8358667D02*
X12082619Y-8320571D01*
X12082619Y-8320571D02*
X12092143Y-8301524D01*
X12092143Y-8301524D02*
X12101667Y-8292000D01*
X12101667Y-8292000D02*
X12120714Y-8282476D01*
X12273095Y-8463429D02*
X12282619Y-8472952D01*
X12282619Y-8472952D02*
X12273095Y-8482476D01*
X12273095Y-8482476D02*
X12263571Y-8472952D01*
X12263571Y-8472952D02*
X12273095Y-8463429D01*
X12273095Y-8463429D02*
X12273095Y-8482476D01*
X12406429Y-8282476D02*
X12425476Y-8282476D01*
X12425476Y-8282476D02*
X12444524Y-8292000D01*
X12444524Y-8292000D02*
X12454048Y-8301524D01*
X12454048Y-8301524D02*
X12463571Y-8320571D01*
X12463571Y-8320571D02*
X12473095Y-8358667D01*
X12473095Y-8358667D02*
X12473095Y-8406286D01*
X12473095Y-8406286D02*
X12463571Y-8444381D01*
X12463571Y-8444381D02*
X12454048Y-8463429D01*
X12454048Y-8463429D02*
X12444524Y-8472952D01*
X12444524Y-8472952D02*
X12425476Y-8482476D01*
X12425476Y-8482476D02*
X12406429Y-8482476D01*
X12406429Y-8482476D02*
X12387381Y-8472952D01*
X12387381Y-8472952D02*
X12377857Y-8463429D01*
X12377857Y-8463429D02*
X12368333Y-8444381D01*
X12368333Y-8444381D02*
X12358810Y-8406286D01*
X12358810Y-8406286D02*
X12358810Y-8358667D01*
X12358810Y-8358667D02*
X12368333Y-8320571D01*
X12368333Y-8320571D02*
X12377857Y-8301524D01*
X12377857Y-8301524D02*
X12387381Y-8292000D01*
X12387381Y-8292000D02*
X12406429Y-8282476D01*
X12539762Y-8282476D02*
X12663571Y-8282476D01*
X12663571Y-8282476D02*
X12596905Y-8358667D01*
X12596905Y-8358667D02*
X12625476Y-8358667D01*
X12625476Y-8358667D02*
X12644524Y-8368190D01*
X12644524Y-8368190D02*
X12654048Y-8377714D01*
X12654048Y-8377714D02*
X12663571Y-8396762D01*
X12663571Y-8396762D02*
X12663571Y-8444381D01*
X12663571Y-8444381D02*
X12654048Y-8463429D01*
X12654048Y-8463429D02*
X12644524Y-8472952D01*
X12644524Y-8472952D02*
X12625476Y-8482476D01*
X12625476Y-8482476D02*
X12568333Y-8482476D01*
X12568333Y-8482476D02*
X12549286Y-8472952D01*
X12549286Y-8472952D02*
X12539762Y-8463429D01*
X12758810Y-8482476D02*
X12796905Y-8482476D01*
X12796905Y-8482476D02*
X12815952Y-8472952D01*
X12815952Y-8472952D02*
X12825476Y-8463429D01*
X12825476Y-8463429D02*
X12844524Y-8434857D01*
X12844524Y-8434857D02*
X12854048Y-8396762D01*
X12854048Y-8396762D02*
X12854048Y-8320571D01*
X12854048Y-8320571D02*
X12844524Y-8301524D01*
X12844524Y-8301524D02*
X12835000Y-8292000D01*
X12835000Y-8292000D02*
X12815952Y-8282476D01*
X12815952Y-8282476D02*
X12777857Y-8282476D01*
X12777857Y-8282476D02*
X12758810Y-8292000D01*
X12758810Y-8292000D02*
X12749286Y-8301524D01*
X12749286Y-8301524D02*
X12739762Y-8320571D01*
X12739762Y-8320571D02*
X12739762Y-8368190D01*
X12739762Y-8368190D02*
X12749286Y-8387238D01*
X12749286Y-8387238D02*
X12758810Y-8396762D01*
X12758810Y-8396762D02*
X12777857Y-8406286D01*
X12777857Y-8406286D02*
X12815952Y-8406286D01*
X12815952Y-8406286D02*
X12835000Y-8396762D01*
X12835000Y-8396762D02*
X12844524Y-8387238D01*
X12844524Y-8387238D02*
X12854048Y-8368190D01*
X13025476Y-8349143D02*
X13025476Y-8482476D01*
X12977857Y-8272952D02*
X12930238Y-8415810D01*
X12930238Y-8415810D02*
X13054048Y-8415810D01*
X13120714Y-8282476D02*
X13120714Y-8320571D01*
X13196905Y-8282476D02*
X13196905Y-8320571D01*
X13459762Y-8558667D02*
X13450238Y-8549143D01*
X13450238Y-8549143D02*
X13431191Y-8520571D01*
X13431191Y-8520571D02*
X13421667Y-8501524D01*
X13421667Y-8501524D02*
X13412143Y-8472952D01*
X13412143Y-8472952D02*
X13402619Y-8425333D01*
X13402619Y-8425333D02*
X13402619Y-8387238D01*
X13402619Y-8387238D02*
X13412143Y-8339619D01*
X13412143Y-8339619D02*
X13421667Y-8311048D01*
X13421667Y-8311048D02*
X13431191Y-8292000D01*
X13431191Y-8292000D02*
X13450238Y-8263428D01*
X13450238Y-8263428D02*
X13459762Y-8253905D01*
X13621667Y-8282476D02*
X13583571Y-8282476D01*
X13583571Y-8282476D02*
X13564524Y-8292000D01*
X13564524Y-8292000D02*
X13555000Y-8301524D01*
X13555000Y-8301524D02*
X13535952Y-8330095D01*
X13535952Y-8330095D02*
X13526429Y-8368190D01*
X13526429Y-8368190D02*
X13526429Y-8444381D01*
X13526429Y-8444381D02*
X13535952Y-8463429D01*
X13535952Y-8463429D02*
X13545476Y-8472952D01*
X13545476Y-8472952D02*
X13564524Y-8482476D01*
X13564524Y-8482476D02*
X13602619Y-8482476D01*
X13602619Y-8482476D02*
X13621667Y-8472952D01*
X13621667Y-8472952D02*
X13631191Y-8463429D01*
X13631191Y-8463429D02*
X13640714Y-8444381D01*
X13640714Y-8444381D02*
X13640714Y-8396762D01*
X13640714Y-8396762D02*
X13631191Y-8377714D01*
X13631191Y-8377714D02*
X13621667Y-8368190D01*
X13621667Y-8368190D02*
X13602619Y-8358667D01*
X13602619Y-8358667D02*
X13564524Y-8358667D01*
X13564524Y-8358667D02*
X13545476Y-8368190D01*
X13545476Y-8368190D02*
X13535952Y-8377714D01*
X13535952Y-8377714D02*
X13526429Y-8396762D01*
X13846429Y-8482476D02*
X13846429Y-8282476D01*
X13932143Y-8482476D02*
X13932143Y-8377714D01*
X13932143Y-8377714D02*
X13922619Y-8358667D01*
X13922619Y-8358667D02*
X13903572Y-8349143D01*
X13903572Y-8349143D02*
X13875000Y-8349143D01*
X13875000Y-8349143D02*
X13855952Y-8358667D01*
X13855952Y-8358667D02*
X13846429Y-8368190D01*
X14055952Y-8482476D02*
X14036905Y-8472952D01*
X14036905Y-8472952D02*
X14027381Y-8463429D01*
X14027381Y-8463429D02*
X14017857Y-8444381D01*
X14017857Y-8444381D02*
X14017857Y-8387238D01*
X14017857Y-8387238D02*
X14027381Y-8368190D01*
X14027381Y-8368190D02*
X14036905Y-8358667D01*
X14036905Y-8358667D02*
X14055952Y-8349143D01*
X14055952Y-8349143D02*
X14084524Y-8349143D01*
X14084524Y-8349143D02*
X14103572Y-8358667D01*
X14103572Y-8358667D02*
X14113095Y-8368190D01*
X14113095Y-8368190D02*
X14122619Y-8387238D01*
X14122619Y-8387238D02*
X14122619Y-8444381D01*
X14122619Y-8444381D02*
X14113095Y-8463429D01*
X14113095Y-8463429D02*
X14103572Y-8472952D01*
X14103572Y-8472952D02*
X14084524Y-8482476D01*
X14084524Y-8482476D02*
X14055952Y-8482476D01*
X14236905Y-8482476D02*
X14217857Y-8472952D01*
X14217857Y-8472952D02*
X14208333Y-8453905D01*
X14208333Y-8453905D02*
X14208333Y-8282476D01*
X14389286Y-8472952D02*
X14370238Y-8482476D01*
X14370238Y-8482476D02*
X14332143Y-8482476D01*
X14332143Y-8482476D02*
X14313095Y-8472952D01*
X14313095Y-8472952D02*
X14303572Y-8453905D01*
X14303572Y-8453905D02*
X14303572Y-8377714D01*
X14303572Y-8377714D02*
X14313095Y-8358667D01*
X14313095Y-8358667D02*
X14332143Y-8349143D01*
X14332143Y-8349143D02*
X14370238Y-8349143D01*
X14370238Y-8349143D02*
X14389286Y-8358667D01*
X14389286Y-8358667D02*
X14398810Y-8377714D01*
X14398810Y-8377714D02*
X14398810Y-8396762D01*
X14398810Y-8396762D02*
X14303572Y-8415810D01*
X14475000Y-8472952D02*
X14494048Y-8482476D01*
X14494048Y-8482476D02*
X14532143Y-8482476D01*
X14532143Y-8482476D02*
X14551191Y-8472952D01*
X14551191Y-8472952D02*
X14560714Y-8453905D01*
X14560714Y-8453905D02*
X14560714Y-8444381D01*
X14560714Y-8444381D02*
X14551191Y-8425333D01*
X14551191Y-8425333D02*
X14532143Y-8415810D01*
X14532143Y-8415810D02*
X14503572Y-8415810D01*
X14503572Y-8415810D02*
X14484524Y-8406286D01*
X14484524Y-8406286D02*
X14475000Y-8387238D01*
X14475000Y-8387238D02*
X14475000Y-8377714D01*
X14475000Y-8377714D02*
X14484524Y-8358667D01*
X14484524Y-8358667D02*
X14503572Y-8349143D01*
X14503572Y-8349143D02*
X14532143Y-8349143D01*
X14532143Y-8349143D02*
X14551191Y-8358667D01*
X14627381Y-8558667D02*
X14636905Y-8549143D01*
X14636905Y-8549143D02*
X14655953Y-8520571D01*
X14655953Y-8520571D02*
X14665476Y-8501524D01*
X14665476Y-8501524D02*
X14675000Y-8472952D01*
X14675000Y-8472952D02*
X14684524Y-8425333D01*
X14684524Y-8425333D02*
X14684524Y-8387238D01*
X14684524Y-8387238D02*
X14675000Y-8339619D01*
X14675000Y-8339619D02*
X14665476Y-8311048D01*
X14665476Y-8311048D02*
X14655953Y-8292000D01*
X14655953Y-8292000D02*
X14636905Y-8263428D01*
X14636905Y-8263428D02*
X14627381Y-8253905D01*
M02*
