<?xml version="1.0" encoding="UTF-8" standalone="no"?>
<!-- Created with Inkscape (http://www.inkscape.org/) -->

<svg
   width="59.665878mm"
   height="51.420052mm"
   viewBox="0 0 59.665879 51.420053"
   version="1.1"
   id="svg2501"
   xml:space="preserve"
   inkscape:version="1.2 (dc2aeda, 2022-05-15)"
   sodipodi:docname="poop emoji face.svg"
   xmlns:inkscape="http://www.inkscape.org/namespaces/inkscape"
   xmlns:sodipodi="http://sodipodi.sourceforge.net/DTD/sodipodi-0.dtd"
   xmlns="http://www.w3.org/2000/svg"
   xmlns:svg="http://www.w3.org/2000/svg"><sodipodi:namedview
     id="namedview2503"
     pagecolor="#ffffff"
     bordercolor="#000000"
     borderopacity="0.25"
     inkscape:showpageshadow="2"
     inkscape:pageopacity="0.0"
     inkscape:pagecheckerboard="0"
     inkscape:deskcolor="#d1d1d1"
     inkscape:document-units="mm"
     showgrid="false"
     inkscape:zoom="2.3786088"
     inkscape:cx="72.73159"
     inkscape:cy="123.39145"
     inkscape:window-width="1994"
     inkscape:window-height="1695"
     inkscape:window-x="1846"
     inkscape:window-y="437"
     inkscape:window-maximized="0"
     inkscape:current-layer="layer1" /><defs
     id="defs2498" /><g
     inkscape:label="Layer 1"
     inkscape:groupmode="layer"
     id="layer1"
     transform="translate(-88.976793,-122.97531)"><path
       style="fill:#000000;stroke-width:0.254"
       d="m 124.24959,173.92628 c 5.48584,-1.12876 9.8193,-3.59496 14.15213,-8.05406 2.2488,-2.31434 2.85552,-3.68918 2.12205,-4.80859 -0.78919,-1.20445 -2.12839,-1.31303 -7.24116,-0.5871 -0.90805,0.12893 -5.7658,0.30713 -10.795,0.39601 -7.32059,0.12937 -10.4276,0.0744 -15.58098,-0.27585 -3.54033,-0.24059 -6.85503,-0.35988 -7.365998,-0.26508 -1.21023,0.22452 -1.81802,0.79381 -1.81802,1.70286 0,1.27118 0.89729,2.56864 3.487408,5.04269 3.72297,3.55616 7.28947,5.51364 12.00659,6.58985 2.76311,0.6304 3.1827,0.68008 6.13154,0.72591 1.59017,0.0247 3.30844,-0.13887 4.90144,-0.46664 z m -19.93011,-18.4397 c 6.91161,-2.05253 11.04442,-11.5715 8.9156,-20.535 -1.42766,-6.01122 -5.3115,-10.1745 -10.36897,-11.11503 -5.694118,-1.05893 -11.472128,3.54718 -13.453048,10.72448 -0.35023,1.26896 -0.44924,2.53917 -0.43495,5.57996 0.0167,3.55694 0.0826,4.12311 0.68269,5.86492 1.67728,4.86859 5.27252,8.74236 8.95081,9.64424 1.36017,0.33351 4.319608,0.2487 5.707868,-0.16357 z m -5.453868,-7.43875 c -1.76233,-1.09454 -3.02126,-3.16042 -3.56688,-5.85314 -0.93312,-4.60517 0.79409,-9.24284 4.0108,-10.76927 2.601628,-1.23456 5.686168,0.55731 7.098118,4.12342 0.45648,1.15292 0.56249,1.9381 0.56858,4.21115 0.007,2.43847 -0.0758,2.99295 -0.64683,4.35744 -0.78647,1.87925 -1.53937,2.85802 -2.87913,3.74288 -1.26049,0.83251 -3.40493,0.92021 -4.584658,0.18752 z m 40.893998,6.51522 c 3.00303,-1.03185 5.31613,-3.24064 6.99032,-6.67506 1.55107,-3.18188 1.89274,-4.78666 1.89274,-8.89001 0,-4.15324 -0.34436,-5.73626 -1.95919,-9.00653 -1.8781,-3.80343 -5.07567,-6.26019 -8.96782,-6.89017 -5.86501,-0.94931 -11.3889,3.54397 -13.3643,10.87087 -0.77192,2.8631 -0.7713,7.08044 0.002,9.97883 1.35001,5.06344 3.778,8.4112 7.32033,10.09345 2.98257,1.41642 5.08174,1.55105 8.08645,0.51861 z m -5.83019,-6.8712 c -1.27365,-0.72141 -2.47919,-2.29687 -3.19633,-4.17715 -0.80988,-2.12345 -0.81632,-5.96172 -0.0135,-8.01742 1.49239,-3.82117 4.3889,-5.5901 7.21794,-4.40806 1.16335,0.48607 2.84516,2.49205 3.51158,4.18841 0.46208,1.17623 0.56587,1.96004 0.57668,4.35536 0.0119,2.63532 -0.052,3.06061 -0.65286,4.34847 -1.73692,3.72265 -4.76076,5.22994 -7.44356,3.71039 z"
       id="path3027"
       sodipodi:nodetypes="ssssscssssssssssccssscsscssscssssscscccscsssccc" /></g></svg>
