<?xml version="1.0" encoding="UTF-8" standalone="no"?>
<!-- Created with Inkscape (http://www.inkscape.org/) -->

<svg
   width="186.80621mm"
   height="172.45924mm"
   viewBox="0 0 186.80622 172.45924"
   version="1.1"
   id="svg5"
   xml:space="preserve"
   sodipodi:docname="poop emoji outline.svg"
   inkscape:version="1.2 (dc2aeda, 2022-05-15)"
   xmlns:inkscape="http://www.inkscape.org/namespaces/inkscape"
   xmlns:sodipodi="http://sodipodi.sourceforge.net/DTD/sodipodi-0.dtd"
   xmlns="http://www.w3.org/2000/svg"
   xmlns:svg="http://www.w3.org/2000/svg"><sodipodi:namedview
     id="namedview7"
     pagecolor="#ffffff"
     bordercolor="#000000"
     borderopacity="0.25"
     inkscape:showpageshadow="2"
     inkscape:pageopacity="0.0"
     inkscape:pagecheckerboard="0"
     inkscape:deskcolor="#d1d1d1"
     inkscape:document-units="mm"
     showgrid="false"
     inkscape:zoom="0.84096521"
     inkscape:cx="321.65421"
     inkscape:cy="583.85293"
     inkscape:window-width="2058"
     inkscape:window-height="1730"
     inkscape:window-x="1782"
     inkscape:window-y="402"
     inkscape:window-maximized="0"
     inkscape:current-layer="layer1" /><defs
     id="defs2" /><g
     inkscape:label="Layer 1"
     inkscape:groupmode="layer"
     id="layer1"
     transform="translate(-2.2409661,1.7674269)"><path
       style="display:inline;fill:none;fill-opacity:1;stroke:#000000;stroke-width:1.6;stroke-dasharray:none;stroke-opacity:1"
       d="M 24.735737,169.39522 C 15.31322,167.39233 7.5838702,160.48368 4.5053302,151.31289 c -0.75512,-2.24948 -1.46282,-6.28885 -1.46436,-8.35831 -0.002,-2.36845 0.79674,-6.63203 1.73315,-9.25399 3.31109,-9.27112 11.4476098,-16.06364 21.1233678,-17.63418 1.293807,-0.21001 2.396207,-0.42567 2.449779,-0.47924 0.05357,-0.0536 -0.37153,-1.09844 -0.944673,-2.32193 -3.268411,-6.97708 -3.277021,-15.709803 -0.02233,-22.657623 2.020215,-4.3126 5.825707,-8.77911 9.607939,-11.27686 3.440954,-2.27238 8.045513,-3.9652 11.758483,-4.32289 0.909505,-0.0876 1.653646,-0.17899 1.653646,-0.20306 0,-0.0241 -0.40445,-0.87006 -0.898782,-1.87997 -5.157004,-10.53573 -2.972118,-23.07989 5.438741,-31.22564 4.375943,-4.23801 9.231881,-6.689386 14.906916,-7.525297 1.789737,-0.263623 2.402728,-0.498819 3.96875,-1.522746 2.321872,-1.518137 6.331098,-5.543595 7.502157,-7.532531 2.268434,-3.852746 3.055906,-7.103814 2.868223,-11.841451 -0.14079,-3.5539264 -0.703154,-6.1968764 -1.927759,-9.0599034 -0.389509,-0.910647 -0.763312,-2.155645 -0.83067,-2.766662 -0.102613,-0.93084599 -0.01304,-1.22036399 0.552529,-1.78593799 0.969632,-0.96963201 1.968381,-0.86967301 5.616631,0.562134 6.854428,2.69011899 14.123682,6.95867399 19.453082,11.42298339 6.52994,5.469964 11.89487,12.840155 14.66635,20.148219 0.4139,1.091406 0.77612,2.020988 0.80493,2.06574 0.0288,0.04475 1.21226,0.318312 2.62988,0.607912 5.33649,1.090173 9.65474,3.40311 13.51274,7.23766 3.67983,3.65747 5.58963,6.842 7.16242,11.94317 0.6836,2.21714 0.72607,2.64896 0.72607,7.38198 0,4.74004 -0.0418,5.16304 -0.73152,7.40833 -0.40234,1.30969 -1.14112,3.23515 -1.64174,4.27881 -1.05045,2.158608 -1.33818,2.082103 0.80313,2.30594 0.94234,0.0965 2.75804,0.47646 4.0349,0.84425 16.30721,4.69722 24.37967,23.09123 16.75676,38.182203 -0.90657,1.79472 -0.838,2.13318 0.43395,2.14204 1.07644,0.007 4.95651,1.37254 7.2458,2.54914 4.38101,2.25166 8.65583,6.32726 11.07935,10.56302 2.11493,3.69643 3.71704,9.58306 3.714,13.64638 -0.002,2.06946 -0.70923,6.10883 -1.46436,8.35831 -3.09919,9.23234 -10.85344,16.12364 -20.3627,18.09661 -2.2903,0.47519 -4.99847,0.49348 -70.908331,0.47891 -65.045365,-0.0144 -68.641349,-0.0394 -70.776041,-0.49319 z"
       id="path362"
       sodipodi:nodetypes="sscsssssssscssssssssssssssssscccscsscsssss"
       inkscape:label="path362" /></g></svg>
