G04 #@! TF.GenerationSoftware,KiCad,Pcbnew,(6.99.0-2452-gdb4f2d9dd8)*
G04 #@! TF.CreationDate,2022-08-02T22:01:28-05:00*
G04 #@! TF.ProjectId,TofG,546f6647-2e6b-4696-9361-645f70636258,rev?*
G04 #@! TF.SameCoordinates,Original*
G04 #@! TF.FileFunction,Copper,L2,Bot*
G04 #@! TF.FilePolarity,Positive*
%FSLAX46Y46*%
G04 Gerber Fmt 4.6, Leading zero omitted, Abs format (unit mm)*
G04 Created by KiCad (PCBNEW (6.99.0-2452-gdb4f2d9dd8)) date 2022-08-02 22:01:28*
%MOMM*%
%LPD*%
G01*
G04 APERTURE LIST*
G04 Aperture macros list*
%AMRoundRect*
0 Rectangle with rounded corners*
0 $1 Rounding radius*
0 $2 $3 $4 $5 $6 $7 $8 $9 X,Y pos of 4 corners*
0 Add a 4 corners polygon primitive as box body*
4,1,4,$2,$3,$4,$5,$6,$7,$8,$9,$2,$3,0*
0 Add four circle primitives for the rounded corners*
1,1,$1+$1,$2,$3*
1,1,$1+$1,$4,$5*
1,1,$1+$1,$6,$7*
1,1,$1+$1,$8,$9*
0 Add four rect primitives between the rounded corners*
20,1,$1+$1,$2,$3,$4,$5,0*
20,1,$1+$1,$4,$5,$6,$7,0*
20,1,$1+$1,$6,$7,$8,$9,0*
20,1,$1+$1,$8,$9,$2,$3,0*%
G04 Aperture macros list end*
%ADD10C,0.300000*%
G04 #@! TA.AperFunction,NonConductor*
%ADD11C,0.300000*%
G04 #@! TD*
G04 #@! TA.AperFunction,ComponentPad*
%ADD12C,1.800000*%
G04 #@! TD*
G04 #@! TA.AperFunction,ComponentPad*
%ADD13R,1.800000X1.800000*%
G04 #@! TD*
G04 #@! TA.AperFunction,ComponentPad*
%ADD14O,1.700000X1.700000*%
G04 #@! TD*
G04 #@! TA.AperFunction,ComponentPad*
%ADD15R,1.700000X1.700000*%
G04 #@! TD*
G04 #@! TA.AperFunction,SMDPad,CuDef*
%ADD16RoundRect,0.250000X-0.625000X0.400000X-0.625000X-0.400000X0.625000X-0.400000X0.625000X0.400000X0*%
G04 #@! TD*
G04 #@! TA.AperFunction,Conductor*
%ADD17C,0.250000*%
G04 #@! TD*
G04 APERTURE END LIST*
D10*
D11*
X81414285Y-58929285D02*
X81485714Y-58857857D01*
X81485714Y-58857857D02*
X81628571Y-58786428D01*
X81628571Y-58786428D02*
X81771428Y-58786428D01*
X81771428Y-58786428D02*
X81914285Y-58857857D01*
X81914285Y-58857857D02*
X81985714Y-58929285D01*
X81985714Y-58929285D02*
X82057142Y-59072142D01*
X82057142Y-59072142D02*
X82057142Y-59215000D01*
X82057142Y-59215000D02*
X81985714Y-59357857D01*
X81985714Y-59357857D02*
X81914285Y-59429285D01*
X81914285Y-59429285D02*
X81771428Y-59500714D01*
X81771428Y-59500714D02*
X81628571Y-59500714D01*
X81628571Y-59500714D02*
X81485714Y-59429285D01*
X81485714Y-59429285D02*
X81414285Y-59357857D01*
X81414285Y-58786428D02*
X81414285Y-59357857D01*
X81414285Y-59357857D02*
X81342857Y-59429285D01*
X81342857Y-59429285D02*
X81271428Y-59429285D01*
X81271428Y-59429285D02*
X81128571Y-59357857D01*
X81128571Y-59357857D02*
X81057142Y-59215000D01*
X81057142Y-59215000D02*
X81057142Y-58857857D01*
X81057142Y-58857857D02*
X81200000Y-58643571D01*
X81200000Y-58643571D02*
X81414285Y-58500714D01*
X81414285Y-58500714D02*
X81700000Y-58429285D01*
X81700000Y-58429285D02*
X81985714Y-58500714D01*
X81985714Y-58500714D02*
X82200000Y-58643571D01*
X82200000Y-58643571D02*
X82342857Y-58857857D01*
X82342857Y-58857857D02*
X82414285Y-59143571D01*
X82414285Y-59143571D02*
X82342857Y-59429285D01*
X82342857Y-59429285D02*
X82200000Y-59643571D01*
X82200000Y-59643571D02*
X81985714Y-59786428D01*
X81985714Y-59786428D02*
X81700000Y-59857857D01*
X81700000Y-59857857D02*
X81414285Y-59786428D01*
X81414285Y-59786428D02*
X81200000Y-59643571D01*
X79771429Y-59643571D02*
X79771429Y-58857857D01*
X79771429Y-58857857D02*
X79842857Y-58715000D01*
X79842857Y-58715000D02*
X79985714Y-58643571D01*
X79985714Y-58643571D02*
X80271429Y-58643571D01*
X80271429Y-58643571D02*
X80414286Y-58715000D01*
X79771429Y-59572142D02*
X79914286Y-59643571D01*
X79914286Y-59643571D02*
X80271429Y-59643571D01*
X80271429Y-59643571D02*
X80414286Y-59572142D01*
X80414286Y-59572142D02*
X80485714Y-59429285D01*
X80485714Y-59429285D02*
X80485714Y-59286428D01*
X80485714Y-59286428D02*
X80414286Y-59143571D01*
X80414286Y-59143571D02*
X80271429Y-59072142D01*
X80271429Y-59072142D02*
X79914286Y-59072142D01*
X79914286Y-59072142D02*
X79771429Y-59000714D01*
X79200000Y-58643571D02*
X78842857Y-59643571D01*
X78842857Y-59643571D02*
X78485714Y-58643571D01*
X78271429Y-59786428D02*
X77128571Y-59786428D01*
X76771429Y-58643571D02*
X76771429Y-60143571D01*
X76771429Y-58715000D02*
X76628572Y-58643571D01*
X76628572Y-58643571D02*
X76342857Y-58643571D01*
X76342857Y-58643571D02*
X76200000Y-58715000D01*
X76200000Y-58715000D02*
X76128572Y-58786428D01*
X76128572Y-58786428D02*
X76057143Y-58929285D01*
X76057143Y-58929285D02*
X76057143Y-59357857D01*
X76057143Y-59357857D02*
X76128572Y-59500714D01*
X76128572Y-59500714D02*
X76200000Y-59572142D01*
X76200000Y-59572142D02*
X76342857Y-59643571D01*
X76342857Y-59643571D02*
X76628572Y-59643571D01*
X76628572Y-59643571D02*
X76771429Y-59572142D01*
X74771429Y-58643571D02*
X74771429Y-59643571D01*
X75414286Y-58643571D02*
X75414286Y-59429285D01*
X75414286Y-59429285D02*
X75342857Y-59572142D01*
X75342857Y-59572142D02*
X75200000Y-59643571D01*
X75200000Y-59643571D02*
X74985714Y-59643571D01*
X74985714Y-59643571D02*
X74842857Y-59572142D01*
X74842857Y-59572142D02*
X74771429Y-59500714D01*
X74057143Y-59643571D02*
X74057143Y-58143571D01*
X74057143Y-58715000D02*
X73914286Y-58643571D01*
X73914286Y-58643571D02*
X73628571Y-58643571D01*
X73628571Y-58643571D02*
X73485714Y-58715000D01*
X73485714Y-58715000D02*
X73414286Y-58786428D01*
X73414286Y-58786428D02*
X73342857Y-58929285D01*
X73342857Y-58929285D02*
X73342857Y-59357857D01*
X73342857Y-59357857D02*
X73414286Y-59500714D01*
X73414286Y-59500714D02*
X73485714Y-59572142D01*
X73485714Y-59572142D02*
X73628571Y-59643571D01*
X73628571Y-59643571D02*
X73914286Y-59643571D01*
X73914286Y-59643571D02*
X74057143Y-59572142D01*
X72771428Y-59572142D02*
X72628571Y-59643571D01*
X72628571Y-59643571D02*
X72342857Y-59643571D01*
X72342857Y-59643571D02*
X72200000Y-59572142D01*
X72200000Y-59572142D02*
X72128571Y-59429285D01*
X72128571Y-59429285D02*
X72128571Y-59357857D01*
X72128571Y-59357857D02*
X72200000Y-59215000D01*
X72200000Y-59215000D02*
X72342857Y-59143571D01*
X72342857Y-59143571D02*
X72557143Y-59143571D01*
X72557143Y-59143571D02*
X72700000Y-59072142D01*
X72700000Y-59072142D02*
X72771428Y-58929285D01*
X72771428Y-58929285D02*
X72771428Y-58857857D01*
X72771428Y-58857857D02*
X72700000Y-58715000D01*
X72700000Y-58715000D02*
X72557143Y-58643571D01*
X72557143Y-58643571D02*
X72342857Y-58643571D01*
X72342857Y-58643571D02*
X72200000Y-58715000D01*
X82485714Y-61073571D02*
X82128571Y-62073571D01*
X82128571Y-62073571D02*
X81771428Y-61073571D01*
X80414285Y-62073571D02*
X81271428Y-62073571D01*
X80842857Y-62073571D02*
X80842857Y-60573571D01*
X80842857Y-60573571D02*
X80985714Y-60787857D01*
X80985714Y-60787857D02*
X81128571Y-60930714D01*
X81128571Y-60930714D02*
X81271428Y-61002142D01*
D12*
X67360000Y-60500000D03*
D13*
X69899999Y-60499999D03*
D14*
X58339999Y-98469999D03*
X58339999Y-95929999D03*
X55799999Y-98469999D03*
X55799999Y-95929999D03*
X53259999Y-98469999D03*
D15*
X53259999Y-95929999D03*
D16*
X58400000Y-68250000D03*
X58400000Y-71350000D03*
D17*
X69900000Y-95800000D02*
X61200000Y-104500000D01*
X69900000Y-60500000D02*
X69900000Y-95800000D01*
X59290000Y-104500000D02*
X53260000Y-98470000D01*
X61200000Y-104500000D02*
X59290000Y-104500000D01*
X58400000Y-68250000D02*
X59610000Y-68250000D01*
X59610000Y-68250000D02*
X67360000Y-60500000D01*
X53260000Y-95930000D02*
X53260000Y-76490000D01*
X53260000Y-76490000D02*
X58400000Y-71350000D01*
G04 #@! TA.AperFunction,NonConductor*
G36*
X54783439Y-96841388D02*
G01*
X54815755Y-96866638D01*
X54836526Y-96889201D01*
X54876760Y-96932906D01*
X55054424Y-97071189D01*
X55059005Y-97073668D01*
X55087680Y-97089186D01*
X55138071Y-97139199D01*
X55153423Y-97208516D01*
X55128863Y-97275129D01*
X55087681Y-97310813D01*
X55054424Y-97328811D01*
X55050313Y-97332010D01*
X55050311Y-97332012D01*
X54895861Y-97452227D01*
X54876760Y-97467094D01*
X54873228Y-97470931D01*
X54727806Y-97628899D01*
X54727803Y-97628903D01*
X54724278Y-97632732D01*
X54721427Y-97637096D01*
X54635483Y-97768643D01*
X54581479Y-97814732D01*
X54511132Y-97824307D01*
X54446774Y-97794330D01*
X54424517Y-97768643D01*
X54338573Y-97637096D01*
X54335722Y-97632732D01*
X54332197Y-97628903D01*
X54332194Y-97628899D01*
X54192525Y-97477180D01*
X54161104Y-97413515D01*
X54169091Y-97342969D01*
X54213949Y-97287940D01*
X54241191Y-97273787D01*
X54356204Y-97230889D01*
X54368536Y-97221658D01*
X54466050Y-97148659D01*
X54473261Y-97143261D01*
X54560889Y-97026204D01*
X54604998Y-96907944D01*
X54647545Y-96851108D01*
X54714065Y-96826297D01*
X54783439Y-96841388D01*
G37*
G04 #@! TD.AperFunction*
G04 #@! TA.AperFunction,NonConductor*
G36*
X57153226Y-96605670D02*
G01*
X57175483Y-96631357D01*
X57264278Y-96767268D01*
X57267803Y-96771097D01*
X57267806Y-96771101D01*
X57332511Y-96841388D01*
X57416760Y-96932906D01*
X57594424Y-97071189D01*
X57599005Y-97073668D01*
X57627680Y-97089186D01*
X57678071Y-97139199D01*
X57693423Y-97208516D01*
X57668863Y-97275129D01*
X57627681Y-97310813D01*
X57594424Y-97328811D01*
X57590313Y-97332010D01*
X57590311Y-97332012D01*
X57435861Y-97452227D01*
X57416760Y-97467094D01*
X57413228Y-97470931D01*
X57267806Y-97628899D01*
X57267803Y-97628903D01*
X57264278Y-97632732D01*
X57261427Y-97637096D01*
X57175483Y-97768643D01*
X57121479Y-97814732D01*
X57051132Y-97824307D01*
X56986774Y-97794330D01*
X56964517Y-97768643D01*
X56878573Y-97637096D01*
X56875722Y-97632732D01*
X56872197Y-97628903D01*
X56872194Y-97628899D01*
X56726772Y-97470931D01*
X56723240Y-97467094D01*
X56704139Y-97452227D01*
X56549689Y-97332012D01*
X56549687Y-97332010D01*
X56545576Y-97328811D01*
X56512320Y-97310814D01*
X56461929Y-97260801D01*
X56446577Y-97191484D01*
X56471137Y-97124871D01*
X56512320Y-97089186D01*
X56540995Y-97073668D01*
X56545576Y-97071189D01*
X56723240Y-96932906D01*
X56807489Y-96841388D01*
X56872194Y-96771101D01*
X56872197Y-96771097D01*
X56875722Y-96767268D01*
X56964517Y-96631357D01*
X57018521Y-96585268D01*
X57088868Y-96575693D01*
X57153226Y-96605670D01*
G37*
G04 #@! TD.AperFunction*
G04 #@! TA.AperFunction,NonConductor*
G36*
X70563030Y-48619918D02*
G01*
X70577708Y-48620186D01*
X70586953Y-48620355D01*
X70591549Y-48620523D01*
X70615456Y-48621834D01*
X70617718Y-48621979D01*
X72733557Y-48776838D01*
X72735839Y-48777026D01*
X72750332Y-48778353D01*
X72759665Y-48779208D01*
X72764240Y-48779712D01*
X72787940Y-48782759D01*
X72790219Y-48783073D01*
X74889107Y-49091966D01*
X74891378Y-49092321D01*
X74914988Y-49096237D01*
X74919516Y-49097074D01*
X74942849Y-49101826D01*
X74945100Y-49102305D01*
X77015973Y-49563612D01*
X77018214Y-49564133D01*
X77041391Y-49569742D01*
X77045847Y-49570907D01*
X77068810Y-49577361D01*
X77071017Y-49578003D01*
X79102606Y-50189216D01*
X79104804Y-50189899D01*
X79127588Y-50197210D01*
X79131924Y-50198689D01*
X79154407Y-50206821D01*
X79156562Y-50207623D01*
X81138083Y-50965491D01*
X81140222Y-50966332D01*
X81162389Y-50975277D01*
X81166628Y-50977078D01*
X81188464Y-50986832D01*
X81190557Y-50987790D01*
X83111455Y-51888270D01*
X83113506Y-51889254D01*
X83135004Y-51899815D01*
X83139072Y-51901907D01*
X83160141Y-51913231D01*
X83162157Y-51914338D01*
X83846244Y-52298266D01*
X85012253Y-52952662D01*
X85014156Y-52953753D01*
X85028105Y-52961920D01*
X85034844Y-52965866D01*
X85038732Y-52968238D01*
X85059040Y-52981147D01*
X85060758Y-52982261D01*
X86396061Y-53865689D01*
X86830182Y-54152901D01*
X86832088Y-54154188D01*
X86851797Y-54167751D01*
X86855525Y-54170417D01*
X86872214Y-54182824D01*
X86874714Y-54184683D01*
X86876546Y-54186071D01*
X87799463Y-54898724D01*
X88555767Y-55482723D01*
X88557547Y-55484124D01*
X88576182Y-55499065D01*
X88579697Y-55501990D01*
X88596066Y-55516126D01*
X88597792Y-55517617D01*
X88599517Y-55519135D01*
X90179549Y-56934850D01*
X90181248Y-56936400D01*
X90198784Y-56952699D01*
X90202098Y-56955895D01*
X90218969Y-56972766D01*
X90220582Y-56974408D01*
X91693075Y-58501699D01*
X91694655Y-58503368D01*
X91710943Y-58520891D01*
X91713993Y-58524294D01*
X91729653Y-58542427D01*
X91731088Y-58544120D01*
X92283735Y-59208194D01*
X93088210Y-60174872D01*
X93089665Y-60176655D01*
X93104592Y-60195273D01*
X93107404Y-60198914D01*
X93121687Y-60218126D01*
X93122968Y-60219882D01*
X94320113Y-61893182D01*
X94357430Y-61945342D01*
X94358748Y-61947221D01*
X94366926Y-61959104D01*
X94372315Y-61966934D01*
X94374847Y-61970761D01*
X94387694Y-61990974D01*
X94388908Y-61992923D01*
X95494054Y-63803773D01*
X95495236Y-63805750D01*
X95507340Y-63826424D01*
X95509589Y-63830432D01*
X95520885Y-63851448D01*
X95521958Y-63853488D01*
X96492002Y-65740236D01*
X96493036Y-65742294D01*
X96503584Y-65763766D01*
X96505538Y-65767933D01*
X96515280Y-65789743D01*
X96516199Y-65791852D01*
X97345941Y-67744399D01*
X97346821Y-67746525D01*
X97355754Y-67768661D01*
X97357398Y-67772958D01*
X97365545Y-67795483D01*
X97366308Y-67797656D01*
X98051292Y-69805508D01*
X98052015Y-69807692D01*
X98059317Y-69830447D01*
X98060645Y-69834861D01*
X98067091Y-69857801D01*
X98067692Y-69860016D01*
X98604312Y-71912610D01*
X98604873Y-71914839D01*
X98610497Y-71938075D01*
X98611491Y-71942540D01*
X98615206Y-71960781D01*
X98616260Y-71965956D01*
X98616698Y-71968211D01*
X99002050Y-74054475D01*
X99002447Y-74056738D01*
X99006362Y-74080341D01*
X99007021Y-74084814D01*
X99010067Y-74108507D01*
X99010339Y-74110789D01*
X99242379Y-76219643D01*
X99242610Y-76221933D01*
X99244788Y-76245715D01*
X99245124Y-76250306D01*
X99246431Y-76274138D01*
X99246536Y-76276436D01*
X99324019Y-78396558D01*
X99324082Y-78398857D01*
X99324519Y-78422757D01*
X99324519Y-78427363D01*
X99324082Y-78451263D01*
X99324019Y-78453562D01*
X99246536Y-80573684D01*
X99246431Y-80575982D01*
X99245124Y-80599814D01*
X99244788Y-80604405D01*
X99242610Y-80628187D01*
X99242379Y-80630477D01*
X99010339Y-82739331D01*
X99010073Y-82741560D01*
X99007021Y-82765306D01*
X99006362Y-82769779D01*
X99002967Y-82790246D01*
X99002447Y-82793382D01*
X99002050Y-82795645D01*
X98616698Y-84881909D01*
X98616260Y-84884164D01*
X98611491Y-84907580D01*
X98610497Y-84912045D01*
X98604873Y-84935281D01*
X98604312Y-84937510D01*
X98067692Y-86990104D01*
X98067091Y-86992319D01*
X98060645Y-87015259D01*
X98059317Y-87019673D01*
X98052015Y-87042428D01*
X98051292Y-87044612D01*
X97366308Y-89052464D01*
X97365545Y-89054637D01*
X97357398Y-89077162D01*
X97355754Y-89081459D01*
X97346821Y-89103595D01*
X97345941Y-89105721D01*
X96516199Y-91058268D01*
X96515280Y-91060377D01*
X96505538Y-91082187D01*
X96503584Y-91086354D01*
X96493036Y-91107826D01*
X96492002Y-91109884D01*
X95521958Y-92996632D01*
X95520885Y-92998672D01*
X95509589Y-93019688D01*
X95507340Y-93023696D01*
X95495236Y-93044370D01*
X95494054Y-93046347D01*
X94388908Y-94857197D01*
X94387694Y-94859146D01*
X94374847Y-94879359D01*
X94372315Y-94883186D01*
X94366926Y-94891016D01*
X94358748Y-94902899D01*
X94357433Y-94904774D01*
X93122968Y-96630238D01*
X93121687Y-96631994D01*
X93107404Y-96651206D01*
X93104592Y-96654847D01*
X93089665Y-96673465D01*
X93088218Y-96675238D01*
X92131956Y-97824307D01*
X91731088Y-98306000D01*
X91729653Y-98307693D01*
X91713993Y-98325826D01*
X91710943Y-98329229D01*
X91694655Y-98346752D01*
X91693075Y-98348421D01*
X90220582Y-99875712D01*
X90218969Y-99877354D01*
X90202098Y-99894225D01*
X90198784Y-99897421D01*
X90181248Y-99913720D01*
X90179549Y-99915270D01*
X88599517Y-101330985D01*
X88597792Y-101332503D01*
X88579697Y-101348130D01*
X88576182Y-101351055D01*
X88557547Y-101365996D01*
X88555767Y-101367397D01*
X87799463Y-101951396D01*
X86876546Y-102664049D01*
X86874714Y-102665437D01*
X86855525Y-102679703D01*
X86851797Y-102682369D01*
X86832088Y-102695932D01*
X86830182Y-102697219D01*
X85060758Y-103867859D01*
X85059040Y-103868973D01*
X85038732Y-103881882D01*
X85034844Y-103884254D01*
X85014156Y-103896367D01*
X85012253Y-103897458D01*
X83846244Y-104551854D01*
X83162157Y-104935782D01*
X83160141Y-104936889D01*
X83139072Y-104948213D01*
X83135004Y-104950305D01*
X83116560Y-104959366D01*
X83113527Y-104960856D01*
X83111455Y-104961850D01*
X81190557Y-105862330D01*
X81188464Y-105863288D01*
X81166628Y-105873042D01*
X81162389Y-105874843D01*
X81140222Y-105883788D01*
X81138083Y-105884629D01*
X79156562Y-106642497D01*
X79154409Y-106643298D01*
X79131924Y-106651431D01*
X79127588Y-106652910D01*
X79104804Y-106660221D01*
X79102606Y-106660904D01*
X77071017Y-107272117D01*
X77068810Y-107272759D01*
X77045847Y-107279213D01*
X77041391Y-107280378D01*
X77018214Y-107285987D01*
X77015973Y-107286508D01*
X74945100Y-107747815D01*
X74942849Y-107748294D01*
X74919516Y-107753046D01*
X74914988Y-107753883D01*
X74891378Y-107757799D01*
X74889107Y-107758154D01*
X72790219Y-108067047D01*
X72787940Y-108067361D01*
X72764240Y-108070408D01*
X72759665Y-108070912D01*
X72750332Y-108071767D01*
X72735839Y-108073094D01*
X72733560Y-108073282D01*
X70617718Y-108228141D01*
X70615456Y-108228286D01*
X70591549Y-108229597D01*
X70586953Y-108229765D01*
X70577708Y-108229934D01*
X70563030Y-108230202D01*
X70560731Y-108230223D01*
X68439269Y-108230223D01*
X68436970Y-108230202D01*
X68422292Y-108229934D01*
X68413047Y-108229765D01*
X68408451Y-108229597D01*
X68384544Y-108228286D01*
X68382282Y-108228141D01*
X66266440Y-108073282D01*
X66264161Y-108073094D01*
X66249668Y-108071767D01*
X66240335Y-108070912D01*
X66235760Y-108070408D01*
X66212060Y-108067361D01*
X66209781Y-108067047D01*
X64110893Y-107758154D01*
X64108622Y-107757799D01*
X64085012Y-107753883D01*
X64080484Y-107753046D01*
X64057151Y-107748294D01*
X64054900Y-107747815D01*
X61984027Y-107286508D01*
X61981786Y-107285987D01*
X61958609Y-107280378D01*
X61954153Y-107279213D01*
X61931190Y-107272759D01*
X61928983Y-107272117D01*
X59897394Y-106660904D01*
X59895196Y-106660221D01*
X59872412Y-106652910D01*
X59868076Y-106651431D01*
X59845591Y-106643298D01*
X59843438Y-106642497D01*
X57861917Y-105884629D01*
X57859778Y-105883788D01*
X57837611Y-105874843D01*
X57833372Y-105873042D01*
X57811536Y-105863288D01*
X57809443Y-105862330D01*
X55888545Y-104961850D01*
X55886473Y-104960856D01*
X55883440Y-104959366D01*
X55864996Y-104950305D01*
X55860928Y-104948213D01*
X55839859Y-104936889D01*
X55837843Y-104935782D01*
X55153756Y-104551854D01*
X53987747Y-103897458D01*
X53985844Y-103896367D01*
X53965156Y-103884254D01*
X53961268Y-103881882D01*
X53940960Y-103868973D01*
X53939242Y-103867859D01*
X52169818Y-102697219D01*
X52167912Y-102695932D01*
X52148203Y-102682369D01*
X52144475Y-102679703D01*
X52125286Y-102665437D01*
X52123454Y-102664049D01*
X51200537Y-101951396D01*
X50444233Y-101367397D01*
X50442453Y-101365996D01*
X50423818Y-101351055D01*
X50420303Y-101348130D01*
X50402208Y-101332503D01*
X50400483Y-101330985D01*
X48820451Y-99915270D01*
X48818752Y-99913720D01*
X48801216Y-99897421D01*
X48797902Y-99894225D01*
X48781031Y-99877354D01*
X48779418Y-99875712D01*
X47424142Y-98470000D01*
X51896844Y-98470000D01*
X51915436Y-98694368D01*
X51970704Y-98912616D01*
X52061140Y-99118791D01*
X52063990Y-99123153D01*
X52063992Y-99123157D01*
X52065535Y-99125518D01*
X52184278Y-99307268D01*
X52187803Y-99311097D01*
X52187806Y-99311101D01*
X52289360Y-99421417D01*
X52336760Y-99472906D01*
X52514424Y-99611189D01*
X52712426Y-99718342D01*
X52925365Y-99791444D01*
X52930499Y-99792301D01*
X52930504Y-99792302D01*
X53142294Y-99827643D01*
X53142296Y-99827643D01*
X53147431Y-99828500D01*
X53372569Y-99828500D01*
X53377704Y-99827643D01*
X53377706Y-99827643D01*
X53589501Y-99792301D01*
X53589504Y-99792300D01*
X53594635Y-99791444D01*
X53597924Y-99790315D01*
X53668364Y-99792965D01*
X53717442Y-99823346D01*
X58786348Y-104892253D01*
X58793888Y-104900539D01*
X58798000Y-104907018D01*
X58803777Y-104912443D01*
X58847651Y-104953643D01*
X58850493Y-104956398D01*
X58870230Y-104976135D01*
X58873427Y-104978615D01*
X58882447Y-104986318D01*
X58914679Y-105016586D01*
X58921625Y-105020405D01*
X58921628Y-105020407D01*
X58932434Y-105026348D01*
X58948953Y-105037199D01*
X58964959Y-105049614D01*
X58972228Y-105052759D01*
X58972232Y-105052762D01*
X59005537Y-105067174D01*
X59016187Y-105072391D01*
X59054940Y-105093695D01*
X59062615Y-105095666D01*
X59062616Y-105095666D01*
X59074562Y-105098733D01*
X59093267Y-105105137D01*
X59111855Y-105113181D01*
X59119678Y-105114420D01*
X59119688Y-105114423D01*
X59155524Y-105120099D01*
X59167144Y-105122505D01*
X59198959Y-105130673D01*
X59209970Y-105133500D01*
X59230224Y-105133500D01*
X59249934Y-105135051D01*
X59269943Y-105138220D01*
X59277835Y-105137474D01*
X59296580Y-105135702D01*
X59313962Y-105134059D01*
X59325819Y-105133500D01*
X61121233Y-105133500D01*
X61132416Y-105134027D01*
X61139909Y-105135702D01*
X61147835Y-105135453D01*
X61147836Y-105135453D01*
X61207986Y-105133562D01*
X61211945Y-105133500D01*
X61239856Y-105133500D01*
X61243791Y-105133003D01*
X61243856Y-105132995D01*
X61255693Y-105132062D01*
X61287951Y-105131048D01*
X61291970Y-105130922D01*
X61299889Y-105130673D01*
X61319343Y-105125021D01*
X61338700Y-105121013D01*
X61350930Y-105119468D01*
X61350931Y-105119468D01*
X61358797Y-105118474D01*
X61366168Y-105115555D01*
X61366170Y-105115555D01*
X61399912Y-105102196D01*
X61411142Y-105098351D01*
X61445983Y-105088229D01*
X61445984Y-105088229D01*
X61453593Y-105086018D01*
X61460412Y-105081985D01*
X61460417Y-105081983D01*
X61471028Y-105075707D01*
X61488776Y-105067012D01*
X61507617Y-105059552D01*
X61543387Y-105033564D01*
X61553307Y-105027048D01*
X61584535Y-105008580D01*
X61584538Y-105008578D01*
X61591362Y-105004542D01*
X61605683Y-104990221D01*
X61620717Y-104977380D01*
X61630694Y-104970131D01*
X61637107Y-104965472D01*
X61665298Y-104931395D01*
X61673288Y-104922616D01*
X70292253Y-96303652D01*
X70300539Y-96296112D01*
X70307018Y-96292000D01*
X70353644Y-96242348D01*
X70356398Y-96239507D01*
X70376135Y-96219770D01*
X70378615Y-96216573D01*
X70386320Y-96207551D01*
X70411159Y-96181100D01*
X70416586Y-96175321D01*
X70420405Y-96168375D01*
X70420407Y-96168372D01*
X70426348Y-96157566D01*
X70437199Y-96141047D01*
X70444758Y-96131301D01*
X70449614Y-96125041D01*
X70452759Y-96117772D01*
X70452762Y-96117768D01*
X70467174Y-96084463D01*
X70472391Y-96073813D01*
X70493695Y-96035060D01*
X70498733Y-96015437D01*
X70505137Y-95996734D01*
X70510033Y-95985420D01*
X70510033Y-95985419D01*
X70513181Y-95978145D01*
X70514420Y-95970322D01*
X70514423Y-95970312D01*
X70520099Y-95934476D01*
X70522505Y-95922856D01*
X70531528Y-95887711D01*
X70531528Y-95887710D01*
X70533500Y-95880030D01*
X70533500Y-95859776D01*
X70535051Y-95840065D01*
X70536980Y-95827886D01*
X70538220Y-95820057D01*
X70534059Y-95776038D01*
X70533500Y-95764181D01*
X70533500Y-62034500D01*
X70553502Y-61966379D01*
X70607158Y-61919886D01*
X70659500Y-61908500D01*
X70683357Y-61908500D01*
X70751478Y-61928502D01*
X70797971Y-61982158D01*
X70809357Y-62034500D01*
X70809357Y-63283500D01*
X83583500Y-63283500D01*
X83583500Y-57136500D01*
X70809357Y-57136500D01*
X70809357Y-58965500D01*
X70789355Y-59033621D01*
X70735699Y-59080114D01*
X70683357Y-59091500D01*
X68951362Y-59091500D01*
X68948015Y-59091860D01*
X68948012Y-59091860D01*
X68927705Y-59094043D01*
X68890799Y-59098011D01*
X68753796Y-59149111D01*
X68636739Y-59236739D01*
X68631341Y-59243950D01*
X68556991Y-59343270D01*
X68549111Y-59353796D01*
X68545961Y-59362240D01*
X68545961Y-59362241D01*
X68525638Y-59416726D01*
X68483091Y-59473561D01*
X68416571Y-59498371D01*
X68347197Y-59483279D01*
X68322248Y-59465395D01*
X68320747Y-59464014D01*
X68317220Y-59460182D01*
X68133017Y-59316810D01*
X67998383Y-59243950D01*
X67932312Y-59208194D01*
X67932309Y-59208193D01*
X67927727Y-59205713D01*
X67706951Y-59129920D01*
X67701817Y-59129063D01*
X67701812Y-59129062D01*
X67481849Y-59092357D01*
X67481846Y-59092357D01*
X67476712Y-59091500D01*
X67243288Y-59091500D01*
X67238154Y-59092357D01*
X67238151Y-59092357D01*
X67018188Y-59129062D01*
X67018183Y-59129063D01*
X67013049Y-59129920D01*
X66792273Y-59205713D01*
X66787691Y-59208193D01*
X66787688Y-59208194D01*
X66721617Y-59243950D01*
X66586983Y-59316810D01*
X66582872Y-59320009D01*
X66582870Y-59320011D01*
X66406898Y-59456976D01*
X66406892Y-59456981D01*
X66402780Y-59460182D01*
X66399248Y-59464019D01*
X66248214Y-59628084D01*
X66248211Y-59628088D01*
X66244686Y-59631917D01*
X66117016Y-59827331D01*
X66023251Y-60041093D01*
X66021973Y-60046141D01*
X66021971Y-60046146D01*
X65967230Y-60262315D01*
X65965949Y-60267374D01*
X65946673Y-60500000D01*
X65965949Y-60732626D01*
X65967228Y-60737676D01*
X66002026Y-60875094D01*
X65999358Y-60946041D01*
X65968976Y-60995120D01*
X59694984Y-67269112D01*
X59632672Y-67303138D01*
X59561857Y-67298073D01*
X59516794Y-67269112D01*
X59498652Y-67250970D01*
X59347738Y-67157885D01*
X59284193Y-67136829D01*
X59185952Y-67104275D01*
X59185948Y-67104274D01*
X59179426Y-67102113D01*
X59172592Y-67101415D01*
X59172588Y-67101414D01*
X59078729Y-67091825D01*
X59078723Y-67091825D01*
X59075545Y-67091500D01*
X58400106Y-67091500D01*
X57724456Y-67091501D01*
X57721279Y-67091826D01*
X57721270Y-67091826D01*
X57672533Y-67096805D01*
X57620574Y-67102113D01*
X57452262Y-67157885D01*
X57301348Y-67250970D01*
X57175970Y-67376348D01*
X57082885Y-67527262D01*
X57027113Y-67695574D01*
X57026415Y-67702408D01*
X57026414Y-67702412D01*
X57019646Y-67768661D01*
X57016500Y-67799455D01*
X57016501Y-68700544D01*
X57016826Y-68703721D01*
X57016826Y-68703730D01*
X57020554Y-68740221D01*
X57027113Y-68804426D01*
X57082885Y-68972738D01*
X57175970Y-69123652D01*
X57301348Y-69249030D01*
X57452262Y-69342115D01*
X57515807Y-69363171D01*
X57614048Y-69395725D01*
X57614052Y-69395726D01*
X57620574Y-69397887D01*
X57627408Y-69398585D01*
X57627412Y-69398586D01*
X57721271Y-69408175D01*
X57721277Y-69408175D01*
X57724455Y-69408500D01*
X58399894Y-69408500D01*
X59075544Y-69408499D01*
X59078721Y-69408174D01*
X59078730Y-69408174D01*
X59127467Y-69403195D01*
X59179426Y-69397887D01*
X59347738Y-69342115D01*
X59498652Y-69249030D01*
X59624030Y-69123652D01*
X59717115Y-68972738D01*
X59719422Y-68965775D01*
X59719425Y-68965769D01*
X59730569Y-68932139D01*
X59770983Y-68873767D01*
X59803787Y-68854621D01*
X59809909Y-68852197D01*
X59821142Y-68848351D01*
X59855983Y-68838229D01*
X59855984Y-68838229D01*
X59863593Y-68836018D01*
X59870412Y-68831985D01*
X59870417Y-68831983D01*
X59881028Y-68825707D01*
X59898776Y-68817012D01*
X59917617Y-68809552D01*
X59924673Y-68804426D01*
X59953387Y-68783564D01*
X59963307Y-68777048D01*
X59994535Y-68758580D01*
X59994538Y-68758578D01*
X60001362Y-68754542D01*
X60015683Y-68740221D01*
X60030717Y-68727380D01*
X60040694Y-68720131D01*
X60047107Y-68715472D01*
X60075298Y-68681395D01*
X60083288Y-68672616D01*
X66862723Y-61893182D01*
X66925035Y-61859156D01*
X66992731Y-61863105D01*
X67013049Y-61870080D01*
X67018183Y-61870937D01*
X67018188Y-61870938D01*
X67238151Y-61907643D01*
X67238154Y-61907643D01*
X67243288Y-61908500D01*
X67476712Y-61908500D01*
X67481846Y-61907643D01*
X67481849Y-61907643D01*
X67701812Y-61870938D01*
X67701817Y-61870937D01*
X67706951Y-61870080D01*
X67927727Y-61794287D01*
X67985059Y-61763261D01*
X68128436Y-61685669D01*
X68133017Y-61683190D01*
X68317220Y-61539818D01*
X68320747Y-61535986D01*
X68322248Y-61534605D01*
X68385914Y-61503185D01*
X68456459Y-61511174D01*
X68511487Y-61556034D01*
X68525638Y-61583274D01*
X68545961Y-61637759D01*
X68549111Y-61646204D01*
X68636739Y-61763261D01*
X68643950Y-61768659D01*
X68735999Y-61837566D01*
X68753796Y-61850889D01*
X68890799Y-61901989D01*
X68927705Y-61905957D01*
X68948012Y-61908140D01*
X68948015Y-61908140D01*
X68951362Y-61908500D01*
X69140500Y-61908500D01*
X69208621Y-61928502D01*
X69255114Y-61982158D01*
X69266500Y-62034500D01*
X69266500Y-95485406D01*
X69246498Y-95553527D01*
X69229595Y-95574501D01*
X60974500Y-103829595D01*
X60912188Y-103863621D01*
X60885405Y-103866500D01*
X59604594Y-103866500D01*
X59536473Y-103846498D01*
X59515499Y-103829595D01*
X55729500Y-100043595D01*
X55695474Y-99981283D01*
X55700539Y-99910467D01*
X55743086Y-99853632D01*
X55809606Y-99828821D01*
X55818595Y-99828500D01*
X55912569Y-99828500D01*
X55917704Y-99827643D01*
X55917706Y-99827643D01*
X56129496Y-99792302D01*
X56129501Y-99792301D01*
X56134635Y-99791444D01*
X56347574Y-99718342D01*
X56545576Y-99611189D01*
X56723240Y-99472906D01*
X56770640Y-99421417D01*
X56872194Y-99311101D01*
X56872197Y-99311097D01*
X56875722Y-99307268D01*
X56964517Y-99171357D01*
X57018521Y-99125268D01*
X57088868Y-99115693D01*
X57153226Y-99145670D01*
X57175483Y-99171357D01*
X57264278Y-99307268D01*
X57267803Y-99311097D01*
X57267806Y-99311101D01*
X57369360Y-99421417D01*
X57416760Y-99472906D01*
X57594424Y-99611189D01*
X57792426Y-99718342D01*
X58005365Y-99791444D01*
X58010499Y-99792301D01*
X58010504Y-99792302D01*
X58222294Y-99827643D01*
X58222296Y-99827643D01*
X58227431Y-99828500D01*
X58452569Y-99828500D01*
X58457704Y-99827643D01*
X58457706Y-99827643D01*
X58669496Y-99792302D01*
X58669501Y-99792301D01*
X58674635Y-99791444D01*
X58887574Y-99718342D01*
X59085576Y-99611189D01*
X59263240Y-99472906D01*
X59310640Y-99421417D01*
X59412194Y-99311101D01*
X59412197Y-99311097D01*
X59415722Y-99307268D01*
X59534465Y-99125518D01*
X59536008Y-99123157D01*
X59536010Y-99123153D01*
X59538860Y-99118791D01*
X59629296Y-98912616D01*
X59684564Y-98694368D01*
X59703156Y-98470000D01*
X59701976Y-98455763D01*
X59684995Y-98250828D01*
X59684994Y-98250823D01*
X59684564Y-98245632D01*
X59629296Y-98027384D01*
X59538860Y-97821209D01*
X59534629Y-97814732D01*
X59418573Y-97637096D01*
X59415722Y-97632732D01*
X59412197Y-97628903D01*
X59412194Y-97628899D01*
X59266772Y-97470931D01*
X59263240Y-97467094D01*
X59244139Y-97452227D01*
X59089689Y-97332012D01*
X59089687Y-97332010D01*
X59085576Y-97328811D01*
X59052320Y-97310814D01*
X59001929Y-97260801D01*
X58986577Y-97191484D01*
X59011137Y-97124871D01*
X59052320Y-97089186D01*
X59080995Y-97073668D01*
X59085576Y-97071189D01*
X59263240Y-96932906D01*
X59347489Y-96841388D01*
X59412194Y-96771101D01*
X59412197Y-96771097D01*
X59415722Y-96767268D01*
X59475848Y-96675238D01*
X59536008Y-96583157D01*
X59536010Y-96583153D01*
X59538860Y-96578791D01*
X59629296Y-96372616D01*
X59684564Y-96154368D01*
X59686476Y-96131301D01*
X59702726Y-95935189D01*
X59703156Y-95930000D01*
X59695704Y-95840065D01*
X59684995Y-95710828D01*
X59684994Y-95710823D01*
X59684564Y-95705632D01*
X59646046Y-95553527D01*
X59630578Y-95492446D01*
X59630578Y-95492445D01*
X59629296Y-95487384D01*
X59538860Y-95281209D01*
X59534629Y-95274732D01*
X59418573Y-95097096D01*
X59415722Y-95092732D01*
X59412197Y-95088903D01*
X59412194Y-95088899D01*
X59266772Y-94930931D01*
X59263240Y-94927094D01*
X59201911Y-94879359D01*
X59089689Y-94792012D01*
X59089687Y-94792010D01*
X59085576Y-94788811D01*
X58887574Y-94681658D01*
X58674635Y-94608556D01*
X58669501Y-94607699D01*
X58669496Y-94607698D01*
X58457706Y-94572357D01*
X58457704Y-94572357D01*
X58452569Y-94571500D01*
X58227431Y-94571500D01*
X58222296Y-94572357D01*
X58222294Y-94572357D01*
X58010504Y-94607698D01*
X58010499Y-94607699D01*
X58005365Y-94608556D01*
X57792426Y-94681658D01*
X57594424Y-94788811D01*
X57590313Y-94792010D01*
X57590311Y-94792012D01*
X57478089Y-94879359D01*
X57416760Y-94927094D01*
X57413228Y-94930931D01*
X57267806Y-95088899D01*
X57267803Y-95088903D01*
X57264278Y-95092732D01*
X57261427Y-95097096D01*
X57175483Y-95228643D01*
X57121479Y-95274732D01*
X57051132Y-95284307D01*
X56986774Y-95254330D01*
X56964517Y-95228643D01*
X56878573Y-95097096D01*
X56875722Y-95092732D01*
X56872197Y-95088903D01*
X56872194Y-95088899D01*
X56726772Y-94930931D01*
X56723240Y-94927094D01*
X56661911Y-94879359D01*
X56549689Y-94792012D01*
X56549687Y-94792010D01*
X56545576Y-94788811D01*
X56347574Y-94681658D01*
X56134635Y-94608556D01*
X56129501Y-94607699D01*
X56129496Y-94607698D01*
X55917706Y-94572357D01*
X55917704Y-94572357D01*
X55912569Y-94571500D01*
X55687431Y-94571500D01*
X55682296Y-94572357D01*
X55682294Y-94572357D01*
X55470504Y-94607698D01*
X55470499Y-94607699D01*
X55465365Y-94608556D01*
X55252426Y-94681658D01*
X55054424Y-94788811D01*
X55050313Y-94792010D01*
X55050311Y-94792012D01*
X54938089Y-94879359D01*
X54876760Y-94927094D01*
X54873228Y-94930931D01*
X54815755Y-94993362D01*
X54754901Y-95029933D01*
X54683937Y-95027798D01*
X54625392Y-94987636D01*
X54604998Y-94952056D01*
X54579319Y-94883207D01*
X54560889Y-94833796D01*
X54473261Y-94716739D01*
X54356204Y-94629111D01*
X54219201Y-94578011D01*
X54182295Y-94574043D01*
X54161988Y-94571860D01*
X54161985Y-94571860D01*
X54158638Y-94571500D01*
X54019500Y-94571500D01*
X53951379Y-94551498D01*
X53904886Y-94497842D01*
X53893500Y-94445500D01*
X53893500Y-76804594D01*
X53913502Y-76736473D01*
X53930405Y-76715499D01*
X58100499Y-72545405D01*
X58162811Y-72511379D01*
X58189594Y-72508500D01*
X59021250Y-72508499D01*
X59075544Y-72508499D01*
X59078721Y-72508174D01*
X59078730Y-72508174D01*
X59127467Y-72503195D01*
X59179426Y-72497887D01*
X59347738Y-72442115D01*
X59498652Y-72349030D01*
X59624030Y-72223652D01*
X59717115Y-72072738D01*
X59751751Y-71968211D01*
X59770725Y-71910952D01*
X59770726Y-71910948D01*
X59772887Y-71904426D01*
X59775945Y-71874500D01*
X59783175Y-71803729D01*
X59783175Y-71803723D01*
X59783500Y-71800545D01*
X59783499Y-70899456D01*
X59781504Y-70879921D01*
X59778195Y-70847533D01*
X59772887Y-70795574D01*
X59717115Y-70627262D01*
X59624030Y-70476348D01*
X59498652Y-70350970D01*
X59347738Y-70257885D01*
X59284193Y-70236829D01*
X59185952Y-70204275D01*
X59185948Y-70204274D01*
X59179426Y-70202113D01*
X59172592Y-70201415D01*
X59172588Y-70201414D01*
X59078729Y-70191825D01*
X59078723Y-70191825D01*
X59075545Y-70191500D01*
X58400106Y-70191500D01*
X57724456Y-70191501D01*
X57721279Y-70191826D01*
X57721270Y-70191826D01*
X57672533Y-70196805D01*
X57620574Y-70202113D01*
X57452262Y-70257885D01*
X57301348Y-70350970D01*
X57175970Y-70476348D01*
X57082885Y-70627262D01*
X57027113Y-70795574D01*
X57026415Y-70802408D01*
X57026414Y-70802412D01*
X57018341Y-70881433D01*
X57016500Y-70899455D01*
X57016500Y-70902660D01*
X57016501Y-71785405D01*
X56996499Y-71853526D01*
X56979596Y-71874500D01*
X52867747Y-75986348D01*
X52859461Y-75993888D01*
X52852982Y-75998000D01*
X52847557Y-76003777D01*
X52806357Y-76047651D01*
X52803602Y-76050493D01*
X52783865Y-76070230D01*
X52781385Y-76073427D01*
X52773682Y-76082447D01*
X52743414Y-76114679D01*
X52739595Y-76121625D01*
X52739593Y-76121628D01*
X52733652Y-76132434D01*
X52722801Y-76148953D01*
X52710386Y-76164959D01*
X52707241Y-76172228D01*
X52707238Y-76172232D01*
X52692826Y-76205537D01*
X52687609Y-76216187D01*
X52666305Y-76254940D01*
X52664334Y-76262615D01*
X52664334Y-76262616D01*
X52661267Y-76274562D01*
X52654863Y-76293266D01*
X52646819Y-76311855D01*
X52645580Y-76319678D01*
X52645577Y-76319688D01*
X52639901Y-76355524D01*
X52637495Y-76367144D01*
X52626500Y-76409970D01*
X52626500Y-76430224D01*
X52624949Y-76449934D01*
X52621780Y-76469943D01*
X52622526Y-76477835D01*
X52625941Y-76513961D01*
X52626500Y-76525819D01*
X52626500Y-94445500D01*
X52606498Y-94513621D01*
X52552842Y-94560114D01*
X52500500Y-94571500D01*
X52361362Y-94571500D01*
X52358015Y-94571860D01*
X52358012Y-94571860D01*
X52337705Y-94574043D01*
X52300799Y-94578011D01*
X52163796Y-94629111D01*
X52046739Y-94716739D01*
X51959111Y-94833796D01*
X51908011Y-94970799D01*
X51901500Y-95031362D01*
X51901500Y-96828638D01*
X51908011Y-96889201D01*
X51959111Y-97026204D01*
X52046739Y-97143261D01*
X52053950Y-97148659D01*
X52151465Y-97221658D01*
X52163796Y-97230889D01*
X52278808Y-97273787D01*
X52335642Y-97316333D01*
X52360453Y-97382853D01*
X52345361Y-97452227D01*
X52327475Y-97477180D01*
X52187806Y-97628899D01*
X52187803Y-97628903D01*
X52184278Y-97632732D01*
X52181427Y-97637096D01*
X52065372Y-97814732D01*
X52061140Y-97821209D01*
X51970704Y-98027384D01*
X51915436Y-98245632D01*
X51915006Y-98250823D01*
X51915005Y-98250828D01*
X51898024Y-98455763D01*
X51896844Y-98470000D01*
X47424142Y-98470000D01*
X47306925Y-98348421D01*
X47305345Y-98346752D01*
X47289057Y-98329229D01*
X47286007Y-98325826D01*
X47270347Y-98307693D01*
X47268912Y-98306000D01*
X46868044Y-97824307D01*
X45911782Y-96675238D01*
X45910335Y-96673465D01*
X45895408Y-96654847D01*
X45892596Y-96651206D01*
X45878313Y-96631994D01*
X45877032Y-96630238D01*
X44642567Y-94904774D01*
X44641252Y-94902899D01*
X44633074Y-94891016D01*
X44627685Y-94883186D01*
X44625153Y-94879359D01*
X44612306Y-94859146D01*
X44611092Y-94857197D01*
X43505946Y-93046347D01*
X43504764Y-93044370D01*
X43492660Y-93023696D01*
X43490411Y-93019688D01*
X43479115Y-92998672D01*
X43478042Y-92996632D01*
X42507998Y-91109884D01*
X42506964Y-91107826D01*
X42496416Y-91086354D01*
X42494462Y-91082187D01*
X42484720Y-91060377D01*
X42483801Y-91058268D01*
X41654059Y-89105721D01*
X41653179Y-89103595D01*
X41644246Y-89081459D01*
X41642602Y-89077162D01*
X41634455Y-89054637D01*
X41633692Y-89052464D01*
X40948708Y-87044612D01*
X40947985Y-87042428D01*
X40940683Y-87019673D01*
X40939355Y-87015259D01*
X40932909Y-86992319D01*
X40932308Y-86990104D01*
X40395688Y-84937510D01*
X40395127Y-84935281D01*
X40389503Y-84912045D01*
X40388509Y-84907580D01*
X40383740Y-84884164D01*
X40383302Y-84881909D01*
X39997950Y-82795645D01*
X39997553Y-82793382D01*
X39997033Y-82790246D01*
X39993638Y-82769779D01*
X39992979Y-82765306D01*
X39989927Y-82741560D01*
X39989661Y-82739331D01*
X39757621Y-80630477D01*
X39757390Y-80628187D01*
X39755212Y-80604405D01*
X39754876Y-80599814D01*
X39753569Y-80575982D01*
X39753464Y-80573684D01*
X39675981Y-78453562D01*
X39675918Y-78451263D01*
X39675481Y-78427363D01*
X39675481Y-78422757D01*
X39675918Y-78398857D01*
X39675981Y-78396558D01*
X39753464Y-76276436D01*
X39753569Y-76274138D01*
X39754876Y-76250306D01*
X39755212Y-76245715D01*
X39757390Y-76221933D01*
X39757621Y-76219643D01*
X39989661Y-74110789D01*
X39989933Y-74108507D01*
X39992979Y-74084814D01*
X39993638Y-74080341D01*
X39997553Y-74056738D01*
X39997950Y-74054475D01*
X40383302Y-71968211D01*
X40383740Y-71965956D01*
X40384794Y-71960781D01*
X40388509Y-71942540D01*
X40389503Y-71938075D01*
X40395127Y-71914839D01*
X40395688Y-71912610D01*
X40932308Y-69860016D01*
X40932909Y-69857801D01*
X40939355Y-69834861D01*
X40940683Y-69830447D01*
X40947985Y-69807692D01*
X40948708Y-69805508D01*
X41633692Y-67797656D01*
X41634455Y-67795483D01*
X41642602Y-67772958D01*
X41644246Y-67768661D01*
X41653179Y-67746525D01*
X41654059Y-67744399D01*
X42483801Y-65791852D01*
X42484720Y-65789743D01*
X42494462Y-65767933D01*
X42496416Y-65763766D01*
X42506964Y-65742294D01*
X42507998Y-65740236D01*
X43478042Y-63853488D01*
X43479115Y-63851448D01*
X43490411Y-63830432D01*
X43492660Y-63826424D01*
X43504764Y-63805750D01*
X43505946Y-63803773D01*
X44611092Y-61992923D01*
X44612306Y-61990974D01*
X44625153Y-61970761D01*
X44627685Y-61966934D01*
X44633074Y-61959104D01*
X44641252Y-61947221D01*
X44642570Y-61945342D01*
X44679887Y-61893182D01*
X45877032Y-60219882D01*
X45878313Y-60218126D01*
X45892596Y-60198914D01*
X45895408Y-60195273D01*
X45910335Y-60176655D01*
X45911790Y-60174872D01*
X46716266Y-59208194D01*
X47268912Y-58544120D01*
X47270347Y-58542427D01*
X47286007Y-58524294D01*
X47289057Y-58520891D01*
X47305345Y-58503368D01*
X47306925Y-58501699D01*
X48779418Y-56974408D01*
X48781031Y-56972766D01*
X48797902Y-56955895D01*
X48801216Y-56952699D01*
X48818752Y-56936400D01*
X48820451Y-56934850D01*
X50400483Y-55519135D01*
X50402208Y-55517617D01*
X50403934Y-55516126D01*
X50420303Y-55501990D01*
X50423818Y-55499065D01*
X50442453Y-55484124D01*
X50444233Y-55482723D01*
X51200537Y-54898724D01*
X52123454Y-54186071D01*
X52125286Y-54184683D01*
X52127786Y-54182824D01*
X52144475Y-54170417D01*
X52148203Y-54167751D01*
X52167912Y-54154188D01*
X52169818Y-54152901D01*
X52603939Y-53865689D01*
X53939242Y-52982261D01*
X53940960Y-52981147D01*
X53961268Y-52968238D01*
X53965156Y-52965866D01*
X53971895Y-52961920D01*
X53985844Y-52953753D01*
X53987747Y-52952662D01*
X55153756Y-52298266D01*
X55837843Y-51914338D01*
X55839859Y-51913231D01*
X55860928Y-51901907D01*
X55864996Y-51899815D01*
X55886494Y-51889254D01*
X55888545Y-51888270D01*
X57809443Y-50987790D01*
X57811536Y-50986832D01*
X57833372Y-50977078D01*
X57837611Y-50975277D01*
X57859778Y-50966332D01*
X57861917Y-50965491D01*
X59843438Y-50207623D01*
X59845593Y-50206821D01*
X59868076Y-50198689D01*
X59872412Y-50197210D01*
X59895196Y-50189899D01*
X59897394Y-50189216D01*
X61928983Y-49578003D01*
X61931190Y-49577361D01*
X61954153Y-49570907D01*
X61958609Y-49569742D01*
X61981786Y-49564133D01*
X61984027Y-49563612D01*
X64054900Y-49102305D01*
X64057151Y-49101826D01*
X64080484Y-49097074D01*
X64085012Y-49096237D01*
X64108622Y-49092321D01*
X64110893Y-49091966D01*
X66209781Y-48783073D01*
X66212060Y-48782759D01*
X66235760Y-48779712D01*
X66240335Y-48779208D01*
X66249668Y-48778353D01*
X66264161Y-48777026D01*
X66266443Y-48776838D01*
X68382282Y-48621979D01*
X68384544Y-48621834D01*
X68408451Y-48620523D01*
X68413047Y-48620355D01*
X68422292Y-48620186D01*
X68436970Y-48619918D01*
X68439269Y-48619897D01*
X70560731Y-48619897D01*
X70563030Y-48619918D01*
G37*
G04 #@! TD.AperFunction*
M02*
