%TF.GenerationSoftware,KiCad,Pcbnew,(6.99.0-2452-gdb4f2d9dd8)*%
%TF.CreationDate,2022-08-02T22:01:31-05:00*%
%TF.ProjectId,TofG,546f6647-2e6b-4696-9361-645f70636258,rev?*%
%TF.SameCoordinates,Original*%
%TF.FileFunction,Drillmap*%
%TF.FilePolarity,Positive*%
%FSLAX45Y45*%
G04 Gerber Fmt 4.5, Leading zero omitted, Abs format (unit mm)*
G04 Created by KiCad (PCBNEW (6.99.0-2452-gdb4f2d9dd8)) date 2022-08-02 22:01:31*
%MOMM*%
%LPD*%
G01*
G04 APERTURE LIST*
%ADD10C,0.100000*%
%ADD11C,0.200000*%
G04 APERTURE END LIST*
D10*
X9932506Y-7842506D02*
G75*
G03*
X9932506Y-7842506I-2982506J0D01*
G01*
D11*
X4210113Y-11123488D02*
X4210113Y-10923488D01*
X4210113Y-10923488D02*
X4257732Y-10923488D01*
X4257732Y-10923488D02*
X4286303Y-10933012D01*
X4286303Y-10933012D02*
X4305351Y-10952060D01*
X4305351Y-10952060D02*
X4314875Y-10971107D01*
X4314875Y-10971107D02*
X4324399Y-11009203D01*
X4324399Y-11009203D02*
X4324399Y-11037774D01*
X4324399Y-11037774D02*
X4314875Y-11075869D01*
X4314875Y-11075869D02*
X4305351Y-11094917D01*
X4305351Y-11094917D02*
X4286303Y-11113964D01*
X4286303Y-11113964D02*
X4257732Y-11123488D01*
X4257732Y-11123488D02*
X4210113Y-11123488D01*
X4410113Y-11123488D02*
X4410113Y-10990155D01*
X4410113Y-11028250D02*
X4419637Y-11009203D01*
X4419637Y-11009203D02*
X4429161Y-10999679D01*
X4429161Y-10999679D02*
X4448208Y-10990155D01*
X4448208Y-10990155D02*
X4467256Y-10990155D01*
X4533922Y-11123488D02*
X4533922Y-10990155D01*
X4533922Y-10923488D02*
X4524399Y-10933012D01*
X4524399Y-10933012D02*
X4533922Y-10942536D01*
X4533922Y-10942536D02*
X4543446Y-10933012D01*
X4543446Y-10933012D02*
X4533922Y-10923488D01*
X4533922Y-10923488D02*
X4533922Y-10942536D01*
X4657732Y-11123488D02*
X4638684Y-11113964D01*
X4638684Y-11113964D02*
X4629161Y-11094917D01*
X4629161Y-11094917D02*
X4629161Y-10923488D01*
X4762494Y-11123488D02*
X4743446Y-11113964D01*
X4743446Y-11113964D02*
X4733922Y-11094917D01*
X4733922Y-11094917D02*
X4733922Y-10923488D01*
X4958684Y-11123488D02*
X4958684Y-10923488D01*
X4958684Y-10923488D02*
X5025351Y-11066345D01*
X5025351Y-11066345D02*
X5092018Y-10923488D01*
X5092018Y-10923488D02*
X5092018Y-11123488D01*
X5272970Y-11123488D02*
X5272970Y-11018726D01*
X5272970Y-11018726D02*
X5263446Y-10999679D01*
X5263446Y-10999679D02*
X5244399Y-10990155D01*
X5244399Y-10990155D02*
X5206303Y-10990155D01*
X5206303Y-10990155D02*
X5187256Y-10999679D01*
X5272970Y-11113964D02*
X5253922Y-11123488D01*
X5253922Y-11123488D02*
X5206303Y-11123488D01*
X5206303Y-11123488D02*
X5187256Y-11113964D01*
X5187256Y-11113964D02*
X5177732Y-11094917D01*
X5177732Y-11094917D02*
X5177732Y-11075869D01*
X5177732Y-11075869D02*
X5187256Y-11056822D01*
X5187256Y-11056822D02*
X5206303Y-11047298D01*
X5206303Y-11047298D02*
X5253922Y-11047298D01*
X5253922Y-11047298D02*
X5272970Y-11037774D01*
X5368208Y-10990155D02*
X5368208Y-11190155D01*
X5368208Y-10999679D02*
X5387256Y-10990155D01*
X5387256Y-10990155D02*
X5425351Y-10990155D01*
X5425351Y-10990155D02*
X5444399Y-10999679D01*
X5444399Y-10999679D02*
X5453922Y-11009203D01*
X5453922Y-11009203D02*
X5463446Y-11028250D01*
X5463446Y-11028250D02*
X5463446Y-11085393D01*
X5463446Y-11085393D02*
X5453922Y-11104441D01*
X5453922Y-11104441D02*
X5444399Y-11113964D01*
X5444399Y-11113964D02*
X5425351Y-11123488D01*
X5425351Y-11123488D02*
X5387256Y-11123488D01*
X5387256Y-11123488D02*
X5368208Y-11113964D01*
X5549161Y-11104441D02*
X5558684Y-11113964D01*
X5558684Y-11113964D02*
X5549161Y-11123488D01*
X5549161Y-11123488D02*
X5539637Y-11113964D01*
X5539637Y-11113964D02*
X5549161Y-11104441D01*
X5549161Y-11104441D02*
X5549161Y-11123488D01*
X5549161Y-10999679D02*
X5558684Y-11009203D01*
X5558684Y-11009203D02*
X5549161Y-11018726D01*
X5549161Y-11018726D02*
X5539637Y-11009203D01*
X5539637Y-11009203D02*
X5549161Y-10999679D01*
X5549161Y-10999679D02*
X5549161Y-11018726D01*
M02*
