<?xml version="1.0" encoding="UTF-8" standalone="no"?>
<!-- Created with Inkscape (http://www.inkscape.org/) -->

<svg
   width="501.81516mm"
   height="84.059753mm"
   viewBox="0 0 501.81515 84.059753"
   version="1.1"
   id="svg52"
   xml:space="preserve"
   inkscape:version="1.2 (dc2aeda, 2022-05-15)"
   sodipodi:docname="Cal Poly logo words.svg"
   xmlns:inkscape="http://www.inkscape.org/namespaces/inkscape"
   xmlns:sodipodi="http://sodipodi.sourceforge.net/DTD/sodipodi-0.dtd"
   xmlns="http://www.w3.org/2000/svg"
   xmlns:svg="http://www.w3.org/2000/svg"><sodipodi:namedview
     id="namedview54"
     pagecolor="#ffffff"
     bordercolor="#000000"
     borderopacity="0.25"
     inkscape:showpageshadow="2"
     inkscape:pageopacity="0.0"
     inkscape:pagecheckerboard="0"
     inkscape:deskcolor="#d1d1d1"
     inkscape:document-units="mm"
     showgrid="false"
     inkscape:zoom="0.34617157"
     inkscape:cx="285.98536"
     inkscape:cy="-128.54897"
     inkscape:window-width="1800"
     inkscape:window-height="1097"
     inkscape:window-x="0"
     inkscape:window-y="44"
     inkscape:window-maximized="0"
     inkscape:current-layer="layer1" /><defs
     id="defs49" /><g
     inkscape:label="Layer 1"
     inkscape:groupmode="layer"
     id="layer1"
     transform="translate(238.64588,-144.31924)"><path
       style="fill:#000000;stroke-width:0.264583"
       d="m -201.22641,228.11563 c -3.22208,-0.36339 -7.32442,-1.27584 -10.67445,-2.37421 -13.13602,-4.30691 -21.5258,-12.7595 -25.02151,-25.20881 -1.42417,-5.07194 -1.72003,-7.44029 -1.72349,-13.7964 -0.003,-6.27534 0.34093,-8.75017 1.85908,-13.36146 0.98807,-3.00119 3.81551,-8.57298 5.70178,-11.23598 5.43534,-7.67349 13.8958,-13.27422 24.0365,-15.91191 13.59671,-3.53662 28.21896,-2.11022 39.98435,3.90049 1.39951,0.71498 2.73031,1.50541 2.95735,1.7565 0.33667,0.37234 0.50197,2.19968 0.89634,9.9086 l 0.48355,9.45207 -0.66277,0.12424 c -0.36453,0.0683 -2.00519,0.16069 -3.64592,0.20522 l -2.98316,0.081 -1.05107,-3.13167 c -2.67009,-7.95554 -6.78838,-13.07261 -12.83865,-15.95234 -3.42029,-1.62795 -5.40631,-2.05877 -9.38043,-2.03488 -4.11773,0.0247 -7.22925,0.77578 -11.33401,2.73572 -8.32786,3.97637 -12.69607,10.47623 -14.92673,22.21085 -0.4874,2.56399 -0.58122,4.00254 -0.58727,9.00461 -0.008,6.35213 0.15818,7.82702 1.44476,12.84681 1.94865,7.60297 4.92653,13.43939 8.78793,17.22372 4.93931,4.84072 10.48486,6.93683 17.54136,6.63029 8.68573,-0.37731 15.00947,-4.31968 18.69938,-11.65765 1.28988,-2.56513 2.68008,-6.70274 3.27454,-9.74592 l 0.44881,-2.29755 1.62093,-0.13945 c 3.58399,-0.30834 6.49477,-0.40662 6.59156,-0.22257 0.15107,0.28728 -0.29005,6.45464 -1.30079,18.18628 -0.19863,2.3055 -0.58265,3.06923 -2.05138,4.07974 -1.77552,1.22159 -6.33995,3.57476 -9.51057,4.90313 -7.60991,3.18827 -18.45493,4.74424 -26.63602,3.82155 z m 300.434364,-0.1544 C 88.549003,226.57818 79.36693,221.2102 74.260869,213.37681 c -5.729076,-8.78916 -7.242784,-21.75596 -3.77317,-32.32205 1.164775,-3.5472 2.161407,-5.63316 4.111757,-8.60605 5.126302,-7.81397 13.439351,-13.42639 22.692941,-15.3208 17.270913,-3.53574 33.604943,3.42205 40.294713,17.1643 4.03543,8.28963 4.93829,19.13829 2.34061,28.12447 -2.03083,7.02525 -7.1597,14.30151 -13.2257,18.76314 -6.33931,4.66265 -14.34255,7.03222 -23.38609,6.92404 -1.82282,-0.0218 -3.671413,-0.086 -4.107976,-0.14263 z m 10.151796,-7.08127 c 2.67584,-0.7122 4.29025,-1.7035 6.65827,-4.08841 2.37447,-2.39141 3.74496,-4.70062 4.98118,-8.393 3.12414,-9.33129 2.5686,-25.70231 -1.15835,-34.13442 -2.47907,-5.60886 -6.64403,-9.52103 -11.51676,-10.81778 -1.87277,-0.49838 -5.55564,-0.49625 -7.47749,0.004 -5.612899,1.46197 -9.751961,5.88815 -11.912496,12.73884 -1.580012,5.01001 -1.897486,7.55788 -1.891109,15.1769 0.005,6.03298 0.08641,7.45819 0.582903,10.21257 1.8991,10.53612 6.753093,17.31046 13.831012,19.30287 1.6419,0.46219 6.16329,0.46111 7.90284,-0.002 z m -226.8081,4.41371 c -0.20458,-0.33099 0.25889,-5.09502 0.5185,-5.32998 0.13079,-0.11837 1.27823,-0.42824 2.54985,-0.68862 2.54394,-0.52088 3.76846,-1.12428 4.19893,-2.06906 0.29644,-0.65061 -0.0817,-2.51931 -1.92272,-9.50157 l -0.81971,-3.10885 h -10.75769 -10.7577 l -0.88003,2.71198 c -0.48402,1.49159 -1.40231,4.11916 -2.04065,5.83906 -1.3077,3.52345 -1.3771,4.06694 -0.63902,5.00524 0.49752,0.63252 3.10843,1.52497 4.46135,1.52497 0.81987,0 1.0215,0.51849 1.20896,3.10885 l 0.17714,2.4474 h -12.9803 -12.98027 l 0.15497,-2.18281 c 0.23596,-3.3234 0.21038,-3.26695 1.64031,-3.62117 2.29296,-0.56801 5.43256,-2.26932 6.71198,-3.63713 0.98172,-1.04953 1.39377,-1.83769 2.32647,-4.44997 10.00355,-28.01769 15.10782,-43.01513 15.10782,-44.39009 0,-1.21826 -0.61966,-1.65597 -2.68939,-1.89974 l -1.49876,-0.17652 -0.14586,-1.24056 c -0.0802,-0.68231 -0.22114,-1.9847 -0.31316,-2.8942 l -0.1673,-1.65365 h 12.56155 12.56151 l 0.98232,2.84427 c 0.54028,1.56435 3.95957,11.29771 7.59841,21.62969 3.638842,10.33198 7.624075,21.70245 8.856028,25.26771 1.23198,3.56526 2.551536,6.93631 2.932377,7.49121 0.918157,1.33783 2.343785,2.11237 5.227479,2.84003 1.309687,0.33049 2.458587,0.67123 2.553123,0.75722 0.09451,0.086 0.256196,1.37672 0.359251,2.86831 l 0.187405,2.71198 h -17.078533 c -9.39321,0 -17.13529,-0.0918 -17.20464,-0.204 z m 2.08907,-26.98194 c -0.0985,-0.25466 -1.97252,-5.73153 -4.16454,-12.17083 -2.19205,-6.4393 -4.05895,-11.70667 -4.14875,-11.70526 -0.13239,0.002 -8.15623,22.7777 -8.45084,23.98777 -0.0698,0.28656 1.48434,0.35134 8.42883,0.35134 8.00074,0 8.50358,-0.0279 8.3353,-0.46302 z m 38.224327,26.19375 c 0,-0.5457 0.07792,-1.79742 0.170868,-2.7816 l 0.169016,-1.78942 2.276501,-0.67709 c 1.252088,-0.3724 2.65766,-0.84238 3.123486,-1.0444 1.788345,-0.77558 1.682115,0.95676 1.604512,-26.16782 l -0.07022,-24.53715 -0.691198,-0.5945 c -0.409469,-0.35218 -1.824037,-0.89476 -3.47038,-1.33114 l -2.779184,-0.73663 -0.165761,-1.75476 c -0.09117,-0.96512 -0.166608,-2.26077 -0.16764,-2.87924 l -0.0019,-1.12448 h 16.557519 16.557519 l -0.162402,1.78594 c -0.08932,0.98227 -0.222329,2.27303 -0.295539,2.86836 l -0.133165,1.08243 -2.834349,0.58914 c -1.558898,0.32403 -3.220958,0.70925 -3.693451,0.85606 -1.760669,0.54702 -1.654466,-1.12424 -1.654466,26.03603 v 24.63355 l 0.612378,0.57529 c 0.722498,0.67876 2.553415,0.74627 8.316251,0.30665 6.212708,-0.47394 8.71683,-1.2791 10.821299,-3.4794 1.419358,-1.48398 2.009961,-2.70091 3.01498,-6.21226 0.45212,-1.5796 1.054788,-3.67567 1.339295,-4.65793 l 0.517286,-1.78594 h 2.902797 c 1.596549,0 2.902797,0.0592 2.902797,0.13154 0,0.0724 -0.416719,5.21774 -0.926042,11.43419 -0.509323,6.21645 -0.926042,11.51507 -0.926042,11.77471 0,0.44988 -1.243224,0.47206 -26.458332,0.47206 h -26.458333 l 0.0026,-0.99219 z m 224.269263,-1.32291 c 0.25395,-3.41555 0.17405,-3.31151 3.18225,-4.14283 3.16196,-0.8738 3.68811,-1.19403 4.05953,-2.47069 0.20212,-0.69471 0.26503,-8.16411 0.20937,-24.85067 l -0.0796,-23.85741 -0.62145,-0.66142 c -0.72957,-0.7765 -1.28614,-1.01203 -4.18796,-1.77224 l -2.16358,-0.56681 -0.1406,-0.96839 c -0.0773,-0.53262 -0.21714,-1.8316 -0.31067,-2.88663 l -0.17008,-1.91823 h 16.60115 16.60112 l -0.18563,2.71198 c -0.1021,1.49159 -0.26794,2.79516 -0.36856,2.89681 -0.1006,0.10166 -1.59573,0.48399 -3.32253,0.84962 -3.39334,0.71852 -4.28276,1.13367 -4.68276,2.18571 -0.1629,0.42851 -0.23175,9.6549 -0.18664,25.01273 l 0.0715,24.33378 0.66146,0.54112 c 0.62738,0.51326 0.8863,0.5324 5.02708,0.37159 8.25482,-0.32057 11.61021,-1.15326 13.89264,-3.44767 1.73365,-1.74275 2.29478,-2.99424 3.76727,-8.40226 l 1.21311,-4.45549 h 2.86663 2.8666 v 0.73136 c 0,0.86642 -1.50183,19.68086 -1.73151,21.69208 l -0.15864,1.38906 h -26.44085 -26.44084 z m 63.99321,-0.39482 c 0.10478,-1.49272 0.22445,-2.75133 0.26593,-2.79692 0.0415,-0.0456 1.42558,-0.4841 3.07578,-0.97448 2.01113,-0.59763 3.15421,-1.08157 3.46695,-1.46778 0.41634,-0.51419 0.46656,-1.25078 0.46656,-6.84508 v -6.26889 l -0.74612,-1.17652 c -1.26548,-1.99544 -5.55128,-9.71758 -11.15206,-20.09374 -2.94555,-5.45703 -5.90642,-10.85293 -6.57974,-11.99089 -1.6352,-2.76374 -3.54102,-4.29241 -6.9483,-5.57331 -1.9064,-0.71668 -1.85843,-0.61525 -2.17273,-4.59466 l -0.1515,-1.91823 h 16.80334 16.80335 l -0.18437,2.84427 c -0.10138,1.56435 -0.20634,2.87182 -0.23325,2.90549 -0.0269,0.0337 -0.9557,0.23472 -2.06402,0.44678 -3.40061,0.65064 -4.16835,1.27899 -4.16835,3.41155 0,1.35512 1.22605,3.85546 7.74361,15.79191 5.46865,10.01543 5.33755,9.78153 5.48556,9.7856 0.0728,0.002 1.90209,-3.65746 4.06519,-8.13213 2.1631,-4.47467 4.84201,-9.86216 5.95312,-11.97222 2.66679,-5.06427 2.86647,-5.63884 2.34207,-6.73855 -0.43498,-0.91214 -1.62348,-1.60817 -3.61365,-2.11625 -1.37044,-0.34986 -1.43103,-0.48859 -1.70789,-3.91134 l -0.18727,-2.31511 h 12.73976 12.7398 l -0.16973,1.65365 c -0.0934,0.9095 -0.23442,2.25134 -0.31345,2.98185 l -0.14373,1.3282 -1.49846,0.44388 c -3.51261,1.04054 -7.2189,4.20939 -10.41789,8.90725 -1.42097,2.08674 -3.45178,6.05505 -8.44802,16.50777 l -6.57735,13.76065 v 5.90322 c 0,3.76342 0.10649,6.13696 0.29382,6.54806 0.38317,0.84101 0.89873,1.09302 4.07146,1.99022 l 2.64549,0.7481 0.1719,1.03285 c 0.0946,0.56806 0.21378,1.80675 0.26492,2.75264 l 0.093,1.71979 -16.10212,0.0682 -16.10214,0.0682 z M 1.5925295,222.6534 c 0.099007,-1.41883 0.2550319,-2.65207 0.3466836,-2.74055 0.091678,-0.0885 1.3927666,-0.49738 2.8913665,-0.90869 1.8453629,-0.50649 2.9340703,-0.95721 3.3734374,-1.39658 l 0.6487319,-0.64873 v -31.41366 c 0,-30.64808 -0.012436,-31.4295 -0.5113338,-32.06373 -0.3769254,-0.47915 -1.2986543,-0.88367 -3.505729,-1.53855 -1.6469254,-0.48867 -3.0118578,-0.8968 -3.0332097,-0.90696 -0.021431,-0.0102 -0.1254125,-1.30632 -0.2312458,-2.88034 l -0.1924315,-2.86185 20.4718699,0.10673 c 17.490334,0.0912 20.876233,0.17118 23.248328,0.5493 12.950137,2.06423 21.304752,8.22108 23.146226,17.05737 0.583909,2.80189 0.528823,7.84447 -0.115041,10.52995 -1.252855,5.22552 -4.151709,9.41485 -9.040997,13.0658 -4.925113,3.67767 -10.296287,5.81649 -16.900313,6.72974 -2.896976,0.40062 -9.360244,0.66239 -9.635066,0.39024 -0.08723,-0.0864 -0.06808,-1.33655 0.04257,-2.77813 l 0.201163,-2.62105 2.221441,-0.2012 c 7.989305,-0.72362 12.468066,-4.55317 14.6177,-12.4988 0.766815,-2.83433 0.840766,-8.91441 0.140017,-11.50937 -1.444281,-5.34815 -3.763248,-8.79086 -7.356289,-10.92107 -2.924043,-1.73356 -4.501251,-2.09411 -9.809136,-2.24235 l -4.684157,-0.13082 -0.805947,0.80593 -0.805921,0.80593 v 32.31216 32.31215 l 0.629603,0.58268 c 0.377825,0.34966 1.747546,0.88819 3.425084,1.34662 l 2.795481,0.76395 0.13552,1.35272 c 0.07456,0.744 0.194522,1.9778 0.266621,2.74179 l 0.131101,1.38906 H 17.555556 1.4124806 Z"
       id="path567"
       sodipodi:nodetypes="ssscssssssccscsscsscssssscssssssscssssssssccsssscssssccssssscccssssscccsssssscsscccssssssscsssscssscscssscsscsscccsscssscssssscssssscccsssscsscsscccssssscsssscccsscccsssssscssssscccssssssssssscccsscssscssscsscccssssscssssscsssssssscssssscccccsscsscccs" /></g></svg>
