<?xml version="1.0" encoding="UTF-8" standalone="no"?>
<!-- Created with Inkscape (http://www.inkscape.org/) -->

<svg
   width="129.85797mm"
   height="161.29068mm"
   viewBox="0 0 129.85797 161.29068"
   version="1.1"
   id="svg52"
   xml:space="preserve"
   inkscape:version="1.2 (dc2aeda, 2022-05-15)"
   sodipodi:docname="Cal Poly shield.svg"
   xmlns:inkscape="http://www.inkscape.org/namespaces/inkscape"
   xmlns:sodipodi="http://sodipodi.sourceforge.net/DTD/sodipodi-0.dtd"
   xmlns="http://www.w3.org/2000/svg"
   xmlns:svg="http://www.w3.org/2000/svg"><sodipodi:namedview
     id="namedview54"
     pagecolor="#ffffff"
     bordercolor="#000000"
     borderopacity="0.25"
     inkscape:showpageshadow="2"
     inkscape:pageopacity="0.0"
     inkscape:pagecheckerboard="0"
     inkscape:deskcolor="#d1d1d1"
     inkscape:document-units="mm"
     showgrid="false"
     inkscape:zoom="0.76372507"
     inkscape:cx="419.65363"
     inkscape:cy="351.5663"
     inkscape:window-width="1800"
     inkscape:window-height="1097"
     inkscape:window-x="0"
     inkscape:window-y="44"
     inkscape:window-maximized="0"
     inkscape:current-layer="layer1" /><defs
     id="defs49" /><g
     inkscape:label="Layer 1"
     inkscape:groupmode="layer"
     id="layer1"
     transform="translate(406.22604,-111.24618)"><path
       style="fill:#000000;stroke-width:0.264583"
       d="m -345.3253,270.89225 c -13.95226,-7.30363 -28.80534,-18.90605 -38.80627,-30.31333 -11.86276,-13.53093 -18.85598,-28.11628 -20.6781,-43.12708 -0.42971,-3.53997 -0.65525,-14.01716 -1.24319,-57.74962 -0.19997,-14.87408 -0.22882,-24.10902 -0.0758,-24.26162 0.57745,-0.57588 21.2248,-2.3893 40.99289,-3.60034 9.13312,-0.55951 32.04657,-0.78586 41.14271,-0.40642 14.80074,0.6174 33.0782,2.03384 45.1776,3.50112 l 2.4474,0.2968 -0.003,13.9241 c -0.004,18.48483 -0.72125,63.22158 -1.06278,66.27366 -1.35165,12.07892 -5.18933,22.2567 -12.58472,33.37544 -10.21749,15.36169 -27.11654,30.03855 -47.20378,40.99659 -1.81901,0.99231 -3.67945,2.0137 -4.13431,2.26976 l -0.82702,0.46555 z m 7.02634,-10.36562 c 10.65573,-4.22277 22.67748,-12.49635 32.82906,-22.59354 6.7484,-6.71223 11.08921,-12.64444 14.81083,-20.24063 4.39191,-8.96432 6.90248,-18.3311 6.98522,-26.06146 l 0.0297,-2.77812 -2.51354,-0.87167 c -11.16657,-3.87243 -28.10057,-6.79827 -44.71458,-7.72572 -6.07001,-0.33884 -19.6693,-0.33692 -25.00764,0.004 -16.76428,1.06919 -31.89726,4.25946 -42.26267,8.90963 l -1.52135,0.68252 v 1.92909 c 0,3.64637 1.05255,9.67289 2.56171,14.66739 2.54645,8.42735 7.23311,17.27347 13.03637,24.60625 2.49019,3.14651 10.06409,10.80387 13.63837,13.78867 8.00452,6.68438 16.63153,12.31257 23.57789,15.38204 1.43872,0.63575 2.91352,1.29413 3.27732,1.46306 0.91049,0.42279 1.73429,0.24141 5.27328,-1.16106 z m 7.6913,-24.83475 -4.36562,-4.57591 -1.98438,-0.0356 c -4.75938,-0.0854 -7.95519,-0.71715 -12.33712,-2.4388 l -0.82774,-0.32521 -5.87109,5.53597 c -3.22911,3.04479 -5.96208,5.56902 -6.07329,5.60941 -0.11121,0.0404 -1.06283,-0.8797 -2.11471,-2.04465 l -1.91252,-2.11808 2.46355,-2.33839 c 1.35495,-1.28612 3.96996,-3.75525 5.81112,-5.48696 l 3.34758,-3.14857 3.267,-0.009 c 2.90075,-0.008 3.41533,-0.0806 4.58993,-0.64748 l 1.32292,-0.63847 -1.71979,-0.21177 c -6.54575,-0.80601 -11.45459,-2.60841 -12.99474,-4.77135 l -0.56031,-0.78688 1.02284,0.21617 c 1.98328,0.41917 6.73457,0.25827 8.11651,-0.27486 0.70007,-0.27008 1.223,-0.5409 1.16207,-0.60183 -0.0609,-0.0609 -2.06247,-0.41072 -4.44785,-0.77731 -4.83512,-0.74307 -6.65697,-1.19569 -8.4268,-2.09352 -1.26961,-0.64406 -3.91151,-2.93992 -3.6658,-3.18563 0.0796,-0.0796 0.72604,-0.0125 1.43658,0.14898 2.25613,0.51286 5.84376,0.37777 7.61494,-0.28673 1.83814,-0.68963 1.64214,-0.90416 -1.04241,-1.14098 -4.17977,-0.36871 -8.01551,-1.77739 -9.85876,-3.62063 -1.95896,-1.95896 -2.04439,-2.3246 -1.97587,-8.45652 0.0333,-2.98318 0.13406,-6.30074 0.22383,-7.37235 l 0.16324,-1.94839 1.18791,1.15464 c 0.65336,0.63505 6.38359,6.78138 12.73386,13.6585 6.35027,6.87712 11.62529,12.47306 11.72226,12.43542 0.097,-0.0377 2.31338,-2.10892 4.92533,-4.60283 l 4.74902,-4.53438 -3.38732,-3.6677 c -3.52563,-3.81746 -3.62025,-3.98985 -3.23824,-5.8999 0.13039,-0.65196 0.93364,-1.52935 3.54253,-3.86953 l 3.37391,-3.02639 1.68299,0.002 1.68299,0.002 3.52957,3.81035 c 1.94127,2.09569 3.79225,4.05711 4.1133,4.35872 l 0.58371,0.54837 -0.10569,-1.65984 -0.10569,-1.65983 1.10401,-0.99741 c 0.60721,-0.54857 1.20088,-0.96048 1.31926,-0.91534 0.11839,0.0451 1.06411,0.9938 2.10159,2.10814 l 1.88634,2.02607 -1.88143,1.71714 -1.88142,1.71714 3.35078,3.61164 3.35079,3.61164 -0.18312,1.50869 c -0.16868,1.38973 -0.29001,1.60433 -1.53881,2.72164 -0.74563,0.66713 -2.30819,2.06863 -3.47236,3.11446 l -2.11667,1.90151 -1.5875,-0.15596 c -1.75294,-0.17222 -1.13066,0.32477 -6.03519,-4.82015 l -1.83238,-1.92219 -2.41621,2.2313 c -1.32892,1.22722 -3.58141,3.34236 -5.00553,4.70032 l -2.58932,2.46901 9.53463,10.24908 c 5.24404,5.63702 9.53463,10.31022 9.53463,10.38492 0,0.0747 -1.0418,0.12535 -2.31511,0.11254 l -2.3151,-0.0233 z m 23.50543,-65.52359 c 2.71551,-1.76356 5.05634,-3.31896 5.20186,-3.45645 0.27452,-0.25938 -0.31027,-0.0559 -10.83991,3.77211 l -6.34199,2.30559 2.10866,0.17337 c 1.15977,0.0953 2.40632,0.20918 2.77012,0.25296 1.99283,0.23981 2.13006,0.18091 7.10126,-3.04758 z m -83.16897,2.13143 c 2.7649,-0.14601 10.98021,-0.32577 18.25625,-0.39945 l 13.22917,-0.13397 4.6933,-2.29723 4.69329,-2.29723 1.92129,0.40904 c 1.05671,0.22497 5.39846,1.22494 9.64834,2.22214 l 7.72706,1.81311 16.19171,-5.86836 16.19172,-5.86836 0.81977,0.63076 c 0.45087,0.34692 2.46829,2.08187 4.48315,3.85545 3.81034,3.35404 8.90763,7.50718 9.04425,7.36901 0.19205,-0.19421 -0.63333,-25.67937 -0.83755,-25.86112 -0.12563,-0.11181 -1.70421,-0.342 -3.50796,-0.51153 l -3.27953,-0.30823 -19.73921,10.48871 c -10.85657,5.7688 -20.35197,10.83303 -21.1009,11.25385 l -1.36169,0.76512 -0.84394,-1.49539 c -0.46862,-0.83035 -0.73282,-1.56744 -0.59406,-1.6574 0.13744,-0.0891 6.82076,-4.74592 14.85182,-10.34847 l 14.60192,-10.18646 -1.66597,-0.17798 c -2.23333,-0.2386 -11.61644,-0.74806 -13.77754,-0.74806 h -1.72777 l -7.84881,9.24692 -7.84881,9.24693 -1.30496,-0.80295 c -0.71773,-0.44163 -1.30496,-0.89927 -1.30496,-1.01698 0,-0.11771 2.19255,-3.97703 4.87233,-8.57626 l 4.87234,-8.36224 h -4.68673 -4.68673 l -2.26854,7.60677 -2.26854,7.60677 -1.55392,-0.087 c -0.85465,-0.0479 -1.60887,-0.14197 -1.67603,-0.20914 -0.0672,-0.0672 0.1441,-3.24269 0.46948,-7.05673 0.32538,-3.81403 0.58817,-7.1552 0.58397,-7.42481 -0.007,-0.46087 -0.26767,-0.48463 -4.35135,-0.39688 -2.38905,0.0513 -4.41877,0.16845 -4.51049,0.26025 -0.13033,0.13044 2.6258,12.75242 3.17134,14.52346 0.0935,0.30371 -0.28266,0.50924 -1.52829,0.83494 -0.90881,0.23763 -1.66789,0.41352 -1.68684,0.39087 -0.0189,-0.0226 -1.67726,-3.52376 -3.68512,-7.78024 l -3.65067,-7.73907 -1.60654,0.0169 c -2.41226,0.0255 -7.8173,0.41707 -7.9783,0.57807 -0.0776,0.0776 2.50406,3.51763 5.7371,7.64443 3.23304,4.12679 6.22247,7.94466 6.64317,8.48414 l 0.76491,0.98088 -1.10362,1.0035 c -0.60699,0.55192 -1.19403,1.03843 -1.30452,1.08113 -0.11049,0.0427 -4.7576,-4.10963 -10.32692,-9.2274 l -10.12604,-9.30503 -2.27491,0.18047 c -1.2512,0.0993 -4.58585,0.41183 -7.41032,0.69459 -2.82447,0.28276 -5.35454,0.51411 -5.62239,0.51411 -0.42857,0 -0.48646,0.23014 -0.48254,1.91822 l 0.004,1.91823 9.58669,4.8639 c 5.27268,2.67514 12.8235,6.5196 16.77959,8.54323 l 7.1929,3.67933 -0.63769,1.37639 c -0.35073,0.75701 -0.73496,1.40882 -0.85385,1.44844 -0.11889,0.0396 -7.35369,-2.54896 -16.07734,-5.75243 -8.72365,-3.20345 -15.99616,-5.82447 -16.16113,-5.82447 -0.21049,0 -0.35224,1.91377 -0.47525,6.41615 -0.0964,3.52888 -0.2417,6.86634 -0.32287,7.41658 l -0.14759,1.00043 2.07517,-0.14845 c 1.14134,-0.0816 4.33736,-0.2679 7.10225,-0.41391 z m -4.29947,-37.71064 2.05052,-0.18107 v -1.03805 -1.03805 l -1.25677,0.16295 c -0.69123,0.0896 -1.52467,0.21825 -1.85209,0.28584 l -0.59531,0.12288 v -4.00209 c 0,-3.54069 -0.0482,-3.98359 -0.41851,-3.8415 -0.23019,0.0883 -0.76597,0.1606 -1.19063,0.1606 h -0.77211 v 4.9286 4.92861 l 0.99219,-0.15383 c 0.5457,-0.0846 1.91492,-0.2353 3.04271,-0.33489 z m 110.12036,-0.15055 c 0.64706,-0.29482 0.6739,-0.39884 0.6739,-2.61121 v -2.30416 l -0.99219,-0.164 c -0.5457,-0.0902 -1.37914,-0.16531 -1.85208,-0.16691 -0.8069,-0.003 -0.85989,0.0541 -0.85989,0.92313 0,0.85254 0.063,0.92604 0.79375,0.92604 0.7362,0 0.79375,0.0697 0.79375,0.96066 v 0.96066 l -0.97797,-0.1587 c -0.53788,-0.0873 -1.28202,-0.46276 -1.65365,-0.83438 -0.5873,-0.58731 -0.67568,-0.9029 -0.67568,-2.41284 0,-1.50643 0.083,-1.80433 0.62463,-2.24294 0.80282,-0.65009 1.90562,-0.64464 2.74238,0.0135 l 0.66024,0.51935 0.61219,-0.65164 0.61218,-0.65164 -0.59404,-0.63232 c -0.89699,-0.95481 -2.659,-1.36659 -4.10966,-0.96043 -1.33947,0.37503 -2.06617,1.04577 -2.65195,2.44776 -0.77529,1.85552 -0.35953,4.25437 0.99218,5.72472 1.28732,1.40031 4.22744,2.06002 5.86191,1.3153 z m -101.91828,-0.63892 2.57969,-0.18486 v -1.00168 -1.00168 l -1.98438,0.15008 -1.98437,0.15008 v -0.93337 c 0,-1.03725 0.36878,-1.24946 2.18281,-1.25607 0.97653,-0.004 0.99219,-0.0199 0.99219,-1.03685 v -1.03324 l -1.60714,0.14573 -1.60714,0.14573 0.0858,-0.89843 c 0.0781,-0.81825 0.16842,-0.90456 1.01183,-0.96718 2.45158,-0.18203 2.64583,-0.27749 2.64583,-1.30033 v -0.94824 l -1.91823,0.17469 c -1.05502,0.0961 -2.42424,0.24404 -3.0427,0.32881 l -1.12448,0.15412 v 4.89343 4.89344 l 0.59531,-0.14466 c 0.32742,-0.0796 1.75617,-0.22784 3.175,-0.32952 z m 92.53802,-4.71477 v -4.86701 l -1.0797,-0.10296 -1.0797,-0.10297 0.0875,2.98594 c 0.0481,1.64227 0.0587,2.98578 0.0234,2.98559 -0.0353,-1.9e-4 -0.78033,-1.42909 -1.6557,-3.17534 l -1.59158,-3.175 h -1.06226 -1.06227 l 0.0721,4.82864 0.0721,4.82865 1.0299,0.0844 1.0299,0.0844 -0.13692,-3.12708 -0.13691,-3.12707 1.60927,3.22848 c 1.47563,2.96036 1.67613,3.23699 2.41431,3.33109 0.44277,0.0564 0.95387,0.12167 1.13577,0.14496 0.25413,0.0325 0.33073,-1.08486 0.33073,-4.82465 z m -85.85328,2.99117 c 0.0959,-0.5675 0.25326,-1.07952 0.34974,-1.13782 0.0965,-0.0583 0.76956,-0.14823 1.49573,-0.19983 l 1.32032,-0.0938 0.2443,1.15138 0.2443,1.15138 1.07128,-0.17131 c 0.58921,-0.0942 1.12221,-0.22223 1.18446,-0.28447 0.0622,-0.0623 -0.53289,-2.11063 -1.32253,-4.55195 l -1.43569,-4.43878 h -1.42531 -1.42532 l -1.39673,4.49792 c -0.7682,2.47386 -1.40244,4.67737 -1.40942,4.8967 -0.01,0.31066 0.24621,0.37819 1.15893,0.3056 1.13399,-0.0902 1.17721,-0.12632 1.34594,-1.125 z m 1.10375,-4.67261 c 0.21784,-0.83675 0.43684,-1.56314 0.48666,-1.61421 0.0498,-0.0511 0.22456,0.42518 0.38831,1.05833 0.16375,0.63316 0.35819,1.35955 0.4321,1.61421 0.10966,0.37788 -0.0346,0.46302 -0.78439,0.46302 h -0.91875 z m 74.16619,0.7276 c 0,-3.86452 -0.0686,-4.7625 -0.3638,-4.7625 -0.20009,0 -0.73587,-0.0744 -1.19062,-0.16536 l -0.82683,-0.16537 v 4.92787 4.92786 h 1.19063 1.19062 z m -65.35208,2.64821 c 0.18473,-2.39818 0.70634,-2.43757 1.98566,-0.14993 0.96659,1.72841 0.97478,1.73506 2.13816,1.73506 0.661,0 1.16785,-0.12422 1.16785,-0.28621 0,-0.15742 -0.42286,-1.0077 -0.93968,-1.88952 l -0.93967,-1.60332 0.71274,-0.74394 c 0.51959,-0.54234 0.7472,-1.1025 0.83988,-2.06708 0.11564,-1.20352 0.0543,-1.39601 -0.67876,-2.12904 -0.79654,-0.79654 -0.83836,-0.80589 -3.60437,-0.80589 h -2.79847 v 4.91076 4.91076 l 0.99218,-0.0821 0.99219,-0.0821 z m 0,-4.89717 v -1.19062 h 1.18132 c 0.91053,0 1.24623,0.1213 1.46452,0.52917 0.53943,1.00794 -0.31457,1.85208 -1.87373,1.85208 -0.7387,0 -0.77211,-0.0515 -0.77211,-1.19063 z m 58.74163,6.26428 c 2.02407,-1.05955 2.79586,-4.75657 1.50327,-7.2009 -1.10545,-2.09043 -3.9285,-2.97739 -6.00944,-1.88807 -2.45251,1.28382 -2.8511,5.88883 -0.71085,8.21263 1.25627,1.36401 3.54953,1.74923 5.21702,0.87634 z m -3.43698,-2.1565 c -0.67716,-0.67716 -0.89794,-1.60474 -0.73212,-3.07592 0.16707,-1.48218 0.80528,-2.22248 1.91601,-2.22248 1.14788,0 1.76918,0.76386 1.92295,2.36422 0.14748,1.53482 -0.0417,2.46357 -0.61933,3.04124 -0.57512,0.57512 -1.86066,0.51979 -2.48751,-0.10706 z m -46.22665,1.84896 c 0.43899,-0.003 0.47217,-0.25622 0.39687,-3.02532 -0.0452,-1.66195 -0.0271,-2.96614 0.0403,-2.89822 0.0673,0.0679 0.78247,1.39792 1.58918,2.95556 l 1.46675,2.83208 1.25508,0.0806 1.25509,0.0806 v -4.90929 -4.90928 h -1.22392 -1.22392 l 0.11647,3.0427 c 0.0641,1.67349 0.0872,3.04271 0.0514,3.04271 -0.0358,0 -0.53656,-0.92273 -1.11279,-2.05052 -1.96931,-3.8543 -1.89601,-3.76676 -3.15564,-3.76864 l -1.12448,-0.002 v 4.92565 4.92565 l 0.59532,-0.15954 c 0.32742,-0.0877 0.81088,-0.16116 1.07435,-0.16315 z m 39.35346,-0.59982 c 1.36024,-0.91667 1.87245,-2.01135 1.87245,-4.00177 0,-1.94023 -0.40929,-2.94115 -1.61886,-3.95893 -0.83786,-0.70501 -1.35867,-0.8402 -4.1689,-1.08218 l -1.65365,-0.14238 v 4.89073 4.89074 h 2.34212 c 1.99178,0 2.47446,-0.0892 3.22684,-0.59621 z m -3.45229,-4.16629 c 0,-2.71065 0.0355,-2.91042 0.51672,-2.91042 1.58516,0 2.39369,1.08071 2.39369,3.19948 0,1.60609 -0.81513,2.62136 -2.10464,2.62136 h -0.80577 z m -17.86845,4.12188 c 1.76702,-0.7383 2.24742,-3.33197 0.79358,-4.28456 l -0.64597,-0.42325 0.52604,-0.66876 c 0.76551,-0.97318 0.67445,-2.07719 -0.24735,-2.999 -0.75248,-0.75247 -0.84552,-0.77339 -3.43958,-0.77339 h -2.66619 v 4.7625 4.7625 h 2.38975 c 1.4668,0 2.73733,-0.14523 3.28972,-0.37604 z m -3.29822,-2.40209 c 0,-1.1789 0.009,-1.19062 0.9044,-1.19062 1.36367,0 1.74143,0.23302 1.74143,1.0742 0,0.64477 -0.14262,0.79261 -0.99218,1.02855 -1.57397,0.43711 -1.65365,0.39316 -1.65365,-0.91213 z m 0,-3.96875 c 0,-0.87125 0.0517,-0.92604 0.87313,-0.92604 0.81388,0 1.50812,0.38105 1.50812,0.82777 0,0.45566 -0.89179,1.02431 -1.6064,1.02431 -0.70915,0 -0.77485,-0.0785 -0.77485,-0.92604 z m 11.11631,4.96094 c 0.003,-1.59526 0.14464,-2.07882 1.32291,-4.52907 0.72551,-1.50872 1.31911,-2.84817 1.31911,-2.97656 0,-0.12839 -0.50826,-0.23343 -1.12948,-0.23343 h -1.12948 l -0.76257,1.99732 c -0.41942,1.09852 -0.84642,1.90219 -0.94889,1.78593 -0.10247,-0.11626 -0.46369,-1.01505 -0.80271,-1.99732 l -0.61639,-1.78593 h -1.26401 -1.264 l 1.44523,3.07577 c 1.27779,2.71945 1.44522,3.27119 1.44522,4.7625 v 1.68673 h 1.19063 1.19062 l 0.004,-1.78594 z"
       id="path567"
       sodipodi:nodetypes="cssscssscssssscccssccsscscssssssccccsscssscsscsscsscsssssscssscccsscscssscccsscccscscccccssscsscssccssccsssccsscscccsscccssssscsscssscsscccsssccccccssccscsssccssscsssccssccsscsccscsccccsccccccscsccccscscscsssccsscccccssssccccccccscscccccsccccccccccccccsscccccccccsccccscccccccccccsccssscscscsssscccccsssssscsscscccccsscscssssssssssscscscsccccccccssccccccccssscccscsssscscscssscccscsssssssssscsssccssccccsccccc" /></g></svg>
