<?xml version="1.0" encoding="UTF-8" standalone="no"?>
<!-- Created with Inkscape (http://www.inkscape.org/) -->

<svg
   width="129.85797mm"
   height="161.29068mm"
   viewBox="0 0 129.85797 161.29068"
   version="1.1"
   id="svg52"
   xml:space="preserve"
   inkscape:version="1.2 (dc2aeda, 2022-05-15)"
   sodipodi:docname="Cal Poly shield outline.svg"
   xmlns:inkscape="http://www.inkscape.org/namespaces/inkscape"
   xmlns:sodipodi="http://sodipodi.sourceforge.net/DTD/sodipodi-0.dtd"
   xmlns="http://www.w3.org/2000/svg"
   xmlns:svg="http://www.w3.org/2000/svg"><sodipodi:namedview
     id="namedview54"
     pagecolor="#ffffff"
     bordercolor="#000000"
     borderopacity="0.25"
     inkscape:showpageshadow="2"
     inkscape:pageopacity="0.0"
     inkscape:pagecheckerboard="0"
     inkscape:deskcolor="#d1d1d1"
     inkscape:document-units="mm"
     showgrid="false"
     inkscape:zoom="0.76372507"
     inkscape:cx="419.65363"
     inkscape:cy="351.5663"
     inkscape:window-width="1800"
     inkscape:window-height="1097"
     inkscape:window-x="0"
     inkscape:window-y="44"
     inkscape:window-maximized="0"
     inkscape:current-layer="layer1" /><defs
     id="defs49" /><g
     inkscape:label="Layer 1"
     inkscape:groupmode="layer"
     id="layer1"
     transform="translate(406.22604,-111.24618)"><path
       style="fill:none;stroke-width:0.2;stroke:#000000;stroke-opacity:1;stroke-dasharray:none"
       d="m -345.3253,270.89225 c -13.95226,-7.30363 -28.80534,-18.90605 -38.80627,-30.31333 -11.86276,-13.53093 -18.85598,-28.11628 -20.6781,-43.12708 -0.42971,-3.53997 -0.65525,-14.01716 -1.24319,-57.74962 -0.19997,-14.87408 -0.22882,-24.10902 -0.0758,-24.26162 0.57745,-0.57588 21.2248,-2.3893 40.99289,-3.60034 9.13312,-0.55951 32.04657,-0.78586 41.14271,-0.40642 14.80074,0.6174 33.0782,2.03384 45.1776,3.50112 l 2.4474,0.2968 -0.003,13.9241 c -0.004,18.48483 -0.72125,63.22158 -1.06278,66.27366 -1.35165,12.07892 -5.18933,22.2567 -12.58472,33.37544 -10.21749,15.36169 -27.11654,30.03855 -47.20378,40.99659 -1.81901,0.99231 -3.67945,2.0137 -4.13431,2.26976 l -0.82702,0.46555 z"
       id="path567"
       sodipodi:nodetypes="cssscssscssssscc" /></g></svg>
