<?xml version="1.0" encoding="UTF-8" standalone="no"?>
<!-- Created with Inkscape (http://www.inkscape.org/) -->

<svg
   width="23.806623mm"
   height="19.691986mm"
   viewBox="0 0 23.806623 19.691986"
   version="1.1"
   id="svg5"
   xml:space="preserve"
   inkscape:version="1.2 (dc2aeda, 2022-05-15)"
   sodipodi:docname="DDS logo.svg"
   xmlns:inkscape="http://www.inkscape.org/namespaces/inkscape"
   xmlns:sodipodi="http://sodipodi.sourceforge.net/DTD/sodipodi-0.dtd"
   xmlns="http://www.w3.org/2000/svg"
   xmlns:svg="http://www.w3.org/2000/svg"><sodipodi:namedview
     id="namedview7"
     pagecolor="#ffffff"
     bordercolor="#000000"
     borderopacity="0.25"
     inkscape:showpageshadow="2"
     inkscape:pageopacity="0.0"
     inkscape:pagecheckerboard="0"
     inkscape:deskcolor="#d1d1d1"
     inkscape:document-units="mm"
     showgrid="false"
     inkscape:zoom="1.6626633"
     inkscape:cx="180.4334"
     inkscape:cy="103.74921"
     inkscape:window-width="1800"
     inkscape:window-height="1097"
     inkscape:window-x="0"
     inkscape:window-y="44"
     inkscape:window-maximized="0"
     inkscape:current-layer="layer1" /><defs
     id="defs2" /><g
     inkscape:label="Layer 1"
     inkscape:groupmode="layer"
     id="layer1"
     transform="translate(56.578361,-138.65605)"><path
       style="fill:#000000;stroke-width:0.0282222"
       d="m -54.267712,158.30781 c -0.558278,-0.12656 -0.925495,-0.47965 -1.034671,-0.99486 -0.165773,-0.7823 0.25153,-1.45246 1.007172,-1.61745 0.241669,-0.0528 0.675351,-0.023 0.884584,0.0606 l 0.169333,0.0677 0.008,0.30329 c 0.009,0.34228 0.01608,0.33387 -0.208079,0.24868 -0.07899,-0.03 -0.250894,-0.0633 -0.382,-0.0739 -0.21006,-0.017 -0.255734,-0.0119 -0.384519,0.0435 -0.216381,0.0931 -0.387806,0.28902 -0.429783,0.49122 -0.05803,0.27953 0.01624,0.51649 0.219416,0.70005 0.248639,0.22463 0.550559,0.23284 1.17089,0.0319 0.04659,-0.0151 0.04978,0.007 0.04233,0.29062 l -0.008,0.30694 -0.164046,0.082 c -0.140659,0.0703 -0.203023,0.0833 -0.437444,0.0912 -0.169774,0.006 -0.341528,-0.006 -0.45315,-0.0315 z m 9.698335,-0.002 c -0.453443,-0.10992 -0.819324,-0.4505 -0.956115,-0.89002 -0.07133,-0.22917 -0.0719,-0.6105 -0.0013,-0.83746 0.172618,-0.55463 0.681032,-0.90975 1.302462,-0.90975 0.969785,0 1.611822,0.88111 1.300688,1.78502 -0.224338,0.65175 -0.941264,1.02299 -1.645771,0.85221 z m 0.531693,-0.6187 c 0.598888,-0.17785 0.67495,-1.04716 0.115996,-1.3257 -0.484197,-0.24129 -1.017879,0.14436 -0.973027,0.70311 0.02448,0.30501 0.202519,0.53643 0.479125,0.62281 0.158755,0.0496 0.210338,0.0495 0.377906,-2.3e-4 z m 5.471946,0.62082 c -0.664071,-0.14619 -1.205527,-0.63095 -1.41669,-1.26835 -0.06599,-0.1992 -0.07566,-0.27433 -0.07653,-0.59488 -9.17e-4,-0.33871 0.0056,-0.38558 0.0853,-0.61011 0.173427,-0.48881 0.501508,-0.86138 0.956364,-1.08603 0.532774,-0.26313 1.11785,-0.27309 1.636889,-0.0279 0.42614,0.20135 0.71418,0.48617 0.915793,0.90554 0.145671,0.30301 0.184505,0.48032 0.182347,0.83256 -0.0021,0.34275 -0.05433,0.56864 -0.195216,0.84422 -0.199869,0.39097 -0.477991,0.66231 -0.874702,0.85338 -0.380478,0.18325 -0.820096,0.23814 -1.213555,0.15152 z m 0.726722,-0.27016 0.105833,-0.0294 v -0.42201 -0.42201 h -0.451555 -0.451556 v 0.4228 0.42279 l 0.07761,0.0171 c 0.04269,0.009 0.09031,0.0214 0.105833,0.0265 0.06754,0.0225 0.517478,0.0109 0.613834,-0.0158 z m -1.057537,-0.52471 -0.0079,-0.38508 -0.282222,-0.0638 c -0.155223,-0.0351 -0.343372,-0.0903 -0.418111,-0.1227 l -0.135888,-0.0589 0.01894,0.0633 c 0.05031,0.16808 0.203798,0.43022 0.340109,0.58085 0.134703,0.14885 0.412393,0.36719 0.470913,0.37027 0.01208,6.4e-4 0.01843,-0.17213 0.01411,-0.38392 z m 1.868656,0.0746 c 0.168629,-0.16786 0.351758,-0.45588 0.408097,-0.64184 l 0.01917,-0.0633 -0.135889,0.0589 c -0.07474,0.0324 -0.262888,0.0876 -0.41811,0.1227 l -0.282223,0.0638 -0.0079,0.38734 -0.0079,0.38734 0.120197,-0.0658 c 0.06611,-0.0362 0.203129,-0.14831 0.304489,-0.2492 z m -0.921211,-0.69559 0.215925,-0.0182 v -0.43402 -0.43402 l -0.4445,0.008 -0.4445,0.008 v 0.42334 0.42333 l 0.155222,0.0166 c 0.24575,0.0262 0.289038,0.0268 0.517853,0.008 z m -0.941186,-0.45125 v -0.38484 l -0.134056,0.0182 c -0.360489,0.0489 -0.769055,0.25375 -0.769055,0.3856 0,0.0579 0.112481,0.14678 0.273529,0.2161 0.165399,0.0712 0.436013,0.14554 0.53786,0.14778 l 0.09172,0.002 z m 1.747975,0.33842 c 0.329109,-0.0825 0.594469,-0.23197 0.594469,-0.33495 0,-0.0914 -0.255174,-0.23659 -0.568046,-0.32329 -0.356731,-0.0989 -0.335065,-0.11978 -0.335065,0.32366 0,0.43995 -0.02101,0.41717 0.308642,0.33458 z m -1.987864,-0.96725 0.225778,-0.049 0.0079,-0.3718 c 0.0058,-0.27329 -0.001,-0.3718 -0.02575,-0.3718 -0.06973,0 -0.313649,0.18227 -0.459299,0.34322 -0.135395,0.14962 -0.289945,0.41295 -0.339165,0.57788 -0.01797,0.0602 -0.01773,0.0602 0.173392,-0.01 0.105266,-0.0385 0.292993,-0.092 0.417171,-0.11892 z m 2.472096,0.0542 c -0.02946,-0.0775 -0.08834,-0.20031 -0.130846,-0.27284 -0.09614,-0.16404 -0.387882,-0.45345 -0.545323,-0.54095 l -0.118327,-0.0658 0.0079,0.38816 0.0079,0.38817 0.225778,0.0489 c 0.124178,0.0269 0.308328,0.081 0.409222,0.12013 0.100895,0.0392 0.186568,0.0721 0.190385,0.0732 0.0038,0.001 -0.01716,-0.0615 -0.04662,-0.139 z m -1.075096,-0.56156 c 0,-0.37384 -0.0055,-0.42254 -0.04939,-0.4404 -0.09695,-0.0394 -0.529847,-0.0492 -0.691444,-0.0157 l -0.162278,0.0337 v 0.42134 0.42133 h 0.451556 0.451555 z m -14.132278,2.99586 -0.176388,-0.01 v -1.29688 -1.29687 l 0.486833,9.8e-4 c 0.589585,0.001 0.862182,0.0444 1.137071,0.18027 0.544835,0.26927 0.794309,0.82757 0.647688,1.44947 -0.138416,0.58709 -0.576937,0.89466 -1.376482,0.96544 -0.310139,0.0274 -0.360071,0.028 -0.718722,0.008 z m 1.104457,-0.69537 c 0.312125,-0.18292 0.438938,-0.58929 0.281612,-0.90242 -0.08116,-0.16154 -0.267168,-0.32733 -0.417247,-0.3719 -0.146296,-0.0435 -0.297465,-0.0523 -0.404377,-0.0236 l -0.0635,0.017 v 0.69169 0.69169 l 0.235433,-0.0123 c 0.192107,-0.0101 0.259842,-0.0267 0.368079,-0.0901 z m 1.89078,0.48343 c 0.284766,-0.62 1.188226,-2.41997 1.214418,-2.4195 0.0256,4.6e-4 0.282149,0.51134 1.236276,2.46183 l 0.07938,0.16228 h -0.361843 -0.361843 l -0.09557,-0.19755 -0.09557,-0.19756 h -0.290881 c -0.159985,0 -0.290881,-0.0105 -0.290881,-0.0234 0,-0.0586 0.150037,-0.38959 0.19089,-0.42114 0.02512,-0.0194 0.075,-0.0353 0.110837,-0.0353 0.03584,0 0.06516,-0.006 0.06516,-0.0125 0,-0.0276 -0.15099,-0.4265 -0.16942,-0.44759 -0.01088,-0.0124 -0.151836,0.28283 -0.313237,0.65617 l -0.293455,0.6788 h -0.35912 -0.359121 z m 14.715889,0.0539 c -0.172903,-0.0487 -0.315721,-0.14735 -0.411362,-0.2843 -0.06962,-0.0997 -0.07715,-0.13436 -0.07715,-0.35497 0,-0.22434 0.0065,-0.25305 0.07907,-0.34817 0.04349,-0.057 0.119689,-0.12588 0.169334,-0.15303 0.08879,-0.0486 0.08116,-0.0495 -0.467126,-0.057 l -0.557389,-0.008 v -0.22518 -0.22518 h 1.298222 1.298223 v 0.22578 0.22577 h -0.159457 -0.159457 l 0.118058,0.0855 c 0.214303,0.15524 0.293987,0.37769 0.230338,0.64301 -0.04386,0.18281 -0.164493,0.32298 -0.360519,0.41888 -0.145805,0.0713 -0.193058,0.0793 -0.514479,0.0862 -0.229775,0.005 -0.400364,-0.005 -0.486303,-0.0296 z m 0.818011,-0.48032 c 0.182827,-0.0964 0.252397,-0.32585 0.163387,-0.53888 -0.07175,-0.17171 -0.131655,-0.19023 -0.581817,-0.17984 -0.379507,0.009 -0.401983,0.0125 -0.452899,0.0755 -0.08995,0.11122 -0.124574,0.26985 -0.08657,0.39668 0.07337,0.24489 0.221576,0.31882 0.610934,0.30476 0.171726,-0.006 0.284114,-0.025 0.34697,-0.0582 z m -0.823081,-1.64465 c -0.181251,-0.0557 -0.326143,-0.15498 -0.412889,-0.28302 -0.05689,-0.084 -0.07223,-0.14552 -0.07921,-0.31788 -0.01035,-0.2554 0.03639,-0.36307 0.218343,-0.50301 l 0.11926,-0.0917 h -0.552527 -0.552528 v -0.22578 -0.22578 h 1.298222 1.298223 v 0.22578 0.22578 l -0.162278,1.1e-4 -0.162278,1.1e-4 0.08587,0.0524 c 0.204386,0.12464 0.31615,0.35804 0.283947,0.59298 -0.03744,0.27317 -0.229358,0.47556 -0.525734,0.55443 -0.200995,0.0535 -0.67594,0.0511 -0.856416,-0.004 z m 0.823081,-0.47219 c 0.182227,-0.0958 0.252413,-0.32564 0.164011,-0.53722 -0.0698,-0.16705 -0.126139,-0.18622 -0.547338,-0.18622 -0.215823,0 -0.400903,0.013 -0.433565,0.0305 -0.06679,0.0357 -0.163839,0.235 -0.163839,0.33639 0,0.0388 0.02404,0.1235 0.05343,0.18822 0.08394,0.18488 0.221101,0.23676 0.594446,0.22484 0.160178,-0.005 0.270782,-0.0239 0.332859,-0.0565 z m 0.09078,-1.6968 -0.124339,-0.12669 0.07291,-0.0779 c 0.119917,-0.12816 0.17239,-0.26274 0.184438,-0.47303 0.01532,-0.26736 -0.04455,-0.39125 -0.195108,-0.40377 -0.134792,-0.0112 -0.175596,0.0506 -0.21984,0.33321 -0.05535,0.35348 -0.115152,0.53399 -0.210375,0.63495 -0.102835,0.10904 -0.280889,0.16607 -0.432682,0.13859 -0.334406,-0.0605 -0.486415,-0.31168 -0.486415,-0.80364 0,-0.29566 0.05741,-0.49383 0.185572,-0.64059 l 0.09207,-0.10542 0.12898,0.12551 c 0.127303,0.12389 0.128293,0.12627 0.07615,0.18345 -0.113289,0.12422 -0.156703,0.25045 -0.157466,0.45782 -6.47e-4,0.17588 0.0082,0.21187 0.06767,0.27517 0.06714,0.0715 0.155151,0.0923 0.216634,0.0512 0.06016,-0.0402 0.09336,-0.14117 0.137476,-0.41821 0.07889,-0.49545 0.230348,-0.68908 0.539014,-0.68908 0.254331,0 0.45106,0.15181 0.54304,0.41905 0.09004,0.26159 0.06363,0.70868 -0.05591,0.94684 -0.06794,0.13535 -0.186544,0.29922 -0.216563,0.29922 -0.0115,0 -0.07686,-0.057 -0.145249,-0.12669 z M -51.6938,152.9354 c -0.189664,-0.0659 -0.330065,-0.17505 -0.415592,-0.32297 -0.03784,-0.0654 -0.274227,-0.74764 -0.525302,-1.51599 -0.251076,-0.76835 -0.588911,-1.80181 -0.750744,-2.29658 -0.308364,-0.94276 -0.377967,-1.23705 -0.377967,-1.59808 0,-0.71845 0.339392,-1.5297 0.843427,-2.01606 0.0633,-0.0611 0.120005,-0.10553 0.126009,-0.0988 0.015,0.0169 1.055961,3.15854 1.217983,3.67593 0.150216,0.4797 0.367412,0.93475 0.580445,1.21612 0.525225,0.69371 1.274001,1.13607 2.128692,1.25758 0.111128,0.0158 0.867363,0.0283 1.728611,0.0286 0.872904,3.2e-4 1.531055,0.0113 1.531055,0.0256 0,0.0967 -0.348016,1.15976 -0.415312,1.26864 -0.08525,0.13792 -0.218354,0.26285 -0.360799,0.33865 l -0.141111,0.0751 -2.511778,0.006 c -2.353833,0.006 -2.520948,0.003 -2.657617,-0.0443 z m 18.375344,-1.36789 c -0.05875,-0.0505 -0.07891,-0.098 -0.0898,-0.21134 -0.01728,-0.17982 0.03019,-0.30473 0.136758,-0.35983 0.139384,-0.0721 0.360031,-0.0389 0.437942,0.0659 0.0964,0.12967 0.06502,0.44471 -0.05249,0.52702 -0.09902,0.0694 -0.34059,0.0572 -0.432406,-0.0218 z m -21.264258,-0.71197 c -0.165463,-0.051 -0.334647,-0.19735 -0.42759,-0.36986 -0.04063,-0.0754 -0.228463,-0.61972 -0.4174,-1.20957 -0.188937,-0.58984 -0.519763,-1.60584 -0.735169,-2.25778 -0.215407,-0.65193 -0.399905,-1.24915 -0.409996,-1.32716 -0.02113,-0.16332 0.01944,-0.34292 0.109213,-0.48355 0.07304,-0.11442 0.373676,-0.34158 2.474473,-1.86977 0.991334,-0.72113 1.68885,-1.20888 1.843812,-1.2893 0.28311,-0.14694 0.750705,-0.27733 1.10541,-0.30824 0.245659,-0.0214 0.532526,0.0115 0.906036,0.10395 0.249995,0.0619 0.646187,0.24373 0.646187,0.29661 0,0.0183 -0.10795,0.11462 -0.239889,0.21414 -0.415943,0.31372 -2.337633,1.71679 -2.793568,2.03965 -0.498511,0.353 -0.883942,0.71664 -1.085651,1.02427 -0.38688,0.59004 -0.60089,1.43422 -0.524856,2.07034 0.04351,0.36398 0.115267,0.61385 0.596794,2.07799 0.231338,0.70342 0.420614,1.29079 0.420614,1.30528 0,0.0446 -1.317971,0.0294 -1.46842,-0.017 z m 5.983976,0.0151 c -0.425044,-0.0175 -0.489949,-0.0274 -0.744013,-0.11299 -0.440084,-0.14831 -0.950564,-0.48697 -1.220886,-0.80996 -0.226644,-0.2708 -0.486505,-0.69903 -0.447739,-0.73784 0.01013,-0.0101 1.061937,-0.0256 2.337357,-0.0344 2.571791,-0.0177 2.468356,-0.0104 2.993185,-0.21271 0.783351,-0.30201 1.442697,-0.93796 1.761403,-1.69889 0.04356,-0.104 0.280853,-0.80503 0.527325,-1.55786 0.246473,-0.75283 0.451569,-1.37348 0.455769,-1.37922 0.0251,-0.0343 0.180557,0.0559 0.504154,0.2926 0.712533,0.52121 0.814457,0.6483 0.812873,1.01352 -7.93e-4,0.18287 -0.04846,0.34469 -0.553544,1.87932 -0.303972,0.92357 -0.644082,1.96225 -0.7558,2.30818 -0.233584,0.72328 -0.316478,0.87365 -0.546979,0.9922 l -0.140338,0.0722 -2.25855,0.003 c -1.242203,0.001 -2.468101,-0.006 -2.724217,-0.0166 z m 13.969999,-0.74789 v -0.18345 l 0.134056,-6.4e-4 0.134056,-6.4e-4 -0.09289,-0.0458 c -0.14442,-0.0712 -0.203441,-0.16543 -0.203441,-0.3249 0,-0.15443 0.07496,-0.25946 0.209244,-0.29316 l 0.07299,-0.0183 -0.11143,-0.0807 c -0.141429,-0.10245 -0.170809,-0.15893 -0.170809,-0.32836 0,-0.15653 0.048,-0.24053 0.178102,-0.31168 0.07822,-0.0428 0.192635,-0.0504 0.873176,-0.0583 l 0.783167,-0.009 v 0.18543 0.18544 l -0.670278,4.1e-4 c -0.763564,4.8e-4 -0.806194,0.01 -0.819988,0.17394 -0.01545,0.18414 0.01967,0.19254 0.805101,0.19254 h 0.685165 v 0.18165 0.18166 l -0.701282,0.009 c -0.773642,0.01 -0.794496,0.0145 -0.794496,0.18003 0,0.17294 0.03863,0.18159 0.810613,0.18159 h 0.685165 v 0.18345 0.18344 h -0.903111 -0.903112 z m -11.951885,-1.40043 c 0.01123,-0.0524 0.08992,-0.31125 0.174874,-0.57513 0.357866,-1.11161 0.949298,-2.92342 1.022601,-3.13266 0.173482,-0.4952 0.211088,-0.71996 0.210137,-1.25589 -9.76e-4,-0.54983 -0.03169,-0.71294 -0.222326,-1.18054 -0.161243,-0.39552 -0.339347,-0.66607 -0.635178,-0.96487 -0.214616,-0.21677 -0.514472,-0.44949 -1.502833,-1.16638 -0.679098,-0.49257 -1.234723,-0.9008 -1.234723,-0.90718 0,-0.0179 0.48618,-0.37422 0.834589,-0.61174 0.413768,-0.28209 0.6023,-0.32713 0.901078,-0.21531 0.09895,0.037 0.442609,0.27569 1.177869,0.818 0.290817,0.21449 1.040117,0.75978 1.665111,1.21175 0.624994,0.45196 1.179184,0.86149 1.231532,0.91007 0.155077,0.14389 0.228779,0.33353 0.229101,0.5895 2.54e-4,0.20376 -0.02432,0.29494 -0.353736,1.31234 -0.194707,0.60134 -0.460628,1.41086 -0.590936,1.79891 -0.130308,0.38806 -0.314789,0.94592 -0.409958,1.23969 -0.09517,0.29377 -0.209382,0.61429 -0.253807,0.71227 -0.11303,0.24928 -0.347148,0.57849 -0.530694,0.74624 -0.41915,0.38308 -1.043929,0.68018 -1.568086,0.74567 l -0.165032,0.0206 z m 11.951885,-1.16597 v -0.52298 l 0.726723,-0.008 0.726722,-0.008 0.0081,-0.27516 0.0081,-0.27517 h 0.168311 0.168312 v 0.80433 0.80434 h -0.169334 -0.169333 v -0.29634 -0.29633 h -0.549346 -0.549346 l -0.008,0.28928 -0.008,0.28928 -0.176389,0.008 -0.176389,0.008 z m -0.733448,-0.0664 c -0.07756,-0.0628 -0.108081,-0.27719 -0.05702,-0.40046 0.06296,-0.152 0.324307,-0.18453 0.452518,-0.0563 0.08671,0.0867 0.0787,0.34577 -0.01355,0.43801 -0.08656,0.0866 -0.286129,0.0964 -0.381953,0.0188 z m -0.05677,-1.89651 v -0.50767 l 1.121834,-0.007 1.121833,-0.007 0.008,-0.28928 0.008,-0.28928 h 0.168346 0.168346 v 0.80434 0.80433 h -0.169334 -0.169333 v -0.28222 -0.28222 h -0.945444 -0.945445 v 0.28222 0.28222 h -0.183444 -0.183445 z m -11.445378,-2.07932 c -2.51875,-1.81661 -2.451859,-1.77126 -2.84451,-1.92848 -0.393776,-0.15768 -0.666081,-0.20857 -1.119445,-0.20923 -0.620131,-9e-4 -1.060393,0.11178 -1.592823,0.40766 -0.140653,0.0782 -0.786649,0.52904 -1.435546,1.00195 l -1.179814,0.85984 -0.06534,-0.1482 c -0.09816,-0.22264 -0.318166,-0.91471 -0.353519,-1.11205 -0.03298,-0.18413 -0.009,-0.36676 0.06775,-0.51511 0.06214,-0.12017 0.239865,-0.26827 0.890401,-0.74197 0.333728,-0.24301 1.171928,-0.85566 1.862667,-1.36145 0.690739,-0.50579 1.318707,-0.95125 1.395486,-0.9899 0.280297,-0.14112 0.687553,-0.0797 0.989292,0.14921 0.40031,0.30367 1.308139,0.96707 2.074333,1.51582 1.643386,1.17699 1.877205,1.36596 2.130629,1.72191 0.231247,0.32481 0.406286,0.74474 0.464669,1.11478 0.04169,0.26425 0.03615,0.98607 -0.0082,1.0659 -0.03473,0.0625 -0.06418,0.0434 -1.276055,-0.83068 z"
       id="path375" /></g></svg>
