<?xml version="1.0" encoding="UTF-8" standalone="no"?>
<!-- Created with Inkscape (http://www.inkscape.org/) -->

<svg
   width="29.616148mm"
   height="25.377382mm"
   viewBox="0 0 29.616148 25.377382"
   version="1.1"
   id="svg401"
   xml:space="preserve"
   inkscape:version="1.2 (dc2aeda, 2022-05-15)"
   sodipodi:docname="DDS logo outline.svg"
   xmlns:inkscape="http://www.inkscape.org/namespaces/inkscape"
   xmlns:sodipodi="http://sodipodi.sourceforge.net/DTD/sodipodi-0.dtd"
   xmlns="http://www.w3.org/2000/svg"
   xmlns:svg="http://www.w3.org/2000/svg"><sodipodi:namedview
     id="namedview403"
     pagecolor="#ffffff"
     bordercolor="#000000"
     borderopacity="0.25"
     inkscape:showpageshadow="2"
     inkscape:pageopacity="0.0"
     inkscape:pagecheckerboard="0"
     inkscape:deskcolor="#d1d1d1"
     inkscape:document-units="mm"
     showgrid="false"
     inkscape:zoom="3.4073436"
     inkscape:cx="57.229333"
     inkscape:cy="115.48586"
     inkscape:window-width="1800"
     inkscape:window-height="1097"
     inkscape:window-x="0"
     inkscape:window-y="44"
     inkscape:window-maximized="0"
     inkscape:current-layer="layer1" /><defs
     id="defs398" /><g
     inkscape:label="Layer 1"
     inkscape:groupmode="layer"
     id="layer1"
     transform="translate(59.489445,-135.8141)"><path
       style="fill:#000000;stroke-width:0.0282222"
       d="m -57.803237,161.15744 c -0.411018,-0.0821 -0.756256,-0.26987 -1.066554,-0.58016 -0.226476,-0.22648 -0.359038,-0.42429 -0.472384,-0.70491 -0.160798,-0.3981 -0.151662,0.33156 -0.143627,-11.47115 0.007,-10.32706 0.0099,-10.87395 0.05768,-11.03489 0.216484,-0.72907 0.739057,-1.26114 1.459608,-1.48613 l 0.211667,-0.0661 h 13.066888 c 12.370647,0 13.076664,0.003 13.250334,0.0495 0.734093,0.19822 1.314461,0.77882 1.516188,1.5168 0.04764,0.1743 0.05014,0.72909 0.05014,11.11956 0,10.39047 -0.0025,10.94526 -0.05014,11.11956 -0.199836,0.73106 -0.763245,1.29994 -1.502077,1.51666 -0.160456,0.0471 -0.851462,0.0499 -13.179778,0.0542 -10.709633,0.004 -13.043602,-0.002 -13.197943,-0.0329 z"
       id="path597"
       sodipodi:nodetypes="ccsccccscssccccc" /></g></svg>
