%FSLAX45Y45*%
G04 Gerber Fmt 4.5, Leading zero omitted, Abs format (unit mm)*
G04 Created by KiCad (PCBNEW (6.99.0-2103-gdc6c27b686)) date 2022-07-02 10:57:10*
%MOMM*%
%LPD*%
G01*
G04 APERTURE LIST*
%TA.AperFunction,Profile*%
%ADD10C,0.140000*%
%TD*%
%ADD11C,0.200000*%
%ADD12C,0.100000*%
G04 APERTURE END LIST*
D10*
X19140406Y-10501859D02*
X18471049Y-10996109D01*
X17078675Y-10007608D01*
X16070404Y-10716504D01*
X15593100Y-10428427D01*
X15008472Y-10840773D01*
X14395602Y-10391712D01*
X13918298Y-10708031D01*
X12949567Y-9996311D01*
X11545896Y-11004582D01*
X10859594Y-10504682D01*
X15042185Y-7535418D01*
X19140406Y-10501859D01*
D11*
D12*
X12637500Y-9512500D02*
X12737500Y-9612500D01*
X12737500Y-9512500D02*
X12637500Y-9612500D01*
X12637500Y-9766500D02*
X12737500Y-9866500D01*
X12737500Y-9766500D02*
X12637500Y-9866500D01*
X12891500Y-9512500D02*
X12991500Y-9612500D01*
X12991500Y-9512500D02*
X12891500Y-9612500D01*
X12891500Y-9766500D02*
X12991500Y-9866500D01*
X12991500Y-9766500D02*
X12891500Y-9866500D01*
X13145500Y-9512500D02*
X13245500Y-9612500D01*
X13245500Y-9512500D02*
X13145500Y-9612500D01*
X13145500Y-9766500D02*
X13245500Y-9866500D01*
X13245500Y-9766500D02*
X13145500Y-9866500D01*
D11*
X11100213Y-11305058D02*
X11100213Y-11105058D01*
X11100213Y-11105058D02*
X11147832Y-11105058D01*
X11147832Y-11105058D02*
X11176404Y-11114582D01*
X11176404Y-11114582D02*
X11195451Y-11133629D01*
X11195451Y-11133629D02*
X11204975Y-11152677D01*
X11204975Y-11152677D02*
X11214499Y-11190772D01*
X11214499Y-11190772D02*
X11214499Y-11219343D01*
X11214499Y-11219343D02*
X11204975Y-11257439D01*
X11204975Y-11257439D02*
X11195451Y-11276486D01*
X11195451Y-11276486D02*
X11176404Y-11295534D01*
X11176404Y-11295534D02*
X11147832Y-11305058D01*
X11147832Y-11305058D02*
X11100213Y-11305058D01*
X11300213Y-11305058D02*
X11300213Y-11171724D01*
X11300213Y-11209819D02*
X11309737Y-11190772D01*
X11309737Y-11190772D02*
X11319261Y-11181248D01*
X11319261Y-11181248D02*
X11338308Y-11171724D01*
X11338308Y-11171724D02*
X11357356Y-11171724D01*
X11424023Y-11305058D02*
X11424023Y-11171724D01*
X11424023Y-11105058D02*
X11414499Y-11114582D01*
X11414499Y-11114582D02*
X11424023Y-11124105D01*
X11424023Y-11124105D02*
X11433547Y-11114582D01*
X11433547Y-11114582D02*
X11424023Y-11105058D01*
X11424023Y-11105058D02*
X11424023Y-11124105D01*
X11547832Y-11305058D02*
X11528785Y-11295534D01*
X11528785Y-11295534D02*
X11519261Y-11276486D01*
X11519261Y-11276486D02*
X11519261Y-11105058D01*
X11652594Y-11305058D02*
X11633547Y-11295534D01*
X11633547Y-11295534D02*
X11624023Y-11276486D01*
X11624023Y-11276486D02*
X11624023Y-11105058D01*
X11848785Y-11305058D02*
X11848785Y-11105058D01*
X11848785Y-11105058D02*
X11915451Y-11247915D01*
X11915451Y-11247915D02*
X11982118Y-11105058D01*
X11982118Y-11105058D02*
X11982118Y-11305058D01*
X12163070Y-11305058D02*
X12163070Y-11200296D01*
X12163070Y-11200296D02*
X12153547Y-11181248D01*
X12153547Y-11181248D02*
X12134499Y-11171724D01*
X12134499Y-11171724D02*
X12096404Y-11171724D01*
X12096404Y-11171724D02*
X12077356Y-11181248D01*
X12163070Y-11295534D02*
X12144023Y-11305058D01*
X12144023Y-11305058D02*
X12096404Y-11305058D01*
X12096404Y-11305058D02*
X12077356Y-11295534D01*
X12077356Y-11295534D02*
X12067832Y-11276486D01*
X12067832Y-11276486D02*
X12067832Y-11257439D01*
X12067832Y-11257439D02*
X12077356Y-11238391D01*
X12077356Y-11238391D02*
X12096404Y-11228867D01*
X12096404Y-11228867D02*
X12144023Y-11228867D01*
X12144023Y-11228867D02*
X12163070Y-11219343D01*
X12258308Y-11171724D02*
X12258308Y-11371724D01*
X12258308Y-11181248D02*
X12277356Y-11171724D01*
X12277356Y-11171724D02*
X12315451Y-11171724D01*
X12315451Y-11171724D02*
X12334499Y-11181248D01*
X12334499Y-11181248D02*
X12344023Y-11190772D01*
X12344023Y-11190772D02*
X12353547Y-11209819D01*
X12353547Y-11209819D02*
X12353547Y-11266962D01*
X12353547Y-11266962D02*
X12344023Y-11286010D01*
X12344023Y-11286010D02*
X12334499Y-11295534D01*
X12334499Y-11295534D02*
X12315451Y-11305058D01*
X12315451Y-11305058D02*
X12277356Y-11305058D01*
X12277356Y-11305058D02*
X12258308Y-11295534D01*
X12439261Y-11286010D02*
X12448785Y-11295534D01*
X12448785Y-11295534D02*
X12439261Y-11305058D01*
X12439261Y-11305058D02*
X12429737Y-11295534D01*
X12429737Y-11295534D02*
X12439261Y-11286010D01*
X12439261Y-11286010D02*
X12439261Y-11305058D01*
X12439261Y-11181248D02*
X12448785Y-11190772D01*
X12448785Y-11190772D02*
X12439261Y-11200296D01*
X12439261Y-11200296D02*
X12429737Y-11190772D01*
X12429737Y-11190772D02*
X12439261Y-11181248D01*
X12439261Y-11181248D02*
X12439261Y-11200296D01*
D12*
X10752594Y-11601581D02*
X10852594Y-11701581D01*
X10852594Y-11601581D02*
X10752594Y-11701581D01*
D11*
X11204975Y-11725058D02*
X11090690Y-11725058D01*
X11147832Y-11725058D02*
X11147832Y-11525058D01*
X11147832Y-11525058D02*
X11128785Y-11553629D01*
X11128785Y-11553629D02*
X11109737Y-11572677D01*
X11109737Y-11572677D02*
X11090690Y-11582200D01*
X11290689Y-11706010D02*
X11300213Y-11715534D01*
X11300213Y-11715534D02*
X11290689Y-11725058D01*
X11290689Y-11725058D02*
X11281166Y-11715534D01*
X11281166Y-11715534D02*
X11290689Y-11706010D01*
X11290689Y-11706010D02*
X11290689Y-11725058D01*
X11424023Y-11525058D02*
X11443070Y-11525058D01*
X11443070Y-11525058D02*
X11462118Y-11534581D01*
X11462118Y-11534581D02*
X11471642Y-11544105D01*
X11471642Y-11544105D02*
X11481166Y-11563153D01*
X11481166Y-11563153D02*
X11490689Y-11601248D01*
X11490689Y-11601248D02*
X11490689Y-11648867D01*
X11490689Y-11648867D02*
X11481166Y-11686962D01*
X11481166Y-11686962D02*
X11471642Y-11706010D01*
X11471642Y-11706010D02*
X11462118Y-11715534D01*
X11462118Y-11715534D02*
X11443070Y-11725058D01*
X11443070Y-11725058D02*
X11424023Y-11725058D01*
X11424023Y-11725058D02*
X11404975Y-11715534D01*
X11404975Y-11715534D02*
X11395451Y-11706010D01*
X11395451Y-11706010D02*
X11385928Y-11686962D01*
X11385928Y-11686962D02*
X11376404Y-11648867D01*
X11376404Y-11648867D02*
X11376404Y-11601248D01*
X11376404Y-11601248D02*
X11385928Y-11563153D01*
X11385928Y-11563153D02*
X11395451Y-11544105D01*
X11395451Y-11544105D02*
X11404975Y-11534581D01*
X11404975Y-11534581D02*
X11424023Y-11525058D01*
X11614499Y-11525058D02*
X11633547Y-11525058D01*
X11633547Y-11525058D02*
X11652594Y-11534581D01*
X11652594Y-11534581D02*
X11662118Y-11544105D01*
X11662118Y-11544105D02*
X11671642Y-11563153D01*
X11671642Y-11563153D02*
X11681166Y-11601248D01*
X11681166Y-11601248D02*
X11681166Y-11648867D01*
X11681166Y-11648867D02*
X11671642Y-11686962D01*
X11671642Y-11686962D02*
X11662118Y-11706010D01*
X11662118Y-11706010D02*
X11652594Y-11715534D01*
X11652594Y-11715534D02*
X11633547Y-11725058D01*
X11633547Y-11725058D02*
X11614499Y-11725058D01*
X11614499Y-11725058D02*
X11595451Y-11715534D01*
X11595451Y-11715534D02*
X11585928Y-11706010D01*
X11585928Y-11706010D02*
X11576404Y-11686962D01*
X11576404Y-11686962D02*
X11566880Y-11648867D01*
X11566880Y-11648867D02*
X11566880Y-11601248D01*
X11566880Y-11601248D02*
X11576404Y-11563153D01*
X11576404Y-11563153D02*
X11585928Y-11544105D01*
X11585928Y-11544105D02*
X11595451Y-11534581D01*
X11595451Y-11534581D02*
X11614499Y-11525058D01*
X11804975Y-11525058D02*
X11824023Y-11525058D01*
X11824023Y-11525058D02*
X11843070Y-11534581D01*
X11843070Y-11534581D02*
X11852594Y-11544105D01*
X11852594Y-11544105D02*
X11862118Y-11563153D01*
X11862118Y-11563153D02*
X11871642Y-11601248D01*
X11871642Y-11601248D02*
X11871642Y-11648867D01*
X11871642Y-11648867D02*
X11862118Y-11686962D01*
X11862118Y-11686962D02*
X11852594Y-11706010D01*
X11852594Y-11706010D02*
X11843070Y-11715534D01*
X11843070Y-11715534D02*
X11824023Y-11725058D01*
X11824023Y-11725058D02*
X11804975Y-11725058D01*
X11804975Y-11725058D02*
X11785928Y-11715534D01*
X11785928Y-11715534D02*
X11776404Y-11706010D01*
X11776404Y-11706010D02*
X11766880Y-11686962D01*
X11766880Y-11686962D02*
X11757356Y-11648867D01*
X11757356Y-11648867D02*
X11757356Y-11601248D01*
X11757356Y-11601248D02*
X11766880Y-11563153D01*
X11766880Y-11563153D02*
X11776404Y-11544105D01*
X11776404Y-11544105D02*
X11785928Y-11534581D01*
X11785928Y-11534581D02*
X11804975Y-11525058D01*
X11957356Y-11725058D02*
X11957356Y-11591724D01*
X11957356Y-11610772D02*
X11966880Y-11601248D01*
X11966880Y-11601248D02*
X11985928Y-11591724D01*
X11985928Y-11591724D02*
X12014499Y-11591724D01*
X12014499Y-11591724D02*
X12033547Y-11601248D01*
X12033547Y-11601248D02*
X12043070Y-11620296D01*
X12043070Y-11620296D02*
X12043070Y-11725058D01*
X12043070Y-11620296D02*
X12052594Y-11601248D01*
X12052594Y-11601248D02*
X12071642Y-11591724D01*
X12071642Y-11591724D02*
X12100213Y-11591724D01*
X12100213Y-11591724D02*
X12119261Y-11601248D01*
X12119261Y-11601248D02*
X12128785Y-11620296D01*
X12128785Y-11620296D02*
X12128785Y-11725058D01*
X12224023Y-11725058D02*
X12224023Y-11591724D01*
X12224023Y-11610772D02*
X12233547Y-11601248D01*
X12233547Y-11601248D02*
X12252594Y-11591724D01*
X12252594Y-11591724D02*
X12281166Y-11591724D01*
X12281166Y-11591724D02*
X12300213Y-11601248D01*
X12300213Y-11601248D02*
X12309737Y-11620296D01*
X12309737Y-11620296D02*
X12309737Y-11725058D01*
X12309737Y-11620296D02*
X12319261Y-11601248D01*
X12319261Y-11601248D02*
X12338309Y-11591724D01*
X12338309Y-11591724D02*
X12366880Y-11591724D01*
X12366880Y-11591724D02*
X12385928Y-11601248D01*
X12385928Y-11601248D02*
X12395451Y-11620296D01*
X12395451Y-11620296D02*
X12395451Y-11725058D01*
X12753547Y-11515534D02*
X12582118Y-11772677D01*
X12978309Y-11525058D02*
X12997356Y-11525058D01*
X12997356Y-11525058D02*
X13016404Y-11534581D01*
X13016404Y-11534581D02*
X13025928Y-11544105D01*
X13025928Y-11544105D02*
X13035451Y-11563153D01*
X13035451Y-11563153D02*
X13044975Y-11601248D01*
X13044975Y-11601248D02*
X13044975Y-11648867D01*
X13044975Y-11648867D02*
X13035451Y-11686962D01*
X13035451Y-11686962D02*
X13025928Y-11706010D01*
X13025928Y-11706010D02*
X13016404Y-11715534D01*
X13016404Y-11715534D02*
X12997356Y-11725058D01*
X12997356Y-11725058D02*
X12978309Y-11725058D01*
X12978309Y-11725058D02*
X12959261Y-11715534D01*
X12959261Y-11715534D02*
X12949737Y-11706010D01*
X12949737Y-11706010D02*
X12940213Y-11686962D01*
X12940213Y-11686962D02*
X12930690Y-11648867D01*
X12930690Y-11648867D02*
X12930690Y-11601248D01*
X12930690Y-11601248D02*
X12940213Y-11563153D01*
X12940213Y-11563153D02*
X12949737Y-11544105D01*
X12949737Y-11544105D02*
X12959261Y-11534581D01*
X12959261Y-11534581D02*
X12978309Y-11525058D01*
X13130690Y-11706010D02*
X13140213Y-11715534D01*
X13140213Y-11715534D02*
X13130690Y-11725058D01*
X13130690Y-11725058D02*
X13121166Y-11715534D01*
X13121166Y-11715534D02*
X13130690Y-11706010D01*
X13130690Y-11706010D02*
X13130690Y-11725058D01*
X13264023Y-11525058D02*
X13283071Y-11525058D01*
X13283071Y-11525058D02*
X13302118Y-11534581D01*
X13302118Y-11534581D02*
X13311642Y-11544105D01*
X13311642Y-11544105D02*
X13321166Y-11563153D01*
X13321166Y-11563153D02*
X13330690Y-11601248D01*
X13330690Y-11601248D02*
X13330690Y-11648867D01*
X13330690Y-11648867D02*
X13321166Y-11686962D01*
X13321166Y-11686962D02*
X13311642Y-11706010D01*
X13311642Y-11706010D02*
X13302118Y-11715534D01*
X13302118Y-11715534D02*
X13283071Y-11725058D01*
X13283071Y-11725058D02*
X13264023Y-11725058D01*
X13264023Y-11725058D02*
X13244975Y-11715534D01*
X13244975Y-11715534D02*
X13235451Y-11706010D01*
X13235451Y-11706010D02*
X13225928Y-11686962D01*
X13225928Y-11686962D02*
X13216404Y-11648867D01*
X13216404Y-11648867D02*
X13216404Y-11601248D01*
X13216404Y-11601248D02*
X13225928Y-11563153D01*
X13225928Y-11563153D02*
X13235451Y-11544105D01*
X13235451Y-11544105D02*
X13244975Y-11534581D01*
X13244975Y-11534581D02*
X13264023Y-11525058D01*
X13397356Y-11525058D02*
X13521166Y-11525058D01*
X13521166Y-11525058D02*
X13454499Y-11601248D01*
X13454499Y-11601248D02*
X13483071Y-11601248D01*
X13483071Y-11601248D02*
X13502118Y-11610772D01*
X13502118Y-11610772D02*
X13511642Y-11620296D01*
X13511642Y-11620296D02*
X13521166Y-11639343D01*
X13521166Y-11639343D02*
X13521166Y-11686962D01*
X13521166Y-11686962D02*
X13511642Y-11706010D01*
X13511642Y-11706010D02*
X13502118Y-11715534D01*
X13502118Y-11715534D02*
X13483071Y-11725058D01*
X13483071Y-11725058D02*
X13425928Y-11725058D01*
X13425928Y-11725058D02*
X13406880Y-11715534D01*
X13406880Y-11715534D02*
X13397356Y-11706010D01*
X13616404Y-11725058D02*
X13654499Y-11725058D01*
X13654499Y-11725058D02*
X13673547Y-11715534D01*
X13673547Y-11715534D02*
X13683071Y-11706010D01*
X13683071Y-11706010D02*
X13702118Y-11677439D01*
X13702118Y-11677439D02*
X13711642Y-11639343D01*
X13711642Y-11639343D02*
X13711642Y-11563153D01*
X13711642Y-11563153D02*
X13702118Y-11544105D01*
X13702118Y-11544105D02*
X13692594Y-11534581D01*
X13692594Y-11534581D02*
X13673547Y-11525058D01*
X13673547Y-11525058D02*
X13635451Y-11525058D01*
X13635451Y-11525058D02*
X13616404Y-11534581D01*
X13616404Y-11534581D02*
X13606880Y-11544105D01*
X13606880Y-11544105D02*
X13597356Y-11563153D01*
X13597356Y-11563153D02*
X13597356Y-11610772D01*
X13597356Y-11610772D02*
X13606880Y-11629819D01*
X13606880Y-11629819D02*
X13616404Y-11639343D01*
X13616404Y-11639343D02*
X13635451Y-11648867D01*
X13635451Y-11648867D02*
X13673547Y-11648867D01*
X13673547Y-11648867D02*
X13692594Y-11639343D01*
X13692594Y-11639343D02*
X13702118Y-11629819D01*
X13702118Y-11629819D02*
X13711642Y-11610772D01*
X13883071Y-11591724D02*
X13883071Y-11725058D01*
X13835451Y-11515534D02*
X13787832Y-11658391D01*
X13787832Y-11658391D02*
X13911642Y-11658391D01*
X13978309Y-11525058D02*
X13978309Y-11563153D01*
X14054499Y-11525058D02*
X14054499Y-11563153D01*
X14317356Y-11801248D02*
X14307832Y-11791724D01*
X14307832Y-11791724D02*
X14288785Y-11763153D01*
X14288785Y-11763153D02*
X14279261Y-11744105D01*
X14279261Y-11744105D02*
X14269737Y-11715534D01*
X14269737Y-11715534D02*
X14260213Y-11667915D01*
X14260213Y-11667915D02*
X14260213Y-11629819D01*
X14260213Y-11629819D02*
X14269737Y-11582200D01*
X14269737Y-11582200D02*
X14279261Y-11553629D01*
X14279261Y-11553629D02*
X14288785Y-11534581D01*
X14288785Y-11534581D02*
X14307832Y-11506010D01*
X14307832Y-11506010D02*
X14317356Y-11496486D01*
X14479261Y-11525058D02*
X14441166Y-11525058D01*
X14441166Y-11525058D02*
X14422118Y-11534581D01*
X14422118Y-11534581D02*
X14412594Y-11544105D01*
X14412594Y-11544105D02*
X14393547Y-11572677D01*
X14393547Y-11572677D02*
X14384023Y-11610772D01*
X14384023Y-11610772D02*
X14384023Y-11686962D01*
X14384023Y-11686962D02*
X14393547Y-11706010D01*
X14393547Y-11706010D02*
X14403071Y-11715534D01*
X14403071Y-11715534D02*
X14422118Y-11725058D01*
X14422118Y-11725058D02*
X14460213Y-11725058D01*
X14460213Y-11725058D02*
X14479261Y-11715534D01*
X14479261Y-11715534D02*
X14488785Y-11706010D01*
X14488785Y-11706010D02*
X14498309Y-11686962D01*
X14498309Y-11686962D02*
X14498309Y-11639343D01*
X14498309Y-11639343D02*
X14488785Y-11620296D01*
X14488785Y-11620296D02*
X14479261Y-11610772D01*
X14479261Y-11610772D02*
X14460213Y-11601248D01*
X14460213Y-11601248D02*
X14422118Y-11601248D01*
X14422118Y-11601248D02*
X14403071Y-11610772D01*
X14403071Y-11610772D02*
X14393547Y-11620296D01*
X14393547Y-11620296D02*
X14384023Y-11639343D01*
X14704023Y-11725058D02*
X14704023Y-11525058D01*
X14789737Y-11725058D02*
X14789737Y-11620296D01*
X14789737Y-11620296D02*
X14780213Y-11601248D01*
X14780213Y-11601248D02*
X14761166Y-11591724D01*
X14761166Y-11591724D02*
X14732594Y-11591724D01*
X14732594Y-11591724D02*
X14713547Y-11601248D01*
X14713547Y-11601248D02*
X14704023Y-11610772D01*
X14913547Y-11725058D02*
X14894499Y-11715534D01*
X14894499Y-11715534D02*
X14884975Y-11706010D01*
X14884975Y-11706010D02*
X14875452Y-11686962D01*
X14875452Y-11686962D02*
X14875452Y-11629819D01*
X14875452Y-11629819D02*
X14884975Y-11610772D01*
X14884975Y-11610772D02*
X14894499Y-11601248D01*
X14894499Y-11601248D02*
X14913547Y-11591724D01*
X14913547Y-11591724D02*
X14942118Y-11591724D01*
X14942118Y-11591724D02*
X14961166Y-11601248D01*
X14961166Y-11601248D02*
X14970690Y-11610772D01*
X14970690Y-11610772D02*
X14980213Y-11629819D01*
X14980213Y-11629819D02*
X14980213Y-11686962D01*
X14980213Y-11686962D02*
X14970690Y-11706010D01*
X14970690Y-11706010D02*
X14961166Y-11715534D01*
X14961166Y-11715534D02*
X14942118Y-11725058D01*
X14942118Y-11725058D02*
X14913547Y-11725058D01*
X15094499Y-11725058D02*
X15075452Y-11715534D01*
X15075452Y-11715534D02*
X15065928Y-11696486D01*
X15065928Y-11696486D02*
X15065928Y-11525058D01*
X15246880Y-11715534D02*
X15227833Y-11725058D01*
X15227833Y-11725058D02*
X15189737Y-11725058D01*
X15189737Y-11725058D02*
X15170690Y-11715534D01*
X15170690Y-11715534D02*
X15161166Y-11696486D01*
X15161166Y-11696486D02*
X15161166Y-11620296D01*
X15161166Y-11620296D02*
X15170690Y-11601248D01*
X15170690Y-11601248D02*
X15189737Y-11591724D01*
X15189737Y-11591724D02*
X15227833Y-11591724D01*
X15227833Y-11591724D02*
X15246880Y-11601248D01*
X15246880Y-11601248D02*
X15256404Y-11620296D01*
X15256404Y-11620296D02*
X15256404Y-11639343D01*
X15256404Y-11639343D02*
X15161166Y-11658391D01*
X15332594Y-11715534D02*
X15351642Y-11725058D01*
X15351642Y-11725058D02*
X15389737Y-11725058D01*
X15389737Y-11725058D02*
X15408785Y-11715534D01*
X15408785Y-11715534D02*
X15418309Y-11696486D01*
X15418309Y-11696486D02*
X15418309Y-11686962D01*
X15418309Y-11686962D02*
X15408785Y-11667915D01*
X15408785Y-11667915D02*
X15389737Y-11658391D01*
X15389737Y-11658391D02*
X15361166Y-11658391D01*
X15361166Y-11658391D02*
X15342118Y-11648867D01*
X15342118Y-11648867D02*
X15332594Y-11629819D01*
X15332594Y-11629819D02*
X15332594Y-11620296D01*
X15332594Y-11620296D02*
X15342118Y-11601248D01*
X15342118Y-11601248D02*
X15361166Y-11591724D01*
X15361166Y-11591724D02*
X15389737Y-11591724D01*
X15389737Y-11591724D02*
X15408785Y-11601248D01*
X15484975Y-11801248D02*
X15494499Y-11791724D01*
X15494499Y-11791724D02*
X15513547Y-11763153D01*
X15513547Y-11763153D02*
X15523071Y-11744105D01*
X15523071Y-11744105D02*
X15532594Y-11715534D01*
X15532594Y-11715534D02*
X15542118Y-11667915D01*
X15542118Y-11667915D02*
X15542118Y-11629819D01*
X15542118Y-11629819D02*
X15532594Y-11582200D01*
X15532594Y-11582200D02*
X15523071Y-11553629D01*
X15523071Y-11553629D02*
X15513547Y-11534581D01*
X15513547Y-11534581D02*
X15494499Y-11506010D01*
X15494499Y-11506010D02*
X15484975Y-11496486D01*
M02*
