<?xml version="1.0" encoding="UTF-8" standalone="no"?>
<!-- Created with Inkscape (http://www.inkscape.org/) -->

<svg
   width="108.45801mm"
   height="13.616546mm"
   viewBox="0 0 108.45801 13.616546"
   version="1.1"
   id="svg5"
   xml:space="preserve"
   inkscape:version="1.2 (dc2aeda, 2022-05-15)"
   sodipodi:docname="intelligenesis words.svg"
   xmlns:inkscape="http://www.inkscape.org/namespaces/inkscape"
   xmlns:sodipodi="http://sodipodi.sourceforge.net/DTD/sodipodi-0.dtd"
   xmlns="http://www.w3.org/2000/svg"
   xmlns:svg="http://www.w3.org/2000/svg"><sodipodi:namedview
     id="namedview7"
     pagecolor="#ffffff"
     bordercolor="#000000"
     borderopacity="0.25"
     inkscape:showpageshadow="2"
     inkscape:pageopacity="0.0"
     inkscape:pagecheckerboard="0"
     inkscape:deskcolor="#d1d1d1"
     inkscape:document-units="mm"
     showgrid="false"
     inkscape:zoom="0.66052181"
     inkscape:cx="649.4865"
     inkscape:cy="137.01289"
     inkscape:window-width="1800"
     inkscape:window-height="1097"
     inkscape:window-x="0"
     inkscape:window-y="44"
     inkscape:window-maximized="0"
     inkscape:current-layer="layer1" /><defs
     id="defs2" /><g
     inkscape:label="Layer 1"
     inkscape:groupmode="layer"
     id="layer1"
     transform="translate(72.319508,-139.27053)"><path
       style="fill:#000000;stroke-width:0.0846667"
       d="m -48.526125,152.77121 c -0.637921,-0.17892 -1.071143,-0.45011 -1.582132,-0.99041 -0.840376,-0.88858 -1.159823,-1.83128 -1.155175,-3.40897 0.0063,-2.13319 0.724213,-3.51967 2.200284,-4.24918 0.552187,-0.2729 0.7313,-0.31834 1.376375,-0.34919 1.944692,-0.093 3.243114,1.03282 3.443156,2.9854 l 0.05683,0.55463 h -2.848026 -2.848026 l 0.0013,0.40217 c 0.0016,0.52065 0.203733,1.37117 0.432316,1.81922 0.279756,0.54838 1.038335,1.29135 1.537886,1.50625 1.266274,0.54474 2.608868,-0.0499 3.16473,-1.40159 0.163237,-0.39694 0.277757,-0.46144 0.450266,-0.25358 0.23997,0.28915 -0.481593,1.90172 -1.167918,2.61009 -0.721885,0.74507 -2.008107,1.0707 -3.061818,0.77516 z m 2.278905,-6.58727 c -0.07426,-0.54728 -0.227905,-0.85752 -0.601565,-1.21475 -1.055133,-1.00874 -2.691511,-0.25939 -2.997699,1.37274 l -0.0552,0.29423 h 1.857917 1.857917 z m 24.121035,6.59072 c -1.345023,-0.25539 -2.243743,-0.70637 -3.180173,-1.59579 -1.410234,-1.33945 -2.049196,-2.99965 -1.943126,-5.0488 0.06085,-1.17557 0.204462,-1.74865 0.690017,-2.75358 0.886324,-1.83434 2.279709,-3.06372 3.997376,-3.52688 0.50485,-0.13612 0.922333,-0.17971 1.762252,-0.18398 1.100404,-0.006 1.100946,-0.005 2.2717,0.39904 1.119335,0.38678 1.178204,0.39815 1.3335,0.25761 0.08936,-0.0809 0.162467,-0.21421 0.162467,-0.29632 0,-0.27287 0.100685,-0.41713 0.291117,-0.41713 0.184294,0 0.191381,0.0386 0.330548,1.79916 0.185428,2.34572 0.187739,2.26484 -0.06476,2.26484 -0.162518,0 -0.226179,-0.0659 -0.306612,-0.3175 -0.660129,-2.06477 -2.429815,-3.2196 -4.476615,-2.92128 -0.871787,0.12706 -1.51406,0.42438 -2.094128,0.9694 -1.002022,0.94149 -1.540044,2.1457 -1.722552,3.85547 -0.266268,2.49454 0.718168,5.08866 2.339501,6.16483 1.299413,0.86251 2.961471,0.95311 4.372018,0.23833 l 0.416263,-0.21094 -0.03106,-2.25932 c -0.02679,-1.94949 -0.05132,-2.29686 -0.178816,-2.53306 -0.176116,-0.32623 -0.470188,-0.49282 -1.013858,-0.57435 -0.349454,-0.0524 -0.40105,-0.0861 -0.40105,-0.2622 v -0.20205 h 2.370667 2.370667 v 0.20085 c 0,0.16986 -0.05387,0.20946 -0.349267,0.25669 -0.473676,0.0757 -0.638581,0.17652 -0.814019,0.49747 -0.130675,0.23904 -0.152493,0.57907 -0.176996,2.75783 l -0.02795,2.48517 -0.691719,0.32369 c -1.113019,0.52084 -1.856342,0.68264 -3.316385,0.72189 -0.887628,0.0239 -1.465402,-0.003 -1.919012,-0.0891 z m 11.022728,-0.003 c -0.637921,-0.17892 -1.071143,-0.45011 -1.582132,-0.99041 -0.839453,-0.8876 -1.159154,-1.83006 -1.156394,-3.40897 0.0037,-2.1302 0.722985,-3.51846 2.201503,-4.24918 0.552187,-0.2729 0.731299,-0.31835 1.376375,-0.34919 1.944692,-0.093 3.2431147,1.03282 3.4431566,2.98539 l 0.056828,0.55464 h -2.8480259 -2.8480257 l 0.0013,0.40217 c 0.0016,0.52065 0.203733,1.37117 0.432316,1.81922 0.279756,0.54838 1.038335,1.29135 1.537886,1.50625 1.2662743,0.54474 2.6088676,-0.0499 3.1647297,-1.40159 0.1632373,-0.39694 0.2777575,-0.46144 0.4502658,-0.25358 0.2399707,0.28915 -0.4815925,1.90172 -1.1679174,2.61009 -0.721885,0.74506 -2.0081071,1.0707 -3.0618181,0.77516 z m 2.2789057,-6.58727 c -0.074261,-0.54728 -0.2279057,-0.85752 -0.6015651,-1.21476 -0.7268126,-0.69485 -1.7610336,-0.59371 -2.4765346,0.24219 -0.270713,0.31627 -0.557521,0.9918 -0.557521,1.31316 0,0.089 0.374929,0.11163 1.848493,0.11163 h 1.8484941 z m 15.3317622,6.58727 c -0.6421966,-0.18012 -1.0715921,-0.45059 -1.596517,-1.00563 -0.4841579,-0.51192 -0.8663602,-1.25379 -1.0199455,-1.97975 -0.1352465,-0.63929 -0.1166876,-2.32706 0.032554,-2.96004 0.2916005,-1.23678 1.0190057,-2.1951 2.0548262,-2.70712 0.6282352,-0.31055 0.6693832,-0.31884 1.5808622,-0.31884 0.8342038,0 0.9875097,0.0242 1.4116643,0.22311 0.2617047,0.12271 0.6274986,0.36013 0.8128762,0.52761 0.5829047,0.52662 1.0396307,1.61207 1.0396307,2.47078 v 0.29216 H 7.9868283 5.1504949 v 0.36746 c 0,0.5166 0.2912787,1.59586 0.5497322,2.03687 0.291482,0.49739 0.9740985,1.12367 1.4580786,1.33775 0.549402,0.24303 1.2900406,0.23707 1.8693723,-0.0151 0.5270754,-0.22938 0.937277,-0.67416 1.216271,-1.31881 0.201125,-0.46472 0.271162,-0.51928 0.489373,-0.38121 0.300321,0.19003 -0.320878,1.70405 -1.0218421,2.49052 -0.7978987,0.89522 -2.0522947,1.26329 -3.2042694,0.94019 z m 2.3193249,-6.49488 c -0.1437047,-1.00801 -0.7521787,-1.66874 -1.6016309,-1.73918 -0.8379037,-0.0695 -1.5486126,0.44604 -1.8963979,1.37558 -0.2916344,0.77948 -0.4222242,0.72343 1.6856541,0.72343 h 1.8636658 z m 5.2986262,6.49405 c -0.880153,-0.20037 -1.241747,-0.23709 -1.306297,-0.13265 -0.0321,0.0519 -0.151367,0.0944 -0.265032,0.0944 h -0.206671 v -1.56633 -1.56634 h 0.200846 c 0.166277,0 0.209914,0.0546 0.253543,0.3175 0.139387,0.83973 0.819937,1.77414 1.535278,2.10796 1.331611,0.62142 2.595634,-0.29408 2.121213,-1.53634 -0.184328,-0.48264 -0.588925,-0.82792 -1.633474,-1.39399 -1.899531,-1.02941 -2.337638,-1.44851 -2.495711,-2.38745 -0.173135,-1.02841 0.227796,-2.03307 1.009074,-2.52854 0.748733,-0.47483 1.461542,-0.53928 2.64,-0.2387 l 0.715247,0.18244 0.147735,-0.18244 c 0.08125,-0.10034 0.227347,-0.18244 0.324654,-0.18244 0.172746,0 0.176928,0.0352 0.176928,1.48756 0,1.45248 -0.0041,1.48692 -0.173744,1.4605 -0.13098,-0.0204 -0.224519,-0.17292 -0.380052,-0.61972 -0.11347,-0.32597 -0.313097,-0.74475 -0.443611,-0.93062 -0.597086,-0.85033 -1.838003,-1.02751 -2.533515,-0.36174 -0.324967,0.31108 -0.405282,0.612 -0.283768,1.06326 0.136965,0.50866 0.655828,0.91844 2.097591,1.65661 1.070974,0.54832 1.360399,0.73832 1.713941,1.12515 0.52374,0.57306 0.728362,1.16992 0.646227,1.88501 -0.198382,1.72717 -1.869855,2.70002 -3.860402,2.24688 z m 12.742334,0.0538 c -0.186267,-0.0362 -0.578646,-0.11789 -0.871957,-0.18142 -0.420472,-0.0911 -0.567995,-0.0938 -0.697349,-0.0131 -0.09024,0.0564 -0.240783,0.10246 -0.334543,0.10246 -0.164727,0 -0.170485,-0.0529 -0.170485,-1.56633 v -1.56634 h 0.195004 c 0.166362,0 0.222377,0.085 0.381398,0.57877 0.251562,0.78106 0.629311,1.32415 1.17133,1.68404 0.376064,0.24969 0.54676,0.30619 1.02395,0.33896 0.499923,0.0343 0.609295,0.0141 0.861204,-0.15939 0.448302,-0.30873 0.614562,-0.58731 0.614562,-1.02977 0,-0.79894 -0.384015,-1.18535 -2.130781,-2.14407 -1.772234,-0.97269 -2.184366,-1.53149 -2.099098,-2.84608 0.04607,-0.71016 0.20038,-1.06189 0.687391,-1.56677 0.672499,-0.69716 1.648249,-0.86255 2.998868,-0.50832 l 0.722021,0.18937 0.125738,-0.18937 c 0.07152,-0.10771 0.212556,-0.18937 0.327076,-0.18937 h 0.201337 v 1.48167 1.48167 h -0.196206 c -0.164719,0 -0.220684,-0.0781 -0.348768,-0.48684 -0.344322,-1.09871 -0.82058,-1.63444 -1.596144,-1.79545 -1.238606,-0.25713 -2.101554,0.63433 -1.612231,1.6655 0.186224,0.39243 0.590719,0.67451 2.01455,1.40483 1.891733,0.97031 2.400833,1.62391 2.312949,2.96938 -0.06533,1.00022 -0.562466,1.68841 -1.543185,2.13626 -0.542248,0.24762 -1.392106,0.33512 -2.036631,0.20967 z m -81.342318,-0.0917 c -0.458647,-0.1381 -0.814603,-0.42994 -1.011174,-0.82905 -0.1942,-0.39429 -0.196824,-0.439 -0.222893,-3.80681 L -55.73528,144.69 h -0.629776 c -0.601887,0 -0.629784,-0.009 -0.629784,-0.19599 0,-0.13721 0.08252,-0.23613 0.275166,-0.32985 0.709532,-0.34519 1.624872,-1.44827 2.01334,-2.42629 0.167826,-0.42253 0.241977,-0.51921 0.398196,-0.51921 0.191753,0 0.191964,0.002 0.191964,1.397 v 1.397 h 0.973667 0.973667 v 0.33867 0.33867 l -0.529167,7.6e-4 c -0.291042,4.2e-4 -0.729192,0.0248 -0.973667,0.0541 l -0.4445,0.0534 v 2.99659 c 0,3.2581 0.02128,3.42743 0.46742,3.71975 0.205968,0.13496 0.260722,0.13759 0.577206,0.0277 0.223723,-0.0776 0.411133,-0.21928 0.520345,-0.39325 0.123393,-0.19655 0.235221,-0.27281 0.403529,-0.27517 0.128059,-0.002 0.232834,0.0182 0.232834,0.0444 0,0.0262 -0.103327,0.25869 -0.229616,0.51661 -0.289001,0.59021 -0.84974,1.09103 -1.406788,1.25646 -0.470459,0.13971 -0.582955,0.14486 -0.923578,0.0423 z M -72.319508,152.448 c 0,-0.1829 0.04348,-0.20385 0.511027,-0.24625 0.559055,-0.0507 0.846223,-0.19654 1.075294,-0.54612 0.138566,-0.21146 0.149346,-0.60122 0.149346,-5.40002 0,-4.86707 -0.0091,-5.18604 -0.154752,-5.40831 -0.19885,-0.30351 -0.617432,-0.47606 -1.154862,-0.47606 -0.398012,0 -0.426053,-0.0139 -0.426053,-0.21167 v -0.21167 h 2.667001 2.667 v 0.21167 c 0,0.20072 -0.02465,0.21167 -0.476841,0.21167 -0.606124,0 -0.99258,0.22217 -1.147607,0.65974 -0.08709,0.24581 -0.111219,1.40777 -0.111219,5.35535 0,4.74068 0.0092,5.05551 0.154767,5.27759 0.196652,0.30009 0.756723,0.55639 1.221066,0.55879 0.326882,0.002 0.359834,0.0212 0.359834,0.21353 v 0.21166 h -2.667 -2.667001 z m 6.096001,-0.0118 c 0,-0.17416 0.04125,-0.21189 0.232833,-0.21292 0.355617,-0.002 0.640715,-0.18197 0.804198,-0.50793 0.132012,-0.26319 0.148006,-0.5977 0.147701,-3.08915 0,-1.59719 -0.03652,-2.92423 -0.08479,-3.09803 -0.108432,-0.39033 -0.374751,-0.52325 -0.808471,-0.40349 -0.329784,0.0911 -0.48619,5.9e-4 -0.439528,-0.25413 0.02815,-0.15368 2.317517,-1.10652 2.666894,-1.10997 l 0.275167,-0.003 v 0.8151 0.8151 l 0.619303,-0.58828 c 0.786113,-0.74673 1.266393,-0.98694 2.047697,-1.02416 0.731613,-0.0349 1.214848,0.18109 1.626447,0.72681 0.515416,0.68337 0.551129,0.93141 0.60805,4.22296 l 0.0515,2.97785 0.204233,0.21722 c 0.141241,0.15023 0.330547,0.23397 0.613833,0.27155 0.359249,0.0477 0.409601,0.079 0.409601,0.2551 v 0.20075 h -2.116667 -2.116667 V 152.437 c 0,-0.17924 0.03933,-0.21167 0.256718,-0.21167 0.141199,0 0.39022,-0.0558 0.553381,-0.12395 0.514037,-0.21478 0.544746,-0.39308 0.543247,-3.15416 -0.0015,-2.78529 -0.06615,-3.26323 -0.49994,-3.6967 -0.236347,-0.23617 -0.315815,-0.26363 -0.749393,-0.25891 -0.586689,0.006 -1.053042,0.22709 -1.640036,0.77616 l -0.41131,0.38473 v 2.6158 c 0,3.24841 0.01354,3.29623 0.970254,3.42736 0.332842,0.0456 0.384412,0.0795 0.384412,0.25285 v 0.20015 h -2.074333 -2.074333 z m 23.283334,0.0142 c 0,-0.16746 0.05993,-0.20929 0.394165,-0.27517 0.279858,-0.0552 0.445601,-0.147 0.5715,-0.31668 0.174769,-0.23552 0.177665,-0.31293 0.200406,-5.34267 0.02411,-5.33316 0.0075,-5.62244 -0.336956,-5.83737 -0.102616,-0.064 -0.245728,-0.0632 -0.493234,0.003 -0.327956,0.0875 -0.354144,0.0811 -0.440699,-0.10891 -0.05061,-0.11108 -0.07631,-0.21634 -0.0571,-0.23391 0.130455,-0.11936 2.561836,-1.06801 2.737291,-1.06801 h 0.218626 v 6.05639 c 0,6.47142 0.0019,6.50275 0.41275,6.72262 0.0952,0.0509 0.346075,0.11634 0.557504,0.14532 0.332842,0.0456 0.384413,0.0795 0.384413,0.25285 v 0.20016 h -2.074334 -2.074333 v -0.19748 z m 5.164667,-0.0142 c 0,-0.17005 0.04216,-0.21167 0.214384,-0.21167 0.117915,0 0.339954,-0.0525 0.493412,-0.11658 0.527211,-0.22029 0.51987,-0.13759 0.51987,-5.85619 0,-4.80536 -0.01055,-5.18454 -0.150122,-5.3975 -0.163813,-0.24997 -0.519066,-0.30735 -0.839877,-0.13565 -0.188391,0.10082 -0.318473,-0.007 -0.321039,-0.26684 -0.0015,-0.15647 2.366561,-1.18124 2.729696,-1.18124 h 0.232342 l 0.0013,6.11717 c 9.32e-4,4.72008 0.02541,6.16551 0.107019,6.32883 0.124231,0.24864 0.598035,0.50768 0.928903,0.50787 0.19188,8e-5 0.232834,0.0374 0.232834,0.2118 v 0.21166 h -2.074334 -2.074333 V 152.437 Z m 5.249333,0.01 c 0,-0.17427 0.05188,-0.20983 0.377385,-0.25864 0.608025,-0.0912 0.777705,-0.36474 0.854481,-1.37763 0.101516,-1.33913 -0.01571,-5.13781 -0.167606,-5.43155 -0.151308,-0.29259 -0.371864,-0.36401 -0.777917,-0.2519 -0.343942,0.095 -0.358911,0.0884 -0.390347,-0.17241 -0.02061,-0.17094 0.103361,-0.24287 1.194866,-0.69327 0.669815,-0.2764 1.325254,-0.50255 1.456521,-0.50255 h 0.238667 l 0.02514,3.8735 c 0.02255,3.47362 0.04018,3.90096 0.170739,4.13949 0.147346,0.26918 0.506451,0.45368 0.88304,0.45368 0.155863,0 0.199034,0.0459 0.199034,0.21167 v 0.21166 h -2.032 -2.032 z m 26.5853346,0.005 c 0,-0.16745 0.059927,-0.20929 0.3941657,-0.27517 0.2797556,-0.0551 0.445643,-0.14703 0.5715,-0.31657 0.1703578,-0.22948 0.178308,-0.34946 0.2021163,-3.048 0.013631,-1.54501 -0.00643,-2.95816 -0.044569,-3.14032 -0.099788,-0.47652 -0.3871892,-0.67001 -0.8174229,-0.5503 -0.3471841,0.0966 -0.5001853,0.0105 -0.4538472,-0.25533 0.027381,-0.15712 2.3059137,-1.1004 2.66689,-1.10405 l 0.2751667,-0.003 v 0.80944 0.80944 l 0.5588508,-0.55338 c 0.6636512,-0.65715 1.3104453,-1.00059 1.97489242,-1.04865 1.14492197,-0.0828 1.89894638,0.50847 2.22559888,1.74526 0.045356,0.17173 0.1074843,1.63321 0.1380575,3.24774 l 0.055601,2.93552 0.2042329,0.21722 c 0.1412494,0.15024 0.3305387,0.23398 0.6138334,0.27156 0.3592491,0.0477 0.4096004,0.079 0.4096004,0.2551 v 0.20075 H 0.91716144 -1.1995053 V 152.437 c 0,-0.17924 0.039328,-0.21167 0.25671781,-0.21167 0.1411986,0 0.39022021,-0.0558 0.55338135,-0.12395 0.53660888,-0.22421 0.56280475,-0.39148 0.52982708,-3.3829 -0.0271187,-2.46023 -0.04055533,-2.65628 -0.206502,-3.01248 -0.27089101,-0.58145 -0.47293955,-0.72065 -1.03669254,-0.71422 -0.591202,0.007 -1.1712618,0.28844 -1.6876184,0.81958 l -0.3632116,0.37361 0.024545,2.76436 0.024553,2.76437 0.2155275,0.21542 c 0.1530689,0.15299 0.3432387,0.23055 0.6561667,0.26761 0.3918966,0.0464 0.4406392,0.0743 0.4406392,0.25206 v 0.19987 H -3.8665056 -5.940839 v -0.19747 z m 25.2306674,0.001 c 0,-0.16964 0.0592,-0.20691 0.437032,-0.27516 0.328583,-0.0594 0.480907,-0.13823 0.613833,-0.31782 0.168902,-0.2282 0.178012,-0.35684 0.203827,-2.87867 0.01487,-1.45189 0.0019,-2.84494 -0.02868,-3.09566 -0.0708,-0.57936 -0.341409,-0.89105 -0.695062,-0.80057 -0.4482,0.11467 -0.573287,0.0859 -0.573287,-0.13179 0,-0.18083 0.128922,-0.25678 1.185334,-0.69832 0.651933,-0.27249 1.309158,-0.49552 1.4605,-0.49561 l 0.275166,-1.9e-4 v 3.88215 3.88215 l 0.193074,0.28768 c 0.152985,0.22795 0.276056,0.30382 0.592667,0.36538 0.339928,0.0661 0.399593,0.10718 0.399593,0.27517 v 0.19747 h -2.032 -2.032 v -0.19621 z m 11.938,0.12061 c 0,-0.0416 0.05715,-0.0975 0.127,-0.12434 0.0974,-0.0374 0.127,-0.19799 0.127,-0.68905 0,-0.49107 -0.0296,-0.65168 -0.127,-0.68905 -0.269892,-0.10357 -0.106646,-0.19995 0.338667,-0.19995 0.256116,0 0.465666,0.0381 0.465666,0.0847 0,0.0466 -0.05715,0.0847 -0.127,0.0847 -0.102226,0 -0.127,0.13115 -0.127,0.67234 0,0.381 0.03877,0.6963 0.08948,0.72764 0.167386,0.10344 0.473803,-0.0405 0.587722,-0.27611 0.09477,-0.19599 0.119431,-0.20924 0.149014,-0.08 0.0195,0.0852 0.0123,0.24711 -0.01599,0.35984 -0.04937,0.19669 -0.08044,0.20497 -0.769501,0.20497 -0.394928,0 -0.71805,-0.034 -0.71805,-0.0756 z m 1.608667,-0.009 c 0,-0.0466 0.05715,-0.0847 0.127,-0.0847 0.102929,0 0.127,-0.13641 0.127,-0.71967 0,-0.58326 -0.02407,-0.71966 -0.127,-0.71966 -0.06985,0 -0.127,-0.0381 -0.127,-0.0847 0,-0.0466 0.20955,-0.0847 0.465666,-0.0847 0.256117,0 0.465667,0.0381 0.465667,0.0847 0,0.0466 -0.05715,0.0847 -0.127,0.0847 -0.102226,0 -0.127,0.13115 -0.127,0.67233 0,0.381 0.03877,0.6963 0.08948,0.72764 0.165972,0.10258 0.498043,-0.0459 0.624662,-0.27922 l 0.125747,-0.23175 0.0034,0.35983 0.0034,0.35983 h -0.762 c -0.451552,0 -0.762,-0.0345 -0.762,-0.0847 z m 1.940822,-0.16282 c -0.282515,-0.28252 -0.330013,-0.70201 -0.124485,-1.09946 0.159131,-0.30772 0.487536,-0.43826 1.041163,-0.41384 0.441968,0.0195 0.4445,0.0212 0.4445,0.29753 0,0.3334 -0.04942,0.34557 -0.26913,0.0662 -0.348945,-0.44361 -0.831537,-0.14879 -0.831537,0.508 0,0.62545 0.353196,0.88048 0.807314,0.58293 0.151164,-0.0991 0.208686,-0.10745 0.208686,-0.0305 0,0.18714 -0.28575,0.33111 -0.662677,0.33388 -0.294065,0.002 -0.41518,-0.0461 -0.613834,-0.24479 z m -65.662795,-11.21932 c -0.374379,-0.16294 -0.540029,-0.44106 -0.540029,-0.90668 0,-0.71281 0.566056,-1.13734 1.226049,-0.91953 0.423825,0.13988 0.636617,0.44888 0.636617,0.92445 0,0.46832 -0.169299,0.74267 -0.558681,0.90536 -0.343882,0.14369 -0.426432,0.1433 -0.763956,-0.004 z m 51.995639,0.0506 c -0.882303,-0.29126 -0.980491,-1.50043 -0.150021,-1.84742 1.007161,-0.42082 1.849628,0.85665 1.056073,1.60136 -0.246109,0.23096 -0.633273,0.33611 -0.906052,0.24606 z"
       id="path483"
       sodipodi:nodetypes="sscsssccccsssssssssscccsssscscccsssscssssscscsscccscsscscsssscscsccccsssssssssssscscsssssssscccssscsssccsssscscsscccscsssssscssssssssssscccscsscssscsssssscsscccssssssscccsccsssssscccccsccsscscsssccsssscsscccssssccscccsscscccsccccscsscscscccssccscscscscccsscssccscscsccsccccscscssscsccscscccccscsscssscsssscccsscsssssccccsssscscscccsscsscscccsssccccsscsscsssscccsssccccsssssssssssssssscsssssssssscccscccssscscsccccssssccssss" /></g></svg>
