<?xml version="1.0" encoding="UTF-8" standalone="no"?>
<!-- Created with Inkscape (http://www.inkscape.org/) -->

<svg
   width="151.97667mm"
   height="27.15679mm"
   viewBox="0 0 151.97667 27.15679"
   version="1.1"
   id="svg5"
   xml:space="preserve"
   inkscape:version="1.2 (dc2aeda, 2022-05-15)"
   sodipodi:docname="intelligenesis logo.svg"
   xmlns:inkscape="http://www.inkscape.org/namespaces/inkscape"
   xmlns:sodipodi="http://sodipodi.sourceforge.net/DTD/sodipodi-0.dtd"
   xmlns="http://www.w3.org/2000/svg"
   xmlns:svg="http://www.w3.org/2000/svg"><sodipodi:namedview
     id="namedview7"
     pagecolor="#ffffff"
     bordercolor="#000000"
     borderopacity="0.25"
     inkscape:showpageshadow="2"
     inkscape:pageopacity="0.0"
     inkscape:pagecheckerboard="0"
     inkscape:deskcolor="#d1d1d1"
     inkscape:document-units="mm"
     showgrid="false"
     inkscape:zoom="1.0262115"
     inkscape:cx="140.32196"
     inkscape:cy="148.60485"
     inkscape:window-width="1800"
     inkscape:window-height="1097"
     inkscape:window-x="0"
     inkscape:window-y="44"
     inkscape:window-maximized="0"
     inkscape:current-layer="layer1" /><defs
     id="defs2" /><g
     inkscape:label="Layer 1"
     inkscape:groupmode="layer"
     id="layer1"
     transform="translate(115.83818,-132.01195)"><path
       style="fill:#000000;stroke-width:0.0846667"
       d="m -115.83818,159.04937 c 0,-0.0614 0.32819,-0.50748 0.7293,-0.99132 5.77434,-6.96533 16.867379,-12.90171 30.28295,-16.20575 1.835814,-0.45213 3.072557,-0.69978 3.139374,-0.62863 0.08664,0.0923 5.886081,11.03952 5.861392,11.06421 -0.01526,0.0153 -0.709112,-0.0295 -1.541882,-0.0995 -11.62875,-0.9772 -23.456934,0.65732 -33.348794,4.60843 -1.59215,0.63595 -3.56439,1.52562 -4.5085,2.03378 -0.39738,0.21388 -0.61384,0.29103 -0.61384,0.21877 z m 3.64067,0.0771 c 0,-0.0835 1.51537,-0.79578 2.75167,-1.29334 3.64347,-1.46634 8.14301,-2.65134 13.419665,-3.53421 3.042399,-0.50903 6.953939,-0.98823 9.017,-1.10464 l 0.931334,-0.0526 1.185333,2.18295 c 0.651933,1.20062 1.387622,2.55652 1.634862,3.01312 l 0.449529,0.83017 h -14.694696 c -8.082087,0 -14.694697,-0.0187 -14.694697,-0.0415 z m 42.127504,-1.70365 c -0.400034,-1.03891 -0.733757,-1.78279 -0.8255,-1.84009 -0.287186,-0.17935 -0.15576,-0.22477 0.650332,-0.22477 0.479778,0 0.804333,0.0342 0.804333,0.0847 0,0.0466 -0.05715,0.0847 -0.127,0.0847 -0.203512,0 -0.145266,0.31044 0.245747,1.30975 0.40119,1.02534 0.363608,1.019 0.7189,0.12127 l 0.187587,-0.47398 -0.211624,-0.47852 c -0.15819,-0.35769 -0.255557,-0.47852 -0.385617,-0.47852 -0.0957,0 -0.173993,-0.0381 -0.173993,-0.0847 0,-0.0511 0.352778,-0.0847 0.889,-0.0847 0.536222,0 0.889,0.0336 0.889,0.0847 0,0.0466 -0.0549,0.0847 -0.122003,0.0847 -0.0671,0 -0.146751,0.04 -0.176997,0.089 -0.05112,0.0827 0.631724,2.06185 0.690944,2.00263 0.07566,-0.0756 0.624056,-1.70114 0.624056,-1.84974 0,-0.10185 -0.06967,-0.19127 -0.169333,-0.21734 -0.339896,-0.0889 -0.156504,-0.19386 0.338667,-0.19386 0.2794,0 0.508,0.0225 0.508,0.0499 0,0.0275 -0.07227,0.11318 -0.160605,0.1905 -0.08833,0.0773 -0.436228,0.91209 -0.773099,1.85507 -0.336873,0.94297 -0.655126,1.71449 -0.70723,1.71448 -0.0521,-1e-5 -0.280358,-0.51436 -0.507232,-1.143 -0.226876,-0.62864 -0.420683,-1.14298 -0.430684,-1.14298 -0.01,0 -0.221118,0.51435 -0.46915,1.143 -0.248033,0.62865 -0.492376,1.14272 -0.542985,1.14238 -0.05061,-3.4e-4 -0.39419,-0.78537 -0.763514,-1.74452 z m 29.743637,0.29479 -1.132138,-1.45034 -0.02355,1.20596 c -0.02453,1.25601 0.01781,1.44073 0.330242,1.44073 0.08743,0 0.15897,0.0381 0.15897,0.0847 0,0.0489 -0.268114,0.0847 -0.635,0.0847 -0.366886,0 -0.635,-0.0357 -0.635,-0.0847 0,-0.0466 0.07486,-0.0847 0.166353,-0.0847 0.285471,0 0.341647,-0.27443 0.341647,-1.66893 0,-1.07704 -0.02598,-1.37848 -0.131801,-1.52957 -0.07249,-0.10349 -0.186791,-0.18817 -0.254,-0.18817 -0.06721,0 -0.122199,-0.0381 -0.122199,-0.0847 0,-0.0495 0.272678,-0.0831 0.656167,-0.0809 l 0.656166,0.004 0.804334,1.05902 0.804333,1.05901 0.02423,-0.80858 c 0.02595,-0.86597 -0.05344,-1.14757 -0.323545,-1.14757 -0.09149,0 -0.166354,-0.0381 -0.166354,-0.0847 0,-0.0489 0.268114,-0.0847 0.635001,-0.0847 0.366886,0 0.635,0.0358 0.635,0.0847 0,0.0466 -0.05443,0.0847 -0.120955,0.0847 -0.06652,0 -0.180823,0.0599 -0.254,0.13305 -0.112048,0.11205 -0.133045,0.39932 -0.133045,1.82033 0,0.92801 -0.03347,1.68729 -0.07436,1.68729 -0.0409,0 -0.583828,-0.65266 -1.2065,-1.45035 z m 23.737757,1.34286 c -0.774082,-0.29624 -1.206636,-0.93336 -1.203698,-1.77297 0.0052,-1.4737 1.31075,-2.36445 2.747916,-1.87475 0.380052,0.12949 0.41656,0.12949 0.511251,0 0.177098,-0.2422 0.210304,-0.15726 0.210304,0.53787 0,0.39512 -0.03528,0.67734 -0.08467,0.67734 -0.04657,0 -0.08467,-0.057 -0.08467,-0.12676 0,-0.23619 -0.595673,-0.79886 -0.945422,-0.89304 -0.277182,-0.0746 -0.387139,-0.0639 -0.641579,0.0627 -0.421022,0.20945 -0.599584,0.48554 -0.706315,1.09209 -0.107569,0.61129 0.0063,1.39958 0.249572,1.72762 0.21082,0.28428 0.689331,0.45807 1.066436,0.38732 0.296215,-0.0556 0.299974,-0.0616 0.299974,-0.48133 0,-0.50361 -0.11303,-0.7526 -0.341647,-0.7526 -0.09149,0 -0.166353,-0.0381 -0.166353,-0.0847 0,-0.0511 0.352781,-0.0847 0.889,-0.0847 0.53622,0 0.889,0.0336 0.889,0.0847 0,0.0466 -0.05581,0.0847 -0.124019,0.0847 -0.192067,0 -0.299314,0.28324 -0.299314,0.79048 0,0.44522 -0.01054,0.46681 -0.275167,0.56355 -0.407814,0.1491 -1.661456,0.18845 -1.990606,0.0625 z m 9.6317732,-1.37247 -1.143,-1.47369 -0.025256,1.03232 c -0.03357,1.37209 0.00677,1.57473 0.3259921,1.63857 0.4722452,0.0944 0.2484543,0.19809 -0.4277361,0.19809 -0.3951139,0 -0.6773333,-0.0353 -0.6773333,-0.0847 0,-0.0466 0.06858,-0.0847 0.1524,-0.0847 0.3225038,0 0.3556,-0.15402 0.3556,-1.65481 0,-1.29877 -0.016298,-1.46637 -0.1548299,-1.59174 -0.085158,-0.0771 -0.1994578,-0.14012 -0.254,-0.14012 -0.054542,0 -0.09917,-0.0381 -0.09917,-0.0847 0,-0.0493 0.2782316,-0.0847 0.6653615,-0.0847 h 0.665353 l 0.8374804,1.09196 0.8374719,1.09196 0.024164,-0.73989 c 0.026729,-0.81837 -0.067268,-1.18395 -0.3215132,-1.25043 -0.3593592,-0.094 -0.1409869,-0.1936 0.4243494,-0.1936 0.6096846,0 0.735457,0.0665 0.4021666,0.21275 -0.1876382,0.0823 -0.1908471,0.11 -0.2133854,1.84041 -0.017238,1.32326 -0.048582,1.75606 -0.127,1.75371 -0.05726,-0.002 -0.6184646,-0.6663 -1.2471146,-1.47683 z m 3.8308112,1.3172 c -0.6990927,-0.32597 -1.0368111,-0.88394 -1.0368111,-1.71297 0,-0.56769 0.1237488,-0.92123 0.4634907,-1.32415 0.4988222,-0.59159 1.3047896,-0.80808 2.122949,-0.57024 0.4514935,0.13126 0.5042154,0.13212 0.59369118,0.01 0.17303327,-0.23664 0.20653587,-0.14856 0.20653587,0.54303 0,0.37254 -0.028575,0.67695 -0.0635,0.67648 -0.034925,-5.1e-4 -0.12667827,-0.15131 -0.20389425,-0.33519 -0.2608919,-0.62128 -0.9899227,-0.85858 -1.5584001,-0.50724 -0.6996177,0.43238 -0.7978141,2.17592 -0.1585553,2.81518 0.4012269,0.40123 1.0669355,0.35039 1.605661,-0.12261 l 0.29402198,-0.25816 v 0.21924 c 0,0.16338 -0.0897297,0.27862 -0.35219638,0.45231 -0.4735746,0.31339 -1.3712868,0.36716 -1.9129926,0.11457 z m 19.2837146,-0.0636 c -0.628439,-0.32335 -0.951222,-0.79084 -0.998635,-1.44632 -0.05265,-0.72777 0.09659,-1.15922 0.561907,-1.62453 0.588679,-0.58868 1.328242,-0.74061 2.213458,-0.45472 0.414613,0.13391 0.446998,0.13391 0.521936,0 0.164126,-0.29329 0.240809,-0.12307 0.240809,0.53457 0,0.38575 -0.0357,0.67734 -0.08295,0.67734 -0.04562,0 -0.15941,-0.14988 -0.252865,-0.33307 -0.312725,-0.613 -0.974209,-0.88625 -1.510657,-0.62403 -0.475226,0.23229 -0.69353,0.73344 -0.69353,1.5921 0,1.17521 0.482016,1.77002 1.308693,1.61493 l 0.299974,-0.0563 v -0.48723 c 0,-0.50554 -0.09522,-0.69043 -0.3556,-0.69043 -0.08382,0 -0.1524,-0.0381 -0.1524,-0.0847 0,-0.0511 0.35278,-0.0847 0.889,-0.0847 0.817507,0 1.134482,0.0854 0.719666,0.19387 -0.147904,0.0387 -0.169333,0.11549 -0.169333,0.60686 v 0.56258 l -0.3175,0.13659 c -0.174972,0.0753 -0.640554,0.15227 -1.037167,0.17151 -0.660146,0.032 -0.758139,0.0151 -1.184808,-0.20441 z m 8.379867,-1.23416 -1.141392,-1.4605 -0.02356,1.16525 c -0.02569,1.27028 0.03061,1.50175 0.36521,1.50175 0.114774,0 0.208686,0.0381 0.208686,0.0847 0,0.0494 -0.282219,0.0847 -0.677333,0.0847 -0.395114,0 -0.677333,-0.0353 -0.677333,-0.0847 0,-0.0466 0.06858,-0.0847 0.1524,-0.0847 0.322504,0 0.3556,-0.15402 0.3556,-1.65481 0,-1.29877 -0.0163,-1.46637 -0.15483,-1.59174 -0.08516,-0.0771 -0.199458,-0.14012 -0.254,-0.14012 -0.05454,0 -0.09917,-0.0381 -0.09917,-0.0847 0,-0.0492 0.275192,-0.0847 0.656251,-0.0847 h 0.65626 l 0.80424,1.05002 0.804249,1.05002 0.02422,-0.84716 c 0.02537,-0.88684 -0.03471,-1.08355 -0.33092,-1.08355 -0.08743,0 -0.15897,-0.0381 -0.15897,-0.0847 0,-0.0489 0.268114,-0.0847 0.635,-0.0847 0.366886,0 0.635,0.0358 0.635,0.0847 0,0.0466 -0.05499,0.0847 -0.122199,0.0847 -0.06721,0 -0.181509,0.0847 -0.254,0.18817 -0.108221,0.15452 -0.131801,0.48013 -0.131801,1.82034 0,0.89769 -0.02929,1.63216 -0.06511,1.63216 -0.03581,0 -0.578731,-0.65723 -1.2065,-1.4605 z m 2.795608,0.74083 c 0,-0.70737 0.10138,-0.95359 0.196605,-0.47749 0.108348,0.54176 0.801277,1.02981 1.288491,0.90753 0.113352,-0.0284 0.269536,-0.14855 0.347083,-0.2669 0.133248,-0.20337 0.131707,-0.22767 -0.02814,-0.44315 -0.09301,-0.12539 -0.44494,-0.38062 -0.782066,-0.56716 -0.706298,-0.39082 -0.944745,-0.67091 -0.995299,-1.16908 -0.04557,-0.44912 0.198695,-0.86605 0.607458,-1.03684 0.379272,-0.15847 0.637243,-0.15386 1.069534,0.0191 0.328846,0.13157 0.359343,0.13157 0.455549,0 0.176835,-0.24183 0.211447,-0.16097 0.211447,0.49398 0,0.6201 -0.09997,0.82611 -0.215688,0.4445 -0.144746,-0.47729 -0.791591,-0.889 -1.170432,-0.74497 -0.28437,0.10812 -0.395902,0.32602 -0.288036,0.56276 0.0482,0.10577 0.381271,0.34745 0.759172,0.55084 0.873946,0.47038 1.084317,0.71791 1.084317,1.2758 0,0.92424 -0.81528,1.38987 -1.87673,1.07186 -0.251654,-0.0754 -0.353525,-0.0754 -0.428921,0 -0.194488,0.19448 -0.234349,0.0889 -0.234349,-0.62079 z m -92.286669,0.55596 c 0,-0.0435 0.104775,-0.0911 0.232833,-0.10584 l 0.232833,-0.0268 0.023,-1.63158 0.023,-1.63158 -0.255829,-0.0512 c -0.54218,-0.10843 -0.214842,-0.19933 0.717829,-0.19933 0.592667,0 0.973667,0.0331 0.973667,0.0847 0,0.0466 -0.06858,0.0847 -0.1524,0.0847 -0.280695,0 -0.3556,0.18191 -0.3556,0.8636 v 0.6604 h 0.592667 0.592666 v -0.72178 -0.72179 l -0.254,-0.0508 c -0.540461,-0.10809 -0.211768,-0.19896 0.719667,-0.19896 0.592667,0 0.973667,0.0331 0.973667,0.0847 0,0.0466 -0.07153,0.0847 -0.15897,0.0847 -0.32214,0 -0.353848,0.172 -0.329811,1.78902 l 0.02311,1.55531 0.232833,0.0268 c 0.128059,0.0147 0.232834,0.0624 0.232834,0.10584 0,0.0444 -0.427186,0.079 -0.973667,0.079 -0.546481,0 -0.973667,-0.0347 -0.973667,-0.079 0,-0.0435 0.104775,-0.0911 0.232834,-0.10584 l 0.232833,-0.0268 0.02434,-0.78316 0.02435,-0.78317 h -0.599025 -0.599025 l 0.02435,0.78317 0.02434,0.78316 0.232834,0.0268 c 0.128058,0.0147 0.232833,0.0624 0.232833,0.10584 0,0.0444 -0.427186,0.079 -0.973667,0.079 -0.546481,0 -0.973666,-0.0347 -0.973666,-0.079 z m 4.910667,-0.006 c 0,-0.0466 0.07486,-0.0847 0.166353,-0.0847 0.286359,0 0.341647,-0.27401 0.341647,-1.69334 0,-1.41932 -0.05529,-1.69333 -0.341647,-1.69333 -0.09149,0 -0.166353,-0.0381 -0.166353,-0.0847 0,-0.0532 0.550333,-0.0847 1.481666,-0.0847 h 1.481667 v 0.59766 c 0,0.37688 -0.03128,0.57833 -0.08467,0.54534 -0.04657,-0.0288 -0.08467,-0.11016 -0.08467,-0.18085 0,-0.0707 -0.111371,-0.23988 -0.24749,-0.376 -0.214367,-0.21437 -0.310667,-0.24749 -0.719666,-0.24749 h -0.472178 v 0.67734 c 0,0.61238 0.01565,0.67733 0.163187,0.67733 0.190373,0 0.514147,-0.37726 0.514147,-0.59909 0,-0.0841 0.0381,-0.17646 0.08467,-0.20524 0.05467,-0.0338 0.08467,0.31123 0.08467,0.97366 0,0.66244 -0.03,1.00746 -0.08467,0.97367 -0.04657,-0.0288 -0.08467,-0.14111 -0.08467,-0.24962 0,-0.2403 -0.229058,-0.52043 -0.486834,-0.59539 -0.185344,-0.0539 -0.1905,-0.0385 -0.1905,0.56912 0,0.82047 0.09265,0.9511 0.631504,0.89036 0.458571,-0.0517 0.791845,-0.26407 0.977163,-0.6227 0.06985,-0.13517 0.136525,-0.26164 0.148167,-0.28105 0.08279,-0.13799 0.111328,0.15218 0.06109,0.62129 l -0.05965,0.55699 h -1.55647 c -0.981202,0 -1.556469,-0.0313 -1.556469,-0.0847 z m 4.233333,0 c 0,-0.0466 0.07486,-0.0847 0.166353,-0.0847 0.28636,0 0.341647,-0.27401 0.341647,-1.69334 0,-1.41932 -0.05529,-1.69333 -0.341647,-1.69333 -0.09149,0 -0.166353,-0.0381 -0.166353,-0.0847 0,-0.10718 2.030832,-0.11035 2.489835,-0.004 0.440715,0.10222 0.729259,0.40487 0.785453,0.82386 0.05747,0.42844 -0.148336,0.84834 -0.485225,0.98999 l -0.246981,0.10385 0.517085,0.74316 c 0.284403,0.40874 0.569459,0.76326 0.633459,0.78782 0.280441,0.10762 0.07165,0.19587 -0.463381,0.19587 h -0.579755 l -0.563711,-0.84666 c -0.31004,-0.46567 -0.601607,-0.84667 -0.647911,-0.84667 -0.123199,0 -0.107324,1.29768 0.0174,1.4224 0.05588,0.0559 0.17018,0.1016 0.254,0.1016 0.08382,0 0.1524,0.0381 0.1524,0.0847 0,0.0513 -0.366886,0.0847 -0.931334,0.0847 -0.564447,0 -0.931333,-0.0333 -0.931333,-0.0847 z m 2.162852,-2.07048 c 0.221946,-0.22195 0.281018,-0.68254 0.124935,-0.97418 -0.08537,-0.1595 -0.499669,-0.342 -0.776419,-0.342 -0.140886,0 -0.156701,0.0769 -0.156701,0.762 v 0.762 h 0.300185 c 0.205817,0 0.365506,-0.0653 0.508,-0.20782 z m 2.324481,2.07611 c 0,-0.0435 0.104775,-0.0911 0.232834,-0.10584 l 0.232833,-0.0268 v -1.651 -1.651 l -0.232833,-0.0268 c -0.128059,-0.0147 -0.232834,-0.0624 -0.232834,-0.10583 0,-0.046 0.636728,-0.079 1.524001,-0.079 h 1.524 v 0.59266 c 0,0.33867 -0.03629,0.59267 -0.08467,0.59267 -0.04657,0 -0.08467,-0.0791 -0.08467,-0.17584 0,-0.0967 -0.11137,-0.28722 -0.247489,-0.42334 -0.214367,-0.21437 -0.310667,-0.24749 -0.719667,-0.24749 h -0.472177 v 0.67734 c 0,0.60192 0.01739,0.67733 0.15621,0.67733 0.211413,0 0.422944,-0.24995 0.488366,-0.57705 0.112556,-0.56276 0.202091,-0.23207 0.202091,0.74638 0,0.62089 -0.03293,1.016 -0.08467,1.016 -0.04657,0 -0.08467,-0.0744 -0.08467,-0.16535 0,-0.27347 -0.175277,-0.57217 -0.394318,-0.67198 -0.113479,-0.0517 -0.223571,-0.094 -0.24467,-0.094 -0.02109,0 -0.03834,0.30014 -0.03834,0.66697 0,0.798 0.07667,0.89904 0.634458,0.83617 0.478324,-0.0539 0.773201,-0.24565 0.9509,-0.61828 0.202599,-0.42485 0.301921,-0.36096 0.236796,0.15231 -0.102862,0.81064 0.05742,0.74083 -1.700861,0.74083 -0.909946,0 -1.560627,-0.0329 -1.560627,-0.079 z m 6.350001,-0.006 c 0,-0.0466 0.07486,-0.0847 0.166353,-0.0847 0.286359,0 0.341647,-0.27401 0.341647,-1.69334 0,-1.41932 -0.05529,-1.69333 -0.341647,-1.69333 -0.09149,0 -0.166353,-0.0381 -0.166353,-0.0847 0,-0.0513 0.366886,-0.0847 0.931333,-0.0847 0.564447,0 0.931333,0.0333 0.931333,0.0847 0,0.0466 -0.07486,0.0847 -0.166353,0.0847 -0.286359,0 -0.341647,0.27401 -0.341647,1.69333 0,1.41933 0.05529,1.69334 0.341647,1.69334 0.09149,0 0.166353,0.0381 0.166353,0.0847 0,0.0513 -0.366886,0.0847 -0.931333,0.0847 -0.564447,0 -0.931333,-0.0333 -0.931333,-0.0847 z m 8.043333,0 c 0,-0.0466 0.07486,-0.0847 0.166353,-0.0847 0.289112,0 0.341647,-0.27257 0.341647,-1.77244 v -1.4449 h -0.300185 c -0.343095,0 -0.715815,0.3066 -0.715815,0.58882 0,0.0952 -0.0381,0.17318 -0.08467,0.17318 -0.04776,0 -0.08467,-0.23988 -0.08467,-0.55033 V 155.358 h 1.608667 1.608666 v 0.55033 c 0,0.55597 -0.105867,0.73006 -0.204639,0.33651 -0.08388,-0.33418 -0.351036,-0.54818 -0.684361,-0.54818 h -0.296333 v 1.4449 c 0,1.49987 0.05254,1.77244 0.341647,1.77244 0.09149,0 0.166353,0.0381 0.166353,0.0847 0,0.0513 -0.366886,0.0847 -0.931333,0.0847 -0.564448,0 -0.931334,-0.0333 -0.931334,-0.0847 z m 3.471334,0.006 c 0,-0.0435 0.104775,-0.0911 0.232833,-0.10584 l 0.232833,-0.0268 0.023,-1.63158 0.023,-1.63158 -0.255829,-0.0512 c -0.620793,-0.12416 -0.142528,-0.19933 1.268163,-0.19933 h 1.524 v 0.59266 c 0,0.59498 -0.103336,0.7825 -0.205935,0.37371 -0.03023,-0.12042 -0.146922,-0.31092 -0.259325,-0.42333 -0.166921,-0.16692 -0.290433,-0.20438 -0.673888,-0.20438 h -0.469519 v 0.67734 c 0,0.54563 0.0247,0.67733 0.127,0.67733 0.191406,0 0.464566,-0.31198 0.521233,-0.59531 0.10911,-0.54557 0.198434,-0.20138 0.198434,0.76464 0,0.9821 -0.09376,1.31838 -0.203903,0.7313 -0.05419,-0.2889 -0.226119,-0.49356 -0.494597,-0.58877 -0.133486,-0.0473 -0.148167,0.0176 -0.148167,0.65541 0,0.77487 0.02377,0.81073 0.537413,0.81073 0.393158,0 0.827761,-0.267 1.011775,-0.62159 0.18951,-0.36517 0.345669,-0.40769 0.282406,-0.0769 -0.02449,0.12806 -0.06897,0.39476 -0.09884,0.59267 l -0.0543,0.35983 h -1.558891 c -0.908871,0 -1.558891,-0.033 -1.558891,-0.079 z m 4.233333,0 c 0,-0.0435 0.104775,-0.0911 0.232833,-0.10584 l 0.232834,-0.0268 0.023,-1.63158 0.023,-1.63158 -0.255829,-0.0512 c -0.54218,-0.10843 -0.214841,-0.19933 0.71783,-0.19933 0.592667,0 0.973667,0.0331 0.973667,0.0847 0,0.0466 -0.06858,0.0847 -0.1524,0.0847 -0.323808,0 -0.3556,0.1521 -0.3556,1.70121 0,1.67578 -0.02977,1.60079 0.635431,1.60079 0.45207,0 0.808965,-0.27034 1.005561,-0.76168 0.163525,-0.40868 0.308856,-0.44417 0.261273,-0.0638 -0.01893,0.15134 -0.05696,0.45614 -0.08453,0.67733 l -0.05011,0.40217 h -1.603485 c -0.936481,0 -1.603477,-0.0329 -1.603477,-0.079 z m 4.233334,0 c 0,-0.0435 0.104775,-0.0911 0.232833,-0.10584 l 0.232833,-0.0268 v -1.651 -1.651 l -0.232833,-0.0268 c -0.128058,-0.0147 -0.232833,-0.0624 -0.232833,-0.10583 0,-0.0446 0.443306,-0.079 1.016,-0.079 0.620886,0 1.016,0.0329 1.016,0.0847 0,0.0466 -0.08763,0.0847 -0.194734,0.0847 -0.369383,0 -0.397933,0.11845 -0.397933,1.651 0,1.01318 0.0305,1.4783 0.1016,1.5494 0.139048,0.13905 0.787019,0.12804 1.069763,-0.0182 0.230014,-0.11894 0.356362,-0.30135 0.518127,-0.74805 0.158089,-0.43654 0.265396,-0.26424 0.210938,0.33866 -0.0284,0.31433 -0.06636,0.61913 -0.08437,0.67734 -0.03998,0.12922 -3.255391,0.15568 -3.255391,0.0268 z m 4.318,-0.006 c 0,-0.0466 0.07486,-0.0847 0.166353,-0.0847 0.286359,0 0.341647,-0.27401 0.341647,-1.69334 0,-1.41932 -0.05529,-1.69333 -0.341647,-1.69333 -0.09149,0 -0.166353,-0.0381 -0.166353,-0.0847 0,-0.0513 0.366886,-0.0847 0.931333,-0.0847 0.564447,0 0.931333,0.0333 0.931333,0.0847 0,0.0466 -0.07486,0.0847 -0.166353,0.0847 -0.286359,0 -0.341647,0.27401 -0.341647,1.69333 0,1.41933 0.05529,1.69334 0.341647,1.69334 0.09149,0 0.166353,0.0381 0.166353,0.0847 0,0.0513 -0.366886,0.0847 -0.931333,0.0847 -0.564447,0 -0.931333,-0.0333 -0.931333,-0.0847 z m 7.535333,0.006 c 0,-0.0435 0.104775,-0.0911 0.232834,-0.10584 l 0.232833,-0.0268 v -1.651 -1.651 l -0.232833,-0.0268 c -0.128059,-0.0147 -0.232834,-0.0624 -0.232834,-0.10583 0,-0.046 0.636728,-0.079 1.524,-0.079 h 1.524 v 0.59266 c 0,0.33867 -0.03629,0.59267 -0.08467,0.59267 -0.04657,0 -0.08467,-0.0791 -0.08467,-0.17585 0,-0.0967 -0.11137,-0.28721 -0.247489,-0.42333 -0.214368,-0.21437 -0.310667,-0.24749 -0.719667,-0.24749 h -0.472177 v 0.67734 c 0,0.60192 0.01739,0.67733 0.15621,0.67733 0.211412,0 0.422944,-0.24995 0.488366,-0.57706 0.112555,-0.56276 0.20209,-0.23206 0.20209,0.74639 0,0.62089 -0.03293,1.016 -0.08467,1.016 -0.04657,0 -0.08467,-0.0744 -0.08467,-0.16535 0,-0.27347 -0.175277,-0.57218 -0.394318,-0.67198 -0.113479,-0.0517 -0.223571,-0.094 -0.24467,-0.094 -0.02109,0 -0.03834,0.30013 -0.03834,0.66697 0,0.798 0.07667,0.89904 0.634458,0.83617 0.478324,-0.0539 0.773201,-0.24565 0.9509,-0.61828 0.2025986,-0.42485 0.301921,-0.36096 0.2367954,0.15231 -0.1028615,0.81064 0.057421,0.74083 -1.7008604,0.74083 -0.909946,0 -1.560627,-0.0329 -1.560627,-0.079 z m 13.37733408,-0.006 c 0,-0.0466 0.0911775,-0.0847 0.20260734,-0.0847 0.11143827,0 0.22573827,-0.0603 0.25400001,-0.13393 0.0282702,-0.0737 0.0513927,-0.78994 0.0513927,-1.59173 0,-1.50724 -0.0329184,-1.66101 -0.35560001,-1.66101 -0.08382,0 -0.15240001,-0.0381 -0.15240001,-0.0847 0,-0.0533 0.56444729,-0.0847 1.52399999,-0.0847 h 1.5240001 v 0.59266 c 0,0.64196 -0.1001268,0.76259 -0.251714,0.30327 -0.1280076,-0.38787 -0.4109043,-0.55727 -0.9306391,-0.55727 H 1.6791615 v 0.67734 c 0,0.42296 0.033884,0.67733 0.090229,0.67733 0.2228935,0 0.4192016,-0.19889 0.5028269,-0.50944 0.1641433,-0.60959 0.2536106,-0.37013 0.2536106,0.67877 0,0.5588 -0.029752,1.016 -0.066108,1.016 -0.036364,0 -0.1220893,-0.16099 -0.1905,-0.35776 -0.076242,-0.21928 -0.2063242,-0.39857 -0.3360589,-0.46316 l -0.2116667,-0.1054 -0.024977,0.64618 c -0.033884,0.87665 -0.019041,0.90265 0.4872567,0.854 0.4992116,-0.048 0.8033258,-0.23098 1.0342796,-0.62242 0.094141,-0.15956 0.1986703,-0.2901 0.2322914,-0.2901 0.033621,0 0.032639,0.20002 -0.0022,0.4445 -0.034815,0.24447 -0.066082,0.51117 -0.069486,0.59266 -0.00567,0.13555 -0.1395646,0.14817 -1.5725141,0.14817 -0.9877806,0 -1.56633335,-0.0313 -1.56633335,-0.0847 z m 6.26533352,0 c 0,-0.0466 0.091177,-0.0847 0.2026074,-0.0847 0.1114382,0 0.2257382,-0.0603 0.254,-0.13393 0.02827,-0.0737 0.051393,-0.78994 0.051393,-1.59173 0,-1.50724 -0.032918,-1.66101 -0.3556,-1.66101 -0.08382,0 -0.1524,-0.0381 -0.1524,-0.0847 0,-0.11333 2.0625563,-0.1105 2.4726478,0.003 0.3943265,0.10952 0.660019,0.43878 0.660019,0.81793 0,0.37298 -0.1160696,0.58447 -0.4042918,0.73664 l -0.2307082,0.12181 0.2247053,0.0863 c 0.8559119,0.32859 0.743475,1.53424 -0.1666494,1.78702 -0.4091771,0.11365 -2.5557227,0.11613 -2.5557227,0.003 z m 2.0811575,-0.36539 c 0.3285237,-0.28258 0.3258143,-0.85162 -0.00542,-1.13653 -0.1472862,-0.12669 -0.315468,-0.19118 -0.4560486,-0.17489 -0.2152819,0.0249 -0.2235454,0.0465 -0.2477431,0.64748 -0.0349,0.86671 0.2085255,1.0946 0.7091934,0.66394 z m -0.011057,-1.84434 c 0.1030732,-0.0981 0.1651,-0.26991 0.1651,-0.45727 0,-0.34157 -0.2052574,-0.58534 -0.5630334,-0.66866 L 7.9444954,155.608 v 0.72289 0.7229 l 0.2328333,-0.0542 c 0.1280584,-0.0298 0.3071284,-0.12495 0.3979334,-0.2114 z m 2.1632329,2.21536 c 0,-0.0435 0.104775,-0.0911 0.232833,-0.10584 l 0.232834,-0.0268 v -1.651 -1.651 l -0.232834,-0.0268 c -0.128058,-0.0147 -0.232833,-0.0624 -0.232833,-0.10583 0,-0.046 0.636727,-0.079 1.524,-0.079 h 1.524 v 0.59266 c 0,0.33867 -0.03629,0.59267 -0.08467,0.59267 -0.04657,0 -0.08467,-0.0791 -0.08467,-0.17584 0,-0.0967 -0.111371,-0.28722 -0.247489,-0.42334 -0.214368,-0.21437 -0.310668,-0.24749 -0.719667,-0.24749 h -0.472178 v 0.67734 c 0,0.60192 0.01739,0.67733 0.15621,0.67733 0.211413,0 0.422944,-0.24995 0.488366,-0.57705 0.112556,-0.56276 0.202091,-0.23207 0.202091,0.74638 0,0.62089 -0.03293,1.016 -0.08467,1.016 -0.04657,0 -0.08467,-0.0744 -0.08467,-0.16535 0,-0.27347 -0.175277,-0.57217 -0.394318,-0.67198 -0.113479,-0.0517 -0.223571,-0.094 -0.24467,-0.094 -0.02109,0 -0.03835,0.30014 -0.03835,0.66697 0,0.798 0.07667,0.89904 0.634459,0.83617 0.478324,-0.0539 0.773201,-0.24565 0.950899,-0.61828 0.202599,-0.42485 0.301922,-0.36096 0.236796,0.15231 -0.102861,0.81064 0.05742,0.74083 -1.70086,0.74083 -0.909947,0 -1.560627,-0.0329 -1.560627,-0.079 z m 9.144,-0.006 c 0,-0.0466 0.09118,-0.0847 0.202608,-0.0847 0.111438,0 0.225738,-0.0603 0.254,-0.13393 0.02827,-0.0737 0.05139,-0.78994 0.05139,-1.59173 0,-1.50724 -0.03292,-1.66101 -0.3556,-1.66101 -0.08382,0 -0.1524,-0.0381 -0.1524,-0.0847 0,-0.0515 0.381,-0.0847 0.973667,-0.0847 0.546481,0 0.973667,0.0347 0.973667,0.079 0,0.0435 -0.104775,0.0911 -0.232834,0.10583 l -0.232833,0.0268 v 1.651 1.651 l 0.232833,0.0268 c 0.128059,0.0147 0.232834,0.0624 0.232834,0.10584 0,0.0444 -0.427186,0.079 -0.973667,0.079 -0.592667,0 -0.973667,-0.0331 -0.973667,-0.0847 z m -68.40862,-6.22628 c -0.637921,-0.17892 -1.071143,-0.45011 -1.582132,-0.99041 -0.840376,-0.88858 -1.159823,-1.83128 -1.155175,-3.40897 0.0063,-2.13319 0.724213,-3.51967 2.200284,-4.24918 0.552187,-0.2729 0.7313,-0.31834 1.376375,-0.34919 1.944692,-0.093 3.243114,1.03282 3.443156,2.9854 l 0.05683,0.55463 h -2.848026 -2.848026 l 0.0013,0.40217 c 0.0016,0.52065 0.203733,1.37117 0.432316,1.81922 0.279756,0.54838 1.038335,1.29135 1.537886,1.50625 1.266274,0.54474 2.608868,-0.0499 3.16473,-1.40159 0.163237,-0.39694 0.277757,-0.46144 0.450266,-0.25358 0.23997,0.28915 -0.481593,1.90172 -1.167918,2.61009 -0.721885,0.74507 -2.008107,1.0707 -3.061818,0.77516 z m 2.278905,-6.58727 c -0.07426,-0.54728 -0.227905,-0.85752 -0.601565,-1.21475 -1.055133,-1.00874 -2.691511,-0.25939 -2.997699,1.37274 l -0.0552,0.29423 h 1.857917 1.857917 z m 24.121035,6.59072 c -1.345023,-0.25539 -2.243743,-0.70637 -3.180173,-1.59579 -1.410234,-1.33945 -2.049196,-2.99965 -1.943126,-5.0488 0.06085,-1.17557 0.204462,-1.74865 0.690017,-2.75358 0.886324,-1.83434 2.279709,-3.06372 3.997376,-3.52688 0.50485,-0.13612 0.922333,-0.17971 1.762252,-0.18398 1.100404,-0.006 1.100946,-0.005 2.2717,0.39904 1.119335,0.38678 1.178204,0.39815 1.3335,0.25761 0.08936,-0.0809 0.162467,-0.21421 0.162467,-0.29632 0,-0.27287 0.100685,-0.41713 0.291117,-0.41713 0.184294,0 0.191381,0.0386 0.330548,1.79916 0.185428,2.34572 0.187739,2.26484 -0.06476,2.26484 -0.162518,0 -0.226179,-0.0659 -0.306612,-0.3175 -0.660129,-2.06477 -2.429815,-3.2196 -4.476615,-2.92128 -0.871787,0.12706 -1.51406,0.42438 -2.094128,0.9694 -1.002022,0.94149 -1.540044,2.1457 -1.722552,3.85547 -0.266268,2.49454 0.718168,5.08866 2.339501,6.16483 1.299413,0.86251 2.961471,0.95311 4.372018,0.23833 l 0.416263,-0.21094 -0.03106,-2.25932 c -0.02679,-1.94949 -0.05132,-2.29686 -0.178816,-2.53306 -0.176116,-0.32623 -0.470188,-0.49282 -1.013858,-0.57435 -0.349454,-0.0524 -0.40105,-0.0861 -0.40105,-0.2622 v -0.20205 h 2.370667 2.370667 v 0.20085 c 0,0.16986 -0.05387,0.20946 -0.349267,0.25669 -0.473676,0.0757 -0.638581,0.17652 -0.814019,0.49747 -0.130675,0.23904 -0.152493,0.57907 -0.176996,2.75783 l -0.02795,2.48517 -0.691719,0.32369 c -1.113019,0.52084 -1.856342,0.68264 -3.316385,0.72189 -0.887628,0.0239 -1.465402,-0.003 -1.919012,-0.0891 z m 11.022728,-0.003 c -0.637921,-0.17892 -1.071143,-0.45011 -1.582132,-0.99041 -0.839453,-0.8876 -1.159154,-1.83006 -1.156394,-3.40897 0.0037,-2.1302 0.722985,-3.51846 2.201503,-4.24918 0.552187,-0.2729 0.731299,-0.31835 1.376375,-0.34919 1.944692,-0.093 3.2431147,1.03282 3.4431566,2.98539 l 0.056828,0.55464 h -2.8480259 -2.8480257 l 0.0013,0.40217 c 0.0016,0.52065 0.203733,1.37117 0.432316,1.81922 0.279756,0.54838 1.038335,1.29135 1.537886,1.50625 1.2662743,0.54474 2.6088676,-0.0499 3.1647297,-1.40159 0.1632373,-0.39694 0.2777575,-0.46144 0.4502658,-0.25358 0.2399707,0.28915 -0.4815925,1.90172 -1.1679174,2.61009 -0.721885,0.74506 -2.0081071,1.0707 -3.0618181,0.77516 z m 2.2789057,-6.58727 c -0.074261,-0.54728 -0.2279057,-0.85752 -0.6015651,-1.21476 -0.7268126,-0.69485 -1.7610336,-0.59371 -2.4765346,0.24219 -0.270713,0.31627 -0.557521,0.9918 -0.557521,1.31316 0,0.089 0.374929,0.11163 1.848493,0.11163 h 1.8484941 z m 15.3317622,6.58727 c -0.6421966,-0.18012 -1.0715921,-0.45059 -1.596517,-1.00563 -0.4841579,-0.51192 -0.8663602,-1.25379 -1.0199455,-1.97975 -0.1352465,-0.63929 -0.1166876,-2.32706 0.032554,-2.96004 0.2916005,-1.23678 1.0190057,-2.1951 2.0548262,-2.70712 0.6282352,-0.31055 0.6693832,-0.31884 1.5808622,-0.31884 0.8342038,0 0.9875097,0.0242 1.4116643,0.22311 0.2617047,0.12271 0.6274986,0.36013 0.8128762,0.52761 0.5829047,0.52662 1.0396307,1.61207 1.0396307,2.47078 v 0.29216 H 7.9868283 5.1504949 v 0.36746 c 0,0.5166 0.2912787,1.59586 0.5497322,2.03687 0.291482,0.49739 0.9740985,1.12367 1.4580786,1.33775 0.549402,0.24303 1.2900406,0.23707 1.8693723,-0.0151 0.5270754,-0.22938 0.937277,-0.67416 1.216271,-1.31881 0.201125,-0.46472 0.271162,-0.51928 0.489373,-0.38121 0.300321,0.19003 -0.320878,1.70405 -1.0218421,2.49052 -0.7978987,0.89522 -2.0522947,1.26329 -3.2042694,0.94019 z m 2.3193249,-6.49488 c -0.1437047,-1.00801 -0.7521787,-1.66874 -1.6016309,-1.73918 -0.8379037,-0.0695 -1.5486126,0.44604 -1.8963979,1.37558 -0.2916344,0.77948 -0.4222242,0.72343 1.6856541,0.72343 h 1.8636658 z m 5.2986262,6.49405 c -0.880153,-0.20037 -1.241747,-0.23709 -1.306297,-0.13265 -0.0321,0.0519 -0.151367,0.0944 -0.265032,0.0944 h -0.206671 v -1.56633 -1.56634 h 0.200846 c 0.166277,0 0.209914,0.0546 0.253543,0.3175 0.139387,0.83973 0.819937,1.77414 1.535278,2.10796 1.331611,0.62142 2.595634,-0.29408 2.121213,-1.53634 -0.184328,-0.48264 -0.588925,-0.82792 -1.633474,-1.39399 -1.899531,-1.02941 -2.337638,-1.44851 -2.495711,-2.38745 -0.173135,-1.02841 0.227796,-2.03307 1.009074,-2.52854 0.748733,-0.47483 1.461542,-0.53928 2.64,-0.2387 l 0.715247,0.18244 0.147735,-0.18244 c 0.08125,-0.10034 0.227347,-0.18244 0.324654,-0.18244 0.172746,0 0.176928,0.0352 0.176928,1.48756 0,1.45248 -0.0041,1.48692 -0.173744,1.4605 -0.13098,-0.0204 -0.224519,-0.17292 -0.380052,-0.61972 -0.11347,-0.32597 -0.313097,-0.74475 -0.443611,-0.93062 -0.597086,-0.85033 -1.838003,-1.02751 -2.533515,-0.36174 -0.324967,0.31108 -0.405282,0.612 -0.283768,1.06326 0.136965,0.50866 0.655828,0.91844 2.097591,1.65661 1.070974,0.54832 1.360399,0.73832 1.713941,1.12515 0.52374,0.57306 0.728362,1.16992 0.646227,1.88501 -0.198382,1.72717 -1.869855,2.70002 -3.860402,2.24688 z m 12.742334,0.0538 c -0.186267,-0.0362 -0.578646,-0.11789 -0.871957,-0.18142 -0.420472,-0.0911 -0.567995,-0.0938 -0.697349,-0.0131 -0.09024,0.0564 -0.240783,0.10246 -0.334543,0.10246 -0.164727,0 -0.170485,-0.0529 -0.170485,-1.56633 v -1.56634 h 0.195004 c 0.166362,0 0.222377,0.085 0.381398,0.57877 0.251562,0.78106 0.629311,1.32415 1.17133,1.68404 0.376064,0.24969 0.54676,0.30619 1.02395,0.33896 0.499923,0.0343 0.609295,0.0141 0.861204,-0.15939 0.448302,-0.30873 0.614562,-0.58731 0.614562,-1.02977 0,-0.79894 -0.384015,-1.18535 -2.130781,-2.14407 -1.772234,-0.97269 -2.184366,-1.53149 -2.099098,-2.84608 0.04607,-0.71016 0.20038,-1.06189 0.687391,-1.56677 0.672499,-0.69716 1.648249,-0.86255 2.998868,-0.50832 l 0.722021,0.18937 0.125738,-0.18937 c 0.07152,-0.10771 0.212556,-0.18937 0.327076,-0.18937 h 0.201337 v 1.48167 1.48167 h -0.196206 c -0.164719,0 -0.220684,-0.0781 -0.348768,-0.48684 -0.344322,-1.09871 -0.82058,-1.63444 -1.596144,-1.79545 -1.238606,-0.25713 -2.101554,0.63433 -1.612231,1.6655 0.186224,0.39243 0.590719,0.67451 2.01455,1.40483 1.891733,0.97031 2.400833,1.62391 2.312949,2.96938 -0.06533,1.00022 -0.562466,1.68841 -1.543185,2.13626 -0.542248,0.24762 -1.392106,0.33512 -2.036631,0.20967 z m -81.342318,-0.0917 c -0.458647,-0.1381 -0.814603,-0.42994 -1.011174,-0.82905 -0.1942,-0.39429 -0.196824,-0.439 -0.222893,-3.80681 L -55.73528,144.69 h -0.629776 c -0.601887,0 -0.629784,-0.009 -0.629784,-0.19599 0,-0.13721 0.08252,-0.23613 0.275166,-0.32985 0.709532,-0.34519 1.624872,-1.44827 2.01334,-2.42629 0.167826,-0.42253 0.241977,-0.51921 0.398196,-0.51921 0.191753,0 0.191964,0.002 0.191964,1.397 v 1.397 h 0.973667 0.973667 v 0.33867 0.33867 l -0.529167,7.6e-4 c -0.291042,4.2e-4 -0.729192,0.0248 -0.973667,0.0541 l -0.4445,0.0534 v 2.99659 c 0,3.2581 0.02128,3.42743 0.46742,3.71975 0.205968,0.13496 0.260722,0.13759 0.577206,0.0277 0.223723,-0.0776 0.411133,-0.21928 0.520345,-0.39325 0.123393,-0.19655 0.235221,-0.27281 0.403529,-0.27517 0.128059,-0.002 0.232834,0.0182 0.232834,0.0444 0,0.0262 -0.103327,0.25869 -0.229616,0.51661 -0.289001,0.59021 -0.84974,1.09103 -1.406788,1.25646 -0.470459,0.13971 -0.582955,0.14486 -0.923578,0.0423 z M -72.319508,152.448 c 0,-0.1829 0.04348,-0.20385 0.511027,-0.24625 0.559055,-0.0507 0.846223,-0.19654 1.075294,-0.54612 0.138566,-0.21146 0.149346,-0.60122 0.149346,-5.40002 0,-4.86707 -0.0091,-5.18604 -0.154752,-5.40831 -0.19885,-0.30351 -0.617432,-0.47606 -1.154862,-0.47606 -0.398012,0 -0.426053,-0.0139 -0.426053,-0.21167 v -0.21167 h 2.667001 2.667 v 0.21167 c 0,0.20072 -0.02465,0.21167 -0.476841,0.21167 -0.606124,0 -0.99258,0.22217 -1.147607,0.65974 -0.08709,0.24581 -0.111219,1.40777 -0.111219,5.35535 0,4.74068 0.0092,5.05551 0.154767,5.27759 0.196652,0.30009 0.756723,0.55639 1.221066,0.55879 0.326882,0.002 0.359834,0.0212 0.359834,0.21353 v 0.21166 h -2.667 -2.667001 z m 6.096001,-0.0118 c 0,-0.17416 0.04125,-0.21189 0.232833,-0.21292 0.355617,-0.002 0.640715,-0.18197 0.804198,-0.50793 0.132012,-0.26319 0.148006,-0.5977 0.147701,-3.08915 0,-1.59719 -0.03652,-2.92423 -0.08479,-3.09803 -0.108432,-0.39033 -0.374751,-0.52325 -0.808471,-0.40349 -0.329784,0.0911 -0.48619,5.9e-4 -0.439528,-0.25413 0.02815,-0.15368 2.317517,-1.10652 2.666894,-1.10997 l 0.275167,-0.003 v 0.8151 0.8151 l 0.619303,-0.58828 c 0.786113,-0.74673 1.266393,-0.98694 2.047697,-1.02416 0.731613,-0.0349 1.214848,0.18109 1.626447,0.72681 0.515416,0.68337 0.551129,0.93141 0.60805,4.22296 l 0.0515,2.97785 0.204233,0.21722 c 0.141241,0.15023 0.330547,0.23397 0.613833,0.27155 0.359249,0.0477 0.409601,0.079 0.409601,0.2551 v 0.20075 h -2.116667 -2.116667 V 152.437 c 0,-0.17924 0.03933,-0.21167 0.256718,-0.21167 0.141199,0 0.39022,-0.0558 0.553381,-0.12395 0.514037,-0.21478 0.544746,-0.39308 0.543247,-3.15416 -0.0015,-2.78529 -0.06615,-3.26323 -0.49994,-3.6967 -0.236347,-0.23617 -0.315815,-0.26363 -0.749393,-0.25891 -0.586689,0.006 -1.053042,0.22709 -1.640036,0.77616 l -0.41131,0.38473 v 2.6158 c 0,3.24841 0.01354,3.29623 0.970254,3.42736 0.332842,0.0456 0.384412,0.0795 0.384412,0.25285 v 0.20015 h -2.074333 -2.074333 z m 23.283334,0.0142 c 0,-0.16746 0.05993,-0.20929 0.394165,-0.27517 0.279858,-0.0552 0.445601,-0.147 0.5715,-0.31668 0.174769,-0.23552 0.177665,-0.31293 0.200406,-5.34267 0.02411,-5.33316 0.0075,-5.62244 -0.336956,-5.83737 -0.102616,-0.064 -0.245728,-0.0632 -0.493234,0.003 -0.327956,0.0875 -0.354144,0.0811 -0.440699,-0.10891 -0.05061,-0.11108 -0.07631,-0.21634 -0.0571,-0.23391 0.130455,-0.11936 2.561836,-1.06801 2.737291,-1.06801 h 0.218626 v 6.05639 c 0,6.47142 0.0019,6.50275 0.41275,6.72262 0.0952,0.0509 0.346075,0.11634 0.557504,0.14532 0.332842,0.0456 0.384413,0.0795 0.384413,0.25285 v 0.20016 h -2.074334 -2.074333 v -0.19748 z m 5.164667,-0.0142 c 0,-0.17005 0.04216,-0.21167 0.214384,-0.21167 0.117915,0 0.339954,-0.0525 0.493412,-0.11658 0.527211,-0.22029 0.51987,-0.13759 0.51987,-5.85619 0,-4.80536 -0.01055,-5.18454 -0.150122,-5.3975 -0.163813,-0.24997 -0.519066,-0.30735 -0.839877,-0.13565 -0.188391,0.10082 -0.318473,-0.007 -0.321039,-0.26684 -0.0015,-0.15647 2.366561,-1.18124 2.729696,-1.18124 h 0.232342 l 0.0013,6.11717 c 9.32e-4,4.72008 0.02541,6.16551 0.107019,6.32883 0.124231,0.24864 0.598035,0.50768 0.928903,0.50787 0.19188,8e-5 0.232834,0.0374 0.232834,0.2118 v 0.21166 h -2.074334 -2.074333 V 152.437 Z m 5.249333,0.01 c 0,-0.17427 0.05188,-0.20983 0.377385,-0.25864 0.608025,-0.0912 0.777705,-0.36474 0.854481,-1.37763 0.101516,-1.33913 -0.01571,-5.13781 -0.167606,-5.43155 -0.151308,-0.29259 -0.371864,-0.36401 -0.777917,-0.2519 -0.343942,0.095 -0.358911,0.0884 -0.390347,-0.17241 -0.02061,-0.17094 0.103361,-0.24287 1.194866,-0.69327 0.669815,-0.2764 1.325254,-0.50255 1.456521,-0.50255 h 0.238667 l 0.02514,3.8735 c 0.02255,3.47362 0.04018,3.90096 0.170739,4.13949 0.147346,0.26918 0.506451,0.45368 0.88304,0.45368 0.155863,0 0.199034,0.0459 0.199034,0.21167 v 0.21166 h -2.032 -2.032 z m 26.5853346,0.005 c 0,-0.16745 0.059927,-0.20929 0.3941657,-0.27517 0.2797556,-0.0551 0.445643,-0.14703 0.5715,-0.31657 0.1703578,-0.22948 0.178308,-0.34946 0.2021163,-3.048 0.013631,-1.54501 -0.00643,-2.95816 -0.044569,-3.14032 -0.099788,-0.47652 -0.3871892,-0.67001 -0.8174229,-0.5503 -0.3471841,0.0966 -0.5001853,0.0105 -0.4538472,-0.25533 0.027381,-0.15712 2.3059137,-1.1004 2.66689,-1.10405 l 0.2751667,-0.003 v 0.80944 0.80944 l 0.5588508,-0.55338 c 0.6636512,-0.65715 1.3104453,-1.00059 1.97489242,-1.04865 1.14492197,-0.0828 1.89894638,0.50847 2.22559888,1.74526 0.045356,0.17173 0.1074843,1.63321 0.1380575,3.24774 l 0.055601,2.93552 0.2042329,0.21722 c 0.1412494,0.15024 0.3305387,0.23398 0.6138334,0.27156 0.3592491,0.0477 0.4096004,0.079 0.4096004,0.2551 v 0.20075 H 0.91716144 -1.1995053 V 152.437 c 0,-0.17924 0.039328,-0.21167 0.25671781,-0.21167 0.1411986,0 0.39022021,-0.0558 0.55338135,-0.12395 0.53660888,-0.22421 0.56280475,-0.39148 0.52982708,-3.3829 -0.0271187,-2.46023 -0.04055533,-2.65628 -0.206502,-3.01248 -0.27089101,-0.58145 -0.47293955,-0.72065 -1.03669254,-0.71422 -0.591202,0.007 -1.1712618,0.28844 -1.6876184,0.81958 l -0.3632116,0.37361 0.024545,2.76436 0.024553,2.76437 0.2155275,0.21542 c 0.1530689,0.15299 0.3432387,0.23055 0.6561667,0.26761 0.3918966,0.0464 0.4406392,0.0743 0.4406392,0.25206 v 0.19987 H -3.8665056 -5.940839 v -0.19747 z m 25.2306674,0.001 c 0,-0.16964 0.0592,-0.20691 0.437032,-0.27516 0.328583,-0.0594 0.480907,-0.13823 0.613833,-0.31782 0.168902,-0.2282 0.178012,-0.35684 0.203827,-2.87867 0.01487,-1.45189 0.0019,-2.84494 -0.02868,-3.09566 -0.0708,-0.57936 -0.341409,-0.89105 -0.695062,-0.80057 -0.4482,0.11467 -0.573287,0.0859 -0.573287,-0.13179 0,-0.18083 0.128922,-0.25678 1.185334,-0.69832 0.651933,-0.27249 1.309158,-0.49552 1.4605,-0.49561 l 0.275166,-1.9e-4 v 3.88215 3.88215 l 0.193074,0.28768 c 0.152985,0.22795 0.276056,0.30382 0.592667,0.36538 0.339928,0.0661 0.399593,0.10718 0.399593,0.27517 v 0.19747 h -2.032 -2.032 v -0.19621 z m 11.938,0.12061 c 0,-0.0416 0.05715,-0.0975 0.127,-0.12434 0.0974,-0.0374 0.127,-0.19799 0.127,-0.68905 0,-0.49107 -0.0296,-0.65168 -0.127,-0.68905 -0.269892,-0.10357 -0.106646,-0.19995 0.338667,-0.19995 0.256116,0 0.465666,0.0381 0.465666,0.0847 0,0.0466 -0.05715,0.0847 -0.127,0.0847 -0.102226,0 -0.127,0.13115 -0.127,0.67234 0,0.381 0.03877,0.6963 0.08948,0.72764 0.167386,0.10344 0.473803,-0.0405 0.587722,-0.27611 0.09477,-0.19599 0.119431,-0.20924 0.149014,-0.08 0.0195,0.0852 0.0123,0.24711 -0.01599,0.35984 -0.04937,0.19669 -0.08044,0.20497 -0.769501,0.20497 -0.394928,0 -0.71805,-0.034 -0.71805,-0.0756 z m 1.608667,-0.009 c 0,-0.0466 0.05715,-0.0847 0.127,-0.0847 0.102929,0 0.127,-0.13641 0.127,-0.71967 0,-0.58326 -0.02407,-0.71966 -0.127,-0.71966 -0.06985,0 -0.127,-0.0381 -0.127,-0.0847 0,-0.0466 0.20955,-0.0847 0.465666,-0.0847 0.256117,0 0.465667,0.0381 0.465667,0.0847 0,0.0466 -0.05715,0.0847 -0.127,0.0847 -0.102226,0 -0.127,0.13115 -0.127,0.67233 0,0.381 0.03877,0.6963 0.08948,0.72764 0.165972,0.10258 0.498043,-0.0459 0.624662,-0.27922 l 0.125747,-0.23175 0.0034,0.35983 0.0034,0.35983 h -0.762 c -0.451552,0 -0.762,-0.0345 -0.762,-0.0847 z m 1.940822,-0.16282 c -0.282515,-0.28252 -0.330013,-0.70201 -0.124485,-1.09946 0.159131,-0.30772 0.487536,-0.43826 1.041163,-0.41384 0.441968,0.0195 0.4445,0.0212 0.4445,0.29753 0,0.3334 -0.04942,0.34557 -0.26913,0.0662 -0.348945,-0.44361 -0.831537,-0.14879 -0.831537,0.508 0,0.62545 0.353196,0.88048 0.807314,0.58293 0.151164,-0.0991 0.208686,-0.10745 0.208686,-0.0305 0,0.18714 -0.28575,0.33111 -0.662677,0.33388 -0.294065,0.002 -0.41518,-0.0461 -0.613834,-0.24479 z M -108.87245,150.6787 c 0.0994,-0.25896 10.399743,-18.64846 10.455646,-18.66672 0.06218,-0.0203 6.158168,10.64294 6.102825,10.6752 -0.01606,0.009 -0.600696,0.20191 -1.299196,0.42788 -5.466134,1.76833 -10.793995,4.37239 -14.308465,6.99345 -0.49962,0.37262 -0.92721,0.67749 -0.9502,0.67749 -0.023,0 -0.0233,-0.0483 -5.9e-4,-0.1073 z m 77.986973,-9.49703 c -0.374379,-0.16294 -0.540029,-0.44106 -0.540029,-0.90668 0,-0.71281 0.566056,-1.13734 1.226049,-0.91953 0.423825,0.13988 0.636617,0.44888 0.636617,0.92445 0,0.46832 -0.169299,0.74267 -0.558681,0.90536 -0.343882,0.14369 -0.426432,0.1433 -0.763956,-0.004 z m 51.995639,0.0506 c -0.882303,-0.29126 -0.980491,-1.50043 -0.150021,-1.84742 1.007161,-0.42082 1.849628,0.85665 1.056073,1.60136 -0.246109,0.23096 -0.633273,0.33611 -0.906052,0.24606 z"
       id="path483" /></g></svg>
