<?xml version="1.0" encoding="UTF-8" standalone="no"?>
<!-- Created with Inkscape (http://www.inkscape.org/) -->

<svg
   width="29.389393mm"
   height="27.15597mm"
   viewBox="0 0 29.389393 27.15597"
   version="1.1"
   id="svg5"
   xml:space="preserve"
   inkscape:version="1.2 (dc2aeda, 2022-05-15)"
   sodipodi:docname="intelligenesis logo silkscreen.svg"
   xmlns:inkscape="http://www.inkscape.org/namespaces/inkscape"
   xmlns:sodipodi="http://sodipodi.sourceforge.net/DTD/sodipodi-0.dtd"
   xmlns="http://www.w3.org/2000/svg"
   xmlns:svg="http://www.w3.org/2000/svg"><sodipodi:namedview
     id="namedview7"
     pagecolor="#ffffff"
     bordercolor="#000000"
     borderopacity="0.25"
     inkscape:showpageshadow="2"
     inkscape:pageopacity="0.0"
     inkscape:pagecheckerboard="0"
     inkscape:deskcolor="#d1d1d1"
     inkscape:document-units="mm"
     showgrid="false"
     inkscape:zoom="3.0644165"
     inkscape:cx="85.497515"
     inkscape:cy="87.944963"
     inkscape:window-width="1800"
     inkscape:window-height="1097"
     inkscape:window-x="0"
     inkscape:window-y="44"
     inkscape:window-maximized="0"
     inkscape:current-layer="layer1" /><defs
     id="defs2" /><g
     inkscape:label="Layer 1"
     inkscape:groupmode="layer"
     id="layer1"
     transform="translate(112.19751,-132.01195)"><path
       style="fill:#000000;stroke-width:0.0846667"
       d="m -112.19751,159.12647 c 0,-0.0835 1.51537,-0.79578 2.75167,-1.29334 3.64347,-1.46634 8.14301,-2.65134 13.419665,-3.53421 3.042399,-0.50903 6.953939,-0.98823 9.017,-1.10464 l 0.931334,-0.0526 1.185333,2.18295 c 0.651933,1.20062 1.387622,2.55652 1.634862,3.01312 l 0.449529,0.83017 h -14.694696 c -8.082087,0 -14.694697,-0.0187 -14.694697,-0.0415 z m 3.32506,-8.44777 c 0.0994,-0.25896 10.399743,-18.64846 10.455646,-18.66672 0.06218,-0.0203 6.158168,10.64294 6.102825,10.6752 -0.01606,0.009 -0.600696,0.20191 -1.299196,0.42788 -5.466134,1.76833 -10.793995,4.37239 -14.308465,6.99345 -0.49962,0.37262 -0.92721,0.67749 -0.9502,0.67749 -0.023,0 -0.0233,-0.0483 -5.9e-4,-0.1073 z"
       id="path483"
       sodipodi:nodetypes="cccccsscscccccccscc" /></g></svg>
