G04 #@! TF.GenerationSoftware,KiCad,Pcbnew,(6.99.0-2103-gdc6c27b686)*
G04 #@! TF.CreationDate,2022-07-02T10:55:45+09:00*
G04 #@! TF.ProjectId,B2,42322e6b-6963-4616-945f-706362585858,rev?*
G04 #@! TF.SameCoordinates,Original*
G04 #@! TF.FileFunction,Legend,Bot*
G04 #@! TF.FilePolarity,Positive*
%FSLAX46Y46*%
G04 Gerber Fmt 4.6, Leading zero omitted, Abs format (unit mm)*
G04 Created by KiCad (PCBNEW (6.99.0-2103-gdc6c27b686)) date 2022-07-02 10:55:45*
%MOMM*%
%LPD*%
G01*
G04 APERTURE LIST*
%ADD10C,0.300000*%
%ADD11C,0.120000*%
%ADD12R,1.700000X1.700000*%
%ADD13O,1.700000X1.700000*%
G04 APERTURE END LIST*
D10*
X181249999Y-94451071D02*
X180892856Y-95451071D01*
X180892856Y-95451071D02*
X180535713Y-94451071D01*
X179178570Y-95451071D02*
X180035713Y-95451071D01*
X179607142Y-95451071D02*
X179607142Y-93951071D01*
X179607142Y-93951071D02*
X179749999Y-94165357D01*
X179749999Y-94165357D02*
X179892856Y-94308214D01*
X179892856Y-94308214D02*
X180035713Y-94379642D01*
X177892857Y-95451071D02*
X177892857Y-94665357D01*
X177892857Y-94665357D02*
X177964285Y-94522500D01*
X177964285Y-94522500D02*
X178107142Y-94451071D01*
X178107142Y-94451071D02*
X178392857Y-94451071D01*
X178392857Y-94451071D02*
X178535714Y-94522500D01*
X177892857Y-95379642D02*
X178035714Y-95451071D01*
X178035714Y-95451071D02*
X178392857Y-95451071D01*
X178392857Y-95451071D02*
X178535714Y-95379642D01*
X178535714Y-95379642D02*
X178607142Y-95236785D01*
X178607142Y-95236785D02*
X178607142Y-95093928D01*
X178607142Y-95093928D02*
X178535714Y-94951071D01*
X178535714Y-94951071D02*
X178392857Y-94879642D01*
X178392857Y-94879642D02*
X178035714Y-94879642D01*
X178035714Y-94879642D02*
X177892857Y-94808214D01*
X149342856Y-70236785D02*
X149414285Y-70165357D01*
X149414285Y-70165357D02*
X149557142Y-70093928D01*
X149557142Y-70093928D02*
X149699999Y-70093928D01*
X149699999Y-70093928D02*
X149842856Y-70165357D01*
X149842856Y-70165357D02*
X149914285Y-70236785D01*
X149914285Y-70236785D02*
X149985713Y-70379642D01*
X149985713Y-70379642D02*
X149985713Y-70522500D01*
X149985713Y-70522500D02*
X149914285Y-70665357D01*
X149914285Y-70665357D02*
X149842856Y-70736785D01*
X149842856Y-70736785D02*
X149699999Y-70808214D01*
X149699999Y-70808214D02*
X149557142Y-70808214D01*
X149557142Y-70808214D02*
X149414285Y-70736785D01*
X149414285Y-70736785D02*
X149342856Y-70665357D01*
X149342856Y-70093928D02*
X149342856Y-70665357D01*
X149342856Y-70665357D02*
X149271428Y-70736785D01*
X149271428Y-70736785D02*
X149199999Y-70736785D01*
X149199999Y-70736785D02*
X149057142Y-70665357D01*
X149057142Y-70665357D02*
X148985713Y-70522500D01*
X148985713Y-70522500D02*
X148985713Y-70165357D01*
X148985713Y-70165357D02*
X149128571Y-69951071D01*
X149128571Y-69951071D02*
X149342856Y-69808214D01*
X149342856Y-69808214D02*
X149628571Y-69736785D01*
X149628571Y-69736785D02*
X149914285Y-69808214D01*
X149914285Y-69808214D02*
X150128571Y-69951071D01*
X150128571Y-69951071D02*
X150271428Y-70165357D01*
X150271428Y-70165357D02*
X150342856Y-70451071D01*
X150342856Y-70451071D02*
X150271428Y-70736785D01*
X150271428Y-70736785D02*
X150128571Y-70951071D01*
X150128571Y-70951071D02*
X149914285Y-71093928D01*
X149914285Y-71093928D02*
X149628571Y-71165357D01*
X149628571Y-71165357D02*
X149342856Y-71093928D01*
X149342856Y-71093928D02*
X149128571Y-70951071D01*
X147700000Y-70951071D02*
X147700000Y-70165357D01*
X147700000Y-70165357D02*
X147771428Y-70022500D01*
X147771428Y-70022500D02*
X147914285Y-69951071D01*
X147914285Y-69951071D02*
X148200000Y-69951071D01*
X148200000Y-69951071D02*
X148342857Y-70022500D01*
X147700000Y-70879642D02*
X147842857Y-70951071D01*
X147842857Y-70951071D02*
X148200000Y-70951071D01*
X148200000Y-70951071D02*
X148342857Y-70879642D01*
X148342857Y-70879642D02*
X148414285Y-70736785D01*
X148414285Y-70736785D02*
X148414285Y-70593928D01*
X148414285Y-70593928D02*
X148342857Y-70451071D01*
X148342857Y-70451071D02*
X148200000Y-70379642D01*
X148200000Y-70379642D02*
X147842857Y-70379642D01*
X147842857Y-70379642D02*
X147700000Y-70308214D01*
X147128571Y-69951071D02*
X146771428Y-70951071D01*
X146771428Y-70951071D02*
X146414285Y-69951071D01*
X146200000Y-71093928D02*
X145057142Y-71093928D01*
X144700000Y-69951071D02*
X144700000Y-71451071D01*
X144700000Y-70022500D02*
X144557143Y-69951071D01*
X144557143Y-69951071D02*
X144271428Y-69951071D01*
X144271428Y-69951071D02*
X144128571Y-70022500D01*
X144128571Y-70022500D02*
X144057143Y-70093928D01*
X144057143Y-70093928D02*
X143985714Y-70236785D01*
X143985714Y-70236785D02*
X143985714Y-70665357D01*
X143985714Y-70665357D02*
X144057143Y-70808214D01*
X144057143Y-70808214D02*
X144128571Y-70879642D01*
X144128571Y-70879642D02*
X144271428Y-70951071D01*
X144271428Y-70951071D02*
X144557143Y-70951071D01*
X144557143Y-70951071D02*
X144700000Y-70879642D01*
X142700000Y-69951071D02*
X142700000Y-70951071D01*
X143342857Y-69951071D02*
X143342857Y-70736785D01*
X143342857Y-70736785D02*
X143271428Y-70879642D01*
X143271428Y-70879642D02*
X143128571Y-70951071D01*
X143128571Y-70951071D02*
X142914285Y-70951071D01*
X142914285Y-70951071D02*
X142771428Y-70879642D01*
X142771428Y-70879642D02*
X142700000Y-70808214D01*
X141985714Y-70951071D02*
X141985714Y-69451071D01*
X141985714Y-70022500D02*
X141842857Y-69951071D01*
X141842857Y-69951071D02*
X141557142Y-69951071D01*
X141557142Y-69951071D02*
X141414285Y-70022500D01*
X141414285Y-70022500D02*
X141342857Y-70093928D01*
X141342857Y-70093928D02*
X141271428Y-70236785D01*
X141271428Y-70236785D02*
X141271428Y-70665357D01*
X141271428Y-70665357D02*
X141342857Y-70808214D01*
X141342857Y-70808214D02*
X141414285Y-70879642D01*
X141414285Y-70879642D02*
X141557142Y-70951071D01*
X141557142Y-70951071D02*
X141842857Y-70951071D01*
X141842857Y-70951071D02*
X141985714Y-70879642D01*
X140699999Y-70879642D02*
X140557142Y-70951071D01*
X140557142Y-70951071D02*
X140271428Y-70951071D01*
X140271428Y-70951071D02*
X140128571Y-70879642D01*
X140128571Y-70879642D02*
X140057142Y-70736785D01*
X140057142Y-70736785D02*
X140057142Y-70665357D01*
X140057142Y-70665357D02*
X140128571Y-70522500D01*
X140128571Y-70522500D02*
X140271428Y-70451071D01*
X140271428Y-70451071D02*
X140485714Y-70451071D01*
X140485714Y-70451071D02*
X140628571Y-70379642D01*
X140628571Y-70379642D02*
X140699999Y-70236785D01*
X140699999Y-70236785D02*
X140699999Y-70165357D01*
X140699999Y-70165357D02*
X140628571Y-70022500D01*
X140628571Y-70022500D02*
X140485714Y-69951071D01*
X140485714Y-69951071D02*
X140271428Y-69951071D01*
X140271428Y-69951071D02*
X140128571Y-70022500D01*
X150014285Y-91551071D02*
X150014285Y-92836785D01*
X150014285Y-92836785D02*
X150085713Y-92979642D01*
X150085713Y-92979642D02*
X150228570Y-93051071D01*
X150228570Y-93051071D02*
X150299999Y-93051071D01*
X150014285Y-91051071D02*
X150085713Y-91122500D01*
X150085713Y-91122500D02*
X150014285Y-91193928D01*
X150014285Y-91193928D02*
X149942856Y-91122500D01*
X149942856Y-91122500D02*
X150014285Y-91051071D01*
X150014285Y-91051071D02*
X150014285Y-91193928D01*
X149085713Y-92551071D02*
X149228570Y-92479642D01*
X149228570Y-92479642D02*
X149299999Y-92336785D01*
X149299999Y-92336785D02*
X149299999Y-91051071D01*
X147871428Y-92479642D02*
X148014285Y-92551071D01*
X148014285Y-92551071D02*
X148299999Y-92551071D01*
X148299999Y-92551071D02*
X148442856Y-92479642D01*
X148442856Y-92479642D02*
X148514285Y-92408214D01*
X148514285Y-92408214D02*
X148585713Y-92265357D01*
X148585713Y-92265357D02*
X148585713Y-91836785D01*
X148585713Y-91836785D02*
X148514285Y-91693928D01*
X148514285Y-91693928D02*
X148442856Y-91622500D01*
X148442856Y-91622500D02*
X148299999Y-91551071D01*
X148299999Y-91551071D02*
X148014285Y-91551071D01*
X148014285Y-91551071D02*
X147871428Y-91622500D01*
X147228571Y-91551071D02*
X147228571Y-92836785D01*
X147228571Y-92836785D02*
X147299999Y-92979642D01*
X147299999Y-92979642D02*
X147442856Y-93051071D01*
X147442856Y-93051071D02*
X147514285Y-93051071D01*
X147228571Y-91051071D02*
X147299999Y-91122500D01*
X147299999Y-91122500D02*
X147228571Y-91193928D01*
X147228571Y-91193928D02*
X147157142Y-91122500D01*
X147157142Y-91122500D02*
X147228571Y-91051071D01*
X147228571Y-91051071D02*
X147228571Y-91193928D01*
X146299999Y-92551071D02*
X146442856Y-92479642D01*
X146442856Y-92479642D02*
X146514285Y-92336785D01*
X146514285Y-92336785D02*
X146514285Y-91051071D01*
X145085714Y-92479642D02*
X145228571Y-92551071D01*
X145228571Y-92551071D02*
X145514285Y-92551071D01*
X145514285Y-92551071D02*
X145657142Y-92479642D01*
X145657142Y-92479642D02*
X145728571Y-92408214D01*
X145728571Y-92408214D02*
X145799999Y-92265357D01*
X145799999Y-92265357D02*
X145799999Y-91836785D01*
X145799999Y-91836785D02*
X145728571Y-91693928D01*
X145728571Y-91693928D02*
X145657142Y-91622500D01*
X145657142Y-91622500D02*
X145514285Y-91551071D01*
X145514285Y-91551071D02*
X145228571Y-91551071D01*
X145228571Y-91551071D02*
X145085714Y-91622500D01*
X144442857Y-91551071D02*
X144442857Y-92836785D01*
X144442857Y-92836785D02*
X144514285Y-92979642D01*
X144514285Y-92979642D02*
X144657142Y-93051071D01*
X144657142Y-93051071D02*
X144728571Y-93051071D01*
X144442857Y-91051071D02*
X144514285Y-91122500D01*
X144514285Y-91122500D02*
X144442857Y-91193928D01*
X144442857Y-91193928D02*
X144371428Y-91122500D01*
X144371428Y-91122500D02*
X144442857Y-91051071D01*
X144442857Y-91051071D02*
X144442857Y-91193928D01*
X143514285Y-92551071D02*
X143657142Y-92479642D01*
X143657142Y-92479642D02*
X143728571Y-92336785D01*
X143728571Y-92336785D02*
X143728571Y-91051071D01*
X142300000Y-92479642D02*
X142442857Y-92551071D01*
X142442857Y-92551071D02*
X142728571Y-92551071D01*
X142728571Y-92551071D02*
X142871428Y-92479642D01*
X142871428Y-92479642D02*
X142942857Y-92408214D01*
X142942857Y-92408214D02*
X143014285Y-92265357D01*
X143014285Y-92265357D02*
X143014285Y-91836785D01*
X143014285Y-91836785D02*
X142942857Y-91693928D01*
X142942857Y-91693928D02*
X142871428Y-91622500D01*
X142871428Y-91622500D02*
X142728571Y-91551071D01*
X142728571Y-91551071D02*
X142442857Y-91551071D01*
X142442857Y-91551071D02*
X142300000Y-91622500D01*
X141657143Y-91551071D02*
X141657143Y-92836785D01*
X141657143Y-92836785D02*
X141728571Y-92979642D01*
X141728571Y-92979642D02*
X141871428Y-93051071D01*
X141871428Y-93051071D02*
X141942857Y-93051071D01*
X141657143Y-91051071D02*
X141728571Y-91122500D01*
X141728571Y-91122500D02*
X141657143Y-91193928D01*
X141657143Y-91193928D02*
X141585714Y-91122500D01*
X141585714Y-91122500D02*
X141657143Y-91051071D01*
X141657143Y-91051071D02*
X141657143Y-91193928D01*
X140728571Y-92551071D02*
X140871428Y-92479642D01*
X140871428Y-92479642D02*
X140942857Y-92336785D01*
X140942857Y-92336785D02*
X140942857Y-91051071D01*
X139514286Y-92479642D02*
X139657143Y-92551071D01*
X139657143Y-92551071D02*
X139942857Y-92551071D01*
X139942857Y-92551071D02*
X140085714Y-92479642D01*
X140085714Y-92479642D02*
X140157143Y-92408214D01*
X140157143Y-92408214D02*
X140228571Y-92265357D01*
X140228571Y-92265357D02*
X140228571Y-91836785D01*
X140228571Y-91836785D02*
X140157143Y-91693928D01*
X140157143Y-91693928D02*
X140085714Y-91622500D01*
X140085714Y-91622500D02*
X139942857Y-91551071D01*
X139942857Y-91551071D02*
X139657143Y-91551071D01*
X139657143Y-91551071D02*
X139514286Y-91622500D01*
D11*
X148685000Y-78670000D02*
X148685000Y-83870000D01*
X143545000Y-78670000D02*
X148685000Y-78670000D01*
X143545000Y-78670000D02*
X143545000Y-81270000D01*
X142275000Y-78670000D02*
X140945000Y-78670000D01*
X140945000Y-78670000D02*
X140945000Y-80000000D01*
X143545000Y-81270000D02*
X140945000Y-81270000D01*
X140945000Y-81270000D02*
X140945000Y-83870000D01*
X140945000Y-83870000D02*
X148685000Y-83870000D01*
%LPC*%
D12*
X142274999Y-79999999D03*
D13*
X142274999Y-82539999D03*
X144814999Y-79999999D03*
X144814999Y-82539999D03*
X147354999Y-79999999D03*
X147354999Y-82539999D03*
M02*
