%FSLAX45Y45*%
G04 Gerber Fmt 4.5, Leading zero omitted, Abs format (unit mm)*
G04 Created by KiCad (PCBNEW (6.99.0-2103-gdc6c27b686)) date 2022-07-02 10:55:50*
%MOMM*%
%LPD*%
G01*
G04 APERTURE LIST*
%TA.AperFunction,Profile*%
%ADD10C,0.140000*%
%TD*%
%ADD11C,0.200000*%
%ADD12C,0.100000*%
G04 APERTURE END LIST*
D10*
X18610406Y-9411859D02*
X17941049Y-9906109D01*
X16548675Y-8917608D01*
X15540404Y-9626504D01*
X15063100Y-9338427D01*
X14478472Y-9750773D01*
X13865602Y-9301712D01*
X13388298Y-9618031D01*
X12419567Y-8906311D01*
X11015896Y-9914582D01*
X10329594Y-9414682D01*
X14512185Y-6445418D01*
X18610406Y-9411859D01*
D11*
D12*
X14177500Y-7950000D02*
X14277500Y-8050000D01*
X14277500Y-7950000D02*
X14177500Y-8050000D01*
X14177500Y-8204000D02*
X14277500Y-8304000D01*
X14277500Y-8204000D02*
X14177500Y-8304000D01*
X14431500Y-7950000D02*
X14531500Y-8050000D01*
X14531500Y-7950000D02*
X14431500Y-8050000D01*
X14431500Y-8204000D02*
X14531500Y-8304000D01*
X14531500Y-8204000D02*
X14431500Y-8304000D01*
X14685500Y-7950000D02*
X14785500Y-8050000D01*
X14785500Y-7950000D02*
X14685500Y-8050000D01*
X14685500Y-8204000D02*
X14785500Y-8304000D01*
X14785500Y-8204000D02*
X14685500Y-8304000D01*
D11*
X10570213Y-10215058D02*
X10570213Y-10015058D01*
X10570213Y-10015058D02*
X10617832Y-10015058D01*
X10617832Y-10015058D02*
X10646404Y-10024582D01*
X10646404Y-10024582D02*
X10665451Y-10043629D01*
X10665451Y-10043629D02*
X10674975Y-10062677D01*
X10674975Y-10062677D02*
X10684499Y-10100772D01*
X10684499Y-10100772D02*
X10684499Y-10129343D01*
X10684499Y-10129343D02*
X10674975Y-10167439D01*
X10674975Y-10167439D02*
X10665451Y-10186486D01*
X10665451Y-10186486D02*
X10646404Y-10205534D01*
X10646404Y-10205534D02*
X10617832Y-10215058D01*
X10617832Y-10215058D02*
X10570213Y-10215058D01*
X10770213Y-10215058D02*
X10770213Y-10081724D01*
X10770213Y-10119820D02*
X10779737Y-10100772D01*
X10779737Y-10100772D02*
X10789261Y-10091248D01*
X10789261Y-10091248D02*
X10808309Y-10081724D01*
X10808309Y-10081724D02*
X10827356Y-10081724D01*
X10894023Y-10215058D02*
X10894023Y-10081724D01*
X10894023Y-10015058D02*
X10884499Y-10024582D01*
X10884499Y-10024582D02*
X10894023Y-10034105D01*
X10894023Y-10034105D02*
X10903547Y-10024582D01*
X10903547Y-10024582D02*
X10894023Y-10015058D01*
X10894023Y-10015058D02*
X10894023Y-10034105D01*
X11017832Y-10215058D02*
X10998785Y-10205534D01*
X10998785Y-10205534D02*
X10989261Y-10186486D01*
X10989261Y-10186486D02*
X10989261Y-10015058D01*
X11122594Y-10215058D02*
X11103547Y-10205534D01*
X11103547Y-10205534D02*
X11094023Y-10186486D01*
X11094023Y-10186486D02*
X11094023Y-10015058D01*
X11318785Y-10215058D02*
X11318785Y-10015058D01*
X11318785Y-10015058D02*
X11385451Y-10157915D01*
X11385451Y-10157915D02*
X11452118Y-10015058D01*
X11452118Y-10015058D02*
X11452118Y-10215058D01*
X11633070Y-10215058D02*
X11633070Y-10110296D01*
X11633070Y-10110296D02*
X11623547Y-10091248D01*
X11623547Y-10091248D02*
X11604499Y-10081724D01*
X11604499Y-10081724D02*
X11566404Y-10081724D01*
X11566404Y-10081724D02*
X11547356Y-10091248D01*
X11633070Y-10205534D02*
X11614023Y-10215058D01*
X11614023Y-10215058D02*
X11566404Y-10215058D01*
X11566404Y-10215058D02*
X11547356Y-10205534D01*
X11547356Y-10205534D02*
X11537832Y-10186486D01*
X11537832Y-10186486D02*
X11537832Y-10167439D01*
X11537832Y-10167439D02*
X11547356Y-10148391D01*
X11547356Y-10148391D02*
X11566404Y-10138867D01*
X11566404Y-10138867D02*
X11614023Y-10138867D01*
X11614023Y-10138867D02*
X11633070Y-10129343D01*
X11728308Y-10081724D02*
X11728308Y-10281724D01*
X11728308Y-10091248D02*
X11747356Y-10081724D01*
X11747356Y-10081724D02*
X11785451Y-10081724D01*
X11785451Y-10081724D02*
X11804499Y-10091248D01*
X11804499Y-10091248D02*
X11814023Y-10100772D01*
X11814023Y-10100772D02*
X11823547Y-10119820D01*
X11823547Y-10119820D02*
X11823547Y-10176962D01*
X11823547Y-10176962D02*
X11814023Y-10196010D01*
X11814023Y-10196010D02*
X11804499Y-10205534D01*
X11804499Y-10205534D02*
X11785451Y-10215058D01*
X11785451Y-10215058D02*
X11747356Y-10215058D01*
X11747356Y-10215058D02*
X11728308Y-10205534D01*
X11909261Y-10196010D02*
X11918785Y-10205534D01*
X11918785Y-10205534D02*
X11909261Y-10215058D01*
X11909261Y-10215058D02*
X11899737Y-10205534D01*
X11899737Y-10205534D02*
X11909261Y-10196010D01*
X11909261Y-10196010D02*
X11909261Y-10215058D01*
X11909261Y-10091248D02*
X11918785Y-10100772D01*
X11918785Y-10100772D02*
X11909261Y-10110296D01*
X11909261Y-10110296D02*
X11899737Y-10100772D01*
X11899737Y-10100772D02*
X11909261Y-10091248D01*
X11909261Y-10091248D02*
X11909261Y-10110296D01*
D12*
X10222594Y-10511582D02*
X10322594Y-10611582D01*
X10322594Y-10511582D02*
X10222594Y-10611582D01*
D11*
X10674975Y-10635058D02*
X10560690Y-10635058D01*
X10617832Y-10635058D02*
X10617832Y-10435058D01*
X10617832Y-10435058D02*
X10598785Y-10463629D01*
X10598785Y-10463629D02*
X10579737Y-10482677D01*
X10579737Y-10482677D02*
X10560690Y-10492201D01*
X10760690Y-10616010D02*
X10770213Y-10625534D01*
X10770213Y-10625534D02*
X10760690Y-10635058D01*
X10760690Y-10635058D02*
X10751166Y-10625534D01*
X10751166Y-10625534D02*
X10760690Y-10616010D01*
X10760690Y-10616010D02*
X10760690Y-10635058D01*
X10894023Y-10435058D02*
X10913071Y-10435058D01*
X10913071Y-10435058D02*
X10932118Y-10444582D01*
X10932118Y-10444582D02*
X10941642Y-10454105D01*
X10941642Y-10454105D02*
X10951166Y-10473153D01*
X10951166Y-10473153D02*
X10960690Y-10511248D01*
X10960690Y-10511248D02*
X10960690Y-10558867D01*
X10960690Y-10558867D02*
X10951166Y-10596962D01*
X10951166Y-10596962D02*
X10941642Y-10616010D01*
X10941642Y-10616010D02*
X10932118Y-10625534D01*
X10932118Y-10625534D02*
X10913071Y-10635058D01*
X10913071Y-10635058D02*
X10894023Y-10635058D01*
X10894023Y-10635058D02*
X10874975Y-10625534D01*
X10874975Y-10625534D02*
X10865451Y-10616010D01*
X10865451Y-10616010D02*
X10855928Y-10596962D01*
X10855928Y-10596962D02*
X10846404Y-10558867D01*
X10846404Y-10558867D02*
X10846404Y-10511248D01*
X10846404Y-10511248D02*
X10855928Y-10473153D01*
X10855928Y-10473153D02*
X10865451Y-10454105D01*
X10865451Y-10454105D02*
X10874975Y-10444582D01*
X10874975Y-10444582D02*
X10894023Y-10435058D01*
X11084499Y-10435058D02*
X11103547Y-10435058D01*
X11103547Y-10435058D02*
X11122594Y-10444582D01*
X11122594Y-10444582D02*
X11132118Y-10454105D01*
X11132118Y-10454105D02*
X11141642Y-10473153D01*
X11141642Y-10473153D02*
X11151166Y-10511248D01*
X11151166Y-10511248D02*
X11151166Y-10558867D01*
X11151166Y-10558867D02*
X11141642Y-10596962D01*
X11141642Y-10596962D02*
X11132118Y-10616010D01*
X11132118Y-10616010D02*
X11122594Y-10625534D01*
X11122594Y-10625534D02*
X11103547Y-10635058D01*
X11103547Y-10635058D02*
X11084499Y-10635058D01*
X11084499Y-10635058D02*
X11065451Y-10625534D01*
X11065451Y-10625534D02*
X11055928Y-10616010D01*
X11055928Y-10616010D02*
X11046404Y-10596962D01*
X11046404Y-10596962D02*
X11036880Y-10558867D01*
X11036880Y-10558867D02*
X11036880Y-10511248D01*
X11036880Y-10511248D02*
X11046404Y-10473153D01*
X11046404Y-10473153D02*
X11055928Y-10454105D01*
X11055928Y-10454105D02*
X11065451Y-10444582D01*
X11065451Y-10444582D02*
X11084499Y-10435058D01*
X11274975Y-10435058D02*
X11294023Y-10435058D01*
X11294023Y-10435058D02*
X11313070Y-10444582D01*
X11313070Y-10444582D02*
X11322594Y-10454105D01*
X11322594Y-10454105D02*
X11332118Y-10473153D01*
X11332118Y-10473153D02*
X11341642Y-10511248D01*
X11341642Y-10511248D02*
X11341642Y-10558867D01*
X11341642Y-10558867D02*
X11332118Y-10596962D01*
X11332118Y-10596962D02*
X11322594Y-10616010D01*
X11322594Y-10616010D02*
X11313070Y-10625534D01*
X11313070Y-10625534D02*
X11294023Y-10635058D01*
X11294023Y-10635058D02*
X11274975Y-10635058D01*
X11274975Y-10635058D02*
X11255928Y-10625534D01*
X11255928Y-10625534D02*
X11246404Y-10616010D01*
X11246404Y-10616010D02*
X11236880Y-10596962D01*
X11236880Y-10596962D02*
X11227356Y-10558867D01*
X11227356Y-10558867D02*
X11227356Y-10511248D01*
X11227356Y-10511248D02*
X11236880Y-10473153D01*
X11236880Y-10473153D02*
X11246404Y-10454105D01*
X11246404Y-10454105D02*
X11255928Y-10444582D01*
X11255928Y-10444582D02*
X11274975Y-10435058D01*
X11427356Y-10635058D02*
X11427356Y-10501724D01*
X11427356Y-10520772D02*
X11436880Y-10511248D01*
X11436880Y-10511248D02*
X11455928Y-10501724D01*
X11455928Y-10501724D02*
X11484499Y-10501724D01*
X11484499Y-10501724D02*
X11503547Y-10511248D01*
X11503547Y-10511248D02*
X11513070Y-10530296D01*
X11513070Y-10530296D02*
X11513070Y-10635058D01*
X11513070Y-10530296D02*
X11522594Y-10511248D01*
X11522594Y-10511248D02*
X11541642Y-10501724D01*
X11541642Y-10501724D02*
X11570213Y-10501724D01*
X11570213Y-10501724D02*
X11589261Y-10511248D01*
X11589261Y-10511248D02*
X11598785Y-10530296D01*
X11598785Y-10530296D02*
X11598785Y-10635058D01*
X11694023Y-10635058D02*
X11694023Y-10501724D01*
X11694023Y-10520772D02*
X11703547Y-10511248D01*
X11703547Y-10511248D02*
X11722594Y-10501724D01*
X11722594Y-10501724D02*
X11751166Y-10501724D01*
X11751166Y-10501724D02*
X11770213Y-10511248D01*
X11770213Y-10511248D02*
X11779737Y-10530296D01*
X11779737Y-10530296D02*
X11779737Y-10635058D01*
X11779737Y-10530296D02*
X11789261Y-10511248D01*
X11789261Y-10511248D02*
X11808309Y-10501724D01*
X11808309Y-10501724D02*
X11836880Y-10501724D01*
X11836880Y-10501724D02*
X11855928Y-10511248D01*
X11855928Y-10511248D02*
X11865451Y-10530296D01*
X11865451Y-10530296D02*
X11865451Y-10635058D01*
X12223547Y-10425534D02*
X12052118Y-10682677D01*
X12448309Y-10435058D02*
X12467356Y-10435058D01*
X12467356Y-10435058D02*
X12486404Y-10444582D01*
X12486404Y-10444582D02*
X12495928Y-10454105D01*
X12495928Y-10454105D02*
X12505451Y-10473153D01*
X12505451Y-10473153D02*
X12514975Y-10511248D01*
X12514975Y-10511248D02*
X12514975Y-10558867D01*
X12514975Y-10558867D02*
X12505451Y-10596962D01*
X12505451Y-10596962D02*
X12495928Y-10616010D01*
X12495928Y-10616010D02*
X12486404Y-10625534D01*
X12486404Y-10625534D02*
X12467356Y-10635058D01*
X12467356Y-10635058D02*
X12448309Y-10635058D01*
X12448309Y-10635058D02*
X12429261Y-10625534D01*
X12429261Y-10625534D02*
X12419737Y-10616010D01*
X12419737Y-10616010D02*
X12410213Y-10596962D01*
X12410213Y-10596962D02*
X12400690Y-10558867D01*
X12400690Y-10558867D02*
X12400690Y-10511248D01*
X12400690Y-10511248D02*
X12410213Y-10473153D01*
X12410213Y-10473153D02*
X12419737Y-10454105D01*
X12419737Y-10454105D02*
X12429261Y-10444582D01*
X12429261Y-10444582D02*
X12448309Y-10435058D01*
X12600690Y-10616010D02*
X12610213Y-10625534D01*
X12610213Y-10625534D02*
X12600690Y-10635058D01*
X12600690Y-10635058D02*
X12591166Y-10625534D01*
X12591166Y-10625534D02*
X12600690Y-10616010D01*
X12600690Y-10616010D02*
X12600690Y-10635058D01*
X12734023Y-10435058D02*
X12753071Y-10435058D01*
X12753071Y-10435058D02*
X12772118Y-10444582D01*
X12772118Y-10444582D02*
X12781642Y-10454105D01*
X12781642Y-10454105D02*
X12791166Y-10473153D01*
X12791166Y-10473153D02*
X12800690Y-10511248D01*
X12800690Y-10511248D02*
X12800690Y-10558867D01*
X12800690Y-10558867D02*
X12791166Y-10596962D01*
X12791166Y-10596962D02*
X12781642Y-10616010D01*
X12781642Y-10616010D02*
X12772118Y-10625534D01*
X12772118Y-10625534D02*
X12753071Y-10635058D01*
X12753071Y-10635058D02*
X12734023Y-10635058D01*
X12734023Y-10635058D02*
X12714975Y-10625534D01*
X12714975Y-10625534D02*
X12705451Y-10616010D01*
X12705451Y-10616010D02*
X12695928Y-10596962D01*
X12695928Y-10596962D02*
X12686404Y-10558867D01*
X12686404Y-10558867D02*
X12686404Y-10511248D01*
X12686404Y-10511248D02*
X12695928Y-10473153D01*
X12695928Y-10473153D02*
X12705451Y-10454105D01*
X12705451Y-10454105D02*
X12714975Y-10444582D01*
X12714975Y-10444582D02*
X12734023Y-10435058D01*
X12867356Y-10435058D02*
X12991166Y-10435058D01*
X12991166Y-10435058D02*
X12924499Y-10511248D01*
X12924499Y-10511248D02*
X12953071Y-10511248D01*
X12953071Y-10511248D02*
X12972118Y-10520772D01*
X12972118Y-10520772D02*
X12981642Y-10530296D01*
X12981642Y-10530296D02*
X12991166Y-10549343D01*
X12991166Y-10549343D02*
X12991166Y-10596962D01*
X12991166Y-10596962D02*
X12981642Y-10616010D01*
X12981642Y-10616010D02*
X12972118Y-10625534D01*
X12972118Y-10625534D02*
X12953071Y-10635058D01*
X12953071Y-10635058D02*
X12895928Y-10635058D01*
X12895928Y-10635058D02*
X12876880Y-10625534D01*
X12876880Y-10625534D02*
X12867356Y-10616010D01*
X13086404Y-10635058D02*
X13124499Y-10635058D01*
X13124499Y-10635058D02*
X13143547Y-10625534D01*
X13143547Y-10625534D02*
X13153071Y-10616010D01*
X13153071Y-10616010D02*
X13172118Y-10587439D01*
X13172118Y-10587439D02*
X13181642Y-10549343D01*
X13181642Y-10549343D02*
X13181642Y-10473153D01*
X13181642Y-10473153D02*
X13172118Y-10454105D01*
X13172118Y-10454105D02*
X13162594Y-10444582D01*
X13162594Y-10444582D02*
X13143547Y-10435058D01*
X13143547Y-10435058D02*
X13105451Y-10435058D01*
X13105451Y-10435058D02*
X13086404Y-10444582D01*
X13086404Y-10444582D02*
X13076880Y-10454105D01*
X13076880Y-10454105D02*
X13067356Y-10473153D01*
X13067356Y-10473153D02*
X13067356Y-10520772D01*
X13067356Y-10520772D02*
X13076880Y-10539820D01*
X13076880Y-10539820D02*
X13086404Y-10549343D01*
X13086404Y-10549343D02*
X13105451Y-10558867D01*
X13105451Y-10558867D02*
X13143547Y-10558867D01*
X13143547Y-10558867D02*
X13162594Y-10549343D01*
X13162594Y-10549343D02*
X13172118Y-10539820D01*
X13172118Y-10539820D02*
X13181642Y-10520772D01*
X13353071Y-10501724D02*
X13353071Y-10635058D01*
X13305451Y-10425534D02*
X13257832Y-10568391D01*
X13257832Y-10568391D02*
X13381642Y-10568391D01*
X13448309Y-10435058D02*
X13448309Y-10473153D01*
X13524499Y-10435058D02*
X13524499Y-10473153D01*
X13787356Y-10711248D02*
X13777832Y-10701724D01*
X13777832Y-10701724D02*
X13758785Y-10673153D01*
X13758785Y-10673153D02*
X13749261Y-10654105D01*
X13749261Y-10654105D02*
X13739737Y-10625534D01*
X13739737Y-10625534D02*
X13730213Y-10577915D01*
X13730213Y-10577915D02*
X13730213Y-10539820D01*
X13730213Y-10539820D02*
X13739737Y-10492201D01*
X13739737Y-10492201D02*
X13749261Y-10463629D01*
X13749261Y-10463629D02*
X13758785Y-10444582D01*
X13758785Y-10444582D02*
X13777832Y-10416010D01*
X13777832Y-10416010D02*
X13787356Y-10406486D01*
X13949261Y-10435058D02*
X13911166Y-10435058D01*
X13911166Y-10435058D02*
X13892118Y-10444582D01*
X13892118Y-10444582D02*
X13882594Y-10454105D01*
X13882594Y-10454105D02*
X13863547Y-10482677D01*
X13863547Y-10482677D02*
X13854023Y-10520772D01*
X13854023Y-10520772D02*
X13854023Y-10596962D01*
X13854023Y-10596962D02*
X13863547Y-10616010D01*
X13863547Y-10616010D02*
X13873071Y-10625534D01*
X13873071Y-10625534D02*
X13892118Y-10635058D01*
X13892118Y-10635058D02*
X13930213Y-10635058D01*
X13930213Y-10635058D02*
X13949261Y-10625534D01*
X13949261Y-10625534D02*
X13958785Y-10616010D01*
X13958785Y-10616010D02*
X13968309Y-10596962D01*
X13968309Y-10596962D02*
X13968309Y-10549343D01*
X13968309Y-10549343D02*
X13958785Y-10530296D01*
X13958785Y-10530296D02*
X13949261Y-10520772D01*
X13949261Y-10520772D02*
X13930213Y-10511248D01*
X13930213Y-10511248D02*
X13892118Y-10511248D01*
X13892118Y-10511248D02*
X13873071Y-10520772D01*
X13873071Y-10520772D02*
X13863547Y-10530296D01*
X13863547Y-10530296D02*
X13854023Y-10549343D01*
X14174023Y-10635058D02*
X14174023Y-10435058D01*
X14259737Y-10635058D02*
X14259737Y-10530296D01*
X14259737Y-10530296D02*
X14250213Y-10511248D01*
X14250213Y-10511248D02*
X14231166Y-10501724D01*
X14231166Y-10501724D02*
X14202594Y-10501724D01*
X14202594Y-10501724D02*
X14183547Y-10511248D01*
X14183547Y-10511248D02*
X14174023Y-10520772D01*
X14383547Y-10635058D02*
X14364499Y-10625534D01*
X14364499Y-10625534D02*
X14354975Y-10616010D01*
X14354975Y-10616010D02*
X14345452Y-10596962D01*
X14345452Y-10596962D02*
X14345452Y-10539820D01*
X14345452Y-10539820D02*
X14354975Y-10520772D01*
X14354975Y-10520772D02*
X14364499Y-10511248D01*
X14364499Y-10511248D02*
X14383547Y-10501724D01*
X14383547Y-10501724D02*
X14412118Y-10501724D01*
X14412118Y-10501724D02*
X14431166Y-10511248D01*
X14431166Y-10511248D02*
X14440690Y-10520772D01*
X14440690Y-10520772D02*
X14450213Y-10539820D01*
X14450213Y-10539820D02*
X14450213Y-10596962D01*
X14450213Y-10596962D02*
X14440690Y-10616010D01*
X14440690Y-10616010D02*
X14431166Y-10625534D01*
X14431166Y-10625534D02*
X14412118Y-10635058D01*
X14412118Y-10635058D02*
X14383547Y-10635058D01*
X14564499Y-10635058D02*
X14545452Y-10625534D01*
X14545452Y-10625534D02*
X14535928Y-10606486D01*
X14535928Y-10606486D02*
X14535928Y-10435058D01*
X14716880Y-10625534D02*
X14697833Y-10635058D01*
X14697833Y-10635058D02*
X14659737Y-10635058D01*
X14659737Y-10635058D02*
X14640690Y-10625534D01*
X14640690Y-10625534D02*
X14631166Y-10606486D01*
X14631166Y-10606486D02*
X14631166Y-10530296D01*
X14631166Y-10530296D02*
X14640690Y-10511248D01*
X14640690Y-10511248D02*
X14659737Y-10501724D01*
X14659737Y-10501724D02*
X14697833Y-10501724D01*
X14697833Y-10501724D02*
X14716880Y-10511248D01*
X14716880Y-10511248D02*
X14726404Y-10530296D01*
X14726404Y-10530296D02*
X14726404Y-10549343D01*
X14726404Y-10549343D02*
X14631166Y-10568391D01*
X14802594Y-10625534D02*
X14821642Y-10635058D01*
X14821642Y-10635058D02*
X14859737Y-10635058D01*
X14859737Y-10635058D02*
X14878785Y-10625534D01*
X14878785Y-10625534D02*
X14888309Y-10606486D01*
X14888309Y-10606486D02*
X14888309Y-10596962D01*
X14888309Y-10596962D02*
X14878785Y-10577915D01*
X14878785Y-10577915D02*
X14859737Y-10568391D01*
X14859737Y-10568391D02*
X14831166Y-10568391D01*
X14831166Y-10568391D02*
X14812118Y-10558867D01*
X14812118Y-10558867D02*
X14802594Y-10539820D01*
X14802594Y-10539820D02*
X14802594Y-10530296D01*
X14802594Y-10530296D02*
X14812118Y-10511248D01*
X14812118Y-10511248D02*
X14831166Y-10501724D01*
X14831166Y-10501724D02*
X14859737Y-10501724D01*
X14859737Y-10501724D02*
X14878785Y-10511248D01*
X14954975Y-10711248D02*
X14964499Y-10701724D01*
X14964499Y-10701724D02*
X14983547Y-10673153D01*
X14983547Y-10673153D02*
X14993071Y-10654105D01*
X14993071Y-10654105D02*
X15002594Y-10625534D01*
X15002594Y-10625534D02*
X15012118Y-10577915D01*
X15012118Y-10577915D02*
X15012118Y-10539820D01*
X15012118Y-10539820D02*
X15002594Y-10492201D01*
X15002594Y-10492201D02*
X14993071Y-10463629D01*
X14993071Y-10463629D02*
X14983547Y-10444582D01*
X14983547Y-10444582D02*
X14964499Y-10416010D01*
X14964499Y-10416010D02*
X14954975Y-10406486D01*
M02*
