%TF.GenerationSoftware,KiCad,Pcbnew,(6.99.0-2452-gdb4f2d9dd8)*%
%TF.CreationDate,2022-07-19T12:50:52+04:00*%
%TF.ProjectId,Boeing,426f6569-6e67-42e6-9b69-6361645f7063,rev?*%
%TF.SameCoordinates,Original*%
%TF.FileFunction,Drillmap*%
%TF.FilePolarity,Positive*%
%FSLAX45Y45*%
G04 Gerber Fmt 4.5, Leading zero omitted, Abs format (unit mm)*
G04 Created by KiCad (PCBNEW (6.99.0-2452-gdb4f2d9dd8)) date 2022-07-19 12:50:52*
%MOMM*%
%LPD*%
G01*
G04 APERTURE LIST*
%ADD10C,0.100000*%
%ADD11C,0.200000*%
G04 APERTURE END LIST*
D10*
X10000000Y-5000000D02*
X17500000Y-5000000D01*
X17500000Y-5000000D02*
X17500000Y-7500000D01*
X17500000Y-7500000D02*
X10000000Y-7500000D01*
X10000000Y-7500000D02*
X10000000Y-5000000D01*
X17200000Y-6250000D02*
G75*
G03*
X17200000Y-6250000I-300000J0D01*
G01*
D11*
X10242619Y-7798476D02*
X10242619Y-7598476D01*
X10242619Y-7598476D02*
X10290238Y-7598476D01*
X10290238Y-7598476D02*
X10318810Y-7608000D01*
X10318810Y-7608000D02*
X10337857Y-7627048D01*
X10337857Y-7627048D02*
X10347381Y-7646095D01*
X10347381Y-7646095D02*
X10356905Y-7684190D01*
X10356905Y-7684190D02*
X10356905Y-7712762D01*
X10356905Y-7712762D02*
X10347381Y-7750857D01*
X10347381Y-7750857D02*
X10337857Y-7769905D01*
X10337857Y-7769905D02*
X10318810Y-7788952D01*
X10318810Y-7788952D02*
X10290238Y-7798476D01*
X10290238Y-7798476D02*
X10242619Y-7798476D01*
X10442619Y-7798476D02*
X10442619Y-7665143D01*
X10442619Y-7703238D02*
X10452143Y-7684190D01*
X10452143Y-7684190D02*
X10461667Y-7674667D01*
X10461667Y-7674667D02*
X10480714Y-7665143D01*
X10480714Y-7665143D02*
X10499762Y-7665143D01*
X10566429Y-7798476D02*
X10566429Y-7665143D01*
X10566429Y-7598476D02*
X10556905Y-7608000D01*
X10556905Y-7608000D02*
X10566429Y-7617524D01*
X10566429Y-7617524D02*
X10575952Y-7608000D01*
X10575952Y-7608000D02*
X10566429Y-7598476D01*
X10566429Y-7598476D02*
X10566429Y-7617524D01*
X10690238Y-7798476D02*
X10671190Y-7788952D01*
X10671190Y-7788952D02*
X10661667Y-7769905D01*
X10661667Y-7769905D02*
X10661667Y-7598476D01*
X10795000Y-7798476D02*
X10775952Y-7788952D01*
X10775952Y-7788952D02*
X10766429Y-7769905D01*
X10766429Y-7769905D02*
X10766429Y-7598476D01*
X10991190Y-7798476D02*
X10991190Y-7598476D01*
X10991190Y-7598476D02*
X11057857Y-7741333D01*
X11057857Y-7741333D02*
X11124524Y-7598476D01*
X11124524Y-7598476D02*
X11124524Y-7798476D01*
X11305476Y-7798476D02*
X11305476Y-7693714D01*
X11305476Y-7693714D02*
X11295952Y-7674667D01*
X11295952Y-7674667D02*
X11276905Y-7665143D01*
X11276905Y-7665143D02*
X11238809Y-7665143D01*
X11238809Y-7665143D02*
X11219762Y-7674667D01*
X11305476Y-7788952D02*
X11286428Y-7798476D01*
X11286428Y-7798476D02*
X11238809Y-7798476D01*
X11238809Y-7798476D02*
X11219762Y-7788952D01*
X11219762Y-7788952D02*
X11210238Y-7769905D01*
X11210238Y-7769905D02*
X11210238Y-7750857D01*
X11210238Y-7750857D02*
X11219762Y-7731809D01*
X11219762Y-7731809D02*
X11238809Y-7722286D01*
X11238809Y-7722286D02*
X11286428Y-7722286D01*
X11286428Y-7722286D02*
X11305476Y-7712762D01*
X11400714Y-7665143D02*
X11400714Y-7865143D01*
X11400714Y-7674667D02*
X11419762Y-7665143D01*
X11419762Y-7665143D02*
X11457857Y-7665143D01*
X11457857Y-7665143D02*
X11476905Y-7674667D01*
X11476905Y-7674667D02*
X11486428Y-7684190D01*
X11486428Y-7684190D02*
X11495952Y-7703238D01*
X11495952Y-7703238D02*
X11495952Y-7760381D01*
X11495952Y-7760381D02*
X11486428Y-7779428D01*
X11486428Y-7779428D02*
X11476905Y-7788952D01*
X11476905Y-7788952D02*
X11457857Y-7798476D01*
X11457857Y-7798476D02*
X11419762Y-7798476D01*
X11419762Y-7798476D02*
X11400714Y-7788952D01*
X11581667Y-7779428D02*
X11591190Y-7788952D01*
X11591190Y-7788952D02*
X11581667Y-7798476D01*
X11581667Y-7798476D02*
X11572143Y-7788952D01*
X11572143Y-7788952D02*
X11581667Y-7779428D01*
X11581667Y-7779428D02*
X11581667Y-7798476D01*
X11581667Y-7674667D02*
X11591190Y-7684190D01*
X11591190Y-7684190D02*
X11581667Y-7693714D01*
X11581667Y-7693714D02*
X11572143Y-7684190D01*
X11572143Y-7684190D02*
X11581667Y-7674667D01*
X11581667Y-7674667D02*
X11581667Y-7693714D01*
M02*
