%TF.GenerationSoftware,KiCad,Pcbnew,(6.99.0-2452-gdb4f2d9dd8)*%
%TF.CreationDate,2022-07-19T12:50:50+04:00*%
%TF.ProjectId,Boeing,426f6569-6e67-42e6-9b69-6361645f7063,rev?*%
%TF.SameCoordinates,Original*%
%TF.FileFunction,Copper,L1,Top*%
%TF.FilePolarity,Positive*%
%FSLAX46Y46*%
G04 Gerber Fmt 4.6, Leading zero omitted, Abs format (unit mm)*
G04 Created by KiCad (PCBNEW (6.99.0-2452-gdb4f2d9dd8)) date 2022-07-19 12:50:50*
%MOMM*%
%LPD*%
G01*
G04 APERTURE LIST*
%TA.AperFunction,ComponentPad*%
%ADD10R,1.800000X1.800000*%
%TD*%
%TA.AperFunction,ComponentPad*%
%ADD11C,1.800000*%
%TD*%
%TA.AperFunction,ComponentPad*%
%ADD12R,1.700000X1.700000*%
%TD*%
%TA.AperFunction,ComponentPad*%
%ADD13O,1.700000X1.700000*%
%TD*%
G04 APERTURE END LIST*
D10*
X105799999Y-71699999D03*
D11*
X103260000Y-71700000D03*
D12*
X110574999Y-66824999D03*
D13*
X110574999Y-69364999D03*
X113114999Y-66824999D03*
X113114999Y-69364999D03*
X115654999Y-66824999D03*
X115654999Y-69364999D03*
%TA.AperFunction,NonConductor*%
G36*
X114468226Y-67500670D02*
G01*
X114490483Y-67526357D01*
X114579278Y-67662268D01*
X114582803Y-67666097D01*
X114582806Y-67666101D01*
X114647511Y-67736388D01*
X114731760Y-67827906D01*
X114909424Y-67966189D01*
X114914005Y-67968668D01*
X114942680Y-67984186D01*
X114993071Y-68034199D01*
X115008423Y-68103516D01*
X114983863Y-68170129D01*
X114942681Y-68205813D01*
X114909424Y-68223811D01*
X114905313Y-68227010D01*
X114905311Y-68227012D01*
X114750861Y-68347227D01*
X114731760Y-68362094D01*
X114728228Y-68365931D01*
X114582806Y-68523899D01*
X114582803Y-68523903D01*
X114579278Y-68527732D01*
X114576427Y-68532096D01*
X114490483Y-68663643D01*
X114436479Y-68709732D01*
X114366132Y-68719307D01*
X114301774Y-68689330D01*
X114279517Y-68663643D01*
X114193573Y-68532096D01*
X114190722Y-68527732D01*
X114187197Y-68523903D01*
X114187194Y-68523899D01*
X114041772Y-68365931D01*
X114038240Y-68362094D01*
X114019139Y-68347227D01*
X113864689Y-68227012D01*
X113864687Y-68227010D01*
X113860576Y-68223811D01*
X113827320Y-68205814D01*
X113776929Y-68155801D01*
X113761577Y-68086484D01*
X113786137Y-68019871D01*
X113827320Y-67984186D01*
X113855995Y-67968668D01*
X113860576Y-67966189D01*
X114038240Y-67827906D01*
X114122489Y-67736388D01*
X114187194Y-67666101D01*
X114187197Y-67666097D01*
X114190722Y-67662268D01*
X114279517Y-67526357D01*
X114333521Y-67480268D01*
X114403868Y-67470693D01*
X114468226Y-67500670D01*
G37*
%TD.AperFunction*%
%TA.AperFunction,NonConductor*%
G36*
X112098439Y-67736388D02*
G01*
X112130755Y-67761638D01*
X112151526Y-67784201D01*
X112191760Y-67827906D01*
X112369424Y-67966189D01*
X112374005Y-67968668D01*
X112402680Y-67984186D01*
X112453071Y-68034199D01*
X112468423Y-68103516D01*
X112443863Y-68170129D01*
X112402681Y-68205813D01*
X112369424Y-68223811D01*
X112365313Y-68227010D01*
X112365311Y-68227012D01*
X112210861Y-68347227D01*
X112191760Y-68362094D01*
X112188228Y-68365931D01*
X112042806Y-68523899D01*
X112042803Y-68523903D01*
X112039278Y-68527732D01*
X112036427Y-68532096D01*
X111950483Y-68663643D01*
X111896479Y-68709732D01*
X111826132Y-68719307D01*
X111761774Y-68689330D01*
X111739517Y-68663643D01*
X111653573Y-68532096D01*
X111650722Y-68527732D01*
X111647197Y-68523903D01*
X111647194Y-68523899D01*
X111507525Y-68372180D01*
X111476104Y-68308515D01*
X111484091Y-68237969D01*
X111528949Y-68182940D01*
X111556191Y-68168787D01*
X111671204Y-68125889D01*
X111683536Y-68116658D01*
X111781050Y-68043659D01*
X111788261Y-68038261D01*
X111875889Y-67921204D01*
X111919998Y-67802944D01*
X111962545Y-67746108D01*
X112029065Y-67721297D01*
X112098439Y-67736388D01*
G37*
%TD.AperFunction*%
%TA.AperFunction,NonConductor*%
G36*
X174941621Y-50020502D02*
G01*
X174988114Y-50074158D01*
X174999500Y-50126500D01*
X174999500Y-74873500D01*
X174979498Y-74941621D01*
X174925842Y-74988114D01*
X174873500Y-74999500D01*
X100126500Y-74999500D01*
X100058379Y-74979498D01*
X100011886Y-74925842D01*
X100000500Y-74873500D01*
X100000500Y-71700000D01*
X101846673Y-71700000D01*
X101865949Y-71932626D01*
X101923251Y-72158907D01*
X102017016Y-72372669D01*
X102144686Y-72568083D01*
X102148211Y-72571912D01*
X102148214Y-72571916D01*
X102215741Y-72645269D01*
X102302780Y-72739818D01*
X102306891Y-72743018D01*
X102306898Y-72743024D01*
X102448732Y-72853418D01*
X102486983Y-72883190D01*
X102491564Y-72885669D01*
X102634942Y-72963261D01*
X102692273Y-72994287D01*
X102913049Y-73070080D01*
X102918183Y-73070937D01*
X102918188Y-73070938D01*
X103138151Y-73107643D01*
X103138154Y-73107643D01*
X103143288Y-73108500D01*
X103376712Y-73108500D01*
X103381846Y-73107643D01*
X103381849Y-73107643D01*
X103601812Y-73070938D01*
X103601817Y-73070937D01*
X103606951Y-73070080D01*
X103827727Y-72994287D01*
X103885059Y-72963261D01*
X104028436Y-72885669D01*
X104033017Y-72883190D01*
X104217220Y-72739818D01*
X104220747Y-72735986D01*
X104222248Y-72734605D01*
X104285914Y-72703185D01*
X104356459Y-72711174D01*
X104411487Y-72756034D01*
X104425638Y-72783274D01*
X104445961Y-72837759D01*
X104449111Y-72846204D01*
X104536739Y-72963261D01*
X104653796Y-73050889D01*
X104790799Y-73101989D01*
X104827705Y-73105957D01*
X104848012Y-73108140D01*
X104848015Y-73108140D01*
X104851362Y-73108500D01*
X106748638Y-73108500D01*
X106751985Y-73108140D01*
X106751988Y-73108140D01*
X106772295Y-73105957D01*
X106809201Y-73101989D01*
X106946204Y-73050889D01*
X107063261Y-72963261D01*
X107150889Y-72846204D01*
X107201989Y-72709201D01*
X107208500Y-72648638D01*
X107208500Y-70751362D01*
X107201989Y-70690799D01*
X107150889Y-70553796D01*
X107063261Y-70436739D01*
X106971311Y-70367906D01*
X106953418Y-70354511D01*
X106953416Y-70354510D01*
X106946204Y-70349111D01*
X106809201Y-70298011D01*
X106772295Y-70294043D01*
X106751988Y-70291860D01*
X106751985Y-70291860D01*
X106748638Y-70291500D01*
X104851362Y-70291500D01*
X104848015Y-70291860D01*
X104848012Y-70291860D01*
X104827705Y-70294043D01*
X104790799Y-70298011D01*
X104653796Y-70349111D01*
X104646584Y-70354510D01*
X104646582Y-70354511D01*
X104628689Y-70367906D01*
X104536739Y-70436739D01*
X104449111Y-70553796D01*
X104445963Y-70562237D01*
X104445961Y-70562241D01*
X104425638Y-70616726D01*
X104383091Y-70673561D01*
X104316571Y-70698371D01*
X104247197Y-70683279D01*
X104222248Y-70665395D01*
X104220747Y-70664014D01*
X104217220Y-70660182D01*
X104033017Y-70516810D01*
X103898383Y-70443950D01*
X103832312Y-70408194D01*
X103832309Y-70408193D01*
X103827727Y-70405713D01*
X103606951Y-70329920D01*
X103601817Y-70329063D01*
X103601812Y-70329062D01*
X103381849Y-70292357D01*
X103381846Y-70292357D01*
X103376712Y-70291500D01*
X103143288Y-70291500D01*
X103138154Y-70292357D01*
X103138151Y-70292357D01*
X102918188Y-70329062D01*
X102918183Y-70329063D01*
X102913049Y-70329920D01*
X102692273Y-70405713D01*
X102687691Y-70408193D01*
X102687688Y-70408194D01*
X102621617Y-70443950D01*
X102486983Y-70516810D01*
X102482872Y-70520009D01*
X102482870Y-70520011D01*
X102306898Y-70656976D01*
X102306892Y-70656981D01*
X102302780Y-70660182D01*
X102299248Y-70664019D01*
X102148214Y-70828084D01*
X102148211Y-70828088D01*
X102144686Y-70831917D01*
X102017016Y-71027331D01*
X101923251Y-71241093D01*
X101865949Y-71467374D01*
X101846673Y-71700000D01*
X100000500Y-71700000D01*
X100000500Y-69365000D01*
X109211844Y-69365000D01*
X109230436Y-69589368D01*
X109285704Y-69807616D01*
X109376140Y-70013791D01*
X109378990Y-70018153D01*
X109378992Y-70018157D01*
X109393701Y-70040670D01*
X109499278Y-70202268D01*
X109502803Y-70206097D01*
X109502806Y-70206101D01*
X109586641Y-70297169D01*
X109651760Y-70367906D01*
X109655879Y-70371112D01*
X109740196Y-70436739D01*
X109829424Y-70506189D01*
X110027426Y-70613342D01*
X110240365Y-70686444D01*
X110245499Y-70687301D01*
X110245504Y-70687302D01*
X110457294Y-70722643D01*
X110457296Y-70722643D01*
X110462431Y-70723500D01*
X110687569Y-70723500D01*
X110692704Y-70722643D01*
X110692706Y-70722643D01*
X110904496Y-70687302D01*
X110904501Y-70687301D01*
X110909635Y-70686444D01*
X111122574Y-70613342D01*
X111320576Y-70506189D01*
X111409805Y-70436739D01*
X111494121Y-70371112D01*
X111498240Y-70367906D01*
X111563359Y-70297169D01*
X111647194Y-70206101D01*
X111647197Y-70206097D01*
X111650722Y-70202268D01*
X111739517Y-70066357D01*
X111793521Y-70020268D01*
X111863868Y-70010693D01*
X111928226Y-70040670D01*
X111950483Y-70066357D01*
X112039278Y-70202268D01*
X112042803Y-70206097D01*
X112042806Y-70206101D01*
X112126641Y-70297169D01*
X112191760Y-70367906D01*
X112195879Y-70371112D01*
X112280196Y-70436739D01*
X112369424Y-70506189D01*
X112567426Y-70613342D01*
X112780365Y-70686444D01*
X112785499Y-70687301D01*
X112785504Y-70687302D01*
X112997294Y-70722643D01*
X112997296Y-70722643D01*
X113002431Y-70723500D01*
X113227569Y-70723500D01*
X113232704Y-70722643D01*
X113232706Y-70722643D01*
X113444496Y-70687302D01*
X113444501Y-70687301D01*
X113449635Y-70686444D01*
X113662574Y-70613342D01*
X113860576Y-70506189D01*
X113949805Y-70436739D01*
X114034121Y-70371112D01*
X114038240Y-70367906D01*
X114103359Y-70297169D01*
X114187194Y-70206101D01*
X114187197Y-70206097D01*
X114190722Y-70202268D01*
X114279517Y-70066357D01*
X114333521Y-70020268D01*
X114403868Y-70010693D01*
X114468226Y-70040670D01*
X114490483Y-70066357D01*
X114579278Y-70202268D01*
X114582803Y-70206097D01*
X114582806Y-70206101D01*
X114666641Y-70297169D01*
X114731760Y-70367906D01*
X114735879Y-70371112D01*
X114820196Y-70436739D01*
X114909424Y-70506189D01*
X115107426Y-70613342D01*
X115320365Y-70686444D01*
X115325499Y-70687301D01*
X115325504Y-70687302D01*
X115537294Y-70722643D01*
X115537296Y-70722643D01*
X115542431Y-70723500D01*
X115767569Y-70723500D01*
X115772704Y-70722643D01*
X115772706Y-70722643D01*
X115984496Y-70687302D01*
X115984501Y-70687301D01*
X115989635Y-70686444D01*
X116202574Y-70613342D01*
X116400576Y-70506189D01*
X116489805Y-70436739D01*
X116574121Y-70371112D01*
X116578240Y-70367906D01*
X116643359Y-70297169D01*
X116727194Y-70206101D01*
X116727197Y-70206097D01*
X116730722Y-70202268D01*
X116836299Y-70040670D01*
X116851008Y-70018157D01*
X116851010Y-70018153D01*
X116853860Y-70013791D01*
X116944296Y-69807616D01*
X116999564Y-69589368D01*
X117018156Y-69365000D01*
X116999564Y-69140632D01*
X116944296Y-68922384D01*
X116853860Y-68716209D01*
X116849629Y-68709732D01*
X116733573Y-68532096D01*
X116730722Y-68527732D01*
X116727197Y-68523903D01*
X116727194Y-68523899D01*
X116581772Y-68365931D01*
X116578240Y-68362094D01*
X116559139Y-68347227D01*
X116404689Y-68227012D01*
X116404687Y-68227010D01*
X116400576Y-68223811D01*
X116367320Y-68205814D01*
X116316929Y-68155801D01*
X116301577Y-68086484D01*
X116326137Y-68019871D01*
X116367320Y-67984186D01*
X116395995Y-67968668D01*
X116400576Y-67966189D01*
X116578240Y-67827906D01*
X116662489Y-67736388D01*
X116727194Y-67666101D01*
X116727197Y-67666097D01*
X116730722Y-67662268D01*
X116836299Y-67500670D01*
X116851008Y-67478157D01*
X116851010Y-67478153D01*
X116853860Y-67473791D01*
X116944296Y-67267616D01*
X116999564Y-67049368D01*
X117018156Y-66825000D01*
X116999564Y-66600632D01*
X116944296Y-66382384D01*
X116853860Y-66176209D01*
X116849629Y-66169732D01*
X116733573Y-65992096D01*
X116730722Y-65987732D01*
X116727197Y-65983903D01*
X116727194Y-65983899D01*
X116581772Y-65825931D01*
X116578240Y-65822094D01*
X116400576Y-65683811D01*
X116202574Y-65576658D01*
X115989635Y-65503556D01*
X115984501Y-65502699D01*
X115984496Y-65502698D01*
X115772706Y-65467357D01*
X115772704Y-65467357D01*
X115767569Y-65466500D01*
X115542431Y-65466500D01*
X115537296Y-65467357D01*
X115537294Y-65467357D01*
X115325504Y-65502698D01*
X115325499Y-65502699D01*
X115320365Y-65503556D01*
X115107426Y-65576658D01*
X114909424Y-65683811D01*
X114731760Y-65822094D01*
X114728228Y-65825931D01*
X114582806Y-65983899D01*
X114582803Y-65983903D01*
X114579278Y-65987732D01*
X114576427Y-65992096D01*
X114490483Y-66123643D01*
X114436479Y-66169732D01*
X114366132Y-66179307D01*
X114301774Y-66149330D01*
X114279517Y-66123643D01*
X114193573Y-65992096D01*
X114190722Y-65987732D01*
X114187197Y-65983903D01*
X114187194Y-65983899D01*
X114041772Y-65825931D01*
X114038240Y-65822094D01*
X113860576Y-65683811D01*
X113662574Y-65576658D01*
X113449635Y-65503556D01*
X113444501Y-65502699D01*
X113444496Y-65502698D01*
X113232706Y-65467357D01*
X113232704Y-65467357D01*
X113227569Y-65466500D01*
X113002431Y-65466500D01*
X112997296Y-65467357D01*
X112997294Y-65467357D01*
X112785504Y-65502698D01*
X112785499Y-65502699D01*
X112780365Y-65503556D01*
X112567426Y-65576658D01*
X112369424Y-65683811D01*
X112191760Y-65822094D01*
X112188228Y-65825931D01*
X112130755Y-65888362D01*
X112069901Y-65924933D01*
X111998937Y-65922798D01*
X111940392Y-65882636D01*
X111919998Y-65847056D01*
X111879038Y-65737239D01*
X111879037Y-65737237D01*
X111875889Y-65728796D01*
X111788261Y-65611739D01*
X111671204Y-65524111D01*
X111534201Y-65473011D01*
X111497295Y-65469043D01*
X111476988Y-65466860D01*
X111476985Y-65466860D01*
X111473638Y-65466500D01*
X109676362Y-65466500D01*
X109673015Y-65466860D01*
X109673012Y-65466860D01*
X109652705Y-65469043D01*
X109615799Y-65473011D01*
X109478796Y-65524111D01*
X109361739Y-65611739D01*
X109274111Y-65728796D01*
X109223011Y-65865799D01*
X109216500Y-65926362D01*
X109216500Y-67723638D01*
X109223011Y-67784201D01*
X109274111Y-67921204D01*
X109361739Y-68038261D01*
X109368950Y-68043659D01*
X109466465Y-68116658D01*
X109478796Y-68125889D01*
X109593808Y-68168787D01*
X109650642Y-68211333D01*
X109675453Y-68277853D01*
X109660361Y-68347227D01*
X109642475Y-68372180D01*
X109502806Y-68523899D01*
X109502803Y-68523903D01*
X109499278Y-68527732D01*
X109496427Y-68532096D01*
X109380372Y-68709732D01*
X109376140Y-68716209D01*
X109285704Y-68922384D01*
X109230436Y-69140632D01*
X109211844Y-69365000D01*
X100000500Y-69365000D01*
X100000500Y-62500000D01*
X165994415Y-62500000D01*
X166014738Y-62848927D01*
X166075431Y-63193136D01*
X166175674Y-63527971D01*
X166314111Y-63848904D01*
X166488870Y-64151596D01*
X166491055Y-64154531D01*
X166694676Y-64428041D01*
X166697588Y-64431953D01*
X166937442Y-64686183D01*
X167205189Y-64910849D01*
X167497207Y-65102913D01*
X167500471Y-65104552D01*
X167806279Y-65258135D01*
X167806283Y-65258137D01*
X167809549Y-65259777D01*
X167812992Y-65261030D01*
X167812994Y-65261031D01*
X168134543Y-65378065D01*
X168134547Y-65378066D01*
X168137989Y-65379319D01*
X168478086Y-65459923D01*
X168825241Y-65500500D01*
X169174759Y-65500500D01*
X169521914Y-65459923D01*
X169862011Y-65379319D01*
X169865453Y-65378066D01*
X169865457Y-65378065D01*
X170187006Y-65261031D01*
X170187008Y-65261030D01*
X170190451Y-65259777D01*
X170193717Y-65258137D01*
X170193721Y-65258135D01*
X170499529Y-65104552D01*
X170502793Y-65102913D01*
X170794811Y-64910849D01*
X171062558Y-64686183D01*
X171302412Y-64431953D01*
X171305325Y-64428041D01*
X171508945Y-64154531D01*
X171511130Y-64151596D01*
X171685889Y-63848904D01*
X171824326Y-63527971D01*
X171924569Y-63193136D01*
X171985262Y-62848927D01*
X172005585Y-62500000D01*
X171985262Y-62151073D01*
X171924569Y-61806864D01*
X171824326Y-61472029D01*
X171685889Y-61151096D01*
X171511130Y-60848404D01*
X171508945Y-60845469D01*
X171304598Y-60570983D01*
X171304596Y-60570981D01*
X171302412Y-60568047D01*
X171062558Y-60313817D01*
X170794811Y-60089151D01*
X170502793Y-59897087D01*
X170201578Y-59745811D01*
X170193721Y-59741865D01*
X170193717Y-59741863D01*
X170190451Y-59740223D01*
X170187006Y-59738969D01*
X169865457Y-59621935D01*
X169865453Y-59621934D01*
X169862011Y-59620681D01*
X169521914Y-59540077D01*
X169174759Y-59499500D01*
X168825241Y-59499500D01*
X168478086Y-59540077D01*
X168137989Y-59620681D01*
X168134547Y-59621934D01*
X168134543Y-59621935D01*
X167812994Y-59738969D01*
X167809549Y-59740223D01*
X167806283Y-59741863D01*
X167806279Y-59741865D01*
X167798422Y-59745811D01*
X167497207Y-59897087D01*
X167205189Y-60089151D01*
X166937442Y-60313817D01*
X166697588Y-60568047D01*
X166695404Y-60570981D01*
X166695402Y-60570983D01*
X166491055Y-60845469D01*
X166488870Y-60848404D01*
X166314111Y-61151096D01*
X166175674Y-61472029D01*
X166075431Y-61806864D01*
X166014738Y-62151073D01*
X165994415Y-62500000D01*
X100000500Y-62500000D01*
X100000500Y-50126500D01*
X100020502Y-50058379D01*
X100074158Y-50011886D01*
X100126500Y-50000500D01*
X174873500Y-50000500D01*
X174941621Y-50020502D01*
G37*
%TD.AperFunction*%
M02*
