G04 #@! TF.GenerationSoftware,KiCad,Pcbnew,(6.99.0-2452-gdb4f2d9dd8)*
G04 #@! TF.CreationDate,2022-07-21T13:31:45-08:00*
G04 #@! TF.ProjectId,Boeing,426f6569-6e67-42e6-9b69-6361645f7063,rev?*
G04 #@! TF.SameCoordinates,Original*
G04 #@! TF.FileFunction,Copper,L1,Top*
G04 #@! TF.FilePolarity,Positive*
%FSLAX46Y46*%
G04 Gerber Fmt 4.6, Leading zero omitted, Abs format (unit mm)*
G04 Created by KiCad (PCBNEW (6.99.0-2452-gdb4f2d9dd8)) date 2022-07-21 13:31:45*
%MOMM*%
%LPD*%
G01*
G04 APERTURE LIST*
G04 #@! TA.AperFunction,ComponentPad*
%ADD10R,1.800000X1.800000*%
G04 #@! TD*
G04 #@! TA.AperFunction,ComponentPad*
%ADD11C,1.800000*%
G04 #@! TD*
G04 #@! TA.AperFunction,ComponentPad*
%ADD12O,1.700000X1.700000*%
G04 #@! TD*
G04 #@! TA.AperFunction,ComponentPad*
%ADD13R,1.700000X1.700000*%
G04 #@! TD*
G04 APERTURE END LIST*
D10*
X108899999Y-62599999D03*
D11*
X106360000Y-62600000D03*
D12*
X108239999Y-71869999D03*
X108239999Y-69329999D03*
X105699999Y-71869999D03*
X105699999Y-69329999D03*
X103159999Y-71869999D03*
D13*
X103159999Y-69329999D03*
G04 #@! TA.AperFunction,NonConductor*
G36*
X104683439Y-70241388D02*
G01*
X104715755Y-70266638D01*
X104736526Y-70289201D01*
X104776760Y-70332906D01*
X104954424Y-70471189D01*
X104959005Y-70473668D01*
X104987680Y-70489186D01*
X105038071Y-70539199D01*
X105053423Y-70608516D01*
X105028863Y-70675129D01*
X104987681Y-70710813D01*
X104954424Y-70728811D01*
X104950313Y-70732010D01*
X104950311Y-70732012D01*
X104795861Y-70852227D01*
X104776760Y-70867094D01*
X104773228Y-70870931D01*
X104627806Y-71028899D01*
X104627803Y-71028903D01*
X104624278Y-71032732D01*
X104621427Y-71037096D01*
X104535483Y-71168643D01*
X104481479Y-71214732D01*
X104411132Y-71224307D01*
X104346774Y-71194330D01*
X104324517Y-71168643D01*
X104238573Y-71037096D01*
X104235722Y-71032732D01*
X104232197Y-71028903D01*
X104232194Y-71028899D01*
X104092525Y-70877180D01*
X104061104Y-70813515D01*
X104069091Y-70742969D01*
X104113949Y-70687940D01*
X104141191Y-70673787D01*
X104256204Y-70630889D01*
X104268536Y-70621658D01*
X104366050Y-70548659D01*
X104373261Y-70543261D01*
X104460889Y-70426204D01*
X104504998Y-70307944D01*
X104547545Y-70251108D01*
X104614065Y-70226297D01*
X104683439Y-70241388D01*
G37*
G04 #@! TD.AperFunction*
G04 #@! TA.AperFunction,NonConductor*
G36*
X107053226Y-70005670D02*
G01*
X107075483Y-70031357D01*
X107164278Y-70167268D01*
X107167803Y-70171097D01*
X107167806Y-70171101D01*
X107232511Y-70241388D01*
X107316760Y-70332906D01*
X107494424Y-70471189D01*
X107499005Y-70473668D01*
X107527680Y-70489186D01*
X107578071Y-70539199D01*
X107593423Y-70608516D01*
X107568863Y-70675129D01*
X107527681Y-70710813D01*
X107494424Y-70728811D01*
X107490313Y-70732010D01*
X107490311Y-70732012D01*
X107335861Y-70852227D01*
X107316760Y-70867094D01*
X107313228Y-70870931D01*
X107167806Y-71028899D01*
X107167803Y-71028903D01*
X107164278Y-71032732D01*
X107161427Y-71037096D01*
X107075483Y-71168643D01*
X107021479Y-71214732D01*
X106951132Y-71224307D01*
X106886774Y-71194330D01*
X106864517Y-71168643D01*
X106778573Y-71037096D01*
X106775722Y-71032732D01*
X106772197Y-71028903D01*
X106772194Y-71028899D01*
X106626772Y-70870931D01*
X106623240Y-70867094D01*
X106604139Y-70852227D01*
X106449689Y-70732012D01*
X106449687Y-70732010D01*
X106445576Y-70728811D01*
X106412320Y-70710814D01*
X106361929Y-70660801D01*
X106346577Y-70591484D01*
X106371137Y-70524871D01*
X106412320Y-70489186D01*
X106440995Y-70473668D01*
X106445576Y-70471189D01*
X106623240Y-70332906D01*
X106707489Y-70241388D01*
X106772194Y-70171101D01*
X106772197Y-70171097D01*
X106775722Y-70167268D01*
X106864517Y-70031357D01*
X106918521Y-69985268D01*
X106988868Y-69975693D01*
X107053226Y-70005670D01*
G37*
G04 #@! TD.AperFunction*
G04 #@! TA.AperFunction,NonConductor*
G36*
X174941621Y-50020502D02*
G01*
X174988114Y-50074158D01*
X174999500Y-50126500D01*
X174999500Y-74873500D01*
X174979498Y-74941621D01*
X174925842Y-74988114D01*
X174873500Y-74999500D01*
X100126500Y-74999500D01*
X100058379Y-74979498D01*
X100011886Y-74925842D01*
X100000500Y-74873500D01*
X100000500Y-71870000D01*
X101796844Y-71870000D01*
X101815436Y-72094368D01*
X101870704Y-72312616D01*
X101961140Y-72518791D01*
X101963990Y-72523153D01*
X101963992Y-72523157D01*
X101978701Y-72545670D01*
X102084278Y-72707268D01*
X102087803Y-72711097D01*
X102087806Y-72711101D01*
X102189360Y-72821417D01*
X102236760Y-72872906D01*
X102414424Y-73011189D01*
X102612426Y-73118342D01*
X102825365Y-73191444D01*
X102830499Y-73192301D01*
X102830504Y-73192302D01*
X103042294Y-73227643D01*
X103042296Y-73227643D01*
X103047431Y-73228500D01*
X103272569Y-73228500D01*
X103277704Y-73227643D01*
X103277706Y-73227643D01*
X103489496Y-73192302D01*
X103489501Y-73192301D01*
X103494635Y-73191444D01*
X103707574Y-73118342D01*
X103905576Y-73011189D01*
X104083240Y-72872906D01*
X104130640Y-72821417D01*
X104232194Y-72711101D01*
X104232197Y-72711097D01*
X104235722Y-72707268D01*
X104324517Y-72571357D01*
X104378521Y-72525268D01*
X104448868Y-72515693D01*
X104513226Y-72545670D01*
X104535483Y-72571357D01*
X104624278Y-72707268D01*
X104627803Y-72711097D01*
X104627806Y-72711101D01*
X104729360Y-72821417D01*
X104776760Y-72872906D01*
X104954424Y-73011189D01*
X105152426Y-73118342D01*
X105365365Y-73191444D01*
X105370499Y-73192301D01*
X105370504Y-73192302D01*
X105582294Y-73227643D01*
X105582296Y-73227643D01*
X105587431Y-73228500D01*
X105812569Y-73228500D01*
X105817704Y-73227643D01*
X105817706Y-73227643D01*
X106029496Y-73192302D01*
X106029501Y-73192301D01*
X106034635Y-73191444D01*
X106247574Y-73118342D01*
X106445576Y-73011189D01*
X106623240Y-72872906D01*
X106670640Y-72821417D01*
X106772194Y-72711101D01*
X106772197Y-72711097D01*
X106775722Y-72707268D01*
X106864517Y-72571357D01*
X106918521Y-72525268D01*
X106988868Y-72515693D01*
X107053226Y-72545670D01*
X107075483Y-72571357D01*
X107164278Y-72707268D01*
X107167803Y-72711097D01*
X107167806Y-72711101D01*
X107269360Y-72821417D01*
X107316760Y-72872906D01*
X107494424Y-73011189D01*
X107692426Y-73118342D01*
X107905365Y-73191444D01*
X107910499Y-73192301D01*
X107910504Y-73192302D01*
X108122294Y-73227643D01*
X108122296Y-73227643D01*
X108127431Y-73228500D01*
X108352569Y-73228500D01*
X108357704Y-73227643D01*
X108357706Y-73227643D01*
X108569496Y-73192302D01*
X108569501Y-73192301D01*
X108574635Y-73191444D01*
X108787574Y-73118342D01*
X108985576Y-73011189D01*
X109163240Y-72872906D01*
X109210640Y-72821417D01*
X109312194Y-72711101D01*
X109312197Y-72711097D01*
X109315722Y-72707268D01*
X109421299Y-72545670D01*
X109436008Y-72523157D01*
X109436010Y-72523153D01*
X109438860Y-72518791D01*
X109529296Y-72312616D01*
X109584564Y-72094368D01*
X109603156Y-71870000D01*
X109584564Y-71645632D01*
X109529296Y-71427384D01*
X109438860Y-71221209D01*
X109434629Y-71214732D01*
X109318573Y-71037096D01*
X109315722Y-71032732D01*
X109312197Y-71028903D01*
X109312194Y-71028899D01*
X109166772Y-70870931D01*
X109163240Y-70867094D01*
X109144139Y-70852227D01*
X108989689Y-70732012D01*
X108989687Y-70732010D01*
X108985576Y-70728811D01*
X108952320Y-70710814D01*
X108901929Y-70660801D01*
X108886577Y-70591484D01*
X108911137Y-70524871D01*
X108952320Y-70489186D01*
X108980995Y-70473668D01*
X108985576Y-70471189D01*
X109163240Y-70332906D01*
X109247489Y-70241388D01*
X109312194Y-70171101D01*
X109312197Y-70171097D01*
X109315722Y-70167268D01*
X109421299Y-70005670D01*
X109436008Y-69983157D01*
X109436010Y-69983153D01*
X109438860Y-69978791D01*
X109529296Y-69772616D01*
X109584564Y-69554368D01*
X109603156Y-69330000D01*
X109584564Y-69105632D01*
X109529296Y-68887384D01*
X109438860Y-68681209D01*
X109434629Y-68674732D01*
X109318573Y-68497096D01*
X109315722Y-68492732D01*
X109312197Y-68488903D01*
X109312194Y-68488899D01*
X109166772Y-68330931D01*
X109163240Y-68327094D01*
X108985576Y-68188811D01*
X108787574Y-68081658D01*
X108574635Y-68008556D01*
X108569501Y-68007699D01*
X108569496Y-68007698D01*
X108357706Y-67972357D01*
X108357704Y-67972357D01*
X108352569Y-67971500D01*
X108127431Y-67971500D01*
X108122296Y-67972357D01*
X108122294Y-67972357D01*
X107910504Y-68007698D01*
X107910499Y-68007699D01*
X107905365Y-68008556D01*
X107692426Y-68081658D01*
X107494424Y-68188811D01*
X107316760Y-68327094D01*
X107313228Y-68330931D01*
X107167806Y-68488899D01*
X107167803Y-68488903D01*
X107164278Y-68492732D01*
X107161427Y-68497096D01*
X107075483Y-68628643D01*
X107021479Y-68674732D01*
X106951132Y-68684307D01*
X106886774Y-68654330D01*
X106864517Y-68628643D01*
X106778573Y-68497096D01*
X106775722Y-68492732D01*
X106772197Y-68488903D01*
X106772194Y-68488899D01*
X106626772Y-68330931D01*
X106623240Y-68327094D01*
X106445576Y-68188811D01*
X106247574Y-68081658D01*
X106034635Y-68008556D01*
X106029501Y-68007699D01*
X106029496Y-68007698D01*
X105817706Y-67972357D01*
X105817704Y-67972357D01*
X105812569Y-67971500D01*
X105587431Y-67971500D01*
X105582296Y-67972357D01*
X105582294Y-67972357D01*
X105370504Y-68007698D01*
X105370499Y-68007699D01*
X105365365Y-68008556D01*
X105152426Y-68081658D01*
X104954424Y-68188811D01*
X104776760Y-68327094D01*
X104773228Y-68330931D01*
X104715755Y-68393362D01*
X104654901Y-68429933D01*
X104583937Y-68427798D01*
X104525392Y-68387636D01*
X104504998Y-68352056D01*
X104464038Y-68242239D01*
X104464037Y-68242237D01*
X104460889Y-68233796D01*
X104373261Y-68116739D01*
X104256204Y-68029111D01*
X104119201Y-67978011D01*
X104082295Y-67974043D01*
X104061988Y-67971860D01*
X104061985Y-67971860D01*
X104058638Y-67971500D01*
X102261362Y-67971500D01*
X102258015Y-67971860D01*
X102258012Y-67971860D01*
X102237705Y-67974043D01*
X102200799Y-67978011D01*
X102063796Y-68029111D01*
X101946739Y-68116739D01*
X101859111Y-68233796D01*
X101808011Y-68370799D01*
X101801500Y-68431362D01*
X101801500Y-70228638D01*
X101808011Y-70289201D01*
X101859111Y-70426204D01*
X101946739Y-70543261D01*
X101953950Y-70548659D01*
X102051465Y-70621658D01*
X102063796Y-70630889D01*
X102178808Y-70673787D01*
X102235642Y-70716333D01*
X102260453Y-70782853D01*
X102245361Y-70852227D01*
X102227475Y-70877180D01*
X102087806Y-71028899D01*
X102087803Y-71028903D01*
X102084278Y-71032732D01*
X102081427Y-71037096D01*
X101965372Y-71214732D01*
X101961140Y-71221209D01*
X101870704Y-71427384D01*
X101815436Y-71645632D01*
X101796844Y-71870000D01*
X100000500Y-71870000D01*
X100000500Y-62600000D01*
X104946673Y-62600000D01*
X104965949Y-62832626D01*
X105023251Y-63058907D01*
X105117016Y-63272669D01*
X105244686Y-63468083D01*
X105248211Y-63471912D01*
X105248214Y-63471916D01*
X105315741Y-63545269D01*
X105402780Y-63639818D01*
X105406891Y-63643018D01*
X105406898Y-63643024D01*
X105548732Y-63753418D01*
X105586983Y-63783190D01*
X105591564Y-63785669D01*
X105734942Y-63863261D01*
X105792273Y-63894287D01*
X106013049Y-63970080D01*
X106018183Y-63970937D01*
X106018188Y-63970938D01*
X106238151Y-64007643D01*
X106238154Y-64007643D01*
X106243288Y-64008500D01*
X106476712Y-64008500D01*
X106481846Y-64007643D01*
X106481849Y-64007643D01*
X106701812Y-63970938D01*
X106701817Y-63970937D01*
X106706951Y-63970080D01*
X106927727Y-63894287D01*
X106985059Y-63863261D01*
X107128436Y-63785669D01*
X107133017Y-63783190D01*
X107317220Y-63639818D01*
X107320747Y-63635986D01*
X107322248Y-63634605D01*
X107385914Y-63603185D01*
X107456459Y-63611174D01*
X107511487Y-63656034D01*
X107525638Y-63683274D01*
X107545961Y-63737759D01*
X107549111Y-63746204D01*
X107636739Y-63863261D01*
X107753796Y-63950889D01*
X107890799Y-64001989D01*
X107927705Y-64005957D01*
X107948012Y-64008140D01*
X107948015Y-64008140D01*
X107951362Y-64008500D01*
X109848638Y-64008500D01*
X109851985Y-64008140D01*
X109851988Y-64008140D01*
X109872295Y-64005957D01*
X109909201Y-64001989D01*
X110046204Y-63950889D01*
X110163261Y-63863261D01*
X110250889Y-63746204D01*
X110301989Y-63609201D01*
X110308500Y-63548638D01*
X110308500Y-62500000D01*
X165994415Y-62500000D01*
X165994628Y-62503657D01*
X166013789Y-62832626D01*
X166014738Y-62848927D01*
X166075431Y-63193136D01*
X166076482Y-63196646D01*
X166076483Y-63196651D01*
X166156438Y-63463719D01*
X166175674Y-63527971D01*
X166314111Y-63848904D01*
X166315943Y-63852078D01*
X166315945Y-63852081D01*
X166486939Y-64148252D01*
X166488870Y-64151596D01*
X166491055Y-64154531D01*
X166694676Y-64428041D01*
X166697588Y-64431953D01*
X166937442Y-64686183D01*
X167205189Y-64910849D01*
X167497207Y-65102913D01*
X167500471Y-65104552D01*
X167806279Y-65258135D01*
X167806283Y-65258137D01*
X167809549Y-65259777D01*
X167812992Y-65261030D01*
X167812994Y-65261031D01*
X168134543Y-65378065D01*
X168134547Y-65378066D01*
X168137989Y-65379319D01*
X168478086Y-65459923D01*
X168825241Y-65500500D01*
X169174759Y-65500500D01*
X169521914Y-65459923D01*
X169862011Y-65379319D01*
X169865453Y-65378066D01*
X169865457Y-65378065D01*
X170187006Y-65261031D01*
X170187008Y-65261030D01*
X170190451Y-65259777D01*
X170193717Y-65258137D01*
X170193721Y-65258135D01*
X170499529Y-65104552D01*
X170502793Y-65102913D01*
X170794811Y-64910849D01*
X171062558Y-64686183D01*
X171302412Y-64431953D01*
X171305325Y-64428041D01*
X171508945Y-64154531D01*
X171511130Y-64151596D01*
X171513061Y-64148252D01*
X171684055Y-63852081D01*
X171684057Y-63852078D01*
X171685889Y-63848904D01*
X171824326Y-63527971D01*
X171843562Y-63463719D01*
X171923517Y-63196651D01*
X171923518Y-63196646D01*
X171924569Y-63193136D01*
X171985262Y-62848927D01*
X171986212Y-62832626D01*
X172005372Y-62503657D01*
X172005585Y-62500000D01*
X171985262Y-62151073D01*
X171924569Y-61806864D01*
X171909549Y-61756692D01*
X171825377Y-61475539D01*
X171825376Y-61475536D01*
X171824326Y-61472029D01*
X171685889Y-61151096D01*
X171511130Y-60848404D01*
X171508945Y-60845469D01*
X171304598Y-60570983D01*
X171304596Y-60570981D01*
X171302412Y-60568047D01*
X171062558Y-60313817D01*
X170794811Y-60089151D01*
X170502793Y-59897087D01*
X170201578Y-59745811D01*
X170193721Y-59741865D01*
X170193717Y-59741863D01*
X170190451Y-59740223D01*
X170187006Y-59738969D01*
X169865457Y-59621935D01*
X169865453Y-59621934D01*
X169862011Y-59620681D01*
X169521914Y-59540077D01*
X169174759Y-59499500D01*
X168825241Y-59499500D01*
X168478086Y-59540077D01*
X168137989Y-59620681D01*
X168134547Y-59621934D01*
X168134543Y-59621935D01*
X167812994Y-59738969D01*
X167809549Y-59740223D01*
X167806283Y-59741863D01*
X167806279Y-59741865D01*
X167798422Y-59745811D01*
X167497207Y-59897087D01*
X167205189Y-60089151D01*
X166937442Y-60313817D01*
X166697588Y-60568047D01*
X166695404Y-60570981D01*
X166695402Y-60570983D01*
X166491055Y-60845469D01*
X166488870Y-60848404D01*
X166314111Y-61151096D01*
X166175674Y-61472029D01*
X166174624Y-61475536D01*
X166174623Y-61475539D01*
X166090452Y-61756692D01*
X166075431Y-61806864D01*
X166014738Y-62151073D01*
X165994415Y-62500000D01*
X110308500Y-62500000D01*
X110308500Y-61651362D01*
X110301989Y-61590799D01*
X110250889Y-61453796D01*
X110163261Y-61336739D01*
X110046204Y-61249111D01*
X109909201Y-61198011D01*
X109872295Y-61194043D01*
X109851988Y-61191860D01*
X109851985Y-61191860D01*
X109848638Y-61191500D01*
X107951362Y-61191500D01*
X107948015Y-61191860D01*
X107948012Y-61191860D01*
X107927705Y-61194043D01*
X107890799Y-61198011D01*
X107753796Y-61249111D01*
X107636739Y-61336739D01*
X107549111Y-61453796D01*
X107545963Y-61462237D01*
X107545961Y-61462241D01*
X107525638Y-61516726D01*
X107483091Y-61573561D01*
X107416571Y-61598371D01*
X107347197Y-61583279D01*
X107322248Y-61565395D01*
X107320747Y-61564014D01*
X107317220Y-61560182D01*
X107133017Y-61416810D01*
X106998383Y-61343950D01*
X106932312Y-61308194D01*
X106932309Y-61308193D01*
X106927727Y-61305713D01*
X106706951Y-61229920D01*
X106701817Y-61229063D01*
X106701812Y-61229062D01*
X106481849Y-61192357D01*
X106481846Y-61192357D01*
X106476712Y-61191500D01*
X106243288Y-61191500D01*
X106238154Y-61192357D01*
X106238151Y-61192357D01*
X106018188Y-61229062D01*
X106018183Y-61229063D01*
X106013049Y-61229920D01*
X105792273Y-61305713D01*
X105787691Y-61308193D01*
X105787688Y-61308194D01*
X105721617Y-61343950D01*
X105586983Y-61416810D01*
X105582872Y-61420009D01*
X105582870Y-61420011D01*
X105406898Y-61556976D01*
X105406892Y-61556981D01*
X105402780Y-61560182D01*
X105399248Y-61564019D01*
X105248214Y-61728084D01*
X105248211Y-61728088D01*
X105244686Y-61731917D01*
X105241835Y-61736281D01*
X105194804Y-61808268D01*
X105117016Y-61927331D01*
X105023251Y-62141093D01*
X105021973Y-62146141D01*
X105021971Y-62146146D01*
X105020545Y-62151779D01*
X104965949Y-62367374D01*
X104946673Y-62600000D01*
X100000500Y-62600000D01*
X100000500Y-50126500D01*
X100020502Y-50058379D01*
X100074158Y-50011886D01*
X100126500Y-50000500D01*
X174873500Y-50000500D01*
X174941621Y-50020502D01*
G37*
G04 #@! TD.AperFunction*
M02*
