<?xml version="1.0" encoding="UTF-8" standalone="no"?>
<!-- Created with Inkscape (http://www.inkscape.org/) -->

<svg
   width="776.3772mm"
   height="276.14493mm"
   viewBox="0 0 776.3772 276.14493"
   version="1.1"
   id="svg5"
   xml:space="preserve"
   inkscape:version="1.2 (dc2aeda, 2022-05-15)"
   sodipodi:docname="mooney.svg"
   xmlns:inkscape="http://www.inkscape.org/namespaces/inkscape"
   xmlns:sodipodi="http://sodipodi.sourceforge.net/DTD/sodipodi-0.dtd"
   xmlns="http://www.w3.org/2000/svg"
   xmlns:svg="http://www.w3.org/2000/svg"><sodipodi:namedview
     id="namedview7"
     pagecolor="#ffffff"
     bordercolor="#000000"
     borderopacity="0.25"
     inkscape:showpageshadow="2"
     inkscape:pageopacity="0.0"
     inkscape:pagecheckerboard="0"
     inkscape:deskcolor="#d1d1d1"
     inkscape:document-units="mm"
     showgrid="false"
     inkscape:zoom="0.24593712"
     inkscape:cx="1317.4099"
     inkscape:cy="1461.7558"
     inkscape:window-width="1800"
     inkscape:window-height="1097"
     inkscape:window-x="0"
     inkscape:window-y="44"
     inkscape:window-maximized="0"
     inkscape:current-layer="layer1" /><defs
     id="defs2" /><g
     inkscape:label="Layer 1"
     inkscape:groupmode="layer"
     id="layer1"
     transform="translate(434.98942,-9.8294915)"><path
       style="fill:#000000;stroke-width:0.0846667"
       d="m -142.04251,285.87333 c -0.30268,-0.0621 -0.83608,-0.13687 -1.18533,-0.1662 -2.06479,-0.17338 -2.40935,-0.23186 -3.07433,-0.52176 -0.36373,-0.15857 -0.9877,-0.34521 -1.3866,-0.41478 -0.47897,-0.0835 -0.88018,-0.21511 -1.18146,-0.38749 -0.25091,-0.14355 -0.74222,-0.34925 -1.09179,-0.45711 -0.34958,-0.10785 -0.76448,-0.29441 -0.92201,-0.41456 -0.15753,-0.12016 -0.50911,-0.29973 -0.78129,-0.39905 -0.27217,-0.0993 -0.62898,-0.28539 -0.7929,-0.4135 -0.16392,-0.1281 -0.46872,-0.31939 -0.67733,-0.42509 -0.20861,-0.10569 -0.52045,-0.31883 -0.69297,-0.47364 -0.17254,-0.15481 -0.45829,-0.35528 -0.635,-0.44548 -0.17673,-0.0902 -0.39752,-0.24836 -0.49066,-0.35148 -0.0931,-0.10312 -0.34401,-0.27607 -0.55749,-0.38434 -0.21349,-0.10826 -0.56917,-0.36132 -0.79041,-0.56234 -0.95947,-0.87182 -3.35541,-3.30461 -3.58917,-3.64436 -0.1406,-0.20435 -0.31897,-0.42412 -0.39638,-0.48837 -0.0774,-0.0642 -0.23437,-0.30155 -0.34878,-0.52734 -0.11442,-0.22578 -0.33501,-0.55203 -0.49021,-0.72498 -0.1552,-0.17296 -0.35936,-0.46686 -0.45369,-0.65313 -0.0943,-0.18626 -0.25567,-0.41477 -0.35852,-0.50779 -0.10285,-0.093 -0.29424,-0.40565 -0.42532,-0.69473 -0.13107,-0.28908 -0.35162,-0.67018 -0.4901,-0.84688 -0.13848,-0.17669 -0.29823,-0.47366 -0.35499,-0.65993 -0.0568,-0.18627 -0.24955,-0.56727 -0.42842,-0.84667 -0.17886,-0.2794 -0.35054,-0.66711 -0.38151,-0.86158 -0.1059,-0.66491 -0.27989,-0.83497 -1.11081,-1.08567 -0.41041,-0.12382 -0.92355,-0.29783 -1.14031,-0.38666 -0.21676,-0.0888 -0.66673,-0.20828 -0.99994,-0.26542 -0.51587,-0.0885 -0.66879,-0.15762 -1.02982,-0.46579 -0.2332,-0.19906 -0.47129,-0.39093 -0.52909,-0.42639 -0.0578,-0.0355 -0.31204,-0.36615 -0.56495,-0.73484 l -0.45985,-0.67035 0.008,-0.98065 c 0.008,-0.90613 0.0324,-1.04819 0.32442,-1.86965 0.23145,-0.65094 0.33652,-1.11572 0.39235,-1.73566 0.11355,-1.26055 0.22745,-1.84679 0.50747,-2.61183 0.1866,-0.50982 0.28504,-0.99992 0.3767,-1.87551 0.15102,-1.4425 0.15904,-1.48147 0.47206,-2.2944 0.17708,-0.45985 0.27606,-0.91578 0.33633,-1.54927 0.11201,-1.1772 0.21007,-1.65547 0.54855,-2.67566 0.15986,-0.4818 0.30348,-1.12032 0.33329,-1.48167 0.0913,-1.10678 0.22778,-1.80263 0.47457,-2.41919 0.1539,-0.38449 0.28637,-0.95488 0.37008,-1.59346 0.0717,-0.54704 0.20554,-1.17291 0.29742,-1.39082 0.21888,-0.51917 0.31898,-0.99487 0.51097,-2.42819 0.10211,-0.76237 0.23459,-1.37014 0.37126,-1.70322 0.11687,-0.28482 0.29281,-0.91347 0.39097,-1.397 0.20154,-0.99277 0.38183,-1.34969 1.02847,-2.03614 0.33512,-0.35576 0.54768,-0.50502 0.82273,-0.57774 0.6361,-0.16815 1.29778,-0.2539 1.96327,-0.25441 0.87414,-8.5e-4 1.47911,-0.18732 1.64463,-0.5074 0.16148,-0.31226 0.16174,-0.64495 8.5e-4,-1.10091 -0.0697,-0.1975 -0.16555,-0.87856 -0.21303,-1.51347 -0.10723,-1.43369 -0.29832,-3.04557 -0.4731,-3.99071 -0.25469,-1.37719 -0.29068,-1.65852 -0.3737,-2.921 -0.0927,-1.41021 -0.35148,-3.50933 -0.50856,-4.12551 -0.0561,-0.22009 -0.19724,-0.49539 -0.31363,-0.61177 -0.22832,-0.22832 -0.66571,-0.34975 -0.94292,-0.26177 -0.0948,0.0301 -1.26968,0.0146 -2.61086,-0.0344 -1.34118,-0.049 -3.02906,-0.10769 -3.75084,-0.13039 -0.72179,-0.0227 -1.96004,-0.0818 -2.75167,-0.13132 -0.79163,-0.0495 -1.82033,-0.10445 -2.286,-0.12205 -0.46567,-0.0176 -1.09169,-0.0717 -1.39117,-0.12031 -0.29947,-0.0486 -0.63486,-0.0656 -0.74531,-0.0379 -0.11045,0.0277 -0.55122,0.007 -0.9795,-0.0459 -0.42828,-0.0529 -2.58844,-0.15444 -4.80035,-0.22553 -6.34048,-0.2038 -7.57604,-0.26084 -10.07534,-0.46511 -0.48895,-0.04 -1.36525,-0.11137 -1.94733,-0.15868 -1.93104,-0.15694 -4.07504,-0.25232 -6.858,-0.30508 -2.78153,-0.0527 -7.39025,-0.24524 -9.10167,-0.38018 -0.51223,-0.0404 -1.40758,-0.11305 -1.98966,-0.16149 -1.87233,-0.15577 -3.79322,-0.24591 -6.35,-0.29796 -4.01055,-0.0816 -7.52252,-0.21474 -8.28721,-0.31408 -0.39025,-0.0507 -0.9808,-0.10082 -1.31233,-0.11138 -0.33154,-0.0106 -1.27779,-0.0796 -2.10277,-0.15351 -0.82498,-0.0739 -2.97763,-0.17469 -4.78367,-0.22405 -6.41005,-0.17516 -9.13268,-0.27342 -9.67602,-0.34919 -0.30269,-0.0422 -0.79799,-0.0776 -1.10067,-0.0785 -0.30268,-0.001 -0.87418,-0.0588 -1.27,-0.12856 -0.8498,-0.14969 -1.11879,-0.1563 -1.54503,-0.0379 -0.59932,0.16644 -0.61389,0.24762 -0.74453,4.14425 -0.0476,1.42029 -0.12712,2.92524 -0.1767,3.34434 -0.17413,1.47216 -0.49266,5.54097 -0.46729,5.969 0.0288,0.48501 -0.13779,4.39617 -0.20499,4.81418 -0.0401,0.24962 -0.16285,0.57347 -0.27271,0.71966 -0.10988,0.14621 -0.28882,0.42627 -0.39767,0.62237 -0.2677,0.4823 -1.20765,1.11002 -1.80774,1.20725 -0.24035,0.0389 -0.87516,0.0964 -1.41067,0.12757 -0.53552,0.0312 -1.58327,0.12912 -2.32834,0.21755 -2.73591,0.32474 -4.14392,0.42202 -7.83166,0.54106 -7.54732,0.24362 -12.18921,0.244 -20.70101,0.002 -1.93687,-0.0551 -5.42878,-0.26377 -6.30766,-0.37687 -1.27186,-0.16366 -3.38561,-0.33717 -5.16467,-0.42397 -2.73886,-0.13361 -3.73377,-0.22626 -5.34635,-0.49788 -0.80813,-0.13612 -1.86937,-0.2723 -2.35832,-0.30263 -1.7952,-0.11136 -3.0219,-0.30186 -4.23333,-0.6574 -0.30317,-0.089 -1.18707,-0.2159 -1.96811,-0.2826 -1.57524,-0.13453 -1.85066,-0.18479 -2.92083,-0.53302 -0.53594,-0.1744 -1.06987,-0.26967 -1.92673,-0.34378 -0.96243,-0.0833 -1.34455,-0.15804 -2.032,-0.39769 -0.66979,-0.23349 -1.11159,-0.32227 -2.11486,-0.42497 -0.9925,-0.1016 -1.45266,-0.19331 -2.11667,-0.42183 -0.62401,-0.21476 -1.14748,-0.32446 -1.9788,-0.4147 -1.1073,-0.12019 -1.4675,-0.20094 -2.69389,-0.6039 -0.33379,-0.10968 -0.73636,-0.19942 -0.89461,-0.19942 -0.46023,0 -1.24831,-0.16245 -1.84283,-0.37986 -0.67494,-0.24683 -1.16903,-0.34356 -2.56396,-0.50192 -0.85274,-0.0968 -1.16479,-0.16897 -1.47117,-0.34021 -0.4747,-0.26531 -0.69443,-0.27265 -1.01229,-0.0338 -0.60601,0.45536 -0.78838,0.68965 -0.88987,1.14317 -0.0652,0.2912 -0.20428,0.57297 -0.39004,0.78998 -0.36648,0.42815 -0.70001,1.27299 -0.70001,1.77314 0,0.53538 0.28825,1.49124 0.56954,1.88861 0.12914,0.18243 0.3491,0.54759 0.4888,0.81146 0.31099,0.58743 0.46183,0.62551 1.17395,0.29645 l 0.51938,-0.24001 h 3.09033 3.09034 l 0.59266,0.23988 c 0.71959,0.29124 1.34034,0.44605 2.08519,0.52 0.30865,0.0306 0.67674,0.11987 0.81797,0.19826 0.84936,0.47144 1.11058,0.5892 1.4103,0.63574 0.18377,0.0285 0.5295,0.18643 0.7683,0.35091 0.23881,0.16446 0.62185,0.36168 0.85122,0.43825 0.22936,0.0766 0.58852,0.26333 0.79814,0.41502 0.20961,0.15168 0.59526,0.3705 0.85699,0.48625 0.26174,0.11574 0.50379,0.2556 0.5379,0.3108 0.0341,0.0552 0.32473,0.26874 0.64583,0.47456 0.32111,0.20582 0.58383,0.41341 0.58383,0.46131 0,0.0479 0.17221,0.1963 0.38269,0.32979 1.05581,0.66956 3.34195,2.93062 3.75885,3.71758 0.0572,0.10799 0.28801,0.39953 0.51289,0.64785 0.22489,0.24832 0.4361,0.54097 0.46937,0.65031 0.0333,0.10936 0.2037,0.38933 0.37871,0.62216 0.17503,0.23283 0.38243,0.62098 0.4609,0.86254 0.0785,0.24156 0.24923,0.57327 0.37944,0.73713 0.13021,0.16385 0.30249,0.53771 0.38284,0.83079 0.0803,0.29308 0.27908,0.79338 0.44163,1.11178 0.16255,0.3184 0.3505,0.8518 0.41765,1.18533 0.0672,0.33354 0.21379,0.83503 0.32584,1.11443 0.47604,1.18701 0.55289,1.95671 0.55361,5.54567 8.4e-4,3.31283 -0.0878,4.30536 -0.4649,5.21636 -0.15836,0.38257 -0.33336,0.95606 -0.38887,1.27444 -0.0589,0.33773 -0.23583,0.84338 -0.42474,1.21386 -0.17809,0.34925 -0.38103,0.84752 -0.45098,1.10726 -0.07,0.25974 -0.2293,0.62169 -0.35409,0.80434 -0.12479,0.18263 -0.31367,0.55207 -0.41971,0.82096 -0.10606,0.26889 -0.31014,0.63701 -0.45351,0.81803 -0.14338,0.18103 -0.32063,0.47538 -0.39391,0.65411 -0.0733,0.17873 -0.27967,0.47737 -0.45867,0.66364 -0.179,0.18626 -0.45188,0.51811 -0.60641,0.73745 -0.5926,0.84112 -1.00677,1.31906 -1.74544,2.01421 -1.64898,1.55183 -2.50316,2.28438 -2.98727,2.56194 -0.21327,0.12227 -0.43958,0.28476 -0.50294,0.36109 -0.0633,0.0763 -0.34606,0.25505 -0.62825,0.39713 -0.28219,0.1421 -0.66711,0.364 -0.85539,0.49312 -0.18828,0.12912 -0.50973,0.27985 -0.71433,0.33494 -0.20461,0.0551 -0.57356,0.2291 -0.81989,0.38667 -0.24976,0.15978 -0.70154,0.34524 -1.02133,0.41928 -0.3154,0.073 -0.87826,0.28128 -1.25079,0.46279 -0.52152,0.2541 -0.85262,0.35197 -1.43933,0.42544 -0.4191,0.0525 -1.2192,0.18932 -1.778,0.30408 -2.93772,0.60331 -3.91108,0.60334 -7.112,0 -0.8382,-0.15794 -1.80691,-0.33023 -2.15267,-0.38287 -0.40005,-0.0609 -0.78492,-0.18507 -1.05833,-0.34143 -0.23633,-0.13514 -0.73447,-0.3271 -1.107,-0.42657 -0.37254,-0.0995 -0.85275,-0.29307 -1.06714,-0.43023 -0.21439,-0.13715 -0.58212,-0.30648 -0.81717,-0.37629 -0.23505,-0.0698 -0.62441,-0.26245 -0.86523,-0.4281 -0.24081,-0.16566 -0.60091,-0.37109 -0.8002,-0.45652 -0.19929,-0.0854 -0.49178,-0.26639 -0.64998,-0.40214 -0.15819,-0.13575 -0.44002,-0.33737 -0.62628,-0.44804 -0.89137,-0.52961 -3.97499,-3.53774 -4.4255,-4.31717 -0.12113,-0.20955 -0.34436,-0.52159 -0.49608,-0.69344 -0.15171,-0.17184 -0.34075,-0.43854 -0.42008,-0.59267 -0.0793,-0.15412 -0.26979,-0.42739 -0.42324,-0.60726 -0.15346,-0.17987 -0.34319,-0.53109 -0.42164,-0.78048 -0.0784,-0.24939 -0.27257,-0.60526 -0.4314,-0.79082 -0.15883,-0.18555 -0.36119,-0.54784 -0.4497,-0.80507 -0.0885,-0.25725 -0.2928,-0.70672 -0.45401,-0.99882 -0.1612,-0.29211 -0.35241,-0.79811 -0.4249,-1.12445 -0.0725,-0.32634 -0.24692,-0.87244 -0.38758,-1.21357 -0.26033,-0.63128 -0.35252,-1.15547 -0.64272,-3.65408 -0.28446,-2.44917 0.0446,-6.61751 0.64554,-8.17821 0.13567,-0.35234 0.30839,-0.91381 0.38379,-1.24771 0.0754,-0.3339 0.28171,-0.87378 0.45844,-1.19975 0.17674,-0.32597 0.36313,-0.75168 0.41422,-0.94602 0.0511,-0.19435 0.24558,-0.5563 0.43218,-0.80434 0.18661,-0.24804 0.37848,-0.59601 0.42637,-0.77327 0.0479,-0.17726 0.21132,-0.46301 0.36316,-0.635 0.15185,-0.17199 0.37445,-0.4842 0.49468,-0.6938 0.12022,-0.20961 0.30285,-0.45726 0.40584,-0.55034 0.103,-0.0931 0.28257,-0.35718 0.39906,-0.58689 0.20143,-0.39723 2.18375,-2.67267 2.32837,-2.67267 0.13833,0 0.40424,-0.55874 0.40455,-0.85005 8.5e-4,-0.51437 -0.24683,-1.29077 -0.55483,-1.74142 -0.16257,-0.23786 -0.36429,-0.68029 -0.44828,-0.98318 -0.084,-0.30289 -0.23508,-0.67978 -0.33576,-0.83753 -0.10068,-0.15775 -0.29826,-0.52963 -0.43906,-0.8264 -0.14081,-0.29676 -0.36979,-0.68323 -0.50885,-0.8588 -0.13906,-0.17559 -0.32852,-0.56143 -0.42102,-0.85743 -0.0925,-0.296 -0.24718,-0.65249 -0.34373,-0.79219 -0.0965,-0.1397 -0.21411,-0.34925 -0.26124,-0.46567 -0.15322,-0.37849 -0.24289,-2.04227 -0.16057,-2.97927 0.0703,-0.79996 0.11324,-0.95721 0.42129,-1.54212 0.18867,-0.35822 0.34303,-0.73748 0.34303,-0.84278 0,-0.10531 0.13755,-0.41782 0.30566,-0.69448 0.16813,-0.27666 0.4349,-0.76972 0.59285,-1.09568 0.15794,-0.32597 0.38013,-0.71885 0.49374,-0.87306 0.11362,-0.15421 0.24874,-0.48348 0.30027,-0.73171 0.0547,-0.26331 0.21612,-0.62265 0.38758,-0.86261 0.16164,-0.22621 0.36859,-0.65894 0.4599,-0.96162 0.0913,-0.30269 0.29636,-0.73273 0.45567,-0.95567 0.17792,-0.24899 0.34534,-0.63263 0.43405,-0.9946 0.0875,-0.35721 0.24097,-0.71077 0.38963,-0.89783 0.215,-0.27054 0.49865,-0.98523 0.49865,-1.25641 0,-0.0519 0.16822,-0.35056 0.37384,-0.66361 0.21133,-0.32176 0.39972,-0.72488 0.43339,-0.92736 0.0327,-0.197 0.20341,-0.60584 0.37925,-0.90852 0.17582,-0.30269 0.38588,-0.75989 0.46678,-1.016 0.0809,-0.25612 0.27298,-0.67522 0.42685,-0.93134 0.15386,-0.25611 0.36086,-0.73786 0.46001,-1.07054 0.0991,-0.33268 0.27472,-0.73273 0.39018,-0.889 0.11546,-0.15627 0.29012,-0.55082 0.38813,-0.87679 0.11327,-0.37674 0.28077,-0.70756 0.45974,-0.90803 0.35725,-0.40019 0.43114,-0.68013 0.25176,-0.95391 -0.15398,-0.23501 -0.19585,-0.2468 -1.3206,-0.37196 -0.44238,-0.0492 -1.12818,-0.14628 -1.524,-0.21567 -0.95622,-0.16763 -2.99244,-0.36508 -4.86833,-0.47208 -0.8382,-0.0478 -2.0955,-0.17946 -2.794,-0.29257 -1.64604,-0.26653 -3.06808,-0.45075 -4.25095,-0.55069 -0.59995,-0.0507 -1.17601,-0.15727 -1.56633,-0.28982 -0.97148,-0.32987 -1.2103,-0.37636 -2.62952,-0.51185 -1.13989,-0.10883 -1.4218,-0.16563 -1.93062,-0.38894 -0.3277,-0.14384 -0.83194,-0.29782 -1.12053,-0.3422 -0.28859,-0.0444 -0.75963,-0.11868 -1.04676,-0.16511 -0.28712,-0.0464 -0.80147,-0.21587 -1.143,-0.37655 -0.40727,-0.19161 -0.88937,-0.33456 -1.40094,-0.4154 -0.61697,-0.0975 -0.88347,-0.18713 -1.2751,-0.42885 -0.31831,-0.19648 -0.6747,-0.33477 -0.99802,-0.38727 -0.75332,-0.12235 -0.99276,-0.2079 -1.39277,-0.49767 -0.20027,-0.14507 -0.62337,-0.34097 -0.94022,-0.43533 -0.31685,-0.0944 -0.59937,-0.20924 -0.62782,-0.25528 -0.0705,-0.11411 -0.78584,-0.46578 -1.09809,-0.53985 -0.1397,-0.0331 -0.4445,-0.19039 -0.67733,-0.34944 -0.23283,-0.15905 -0.65905,-0.38125 -0.94715,-0.49379 -0.28811,-0.11255 -0.65006,-0.29906 -0.80434,-0.41447 -0.15428,-0.11542 -0.46563,-0.29033 -0.69188,-0.3887 -0.22626,-0.0984 -0.54618,-0.29722 -0.71095,-0.44189 -0.16477,-0.14467 -0.47496,-0.33778 -0.6893,-0.42912 -0.21434,-0.0913 -0.52306,-0.29484 -0.68605,-0.45223 -0.16298,-0.15738 -0.46832,-0.35943 -0.67853,-0.449 -0.21021,-0.0896 -0.43716,-0.22908 -0.50433,-0.31002 -0.0672,-0.0809 -0.33077,-0.28062 -0.58578,-0.44375 -0.255,-0.16313 -0.58051,-0.40933 -0.72333,-0.54712 -0.14283,-0.13778 -0.50734,-0.4595 -0.81003,-0.71492 -1.69622,-1.43139 -4.82994,-4.5722 -5.24837,-5.26025 -0.0857,-0.14089 -0.22867,-0.30825 -0.31774,-0.37189 -0.0891,-0.0636 -0.3033,-0.32526 -0.47606,-0.58138 -0.17275,-0.25612 -0.44307,-0.65617 -0.6007,-0.889 -0.15762,-0.23283 -0.41785,-0.57573 -0.57826,-0.762 -0.16042,-0.18627 -0.3595,-0.47202 -0.44238,-0.635 -0.0829,-0.16298 -0.27718,-0.44457 -0.43175,-0.62575 -0.15457,-0.18117 -0.34415,-0.52407 -0.42128,-0.762 -0.0771,-0.23792 -0.22818,-0.52783 -0.33566,-0.64425 -0.10748,-0.11642 -0.32332,-0.44027 -0.47964,-0.71967 -0.34646,-0.61923 -0.57637,-0.70138 -0.79261,-0.28322 -0.11843,0.22904 -0.13432,0.41888 -0.0908,1.08475 0.029,0.44393 0.11263,1.05479 0.18578,1.35747 0.21161,0.87563 0.44828,2.33474 0.54245,3.34434 0.24558,2.63266 0.27152,9.75672 0.0489,13.41966 -0.13698,2.25347 -0.24503,3.5143 -0.42449,4.953 -0.22896,1.83558 -0.35458,3.45064 -0.42476,5.461 -0.0856,2.45047 -0.27976,4.78501 -0.59311,7.12977 -0.0703,0.52574 -0.16716,2.00365 -0.21533,3.28423 -0.11534,3.06614 -0.29565,5.61815 -0.49651,7.02734 -0.22201,1.55751 -0.33243,2.89164 -0.38895,4.699 -0.0684,2.18766 -0.20585,4.41486 -0.34485,5.588 -0.33388,2.81788 -0.44901,4.12283 -0.49674,5.63033 -0.10153,3.20715 -0.24061,4.99322 -0.60514,7.77125 -0.069,0.52558 -0.18065,2.16388 -0.24818,3.64067 -0.13831,3.02438 -0.23821,3.82756 -0.63348,5.09286 -0.2343,0.75007 -0.33487,0.94665 -0.66463,1.29919 -0.2137,0.22846 -0.53709,0.49118 -0.71865,0.58379 -0.18155,0.0926 -0.48348,0.27952 -0.67095,0.41533 -0.31786,0.23025 -0.3935,0.24691 -1.12107,0.24691 -0.6399,0 -0.8172,-0.0291 -0.98591,-0.1618 -0.11313,-0.089 -0.43536,-0.2964 -0.71606,-0.46091 -0.59676,-0.34975 -1.06705,-0.9128 -1.26815,-1.51826 -0.0785,-0.23632 -0.21001,-0.5466 -0.29227,-0.68951 -0.31021,-0.53897 -0.43379,-1.88865 -0.58974,-6.44052 -0.0447,-1.30387 -0.1248,-2.80882 -0.17806,-3.34433 -0.0533,-0.53552 -0.10457,-1.18322 -0.11401,-1.43934 -0.009,-0.25611 -0.0415,-0.71331 -0.0713,-1.016 -0.18604,-1.89332 -0.34449,-5.38426 -0.43811,-9.652 -0.0404,-1.84046 -0.13218,-3.39808 -0.29945,-5.08 -0.0753,-0.7572 -0.16967,-2.05339 -0.21881,-3.00566 -0.12438,-2.4099 -0.28678,-6.29634 -0.32727,-7.83167 -0.0493,-1.87081 -0.14082,-3.35745 -0.29961,-4.86833 -0.044,-0.4191 -0.11991,-1.143 -0.16857,-1.60867 -0.0487,-0.46567 -0.14538,-2.02777 -0.2149,-3.47133 -0.2615,-5.42941 -0.29619,-5.95425 -0.4673,-7.06967 -0.0964,-0.62865 -0.21182,-1.39065 -0.25641,-1.69333 -0.21884,-1.48556 -0.30539,-10.29248 -0.166,-16.891 0.0706,-3.34313 0.12086,-4.10016 0.38207,-5.75734 0.20209,-1.28213 0.20982,-1.37667 0.38176,-4.6741 0.20114,-3.8575 0.22183,-4.1519 0.42427,-6.03623 0.22171,-2.06381 0.32504,-3.44665 0.38277,-5.12233 0.0273,-0.79164 0.0864,-2.23575 0.13148,-3.20916 0.0759,-1.64017 0.0709,-1.78213 -0.0676,-1.93785 -0.17849,-0.20057 -0.61899,-0.39855 -0.88765,-0.39895 -0.10627,0 -0.465,-0.11105 -0.79717,-0.24641 -0.33218,-0.13537 -0.92273,-0.31053 -1.31234,-0.38927 -0.38961,-0.0787 -0.96603,-0.25209 -1.28095,-0.38527 -0.34619,-0.1464 -0.93202,-0.29481 -1.48167,-0.37535 -1.11676,-0.16367 -1.11555,-0.16334 -1.82457,-0.48036 -0.38614,-0.17265 -0.86195,-0.29694 -1.43934,-0.37599 -0.65468,-0.0896 -1.00532,-0.18891 -1.45518,-0.412 -0.62498,-0.30993 -0.98719,-0.41794 -1.71453,-0.51125 -0.25276,-0.0324 -0.72176,-0.19797 -1.08716,-0.38372 -0.35345,-0.17967 -0.82016,-0.35063 -1.03714,-0.37991 -0.59283,-0.08 -0.93875,-0.20174 -1.45284,-0.51135 -0.25611,-0.15426 -0.70827,-0.342 -1.00479,-0.41722 -0.29653,-0.0752 -0.73468,-0.24697 -0.97367,-0.38168 -0.239,-0.13471 -0.70758,-0.3372 -1.04129,-0.44996 -0.33372,-0.11277 -0.72101,-0.28638 -0.86064,-0.38581 -0.13964,-0.0994 -0.51758,-0.28809 -0.83988,-0.41925 -0.32229,-0.13116 -0.71606,-0.33751 -0.87502,-0.45856 -0.15897,-0.12105 -0.50184,-0.29958 -0.76193,-0.39675 -0.26009,-0.0972 -0.56489,-0.27667 -0.67733,-0.3989 -0.11245,-0.12223 -0.40564,-0.31237 -0.65153,-0.42255 -0.2459,-0.11017 -0.63985,-0.35267 -0.87544,-0.53889 -0.23559,-0.18623 -0.47976,-0.33859 -0.5426,-0.33859 -0.0628,0 -0.29181,-0.15369 -0.50884,-0.34152 -0.21703,-0.18785 -0.57416,-0.43252 -0.79363,-0.54373 -0.21948,-0.11122 -0.45161,-0.26555 -0.51585,-0.34296 -0.0643,-0.0774 -0.29046,-0.25816 -0.50269,-0.40165 -0.39209,-0.26511 -0.92604,-0.71982 -1.61353,-1.3741 -0.20955,-0.19942 -0.4463,-0.39644 -0.5261,-0.4378 -0.16202,-0.084 -1.32232,-1.14735 -2.69354,-2.46853 -0.97286,-0.93734 -1.6638,-1.85432 -1.78255,-2.36569 -0.19202,-0.82688 -0.0139,-1.98187 0.37803,-2.45151 0.10872,-0.13027 0.25791,-0.35115 0.33154,-0.49085 0.18714,-0.35506 2.39936,-2.53238 3.58918,-3.53255 0.31704,-0.26652 0.7774,-0.65675 1.02303,-0.86719 0.24562,-0.21043 0.58852,-0.4554 0.762,-0.54436 0.17347,-0.089 0.41066,-0.26442 0.52707,-0.3899 0.11642,-0.12547 0.34502,-0.29692 0.508,-0.381 0.16299,-0.0841 0.39159,-0.25558 0.508,-0.38114 0.11642,-0.12555 0.40217,-0.32474 0.635,-0.44263 0.23284,-0.1179 0.55669,-0.3186 0.71967,-0.44602 0.16298,-0.12742 0.46778,-0.31801 0.67733,-0.42354 0.20955,-0.10553 0.51435,-0.2958 0.67734,-0.42283 0.16298,-0.12703 0.4793,-0.31121 0.70294,-0.40928 0.22363,-0.0981 0.56037,-0.30991 0.7483,-0.47078 0.20172,-0.17266 0.51138,-0.33318 0.75593,-0.39184 0.22783,-0.0547 0.5769,-0.22307 0.7757,-0.37426 0.46554,-0.35403 0.6305,-0.43615 1.01569,-0.50567 0.17356,-0.0313 0.47836,-0.18089 0.67734,-0.33237 0.51613,-0.39294 0.52151,-0.39539 1.05293,-0.48189 0.31128,-0.0507 0.63723,-0.18153 0.92041,-0.36955 0.24115,-0.16012 0.71789,-0.37434 1.05944,-0.47606 0.34154,-0.10172 0.81373,-0.29203 1.04932,-0.42293 0.23558,-0.13089 0.73313,-0.29945 1.10566,-0.37458 0.37254,-0.0751 0.9207,-0.25368 1.21813,-0.39679 0.34395,-0.16549 0.88052,-0.32019 1.47413,-0.42501 0.52509,-0.0927 1.23291,-0.28862 1.61821,-0.44786 0.44614,-0.18439 1.00434,-0.33002 1.60138,-0.4178 0.66914,-0.0984 1.10184,-0.21842 1.60316,-0.44477 0.48866,-0.22064 0.93236,-0.34576 1.53882,-0.43394 0.52281,-0.076 1.14669,-0.23916 1.61417,-0.42208 0.4191,-0.16399 1.09895,-0.34913 1.51077,-0.41142 0.92548,-0.13998 1.01162,-0.16705 1.20246,-0.37793 0.1326,-0.14651 0.15153,-0.31477 0.14058,-1.24951 -0.0135,-1.15416 -0.19889,-3.52848 -0.39457,-5.05385 -0.0657,-0.51223 -0.19925,-2.39818 -0.29677,-4.191 -0.18201,-3.34618 -0.35223,-5.24523 -0.55856,-6.23137 -0.28414,-1.35802 -0.32745,-2.99061 -0.32098,-12.098965 0.004,-6.171082 0.0397,-9.516872 0.11302,-10.710333 0.0587,-0.954617 0.1179,-2.021417 0.13165,-2.370667 0.0138,-0.34925 0.0653,-0.80645 0.11446,-1.016 0.0492,-0.20955 0.0906,-0.6477 0.092,-0.973667 10e-4,-0.325966 0.0416,-0.821266 0.0893,-1.100666 0.0477,-0.2794 0.10575,-1.0414 0.12904,-1.693334 0.1318,-3.690707 0.38598,-9.084253 0.46084,-9.779 0.0477,-0.442383 0.12404,-1.166283 0.1697,-1.608667 0.0457,-0.442383 0.12136,-1.172777 0.16821,-1.623097 0.0469,-0.450117 0.0853,-1.188384 0.0853,-1.64039 0,-0.452006 0.0385,-1.569462 0.0855,-2.483236 0.26547,-5.159922 0.29188,-5.531397 0.5514,-7.757407 0.14892,-1.277266 0.18406,-1.908256 0.34193,-6.138333 0.12699,-3.402776 0.21031,-4.848756 0.37323,-6.477 0.17223,-1.721404 0.33315,-4.194904 0.37731,-5.799667 0.025,-0.90805 0.0847,-2.54635 0.13261,-3.640667 0.0479,-1.094316 0.098,-2.237316 0.11127,-2.54 0.0195,-0.444584 0.10158,-0.721158 0.42735,-1.439333 0.51698,-1.139726 1.09402,-1.767562 1.87027,-2.034923 1.3911,-0.479126 1.21568,-0.468882 2.21881,-0.129561 0.85804,0.29024 0.92429,0.330225 1.43952,0.868787 0.60152,0.62876 0.63645,0.712709 1.05002,2.523364 0.20255,0.886807 0.26747,1.429681 0.33413,2.794 0.12087,2.473839 0.25086,4.209915 0.38354,5.122333 0.27077,1.862121 0.36858,3.233653 0.5525,7.747 0.0474,1.164167 0.13859,2.535767 0.20256,3.048 0.40557,3.247489 0.44318,3.72275 0.59951,7.577667 0.0725,1.78652 0.19806,3.679728 0.29772,4.487333 0.298,2.415069 0.41228,3.925041 0.54715,7.22962 0.0777,1.90336 0.19844,3.728244 0.29691,4.487333 0.3003,2.314763 0.41847,3.659437 0.50468,5.742657 0.11092,2.680423 0.24219,4.74524 0.39178,6.16239 0.32255,3.055697 0.41033,4.322632 0.58361,8.423817 0.17573,4.159073 0.0381,7.503992 -0.4737,11.515182 -0.26433,2.0715 -0.35456,3.03378 -0.50016,5.334 -0.088,1.39093 -0.2938,2.95619 -0.56205,4.27567 -0.071,0.34925 -0.18583,1.6256 -0.25516,2.83633 -0.18441,3.2203 -0.19159,2.91649 0.0736,3.11555 0.22115,0.16597 0.33244,0.17169 3.048,0.15668 3.44003,-0.019 14.7406,-0.24127 16.02646,-0.31521 0.51224,-0.0295 1.73144,-0.0858 2.70934,-0.12529 0.9779,-0.0395 2.78765,-0.11629 4.02166,-0.17075 1.23402,-0.0545 2.91042,-0.1066 3.72534,-0.11587 0.81491,-0.009 2.62466,-0.0432 4.02166,-0.0754 1.397,-0.0322 5.94995,-0.11583 10.11767,-0.18581 4.16772,-0.07 8.01582,-0.14752 8.55133,-0.17229 3.06044,-0.14158 12.32975,-0.3654 16.84867,-0.40684 1.93252,-0.0177 12.46717,-0.0709 23.41033,-0.11828 14.16132,-0.0613 20.10095,-0.1143 20.60534,-0.18401 0.46316,-0.064 0.88075,-0.18481 1.20538,-0.34869 0.2732,-0.1379 0.68464,-0.29104 0.91433,-0.3403 0.30585,-0.0656 0.5454,-0.20138 0.89505,-0.50735 0.26258,-0.22977 0.50846,-0.41777 0.5464,-0.41777 0.0678,0 0.91499,-0.65107 1.56351,-1.20155 0.1815,-0.15407 0.44536,-0.3503 0.58635,-0.43608 0.141,-0.0858 0.62475,-0.48582 1.07501,-0.889 0.9335,-0.83586 1.6217,-1.38222 2.20312,-1.74904 0.43496,-0.27441 0.87114,-0.62797 1.51455,-1.22767 0.70461,-0.65672 1.90175,-1.60853 2.54596,-2.0242 0.4451,-0.28719 1.35323,-1.02855 2.667,-2.17722 0.4318,-0.37754 0.97562,-0.79147 1.56634,-1.19223 0.25611,-0.17377 0.62361,-0.4505 0.81665,-0.61497 0.19304,-0.16448 0.60698,-0.50859 0.91987,-0.76471 0.31289,-0.25612 0.7455,-0.61951 0.96135,-0.80753 0.4462,-0.38866 1.23583,-0.9961 1.70182,-1.30914 0.30337,-0.20379 0.53663,-0.39316 1.61656,-1.31233 0.27356,-0.23284 0.71773,-0.60382 0.98706,-0.82442 0.26933,-0.2206 0.67361,-0.55451 0.89841,-0.74204 0.22479,-0.18754 0.52959,-0.40258 0.67733,-0.47789 0.14774,-0.0753 0.44772,-0.29385 0.66662,-0.48563 0.2189,-0.19178 0.67149,-0.57729 1.00576,-0.856688 0.33426,-0.2794 0.7125,-0.616187 0.84051,-0.748411 0.12802,-0.132224 0.36382,-0.322724 0.524,-0.423334 0.32802,-0.206011 1.15006,-0.849782 1.7742,-1.389422 0.2289,-0.197908 0.44548,-0.359833 0.48129,-0.359833 0.0358,0 0.2764,-0.200025 0.53466,-0.4445 0.75726,-0.716856 1.21426,-1.065319 2.78124,-2.120731 0.30269,-0.203869 0.60596,-0.438006 0.67395,-0.520319 0.068,-0.0823 0.31564,-0.234874 0.55033,-0.339048 0.2347,-0.104174 0.54102,-0.285453 0.68072,-0.402835 0.1397,-0.117382 0.40905,-0.2921 0.59855,-0.388256 0.1895,-0.09616 0.50655,-0.310177 0.70456,-0.475607 0.198,-0.165422 0.50392,-0.33953 0.67983,-0.386893 0.1759,-0.04736 0.4494,-0.179916 0.60778,-0.294563 0.44177,-0.319803 0.85074,-0.526915 1.17695,-0.596054 0.16298,-0.03454 0.4814,-0.197849 0.7076,-0.362898 0.2262,-0.165041 0.65341,-0.367225 0.94935,-0.449292 0.29594,-0.08206 0.71514,-0.271018 0.93153,-0.419905 0.2164,-0.148886 0.60835,-0.325416 0.87098,-0.392286 0.26265,-0.06688 0.68907,-0.250342 0.94762,-0.407712 0.25853,-0.15737 0.73478,-0.351375 1.05833,-0.431131 0.32354,-0.07975 0.8365,-0.268554 1.13991,-0.419557 0.30341,-0.151003 0.81776,-0.340614 1.143,-0.421352 0.32524,-0.08074 0.74004,-0.221844 0.92178,-0.31358 0.48745,-0.246042 0.93839,-0.393015 1.7489,-0.570002 0.41885,-0.09146 0.95481,-0.283582 1.27,-0.455235 0.44061,-0.239954 0.70465,-0.316628 1.37495,-0.399255 0.62226,-0.07671 0.97774,-0.173253 1.42225,-0.386283 0.56299,-0.269807 0.83834,-0.335661 2.24523,-0.536998 0.33133,-0.04741 0.87188,-0.20088 1.20122,-0.341021 0.32934,-0.140148 0.8774,-0.290322 1.21791,-0.333713 0.34051,-0.0434 0.96761,-0.122308 1.39355,-0.17536 0.42595,-0.05305 1.14985,-0.20927 1.60867,-0.347151 0.81282,-0.244265 1.26863,-0.308531 3.54355,-0.499624 1.39841,-0.117467 2.19635,-0.229316 3.048,-0.427245 1.96825,-0.457435 13.1032,-0.450734 16.04375,0.0097 1.40959,0.220692 3.37726,0.398346 5.54625,0.500751 2.26218,0.106806 2.60109,0.14206 3.683,0.383119 0.88294,0.196725 2.7089,0.374302 5.63034,0.547558 0.93753,0.05561 1.89868,0.167971 2.49766,0.291999 0.96288,0.199381 2.90291,0.38735 5.73551,0.555718 0.97379,0.05788 1.86282,0.168741 2.67019,0.332986 0.80218,0.163186 1.72321,0.278477 2.73116,0.341875 0.83644,0.05261 2.07326,0.131352 2.74848,0.174972 0.67521,0.04362 1.74201,0.175624 2.37066,0.293345 1.3193,0.247049 2.95631,0.435322 4.826,0.555041 0.72179,0.04622 1.76538,0.159884 2.3191,0.252603 1.32837,0.222419 3.64338,0.47514 5.4279,0.592556 0.79164,0.05209 1.91559,0.184828 2.49767,0.294987 1.15242,0.218093 2.90314,0.417195 4.826,0.548844 1.3473,0.09224 2.06389,0.183625 3.34433,0.426482 0.46567,0.08832 1.58962,0.219863 2.49767,0.292304 2.31482,0.184658 2.97196,0.269367 3.91589,0.504732 1.09265,0.272457 1.19628,0.284395 3.70411,0.426643 2.126,0.1206 2.91123,0.224257 4.20478,0.555092 0.47073,0.120396 1.2779,0.202159 2.87045,0.290771 2.26063,0.125781 2.41482,0.146261 3.8891,0.516441 0.69227,0.173821 1.25585,0.234611 3.09034,0.333358 1.68086,0.09048 2.40295,0.163593 2.87867,0.291482 1.27079,0.341622 1.7635,0.424603 3.25966,0.549038 0.8382,0.06971 2.26695,0.259131 3.175,0.420929 0.908052,0.161798 2.222502,0.335161 2.921002,0.385242 1.465157,0.105071 2.029054,0.178934 3.894667,0.510184 0.745066,0.132292 1.926166,0.283582 2.624666,0.336203 1.402318,0.10563 1.673556,0.143103 3.640667,0.502971 0.745067,0.136304 1.964267,0.292641 2.709334,0.347404 0.747979,0.05498 2.169905,0.245508 3.175,0.425424 1.001183,0.179214 2.163233,0.349217 2.582333,0.377775 1.362752,0.09287 2.353581,0.220751 3.259667,0.420708 1.443287,0.318516 2.41957,0.462221 3.767667,0.554584 1.351864,0.09262 2.290792,0.233756 3.386666,0.509084 0.372534,0.0936 1.363134,0.226102 2.201334,0.294453 1.732415,0.141275 2.356603,0.230649 3.556,0.509152 1.070093,0.248488 1.25934,0.274794 2.737231,0.380458 0.667275,0.04772 1.562625,0.166141 1.989667,0.263178 1.639824,0.372626 1.911485,0.420472 3.062435,0.539411 0.651934,0.06738 1.547284,0.215409 1.989667,0.328956 1.085325,0.278601 1.652126,0.365751 3.344334,0.514291 0.998076,0.0876 1.659957,0.19271 2.159,0.34284 0.723129,0.21754 1.882063,0.38423 3.767666,0.54193 0.713842,0.0597 1.204849,0.15215 1.651,0.31088 0.665574,0.23679 1.012834,0.28905 3.316445,0.49913 0.942585,0.086 1.631645,0.19687 2.074333,0.33388 0.830817,0.25713 1.482733,0.35991 3.245223,0.51161 0.970381,0.0835 1.603849,0.18451 2.074333,0.33068 0.946514,0.29407 1.482361,0.38825 3.203677,0.56307 0.458156,0.0465 1.299785,0.1981 1.870286,0.33683 1.161373,0.28242 1.735608,0.37241 3.252919,0.50981 0.586046,0.0531 1.366283,0.18762 1.775367,0.30617 0.788213,0.22841 1.803976,0.39607 3.275085,0.54058 0.512233,0.0503 1.306288,0.1856 1.764572,0.30062 0.996763,0.25019 2.040881,0.42161 3.354112,0.55064 0.709828,0.0697 1.138733,0.16234 1.599006,0.34518 0.664363,0.26391 1.200303,0.35017 3.0733834,0.49466 1.1341777,0.0875 1.3955099,0.1428 2.3872529,0.50524 0.3670978,0.13416 0.9032579,0.21151 2.0832234,0.30054 1.4230689,0.10737 1.6796343,0.15111 2.4583391,0.41902 0.71731291,0.24679 1.07129579,0.3147 2.02311001,0.38809 1.45993279,0.11258 1.94442929,0.19821 2.81996729,0.49844 0.4775285,0.16374 1.1133667,0.28874 1.9743675,0.38814 0.6985,0.0806 1.5748,0.23423 1.9473334,0.34131 0.9328658,0.26815 1.8175986,0.43596 2.6560865,0.50379 0.3898135,0.0315 1.1518135,0.16687 1.6933335,0.30076 1.519419,0.37566 1.736327,0.41713 2.66137,0.5089 0.474768,0.0471 1.51091,0.23527 2.302544,0.41814 0.791633,0.18288 1.858433,0.37417 2.370666,0.42509 0.512234,0.0509 1.540934,0.24141 2.286,0.42329 0.745067,0.18189 1.879109,0.39122 2.520095,0.46519 0.646693,0.0746 1.532298,0.24237 1.989667,0.37685 1.017033,0.29905 1.507837,0.39368 2.644572,0.5099 0.48895,0.05 1.47955,0.23963 2.201333,0.42141 0.767639,0.19333 1.646174,0.35481 2.116667,0.38907 0.442383,0.0322 1.337733,0.16807 1.989667,0.30191 1.439587,0.29555 1.738977,0.3057 1.955376,0.0663 0.276361,-0.30577 0.21082,-1.06978 -0.169909,-1.98055 -0.175192,-0.4191 -0.392938,-1.10008 -0.483878,-1.5133 -0.09094,-0.41322 -0.29812,-1.0911 -0.460409,-1.50641 -0.162289,-0.41531 -0.349072,-1.0374 -0.415087,-1.38242 -0.06601,-0.34502 -0.234747,-0.88868 -0.374946,-1.20813 -0.248649,-0.56652 -0.32788,-0.84257 -0.51606,-1.79807 -0.05044,-0.25612 -0.223453,-0.7205 -0.384472,-1.03196 -0.188654,-0.36493 -0.350223,-0.8617 -0.454363,-1.397 -0.08888,-0.45689 -0.295098,-1.13551 -0.458259,-1.50805 -0.163161,-0.37253 -0.354321,-0.9868 -0.424806,-1.36505 -0.07048,-0.378253 -0.24605,-0.939923 -0.39017,-1.248169 -0.144111,-0.308237 -0.302759,-0.760755 -0.352543,-1.005603 -0.04978,-0.244847 -0.185175,-0.837793 -0.300863,-1.31765 -0.131869,-0.546947 -0.21408,-1.147157 -0.220345,-1.608667 -0.0088,-0.649215 0.02354,-0.821114 0.273829,-1.454929 0.233434,-0.591142 0.367766,-0.798356 0.756699,-1.16724 0.26008,-0.246676 0.568122,-0.500219 0.684539,-0.563423 0.341833,-0.185572 1.391234,-0.237498 2.737392,-0.135441 1.067045,0.0809 1.373954,0.137998 2.042626,0.380052 0.582625,0.210904 1.088347,0.319633 1.948027,0.418829 1.08309,0.124976 2.296965,0.368198 2.808724,0.562762 0.121107,0.04605 0.872854,0.159622 1.670549,0.252383 0.797696,0.09277 1.983749,0.299635 2.635682,0.459715 0.651934,0.160087 1.585384,0.331986 2.074334,0.382016 1.068942,0.109364 2.063504,0.288298 3.090333,0.555997 0.4191,0.109263 1.2192,0.241021 1.778,0.292795 0.5588,0.05177 1.7018,0.241579 2.54,0.4218 0.8382,0.180222 2.00025,0.370917 2.582334,0.423774 0.673642,0.06117 1.535345,0.217331 2.370666,0.429607 0.801988,0.20381 1.690972,0.367056 2.286,0.419794 1.537234,0.136238 2.257155,0.247337 3.302,0.509584 0.575522,0.14445 1.527607,0.29712 2.328334,0.373371 1.489676,0.141851 1.612883,0.169088 2.413,0.533553 0.302683,0.137871 0.705908,0.316255 0.896053,0.396401 0.248793,0.104868 0.470721,0.312767 0.791591,0.741536 0.594588,0.794543 0.717109,1.174823 0.662178,2.055293 -0.04075,0.65315 -0.07047,0.7418 -0.472127,1.40831 -0.376005,0.62394 -0.60474,0.87276 -1.304984,1.41957 -0.222648,0.17386 -1.895264,0.32231 -3.366711,0.29879 -8.340861,-0.1333 -15.270193,-0.39767 -16.12381,-0.61517 -0.183414,-0.0467 -0.442282,-0.0632 -0.57526,-0.0366 -0.132977,0.0266 -0.516314,0.004 -0.851856,-0.0494 -0.335543,-0.0537 -0.952975,-0.113 -1.372075,-0.1317 -0.4191,-0.0187 -1.131578,-0.0617 -1.583292,-0.0954 -0.694952,-0.052 -0.854507,-0.0397 -1.037166,0.08 -0.30066,0.197 -0.276818,0.50226 0.07969,1.02035 0.215197,0.31274 0.338286,0.63081 0.452687,1.16984 0.100753,0.47473 0.252671,0.89401 0.423477,1.16879 0.146499,0.23567 0.34561,0.74073 0.442468,1.12235 0.09686,0.38164 0.283287,0.86533 0.414274,1.07488 0.245585,0.39287 0.37537,0.75063 0.463229,1.27691 0.02785,0.16679 0.183955,0.52466 0.346913,0.79527 0.162958,0.27062 0.368833,0.77523 0.457496,1.12135 0.08867,0.34611 0.262865,0.78291 0.387105,0.97064 0.124231,0.18773 0.315281,0.57885 0.424544,0.86914 0.109271,0.29029 0.334619,0.77514 0.500786,1.07745 0.166167,0.3023 0.302125,0.62528 0.302125,0.71774 0,0.36198 0.265514,1.03103 0.584124,1.4719 0.685495,0.94855 0.587535,0.88477 1.376205,0.896 0.388671,0.006 1.430571,0.051 2.315338,0.10106 2.206811,0.12482 6.665688,0.25993 10.371666,0.31426 1.699684,0.0249 3.471334,0.0772 3.937001,0.11616 0.465666,0.039 1.096069,0.074 1.400894,0.0778 0.304826,0.004 0.723926,0.0461 0.931334,0.0939 0.207408,0.0478 0.739055,0.088 1.181438,0.0892 0.442384,0.001 1.135304,0.0602 1.539816,0.13099 0.404521,0.0708 0.937921,0.12073 1.185333,0.11102 0.411091,-0.0161 5.023384,0.1243 11.837518,0.36035 1.46685,0.0508 3.1623,0.12594 3.767667,0.16694 0.605367,0.041 1.653117,0.11064 2.328334,0.15473 0.675216,0.0441 3.494616,0.15813 6.265334,0.25342 2.77071,0.0953 6.29496,0.21632 7.83166,0.26897 1.5367,0.0527 3.3274,0.12956 3.97934,0.17091 3.18521,0.202 3.86669,0.24016 5.715,0.31999 2.19881,0.095 6.5201,0.23813 9.525,0.31555 2.87175,0.074 3.49016,0.0991 5.12233,0.20794 0.81492,0.0543 1.95792,0.12834 2.54,0.16444 1.82033,0.11288 7.67847,0.33325 11.38767,0.42838 3.78921,0.0972 4.01143,0.10584 6.56167,0.2558 0.90805,0.0534 1.89865,0.11125 2.20133,0.12857 0.30268,0.0173 1.08373,0.0712 1.73567,0.11972 1.21445,0.0904 4.37011,0.20216 9.906,0.3508 1.72296,0.0463 3.70416,0.11872 4.40266,0.16101 0.6985,0.0423 1.8034,0.1098 2.45534,0.15001 0.65193,0.0402 1.37583,0.11533 1.60866,0.16693 0.46941,0.10404 4.45294,0.24521 8.93234,0.31654 3.37705,0.0538 7.39269,0.19168 7.67977,0.26374 0.29706,0.0746 0.67501,-0.12137 0.81389,-0.42193 0.068,-0.14704 0.14985,-0.53405 0.18199,-0.86002 0.0321,-0.32597 0.0957,-0.74507 0.14132,-0.93133 0.14626,-0.59761 0.23789,-4.58911 0.23865,-10.39674 0,-3.12634 0.0378,-5.98495 0.0837,-6.39233 0.0774,-0.68852 0.18308,-18.041163 0.30828,-50.646037 0.0269,-7.007238 0.0744,-12.779388 0.10551,-12.827 0.0311,-0.04761 0.0846,-2.524969 0.11887,-5.505236 0.0342,-2.980267 0.0999,-7.971367 0.14584,-11.091334 0.046,-3.119966 0.0842,-6.815666 0.0851,-8.212666 0.001,-2.254909 0.0247,-2.695964 0.2087,-3.929549 l 0.2072,-1.389548 0.55385,-0.558124 c 0.53107,-0.535166 0.59081,-0.569708 1.45238,-0.839768 0.49419,-0.154904 1.13752,-0.3188512 1.42961,-0.3643257 0.30049,-0.046782 1.88704,-0.070766 3.65408,-0.055239 l 3.12299,0.027443 0.96978,0.4043137 c 1.02095,0.425647 1.60749,0.872853 2.27644,1.73566 0.15559,0.200675 0.38321,0.403006 0.50582,0.449623 0.14303,0.05438 2.81847,0.08219 7.46411,0.07758 6.09707,-0.006 7.35489,0.01297 7.96085,0.120317 1.09803,0.194521 26.30048,0.19437 27.42774,-1.69e-4 0.62833,-0.108432 1.46375,-0.126514 4.88953,-0.105834 4.05487,0.02448 4.14129,0.02851 4.64579,0.216799 0.28273,0.10552 0.78494,0.243474 1.11604,0.306561 0.4771,0.09091 0.68595,0.182852 1.00661,0.443145 0.69545,0.564534 1.56252,1.499138 1.71917,1.853074 0.0826,0.186616 0.25225,0.460614 0.37701,0.608882 0.12475,0.148268 0.31866,0.539548 0.43088,0.869511 0.11223,0.329962 0.31991,0.740479 0.4615,0.912259 0.14159,0.17178 0.33953,0.561263 0.43984,0.86552 0.10032,0.304255 0.28929,0.705592 0.41994,0.891859 0.13065,0.186266 0.32153,0.567266 0.42418,0.846666 0.10265,0.2794 0.27327,0.622326 0.37915,0.762057 0.10589,0.139732 0.30479,0.545616 0.442,0.901964 0.13722,0.356349 0.34469,0.775423 0.46103,0.931276 0.11635,0.155854 0.29445,0.51197 0.39578,0.79137 0.10132,0.2794 0.29084,0.6604 0.42115,0.846667 0.13031,0.186267 0.30485,0.519136 0.38787,0.73971 0.083,0.220573 0.28036,0.601573 0.43854,0.846666 0.15817,0.245093 0.36313,0.693274 0.45547,0.995957 0.0923,0.302684 0.28275,0.70129 0.42314,0.885793 0.14039,0.184503 0.33051,0.579089 0.42249,0.876857 0.092,0.297769 0.28602,0.691388 0.4312,0.874709 0.1452,0.183321 0.33563,0.563482 0.42319,0.844802 0.0876,0.28132 0.27406,0.671445 0.41446,0.866943 0.1404,0.1955 0.33257,0.558887 0.42704,0.80753 0.0945,0.248643 0.26646,0.576207 0.38217,0.727922 0.11573,0.151715 0.30484,0.516812 0.42026,0.811325 0.11541,0.294514 0.3091,0.678702 0.43041,0.85375 0.12131,0.175049 0.30899,0.56188 0.41707,0.859623 0.10806,0.297744 0.31216,0.72374 0.45353,0.946659 0.14137,0.222918 0.32062,0.599807 0.39833,0.837531 0.0777,0.237722 0.28565,0.679873 0.46209,0.982556 0.17645,0.302684 0.36244,0.709343 0.4133,0.903687 0.0509,0.194343 0.24516,0.556293 0.43176,0.804333 0.18662,0.248039 0.37668,0.60338 0.42239,0.789647 0.09,0.366871 0.16952,0.522568 0.52707,1.032153 0.1284,0.182992 0.28264,0.520918 0.34275,0.750947 0.0601,0.230029 0.24982,0.621775 0.42156,0.87055 0.17174,0.248773 0.35331,0.610723 0.40348,0.804333 0.0502,0.193609 0.22461,0.54887 0.38762,0.789469 0.16301,0.240598 0.36673,0.621598 0.45271,0.846666 0.086,0.225069 0.29194,0.633692 0.45769,0.908053 0.16575,0.27436 0.35863,0.69346 0.42861,0.931333 0.07,0.237873 0.26241,0.621306 0.42763,0.852075 0.16522,0.230769 0.3245,0.570281 0.35395,0.754473 0.0299,0.187232 0.21511,0.570866 0.41996,0.870073 0.20151,0.294348 0.40879,0.703579 0.46063,0.909404 0.0518,0.205825 0.24367,0.573112 0.42631,0.816195 0.18265,0.243082 0.375,0.612391 0.42746,0.820685 0.0524,0.208294 0.22674,0.569719 0.38733,0.803167 0.16058,0.233448 0.363,0.630904 0.44981,0.883235 0.0868,0.252331 0.29211,0.676825 0.4562,0.94332 0.16409,0.266495 0.35417,0.670843 0.42238,0.898553 0.0682,0.22771 0.25569,0.62776 0.4166,0.889 0.16091,0.26124 0.33521,0.634163 0.38734,0.828717 0.0521,0.194554 0.23182,0.556504 0.39934,0.804333 0.16751,0.24783 0.35633,0.62343 0.41961,0.834667 0.0633,0.211237 0.26782,0.588814 0.45453,0.839059 0.18671,0.250245 0.36412,0.591764 0.39424,0.758932 0.0673,0.373482 0.15142,0.5411 0.50463,1.005561 0.15465,0.203364 0.302,0.519796 0.3351,0.719666 0.0722,0.435843 0.15554,0.602035 0.51213,1.021036 0.16774,0.197087 0.30015,0.464499 0.33539,0.677334 0.0684,0.41295 0.14926,0.584228 0.46825,0.991416 0.12971,0.165589 0.31418,0.507239 0.40993,0.759221 0.0958,0.251983 0.29323,0.62406 0.43886,0.826839 0.14562,0.202778 0.3211,0.585028 0.38994,0.849444 0.0688,0.264417 0.25327,0.659393 0.40984,0.877724 0.15655,0.218331 0.34483,0.603944 0.41837,0.856917 0.0735,0.252972 0.26583,0.645787 0.42732,0.872922 0.16148,0.227134 0.35451,0.622571 0.42894,0.87875 0.0744,0.256178 0.26612,0.644028 0.42598,0.861888 0.15987,0.217861 0.34757,0.587724 0.41711,0.821919 0.0695,0.234194 0.26507,0.607407 0.43449,0.82936 0.16942,0.221952 0.37812,0.637148 0.46377,0.922656 0.0857,0.285509 0.26394,0.66848 0.3962,0.851048 0.13225,0.182568 0.32297,0.579896 0.42382,0.882951 0.10085,0.303054 0.29319,0.684245 0.42742,0.847089 0.13423,0.162845 0.32586,0.561609 0.42586,0.886141 0.1,0.324533 0.28398,0.74246 0.40885,0.928726 0.12488,0.186267 0.3071,0.532504 0.40495,0.769416 0.0978,0.236911 0.29518,0.579811 0.4385,0.762 0.14332,0.182188 0.32435,0.559851 0.4023,0.839251 0.0779,0.2794 0.25804,0.654664 0.40021,0.833919 0.14218,0.179255 0.33199,0.570881 0.4218,0.870279 0.092,0.306519 0.2757,0.672353 0.42054,0.837309 0.14512,0.165295 0.32862,0.530979 0.42108,0.839191 0.0951,0.316916 0.28436,0.690448 0.45085,0.88972 0.15782,0.188908 0.35086,0.543593 0.42894,0.788195 0.0781,0.244594 0.26902,0.635221 0.42428,0.868054 0.15525,0.232833 0.37808,0.679408 0.49517,0.992386 0.11709,0.312979 0.30995,0.711878 0.42857,0.886443 0.11861,0.174566 0.29481,0.555211 0.39154,0.845888 0.0967,0.290678 0.27067,0.668181 0.38652,0.838911 0.11586,0.170722 0.30541,0.562695 0.42124,0.87106 0.11581,0.308356 0.30597,0.69866 0.42255,0.867342 0.11658,0.16869 0.28892,0.51159 0.38298,0.762 0.094,0.250418 0.29029,0.60535 0.4361,0.788746 0.1458,0.183396 0.34809,0.586816 0.44952,0.896485 0.10144,0.309676 0.30168,0.724916 0.445,0.922756 0.14331,0.197841 0.31796,0.557141 0.38811,0.798432 0.0702,0.241292 0.26341,0.628506 0.42948,0.860468 0.16607,0.231961 0.36132,0.6313 0.43388,0.887416 0.0726,0.256117 0.25967,0.656167 0.41579,0.889 0.15612,0.232836 0.36182,0.606056 0.45711,0.829396 0.0953,0.22332 0.27228,0.53588 0.39331,0.69456 0.12103,0.15868 0.29345,0.53315 0.38316,0.83216 0.0897,0.29901 0.26447,0.69131 0.38836,0.87177 0.12391,0.18046 0.32741,0.59944 0.45224,0.93105 0.12483,0.33162 0.32792,0.7353 0.4513,0.89706 0.12339,0.16176 0.29717,0.50584 0.38621,0.76462 0.19645,0.571 0.31238,0.79733 0.56242,1.09805 0.10519,0.12651 0.27332,0.47665 0.37364,0.77809 0.10031,0.30144 0.29448,0.68913 0.43149,0.86154 0.13701,0.17239 0.32343,0.55408 0.41427,0.84818 0.0908,0.2941 0.29988,0.73058 0.46454,0.96996 0.16466,0.23937 0.35376,0.61833 0.42022,0.84214 0.0665,0.22381 0.25681,0.60458 0.42299,0.84616 0.16617,0.24157 0.34319,0.59764 0.39336,0.79124 0.0502,0.19361 0.21936,0.54252 0.37596,0.77536 0.1566,0.23283 0.36191,0.62821 0.45624,0.87863 0.0943,0.25041 0.27279,0.60147 0.39659,0.78011 0.12381,0.17866 0.31683,0.57754 0.42895,0.88642 0.11212,0.30887 0.31183,0.71983 0.4438,0.91322 0.13197,0.19339 0.32364,0.58022 0.42596,0.85962 0.1023,0.2794 0.29163,0.6604 0.42073,0.84666 0.25136,0.36268 0.39361,0.69344 0.47335,1.10067 0.0274,0.1397 0.18074,0.41953 0.34087,0.62185 0.16013,0.20232 0.36955,0.57741 0.46537,0.83354 0.0958,0.25611 0.27188,0.59368 0.39121,0.75013 0.11933,0.15646 0.32158,0.56242 0.44943,0.90214 0.12786,0.33972 0.33123,0.76148 0.45194,0.93725 0.12071,0.17576 0.32093,0.58509 0.44494,0.90961 0.12401,0.32452 0.26106,0.61203 0.30455,0.63891 0.12289,0.076 0.47128,0.80803 0.54135,1.13757 0.0347,0.16298 0.2093,0.54398 0.38808,0.84667 0.17878,0.30268 0.38355,0.71656 0.45503,0.91971 0.0715,0.20316 0.23673,0.49098 0.36722,0.6396 0.24375,0.27762 0.353,0.51388 0.51478,1.11337 0.0511,0.18938 0.22263,0.51323 0.38116,0.71966 0.15853,0.20643 0.3488,0.58805 0.42284,0.84804 0.074,0.26 0.26791,0.641 0.43085,0.84667 0.18555,0.23421 0.33036,0.53784 0.38752,0.81258 0.057,0.27405 0.20074,0.57584 0.38302,0.80433 0.16045,0.20114 0.36699,0.56488 0.45898,0.80832 0.092,0.24345 0.28018,0.59852 0.4182,0.78905 0.13801,0.19052 0.33179,0.58935 0.4306,0.88629 0.0988,0.29694 0.2482,0.62767 0.33198,0.73496 0.208,0.26641 0.47767,0.81886 0.54982,1.12642 0.0328,0.1397 0.20676,0.50165 0.38664,0.80433 0.17988,0.30268 0.36908,0.71073 0.42044,0.90675 0.0514,0.19603 0.23163,0.53754 0.4006,0.75891 0.16897,0.22136 0.37283,0.61915 0.45301,0.88398 0.0802,0.26482 0.28286,0.66101 0.45038,0.88041 0.16752,0.2194 0.32966,0.53751 0.36029,0.70693 0.0673,0.37192 0.24224,0.73375 0.50993,1.05448 0.10947,0.13116 0.26127,0.45501 0.33733,0.71967 0.0761,0.26466 0.27169,0.66428 0.4347,0.88804 0.16302,0.22377 0.35085,0.59254 0.41738,0.81952 0.0665,0.22696 0.26612,0.63724 0.44353,0.91173 0.17741,0.27449 0.36999,0.64866 0.42796,0.83149 0.058,0.18283 0.20935,0.46577 0.33641,0.62876 0.32335,0.41477 0.41391,0.60404 0.51539,1.07726 0.0487,0.22711 0.23944,0.63523 0.42384,0.90692 0.1844,0.27171 0.33549,0.53649 0.33575,0.58841 0.001,0.2848 0.20949,0.76202 0.4662,1.06928 0.16063,0.19226 0.3322,0.50877 0.38125,0.70335 0.12844,0.50944 0.23114,0.72546 0.51575,1.08482 0.13876,0.17519 0.31385,0.50148 0.3891,0.72508 0.0752,0.2236 0.27671,0.61609 0.4477,0.87221 0.17099,0.25612 0.37573,0.66716 0.45499,0.91342 0.0793,0.24626 0.25432,0.62726 0.38903,0.84666 0.13471,0.21941 0.32444,0.61197 0.42162,0.87236 0.0972,0.26038 0.30956,0.66031 0.47195,0.88873 0.1624,0.2284 0.29548,0.45351 0.29574,0.50023 10e-4,0.25796 0.21014,0.76093 0.47627,1.14782 0.16657,0.24217 0.36159,0.61643 0.43336,0.83171 0.0718,0.21527 0.26021,0.57056 0.41877,0.78952 0.15855,0.21897 0.35642,0.64387 0.43971,0.94423 0.0866,0.31226 0.26969,0.69543 0.42758,0.89479 0.15674,0.1979 0.32954,0.55844 0.39961,0.83377 0.0679,0.2668 0.25603,0.68049 0.41807,0.91931 0.20558,0.30298 0.32136,0.59723 0.38311,0.97366 0.13808,0.84162 0.2948,1.4246 0.54024,2.00968 0.29902,0.7128 0.41616,2.25282 0.3439,4.52133 -0.0542,1.70255 -0.0784,1.84526 -0.51038,3.01556 -0.0753,0.20411 -0.20784,0.78637 -0.29443,1.29392 -0.13355,0.78273 -0.2041,0.99054 -0.46482,1.3691 -0.16906,0.24546 -0.33055,0.59664 -0.35886,0.78041 -0.0627,0.40689 -0.1444,0.57391 -0.4948,1.01146 -0.14917,0.18626 -0.33423,0.52785 -0.41125,0.75908 -0.077,0.23123 -0.25663,0.5407 -0.39913,0.68773 -0.1425,0.14702 -0.38014,0.44151 -0.52808,0.65442 -0.90206,1.29812 -2.76653,3.2371 -3.65567,3.80176 -0.18627,0.1183 -0.43392,0.31859 -0.55034,0.44512 -0.11641,0.12652 -0.36406,0.30672 -0.55033,0.40044 -0.18627,0.0937 -0.43717,0.26259 -0.55756,0.37525 -0.1204,0.11267 -0.46788,0.29515 -0.77217,0.40553 -0.3043,0.11037 -0.7137,0.31688 -0.90977,0.45892 -0.23488,0.17014 -0.578,0.3062 -1.00582,0.39885 -0.35715,0.0773 -0.88856,0.27223 -1.18094,0.43309 -0.44566,0.24519 -0.6646,0.3057 -1.35466,0.37438 -1.44327,0.14364 -1.84638,0.22426 -2.45357,0.49076 -0.39198,0.17204 -0.89193,0.3024 -1.47196,0.38383 -1.11349,0.1563 -1.58651,0.26217 -2.27388,0.50889 -0.30269,0.10864 -0.91229,0.24282 -1.35467,0.29818 -0.85568,0.10706 -2.09145,0.36515 -2.69299,0.56244 -0.20055,0.0658 -0.9435,0.21827 -1.651,0.33888 -0.70749,0.12061 -1.62924,0.32749 -2.04834,0.45972 -0.4191,0.13223 -1.20826,0.30109 -1.75367,0.37523 -0.8978,0.12206 -2.03042,0.42005 -2.45001,0.64461 -0.0889,0.0476 -0.64631,0.14261 -1.23866,0.21118 -1.18865,0.13757 -1.87943,0.29104 -2.45395,0.54517 -0.20875,0.0923 -0.72729,0.20935 -1.1523,0.26002 -1.13333,0.13512 -1.97131,0.31684 -2.59308,0.56235 -0.37007,0.14613 -0.89699,0.25544 -1.60867,0.33375 -0.71316,0.0785 -1.36696,0.21425 -2.00463,0.41634 -0.52045,0.16495 -1.3015,0.34981 -1.73566,0.41081 -0.43416,0.061 -1.18942,0.24783 -1.67837,0.41519 -0.64489,0.22072 -1.19124,0.33838 -1.98967,0.42846 -0.73687,0.0831 -1.26857,0.19266 -1.60867,0.33136 -0.50848,0.20739 -1.43835,0.39888 -2.70933,0.55799 -0.37253,0.0466 -0.90593,0.16481 -1.18533,0.26262 -0.92882,0.32513 -1.3461,0.42123 -2.37067,0.54597 -0.64116,0.0781 -1.35632,0.23405 -1.93843,0.4228 -0.60205,0.19522 -1.2784,0.34065 -1.94733,0.41872 -0.5637,0.0658 -1.23446,0.20028 -1.49058,0.29887 -0.68934,0.26537 -1.63288,0.48799 -2.54,0.5993 -0.44238,0.0543 -1.1343,0.2079 -1.5376,0.34136 -0.739,0.24456 -1.71639,0.44886 -2.6534,0.55463 -0.2794,0.0315 -0.9271,0.18582 -1.43933,0.34284 -0.51223,0.15704 -1.46185,0.36339 -2.11027,0.45858 -0.64841,0.0952 -1.39136,0.24427 -1.651,0.33129 -0.71003,0.23798 -1.40803,0.39902 -2.20773,0.50939 -0.39582,0.0546 -0.94827,0.19452 -1.22767,0.31088 -0.73721,0.30706 -1.26147,0.4318 -2.07433,0.49358 -1.0882,0.0827 -1.63396,0.19538 -2.28195,0.47113 -0.4391,0.18685 -0.86446,0.28287 -1.67131,0.37724 -1.45542,0.17025 -1.59249,0.19994 -2.21784,0.48029 -0.39431,0.17678 -0.77267,0.26568 -1.397,0.32825 -1.51527,0.15186 -1.964,0.24194 -2.53416,0.50874 -0.47949,0.22439 -0.74312,0.27998 -1.85354,0.39085 -1.12134,0.11196 -1.37949,0.16697 -1.92953,0.41114 -0.44336,0.19682 -0.91608,0.32286 -1.56634,0.41766 -0.8249,0.12025 -1.27886,0.22619 -2.96061,0.69091 -0.23134,0.0639 -0.54146,0.11623 -0.68915,0.11623 -0.44078,0 -1.63117,0.24738 -2.46717,0.51271 -0.43062,0.13667 -1.15452,0.28908 -1.60867,0.33869 -0.85037,0.0929 -1.34858,0.2006 -2.51906,0.54456 -0.37254,0.10947 -1.15359,0.26433 -1.73567,0.34414 -0.58208,0.0798 -1.32503,0.23702 -1.651,0.34938 -1.04192,0.35912 -1.33153,0.42651 -2.49676,0.58094 -1.06042,0.14054 -1.54811,0.25671 -2.41391,0.57497 -0.18626,0.0685 -0.60536,0.14951 -0.93133,0.18009 -1.13452,0.10643 -2.2571,0.3062 -2.90446,0.51688 -0.67317,0.21906 -0.78005,0.23065 -4.67321,0.50624 -1.04775,0.0742 -2.5527,0.22788 -3.34433,0.34155 -0.83332,0.11967 -2.24141,0.24229 -3.34433,0.29125 -2.18583,0.097 -3.41225,0.19661 -5.207,0.42277 -1.94047,0.24452 -3.11557,0.33016 -6.38938,0.46565 -3.04466,0.12601 -3.32443,0.14855 -5.67562,0.4575 -1.54535,0.20306 -3.23527,0.31628 -5.79967,0.38856 -2.03511,0.0574 -3.38157,0.16651 -5.67267,0.4598 -1.41069,0.1806 -2.65708,0.26463 -5.72577,0.38606 -2.8572,0.11305 -3.93508,0.20471 -6.38156,0.54269 -0.72126,0.0996 -3.33522,0.23757 -6.51933,0.344 -1.30387,0.0436 -2.67547,0.11992 -3.048,0.16963 -2.99853,0.40013 -4.97517,0.56024 -8.42434,0.68235 -2.4713,0.0875 -3.95631,0.1837 -7.02733,0.45525 -2.25775,0.19964 -3.94509,0.29898 -6.64634,0.3913 -1.397,0.0477 -3.1115,0.13005 -3.81,0.18292 -0.6985,0.0529 -1.40335,0.0922 -1.56633,0.0875 -0.16298,-0.005 -0.56208,0.0321 -0.88689,0.0819 -0.32481,0.0498 -0.78201,0.0987 -1.016,0.10873 -0.23399,0.01 -1.37794,0.08 -2.54211,0.15559 -1.16417,0.0755 -3.79307,0.19667 -5.842,0.26917 -2.04893,0.0725 -4.04918,0.1683 -4.445,0.21288 -1.97748,0.22271 -3.617,0.35164 -4.86833,0.38285 -3.49419,0.0872 -9.46552,0.31297 -10.033,0.37942 -0.39582,0.0463 -0.94827,0.0812 -1.22767,0.0775 -0.2794,-0.004 -0.8475,0.0568 -1.26245,0.1346 -0.41494,0.0778 -0.89053,0.12551 -1.05687,0.10609 -0.16633,-0.0194 -0.70314,0.0132 -1.19288,0.0725 -0.5643,0.0683 -3.6661,0.15499 -8.468131,0.23663 -4.167717,0.0708 -8.001017,0.16811 -8.518449,0.21614 -0.517432,0.048 -1.279432,0.0873 -1.693334,0.0874 -0.413901,10e-6 -1.051179,0.0572 -1.416168,0.127 -0.383015,0.0733 -1.152711,0.12786 -1.820334,0.12905 -0.636193,0.001 -1.31428,0.0385 -1.506863,0.0829 -0.314875,0.0727 -5.144999,0.16569 -15.524853,0.29888 -1.979083,0.0254 -3.877319,0.0828 -4.218297,0.12749 -0.340978,0.0447 -1.1282,0.0813 -1.749382,0.0813 -0.652459,0 -1.409675,0.0536 -1.793037,0.12698 -0.413555,0.0791 -1.174073,0.12776 -2.018284,0.12903 -0.745067,0.001 -1.507067,0.0382 -1.693334,0.0824 -0.187968,0.0446 -5.142077,0.1389 -11.133667,0.21194 -5.961033,0.0727 -11.001011,0.16847 -11.255053,0.21396 -0.253026,0.0453 -1.129326,0.0828 -1.947333,0.0834 -1.041841,8.5e-4 -1.626744,0.0384 -1.952947,0.126 -0.329074,0.0883 -0.925102,0.12578 -2.032,0.12767 -0.861484,0.001 -1.814246,0.0386 -2.117251,0.0824 -0.303014,0.0439 -3.884414,0.12238 -7.958667,0.1745 -15.1620479,0.19395 -21.1270094,0.32315 -21.3354164,0.46208 -0.2582418,0.17216 -11.7446306,0.36418 -21.7593336,0.36376 -10.096467,-8.5e-4 -20.461369,-0.18094 -20.743334,-0.36124 -0.190991,-0.12213 -3.397978,-0.24131 -12.427323,-0.46183 -1.922247,-0.047 -3.808197,-0.1233 -4.191,-0.16967 -1.937707,-0.23474 -2.447222,-0.29287 -3.109011,-0.35466 -1.30799,-0.12213 -4.219541,-0.23461 -8.456998,-0.3267 -2.299733,-0.05 -4.214724,-0.11151 -4.255533,-0.13674 -0.145965,-0.0902 -2.902314,-0.19051 -3.050853,-0.11102 -0.08088,0.0433 -0.249369,0.21284 -0.374405,0.37676 -0.219168,0.28735 -0.226813,0.33368 -0.213047,1.29003 0.0093,0.64491 -0.02793,1.1401 -0.106358,1.41531 -0.596917,2.09467 -0.665615,2.28481 -0.988229,2.73534 -0.184015,0.25697 -0.334577,0.51818 -0.334577,0.58045 0,0.0623 -0.143392,0.25661 -0.318643,0.43186 -0.175252,0.17525 -0.412386,0.45147 -0.526957,0.61383 -0.218982,0.31031 -0.90452,0.99538 -1.778085,1.77686 -0.2863,0.25611 -0.660815,0.60284 -0.832265,0.77051 -0.171441,0.16766 -0.578417,0.54608 -0.904384,0.84091 -1.961219,1.77392 -8.069054,7.78994 -8.712024,8.58106 -0.63652,0.78317 -0.59651,0.20729 -0.6264,9.01762 l -0.0268,7.90711 -0.39323,0.81356 c -0.33668,0.69659 -0.49887,0.91703 -1.12804,1.53323 -0.40416,0.39581 -0.77322,0.79586 -0.82015,0.889 -0.0469,0.0931 -0.13016,0.64558 -0.18497,1.22766 -0.0548,0.58209 -0.18931,1.51554 -0.29887,2.07434 -0.10957,0.5588 -0.22421,1.2065 -0.25477,1.43933 -0.15017,1.14408 -0.33941,1.9872 -0.53209,2.37067 -0.11699,0.23283 -0.30104,0.68298 -0.409,1.00033 -0.10796,0.31735 -0.32377,0.7555 -0.47957,0.97367 -0.15581,0.21816 -0.35226,0.5558 -0.43657,0.7503 -0.0843,0.1945 -0.26655,0.4612 -0.40498,0.59267 -0.13843,0.13147 -0.32327,0.37817 -0.41076,0.54823 -0.21539,0.41869 -1.97123,2.15617 -2.24954,2.22602 -0.12245,0.0307 -0.58915,0.21285 -1.03709,0.40469 -0.78452,0.33599 -0.84715,0.3487 -1.70346,0.34582 -0.76726,-0.003 -0.98818,-0.0379 -1.61322,-0.25808 -0.84149,-0.29639 -1.6791,-0.45235 -2.54022,-0.47301 l -0.61084,-0.0146 -0.26369,0.32152 c -0.64944,0.79185 -2.77396,2.83179 -3.36453,3.23057 -0.16876,0.11395 -0.32835,0.26324 -0.35464,0.33176 -0.0263,0.0685 -0.23112,0.22897 -0.45516,0.35655 -0.22406,0.12758 -0.52167,0.33817 -0.66137,0.46799 -0.1397,0.12982 -0.39772,0.29597 -0.57339,0.36924 -0.17565,0.0733 -0.4614,0.26067 -0.635,0.41644 -0.17358,0.15577 -0.48706,0.36876 -0.69661,0.47329 -0.20955,0.10455 -0.46046,0.26274 -0.55758,0.35155 -0.0971,0.0888 -0.47812,0.28763 -0.84667,0.44182 -0.36854,0.15421 -0.81143,0.3774 -0.98419,0.496 -0.17276,0.1186 -0.57281,0.28226 -0.889,0.36369 -0.31619,0.0814 -0.793,0.27833 -1.05958,0.43752 -0.37691,0.22508 -0.65977,0.31574 -1.27194,0.40763 -0.54405,0.0817 -0.98283,0.21096 -1.42032,0.41848 -0.56451,0.2678 -0.75224,0.31035 -1.73372,0.39304 -0.60537,0.051 -1.50072,0.15439 -1.98967,0.22975 -1.18628,0.18282 -4.72043,0.22274 -5.50333,0.0622 z m -185.20834,-22.75567 c 0.37254,-0.11841 0.78698,-0.24028 0.921,-0.27081 0.32651,-0.0744 1.20893,-0.92754 1.44958,-1.40152 0.10641,-0.20955 0.27377,-0.45357 0.37194,-0.54229 0.21095,-0.19062 0.22957,-0.41057 0.0476,-0.56164 -0.20928,-0.17369 -0.91742,0.03 -1.32889,0.38216 -0.18854,0.16139 -0.48014,0.33868 -0.648,0.39399 -0.16785,0.0553 -0.49088,0.22818 -0.71784,0.38419 -0.22697,0.156 -0.62702,0.3459 -0.889,0.422 -0.56489,0.16409 -0.79297,0.30147 -0.93207,0.56137 -0.0565,0.10559 -0.21478,0.26727 -0.35172,0.35927 -0.27042,0.18171 -0.36648,0.34506 -0.28267,0.48067 0.0992,0.16045 1.62464,0.0264 2.36012,-0.20739 z m 204.65453,-62.30849 c 0.36452,-0.17471 0.34455,-0.36475 -0.0551,-0.52466 -0.18947,-0.0758 -0.43558,-0.13784 -0.5469,-0.13784 -0.23936,0 -0.98045,-0.23548 -1.72325,-0.54754 -0.3551,-0.14919 -0.87219,-0.26553 -1.55459,-0.34978 -0.69718,-0.0861 -1.33605,-0.23138 -2.00792,-0.45672 -0.54198,-0.18176 -1.25211,-0.35568 -1.57808,-0.38649 -0.76367,-0.0722 -1.90804,-0.32377 -2.48655,-0.54663 -0.25,-0.0963 -0.87865,-0.22856 -1.397,-0.29387 -0.55644,-0.0701 -1.15051,-0.20363 -1.45045,-0.32597 -0.63985,-0.261 -1.13945,-0.35943 -2.62466,-0.51707 -0.73542,-0.078 -1.4394,-0.20851 -1.85468,-0.34369 -0.73266,-0.23851 -1.69985,-0.40628 -3.15102,-0.54659 -0.5333,-0.0516 -1.19424,-0.17692 -1.524,-0.28905 -0.78075,-0.26545 -1.40949,-0.36721 -3.16624,-0.51243 -0.99971,-0.0827 -1.64493,-0.17897 -1.98806,-0.2968 -0.63924,-0.21951 -2.21042,-0.47794 -3.64067,-0.59882 -0.60537,-0.0512 -1.46262,-0.16682 -1.905,-0.25703 -1.13933,-0.23232 -2.97536,-0.47962 -4.36033,-0.58728 -1.1939,-0.0928 -1.96694,-0.1944 -2.66449,-0.35015 -0.61502,-0.13732 -3.15281,-0.40909 -4.68985,-0.50224 -1.27224,-0.0771 -2.90069,-0.27541 -4.08698,-0.49771 -0.22661,-0.0425 -1.38357,-0.13788 -2.57102,-0.21205 -3.17131,-0.19806 -4.26702,-0.28909 -5.16466,-0.42907 -2.48821,-0.388 -2.7819,-0.40562 -9.56734,-0.57387 -7.21446,-0.17888 -16.63765,-0.0907 -20.49413,0.19187 -1.16619,0.0855 -1.91938,0.26479 -2.00057,0.47636 -0.13012,0.33909 0.23122,0.71928 0.9047,0.9519 0.16299,0.0563 0.86269,0.15922 1.55491,0.22873 1.04582,0.10501 1.38754,0.17618 2.0216,0.42106 0.6238,0.24091 0.9886,0.31837 1.99919,0.4245 0.95513,0.1003 1.42673,0.19603 2.07442,0.42107 0.52615,0.18282 1.20613,0.33928 1.82632,0.42021 0.54342,0.0709 1.27196,0.22095 1.61898,0.33341 0.69787,0.22616 1.71449,0.41176 3.00158,0.54798 0.46567,0.0493 1.15147,0.18499 1.524,0.30156 0.69278,0.21678 1.84215,0.41021 3.048,0.51297 0.37254,0.0317 1.03929,0.15331 1.48167,0.27016 1.12166,0.29626 1.90464,0.4289 3.13267,0.53066 1.3542,0.1122 1.60815,0.14926 2.32833,0.33975 1.00401,0.26557 2.33703,0.49723 3.17734,0.55217 1.03934,0.068 1.75984,0.16625 3.46899,0.47316 0.76835,0.13798 2.13995,0.30775 3.048,0.37728 0.90805,0.0695 2.19514,0.22124 2.8602,0.33715 1.64026,0.28586 3.06371,0.44239 4.92914,0.54203 0.86148,0.046 1.83303,0.12149 2.159,0.16771 2.61871,0.37139 4.89128,0.57202 7.747,0.68397 1.18745,0.0465 2.94005,0.14457 3.89466,0.21782 0.95462,0.0733 2.25002,0.1661 2.87867,0.20631 0.62865,0.0402 1.4478,0.0978 1.82033,0.12797 1.8043,0.14616 6.19727,0.19392 15.42556,0.16772 8.21588,-0.0233 10.13556,-0.0498 10.3283,-0.14213 z M 319.2215,185.40506 c 0.58209,-0.0922 1.19169,-0.2027 1.35467,-0.24549 0.16298,-0.0428 0.90593,-0.13604 1.651,-0.20723 1.50004,-0.14331 1.6759,-0.18097 2.28678,-0.48973 0.2324,-0.11747 0.66827,-0.27631 0.9686,-0.353 0.30032,-0.0767 0.85277,-0.28753 1.22767,-0.46855 0.37489,-0.18103 0.83832,-0.37043 1.02983,-0.4209 0.19153,-0.0505 0.49633,-0.193 0.67734,-0.31672 0.18101,-0.12374 0.54792,-0.33415 0.81535,-0.46759 0.26741,-0.13345 0.61031,-0.34891 0.762,-0.4788 0.15167,-0.1299 0.40911,-0.32801 0.5721,-0.44024 0.4773,-0.32868 1.29905,-1.18799 1.6284,-1.70286 0.16768,-0.26214 0.34545,-0.50168 0.39504,-0.53233 0.0496,-0.0307 0.31629,-0.52062 0.5927,-1.08883 0.35207,-0.72379 0.54536,-1.24861 0.64554,-1.75279 0.0786,-0.39582 0.24283,-1.02447 0.36484,-1.397 0.3086,-0.94214 0.31784,-2.38362 0.0217,-3.38667 -0.10998,-0.37253 -0.26814,-1.07503 -0.35148,-1.56109 -0.10798,-0.62976 -0.23822,-1.05561 -0.45312,-1.48167 -0.16588,-0.32885 -0.37611,-0.81671 -0.46719,-1.08414 -0.0911,-0.26742 -0.26302,-0.61395 -0.38209,-0.77006 -0.11907,-0.1561 -0.29353,-0.50879 -0.38769,-0.78376 -0.0942,-0.27497 -0.2835,-0.65698 -0.42073,-0.8489 -0.13725,-0.19193 -0.33878,-0.59485 -0.44787,-0.89537 -0.10909,-0.30054 -0.31555,-0.69595 -0.45881,-0.87872 -0.14326,-0.18276 -0.32704,-0.54184 -0.4084,-0.79795 -0.0814,-0.25612 -0.27088,-0.63712 -0.42115,-0.84667 -0.15027,-0.20955 -0.35574,-0.63218 -0.45662,-0.93918 -0.10086,-0.307 -0.2914,-0.70705 -0.42342,-0.889 -0.13202,-0.18195 -0.30755,-0.54037 -0.39006,-0.79649 -0.0825,-0.25611 -0.27401,-0.63711 -0.42556,-0.84666 -0.15155,-0.20955 -0.35552,-0.64093 -0.45327,-0.95863 -0.0978,-0.31769 -0.29028,-0.73679 -0.42783,-0.93133 -0.13755,-0.19454 -0.31644,-0.52516 -0.39754,-0.73471 -0.0811,-0.20955 -0.26971,-0.56038 -0.41915,-0.77964 -0.14943,-0.21924 -0.34877,-0.62691 -0.443,-0.90592 -0.0942,-0.27901 -0.28318,-0.67113 -0.4199,-0.87137 -0.13672,-0.20024 -0.31198,-0.5569 -0.38948,-0.79258 -0.0775,-0.23567 -0.2729,-0.6334 -0.43424,-0.88382 -0.16134,-0.25043 -0.35482,-0.64816 -0.42995,-0.88383 -0.0751,-0.23568 -0.26674,-0.62244 -0.42581,-0.85947 -0.15906,-0.23702 -0.38024,-0.66324 -0.4915,-0.94715 -0.11126,-0.28391 -0.29782,-0.64242 -0.41457,-0.79671 -0.11673,-0.15428 -0.2898,-0.51835 -0.38458,-0.80903 -0.0948,-0.29068 -0.27464,-0.66267 -0.39971,-0.82665 -0.12507,-0.16397 -0.31829,-0.54854 -0.42938,-0.8546 -0.1111,-0.30605 -0.29772,-0.68197 -0.41473,-0.83538 -0.11701,-0.15341 -0.30106,-0.50428 -0.40901,-0.77973 -0.10795,-0.27544 -0.31422,-0.66364 -0.45839,-0.86267 -0.14418,-0.19902 -0.34271,-0.60398 -0.44119,-0.89992 -0.0985,-0.29592 -0.23657,-0.58578 -0.30687,-0.64412 -0.16741,-0.13894 -0.3513,-0.50083 -0.5512,-1.0847 -0.0891,-0.26018 -0.27172,-0.62656 -0.40588,-0.81419 -0.13415,-0.18763 -0.32153,-0.57759 -0.4164,-0.86657 -0.0949,-0.28898 -0.28638,-0.66887 -0.42559,-0.84419 -0.1392,-0.17532 -0.33467,-0.57412 -0.43437,-0.88621 -0.0997,-0.3121 -0.29138,-0.70601 -0.42597,-0.87537 -0.13459,-0.16935 -0.32184,-0.5141 -0.41613,-0.76609 -0.0943,-0.252 -0.26586,-0.60103 -0.38128,-0.77563 -0.11541,-0.1746 -0.30501,-0.58005 -0.42132,-0.90098 -0.1163,-0.32094 -0.30792,-0.72271 -0.42581,-0.89282 -0.11789,-0.17011 -0.31023,-0.55398 -0.42743,-0.85303 -0.1172,-0.29904 -0.31117,-0.69194 -0.43106,-0.8731 -0.11988,-0.18115 -0.31093,-0.57637 -0.42457,-0.87825 -0.11362,-0.30189 -0.32241,-0.69302 -0.46398,-0.86917 -0.14156,-0.17615 -0.33142,-0.55818 -0.42192,-0.84895 -0.0905,-0.29076 -0.28252,-0.67762 -0.42671,-0.85968 -0.14419,-0.18206 -0.33579,-0.57643 -0.42579,-0.87637 -0.09,-0.29995 -0.25176,-0.65135 -0.35951,-0.7809 -0.26001,-0.31263 -0.37918,-0.54806 -0.52364,-1.03454 -0.0661,-0.22257 -0.23452,-0.54856 -0.37427,-0.72441 -0.13975,-0.17585 -0.32937,-0.57178 -0.42136,-0.87983 -0.0926,-0.30989 -0.28613,-0.70391 -0.43335,-0.88203 -0.14634,-0.17707 -0.33947,-0.5151 -0.42918,-0.75119 -0.0897,-0.23609 -0.25994,-0.55622 -0.3783,-0.7114 -0.11836,-0.15517 -0.3198,-0.56008 -0.44766,-0.89981 -0.12785,-0.33972 -0.33383,-0.76532 -0.45773,-0.94578 -0.12389,-0.18046 -0.29866,-0.57276 -0.38837,-0.87177 -0.0897,-0.29901 -0.25587,-0.66571 -0.36926,-0.81488 -0.27882,-0.36681 -0.45003,-0.72125 -0.51626,-1.06871 -0.0303,-0.15922 -0.20244,-0.48307 -0.38245,-0.71967 -0.18001,-0.23661 -0.39157,-0.62806 -0.47014,-0.8699 -0.0786,-0.24184 -0.21131,-0.52759 -0.29499,-0.635 -0.21493,-0.27587 -0.42564,-0.70392 -0.55012,-1.11751 -0.0587,-0.195 -0.24701,-0.55853 -0.41852,-0.80785 -0.1715,-0.24932 -0.35453,-0.6229 -0.40672,-0.83018 -0.0522,-0.20728 -0.22323,-0.56344 -0.38008,-0.79146 -0.15685,-0.22802 -0.36392,-0.62503 -0.46016,-0.88226 -0.0962,-0.25722 -0.26162,-0.57186 -0.36749,-0.69919 -0.25271,-0.30389 -0.37317,-0.53964 -0.51272,-1.0033 -0.0632,-0.20991 -0.24979,-0.57933 -0.41471,-0.82093 -0.16492,-0.2416 -0.34152,-0.62902 -0.39244,-0.86091 -0.0566,-0.25778 -0.22052,-0.58747 -0.4218,-0.84837 -0.20128,-0.2609 -0.3652,-0.59059 -0.4218,-0.84837 -0.0509,-0.23189 -0.22748,-0.61926 -0.39237,-0.86081 -0.16489,-0.24156 -0.35745,-0.66066 -0.42792,-0.93133 -0.0779,-0.29929 -0.24457,-0.63457 -0.42529,-0.85559 -0.16345,-0.19988 -0.36484,-0.54853 -0.44754,-0.77477 -0.0827,-0.22624 -0.28589,-0.6342 -0.45156,-0.90657 -0.16566,-0.272374 -0.3423,-0.653636 -0.39252,-0.847244 -0.0502,-0.193607 -0.22731,-0.549715 -0.39353,-0.791354 -0.16622,-0.241638 -0.37125,-0.648589 -0.45562,-0.904341 -0.0844,-0.255753 -0.28697,-0.661645 -0.4502,-0.90198 -0.16325,-0.240334 -0.32339,-0.570323 -0.35587,-0.733306 -0.0668,-0.335238 -0.22441,-0.618473 -0.5231,-0.940173 -0.11261,-0.121276 -0.27448,-0.450858 -0.35973,-0.7324 -0.0852,-0.281551 -0.29083,-0.689813 -0.45686,-0.907254 -0.18542,-0.242833 -0.33709,-0.564549 -0.39314,-0.833933 -0.057,-0.27399 -0.20188,-0.578206 -0.38605,-0.810667 -0.16213,-0.204656 -0.33526,-0.528506 -0.38473,-0.719666 -0.0495,-0.191169 -0.19975,-0.557124 -0.33396,-0.81324 -0.13421,-0.256117 -0.37717,-0.7392 -0.53991,-1.073523 -0.16275,-0.334315 -0.41299,-0.769485 -0.5561,-0.967029 -0.1431,-0.197544 -0.28387,-0.507365 -0.31284,-0.688492 -0.029,-0.181128 -0.21887,-0.58238 -0.42201,-0.891667 -0.20314,-0.309296 -0.36956,-0.602234 -0.36983,-0.650985 -10e-4,-0.278325 -0.21105,-0.758131 -0.46272,-1.059358 -0.15874,-0.189984 -0.30767,-0.411243 -0.33099,-0.491685 -0.0233,-0.08044 -0.0835,-0.305461 -0.13374,-0.500039 -0.0502,-0.194576 -0.22322,-0.511627 -0.3844,-0.704556 -0.16119,-0.192929 -0.33321,-0.509979 -0.38227,-0.704556 -0.12782,-0.507008 -0.23105,-0.725367 -0.50866,-1.075874 -0.13486,-0.170274 -0.33708,-0.562717 -0.44937,-0.872096 -0.11231,-0.30938 -0.30512,-0.694835 -0.42848,-0.856567 -0.12336,-0.161732 -0.29856,-0.533724 -0.38935,-0.82665 -0.0908,-0.292924 -0.29578,-0.734955 -0.45553,-0.982291 -0.15975,-0.247335 -0.31457,-0.578268 -0.34405,-0.735406 -0.0295,-0.157138 -0.20239,-0.508521 -0.38424,-0.780852 -0.18186,-0.272331 -0.39428,-0.684348 -0.47203,-0.915594 -0.0778,-0.231246 -0.27248,-0.581539 -0.43269,-0.778429 -0.17407,-0.21391 -0.34228,-0.554655 -0.41796,-0.846667 -0.0697,-0.268777 -0.23878,-0.628748 -0.37582,-0.799935 -0.28104,-0.351084 -0.37577,-0.550053 -0.50396,-1.058527 -0.0491,-0.194577 -0.22206,-0.512812 -0.38446,-0.70719 -0.1624,-0.194378 -0.31744,-0.454278 -0.34455,-0.577557 -0.12753,-0.580047 -0.31182,-1.0211 -0.50088,-1.198713 -0.1165,-0.109447 -0.28938,-0.455267 -0.39519,-0.790523 -0.10345,-0.32778 -0.29669,-0.719656 -0.42942,-0.870835 -0.13274,-0.151179 -0.33507,-0.514035 -0.44964,-0.806349 -0.11455,-0.292312 -0.30722,-0.680983 -0.42814,-0.863713 -0.12093,-0.18273 -0.30945,-0.595622 -0.41894,-0.917538 -0.10949,-0.321916 -0.30948,-0.726115 -0.44442,-0.89822 -0.13494,-0.172105 -0.31161,-0.522468 -0.39259,-0.778585 -0.081,-0.256116 -0.27258,-0.656166 -0.42575,-0.889 -0.15318,-0.232833 -0.34312,-0.623458 -0.4221,-0.868055 -0.079,-0.244597 -0.26975,-0.595707 -0.42393,-0.780244 -0.16556,-0.198161 -0.35368,-0.57705 -0.45951,-0.925479 -0.0985,-0.324475 -0.28049,-0.710339 -0.40429,-0.857475 -0.12381,-0.147136 -0.3107,-0.52881 -0.4153,-0.848163 -0.10461,-0.319354 -0.30241,-0.72538 -0.43957,-0.90228 -0.13716,-0.1769 -0.33756,-0.569287 -0.44534,-0.871971 -0.10779,-0.302683 -0.29662,-0.683683 -0.41964,-0.846666 -0.12302,-0.162984 -0.30923,-0.524934 -0.41382,-0.804334 -0.10458,-0.2794 -0.26793,-0.59082 -0.36299,-0.692045 -0.0951,-0.101225 -0.28104,-0.493162 -0.41327,-0.870971 -0.13223,-0.377809 -0.33434,-0.798543 -0.44913,-0.934964 -0.11478,-0.13642 -0.29078,-0.49467 -0.39109,-0.796109 -0.10032,-0.301441 -0.292,-0.686 -0.42597,-0.854577 -0.13397,-0.168578 -0.32435,-0.549224 -0.42307,-0.845881 -0.0987,-0.296657 -0.29839,-0.70351 -0.44371,-0.904117 -0.14532,-0.200608 -0.33478,-0.593775 -0.42103,-0.873705 -0.0863,-0.27993 -0.28942,-0.702896 -0.45149,-0.939924 -0.16207,-0.237029 -0.3857,-0.663247 -0.49697,-0.947153 -0.11126,-0.283907 -0.29652,-0.642425 -0.4117,-0.796707 -0.11518,-0.154282 -0.27453,-0.480879 -0.35411,-0.725769 -0.0796,-0.244892 -0.27283,-0.631521 -0.42942,-0.859176 -0.1566,-0.227656 -0.34577,-0.61784 -0.42039,-0.867077 -0.0746,-0.249237 -0.20896,-0.586508 -0.29854,-0.749491 -0.0896,-0.162984 -0.31976,-0.618744 -0.51148,-1.012799 -0.19173,-0.394057 -0.43691,-0.82141 -0.54483,-0.949676 -0.10794,-0.128265 -0.2795,-0.483401 -0.38126,-0.789192 -0.10176,-0.305791 -0.28079,-0.669801 -0.39785,-0.808913 -0.11705,-0.139112 -0.30335,-0.5205 -0.41399,-0.847529 -0.11064,-0.32703 -0.29231,-0.716765 -0.4037,-0.866079 -0.2829,-0.379185 -0.40118,-0.624912 -0.52289,-1.086269 -0.0579,-0.219596 -0.22562,-0.548971 -0.37266,-0.731943 -0.14704,-0.182972 -0.33728,-0.563646 -0.42275,-0.84594 -0.0855,-0.282296 -0.27182,-0.659529 -0.4141,-0.838296 -0.14228,-0.178767 -0.34031,-0.534581 -0.44005,-0.790698 -0.0998,-0.256116 -0.26851,-0.580258 -0.37501,-0.720314 -0.10651,-0.140057 -0.291,-0.524518 -0.40997,-0.854359 -0.11899,-0.329841 -0.33241,-0.782748 -0.47429,-1.006461 -0.14187,-0.223713 -0.32177,-0.601252 -0.39978,-0.838976 -0.078,-0.237723 -0.28959,-0.678811 -0.47019,-0.980197 -0.18061,-0.301385 -0.36916,-0.701435 -0.41902,-0.889 -0.0499,-0.187564 -0.2352,-0.531526 -0.41185,-0.76436 -0.17666,-0.232833 -0.38303,-0.639874 -0.45862,-0.904536 -0.0756,-0.264661 -0.22667,-0.588511 -0.33576,-0.719667 -0.26342,-0.316677 -0.38133,-0.549916 -0.52848,-1.045434 -0.0674,-0.226966 -0.2115,-0.519248 -0.32022,-0.649514 -0.26137,-0.31319 -0.4416,-0.677765 -0.51469,-1.041182 -0.0328,-0.162983 -0.17315,-0.458342 -0.31193,-0.656352 -0.13877,-0.19801 -0.36057,-0.59806 -0.49287,-0.889 -0.26093,-0.573799 -0.50391,-0.848026 -0.87651,-0.989198 -0.16743,-0.06344 -7.44907,-0.09078 -24.35376,-0.09144 -20.9288,-8.46e-4 -24.23388,0.01575 -25.0153,0.125445 -0.4952,0.06952 -0.97553,0.166617 -1.0674,0.215782 -0.39743,0.2127 -0.10161,0.385457 0.95785,0.559369 0.66594,0.109317 2.04406,0.125267 9.41612,0.108983 4.7498,-0.01049 8.7503,0.01171 8.89,0.04934 0.1397,0.03763 0.50165,0.251573 0.80434,0.475438 0.57728,0.426957 1.60866,1.531452 1.60866,1.7227 0,0.0614 0.14748,0.335059 0.32775,0.608125 0.18025,0.273064 0.39048,0.689307 0.46716,0.924983 0.0767,0.235676 0.27058,0.632109 0.43091,0.880963 0.16033,0.248852 0.36491,0.66982 0.45462,0.935485 0.0897,0.265665 0.29818,0.679356 0.46324,0.919314 0.17272,0.251093 0.34053,0.630967 0.39532,0.89492 0.0597,0.287746 0.20576,0.603407 0.39189,0.847183 0.16318,0.213703 0.36831,0.596725 0.45585,0.851159 0.0875,0.254435 0.28053,0.639018 0.42888,0.854631 0.14834,0.215612 0.3366,0.612918 0.41834,0.882901 0.0817,0.269984 0.2669,0.638057 0.41146,0.817942 0.14456,0.179884 0.35372,0.554748 0.4648,0.833031 0.11108,0.278282 0.34023,0.732328 0.5092,1.008988 0.16899,0.276661 0.30725,0.54861 0.30725,0.604333 0,0.05572 0.13722,0.300798 0.30494,0.544614 0.16771,0.243815 0.3937,0.704267 0.50218,1.023226 0.10848,0.31896 0.31862,0.730955 0.46695,0.915545 0.15355,0.191066 0.33462,0.569697 0.42042,0.879093 0.0854,0.308064 0.27656,0.708359 0.44126,0.924132 0.15981,0.209361 0.3403,0.567268 0.40109,0.795347 0.0608,0.228081 0.22523,0.562187 0.36542,0.742461 0.14019,0.180273 0.36735,0.559926 0.5048,0.843673 0.13745,0.283747 0.32002,0.605036 0.40571,0.713977 0.0857,0.108941 0.23705,0.442211 0.33635,0.740603 0.0993,0.298391 0.27959,0.686855 0.40066,0.863253 0.12106,0.176399 0.34261,0.613418 0.49232,0.971154 0.14971,0.357737 0.35438,0.765838 0.45482,0.906892 0.10044,0.141055 0.25814,0.477011 0.35044,0.74657 0.0923,0.26956 0.28302,0.651191 0.42382,0.848069 0.14079,0.196878 0.32709,0.56463 0.414,0.817226 0.1926,0.559805 0.30956,0.787353 0.55872,1.087018 0.10528,0.126613 0.25577,0.431413 0.33444,0.677334 0.0787,0.24592 0.25662,0.61002 0.39547,0.809112 0.13886,0.199091 0.34822,0.599141 0.46526,0.889 0.11704,0.289858 0.31016,0.655742 0.42915,0.813075 0.11899,0.157332 0.32015,0.564287 0.447,0.904343 0.12687,0.340056 0.31542,0.72568 0.41901,0.856941 0.1036,0.131261 0.29588,0.475326 0.42729,0.764587 0.13141,0.289262 0.33286,0.651212 0.44768,0.804333 0.11481,0.153122 0.26926,0.490384 0.34322,0.749472 0.074,0.259087 0.25347,0.63533 0.3989,0.836093 0.14543,0.200765 0.33773,0.579334 0.42732,0.841265 0.0896,0.261932 0.29148,0.66674 0.44864,0.899573 0.15717,0.232834 0.34567,0.634614 0.4189,0.892844 0.0732,0.258232 0.2635,0.639232 0.42281,0.846667 0.15931,0.207436 0.34981,0.588436 0.42333,0.846667 0.0735,0.258231 0.26204,0.639231 0.41894,0.846666 0.15689,0.207436 0.36915,0.605757 0.47168,0.885157 0.10252,0.2794 0.2926,0.6604 0.42238,0.846666 0.1298,0.186267 0.32541,0.586317 0.43471,0.889 0.10928,0.302684 0.30089,0.683684 0.42579,0.846667 0.1249,0.162983 0.3117,0.524933 0.41511,0.804333 0.1034,0.2794 0.28411,0.634231 0.40159,0.788514 0.11747,0.154282 0.30313,0.509002 0.41258,0.788267 0.10944,0.279264 0.31185,0.636304 0.44981,0.793423 0.25451,0.289885 0.27201,0.32806 0.42872,0.935881 0.0486,0.188512 0.24136,0.547818 0.42837,0.798457 0.187,0.25064 0.34084,0.534552 0.34186,0.630917 0.003,0.240729 0.29312,0.860841 0.5419,1.156493 0.1131,0.134428 0.26846,0.463932 0.34521,0.732231 0.0768,0.2683 0.25762,0.636651 0.40193,0.818559 0.14429,0.181909 0.36677,0.587301 0.49438,0.900871 0.12761,0.313571 0.33018,0.718463 0.45016,0.89976 0.11997,0.181296 0.27544,0.522577 0.34546,0.758401 0.07,0.235823 0.25471,0.596498 0.41038,0.801498 0.15569,0.205001 0.36459,0.615615 0.46425,0.912476 0.0996,0.296861 0.2811,0.670742 0.40321,0.830847 0.12212,0.160104 0.30954,0.514371 0.41648,0.787259 0.10694,0.272888 0.33177,0.676011 0.49961,0.895828 0.16784,0.219818 0.30685,0.460865 0.30889,0.53566 0.007,0.267468 0.23038,0.76383 0.49137,1.093358 0.14599,0.184326 0.33746,0.566548 0.42548,0.849384 0.088,0.282836 0.27885,0.664236 0.42405,0.847558 0.14518,0.183321 0.33975,0.575497 0.43234,0.8715 0.0926,0.296003 0.29792,0.700125 0.45629,0.898034 0.15835,0.197916 0.31446,0.501396 0.34693,0.674412 0.0697,0.371712 0.24887,0.740401 0.51439,1.058621 0.10564,0.126611 0.25425,0.417381 0.33023,0.646159 0.076,0.22877 0.27097,0.60143 0.4333,0.828125 0.16232,0.226695 0.35506,0.621724 0.42831,0.877841 0.0732,0.256117 0.25122,0.615713 0.39551,0.799109 0.14429,0.183397 0.34772,0.594089 0.45207,0.912656 0.10435,0.318567 0.30299,0.722224 0.44143,0.897018 0.13844,0.174786 0.30842,0.535009 0.37775,0.800481 0.0849,0.325078 0.2345,0.605892 0.45821,0.860036 0.18268,0.207535 0.38039,0.538386 0.43937,0.735211 0.059,0.196825 0.25276,0.589602 0.43065,0.872846 0.1779,0.283235 0.36885,0.685927 0.42435,0.894876 0.0555,0.20894 0.24658,0.58994 0.42462,0.846666 0.17804,0.256718 0.36376,0.61993 0.41269,0.807128 0.0489,0.187198 0.22748,0.568198 0.39676,0.846666 0.16928,0.278469 0.37744,0.705696 0.46259,0.949376 0.0851,0.24369 0.27039,0.61103 0.41163,0.81633 0.14125,0.2053 0.33393,0.57741 0.4282,0.82694 0.0943,0.24951 0.30388,0.61976 0.46581,0.82276 0.16193,0.20301 0.31684,0.50781 0.34424,0.67733 0.0703,0.43507 0.15622,0.61945 0.49591,1.06446 0.164,0.21486 0.32381,0.53265 0.35514,0.70621 0.0696,0.38544 0.1516,0.55011 0.50681,1.01719 0.15466,0.20337 0.302,0.5198 0.33511,0.71966 0.0719,0.43399 0.15578,0.60231 0.5046,1.01224 0.14829,0.17428 0.31775,0.47749 0.37656,0.67382 0.0588,0.19632 0.23747,0.56098 0.39699,0.81035 0.15952,0.24937 0.35924,0.63554 0.44383,0.85816 0.0846,0.22261 0.27556,0.58172 0.42438,0.79802 0.14881,0.2163 0.32772,0.55562 0.39756,0.75403 0.0698,0.19843 0.27499,0.60842 0.45588,0.9111 0.18087,0.30269 0.36923,0.70274 0.41858,0.889 0.0494,0.18627 0.24331,0.58632 0.43103,0.889 0.18772,0.30269 0.38176,0.70274 0.4312,0.889 0.0494,0.18627 0.19537,0.47202 0.32427,0.635 0.2974,0.37602 0.47643,0.73106 0.54155,1.07397 0.0282,0.14831 0.21808,0.51339 0.42204,0.8113 0.20396,0.29793 0.39446,0.68721 0.42333,0.86509 0.0289,0.17786 0.20669,0.54325 0.39518,0.81196 0.18848,0.2687 0.36683,0.61534 0.39632,0.77029 0.067,0.35199 0.24219,0.70352 0.54128,1.08606 0.12743,0.16298 0.27627,0.43734 0.33078,0.60967 0.0545,0.17234 0.19158,0.44961 0.30461,0.61617 0.28972,0.42692 0.45803,0.76794 0.58146,1.17805 0.0587,0.19499 0.24566,0.55655 0.41551,0.80347 0.16985,0.24692 0.35015,0.60735 0.40066,0.80095 0.0505,0.19361 0.22858,0.56064 0.39571,0.81561 0.16711,0.25499 0.368,0.67547 0.44641,0.93444 0.0784,0.25896 0.28081,0.65196 0.44978,0.87332 0.16897,0.22137 0.3483,0.55504 0.39851,0.74149 0.0502,0.18645 0.24196,0.57215 0.42614,0.8571 0.18417,0.28494 0.37517,0.67378 0.42446,0.86407 0.0493,0.1903 0.22298,0.54284 0.38599,0.78345 0.16301,0.24059 0.36673,0.62159 0.45271,0.84666 0.086,0.22507 0.29347,0.63625 0.46111,0.91374 0.16764,0.27748 0.34051,0.63387 0.38417,0.79197 0.0437,0.1581 0.2322,0.54066 0.419,0.85014 0.1868,0.30949 0.39381,0.7151 0.46001,0.90137 0.0662,0.18626 0.25892,0.5435 0.42824,0.79386 0.16932,0.25036 0.34853,0.61677 0.39826,0.81423 0.0497,0.19747 0.23744,0.57568 0.41716,0.84047 0.17971,0.2648 0.38529,0.68282 0.45684,0.92894 0.0716,0.24613 0.24475,0.59178 0.38489,0.76811 0.14013,0.17634 0.32734,0.56247 0.41602,0.85807 0.0887,0.29559 0.28364,0.69199 0.43323,0.88086 0.14959,0.18887 0.34229,0.52843 0.42821,0.75457 0.0859,0.22613 0.25032,0.54981 0.36532,0.71927 0.115,0.16946 0.30997,0.57211 0.43328,0.89479 0.1233,0.32268 0.30338,0.68736 0.40017,0.81041 0.0968,0.12305 0.28469,0.49086 0.41756,0.81735 0.13286,0.32649 0.33858,0.7089 0.45714,0.84981 0.11857,0.14091 0.2873,0.39678 0.37496,0.5686 0.16393,0.32134 1.16473,1.23711 1.48507,1.35891 0.41897,0.1593 2.30063,0.50735 2.7393,0.50671 0.26207,0 0.93369,0.037 1.49249,0.0831 2.71211,0.22373 3.42403,0.26809 6.18067,0.38515 1.62983,0.0692 3.36338,0.16557 3.85233,0.21414 0.48895,0.0486 1.4605,0.14143 2.159,0.20635 0.6985,0.0649 1.651,0.15833 2.11667,0.20761 0.46567,0.0493 1.51845,0.14346 2.33953,0.2093 1.52107,0.12199 1.62929,0.15007 2.2443,0.58247 0.1462,0.1028 0.38195,0.25045 0.52389,0.3281 0.14193,0.0777 0.3368,0.28722 0.43304,0.46567 0.0962,0.17846 0.25353,0.42267 0.34956,0.54269 0.24668,0.30833 0.32834,0.74832 0.33066,1.78175 l 0.002,0.8993 -0.40869,0.6247 c -0.46625,0.71267 -1.24738,1.40448 -1.65104,1.46226 -0.14774,0.0211 -0.54221,0.0755 -0.87663,0.12074 -0.33441,0.0453 -0.82971,0.18477 -1.10067,0.31002 -0.35471,0.16396 -0.88261,0.28649 -1.88552,0.4376 -0.76609,0.11543 -1.66144,0.30443 -1.98966,0.42001 -0.32824,0.11558 -1.14924,0.28633 -1.82446,0.37945 -0.67522,0.0931 -1.72297,0.29953 -2.32833,0.4587 -0.60537,0.15918 -1.6469,0.36627 -2.31453,0.46021 -0.66761,0.0939 -1.56562,0.28348 -1.99556,0.42121 -0.4543,0.14552 -1.16932,0.29188 -1.70715,0.34942 -0.50899,0.0545 -0.99166,0.13411 -1.0726,0.17699 -0.34397,0.18225 -0.26351,0.66443 0.22304,1.33637 0.1544,0.21324 0.35032,0.57822 0.43536,0.81105 0.0851,0.23283 0.26113,0.57573 0.39127,0.762 0.13016,0.18627 0.31388,0.56419 0.40828,0.83983 0.0944,0.27564 0.2825,0.67569 0.41802,0.889 0.13552,0.21331 0.34487,0.63245 0.46523,0.93142 0.12035,0.29898 0.27791,0.60887 0.35012,0.68866 0.0722,0.0798 0.25949,0.47164 0.41618,0.87077 0.15669,0.39912 0.37765,0.85123 0.49101,1.00467 0.11337,0.15344 0.27161,0.45043 0.35163,0.65998 0.08,0.20955 0.26174,0.52726 0.40381,0.70603 0.14206,0.17877 0.32383,0.54072 0.40391,0.80433 0.17088,0.56249 0.36512,0.95757 0.54362,1.10572 0.0703,0.0583 0.20795,0.34688 0.30589,0.64121 0.098,0.29433 0.30474,0.70101 0.45952,0.90376 0.15478,0.20274 0.36166,0.6115 0.45971,0.90837 0.0981,0.29686 0.27393,0.66515 0.39084,0.81842 0.11691,0.15328 0.34011,0.55809 0.49599,0.89959 0.15589,0.3415 0.34659,0.67295 0.42376,0.73656 0.0772,0.0636 0.21608,0.3684 0.30866,0.67733 0.0926,0.30893 0.30116,0.74757 0.46349,0.97476 0.16234,0.22721 0.35361,0.61415 0.42505,0.85989 0.0715,0.24575 0.26068,0.60336 0.42053,0.79468 0.15985,0.19133 0.35035,0.55328 0.42333,0.80433 0.073,0.25106 0.2654,0.6153 0.42757,0.80941 0.16219,0.19413 0.34973,0.53761 0.41675,0.7633 0.1458,0.49097 0.27132,0.74507 0.48347,0.97869 0.0869,0.0957 0.27165,0.40853 0.41048,0.69514 0.16274,0.33597 0.33596,0.56344 0.48754,0.64026 0.38388,0.19454 1.66596,0.45858 3.32544,0.68488 1.64365,0.22413 1.96784,0.22013 3.64067,-0.0449 z m -52.8532,-28.05071 c 0.53836,-0.0874 1.96741,-0.13418 5.2282,-0.17101 7.09306,-0.0801 17.47502,-0.33484 19.76967,-0.48503 0.76835,-0.0503 1.83515,-0.12065 2.37067,-0.15634 2.75128,-0.18342 6.26909,-0.34687 8.80533,-0.40914 2.30945,-0.0567 2.89531,-0.095 3.15383,-0.20624 0.59865,-0.25759 0.30981,-0.48827 -0.91149,-0.72798 -0.46493,-0.0913 -1.10407,-0.28432 -1.42029,-0.42901 -0.51821,-0.23712 -0.72645,-0.2762 -2.11029,-0.39605 -1.28603,-0.11137 -1.67632,-0.17914 -2.40352,-0.41736 -0.72489,-0.23746 -1.08223,-0.29976 -2.16537,-0.37756 -0.71346,-0.0513 -1.9068,-0.18404 -2.65187,-0.2951 -2.25783,-0.33653 -3.53859,-0.45704 -5.842,-0.54967 -1.21073,-0.0487 -2.94428,-0.13224 -3.85233,-0.18564 -0.90805,-0.0534 -1.91771,-0.10297 -2.24367,-0.11012 -0.32597,-0.007 -0.95462,-0.0422 -1.397,-0.0779 -0.93919,-0.0757 -1.32476,-0.089 -6.43467,-0.22138 -4.55561,-0.11803 -4.97717,-0.11866 -9.652,-0.0144 -4.67786,0.10433 -8.45393,0.24296 -9.56733,0.35123 -0.48895,0.0476 -2.032,0.12686 -3.429,0.17627 -3.95455,0.13985 -5.37982,0.23039 -7.28924,0.46308 -0.97355,0.11864 -1.82725,0.23237 -1.8971,0.25274 -0.0699,0.0204 -0.94615,0.0961 -1.94733,0.16832 -2.01312,0.14518 -1.91104,0.13067 -3.36729,0.47885 -0.74946,0.17919 -1.49261,0.28179 -2.667,0.36821 -1.17185,0.0862 -1.75852,0.16713 -2.09371,0.2887 -0.25612,0.0929 -0.63712,0.23149 -0.84667,0.30801 -0.20955,0.0765 -0.87604,0.19416 -1.4811,0.26146 -0.94251,0.10481 -1.18509,0.16432 -1.69334,0.41534 -0.41712,0.20602 -0.79428,0.31838 -1.27056,0.37853 -1.03354,0.13052 -1.19857,0.1721 -1.38967,0.35013 -0.28606,0.26651 -0.2141,0.50191 0.20607,0.67415 0.18157,0.0744 1.59287,0.12127 5.03594,0.16714 2.63101,0.035 4.95511,0.10042 5.16466,0.14528 0.23486,0.0503 5.97506,0.0856 14.9648,0.0922 12.23654,0.009 14.70304,-0.009 15.32467,-0.10972 z M -81.329997,143.51118 c 0.247329,-0.24732 0.247489,-0.2482 0.247489,-1.31318 0,-2.02068 0.175328,-5.75869 0.299458,-6.38445 0.06781,-0.3418 0.101126,-0.70971 0.07406,-0.81758 -0.02708,-0.10787 0.0099,-0.49497 0.08225,-0.86021 0.126712,-0.64006 0.192126,-2.07404 0.478333,-10.48543 0.0507,-1.49013 0.127703,-3.03318 0.171111,-3.429 0.247845,-2.26002 0.210321,-2.54058 -0.373896,-2.79542 -0.200093,-0.0873 -0.677071,-0.17579 -1.112309,-0.2064 -1.384901,-0.0974 -2.271852,-0.22952 -3.471333,-0.51707 -0.651933,-0.15628 -1.642533,-0.32455 -2.201333,-0.37395 -1.527413,-0.13501 -2.28716,-0.2467 -3.175,-0.46678 -0.935643,-0.23194 -1.666207,-0.34042 -3.132667,-0.4652 -0.582084,-0.0495 -1.401234,-0.16248 -1.820334,-0.251 -0.4191,-0.0885 -1.12395,-0.23683 -1.566333,-0.32956 -0.442383,-0.0927 -1.337733,-0.20916 -1.989667,-0.25873 -0.68563,-0.0521 -1.881342,-0.22969 -2.836332,-0.42116 -0.90805,-0.18206 -2.09529,-0.37366 -2.63833,-0.42577 -0.61433,-0.059 -1.2953,-0.18955 -1.80249,-0.34567 -0.7903,-0.24327 -1.29646,-0.31393 -3.64484,-0.50877 -0.68444,-0.0568 -1.28728,-0.16685 -1.84725,-0.33725 -0.45719,-0.13911 -1.12394,-0.27713 -1.48166,-0.3067 -1.00511,-0.0831 -0.97512,-0.15205 -1.048,2.40888 -0.0684,2.40492 -0.20522,4.91857 -0.32088,5.89689 -0.27432,2.32045 -0.4889,5.68525 -0.59352,9.3071 -0.0799,2.76692 -0.12531,3.55334 -0.33502,5.8059 -0.33094,3.55489 -0.45267,5.63646 -0.34174,5.84375 0.0453,0.0847 0.20655,0.19178 0.35825,0.23795 0.15169,0.0462 1.45691,0.10646 2.90048,0.13398 2.39746,0.0457 3.83277,0.14067 5.92667,0.39213 1.66598,0.20006 2.49866,0.24882 5.67267,0.33221 1.816092,0.0477 4.063992,0.12879 4.995326,0.18015 0.931333,0.0514 1.807633,0.0899 1.947333,0.0856 0.1397,-0.004 0.46355,0.0329 0.719667,0.0825 1.11103,0.21539 4.540191,0.46068 8.227297,0.5885 1.474893,0.0511 2.789343,0.12529 2.921,0.16479 0.383693,0.11511 0.450427,0.1 0.711547,-0.16112 z m -46.297123,-2.19228 c 0.1511,-0.15109 0.19135,-0.45986 0.3993,-3.06357 0.1531,-1.91701 0.38926,-6.82041 0.47099,-9.779 0.11008,-3.98541 0.2259,-6.81944 0.29756,-7.28133 0.0434,-0.2794 0.0791,-0.80546 0.0795,-1.16903 0,-0.36356 0.037,-0.91601 0.0814,-1.22766 0.0722,-0.50673 0.24844,-4.06916 0.30028,-6.06998 0.0108,-0.4191 0.0293,-0.8001 0.041,-0.84666 0.0555,-0.22071 -0.0157,-0.47598 -0.18924,-0.67766 -0.16682,-0.19391 -0.33784,-0.24736 -1.37584,-0.43001 -0.94029,-0.16547 -1.78919,-0.23396 -4.10633,-0.33132 -3.5881,-0.15077 -4.88676,-0.25334 -5.92667,-0.46814 -0.86261,-0.17818 -2.87992,-0.35759 -5.67266,-0.5045 -1.86024,-0.0979 -2.56392,-0.16382 -4.48734,-0.42059 -0.67521,-0.0901 -2.29446,-0.22457 -3.59833,-0.29873 -3.80902,-0.21664 -4.7049,-0.28784 -6.11675,-0.48611 -1.81846,-0.25538 -2.39893,-0.25368 -2.67708,0.008 -0.24048,0.22607 -0.41704,0.8831 -0.34035,1.26656 0.027,0.13502 0.009,0.50783 -0.039,0.82844 -0.0485,0.32062 -0.13099,2.01169 -0.18337,3.75794 -0.0984,3.28112 -0.29117,6.98698 -0.42496,8.17033 -0.31884,2.82019 -0.39973,4.24909 -0.50564,8.93234 -0.0511,2.25848 -0.12595,4.67783 -0.1664,5.37633 -0.0802,1.38516 -0.0395,1.59718 0.3826,1.99375 0.17633,0.16565 0.33619,0.20322 1.09521,0.25739 0.48882,0.0349 0.99384,0.085 1.12227,0.11126 0.12843,0.0263 1.33841,0.10612 2.68884,0.17737 3.86514,0.20393 5.09638,0.28978 6.096,0.42508 1.67806,0.22713 2.4164,0.28843 5.588,0.46395 3.26073,0.18045 3.44605,0.19818 5.77508,0.55246 1.13276,0.17231 2.07529,0.24086 4.63892,0.33738 3.73089,0.14047 5.05535,0.25052 5.66091,0.47035 0.48553,0.17626 0.8675,0.15024 1.09215,-0.0744 z m -54.31954,-4.10073 c 0.13937,-0.15374 0.19235,-0.39472 0.27452,-1.24884 0.056,-0.58208 0.13713,-1.26788 0.18031,-1.524 0.20049,-1.18961 0.45825,-4.68101 0.54693,-7.40833 0.0478,-1.4687 0.14352,-2.64415 0.37602,-4.61571 0.19233,-1.63096 0.3396,-3.82931 0.42248,-6.30629 0.12493,-3.73419 0.2498,-5.83152 0.38984,-6.54811 0.0668,-0.3418 0.0973,-0.71778 0.0677,-0.83552 -0.0296,-0.11774 -0.007,-0.46673 0.0499,-0.77555 0.12778,-0.69243 0.004,-1.17588 -0.34367,-1.34252 -0.17475,-0.0837 -3.82127,-0.10661 -17.38812,-0.10899 l -17.167,-0.003 -0.37077,0.21729 c -0.54389,0.31873 -0.69535,0.52106 -0.80417,1.07414 -0.062,0.31533 -0.18914,0.61128 -0.34833,0.81105 -0.3189,0.40021 -0.45267,0.66261 -0.52721,1.03422 -0.0327,0.16299 -0.19138,0.51438 -0.35263,0.78088 -0.16126,0.26649 -0.36666,0.69808 -0.45646,0.95908 -0.0898,0.26101 -0.31343,0.74781 -0.49697,1.0818 -0.18353,0.33398 -0.39502,0.82015 -0.46998,1.08037 -0.075,0.26022 -0.23069,0.60108 -0.34608,0.75748 -0.11538,0.1564 -0.28773,0.49593 -0.38298,0.75454 -0.0953,0.25861 -0.30326,0.66131 -0.46222,0.8949 -0.15894,0.2336 -0.35183,0.67 -0.42864,0.96979 -0.084,0.32794 -0.25398,0.69483 -0.42667,0.921 -0.26119,0.34206 -0.33673,0.52886 -0.48959,1.21064 -0.0276,0.12328 -0.18083,0.38043 -0.34042,0.57145 -0.15959,0.19101 -0.31224,0.46162 -0.33924,0.60135 -0.027,0.13973 -0.0704,0.36482 -0.0964,0.50018 -0.026,0.13538 -0.17918,0.43065 -0.34032,0.65617 -0.16115,0.22553 -0.3674,0.65769 -0.45834,0.96037 -0.0909,0.30269 -0.30072,0.75989 -0.46618,1.016 -0.16547,0.25612 -0.33708,0.59978 -0.38136,0.7637 -0.0443,0.16391 -0.21839,0.52586 -0.3869,0.80433 -0.16852,0.27847 -0.38172,0.75396 -0.47377,1.05664 -0.0921,0.30268 -0.27608,0.705 -0.40892,0.89402 -0.13285,0.18903 -0.32654,0.60813 -0.43043,0.93134 -0.10388,0.3232 -0.28189,0.7104 -0.39557,0.86044 -0.11368,0.15003 -0.30067,0.56873 -0.41553,0.93043 -0.11486,0.36171 -0.29601,0.77235 -0.40254,0.91254 -0.27374,0.36021 -0.44138,0.71425 -0.50508,1.06667 -0.0302,0.16707 -0.20308,0.54942 -0.38417,0.84968 -0.18109,0.30025 -0.3728,0.71601 -0.42603,0.9239 -0.15421,0.60228 -0.26852,0.86023 -0.56274,1.26989 -0.36919,0.51403 -0.42419,0.76152 -0.22413,1.00858 l 0.15907,0.19644 4.0583,0.0343 c 2.23207,0.0189 4.40923,0.071 4.83814,0.11571 0.4289,0.0447 1.27414,0.0813 1.87829,0.0813 0.64283,0 1.34446,0.0517 1.69151,0.12475 0.39845,0.0838 0.81214,0.10786 1.26081,0.0733 0.43128,-0.0333 1.01035,-0.003 1.63501,0.0854 0.93551,0.13244 1.76774,0.15855 14.34455,0.45005 1.35043,0.0313 2.95063,0.0653 3.556,0.0755 0.60536,0.0102 1.88171,0.0622 2.83633,0.11558 4.14238,0.23149 4.95956,0.27311 6.56167,0.33419 3.26009,0.12431 3.37654,0.12123 3.57218,-0.0946 z m -77.14096,-6.64634 c 0.43398,-0.48711 1.64173,-1.68238 1.93594,-1.91592 0.43658,-0.34656 0.7223,-0.42422 2.67183,-0.7263 2.57959,-0.3997 2.92812,-0.53294 3.29494,-1.2596 0.13598,-0.26939 0.31029,-0.54213 0.38735,-0.60608 0.0771,-0.064 0.21838,-0.27122 0.31407,-0.4606 0.0957,-0.18938 0.34055,-0.56718 0.54414,-0.83956 0.2036,-0.27237 0.37017,-0.54477 0.37017,-0.60532 0,-0.0606 0.13927,-0.31395 0.30949,-0.56311 0.17022,-0.24916 0.43229,-0.70167 0.58238,-1.0056 0.15008,-0.30393 0.33869,-0.6072 0.4191,-0.67395 0.0804,-0.0667 0.2376,-0.32796 0.34929,-0.5805 0.11167,-0.25253 0.33147,-0.60129 0.48843,-0.77503 0.15696,-0.17374 0.34856,-0.50609 0.42578,-0.73857 0.0772,-0.23249 0.23822,-0.5139 0.35778,-0.62537 0.11957,-0.11146 0.33322,-0.43125 0.47478,-0.71065 0.14156,-0.2794 0.34459,-0.62235 0.45116,-0.7621 0.10657,-0.13975 0.27343,-0.43995 0.3708,-0.66711 0.0974,-0.22715 0.27728,-0.53191 0.39978,-0.67724 0.1225,-0.14532 0.33216,-0.50782 0.4659,-0.80557 0.13375,-0.29774 0.3559,-0.66973 0.49367,-0.82664 0.13777,-0.15692 0.31358,-0.40861 0.39068,-0.55932 0.0771,-0.15072 0.24661,-0.40951 0.37669,-0.5751 0.13007,-0.16558 0.31225,-0.50044 0.40484,-0.74411 0.0926,-0.24368 0.30256,-0.5916 0.46659,-0.77317 0.16403,-0.18156 0.3447,-0.48517 0.40148,-0.67469 0.0568,-0.18952 0.23163,-0.49457 0.38856,-0.67791 0.15693,-0.18334 0.37568,-0.53763 0.48611,-0.78732 0.11042,-0.2497 0.29454,-0.56613 0.40917,-0.70319 0.11462,-0.13706 0.29488,-0.42065 0.40057,-0.6302 0.1057,-0.20955 0.3022,-0.52085 0.43669,-0.69177 0.13448,-0.17093 0.32521,-0.49478 0.42384,-0.71967 0.0986,-0.22489 0.28536,-0.54399 0.41497,-0.70911 0.1296,-0.16511 0.33351,-0.52147 0.45311,-0.79191 0.11959,-0.27043 0.34682,-0.66874 0.50496,-0.88512 0.31387,-0.42949 0.56074,-1.06559 0.56074,-1.44485 0,-0.18332 -0.16757,-0.42615 -0.6985,-1.01229 -0.38418,-0.42412 -0.76163,-0.77146 -0.83878,-0.77187 -0.26064,-0.001 -1.21171,0.4887 -1.62578,0.83778 -0.22626,0.19074 -0.46398,0.34681 -0.52827,0.34681 -0.0643,0 -0.32451,0.18097 -0.57827,0.40216 -1.01691,0.88639 -1.28754,1.10248 -1.55033,1.23791 -0.15084,0.0777 -0.45956,0.30249 -0.68602,0.49947 -0.22647,0.19697 -0.52215,0.42433 -0.65708,0.50525 -0.38066,0.2283 -0.92659,0.66393 -2.46871,1.96992 -0.24498,0.20747 -0.55255,0.43262 -0.6835,0.50033 -0.13096,0.0677 -0.29247,0.1891 -0.35893,0.26972 -0.0665,0.0806 -0.33039,0.27938 -0.5865,0.44166 -0.44406,0.28136 -0.96084,0.70417 -1.60867,1.31613 -0.16298,0.15397 -0.41063,0.35105 -0.55033,0.43798 -0.1397,0.0869 -0.43083,0.31233 -0.64694,0.50092 -0.78861,0.68815 -1.17434,0.98824 -1.52983,1.19015 -0.19966,0.11342 -0.51548,0.34163 -0.7018,0.50714 -0.5874,0.52177 -1.83378,1.60252 -2.7315,2.36848 -0.24498,0.20901 -0.56883,0.44297 -0.71967,0.51988 -0.15084,0.0769 -0.46476,0.30486 -0.6976,0.50652 -0.65083,0.56374 -1.22433,1.0711 -1.73566,1.53549 -0.25612,0.23261 -0.56092,0.47216 -0.67734,0.53234 -0.19983,0.1033 -0.43837,0.2996 -1.59294,1.31088 -0.26582,0.23284 -0.72651,0.61384 -1.02375,0.84667 -0.75423,0.5908 -1.75612,1.47222 -3.19372,2.8097 -0.45975,0.42773 -0.99145,0.89006 -1.18154,1.0274 -0.49428,0.35711 -0.88205,0.85671 -0.88205,1.13643 0,0.25423 0.33209,0.52005 0.76983,0.61619 0.12447,0.0273 0.37366,0.1751 0.55374,0.32837 0.18009,0.15327 0.42268,0.32845 0.5391,0.3893 0.11642,0.0609 0.42359,0.27631 0.6826,0.47879 0.25902,0.20248 0.50315,0.36815 0.54252,0.36815 0.0394,0 0.26751,0.15117 0.507,0.33593 0.23948,0.18475 0.57038,0.39232 0.73535,0.46124 0.16495,0.0689 0.46783,0.26643 0.67306,0.43891 0.20523,0.17247 0.53649,0.38642 0.73613,0.47544 0.19964,0.089 0.48539,0.26918 0.635,0.40036 0.14961,0.13116 0.45381,0.32384 0.67601,0.42816 0.2222,0.10431 0.49153,0.3015 0.59849,0.43819 0.19652,0.25109 0.696,0.48256 1.05608,0.48939 0.11042,0.002 0.2864,-0.0979 0.40332,-0.22912 z"
       id="path362" /></g></svg>
