<?xml version="1.0" encoding="UTF-8" standalone="no"?>
<!-- Created with Inkscape (http://www.inkscape.org/) -->

<svg
   width="78.513893mm"
   height="20.510361mm"
   viewBox="0 0 78.513893 20.510361"
   version="1.1"
   id="svg475"
   xml:space="preserve"
   inkscape:version="1.2 (dc2aeda, 2022-05-15)"
   sodipodi:docname="787 front.svg"
   xmlns:inkscape="http://www.inkscape.org/namespaces/inkscape"
   xmlns:sodipodi="http://sodipodi.sourceforge.net/DTD/sodipodi-0.dtd"
   xmlns="http://www.w3.org/2000/svg"
   xmlns:svg="http://www.w3.org/2000/svg"><sodipodi:namedview
     id="namedview477"
     pagecolor="#ffffff"
     bordercolor="#000000"
     borderopacity="0.25"
     inkscape:showpageshadow="2"
     inkscape:pageopacity="0.0"
     inkscape:pagecheckerboard="0"
     inkscape:deskcolor="#d1d1d1"
     inkscape:document-units="mm"
     showgrid="false"
     inkscape:zoom="4.3570836"
     inkscape:cx="119.23113"
     inkscape:cy="73.787888"
     inkscape:window-width="1800"
     inkscape:window-height="1097"
     inkscape:window-x="0"
     inkscape:window-y="44"
     inkscape:window-maximized="0"
     inkscape:current-layer="layer1" /><defs
     id="defs472" /><g
     inkscape:label="Layer 1"
     inkscape:groupmode="layer"
     id="layer1"
     transform="translate(-4.4822311,-141.8978)"><path
       id="path656"
       style="fill:#000000;stroke-width:0.0846667"
       d="m 29.134648,162.14629 c -0.939001,-0.44494 -1.481666,-1.33286 -1.481666,-2.42433 0.03161,-0.80713 0.532012,-1.62659 1.183333,-2.05246 0.35778,-0.22323 -2.154765,-0.69925 -2.154765,-0.69925 l -4.660415,-0.97684 -2.363161,-0.55924 c 0,0 -1.667471,-0.39508 -2.461318,-0.62961 -2.604836,-0.70041 -5.703805,-1.76177 -8.4666659,-2.89973 -2.2032119,-0.90745 -3.9625989,-1.87552 -4.1938206,-2.30756 -0.1213278,-0.2267 -0.058966,-0.20781 0.4047915,0.12264 1.8223307,1.29849 10.851115,4.51261 14.048237,5.00097 0.131702,0.0201 0.391858,0.0782 0.578124,0.12907 0.497776,0.13594 0.621842,0.16148 1.227667,0.25276 0.905743,0.24867 1.586799,0.3008 2.421149,0.46089 0.321484,0.0672 1.289367,0.2399 2.150851,0.38369 0.861483,0.14379 1.750215,0.29903 1.974959,0.34499 1.18648,0.20797 2.461715,0.27095 3.528374,0.3667 3.12099,0.0299 5.659076,0.73402 8.611297,0.93284 0,0 0.18597,-0.22911 0.253713,-1.05718 l 0.03895,-0.47615 -1.171149,-0.2183 c -0.644131,-0.12007 -2.085548,-0.35466 -3.203148,-0.52132 -3.840397,-0.57267 -4.318173,-0.65081 -4.38785,-0.71761 -0.182794,-0.17525 3.661296,0.17621 8.282517,0.75727 0.470883,0.0592 0.92469,-0.10416 0.756515,-0.27233 -0.06777,-0.0678 0.653826,-1.11612 0.989145,-1.43705 0.05944,-0.0569 0.119978,-0.11148 0.181532,-0.16379 0.06155,-0.0523 0.124122,-0.10233 0.187618,-0.15008 0.0635,-0.0478 0.127918,-0.0932 0.193182,-0.13647 0.06526,-0.0432 0.131366,-0.0842 0.198223,-0.12296 0.06686,-0.0387 0.134468,-0.0753 0.202744,-0.10953 0.06828,-0.0343 0.13722,-0.0663 0.206743,-0.0962 0.06952,-0.0299 0.139625,-0.0575 0.210219,-0.083 0.0706,-0.0255 0.141682,-0.0487 0.213175,-0.0698 0.07149,-0.0211 0.143391,-0.04 0.215608,-0.0567 0.07222,-0.0168 0.144752,-0.0313 0.217519,-0.0438 0.07277,-0.0124 0.145766,-0.0227 0.21891,-0.0309 0.146452,-0.0187 0.351521,-10.62124 0.501474,-10.61814 0.149954,0.003 0.244791,10.61204 0.377626,10.62214 0.07291,0.009 0.145616,0.0193 0.218032,0.0321 1.158659,0.20412 2.243048,0.93404 2.896985,2.12702 0.107756,0.19658 0.172946,0.35741 0.144868,0.35741 -0.02808,0 0.01711,0.0708 0.100416,0.15738 l 0.151465,0.15737 1.227667,-0.15591 c 1.116449,-0.14179 3.985083,-0.45106 6.138333,-0.66179 0.917228,-0.0898 1.491649,-0.0897 1.436108,1.7e-4 -0.04392,0.0711 -0.264179,0.10904 -2.440178,0.42069 -2.180529,0.3123 -4.115244,0.62011 -5.367097,0.8539 l -0.952499,0.17788 0.003,0.43532 c 0.0017,0.23943 0.05745,0.53058 0.123999,0.64699 0.06655,0.11642 0.124,0.39424 0.124,0.39424 l 2.797,-0.3807 c 0,0 4.730772,-0.38329 5.969,-0.48792 0.372533,-0.0315 0.867833,-0.0693 1.100666,-0.084 0.232834,-0.0147 0.690034,-0.0662 1.016,-0.1143 0.325967,-0.0481 0.878417,-0.12986 1.227667,-0.18159 1.041145,-0.15424 3.029722,-0.49521 3.964561,-0.67978 0.631179,-0.102 1.793329,-0.33173 1.793329,-0.33173 l 0.846108,-0.17004 c 0,0 0.729819,-0.11607 1.227666,-0.25234 0.186267,-0.051 0.414867,-0.10541 0.508,-0.12094 3.540028,-0.59046 12.258296,-3.68351 14.118362,-5.00889 0.45348,-0.32313 0.502072,-0.34078 0.431433,-0.15669 -0.162374,0.42314 -2.20126,1.54276 -4.389795,2.41058 -0.325967,0.12926 -0.988738,0.39266 -1.472825,0.58535 -1.711016,0.68106 -6.401107,2.12248 -6.401107,2.12248 l -3.397126,0.88113 -2.391373,0.55148 c 0,0 -2.827552,0.60467 -4.120291,0.85452 -2.504886,0.50122 -2.512821,0.50321 -2.308226,0.58032 0.280978,0.10589 0.790061,0.67316 1.025818,1.14306 0.660724,1.31694 0.114476,2.79061 -1.184419,3.4601 -0.439431,0.2265 -0.730869,0.24541 -1.201039,0.21823 -1.876779,-0.10864 -3.020164,-2.00042 -2.214692,-3.6643 0.359564,-0.74277 0.308385,-0.74109 -3.639719,0.11899 -0.675216,0.1471 -1.646766,0.36691 -2.159,0.48848 l -0.931333,0.22103 -0.508,0.54916 c -0.662041,0.71567 -0.822072,0.77407 -2.402879,0.87693 -1.612124,0.10489 -1.456117,0.10489 -3.068241,0 -1.415289,-0.0921 -1.768024,-0.18567 -2.106546,-0.55886 -0.877938,-0.96786 -0.623181,-0.84944 -2.921,-1.35774 -0.2794,-0.0618 -0.86995,-0.19285 -1.312333,-0.29121 -1.707365,-0.37964 -3.25276,-0.66484 -3.366336,-0.62125 -0.128765,0.0494 -0.121389,0.0901 0.14186,0.78298 0.819254,2.15622 -1.42029,4.22022 -3.506524,3.23168 z"
       sodipodi:nodetypes="ccccccccscccccscccscccscccsccccssscccsccssccsccssccscccssccccccssssccccssscssscssccsccccc" /></g></svg>
