<?xml version="1.0" encoding="UTF-8" standalone="no"?>
<!-- Created with Inkscape (http://www.inkscape.org/) -->

<svg
   width="250.84691mm"
   height="236.71156mm"
   viewBox="0 0 250.84691 236.71156"
   version="1.1"
   id="svg4723"
   xml:space="preserve"
   inkscape:version="1.2 (dc2aeda, 2022-05-15)"
   sodipodi:docname="Boeing 787 outline.svg"
   xmlns:inkscape="http://www.inkscape.org/namespaces/inkscape"
   xmlns:sodipodi="http://sodipodi.sourceforge.net/DTD/sodipodi-0.dtd"
   xmlns="http://www.w3.org/2000/svg"
   xmlns:svg="http://www.w3.org/2000/svg"><sodipodi:namedview
     id="namedview4725"
     pagecolor="#ffffff"
     bordercolor="#000000"
     borderopacity="0.25"
     inkscape:showpageshadow="2"
     inkscape:pageopacity="0.0"
     inkscape:pagecheckerboard="0"
     inkscape:deskcolor="#d1d1d1"
     inkscape:document-units="mm"
     showgrid="false"
     inkscape:zoom="0.72477553"
     inkscape:cx="235.24525"
     inkscape:cy="312.51055"
     inkscape:window-width="1800"
     inkscape:window-height="1097"
     inkscape:window-x="0"
     inkscape:window-y="44"
     inkscape:window-maximized="0"
     inkscape:current-layer="layer1" /><defs
     id="defs4720" /><g
     inkscape:label="Layer 1"
     inkscape:groupmode="layer"
     id="layer1"
     transform="translate(30.910977,-34.334245)"><path
       style="fill:#000000;stroke-width:0.352778"
       d="m 53.21472,267.21992 1.095192,-3.82782 10.583333,-9.11059 c 18.298507,-15.75214 19.653064,-16.98659 20.267825,-18.47076 0.324672,-0.78382 0.08456,-2.42338 -1.3826,-9.44109 l -1.775502,-8.49253 V 191.36938 164.86162 H 64.961801 47.92063 l -2.978969,1.21377 c -1.638434,0.66757 -16.809082,7.14862 -33.712558,14.40232 -12.7111825,6.0516 -25.4863,8.85876 -36.33611,17.81151 l -5.60253,4.62295 c -0.06715,-2.20409 -0.134293,-4.40817 -0.20144,-6.61226 l 4.22998,-6.46648 4.22999,-6.46648 16.3318505,-11.31091 c 8.98251,-6.221 25.2218445,-17.46765 36.0874005,-24.99257 10.865556,-7.52491 19.993681,-13.8898 20.284723,-14.1442 0.375775,-0.32846 0.493734,-0.98118 0.406926,-2.25176 l -0.122245,-1.78922 -1.994422,-0.005 c -1.096934,-0.003 -2.171488,-0.12203 -2.387893,-0.26458 -1.112478,-0.7328 -2.436022,-9.79105 -2.125874,-14.54934 0.404502,-6.20594 1.226471,-9.57464 2.475032,-10.14352 0.452353,-0.20611 3.411044,-0.39323 6.626744,-0.41911 7.350189,-0.0592 7.378499,-0.0437 8.175064,4.4761 1.055607,5.98957 1.058757,11.05721 0.01012,16.30033 l -0.232572,1.16285 4.374134,-3.031 c 2.405775,-1.66705 7.110113,-4.90089 10.454083,-7.18631 l 6.079949,-4.15529 0.0055,-20.511933 c 0.0058,-21.677048 0.181151,-25.106598 1.636839,-32.010295 2.849792,-13.515294 7.593761,-24.206947 10.740818,-24.206947 3.444663,0 8.56585,12.372555 11.31655,27.340278 0.73889,4.020591 0.78487,5.37239 0.91505,26.899306 0.0755,12.492671 0.27465,22.665971 0.44362,22.665971 0.29326,0 7.43324,4.88646 16.35484,11.19294 2.30129,1.62673 4.25149,2.89038 4.33376,2.8081 0.0823,-0.0823 -0.0128,-0.84523 -0.21126,-1.69545 -1.37724,-5.9 -0.3626,-18.04367 1.63405,-19.55716 0.48709,-0.36922 2.10587,-0.48982 6.68894,-0.49832 5.27055,-0.01 6.14532,0.0689 6.81784,0.6135 2.31594,1.87534 2.81465,15.49726 0.83223,22.73165 l -0.55171,2.01332 -2.33901,0.10335 -2.33902,0.10335 -0.10117,1.76389 -0.10118,1.76389 10.26417,7.05555 c 5.6453,3.88056 10.92958,7.5445 11.74285,8.1421 0.81326,0.59759 9.25742,6.45867 18.76478,13.02459 9.50736,6.56594 19.34986,13.39267 21.87222,15.17053 2.52236,1.77786 5.95591,4.17179 7.6301,5.31985 3.01693,2.06882 3.08196,2.14539 7.31654,8.61377 l 4.27255,6.52638 0.004,3.28402 c 0.002,2.19504 -0.11867,3.20845 -0.36513,3.05612 -0.2028,-0.12533 -2.77264,-2.21525 -5.71076,-4.64425 -2.93811,-2.42901 -5.82812,-4.63495 -6.42224,-4.90209 -0.59411,-0.26715 -4.41396,-1.90105 -8.48855,-3.6309 -4.07458,-1.72986 -18.73571,-8.00324 -32.58028,-13.94085 l -25.17238,-10.79606 h -17.24958 -17.24958 v 26.46171 26.46171 l -1.60609,7.84593 c -0.88336,4.31526 -1.62194,8.28411 -1.64129,8.81966 -0.069,1.90942 0.35073,2.31456 19.65858,18.97506 5.04859,4.35636 9.70556,8.35835 10.34882,8.89332 0.99299,0.82581 1.32709,1.53814 2.21287,4.71806 0.57382,2.05997 0.9649,3.82381 0.86906,3.91965 -0.16683,0.16682 -7.99252,-2.41286 -28.56133,-9.41503 -5.21351,-1.77482 -9.527595,-3.17846 -9.586854,-3.1192 -0.09901,0.099 -2.277096,10.33412 -2.277096,10.70036 0,0.0885 -0.769592,0.161 -1.710207,0.161 h -1.71021 l -1.12256,-5.36101 c -0.617407,-2.94856 -1.173597,-5.41205 -1.235972,-5.47443 -0.06238,-0.0624 -1.764195,0.4624 -3.781816,1.16616 -8.952393,3.12267 -33.691507,11.42949 -34.044151,11.43124 -0.240707,10e-4 0.02896,-1.4612 0.705556,-3.82589 z"
       id="path5016"
       sodipodi:nodetypes="scssscccccsccccccssssccssscsscsscsssscssscsccscccccssssssccssssccccccsssssssssscssscs" /></g></svg>
