<?xml version="1.0" encoding="UTF-8" standalone="no"?>
<!-- Created with Inkscape (http://www.inkscape.org/) -->

<svg
   width="250.84691mm"
   height="236.71156mm"
   viewBox="0 0 250.84691 236.71156"
   version="1.1"
   id="svg4723"
   xml:space="preserve"
   inkscape:version="1.2 (dc2aeda, 2022-05-15)"
   sodipodi:docname="Boeing 787 minus two doors.svg"
   xmlns:inkscape="http://www.inkscape.org/namespaces/inkscape"
   xmlns:sodipodi="http://sodipodi.sourceforge.net/DTD/sodipodi-0.dtd"
   xmlns="http://www.w3.org/2000/svg"
   xmlns:svg="http://www.w3.org/2000/svg"><sodipodi:namedview
     id="namedview4725"
     pagecolor="#ffffff"
     bordercolor="#000000"
     borderopacity="0.25"
     inkscape:showpageshadow="2"
     inkscape:pageopacity="0.0"
     inkscape:pagecheckerboard="0"
     inkscape:deskcolor="#d1d1d1"
     inkscape:document-units="mm"
     showgrid="false"
     inkscape:zoom="0.83663938"
     inkscape:cx="349.01537"
     inkscape:cy="365.15135"
     inkscape:window-width="1800"
     inkscape:window-height="1097"
     inkscape:window-x="0"
     inkscape:window-y="44"
     inkscape:window-maximized="0"
     inkscape:current-layer="layer1" /><defs
     id="defs4720" /><g
     inkscape:label="Layer 1"
     inkscape:groupmode="layer"
     id="layer1"
     transform="translate(30.910977,-34.334245)"><path
       style="fill:#000000;stroke-width:0.352778"
       d="m 53.21472,267.21992 1.095192,-3.82782 10.583333,-9.11059 c 18.298507,-15.75214 19.653064,-16.98659 20.267825,-18.47076 0.324672,-0.78382 0.08456,-2.42338 -1.3826,-9.44109 l -1.775502,-8.49253 V 191.36938 164.86162 H 64.961801 47.92063 l -2.978969,1.21377 c -1.638434,0.66757 -16.809082,7.14862 -33.712558,14.40232 l -30.73357,13.18856 -5.60254,4.62295 -5.60253,4.62295 -0.10072,-3.30613 -0.10072,-3.30613 4.22998,-6.46648 4.22999,-6.46648 16.3318505,-11.31091 c 8.98251,-6.221 25.2218445,-17.46765 36.0874005,-24.99257 10.865556,-7.52491 19.993681,-13.8898 20.284723,-14.1442 0.375775,-0.32846 0.493734,-0.98118 0.406926,-2.25176 l -0.122245,-1.78922 -1.994422,-0.005 c -1.096934,-0.003 -2.171488,-0.12203 -2.387893,-0.26458 -1.112478,-0.7328 -2.436022,-9.79105 -2.125874,-14.54934 0.404502,-6.20594 1.226471,-9.57464 2.475032,-10.14352 0.452353,-0.20611 3.411044,-0.39323 6.626744,-0.41911 7.350189,-0.0592 7.378499,-0.0437 8.175064,4.4761 1.055607,5.98957 1.058757,11.05721 0.01012,16.30033 l -0.232572,1.16285 4.374134,-3.031 c 2.405775,-1.66705 7.110113,-4.90089 10.454083,-7.18631 l 6.079949,-4.15529 0.0055,-20.511933 c 0.0058,-21.677048 0.181151,-25.106598 1.636839,-32.010295 2.849792,-13.515294 7.593761,-24.206947 10.740818,-24.206947 3.444663,0 8.56585,12.372555 11.31655,27.340278 0.73889,4.020591 0.78487,5.37239 0.91505,26.899306 0.0755,12.492671 0.27465,22.665971 0.44362,22.665971 0.29326,0 7.43324,4.88646 16.35484,11.19294 2.30129,1.62673 4.25149,2.89038 4.33376,2.8081 0.0823,-0.0823 -0.0128,-0.84523 -0.21126,-1.69545 -1.37724,-5.9 -0.3626,-18.04367 1.63405,-19.55716 0.48709,-0.36922 2.10587,-0.48982 6.68894,-0.49832 5.27055,-0.01 6.14532,0.0689 6.81784,0.6135 2.31594,1.87534 2.81465,15.49726 0.83223,22.73165 l -0.55171,2.01332 -2.33901,0.10335 -2.33902,0.10335 -0.10117,1.76389 -0.10118,1.76389 10.26417,7.05555 c 5.6453,3.88056 10.92958,7.5445 11.74285,8.1421 0.81326,0.59759 9.25742,6.45867 18.76478,13.02459 9.50736,6.56594 19.34986,13.39267 21.87222,15.17053 2.52236,1.77786 5.95591,4.17179 7.6301,5.31985 3.01693,2.06882 3.08196,2.14539 7.31654,8.61377 l 4.27255,6.52638 0.004,3.28402 c 0.002,2.19504 -0.11867,3.20845 -0.36513,3.05612 -0.2028,-0.12533 -2.77264,-2.21525 -5.71076,-4.64425 -2.93811,-2.42901 -5.82812,-4.63495 -6.42224,-4.90209 -0.59411,-0.26715 -4.41396,-1.90105 -8.48855,-3.6309 -4.07458,-1.72986 -18.73571,-8.00324 -32.58028,-13.94085 l -25.17238,-10.79606 h -17.24958 -17.24958 v 26.46171 26.46171 l -1.60609,7.84593 c -0.88336,4.31526 -1.62194,8.28411 -1.64129,8.81966 -0.069,1.90942 0.35073,2.31456 19.65858,18.97506 5.04859,4.35636 9.70556,8.35835 10.34882,8.89332 0.99299,0.82581 1.32709,1.53814 2.21287,4.71806 0.57382,2.05997 0.9649,3.82381 0.86906,3.91965 -0.16683,0.16682 -7.99252,-2.41286 -28.56133,-9.41503 -5.21351,-1.77482 -9.527595,-3.17846 -9.586854,-3.1192 -0.09901,0.099 -2.277096,10.33412 -2.277096,10.70036 0,0.0885 -0.769592,0.161 -1.710207,0.161 h -1.71021 l -1.12256,-5.36101 c -0.617407,-2.94856 -1.173597,-5.41205 -1.235972,-5.47443 -0.06238,-0.0624 -1.764195,0.4624 -3.781816,1.16616 -8.952393,3.12267 -33.691507,11.42949 -34.044151,11.43124 -0.240707,10e-4 0.02896,-1.4612 0.705556,-3.82589 z m 3.211622,0.62497 c 0.379067,-1.15314 1.094786,-1.56359 16.073484,-9.21783 8.622214,-4.40603 15.814555,-8.06353 15.982979,-8.12777 0.168423,-0.0642 -0.280501,-2.96807 -0.997603,-6.45294 -1.736774,-8.44009 -1.521587,-7.84538 -2.400847,-6.63509 -0.401383,0.55249 -1.695461,1.85937 -2.875728,2.90418 -3.64048,3.22267 -19.567621,16.97 -26.379256,22.76896 -0.703477,0.59889 -1.138301,1.5463 -1.675694,3.65107 -0.39914,1.56328 -0.72571,2.92662 -0.72571,3.02966 0,0.10304 0.585368,-0.0153 1.300819,-0.26302 0.996717,-0.34507 1.393567,-0.73249 1.697556,-1.65722 z m 79.108568,1.70354 c -0.0912,-0.24253 -0.46241,-1.59807 -0.82496,-3.01229 l -0.65919,-2.57132 -10.7495,-9.24674 c -11.93241,-10.26427 -14.21043,-12.27441 -17.90431,-15.79893 l -2.53519,-2.41896 -0.40769,2.01614 c -0.22423,1.10887 -0.86018,4.15925 -1.41323,6.77863 -0.55304,2.61937 -0.89562,4.86112 -0.76128,4.98167 0.13433,0.12054 4.76862,2.52546 10.29841,5.34425 23.70287,12.08245 21.49268,10.84232 21.87873,12.27602 0.27115,1.00697 0.59392,1.36433 1.49264,1.65263 1.5784,0.50633 1.77627,0.50619 1.58557,-10e-4 z m -61.843228,-6.39469 c 8.856642,-2.98351 16.196794,-5.51837 16.31145,-5.63302 0.214267,-0.21426 -0.941673,-6.22854 -1.197116,-6.22854 -0.153617,0 -20.579504,10.35307 -27.325628,13.85027 -2.532242,1.31272 -4.18392,2.3855 -4.288501,2.78542 -0.09355,0.35773 -0.04254,0.65042 0.113362,0.65042 0.155896,0 7.529791,-2.44105 16.386433,-5.42455 z m 58.052958,4.89981 c 0,-0.7249 -1.4562,-1.57244 -10.58334,-6.15971 -4.36562,-2.19415 -10.8101,-5.47714 -14.32105,-7.29552 -3.51095,-1.81837 -6.54516,-3.30614 -6.74269,-3.30614 -0.325993,0 -1.716001,5.91696 -1.450663,6.17514 0.207314,0.20172 32.208803,11.06966 32.656763,11.09048 0.24254,0.0113 0.44098,-0.21564 0.44098,-0.50425 z m -36.151303,-6.7954 c 0.334645,-8.90275 -0.02459,-35.75866 -0.546174,-40.83191 -0.608033,-5.91406 -0.815502,-5.71277 -1.45222,1.409 -0.51641,5.77615 -0.684562,43.65078 -0.201648,45.42013 0.194113,0.71121 0.488096,0.97014 1.101464,0.97014 h 0.83668 z m 5.454923,-20.02014 c 2.33092,-11.25361 4.23803,-20.62672 4.23804,-20.82913 0,-0.20241 -0.51593,-0.51991 -1.14653,-0.70555 l -1.14652,-0.33754 -0.10364,-2.76747 c -0.1163,-3.10555 0.18516,-3.75892 1.73433,-3.75892 h 1.01514 v -20.46111 -20.46111 h -0.98778 c -1.53402,0 -1.83444,-0.57774 -1.83444,-3.52778 0,-2.95004 0.30042,-3.52778 1.83444,-3.52778 h 0.98778 v -32.27916 -32.27917 l 0.0382,-7.231944 -0.0302,-13.052778 c -0.0355,-15.379154 -0.30805,-18.123808 -1.80347,-18.162654 -0.41533,-0.01079 -1.02889,-1.839746 -1.25091,-3.728794 -0.17954,-1.527632 -0.10543,-2.067537 0.35344,-2.57457 0.54147,-0.598331 0.50724,-0.897516 -0.50784,-4.438523 -2.01847,-7.041248 -5.04748,-13.7515 -7.008533,-15.526228 -2.200162,-1.991118 -5.476981,3.550036 -9.03163,15.272627 l -1.213823,4.00297 0.76775,0.621686 c 0.743328,0.601909 0.753209,0.703056 0.310635,3.179552 -0.394212,2.205876 -0.594378,2.636642 -1.454559,3.130319 -1.536633,0.881907 -1.746847,3.067778 -1.746847,18.164316 v 13.288466 l 0,7.055555 v 32.27917 32.27916 H 83.9664 c 1.930244,0 2.269864,0.49953 2.269864,3.33861 0,2.94717 -0.44358,3.71695 -2.141866,3.71695 h -1.033135 v 20.46111 20.46111 h 1.164167 c 1.704862,0 2.010834,0.51686 2.010834,3.39675 0,2.80675 -0.457719,3.65881 -1.965477,3.65881 -0.471209,0 -0.856746,0.15365 -0.856746,0.34145 0,0.1878 0.782451,4.11686 1.738782,8.73125 0.956328,4.61439 2.781674,13.4698 4.05632,19.67869 1.274646,6.20889 2.446034,11.76514 2.60308,12.34722 0.158003,0.58562 0.297748,-6.03241 0.312868,-14.81667 0.01503,-8.73125 0.130052,-17.54187 0.255606,-19.57916 0.66011,-10.71148 1.205695,-13.60488 2.349658,-12.46091 1.279518,1.27951 1.882991,11.20795 1.899215,31.24621 0.0075,9.26475 0.05121,16.726 0.09713,16.58055 0.04592,-0.14546 1.990609,-9.47197 4.32153,-20.72558 z M 89.29371,46.79866 c -0.468831,-0.468828 -0.213085,-1.234979 0.911342,-2.730157 1.453864,-1.933244 3.45676,-3.384658 4.6707,-3.384658 1.425843,0 5.118883,3.797334 5.118883,5.263445 0,1.548707 -1.083853,1.434583 -3.082339,-0.324556 -0.881708,-0.776111 -1.875907,-1.411111 -2.209327,-1.411111 -0.333421,0 -1.32762,0.635 -2.209328,1.411111 -1.492712,1.313939 -2.640224,1.735633 -3.199931,1.175926 z m 2.206706,-1.322987 c 0.593175,-0.631404 0.714661,-1.006879 0.468253,-1.447187 -0.29549,-0.528014 -0.417759,-0.486481 -1.092274,0.371026 -1.35835,1.726862 -0.835067,2.629291 0.624021,1.076161 z m 7.78691,0.411645 c -0.0011,-0.242535 -0.37689,-0.909826 -0.835395,-1.482868 -0.832972,-1.041052 -0.83385,-1.041246 -1.088379,-0.239302 -0.174135,0.548655 -0.05994,1.01783 0.360905,1.482868 0.696352,0.769456 1.565505,0.902539 1.562869,0.239302 z m -5.619499,-2.040885 c 0.739553,-0.395796 0.958091,-2.104254 0.269169,-2.104254 -0.755128,0 -1.631703,1.080185 -1.447669,1.783932 0.207475,0.793389 0.265232,0.809088 1.1785,0.320322 z m 2.551253,-1.662818 -0.986945,-0.793287 -0.118459,0.952279 c -0.163188,1.311856 0.95764,2.180656 1.630422,1.263805 0.40167,-0.547391 0.333181,-0.732996 -0.525018,-1.422797 z M 85.368475,218.3768 c 0.112173,-0.44693 0.154887,-1.67725 0.09492,-2.73403 -0.106903,-1.88382 -0.131474,-1.92359 -1.255565,-2.03197 l -1.146528,-0.11055 v 2.84458 2.84457 h 1.051613 c 0.803579,0 1.099715,-0.19166 1.25556,-0.8126 z m 20.270605,-2.03305 v -2.84566 l -0.97014,0.11163 c -0.93251,0.1073 -0.97426,0.19913 -1.07649,2.36752 -0.13118,2.78252 0.0231,3.21216 1.15362,3.21216 0.88169,0 0.89301,-0.0361 0.89301,-2.84565 z m -129.927047,-19.73213 4.54432,-3.70416 10.2894205,-4.40801 10.28942996,-4.40802 0.38485004,-1.60425 c 0.38327,-1.59763 0.40152,-1.61294 4.41832,-3.70588 2.21841,-1.15589 4.0361,-2.30794 4.03931,-2.56011 0.003,-0.25217 -0.23473,-0.92371 -0.52876,-1.4923 -0.5276,-1.02025 -0.5195,-1.04018 0.61736,-1.51926 0.6335795,-0.267 4.6444595,-1.99625 8.9130715,-3.84279 4.268611,-1.84653 10.936111,-4.71767 14.816667,-6.38031 13.858586,-5.93775 14.108395,-6.05799 14.109803,-6.7916 0.0011,-0.63732 0.328528,-0.68831 5.00404,-0.77965 l 5.002731,-0.0977 0.112547,0.97967 0.112546,0.97968 12.08264,0.0928 12.082639,0.0928 v -22.76138 -22.76139 l -1.744804,1.14912 c -0.95964,0.63201 -1.75339,1.32295 -1.763889,1.53541 -0.01048,0.21246 0.313119,0.68693 0.719145,1.05438 0.40603,0.36745 0.882456,0.93758 1.058729,1.26695 0.342917,0.64074 0.529198,0.51062 -41.582875,29.04801 -23.156961,15.69241 -49.760041,33.74476 -52.949411,35.93048 l -2.6006,1.78224 -0.84607,-0.98362 -0.84607,-0.98361 -1.58786,0.99804 c -1.10105,0.69207 -2.14772,1.8633 -3.41397,3.82028 -1.00435,1.55222 -2.906,4.46001 -4.22588,6.46176 -2.35032,3.56453 -2.39978,3.68721 -2.39978,5.95206 0,2.7246 -0.67825,2.99621 5.8924,-2.35966 z m 243.521497,2.44454 c 0,-2.1332 -0.0162,-2.16674 -4.14514,-8.58406 -3.38409,-5.25965 -4.46095,-6.6613 -5.86524,-7.63425 l -1.72011,-1.19176 -0.82345,1.03271 -0.82346,1.03271 -8.39255,-5.66935 c -4.6159,-3.11814 -13.6313,-9.23328 -20.03422,-13.58921 -6.40292,-4.35593 -15.05479,-10.23348 -19.22639,-13.06123 -4.1716,-2.82774 -12.02972,-8.16551 -17.4625,-11.86171 -5.43278,-3.6962 -13.01834,-8.83523 -16.85679,-11.42007 -10.9058,-7.34402 -15.42238,-10.52716 -15.42238,-10.8692 0,-0.17339 0.15136,-0.4088 0.33636,-0.52313 0.18499,-0.11434 0.65838,-0.66013 1.05197,-1.21287 l 0.71562,-1.005 -1.48626,-1.01281 c -0.81744,-0.55704 -1.6877,-1.13976 -1.93392,-1.29492 -0.35998,-0.22686 -0.44766,4.17773 -0.44766,22.48958 v 22.7717 h 12.14741 12.1474 l 0.11162,-0.97014 0.11163,-0.97014 5.0013,-0.0977 c 4.94731,-0.0967 5.00253,-0.0892 5.11528,0.69386 0.13018,0.90413 -0.42643,0.6444 22.68013,10.58319 8.14277,3.50244 15.15953,6.52959 15.59279,6.727 l 0.78776,0.35892 -0.68403,1.34081 -0.68403,1.3408 4.22656,2.22658 c 2.32462,1.22461 4.22875,2.38531 4.2314,2.57934 0.003,0.19403 0.16377,0.92495 0.35803,1.62427 l 0.35319,1.27149 10.26216,4.36985 10.26217,4.36986 4.99309,4.13129 c 2.7462,2.27222 5.11215,4.13893 5.25767,4.14824 0.14552,0.009 0.26459,-0.94676 0.26459,-2.12463 z M 24.70203,173.89758 c 12.209752,-5.21669 22.358298,-9.66169 22.552326,-9.87778 0.206682,-0.23019 0.279728,-1.58552 0.176389,-3.27271 l -0.176389,-2.87982 -17.991668,7.75653 c -9.895417,4.26609 -18.349105,7.89974 -18.785975,8.07477 -0.7802495,0.31261 -0.7841495,0.3436 -0.22042,1.7525 0.31564,0.78885 0.51432,1.48891 0.44153,1.55569 -0.0728,0.0668 -1.9116295,1.01068 -4.0862995,2.09755 -2.17466,1.08687 -4.11935,2.28521 -4.32153,2.66298 -0.43822,0.81883 -0.48655,1.89859 -0.0776,1.73276 0.15952,-0.0647 10.2798295,-4.38579 22.4895865,-9.60247 z m 162.42872,9.33145 c 0,-1.37997 -0.8623,-2.12028 -4.90137,-4.20798 l -4.26504,-2.20449 0.68503,-1.34276 0.68502,-1.34276 -0.95251,-0.43635 c -1.13456,-0.51973 -35.99482,-15.53531 -36.65533,-15.78878 -0.35292,-0.13542 -0.45691,0.53854 -0.45691,2.96113 v 3.13646 l 22.66597,9.7534 c 12.46629,5.36438 22.78504,9.76433 22.93056,9.77767 0.14552,0.0133 0.26458,-0.12414 0.26458,-0.30554 z M -6.6094865,175.85748 c 21.0479295,-14.31633 49.4505815,-33.6035 71.6791205,-48.67457 7.858125,-5.32786 14.34578,-9.73748 14.417005,-9.79916 0.194243,-0.16822 -1.493495,-2.22173 -1.844519,-2.24427 -0.167147,-0.0107 -2.072147,1.22928 -4.233334,2.7556 -3.733885,2.63702 -26.418858,18.36526 -51.378042,35.62208 -11.917791,8.23998 -13.2623405,9.17221 -23.8983005,16.56967 -3.53969,2.4619 -8.5154805,5.90493 -11.0573105,7.65118 -2.54183,1.74625 -4.6997,3.30102 -4.79526,3.45504 -0.20879,0.33648 0.54238,1.30746 1.01148,1.30746 0.1829,0 4.72752,-2.98936 10.0991605,-6.64303 z m 213.0278965,5.99071 c 0.36696,-0.58759 -0.52618,-1.29952 -8.99916,-7.17338 -5.17361,-3.58657 -21.39218,-14.82785 -36.04128,-24.98061 -14.6491,-10.15276 -30.2066,-20.94228 -34.57222,-23.97671 -4.36563,-3.03442 -9.66637,-6.69081 -11.77944,-8.12529 l -3.84194,-2.60815 -0.8305,1.03809 c -0.45677,0.57095 -0.79165,1.15004 -0.74417,1.28687 0.0475,0.13682 2.22945,1.70604 4.84883,3.48715 2.61937,1.78111 20.71687,14.07014 40.21666,27.30896 19.4998,13.23881 38.8673,26.39323 43.03889,29.23203 4.1716,2.83881 7.74498,5.1619 7.94084,5.16242 0.19586,3.5e-4 0.53943,-0.2926 0.76349,-0.65138 z M 85.354357,168.3894 v -2.64583 l -1.146528,-0.11055 -1.146528,-0.11054 v 2.86692 2.86693 l 1.146528,-0.11055 1.146528,-0.11055 z m 20.284723,-0.0234 v -2.84566 l -0.97014,0.11163 c -0.93251,0.1073 -0.97426,0.19912 -1.07649,2.36752 -0.13118,2.78252 0.0231,3.21216 1.15362,3.21216 0.88169,0 0.89301,-0.0361 0.89301,-2.84565 z m -48.683335,-8.27771 v -4.0678 l -4.260991,0.099 -4.260992,0.0991 0.01408,3.79236 c 0.0078,2.08579 0.02018,3.87173 0.02766,3.96875 0.0074,0.097 1.918568,0.17639 4.246901,0.17639 h 4.233334 v -4.06781 z m 25.047223,1.06919 v -2.99861 H 69.832134 57.661301 v 2.76343 c 0,1.51988 0.105833,2.86926 0.235186,2.99861 0.129349,0.12934 5.606225,0.23518 12.170834,0.23518 h 11.935647 z m 49.095362,0.56834 c 0.0644,-1.33665 0.0658,-2.68603 0.003,-2.99861 -0.10233,-0.50939 -1.37397,-0.56834 -12.25912,-0.56834 h -12.145 v 2.99861 2.99861 h 12.14189 12.14188 l 0.11715,-2.43028 z m 9.46575,-1.63753 v -4.06781 l -4.26099,0.0991 -4.26099,0.0991 0.0141,3.79236 c 0.008,2.0858 0.0202,3.87174 0.0277,3.96875 0.007,0.097 1.91857,0.17639 4.2469,0.17639 h 4.23333 v -4.0678 z M 54.127409,125.39686 c -0.0086,-6.76324 -0.757005,-13.5569 -1.416731,-12.86035 -0.788292,0.83229 -1.842241,16.29315 -1.266941,18.58533 l 0.239187,0.953 1.225299,-0.93458 1.2253,-0.93458 -0.0061,-4.80882 z m 82.927691,-8.74837 c -0.40042,-3.48753 -0.64465,-4.44164 -1.0697,-4.17894 -0.63461,0.39221 -1.28531,9.79885 -1.11067,16.05598 0.0495,1.77377 0.15215,2.00386 1.19606,2.68115 l 1.1419,0.74086 0.10686,-6.03253 c 0.0588,-3.31789 -0.0602,-7.48783 -0.26445,-9.26652 z m -79.29167,11.17149 c 2.142567,-1.4606 2.359155,-1.72604 2.709372,-3.32055 1.121484,-5.10597 1.120662,-11.66115 -0.0021,-17.14056 -0.631602,-3.08228 -0.852272,-3.175 -7.556264,-3.175 -6.764404,0 -6.648337,-0.0614 -7.405497,3.91595 -0.907969,4.76949 -1.033561,8.96821 -0.397806,13.29896 0.321811,2.19215 0.776965,4.5734 1.011456,5.29166 0.419566,1.28517 0.458583,1.30761 2.454769,1.41172 l 2.02843,0.10581 0.0056,-2.75164 c 0.008,-3.92761 0.628001,-10.89622 1.113737,-12.51747 0.327974,-1.09467 0.564857,-1.35815 1.146344,-1.27503 1.092373,0.15613 1.585677,3.12577 1.850602,11.1405 0.123673,3.74132 0.33462,6.75757 0.468775,6.70277 0.134154,-0.0548 1.291844,-0.814 2.572642,-1.68712 z m 76.37604,-3.61783 c 0.11008,-5.81715 0.60588,-10.91957 1.16203,-11.95875 0.45218,-0.8449 1.26065,-0.8316 1.72087,0.0283 0.4229,0.7902 0.97146,5.8343 1.28028,11.77243 l 0.21644,4.16168 1.98553,-0.10473 1.98553,-0.10473 0.64698,-2.64583 c 0.9866,-4.03468 1.19467,-11.7249 0.44015,-16.26774 -0.33793,-2.03462 -0.85382,-3.93877 -1.16001,-4.28157 -0.48338,-0.54117 -1.27645,-0.61736 -6.42655,-0.61736 -4.14576,0 -6.05126,0.1298 -6.47352,0.44097 -0.77565,0.57159 -1.61687,4.95996 -1.8766,9.78959 -0.19426,3.61219 0.50094,10.23378 1.20688,11.49523 0.25905,0.46289 4.57326,3.60514 5.01382,3.65181 0.097,0.0103 0.22219,-2.40141 0.27817,-5.35932 z M 85.540842,58.803261 c 0.405289,-1.952253 0.23349,-3.352268 -0.336768,-2.744378 -0.338494,0.360831 -1.084439,3.658346 -1.084439,4.793856 0,1.417331 1.001247,-0.02654 1.421207,-2.049478 z m 18.763338,-0.304138 c -0.51008,-2.563488 -1.13454,-3.543897 -1.13454,-1.781253 0,1.643763 0.76231,4.427087 1.21251,4.427087 0.35589,0 0.33978,-0.546378 -0.078,-2.645834 z"
       id="path5016"
       sodipodi:nodetypes="scssscccccsscccccccssssccssscsscsscsssscssscsccscccccssssssccssssccccccsssssssssscssscsssssssssssssscsscssssssssssssssssssssssssssscsssscsscccssscccccsssssscssssccccssscccsssssssssssssssssssssssssscssscssssscsssssscccssscssssccccsscsssscccccccccsssssscccssssscssscccsssssssscsssccccccssscccscscccscssssscssssssssssscccssscsssssscsssssssssssscssssscscccccccccscssssccccccscccccccssscccsscccccccccccccscccsssccccscsssccccscssssscsssssccsssscccsssssssssssssscsscc" /></g></svg>
