G04 #@! TF.GenerationSoftware,KiCad,Pcbnew,(6.99.0-2452-gdb4f2d9dd8)*
G04 #@! TF.CreationDate,2022-08-02T15:55:00-05:00*
G04 #@! TF.ProjectId,IG,49472e6b-6963-4616-945f-706362585858,rev?*
G04 #@! TF.SameCoordinates,Original*
G04 #@! TF.FileFunction,Soldermask,Top*
G04 #@! TF.FilePolarity,Negative*
%FSLAX46Y46*%
G04 Gerber Fmt 4.6, Leading zero omitted, Abs format (unit mm)*
G04 Created by KiCad (PCBNEW (6.99.0-2452-gdb4f2d9dd8)) date 2022-08-02 15:55:00*
%MOMM*%
%LPD*%
G01*
G04 APERTURE LIST*
%ADD10C,0.200000*%
%ADD11C,1.500000*%
%ADD12R,1.800000X1.800000*%
%ADD13C,1.800000*%
%ADD14R,1.700000X1.700000*%
%ADD15O,1.700000X1.700000*%
G04 APERTURE END LIST*
D10*
G36*
X245977764Y-61385560D02*
G01*
X246016913Y-61400009D01*
X250475577Y-69736198D01*
X254808997Y-77996323D01*
X254792974Y-77999584D01*
X254754281Y-78000808D01*
X254613624Y-77997454D01*
X254396513Y-77986875D01*
X254112433Y-77969684D01*
X253381317Y-77917920D01*
X252496169Y-77847069D01*
X249222858Y-77618032D01*
X245947230Y-77480164D01*
X242673976Y-77432819D01*
X239407789Y-77475346D01*
X236153362Y-77607097D01*
X232915389Y-77827425D01*
X229698561Y-78135680D01*
X226507572Y-78531214D01*
X223347114Y-79013379D01*
X220221880Y-79581525D01*
X217136563Y-80235006D01*
X214095855Y-80973171D01*
X211104451Y-81795373D01*
X208167041Y-82700962D01*
X205288320Y-83689292D01*
X202472979Y-84759713D01*
X201554796Y-85133415D01*
X200607916Y-85531630D01*
X198727082Y-86356933D01*
X197842636Y-86761689D01*
X197028509Y-87146294D01*
X196309456Y-87499582D01*
X195710230Y-87810387D01*
X195499530Y-87921045D01*
X195314897Y-88012251D01*
X195156954Y-88083784D01*
X195088187Y-88112102D01*
X195026327Y-88135419D01*
X194971452Y-88153706D01*
X194923641Y-88166935D01*
X194882970Y-88175078D01*
X194849520Y-88178108D01*
X194823366Y-88175997D01*
X194813051Y-88173004D01*
X194804589Y-88168716D01*
X194797990Y-88163128D01*
X194793265Y-88156238D01*
X194790423Y-88148041D01*
X194789474Y-88138548D01*
X194790904Y-88128249D01*
X194795149Y-88114654D01*
X194811801Y-88077988D01*
X194838870Y-88029324D01*
X194875794Y-87969422D01*
X194922013Y-87899046D01*
X194976965Y-87818957D01*
X195110826Y-87632692D01*
X195272890Y-87416723D01*
X195458669Y-87177150D01*
X195663677Y-86920070D01*
X195883425Y-86651581D01*
X197599853Y-84711256D01*
X199496684Y-82810628D01*
X201567333Y-80953221D01*
X203805218Y-79142557D01*
X206203754Y-77382159D01*
X208756360Y-75675551D01*
X211456451Y-74026256D01*
X214297444Y-72437796D01*
X217272755Y-70913695D01*
X220375802Y-69457475D01*
X223600000Y-68072659D01*
X226938768Y-66762772D01*
X230385520Y-65531334D01*
X233933673Y-64381871D01*
X237576645Y-63317904D01*
X241307852Y-62342957D01*
X243191275Y-61894497D01*
X243981534Y-61718424D01*
X244657443Y-61577135D01*
X245208971Y-61472640D01*
X245626081Y-61406947D01*
X245898740Y-61382067D01*
X245977764Y-61385560D01*
G37*
X245977764Y-61385560D02*
X246016913Y-61400009D01*
X250475577Y-69736198D01*
X254808997Y-77996323D01*
X254792974Y-77999584D01*
X254754281Y-78000808D01*
X254613624Y-77997454D01*
X254396513Y-77986875D01*
X254112433Y-77969684D01*
X253381317Y-77917920D01*
X252496169Y-77847069D01*
X249222858Y-77618032D01*
X245947230Y-77480164D01*
X242673976Y-77432819D01*
X239407789Y-77475346D01*
X236153362Y-77607097D01*
X232915389Y-77827425D01*
X229698561Y-78135680D01*
X226507572Y-78531214D01*
X223347114Y-79013379D01*
X220221880Y-79581525D01*
X217136563Y-80235006D01*
X214095855Y-80973171D01*
X211104451Y-81795373D01*
X208167041Y-82700962D01*
X205288320Y-83689292D01*
X202472979Y-84759713D01*
X201554796Y-85133415D01*
X200607916Y-85531630D01*
X198727082Y-86356933D01*
X197842636Y-86761689D01*
X197028509Y-87146294D01*
X196309456Y-87499582D01*
X195710230Y-87810387D01*
X195499530Y-87921045D01*
X195314897Y-88012251D01*
X195156954Y-88083784D01*
X195088187Y-88112102D01*
X195026327Y-88135419D01*
X194971452Y-88153706D01*
X194923641Y-88166935D01*
X194882970Y-88175078D01*
X194849520Y-88178108D01*
X194823366Y-88175997D01*
X194813051Y-88173004D01*
X194804589Y-88168716D01*
X194797990Y-88163128D01*
X194793265Y-88156238D01*
X194790423Y-88148041D01*
X194789474Y-88138548D01*
X194790904Y-88128249D01*
X194795149Y-88114654D01*
X194811801Y-88077988D01*
X194838870Y-88029324D01*
X194875794Y-87969422D01*
X194922013Y-87899046D01*
X194976965Y-87818957D01*
X195110826Y-87632692D01*
X195272890Y-87416723D01*
X195458669Y-87177150D01*
X195663677Y-86920070D01*
X195883425Y-86651581D01*
X197599853Y-84711256D01*
X199496684Y-82810628D01*
X201567333Y-80953221D01*
X203805218Y-79142557D01*
X206203754Y-77382159D01*
X208756360Y-75675551D01*
X211456451Y-74026256D01*
X214297444Y-72437796D01*
X217272755Y-70913695D01*
X220375802Y-69457475D01*
X223600000Y-68072659D01*
X226938768Y-66762772D01*
X230385520Y-65531334D01*
X233933673Y-64381871D01*
X237576645Y-63317904D01*
X241307852Y-62342957D01*
X243191275Y-61894497D01*
X243981534Y-61718424D01*
X244657443Y-61577135D01*
X245208971Y-61472640D01*
X245626081Y-61406947D01*
X245898740Y-61382067D01*
X245977764Y-61385560D01*
D11*
G36*
X194789474Y-88138548D02*
G01*
X194789473Y-88138558D01*
X194789473Y-88138535D01*
X194789474Y-88138548D01*
G37*
X194789474Y-88138548D02*
X194789473Y-88138558D01*
X194789473Y-88138535D01*
X194789474Y-88138548D01*
D12*
X221299999Y-44469999D03*
D13*
X221300000Y-41930000D03*
D14*
X218459999Y-100829999D03*
D15*
X218459999Y-103369999D03*
X220999999Y-100829999D03*
X220999999Y-103369999D03*
X223539999Y-100829999D03*
X223539999Y-103369999D03*
M02*
