G04 #@! TF.GenerationSoftware,KiCad,Pcbnew,(6.99.0-2452-gdb4f2d9dd8)*
G04 #@! TF.CreationDate,2022-08-02T15:55:00-05:00*
G04 #@! TF.ProjectId,IG,49472e6b-6963-4616-945f-706362585858,rev?*
G04 #@! TF.SameCoordinates,Original*
G04 #@! TF.FileFunction,Copper,L1,Top*
G04 #@! TF.FilePolarity,Positive*
%FSLAX46Y46*%
G04 Gerber Fmt 4.6, Leading zero omitted, Abs format (unit mm)*
G04 Created by KiCad (PCBNEW (6.99.0-2452-gdb4f2d9dd8)) date 2022-08-02 15:55:00*
%MOMM*%
%LPD*%
G01*
G04 APERTURE LIST*
G04 #@! TA.AperFunction,ComponentPad*
%ADD10R,1.800000X1.800000*%
G04 #@! TD*
G04 #@! TA.AperFunction,ComponentPad*
%ADD11C,1.800000*%
G04 #@! TD*
G04 #@! TA.AperFunction,ComponentPad*
%ADD12R,1.700000X1.700000*%
G04 #@! TD*
G04 #@! TA.AperFunction,ComponentPad*
%ADD13O,1.700000X1.700000*%
G04 #@! TD*
G04 APERTURE END LIST*
D10*
X221299999Y-44469999D03*
D11*
X221300000Y-41930000D03*
D12*
X218459999Y-100829999D03*
D13*
X218459999Y-103369999D03*
X220999999Y-100829999D03*
X220999999Y-103369999D03*
X223539999Y-100829999D03*
X223539999Y-103369999D03*
G04 #@! TA.AperFunction,NonConductor*
G36*
X219983439Y-101741388D02*
G01*
X220015755Y-101766638D01*
X220036526Y-101789201D01*
X220076760Y-101832906D01*
X220254424Y-101971189D01*
X220259005Y-101973668D01*
X220287680Y-101989186D01*
X220338071Y-102039199D01*
X220353423Y-102108516D01*
X220328863Y-102175129D01*
X220287681Y-102210813D01*
X220254424Y-102228811D01*
X220250313Y-102232010D01*
X220250311Y-102232012D01*
X220095861Y-102352227D01*
X220076760Y-102367094D01*
X220073228Y-102370931D01*
X219927806Y-102528899D01*
X219927803Y-102528903D01*
X219924278Y-102532732D01*
X219921427Y-102537096D01*
X219835483Y-102668643D01*
X219781479Y-102714732D01*
X219711132Y-102724307D01*
X219646774Y-102694330D01*
X219624517Y-102668643D01*
X219538573Y-102537096D01*
X219535722Y-102532732D01*
X219532197Y-102528903D01*
X219532194Y-102528899D01*
X219392525Y-102377180D01*
X219361104Y-102313515D01*
X219369091Y-102242969D01*
X219413949Y-102187940D01*
X219441191Y-102173787D01*
X219556204Y-102130889D01*
X219568536Y-102121658D01*
X219666050Y-102048659D01*
X219673261Y-102043261D01*
X219760889Y-101926204D01*
X219804998Y-101807944D01*
X219847545Y-101751108D01*
X219914065Y-101726297D01*
X219983439Y-101741388D01*
G37*
G04 #@! TD.AperFunction*
G04 #@! TA.AperFunction,NonConductor*
G36*
X222353226Y-101505670D02*
G01*
X222375483Y-101531357D01*
X222464278Y-101667268D01*
X222467803Y-101671097D01*
X222467806Y-101671101D01*
X222532511Y-101741388D01*
X222616760Y-101832906D01*
X222794424Y-101971189D01*
X222799005Y-101973668D01*
X222827680Y-101989186D01*
X222878071Y-102039199D01*
X222893423Y-102108516D01*
X222868863Y-102175129D01*
X222827681Y-102210813D01*
X222794424Y-102228811D01*
X222790313Y-102232010D01*
X222790311Y-102232012D01*
X222635861Y-102352227D01*
X222616760Y-102367094D01*
X222613228Y-102370931D01*
X222467806Y-102528899D01*
X222467803Y-102528903D01*
X222464278Y-102532732D01*
X222461427Y-102537096D01*
X222375483Y-102668643D01*
X222321479Y-102714732D01*
X222251132Y-102724307D01*
X222186774Y-102694330D01*
X222164517Y-102668643D01*
X222078573Y-102537096D01*
X222075722Y-102532732D01*
X222072197Y-102528903D01*
X222072194Y-102528899D01*
X221926772Y-102370931D01*
X221923240Y-102367094D01*
X221904139Y-102352227D01*
X221749689Y-102232012D01*
X221749687Y-102232010D01*
X221745576Y-102228811D01*
X221712320Y-102210814D01*
X221661929Y-102160801D01*
X221646577Y-102091484D01*
X221671137Y-102024871D01*
X221712320Y-101989186D01*
X221740995Y-101973668D01*
X221745576Y-101971189D01*
X221923240Y-101832906D01*
X222007489Y-101741388D01*
X222072194Y-101671101D01*
X222072197Y-101671097D01*
X222075722Y-101667268D01*
X222164517Y-101531357D01*
X222218521Y-101485268D01*
X222288868Y-101475693D01*
X222353226Y-101505670D01*
G37*
G04 #@! TD.AperFunction*
G04 #@! TA.AperFunction,NonConductor*
G36*
X234165391Y-38626885D02*
G01*
X234206457Y-38670000D01*
X262219032Y-87309715D01*
X262235696Y-87378728D01*
X262219134Y-87435302D01*
X249312934Y-109929823D01*
X249261685Y-109978954D01*
X249203647Y-109993117D01*
X221100347Y-109993062D01*
X192996274Y-109993006D01*
X192928153Y-109973004D01*
X192886984Y-109929710D01*
X189123442Y-103370000D01*
X217096844Y-103370000D01*
X217115436Y-103594368D01*
X217170704Y-103812616D01*
X217261140Y-104018791D01*
X217263990Y-104023153D01*
X217263992Y-104023157D01*
X217278701Y-104045670D01*
X217384278Y-104207268D01*
X217387803Y-104211097D01*
X217387806Y-104211101D01*
X217489360Y-104321417D01*
X217536760Y-104372906D01*
X217714424Y-104511189D01*
X217912426Y-104618342D01*
X218125365Y-104691444D01*
X218130499Y-104692301D01*
X218130504Y-104692302D01*
X218342294Y-104727643D01*
X218342296Y-104727643D01*
X218347431Y-104728500D01*
X218572569Y-104728500D01*
X218577704Y-104727643D01*
X218577706Y-104727643D01*
X218789496Y-104692302D01*
X218789501Y-104692301D01*
X218794635Y-104691444D01*
X219007574Y-104618342D01*
X219205576Y-104511189D01*
X219383240Y-104372906D01*
X219430640Y-104321417D01*
X219532194Y-104211101D01*
X219532197Y-104211097D01*
X219535722Y-104207268D01*
X219624517Y-104071357D01*
X219678521Y-104025268D01*
X219748868Y-104015693D01*
X219813226Y-104045670D01*
X219835483Y-104071357D01*
X219924278Y-104207268D01*
X219927803Y-104211097D01*
X219927806Y-104211101D01*
X220029360Y-104321417D01*
X220076760Y-104372906D01*
X220254424Y-104511189D01*
X220452426Y-104618342D01*
X220665365Y-104691444D01*
X220670499Y-104692301D01*
X220670504Y-104692302D01*
X220882294Y-104727643D01*
X220882296Y-104727643D01*
X220887431Y-104728500D01*
X221112569Y-104728500D01*
X221117704Y-104727643D01*
X221117706Y-104727643D01*
X221329496Y-104692302D01*
X221329501Y-104692301D01*
X221334635Y-104691444D01*
X221547574Y-104618342D01*
X221745576Y-104511189D01*
X221923240Y-104372906D01*
X221970640Y-104321417D01*
X222072194Y-104211101D01*
X222072197Y-104211097D01*
X222075722Y-104207268D01*
X222164517Y-104071357D01*
X222218521Y-104025268D01*
X222288868Y-104015693D01*
X222353226Y-104045670D01*
X222375483Y-104071357D01*
X222464278Y-104207268D01*
X222467803Y-104211097D01*
X222467806Y-104211101D01*
X222569360Y-104321417D01*
X222616760Y-104372906D01*
X222794424Y-104511189D01*
X222992426Y-104618342D01*
X223205365Y-104691444D01*
X223210499Y-104692301D01*
X223210504Y-104692302D01*
X223422294Y-104727643D01*
X223422296Y-104727643D01*
X223427431Y-104728500D01*
X223652569Y-104728500D01*
X223657704Y-104727643D01*
X223657706Y-104727643D01*
X223869496Y-104692302D01*
X223869501Y-104692301D01*
X223874635Y-104691444D01*
X224087574Y-104618342D01*
X224285576Y-104511189D01*
X224463240Y-104372906D01*
X224510640Y-104321417D01*
X224612194Y-104211101D01*
X224612197Y-104211097D01*
X224615722Y-104207268D01*
X224721299Y-104045670D01*
X224736008Y-104023157D01*
X224736010Y-104023153D01*
X224738860Y-104018791D01*
X224829296Y-103812616D01*
X224884564Y-103594368D01*
X224903156Y-103370000D01*
X224884564Y-103145632D01*
X224829296Y-102927384D01*
X224738860Y-102721209D01*
X224734629Y-102714732D01*
X224618573Y-102537096D01*
X224615722Y-102532732D01*
X224612197Y-102528903D01*
X224612194Y-102528899D01*
X224466772Y-102370931D01*
X224463240Y-102367094D01*
X224444139Y-102352227D01*
X224289689Y-102232012D01*
X224289687Y-102232010D01*
X224285576Y-102228811D01*
X224252320Y-102210814D01*
X224201929Y-102160801D01*
X224186577Y-102091484D01*
X224211137Y-102024871D01*
X224252320Y-101989186D01*
X224280995Y-101973668D01*
X224285576Y-101971189D01*
X224463240Y-101832906D01*
X224547489Y-101741388D01*
X224612194Y-101671101D01*
X224612197Y-101671097D01*
X224615722Y-101667268D01*
X224721299Y-101505670D01*
X224736008Y-101483157D01*
X224736010Y-101483153D01*
X224738860Y-101478791D01*
X224829296Y-101272616D01*
X224884564Y-101054368D01*
X224903156Y-100830000D01*
X224884564Y-100605632D01*
X224829296Y-100387384D01*
X224738860Y-100181209D01*
X224734629Y-100174732D01*
X224618573Y-99997096D01*
X224615722Y-99992732D01*
X224612197Y-99988903D01*
X224612194Y-99988899D01*
X224466772Y-99830931D01*
X224463240Y-99827094D01*
X224285576Y-99688811D01*
X224087574Y-99581658D01*
X223874635Y-99508556D01*
X223869501Y-99507699D01*
X223869496Y-99507698D01*
X223657706Y-99472357D01*
X223657704Y-99472357D01*
X223652569Y-99471500D01*
X223427431Y-99471500D01*
X223422296Y-99472357D01*
X223422294Y-99472357D01*
X223210504Y-99507698D01*
X223210499Y-99507699D01*
X223205365Y-99508556D01*
X222992426Y-99581658D01*
X222794424Y-99688811D01*
X222616760Y-99827094D01*
X222613228Y-99830931D01*
X222467806Y-99988899D01*
X222467803Y-99988903D01*
X222464278Y-99992732D01*
X222461427Y-99997096D01*
X222375483Y-100128643D01*
X222321479Y-100174732D01*
X222251132Y-100184307D01*
X222186774Y-100154330D01*
X222164517Y-100128643D01*
X222078573Y-99997096D01*
X222075722Y-99992732D01*
X222072197Y-99988903D01*
X222072194Y-99988899D01*
X221926772Y-99830931D01*
X221923240Y-99827094D01*
X221745576Y-99688811D01*
X221547574Y-99581658D01*
X221334635Y-99508556D01*
X221329501Y-99507699D01*
X221329496Y-99507698D01*
X221117706Y-99472357D01*
X221117704Y-99472357D01*
X221112569Y-99471500D01*
X220887431Y-99471500D01*
X220882296Y-99472357D01*
X220882294Y-99472357D01*
X220670504Y-99507698D01*
X220670499Y-99507699D01*
X220665365Y-99508556D01*
X220452426Y-99581658D01*
X220254424Y-99688811D01*
X220076760Y-99827094D01*
X220073228Y-99830931D01*
X220015755Y-99893362D01*
X219954901Y-99929933D01*
X219883937Y-99927798D01*
X219825392Y-99887636D01*
X219804998Y-99852056D01*
X219764038Y-99742239D01*
X219764037Y-99742237D01*
X219760889Y-99733796D01*
X219673261Y-99616739D01*
X219556204Y-99529111D01*
X219419201Y-99478011D01*
X219382295Y-99474043D01*
X219361988Y-99471860D01*
X219361985Y-99471860D01*
X219358638Y-99471500D01*
X217561362Y-99471500D01*
X217558015Y-99471860D01*
X217558012Y-99471860D01*
X217537705Y-99474043D01*
X217500799Y-99478011D01*
X217363796Y-99529111D01*
X217246739Y-99616739D01*
X217159111Y-99733796D01*
X217108011Y-99870799D01*
X217101500Y-99931362D01*
X217101500Y-101728638D01*
X217108011Y-101789201D01*
X217159111Y-101926204D01*
X217246739Y-102043261D01*
X217253950Y-102048659D01*
X217351465Y-102121658D01*
X217363796Y-102130889D01*
X217478808Y-102173787D01*
X217535642Y-102216333D01*
X217560453Y-102282853D01*
X217545361Y-102352227D01*
X217527475Y-102377180D01*
X217387806Y-102528899D01*
X217387803Y-102528903D01*
X217384278Y-102532732D01*
X217381427Y-102537096D01*
X217265372Y-102714732D01*
X217261140Y-102721209D01*
X217170704Y-102927384D01*
X217115436Y-103145632D01*
X217096844Y-103370000D01*
X189123442Y-103370000D01*
X179980866Y-87434842D01*
X179964315Y-87365801D01*
X179980969Y-87309255D01*
X206115988Y-41930000D01*
X219886673Y-41930000D01*
X219905949Y-42162626D01*
X219963251Y-42388907D01*
X220057016Y-42602669D01*
X220184686Y-42798083D01*
X220188211Y-42801912D01*
X220188214Y-42801916D01*
X220228349Y-42845513D01*
X220269843Y-42890587D01*
X220301263Y-42954251D01*
X220293276Y-43024797D01*
X220248418Y-43079826D01*
X220221174Y-43093979D01*
X220162242Y-43115960D01*
X220162238Y-43115962D01*
X220153796Y-43119111D01*
X220036739Y-43206739D01*
X219949111Y-43323796D01*
X219898011Y-43460799D01*
X219891500Y-43521362D01*
X219891500Y-45418638D01*
X219898011Y-45479201D01*
X219949111Y-45616204D01*
X220036739Y-45733261D01*
X220153796Y-45820889D01*
X220290799Y-45871989D01*
X220327705Y-45875957D01*
X220348012Y-45878140D01*
X220348015Y-45878140D01*
X220351362Y-45878500D01*
X222248638Y-45878500D01*
X222251985Y-45878140D01*
X222251988Y-45878140D01*
X222272295Y-45875957D01*
X222309201Y-45871989D01*
X222446204Y-45820889D01*
X222563261Y-45733261D01*
X222650889Y-45616204D01*
X222701989Y-45479201D01*
X222708500Y-45418638D01*
X222708500Y-43521362D01*
X222701989Y-43460799D01*
X222650889Y-43323796D01*
X222563261Y-43206739D01*
X222446204Y-43119111D01*
X222437762Y-43115962D01*
X222437758Y-43115960D01*
X222378826Y-43093979D01*
X222321991Y-43051433D01*
X222297180Y-42984912D01*
X222312272Y-42915538D01*
X222330156Y-42890589D01*
X222371651Y-42845513D01*
X222411786Y-42801916D01*
X222411789Y-42801912D01*
X222415314Y-42798083D01*
X222542984Y-42602669D01*
X222636749Y-42388907D01*
X222694051Y-42162626D01*
X222713327Y-41930000D01*
X222694051Y-41697374D01*
X222636749Y-41471093D01*
X222542984Y-41257331D01*
X222415314Y-41061917D01*
X222411789Y-41058088D01*
X222411786Y-41058084D01*
X222260752Y-40894019D01*
X222257220Y-40890182D01*
X222253108Y-40886981D01*
X222253102Y-40886976D01*
X222077130Y-40750011D01*
X222077128Y-40750009D01*
X222073017Y-40746810D01*
X221867727Y-40635713D01*
X221646951Y-40559920D01*
X221641817Y-40559063D01*
X221641812Y-40559062D01*
X221421849Y-40522357D01*
X221421846Y-40522357D01*
X221416712Y-40521500D01*
X221183288Y-40521500D01*
X221178154Y-40522357D01*
X221178151Y-40522357D01*
X220958188Y-40559062D01*
X220958183Y-40559063D01*
X220953049Y-40559920D01*
X220732273Y-40635713D01*
X220526983Y-40746810D01*
X220522872Y-40750009D01*
X220522870Y-40750011D01*
X220346898Y-40886976D01*
X220346892Y-40886981D01*
X220342780Y-40890182D01*
X220339248Y-40894019D01*
X220188214Y-41058084D01*
X220188211Y-41058088D01*
X220184686Y-41061917D01*
X220057016Y-41257331D01*
X219963251Y-41471093D01*
X219905949Y-41697374D01*
X219886673Y-41930000D01*
X206115988Y-41930000D01*
X207993502Y-38669999D01*
X208044832Y-38620952D01*
X208102688Y-38606883D01*
X234097270Y-38606883D01*
X234165391Y-38626885D01*
G37*
G04 #@! TD.AperFunction*
M02*
