%TF.GenerationSoftware,KiCad,Pcbnew,(6.99.0-2452-gdb4f2d9dd8)*%
%TF.CreationDate,2022-07-19T12:38:45+04:00*%
%TF.ProjectId,HAS,4841532e-6b69-4636-9164-5f7063625858,rev?*%
%TF.SameCoordinates,Original*%
%TF.FileFunction,Copper,L2,Bot*%
%TF.FilePolarity,Positive*%
%FSLAX46Y46*%
G04 Gerber Fmt 4.6, Leading zero omitted, Abs format (unit mm)*
G04 Created by KiCad (PCBNEW (6.99.0-2452-gdb4f2d9dd8)) date 2022-07-19 12:38:45*
%MOMM*%
%LPD*%
G01*
G04 APERTURE LIST*
G04 Aperture macros list*
%AMRoundRect*
0 Rectangle with rounded corners*
0 $1 Rounding radius*
0 $2 $3 $4 $5 $6 $7 $8 $9 X,Y pos of 4 corners*
0 Add a 4 corners polygon primitive as box body*
4,1,4,$2,$3,$4,$5,$6,$7,$8,$9,$2,$3,0*
0 Add four circle primitives for the rounded corners*
1,1,$1+$1,$2,$3*
1,1,$1+$1,$4,$5*
1,1,$1+$1,$6,$7*
1,1,$1+$1,$8,$9*
0 Add four rect primitives between the rounded corners*
20,1,$1+$1,$2,$3,$4,$5,0*
20,1,$1+$1,$4,$5,$6,$7,0*
20,1,$1+$1,$6,$7,$8,$9,0*
20,1,$1+$1,$8,$9,$2,$3,0*%
%AMRotRect*
0 Rectangle, with rotation*
0 The origin of the aperture is its center*
0 $1 length*
0 $2 width*
0 $3 Rotation angle, in degrees counterclockwise*
0 Add horizontal line*
21,1,$1,$2,0,0,$3*%
G04 Aperture macros list end*
%TA.AperFunction,NonConductor*%
%ADD10C,0.200000*%
%TD*%
%TA.AperFunction,ComponentPad*%
%ADD11RotRect,1.800000X1.800000X39.000000*%
%TD*%
%TA.AperFunction,ComponentPad*%
%ADD12C,1.800000*%
%TD*%
%TA.AperFunction,ComponentPad*%
%ADD13R,1.700000X1.700000*%
%TD*%
%TA.AperFunction,ComponentPad*%
%ADD14O,1.700000X1.700000*%
%TD*%
%TA.AperFunction,SMDPad,CuDef*%
%ADD15RoundRect,0.250000X-0.400000X-0.625000X0.400000X-0.625000X0.400000X0.625000X-0.400000X0.625000X0*%
%TD*%
G04 APERTURE END LIST*
D10*
X175800000Y-120000000D02*
X181600000Y-113700000D01*
X182900000Y-118400000D02*
X166900000Y-129700000D01*
X185300000Y-90800000D02*
X182200000Y-83500000D01*
X186400000Y-104200000D02*
X185300000Y-90800000D01*
X189900000Y-104500000D02*
X188700000Y-90800000D01*
X188700000Y-90800000D02*
X186300000Y-83900000D01*
X163100000Y-120300000D02*
X175800000Y-120000000D01*
X157500000Y-129800000D02*
X157500000Y-126500000D01*
X177600000Y-82000000D02*
X180100000Y-85300000D01*
X157500000Y-124000000D02*
X157500000Y-120300000D01*
X181600000Y-113700000D02*
X186400000Y-104200000D01*
X182900000Y-118400000D02*
X189900000Y-104500000D01*
X186300000Y-83900000D02*
X182100000Y-78700000D01*
X157500000Y-120300000D02*
X160100000Y-120300000D01*
X166900000Y-129700000D02*
X157500000Y-129800000D01*
X182100000Y-78700000D02*
X177600000Y-82000000D01*
D11*
X180195934Y-85116326D03*
D12*
X182169886Y-83517853D03*
D13*
X157499999Y-123999999D03*
D14*
X157499999Y-126539999D03*
X160039999Y-123999999D03*
X160039999Y-126539999D03*
X162579999Y-123999999D03*
X162579999Y-126539999D03*
D15*
X160000000Y-120300000D03*
X163100000Y-120300000D03*
%TA.AperFunction,NonConductor*%
G36*
X159023439Y-124911388D02*
G01*
X159055755Y-124936638D01*
X159076526Y-124959201D01*
X159116760Y-125002906D01*
X159120879Y-125006112D01*
X159254149Y-125109841D01*
X159294424Y-125141189D01*
X159299005Y-125143668D01*
X159327680Y-125159186D01*
X159378071Y-125209199D01*
X159393423Y-125278516D01*
X159368863Y-125345129D01*
X159327681Y-125380813D01*
X159294424Y-125398811D01*
X159290313Y-125402010D01*
X159290311Y-125402012D01*
X159135861Y-125522227D01*
X159116760Y-125537094D01*
X159113228Y-125540931D01*
X158967806Y-125698899D01*
X158967803Y-125698903D01*
X158964278Y-125702732D01*
X158961427Y-125707096D01*
X158875483Y-125838643D01*
X158821479Y-125884732D01*
X158751132Y-125894307D01*
X158686774Y-125864330D01*
X158664517Y-125838643D01*
X158578573Y-125707096D01*
X158575722Y-125702732D01*
X158572197Y-125698903D01*
X158572194Y-125698899D01*
X158432525Y-125547180D01*
X158401104Y-125483515D01*
X158409091Y-125412969D01*
X158453949Y-125357940D01*
X158481191Y-125343787D01*
X158596204Y-125300889D01*
X158608536Y-125291658D01*
X158706050Y-125218659D01*
X158713261Y-125213261D01*
X158769610Y-125137988D01*
X158795489Y-125103418D01*
X158795490Y-125103416D01*
X158800889Y-125096204D01*
X158844998Y-124977944D01*
X158887545Y-124921108D01*
X158954065Y-124896297D01*
X159023439Y-124911388D01*
G37*
%TD.AperFunction*%
%TA.AperFunction,NonConductor*%
G36*
X161393226Y-124675670D02*
G01*
X161415483Y-124701357D01*
X161504278Y-124837268D01*
X161507803Y-124841097D01*
X161507806Y-124841101D01*
X161572511Y-124911388D01*
X161656760Y-125002906D01*
X161660879Y-125006112D01*
X161794149Y-125109841D01*
X161834424Y-125141189D01*
X161839005Y-125143668D01*
X161867680Y-125159186D01*
X161918071Y-125209199D01*
X161933423Y-125278516D01*
X161908863Y-125345129D01*
X161867681Y-125380813D01*
X161834424Y-125398811D01*
X161830313Y-125402010D01*
X161830311Y-125402012D01*
X161675861Y-125522227D01*
X161656760Y-125537094D01*
X161653228Y-125540931D01*
X161507806Y-125698899D01*
X161507803Y-125698903D01*
X161504278Y-125702732D01*
X161501427Y-125707096D01*
X161415483Y-125838643D01*
X161361479Y-125884732D01*
X161291132Y-125894307D01*
X161226774Y-125864330D01*
X161204517Y-125838643D01*
X161118573Y-125707096D01*
X161115722Y-125702732D01*
X161112197Y-125698903D01*
X161112194Y-125698899D01*
X160966772Y-125540931D01*
X160963240Y-125537094D01*
X160944139Y-125522227D01*
X160789689Y-125402012D01*
X160789687Y-125402010D01*
X160785576Y-125398811D01*
X160752320Y-125380814D01*
X160701929Y-125330801D01*
X160686577Y-125261484D01*
X160711137Y-125194871D01*
X160752320Y-125159186D01*
X160780995Y-125143668D01*
X160785576Y-125141189D01*
X160825852Y-125109841D01*
X160959121Y-125006112D01*
X160963240Y-125002906D01*
X161047489Y-124911388D01*
X161112194Y-124841101D01*
X161112197Y-124841097D01*
X161115722Y-124837268D01*
X161204517Y-124701357D01*
X161258521Y-124655268D01*
X161328868Y-124645693D01*
X161393226Y-124675670D01*
G37*
%TD.AperFunction*%
%TA.AperFunction,NonConductor*%
G36*
X160963686Y-68019572D02*
G01*
X161273076Y-68030498D01*
X161277418Y-68030727D01*
X163191602Y-68164579D01*
X163196131Y-68164978D01*
X163380241Y-68184547D01*
X163503195Y-68197617D01*
X163507386Y-68198133D01*
X165408799Y-68465360D01*
X165413324Y-68466081D01*
X165715753Y-68520019D01*
X165719733Y-68520797D01*
X167599851Y-68920428D01*
X167604426Y-68921492D01*
X167896750Y-68995229D01*
X167899862Y-68996014D01*
X167903775Y-68997068D01*
X169754019Y-69527617D01*
X169758617Y-69529031D01*
X170045039Y-69623214D01*
X170048662Y-69624469D01*
X171736984Y-70238969D01*
X171860821Y-70284042D01*
X171865388Y-70285806D01*
X172140580Y-70398374D01*
X172143991Y-70399831D01*
X173909856Y-71186044D01*
X173914366Y-71188162D01*
X174089781Y-71274827D01*
X174176342Y-71317594D01*
X174179683Y-71319308D01*
X175890970Y-72229215D01*
X175895458Y-72231719D01*
X176142501Y-72376294D01*
X176145630Y-72378187D01*
X177794589Y-73408571D01*
X177798972Y-73411439D01*
X178029425Y-73569128D01*
X178032333Y-73571178D01*
X179611232Y-74718315D01*
X179615471Y-74721534D01*
X179828040Y-74890177D01*
X179830698Y-74892346D01*
X181331980Y-76152071D01*
X181336068Y-76155655D01*
X181529577Y-76332800D01*
X181532025Y-76335101D01*
X182948373Y-77702851D01*
X182952268Y-77706782D01*
X183125889Y-77889847D01*
X183128099Y-77892239D01*
X183556946Y-78368521D01*
X184452464Y-79363095D01*
X184456139Y-79367364D01*
X184609213Y-79553467D01*
X184611191Y-79555935D01*
X184667245Y-79627681D01*
X185836852Y-81124709D01*
X185840219Y-81129225D01*
X185955273Y-81291162D01*
X185972517Y-81315434D01*
X185974261Y-81317953D01*
X187094659Y-82979012D01*
X187097797Y-82983905D01*
X187209345Y-83167021D01*
X187210775Y-83169432D01*
X187673969Y-83971707D01*
X188219695Y-84916933D01*
X188222538Y-84922137D01*
X188313768Y-85098867D01*
X188315054Y-85101428D01*
X189206434Y-86929026D01*
X189208946Y-86934506D01*
X189280770Y-87101613D01*
X189281786Y-87104049D01*
X190049988Y-89005417D01*
X190052145Y-89011152D01*
X190105755Y-89164983D01*
X190106606Y-89167512D01*
X190746185Y-91135937D01*
X190747962Y-91141903D01*
X190785139Y-91279033D01*
X190785769Y-91281457D01*
X191291565Y-93310099D01*
X191292941Y-93316271D01*
X191304745Y-93376304D01*
X191315907Y-93433073D01*
X191316348Y-93435437D01*
X191683432Y-95517275D01*
X191684386Y-95523628D01*
X191695909Y-95616426D01*
X191696179Y-95618782D01*
X191919824Y-97746620D01*
X191920337Y-97753122D01*
X191923795Y-97818365D01*
X191923895Y-97820637D01*
X191998951Y-99969968D01*
X191999008Y-99972139D01*
X191999461Y-99997774D01*
X191999461Y-100002226D01*
X191999008Y-100027861D01*
X191998951Y-100030032D01*
X191923895Y-102179363D01*
X191923795Y-102181635D01*
X191920337Y-102246878D01*
X191919824Y-102253380D01*
X191696179Y-104381218D01*
X191695909Y-104383574D01*
X191685800Y-104464988D01*
X191684386Y-104476372D01*
X191683434Y-104482714D01*
X191626303Y-104806722D01*
X191316348Y-106564563D01*
X191315907Y-106566927D01*
X191304745Y-106623696D01*
X191292941Y-106683729D01*
X191291565Y-106689901D01*
X190785769Y-108718543D01*
X190785139Y-108720967D01*
X190753193Y-108838804D01*
X190747962Y-108858097D01*
X190746185Y-108864063D01*
X190106606Y-110832488D01*
X190105755Y-110835017D01*
X190052145Y-110988848D01*
X190049991Y-110994574D01*
X189281786Y-112895951D01*
X189280770Y-112898387D01*
X189218171Y-113044031D01*
X189208946Y-113065494D01*
X189206434Y-113070974D01*
X188315054Y-114898572D01*
X188313768Y-114901133D01*
X188222538Y-115077863D01*
X188219695Y-115083067D01*
X187210775Y-116830568D01*
X187209345Y-116832979D01*
X187097806Y-117016081D01*
X187094659Y-117020988D01*
X185974261Y-118682047D01*
X185972517Y-118684566D01*
X185840219Y-118870775D01*
X185836852Y-118875291D01*
X184853816Y-120133520D01*
X184611191Y-120444065D01*
X184609213Y-120446533D01*
X184491804Y-120589276D01*
X184456139Y-120632636D01*
X184452469Y-120636899D01*
X183510106Y-121683500D01*
X183128103Y-122107757D01*
X183125889Y-122110153D01*
X182952268Y-122293218D01*
X182948373Y-122297149D01*
X181532025Y-123664899D01*
X181529577Y-123667200D01*
X181336068Y-123844345D01*
X181331980Y-123847929D01*
X179830698Y-125107654D01*
X179828040Y-125109823D01*
X179653442Y-125248342D01*
X179615482Y-125278458D01*
X179611232Y-125281685D01*
X178032333Y-126428822D01*
X178029425Y-126430872D01*
X177798972Y-126588561D01*
X177794589Y-126591429D01*
X176145630Y-127621813D01*
X176142501Y-127623706D01*
X175895458Y-127768281D01*
X175890970Y-127770785D01*
X174179683Y-128680692D01*
X174176342Y-128682406D01*
X174089781Y-128725173D01*
X173914366Y-128811838D01*
X173909856Y-128813956D01*
X172143991Y-129600169D01*
X172140580Y-129601626D01*
X171865388Y-129714194D01*
X171860821Y-129715958D01*
X170048662Y-130375531D01*
X170045039Y-130376786D01*
X169758617Y-130470969D01*
X169754019Y-130472383D01*
X167997160Y-130976154D01*
X167903774Y-131002932D01*
X167899862Y-131003986D01*
X167604426Y-131078508D01*
X167599851Y-131079572D01*
X165719733Y-131479203D01*
X165715753Y-131479981D01*
X165413324Y-131533919D01*
X165408799Y-131534640D01*
X163507386Y-131801867D01*
X163503195Y-131802383D01*
X163380241Y-131815453D01*
X163196131Y-131835022D01*
X163191602Y-131835421D01*
X161277418Y-131969273D01*
X161273076Y-131969502D01*
X160963686Y-131980428D01*
X160959239Y-131980506D01*
X159040761Y-131980506D01*
X159036314Y-131980428D01*
X158726924Y-131969502D01*
X158722582Y-131969273D01*
X156808398Y-131835421D01*
X156803869Y-131835022D01*
X156619759Y-131815453D01*
X156496805Y-131802383D01*
X156492614Y-131801867D01*
X154591201Y-131534640D01*
X154586676Y-131533919D01*
X154284247Y-131479981D01*
X154280267Y-131479203D01*
X152400149Y-131079572D01*
X152395574Y-131078508D01*
X152100138Y-131003986D01*
X152096226Y-131002932D01*
X152002841Y-130976154D01*
X150245981Y-130472383D01*
X150241383Y-130470969D01*
X149954961Y-130376786D01*
X149951338Y-130375531D01*
X148139179Y-129715958D01*
X148134612Y-129714194D01*
X147859420Y-129601626D01*
X147856009Y-129600169D01*
X146090144Y-128813956D01*
X146085634Y-128811838D01*
X145910219Y-128725173D01*
X145823658Y-128682406D01*
X145820317Y-128680692D01*
X144109030Y-127770785D01*
X144104542Y-127768281D01*
X143857499Y-127623706D01*
X143854370Y-127621813D01*
X142205411Y-126591429D01*
X142201028Y-126588561D01*
X142130059Y-126540000D01*
X156136844Y-126540000D01*
X156137274Y-126545189D01*
X156152480Y-126728690D01*
X156155436Y-126764368D01*
X156210704Y-126982616D01*
X156301140Y-127188791D01*
X156303990Y-127193153D01*
X156303992Y-127193157D01*
X156318701Y-127215670D01*
X156424278Y-127377268D01*
X156427803Y-127381097D01*
X156427806Y-127381101D01*
X156529360Y-127491417D01*
X156576760Y-127542906D01*
X156580879Y-127546112D01*
X156680571Y-127623706D01*
X156754424Y-127681189D01*
X156759005Y-127683668D01*
X156759010Y-127683671D01*
X156825470Y-127719638D01*
X156875860Y-127769651D01*
X156891500Y-127830451D01*
X156891500Y-129755780D01*
X156890590Y-129770896D01*
X156886284Y-129806529D01*
X156887449Y-129814705D01*
X156887449Y-129814707D01*
X156897030Y-129881950D01*
X156897212Y-129883276D01*
X156907162Y-129958850D01*
X156908421Y-129961889D01*
X156908885Y-129965147D01*
X156911789Y-129971952D01*
X156911790Y-129971956D01*
X156938780Y-130035204D01*
X156939300Y-130036438D01*
X156968476Y-130106875D01*
X156970480Y-130109487D01*
X156971771Y-130112512D01*
X156976328Y-130118322D01*
X156976330Y-130118325D01*
X157018768Y-130172428D01*
X157019591Y-130173489D01*
X157061512Y-130228122D01*
X157061515Y-130228125D01*
X157066013Y-130233987D01*
X157068623Y-130235990D01*
X157070654Y-130238579D01*
X157076559Y-130243011D01*
X157076560Y-130243012D01*
X157131586Y-130284313D01*
X157132576Y-130285063D01*
X157193124Y-130331524D01*
X157196168Y-130332785D01*
X157198797Y-130334758D01*
X157269438Y-130363142D01*
X157270677Y-130363648D01*
X157334321Y-130390010D01*
X157334325Y-130390011D01*
X157341150Y-130392838D01*
X157344413Y-130393268D01*
X157347465Y-130394494D01*
X157354792Y-130395379D01*
X157354794Y-130395380D01*
X157423140Y-130403639D01*
X157424436Y-130403803D01*
X157500000Y-130413751D01*
X157535590Y-130409066D01*
X157550685Y-130407995D01*
X161609052Y-130364821D01*
X166888029Y-130308662D01*
X166894355Y-130308754D01*
X166939901Y-130310558D01*
X166955964Y-130311194D01*
X167005197Y-130300070D01*
X167015189Y-130298233D01*
X167056971Y-130292280D01*
X167065148Y-130291115D01*
X167077484Y-130285851D01*
X167099167Y-130278839D01*
X167112246Y-130275884D01*
X167119553Y-130272042D01*
X167119557Y-130272041D01*
X167156924Y-130252396D01*
X167166102Y-130248034D01*
X167204915Y-130231471D01*
X167204916Y-130231471D01*
X167212512Y-130228229D01*
X167226708Y-130217094D01*
X167261024Y-130190178D01*
X167266100Y-130186399D01*
X183201381Y-118932106D01*
X183219289Y-118921557D01*
X183229261Y-118916743D01*
X183229265Y-118916740D01*
X183236698Y-118913152D01*
X183270466Y-118884035D01*
X183280052Y-118876545D01*
X183280239Y-118876413D01*
X183280241Y-118876412D01*
X183283613Y-118874030D01*
X183303701Y-118855473D01*
X183306877Y-118852639D01*
X183351780Y-118813921D01*
X183351784Y-118813917D01*
X183358039Y-118808523D01*
X183362581Y-118801847D01*
X183363171Y-118801246D01*
X183365313Y-118798761D01*
X183365823Y-118798084D01*
X183371752Y-118792607D01*
X183407802Y-118735512D01*
X183410165Y-118731907D01*
X183423221Y-118712717D01*
X183423224Y-118712712D01*
X183425535Y-118709315D01*
X183427497Y-118705419D01*
X183433493Y-118694822D01*
X183457291Y-118657131D01*
X183463028Y-118638675D01*
X183470814Y-118619403D01*
X190426842Y-104806722D01*
X190433102Y-104795707D01*
X190451837Y-104766291D01*
X190456274Y-104759325D01*
X190458756Y-104751450D01*
X190458758Y-104751446D01*
X190477011Y-104693532D01*
X190478213Y-104689909D01*
X190498216Y-104632566D01*
X190498216Y-104632564D01*
X190500934Y-104624773D01*
X190501513Y-104616936D01*
X190502073Y-104614017D01*
X190504438Y-104606514D01*
X190507440Y-104537572D01*
X190507664Y-104533769D01*
X190512142Y-104473223D01*
X190512751Y-104464988D01*
X190504690Y-104422607D01*
X190502952Y-104410057D01*
X189732913Y-95618782D01*
X189310844Y-90800160D01*
X189310575Y-90781870D01*
X189312119Y-90755273D01*
X189310448Y-90747191D01*
X189310448Y-90747186D01*
X189303809Y-90715070D01*
X189302996Y-90710563D01*
X189302699Y-90707171D01*
X189295188Y-90673306D01*
X189294819Y-90671581D01*
X189288666Y-90641814D01*
X189288665Y-90641811D01*
X189287829Y-90637766D01*
X189286710Y-90634549D01*
X189285607Y-90630112D01*
X189278504Y-90598088D01*
X189276716Y-90590027D01*
X189264407Y-90566387D01*
X189257163Y-90549600D01*
X188057842Y-87101553D01*
X186880508Y-83716719D01*
X186878678Y-83711020D01*
X186861004Y-83651074D01*
X186835116Y-83608709D01*
X186830045Y-83599581D01*
X186811457Y-83562589D01*
X186807748Y-83555207D01*
X186799601Y-83546056D01*
X186766207Y-83508547D01*
X186762294Y-83503934D01*
X183593842Y-79581090D01*
X182614457Y-78368517D01*
X182602019Y-78349967D01*
X182594932Y-78337050D01*
X182560927Y-78301532D01*
X182553921Y-78293568D01*
X182550907Y-78289837D01*
X182548316Y-78286629D01*
X182531850Y-78270964D01*
X182527698Y-78266826D01*
X182484130Y-78221319D01*
X182477065Y-78217032D01*
X182472324Y-78213227D01*
X182467370Y-78209618D01*
X182461382Y-78203922D01*
X182406084Y-78173807D01*
X182401012Y-78170890D01*
X182347149Y-78138210D01*
X182339221Y-78135900D01*
X182333643Y-78133446D01*
X182327928Y-78131244D01*
X182320673Y-78127293D01*
X182271940Y-78115528D01*
X182259481Y-78112520D01*
X182253803Y-78111008D01*
X182201255Y-78095696D01*
X182201250Y-78095695D01*
X182193325Y-78093386D01*
X182185071Y-78093207D01*
X182179047Y-78092280D01*
X182172951Y-78091632D01*
X182164926Y-78089694D01*
X182101982Y-78091262D01*
X182096110Y-78091271D01*
X182033142Y-78089901D01*
X182025119Y-78091865D01*
X182019044Y-78092530D01*
X182013009Y-78093478D01*
X182004755Y-78093684D01*
X181996832Y-78096020D01*
X181944370Y-78111488D01*
X181938699Y-78113018D01*
X181925860Y-78116160D01*
X181885533Y-78126031D01*
X181885530Y-78126032D01*
X181877515Y-78127994D01*
X181870278Y-78131965D01*
X181864613Y-78134169D01*
X181859001Y-78136659D01*
X181851074Y-78138996D01*
X181844023Y-78143305D01*
X181844022Y-78143305D01*
X181797350Y-78171824D01*
X181792266Y-78174770D01*
X181775944Y-78183726D01*
X181775934Y-78183732D01*
X181772319Y-78185716D01*
X181768988Y-78188159D01*
X181765132Y-78190987D01*
X181756316Y-78196898D01*
X181721406Y-78218229D01*
X181721397Y-78218236D01*
X181714357Y-78222538D01*
X181708666Y-78228520D01*
X181708662Y-78228523D01*
X181704202Y-78233211D01*
X181687427Y-78247970D01*
X177274347Y-81484228D01*
X177262162Y-81492126D01*
X177236557Y-81506700D01*
X177229382Y-81510784D01*
X177223511Y-81516583D01*
X177176407Y-81563110D01*
X177174998Y-81564479D01*
X177121320Y-81615871D01*
X177118822Y-81619988D01*
X177115392Y-81623376D01*
X177111224Y-81630494D01*
X177111219Y-81630500D01*
X177077781Y-81687602D01*
X177076774Y-81689291D01*
X177038210Y-81752851D01*
X177036862Y-81757477D01*
X177034427Y-81761635D01*
X177032242Y-81769595D01*
X177032241Y-81769596D01*
X177014735Y-81833356D01*
X177014201Y-81835244D01*
X176993387Y-81906675D01*
X176993282Y-81911491D01*
X176992006Y-81916139D01*
X176991955Y-81924399D01*
X176991547Y-81990536D01*
X176991519Y-81992477D01*
X176989901Y-82066858D01*
X176991048Y-82071543D01*
X176991018Y-82076357D01*
X176993106Y-82084346D01*
X177009816Y-82148285D01*
X177010297Y-82150187D01*
X177026030Y-82214464D01*
X177026032Y-82214468D01*
X177027994Y-82222485D01*
X177030313Y-82226711D01*
X177031531Y-82231372D01*
X177035618Y-82238552D01*
X177035618Y-82238553D01*
X177068296Y-82295968D01*
X177069254Y-82297682D01*
X177101093Y-82355707D01*
X177101096Y-82355711D01*
X177105068Y-82362950D01*
X177131152Y-82390193D01*
X177140573Y-82401242D01*
X178652455Y-84396927D01*
X178677645Y-84463302D01*
X178662952Y-84532761D01*
X178631314Y-84570931D01*
X178572307Y-84618714D01*
X178529338Y-84661888D01*
X178525335Y-84668671D01*
X178525333Y-84668674D01*
X178475414Y-84753268D01*
X178455025Y-84787819D01*
X178419201Y-84929585D01*
X178424768Y-85075701D01*
X178471274Y-85214331D01*
X178504328Y-85265495D01*
X178506459Y-85268126D01*
X178506460Y-85268128D01*
X178756056Y-85576353D01*
X179698322Y-86739955D01*
X179741496Y-86782924D01*
X179748279Y-86786927D01*
X179748282Y-86786929D01*
X179832645Y-86836712D01*
X179867427Y-86857237D01*
X180009193Y-86893061D01*
X180018197Y-86892718D01*
X180018198Y-86892718D01*
X180099623Y-86889616D01*
X180155309Y-86887494D01*
X180275451Y-86847190D01*
X180286466Y-86843495D01*
X180293939Y-86840988D01*
X180345103Y-86807934D01*
X180432291Y-86737331D01*
X181816939Y-85616065D01*
X181816940Y-85616064D01*
X181819563Y-85613940D01*
X181862532Y-85570766D01*
X181866535Y-85563983D01*
X181866537Y-85563980D01*
X181932265Y-85452596D01*
X181936845Y-85444835D01*
X181972669Y-85303069D01*
X181967102Y-85156953D01*
X181959290Y-85133666D01*
X181956587Y-85062721D01*
X181992670Y-85001577D01*
X182056082Y-84969647D01*
X182126689Y-84977069D01*
X182182075Y-85021486D01*
X182194723Y-85044341D01*
X184693457Y-90928456D01*
X184693626Y-90928855D01*
X184703228Y-90967794D01*
X185629656Y-102253380D01*
X185776593Y-104043337D01*
X185763475Y-104110468D01*
X185432112Y-104766291D01*
X181238831Y-113065494D01*
X181102934Y-113334456D01*
X181083173Y-113362974D01*
X180391275Y-114114518D01*
X175563564Y-119358411D01*
X175502710Y-119394980D01*
X175473842Y-119399035D01*
X164379008Y-119661118D01*
X164310433Y-119642730D01*
X164262686Y-119590187D01*
X164250684Y-119547956D01*
X164248586Y-119527412D01*
X164248585Y-119527408D01*
X164247887Y-119520574D01*
X164192115Y-119352262D01*
X164099030Y-119201348D01*
X163973652Y-119075970D01*
X163822738Y-118982885D01*
X163759193Y-118961829D01*
X163660952Y-118929275D01*
X163660948Y-118929274D01*
X163654426Y-118927113D01*
X163647592Y-118926415D01*
X163647588Y-118926414D01*
X163553729Y-118916825D01*
X163553723Y-118916825D01*
X163550545Y-118916500D01*
X163100071Y-118916500D01*
X162649456Y-118916501D01*
X162646279Y-118916826D01*
X162646270Y-118916826D01*
X162599962Y-118921557D01*
X162545574Y-118927113D01*
X162377262Y-118982885D01*
X162226348Y-119075970D01*
X162100970Y-119201348D01*
X162007885Y-119352262D01*
X161952113Y-119520574D01*
X161951415Y-119527408D01*
X161951414Y-119527412D01*
X161945001Y-119590187D01*
X161941500Y-119624455D01*
X161941501Y-120975544D01*
X161941826Y-120978721D01*
X161941826Y-120978730D01*
X161943142Y-120991609D01*
X161952113Y-121079426D01*
X162007885Y-121247738D01*
X162100970Y-121398652D01*
X162226348Y-121524030D01*
X162377262Y-121617115D01*
X162440807Y-121638171D01*
X162539048Y-121670725D01*
X162539052Y-121670726D01*
X162545574Y-121672887D01*
X162552408Y-121673585D01*
X162552412Y-121673586D01*
X162646271Y-121683175D01*
X162646277Y-121683175D01*
X162649455Y-121683500D01*
X163099929Y-121683500D01*
X163550544Y-121683499D01*
X163553721Y-121683174D01*
X163553730Y-121683174D01*
X163602467Y-121678195D01*
X163654426Y-121672887D01*
X163822738Y-121617115D01*
X163973652Y-121524030D01*
X164099030Y-121398652D01*
X164192115Y-121247738D01*
X164247887Y-121079426D01*
X164248586Y-121072585D01*
X164248587Y-121072580D01*
X164256860Y-120991609D01*
X164283682Y-120925874D01*
X164341785Y-120885076D01*
X164379230Y-120878451D01*
X166969474Y-120817264D01*
X175772752Y-120609313D01*
X175787002Y-120609783D01*
X175817114Y-120612488D01*
X175825340Y-120613227D01*
X175833476Y-120611812D01*
X175833479Y-120611812D01*
X175897881Y-120600612D01*
X175900076Y-120600250D01*
X175928639Y-120595801D01*
X175972806Y-120588921D01*
X175977804Y-120586711D01*
X175983192Y-120585774D01*
X176049957Y-120554830D01*
X176051988Y-120553910D01*
X176111790Y-120527468D01*
X176119342Y-120524129D01*
X176123602Y-120520698D01*
X176128559Y-120518400D01*
X176185075Y-120471202D01*
X176186796Y-120469790D01*
X176244115Y-120423617D01*
X176248991Y-120416942D01*
X176266817Y-120392540D01*
X176275863Y-120381523D01*
X182018667Y-114143649D01*
X182029210Y-114133457D01*
X182051233Y-114114518D01*
X182051237Y-114114514D01*
X182057496Y-114109131D01*
X182099677Y-114047310D01*
X182100641Y-114045918D01*
X182143741Y-113984669D01*
X182156583Y-113949641D01*
X182162419Y-113936199D01*
X182599586Y-113070974D01*
X186925752Y-104508770D01*
X186932306Y-104497329D01*
X186950374Y-104469302D01*
X186950376Y-104469298D01*
X186954849Y-104462359D01*
X186976408Y-104395240D01*
X186977440Y-104392163D01*
X187000768Y-104325570D01*
X187001375Y-104317511D01*
X187003847Y-104309814D01*
X187007302Y-104239361D01*
X187007505Y-104236094D01*
X187012178Y-104174033D01*
X187012798Y-104165801D01*
X187011266Y-104157687D01*
X187005076Y-104124907D01*
X187003310Y-104111836D01*
X185908655Y-90776956D01*
X185908238Y-90767766D01*
X185907838Y-90722746D01*
X185907765Y-90714488D01*
X185905558Y-90706534D01*
X185905557Y-90706528D01*
X185892030Y-90657782D01*
X185890285Y-90650704D01*
X185879601Y-90601260D01*
X185879598Y-90601252D01*
X185877854Y-90593180D01*
X185853506Y-90545790D01*
X185849603Y-90537459D01*
X183282456Y-84492240D01*
X183274240Y-84421720D01*
X183292949Y-84374075D01*
X183410018Y-84194888D01*
X183410020Y-84194884D01*
X183412870Y-84190522D01*
X183506635Y-83976760D01*
X183541903Y-83837492D01*
X183562656Y-83755538D01*
X183562656Y-83755537D01*
X183563937Y-83750479D01*
X183566969Y-83713898D01*
X183582783Y-83523042D01*
X183583213Y-83517853D01*
X183577568Y-83449730D01*
X183564368Y-83290423D01*
X183564367Y-83290418D01*
X183563937Y-83285227D01*
X183506635Y-83058946D01*
X183412870Y-82845184D01*
X183285200Y-82649770D01*
X183281675Y-82645941D01*
X183281672Y-82645937D01*
X183130638Y-82481872D01*
X183127106Y-82478035D01*
X183122994Y-82474834D01*
X183122988Y-82474829D01*
X182947016Y-82337864D01*
X182947014Y-82337862D01*
X182942903Y-82334663D01*
X182762199Y-82236871D01*
X182742198Y-82226047D01*
X182742195Y-82226046D01*
X182737613Y-82223566D01*
X182516837Y-82147773D01*
X182511703Y-82146916D01*
X182511698Y-82146915D01*
X182291735Y-82110210D01*
X182291732Y-82110210D01*
X182286598Y-82109353D01*
X182053174Y-82109353D01*
X182048040Y-82110210D01*
X182048037Y-82110210D01*
X181828074Y-82146915D01*
X181828069Y-82146916D01*
X181822935Y-82147773D01*
X181602159Y-82223566D01*
X181597577Y-82226046D01*
X181597574Y-82226047D01*
X181577573Y-82236871D01*
X181396869Y-82334663D01*
X181392758Y-82337862D01*
X181392756Y-82337864D01*
X181216784Y-82474829D01*
X181216778Y-82474834D01*
X181212666Y-82478035D01*
X181209134Y-82481872D01*
X181058100Y-82645937D01*
X181058097Y-82645941D01*
X181054572Y-82649770D01*
X180926902Y-82845184D01*
X180833137Y-83058946D01*
X180775835Y-83285227D01*
X180774170Y-83305319D01*
X180773580Y-83312438D01*
X180748020Y-83378674D01*
X180690707Y-83420577D01*
X180619839Y-83424842D01*
X180583974Y-83410547D01*
X180559225Y-83395942D01*
X180524443Y-83375417D01*
X180382677Y-83339593D01*
X180373673Y-83339936D01*
X180373672Y-83339936D01*
X180292247Y-83343038D01*
X180236561Y-83345160D01*
X180097931Y-83391666D01*
X180046767Y-83424720D01*
X180044136Y-83426851D01*
X180044134Y-83426852D01*
X179773538Y-83645976D01*
X179708011Y-83673302D01*
X179638112Y-83660862D01*
X179593810Y-83624142D01*
X179504522Y-83506281D01*
X178535530Y-82227212D01*
X178510339Y-82160835D01*
X178525032Y-82091376D01*
X178561452Y-82049519D01*
X181894555Y-79605244D01*
X181961317Y-79581090D01*
X182030539Y-79596864D01*
X182067088Y-79627681D01*
X183182665Y-81008872D01*
X185746290Y-84182885D01*
X185767274Y-84220656D01*
X186680851Y-86847190D01*
X188095277Y-90913665D01*
X188101789Y-90944065D01*
X188511047Y-95616426D01*
X189272598Y-104310801D01*
X189275603Y-104345112D01*
X189262619Y-104412779D01*
X188096697Y-106727967D01*
X182439013Y-117962511D01*
X182399165Y-118008758D01*
X172001670Y-125351989D01*
X168397205Y-127897643D01*
X166735960Y-129070897D01*
X166664614Y-129093970D01*
X163020182Y-129132740D01*
X158235840Y-129183637D01*
X158167511Y-129164361D01*
X158120450Y-129111203D01*
X158108500Y-129057644D01*
X158108500Y-127830451D01*
X158128502Y-127762330D01*
X158174530Y-127719638D01*
X158240990Y-127683671D01*
X158240995Y-127683668D01*
X158245576Y-127681189D01*
X158319430Y-127623706D01*
X158419121Y-127546112D01*
X158423240Y-127542906D01*
X158470640Y-127491417D01*
X158572194Y-127381101D01*
X158572197Y-127381097D01*
X158575722Y-127377268D01*
X158664517Y-127241357D01*
X158718521Y-127195268D01*
X158788868Y-127185693D01*
X158853226Y-127215670D01*
X158875483Y-127241357D01*
X158964278Y-127377268D01*
X158967803Y-127381097D01*
X158967806Y-127381101D01*
X159069360Y-127491417D01*
X159116760Y-127542906D01*
X159120879Y-127546112D01*
X159220571Y-127623706D01*
X159294424Y-127681189D01*
X159352085Y-127712393D01*
X159431501Y-127755371D01*
X159492426Y-127788342D01*
X159705365Y-127861444D01*
X159710499Y-127862301D01*
X159710504Y-127862302D01*
X159922294Y-127897643D01*
X159922296Y-127897643D01*
X159927431Y-127898500D01*
X160152569Y-127898500D01*
X160157704Y-127897643D01*
X160157706Y-127897643D01*
X160369496Y-127862302D01*
X160369501Y-127862301D01*
X160374635Y-127861444D01*
X160587574Y-127788342D01*
X160648500Y-127755371D01*
X160727915Y-127712393D01*
X160785576Y-127681189D01*
X160859430Y-127623706D01*
X160959121Y-127546112D01*
X160963240Y-127542906D01*
X161010640Y-127491417D01*
X161112194Y-127381101D01*
X161112197Y-127381097D01*
X161115722Y-127377268D01*
X161204517Y-127241357D01*
X161258521Y-127195268D01*
X161328868Y-127185693D01*
X161393226Y-127215670D01*
X161415483Y-127241357D01*
X161504278Y-127377268D01*
X161507803Y-127381097D01*
X161507806Y-127381101D01*
X161609360Y-127491417D01*
X161656760Y-127542906D01*
X161660879Y-127546112D01*
X161760571Y-127623706D01*
X161834424Y-127681189D01*
X161892085Y-127712393D01*
X161971501Y-127755371D01*
X162032426Y-127788342D01*
X162245365Y-127861444D01*
X162250499Y-127862301D01*
X162250504Y-127862302D01*
X162462294Y-127897643D01*
X162462296Y-127897643D01*
X162467431Y-127898500D01*
X162692569Y-127898500D01*
X162697704Y-127897643D01*
X162697706Y-127897643D01*
X162909496Y-127862302D01*
X162909501Y-127862301D01*
X162914635Y-127861444D01*
X163127574Y-127788342D01*
X163188500Y-127755371D01*
X163267915Y-127712393D01*
X163325576Y-127681189D01*
X163399430Y-127623706D01*
X163499121Y-127546112D01*
X163503240Y-127542906D01*
X163550640Y-127491417D01*
X163652194Y-127381101D01*
X163652197Y-127381097D01*
X163655722Y-127377268D01*
X163761299Y-127215670D01*
X163776008Y-127193157D01*
X163776010Y-127193153D01*
X163778860Y-127188791D01*
X163869296Y-126982616D01*
X163924564Y-126764368D01*
X163927521Y-126728690D01*
X163942726Y-126545189D01*
X163943156Y-126540000D01*
X163934113Y-126430872D01*
X163924995Y-126320828D01*
X163924994Y-126320823D01*
X163924564Y-126315632D01*
X163869296Y-126097384D01*
X163778860Y-125891209D01*
X163774629Y-125884732D01*
X163658573Y-125707096D01*
X163655722Y-125702732D01*
X163652197Y-125698903D01*
X163652194Y-125698899D01*
X163506772Y-125540931D01*
X163503240Y-125537094D01*
X163484139Y-125522227D01*
X163329689Y-125402012D01*
X163329687Y-125402010D01*
X163325576Y-125398811D01*
X163292320Y-125380814D01*
X163241929Y-125330801D01*
X163226577Y-125261484D01*
X163251137Y-125194871D01*
X163292320Y-125159186D01*
X163320995Y-125143668D01*
X163325576Y-125141189D01*
X163365852Y-125109841D01*
X163499121Y-125006112D01*
X163503240Y-125002906D01*
X163587489Y-124911388D01*
X163652194Y-124841101D01*
X163652197Y-124841097D01*
X163655722Y-124837268D01*
X163733538Y-124718162D01*
X163776008Y-124653157D01*
X163776010Y-124653153D01*
X163778860Y-124648791D01*
X163869296Y-124442616D01*
X163924564Y-124224368D01*
X163943156Y-124000000D01*
X163924564Y-123775632D01*
X163869296Y-123557384D01*
X163778860Y-123351209D01*
X163774629Y-123344732D01*
X163658573Y-123167096D01*
X163655722Y-123162732D01*
X163652197Y-123158903D01*
X163652194Y-123158899D01*
X163506772Y-123000931D01*
X163503240Y-122997094D01*
X163325576Y-122858811D01*
X163127574Y-122751658D01*
X162914635Y-122678556D01*
X162909501Y-122677699D01*
X162909496Y-122677698D01*
X162697706Y-122642357D01*
X162697704Y-122642357D01*
X162692569Y-122641500D01*
X162467431Y-122641500D01*
X162462296Y-122642357D01*
X162462294Y-122642357D01*
X162250504Y-122677698D01*
X162250499Y-122677699D01*
X162245365Y-122678556D01*
X162032426Y-122751658D01*
X161834424Y-122858811D01*
X161656760Y-122997094D01*
X161653228Y-123000931D01*
X161507806Y-123158899D01*
X161507803Y-123158903D01*
X161504278Y-123162732D01*
X161501427Y-123167096D01*
X161415483Y-123298643D01*
X161361479Y-123344732D01*
X161291132Y-123354307D01*
X161226774Y-123324330D01*
X161204517Y-123298643D01*
X161118573Y-123167096D01*
X161115722Y-123162732D01*
X161112197Y-123158903D01*
X161112194Y-123158899D01*
X160966772Y-123000931D01*
X160963240Y-122997094D01*
X160785576Y-122858811D01*
X160587574Y-122751658D01*
X160374635Y-122678556D01*
X160369501Y-122677699D01*
X160369496Y-122677698D01*
X160157706Y-122642357D01*
X160157704Y-122642357D01*
X160152569Y-122641500D01*
X159927431Y-122641500D01*
X159922296Y-122642357D01*
X159922294Y-122642357D01*
X159710504Y-122677698D01*
X159710499Y-122677699D01*
X159705365Y-122678556D01*
X159492426Y-122751658D01*
X159294424Y-122858811D01*
X159116760Y-122997094D01*
X159113228Y-123000931D01*
X159055755Y-123063362D01*
X158994901Y-123099933D01*
X158923937Y-123097798D01*
X158865392Y-123057636D01*
X158844998Y-123022056D01*
X158804038Y-122912239D01*
X158804037Y-122912237D01*
X158800889Y-122903796D01*
X158713261Y-122786739D01*
X158596204Y-122699111D01*
X158459201Y-122648011D01*
X158422295Y-122644043D01*
X158401988Y-122641860D01*
X158401985Y-122641860D01*
X158398638Y-122641500D01*
X158234500Y-122641500D01*
X158166379Y-122621498D01*
X158119886Y-122567842D01*
X158108500Y-122515500D01*
X158108500Y-121034500D01*
X158128502Y-120966379D01*
X158182158Y-120919886D01*
X158234500Y-120908500D01*
X158720868Y-120908500D01*
X158788989Y-120928502D01*
X158835482Y-120982158D01*
X158846216Y-121021696D01*
X158851414Y-121072588D01*
X158851415Y-121072592D01*
X158852113Y-121079426D01*
X158907885Y-121247738D01*
X159000970Y-121398652D01*
X159126348Y-121524030D01*
X159277262Y-121617115D01*
X159340807Y-121638171D01*
X159439048Y-121670725D01*
X159439052Y-121670726D01*
X159445574Y-121672887D01*
X159452408Y-121673585D01*
X159452412Y-121673586D01*
X159546271Y-121683175D01*
X159546277Y-121683175D01*
X159549455Y-121683500D01*
X159999929Y-121683500D01*
X160450544Y-121683499D01*
X160453721Y-121683174D01*
X160453730Y-121683174D01*
X160502467Y-121678195D01*
X160554426Y-121672887D01*
X160722738Y-121617115D01*
X160873652Y-121524030D01*
X160999030Y-121398652D01*
X161092115Y-121247738D01*
X161147887Y-121079426D01*
X161148587Y-121072580D01*
X161158175Y-120978729D01*
X161158175Y-120978723D01*
X161158500Y-120975545D01*
X161158499Y-119624456D01*
X161147887Y-119520574D01*
X161092115Y-119352262D01*
X160999030Y-119201348D01*
X160873652Y-119075970D01*
X160722738Y-118982885D01*
X160659193Y-118961829D01*
X160560952Y-118929275D01*
X160560948Y-118929274D01*
X160554426Y-118927113D01*
X160547592Y-118926415D01*
X160547588Y-118926414D01*
X160453729Y-118916825D01*
X160453723Y-118916825D01*
X160450545Y-118916500D01*
X160000071Y-118916500D01*
X159549456Y-118916501D01*
X159546279Y-118916826D01*
X159546270Y-118916826D01*
X159499962Y-118921557D01*
X159445574Y-118927113D01*
X159277262Y-118982885D01*
X159126348Y-119075970D01*
X159000970Y-119201348D01*
X158907885Y-119352262D01*
X158852113Y-119520574D01*
X158851415Y-119527408D01*
X158851414Y-119527412D01*
X158846215Y-119578306D01*
X158819393Y-119644041D01*
X158761290Y-119684840D01*
X158720867Y-119691500D01*
X157548143Y-119691500D01*
X157531697Y-119690422D01*
X157508188Y-119687327D01*
X157500000Y-119686249D01*
X157341150Y-119707162D01*
X157193125Y-119768476D01*
X157129569Y-119817245D01*
X157072566Y-119860984D01*
X157072563Y-119860987D01*
X157066013Y-119866013D01*
X157060987Y-119872563D01*
X157060986Y-119872564D01*
X157046119Y-119891939D01*
X156968476Y-119993124D01*
X156907162Y-120141150D01*
X156886249Y-120300000D01*
X156887327Y-120308188D01*
X156890422Y-120331697D01*
X156891500Y-120348143D01*
X156891500Y-122515500D01*
X156871498Y-122583621D01*
X156817842Y-122630114D01*
X156765500Y-122641500D01*
X156601362Y-122641500D01*
X156598015Y-122641860D01*
X156598012Y-122641860D01*
X156577705Y-122644043D01*
X156540799Y-122648011D01*
X156403796Y-122699111D01*
X156286739Y-122786739D01*
X156199111Y-122903796D01*
X156148011Y-123040799D01*
X156141500Y-123101362D01*
X156141500Y-124898638D01*
X156148011Y-124959201D01*
X156199111Y-125096204D01*
X156204510Y-125103416D01*
X156204511Y-125103418D01*
X156230390Y-125137988D01*
X156286739Y-125213261D01*
X156293950Y-125218659D01*
X156391465Y-125291658D01*
X156403796Y-125300889D01*
X156518808Y-125343787D01*
X156575642Y-125386333D01*
X156600453Y-125452853D01*
X156585361Y-125522227D01*
X156567475Y-125547180D01*
X156427806Y-125698899D01*
X156427803Y-125698903D01*
X156424278Y-125702732D01*
X156421427Y-125707096D01*
X156305372Y-125884732D01*
X156301140Y-125891209D01*
X156210704Y-126097384D01*
X156155436Y-126315632D01*
X156155006Y-126320823D01*
X156155005Y-126320828D01*
X156145887Y-126430872D01*
X156136844Y-126540000D01*
X142130059Y-126540000D01*
X141970575Y-126430872D01*
X141967667Y-126428822D01*
X140388768Y-125281685D01*
X140384518Y-125278458D01*
X140346558Y-125248342D01*
X140171960Y-125109823D01*
X140169302Y-125107654D01*
X138668020Y-123847929D01*
X138663932Y-123844345D01*
X138470423Y-123667200D01*
X138467975Y-123664899D01*
X137051627Y-122297149D01*
X137047732Y-122293218D01*
X136874111Y-122110153D01*
X136871897Y-122107757D01*
X136489894Y-121683500D01*
X135547531Y-120636899D01*
X135543861Y-120632636D01*
X135508197Y-120589276D01*
X135390787Y-120446533D01*
X135388809Y-120444065D01*
X135146184Y-120133520D01*
X134163148Y-118875291D01*
X134159781Y-118870775D01*
X134027483Y-118684566D01*
X134025739Y-118682047D01*
X132905341Y-117020988D01*
X132902194Y-117016081D01*
X132790655Y-116832979D01*
X132789225Y-116830568D01*
X131780305Y-115083067D01*
X131777462Y-115077863D01*
X131686232Y-114901133D01*
X131684946Y-114898572D01*
X130793566Y-113070974D01*
X130791054Y-113065494D01*
X130781829Y-113044031D01*
X130719230Y-112898387D01*
X130718214Y-112895951D01*
X129950009Y-110994574D01*
X129947855Y-110988848D01*
X129894245Y-110835017D01*
X129893394Y-110832488D01*
X129253815Y-108864063D01*
X129252038Y-108858097D01*
X129246807Y-108838804D01*
X129214861Y-108720967D01*
X129214231Y-108718543D01*
X128708435Y-106689901D01*
X128707059Y-106683729D01*
X128695255Y-106623696D01*
X128684093Y-106566927D01*
X128683652Y-106564563D01*
X128373698Y-104806722D01*
X128316566Y-104482714D01*
X128315614Y-104476372D01*
X128314201Y-104464988D01*
X128304091Y-104383574D01*
X128303821Y-104381218D01*
X128080176Y-102253380D01*
X128079663Y-102246878D01*
X128076205Y-102181635D01*
X128076105Y-102179363D01*
X128001049Y-100030032D01*
X128000992Y-100027861D01*
X128000539Y-100002226D01*
X128000539Y-99997774D01*
X128000992Y-99972139D01*
X128001049Y-99969968D01*
X128076105Y-97820637D01*
X128076205Y-97818365D01*
X128079663Y-97753122D01*
X128080176Y-97746620D01*
X128303821Y-95618782D01*
X128304091Y-95616426D01*
X128315614Y-95523628D01*
X128316568Y-95517275D01*
X128683652Y-93435437D01*
X128684093Y-93433073D01*
X128695255Y-93376304D01*
X128707059Y-93316271D01*
X128708435Y-93310099D01*
X129214231Y-91281457D01*
X129214861Y-91279033D01*
X129252038Y-91141903D01*
X129253815Y-91135937D01*
X129893394Y-89167512D01*
X129894245Y-89164983D01*
X129947855Y-89011152D01*
X129950012Y-89005417D01*
X130718214Y-87104049D01*
X130719230Y-87101613D01*
X130791054Y-86934506D01*
X130793566Y-86929026D01*
X131684946Y-85101428D01*
X131686232Y-85098867D01*
X131777462Y-84922137D01*
X131780305Y-84916933D01*
X132326031Y-83971707D01*
X132789225Y-83169432D01*
X132790655Y-83167021D01*
X132902203Y-82983905D01*
X132905341Y-82979012D01*
X133700594Y-81800000D01*
X162599458Y-81800000D01*
X162599617Y-81800383D01*
X162600000Y-81800542D01*
X162600383Y-81800383D01*
X162600542Y-81800000D01*
X162600383Y-81799617D01*
X162600000Y-81799458D01*
X162599617Y-81799617D01*
X162599458Y-81800000D01*
X133700594Y-81800000D01*
X134025739Y-81317953D01*
X134027483Y-81315434D01*
X134044727Y-81291162D01*
X134159781Y-81129225D01*
X134163148Y-81124709D01*
X135332755Y-79627681D01*
X135388809Y-79555935D01*
X135390787Y-79553467D01*
X135543861Y-79367364D01*
X135547536Y-79363095D01*
X136443055Y-78368521D01*
X136871901Y-77892239D01*
X136874111Y-77889847D01*
X137047732Y-77706782D01*
X137051627Y-77702851D01*
X138467975Y-76335101D01*
X138470423Y-76332800D01*
X138663932Y-76155655D01*
X138668020Y-76152071D01*
X140169302Y-74892346D01*
X140171960Y-74890177D01*
X140384529Y-74721534D01*
X140388768Y-74718315D01*
X141967667Y-73571178D01*
X141970575Y-73569128D01*
X142201028Y-73411439D01*
X142205411Y-73408571D01*
X142859261Y-73000000D01*
X156994415Y-73000000D01*
X157014738Y-73348927D01*
X157075431Y-73693136D01*
X157076482Y-73696646D01*
X157076483Y-73696651D01*
X157141594Y-73914137D01*
X157175674Y-74027971D01*
X157314111Y-74348904D01*
X157315943Y-74352078D01*
X157315945Y-74352081D01*
X157487038Y-74648423D01*
X157488870Y-74651596D01*
X157491055Y-74654531D01*
X157668102Y-74892346D01*
X157697588Y-74931953D01*
X157937442Y-75186183D01*
X158205189Y-75410849D01*
X158497207Y-75602913D01*
X158500471Y-75604552D01*
X158806279Y-75758135D01*
X158806283Y-75758137D01*
X158809549Y-75759777D01*
X158812992Y-75761030D01*
X158812994Y-75761031D01*
X159134543Y-75878065D01*
X159134547Y-75878066D01*
X159137989Y-75879319D01*
X159478086Y-75959923D01*
X159825241Y-76000500D01*
X160174759Y-76000500D01*
X160521914Y-75959923D01*
X160862011Y-75879319D01*
X160865453Y-75878066D01*
X160865457Y-75878065D01*
X161187006Y-75761031D01*
X161187008Y-75761030D01*
X161190451Y-75759777D01*
X161193717Y-75758137D01*
X161193721Y-75758135D01*
X161499529Y-75604552D01*
X161502793Y-75602913D01*
X161794811Y-75410849D01*
X162062558Y-75186183D01*
X162302412Y-74931953D01*
X162331899Y-74892346D01*
X162508945Y-74654531D01*
X162511130Y-74651596D01*
X162512962Y-74648423D01*
X162684055Y-74352081D01*
X162684057Y-74352078D01*
X162685889Y-74348904D01*
X162824326Y-74027971D01*
X162858406Y-73914137D01*
X162923517Y-73696651D01*
X162923518Y-73696646D01*
X162924569Y-73693136D01*
X162985262Y-73348927D01*
X163005585Y-73000000D01*
X162985262Y-72651073D01*
X162924569Y-72306864D01*
X162901323Y-72229215D01*
X162825377Y-71975539D01*
X162825376Y-71975536D01*
X162824326Y-71972029D01*
X162685889Y-71651096D01*
X162511130Y-71348404D01*
X162391843Y-71188174D01*
X162304598Y-71070983D01*
X162304596Y-71070981D01*
X162302412Y-71068047D01*
X162062558Y-70813817D01*
X161808931Y-70600999D01*
X161797625Y-70591512D01*
X161797623Y-70591510D01*
X161794811Y-70589151D01*
X161502793Y-70397087D01*
X161277702Y-70284042D01*
X161193721Y-70241865D01*
X161193717Y-70241863D01*
X161190451Y-70240223D01*
X161006779Y-70173372D01*
X160865457Y-70121935D01*
X160865453Y-70121934D01*
X160862011Y-70120681D01*
X160521914Y-70040077D01*
X160174759Y-69999500D01*
X159825241Y-69999500D01*
X159478086Y-70040077D01*
X159137989Y-70120681D01*
X159134547Y-70121934D01*
X159134543Y-70121935D01*
X158993221Y-70173372D01*
X158809549Y-70240223D01*
X158806283Y-70241863D01*
X158806279Y-70241865D01*
X158722298Y-70284042D01*
X158497207Y-70397087D01*
X158205189Y-70589151D01*
X158202377Y-70591510D01*
X158202375Y-70591512D01*
X158191069Y-70600999D01*
X157937442Y-70813817D01*
X157697588Y-71068047D01*
X157695404Y-71070981D01*
X157695402Y-71070983D01*
X157608157Y-71188174D01*
X157488870Y-71348404D01*
X157314111Y-71651096D01*
X157175674Y-71972029D01*
X157174624Y-71975536D01*
X157174623Y-71975539D01*
X157098678Y-72229215D01*
X157075431Y-72306864D01*
X157014738Y-72651073D01*
X156994415Y-73000000D01*
X142859261Y-73000000D01*
X143854370Y-72378187D01*
X143857499Y-72376294D01*
X144104542Y-72231719D01*
X144109030Y-72229215D01*
X145820317Y-71319308D01*
X145823658Y-71317594D01*
X145910219Y-71274827D01*
X146085634Y-71188162D01*
X146090144Y-71186044D01*
X147856009Y-70399831D01*
X147859420Y-70398374D01*
X148134612Y-70285806D01*
X148139179Y-70284042D01*
X148263016Y-70238969D01*
X149951338Y-69624469D01*
X149954961Y-69623214D01*
X150241383Y-69529031D01*
X150245981Y-69527617D01*
X152096225Y-68997068D01*
X152100138Y-68996014D01*
X152103250Y-68995229D01*
X152395574Y-68921492D01*
X152400149Y-68920428D01*
X154280267Y-68520797D01*
X154284247Y-68520019D01*
X154586676Y-68466081D01*
X154591201Y-68465360D01*
X156492614Y-68198133D01*
X156496805Y-68197617D01*
X156619759Y-68184547D01*
X156803869Y-68164978D01*
X156808398Y-68164579D01*
X158722582Y-68030727D01*
X158726924Y-68030498D01*
X159036314Y-68019572D01*
X159040761Y-68019494D01*
X160959239Y-68019494D01*
X160963686Y-68019572D01*
G37*
%TD.AperFunction*%
M02*
