%TF.GenerationSoftware,KiCad,Pcbnew,(6.99.0-2452-gdb4f2d9dd8)*%
%TF.CreationDate,2022-07-19T12:38:48+04:00*%
%TF.ProjectId,HAS,4841532e-6b69-4636-9164-5f7063625858,rev?*%
%TF.SameCoordinates,Original*%
%TF.FileFunction,Drillmap*%
%TF.FilePolarity,Positive*%
%FSLAX45Y45*%
G04 Gerber Fmt 4.5, Leading zero omitted, Abs format (unit mm)*
G04 Created by KiCad (PCBNEW (6.99.0-2452-gdb4f2d9dd8)) date 2022-07-19 12:38:48*
%MOMM*%
%LPD*%
G01*
G04 APERTURE LIST*
%ADD10C,0.100000*%
%ADD11C,3.050000*%
%ADD12C,0.200000*%
G04 APERTURE END LIST*
D10*
X16260000Y-8180000D02*
G75*
G03*
X16260000Y-8180000I0J0D01*
G01*
X19200000Y-10000000D02*
G75*
G03*
X19200000Y-10000000I-3200000J0D01*
G01*
D11*
X16152500Y-7300000D02*
G75*
G03*
X16152500Y-7300000I-152500J0D01*
G01*
D12*
X13042619Y-13498476D02*
X13042619Y-13298476D01*
X13042619Y-13298476D02*
X13090238Y-13298476D01*
X13090238Y-13298476D02*
X13118809Y-13308000D01*
X13118809Y-13308000D02*
X13137857Y-13327048D01*
X13137857Y-13327048D02*
X13147381Y-13346095D01*
X13147381Y-13346095D02*
X13156905Y-13384190D01*
X13156905Y-13384190D02*
X13156905Y-13412762D01*
X13156905Y-13412762D02*
X13147381Y-13450857D01*
X13147381Y-13450857D02*
X13137857Y-13469905D01*
X13137857Y-13469905D02*
X13118809Y-13488952D01*
X13118809Y-13488952D02*
X13090238Y-13498476D01*
X13090238Y-13498476D02*
X13042619Y-13498476D01*
X13242619Y-13498476D02*
X13242619Y-13365143D01*
X13242619Y-13403238D02*
X13252143Y-13384190D01*
X13252143Y-13384190D02*
X13261667Y-13374667D01*
X13261667Y-13374667D02*
X13280714Y-13365143D01*
X13280714Y-13365143D02*
X13299762Y-13365143D01*
X13366428Y-13498476D02*
X13366428Y-13365143D01*
X13366428Y-13298476D02*
X13356905Y-13308000D01*
X13356905Y-13308000D02*
X13366428Y-13317524D01*
X13366428Y-13317524D02*
X13375952Y-13308000D01*
X13375952Y-13308000D02*
X13366428Y-13298476D01*
X13366428Y-13298476D02*
X13366428Y-13317524D01*
X13490238Y-13498476D02*
X13471190Y-13488952D01*
X13471190Y-13488952D02*
X13461667Y-13469905D01*
X13461667Y-13469905D02*
X13461667Y-13298476D01*
X13595000Y-13498476D02*
X13575952Y-13488952D01*
X13575952Y-13488952D02*
X13566428Y-13469905D01*
X13566428Y-13469905D02*
X13566428Y-13298476D01*
X13791190Y-13498476D02*
X13791190Y-13298476D01*
X13791190Y-13298476D02*
X13857857Y-13441333D01*
X13857857Y-13441333D02*
X13924524Y-13298476D01*
X13924524Y-13298476D02*
X13924524Y-13498476D01*
X14105476Y-13498476D02*
X14105476Y-13393714D01*
X14105476Y-13393714D02*
X14095952Y-13374667D01*
X14095952Y-13374667D02*
X14076905Y-13365143D01*
X14076905Y-13365143D02*
X14038809Y-13365143D01*
X14038809Y-13365143D02*
X14019762Y-13374667D01*
X14105476Y-13488952D02*
X14086428Y-13498476D01*
X14086428Y-13498476D02*
X14038809Y-13498476D01*
X14038809Y-13498476D02*
X14019762Y-13488952D01*
X14019762Y-13488952D02*
X14010238Y-13469905D01*
X14010238Y-13469905D02*
X14010238Y-13450857D01*
X14010238Y-13450857D02*
X14019762Y-13431809D01*
X14019762Y-13431809D02*
X14038809Y-13422286D01*
X14038809Y-13422286D02*
X14086428Y-13422286D01*
X14086428Y-13422286D02*
X14105476Y-13412762D01*
X14200714Y-13365143D02*
X14200714Y-13565143D01*
X14200714Y-13374667D02*
X14219762Y-13365143D01*
X14219762Y-13365143D02*
X14257857Y-13365143D01*
X14257857Y-13365143D02*
X14276905Y-13374667D01*
X14276905Y-13374667D02*
X14286428Y-13384190D01*
X14286428Y-13384190D02*
X14295952Y-13403238D01*
X14295952Y-13403238D02*
X14295952Y-13460381D01*
X14295952Y-13460381D02*
X14286428Y-13479428D01*
X14286428Y-13479428D02*
X14276905Y-13488952D01*
X14276905Y-13488952D02*
X14257857Y-13498476D01*
X14257857Y-13498476D02*
X14219762Y-13498476D01*
X14219762Y-13498476D02*
X14200714Y-13488952D01*
X14381667Y-13479428D02*
X14391190Y-13488952D01*
X14391190Y-13488952D02*
X14381667Y-13498476D01*
X14381667Y-13498476D02*
X14372143Y-13488952D01*
X14372143Y-13488952D02*
X14381667Y-13479428D01*
X14381667Y-13479428D02*
X14381667Y-13498476D01*
X14381667Y-13374667D02*
X14391190Y-13384190D01*
X14391190Y-13384190D02*
X14381667Y-13393714D01*
X14381667Y-13393714D02*
X14372143Y-13384190D01*
X14372143Y-13384190D02*
X14381667Y-13374667D01*
X14381667Y-13374667D02*
X14381667Y-13393714D01*
M02*
