G04 #@! TF.GenerationSoftware,KiCad,Pcbnew,(6.99.0-2452-gdb4f2d9dd8)*
G04 #@! TF.CreationDate,2022-08-01T20:43:05-05:00*
G04 #@! TF.ProjectId,HAS,4841532e-6b69-4636-9164-5f7063625858,rev?*
G04 #@! TF.SameCoordinates,Original*
G04 #@! TF.FileFunction,Legend,Bot*
G04 #@! TF.FilePolarity,Positive*
%FSLAX46Y46*%
G04 Gerber Fmt 4.6, Leading zero omitted, Abs format (unit mm)*
G04 Created by KiCad (PCBNEW (6.99.0-2452-gdb4f2d9dd8)) date 2022-08-01 20:43:05*
%MOMM*%
%LPD*%
G01*
G04 APERTURE LIST*
G04 Aperture macros list*
%AMRoundRect*
0 Rectangle with rounded corners*
0 $1 Rounding radius*
0 $2 $3 $4 $5 $6 $7 $8 $9 X,Y pos of 4 corners*
0 Add a 4 corners polygon primitive as box body*
4,1,4,$2,$3,$4,$5,$6,$7,$8,$9,$2,$3,0*
0 Add four circle primitives for the rounded corners*
1,1,$1+$1,$2,$3*
1,1,$1+$1,$4,$5*
1,1,$1+$1,$6,$7*
1,1,$1+$1,$8,$9*
0 Add four rect primitives between the rounded corners*
20,1,$1+$1,$2,$3,$4,$5,0*
20,1,$1+$1,$4,$5,$6,$7,0*
20,1,$1+$1,$6,$7,$8,$9,0*
20,1,$1+$1,$8,$9,$2,$3,0*%
%AMRotRect*
0 Rectangle, with rotation*
0 The origin of the aperture is its center*
0 $1 length*
0 $2 width*
0 $3 Rotation angle, in degrees counterclockwise*
0 Add horizontal line*
21,1,$1,$2,0,0,$3*%
G04 Aperture macros list end*
%ADD10C,0.150000*%
%ADD11C,0.120000*%
%ADD12RotRect,1.800000X1.800000X39.000000*%
%ADD13C,1.800000*%
%ADD14O,1.700000X1.700000*%
%ADD15R,1.700000X1.700000*%
%ADD16RoundRect,0.250000X0.625000X-0.400000X0.625000X0.400000X-0.625000X0.400000X-0.625000X-0.400000X0*%
G04 APERTURE END LIST*
D10*
X163276190Y-129400714D02*
X163276190Y-130257857D01*
X163276190Y-130257857D02*
X163323809Y-130353095D01*
X163323809Y-130353095D02*
X163419047Y-130400714D01*
X163419047Y-130400714D02*
X163466666Y-130400714D01*
X163276190Y-129067380D02*
X163323809Y-129115000D01*
X163323809Y-129115000D02*
X163276190Y-129162619D01*
X163276190Y-129162619D02*
X163228571Y-129115000D01*
X163228571Y-129115000D02*
X163276190Y-129067380D01*
X163276190Y-129067380D02*
X163276190Y-129162619D01*
X162657143Y-130067380D02*
X162752381Y-130019761D01*
X162752381Y-130019761D02*
X162800000Y-129924523D01*
X162800000Y-129924523D02*
X162800000Y-129067380D01*
X161847619Y-130019761D02*
X161942857Y-130067380D01*
X161942857Y-130067380D02*
X162133333Y-130067380D01*
X162133333Y-130067380D02*
X162228571Y-130019761D01*
X162228571Y-130019761D02*
X162276190Y-129972142D01*
X162276190Y-129972142D02*
X162323809Y-129876904D01*
X162323809Y-129876904D02*
X162323809Y-129591190D01*
X162323809Y-129591190D02*
X162276190Y-129495952D01*
X162276190Y-129495952D02*
X162228571Y-129448333D01*
X162228571Y-129448333D02*
X162133333Y-129400714D01*
X162133333Y-129400714D02*
X161942857Y-129400714D01*
X161942857Y-129400714D02*
X161847619Y-129448333D01*
X161419047Y-129400714D02*
X161419047Y-130257857D01*
X161419047Y-130257857D02*
X161466666Y-130353095D01*
X161466666Y-130353095D02*
X161561904Y-130400714D01*
X161561904Y-130400714D02*
X161609523Y-130400714D01*
X161419047Y-129067380D02*
X161466666Y-129115000D01*
X161466666Y-129115000D02*
X161419047Y-129162619D01*
X161419047Y-129162619D02*
X161371428Y-129115000D01*
X161371428Y-129115000D02*
X161419047Y-129067380D01*
X161419047Y-129067380D02*
X161419047Y-129162619D01*
X160800000Y-130067380D02*
X160895238Y-130019761D01*
X160895238Y-130019761D02*
X160942857Y-129924523D01*
X160942857Y-129924523D02*
X160942857Y-129067380D01*
X159990476Y-130019761D02*
X160085714Y-130067380D01*
X160085714Y-130067380D02*
X160276190Y-130067380D01*
X160276190Y-130067380D02*
X160371428Y-130019761D01*
X160371428Y-130019761D02*
X160419047Y-129972142D01*
X160419047Y-129972142D02*
X160466666Y-129876904D01*
X160466666Y-129876904D02*
X160466666Y-129591190D01*
X160466666Y-129591190D02*
X160419047Y-129495952D01*
X160419047Y-129495952D02*
X160371428Y-129448333D01*
X160371428Y-129448333D02*
X160276190Y-129400714D01*
X160276190Y-129400714D02*
X160085714Y-129400714D01*
X160085714Y-129400714D02*
X159990476Y-129448333D01*
X159561904Y-129400714D02*
X159561904Y-130257857D01*
X159561904Y-130257857D02*
X159609523Y-130353095D01*
X159609523Y-130353095D02*
X159704761Y-130400714D01*
X159704761Y-130400714D02*
X159752380Y-130400714D01*
X159561904Y-129067380D02*
X159609523Y-129115000D01*
X159609523Y-129115000D02*
X159561904Y-129162619D01*
X159561904Y-129162619D02*
X159514285Y-129115000D01*
X159514285Y-129115000D02*
X159561904Y-129067380D01*
X159561904Y-129067380D02*
X159561904Y-129162619D01*
X158942857Y-130067380D02*
X159038095Y-130019761D01*
X159038095Y-130019761D02*
X159085714Y-129924523D01*
X159085714Y-129924523D02*
X159085714Y-129067380D01*
X158133333Y-130019761D02*
X158228571Y-130067380D01*
X158228571Y-130067380D02*
X158419047Y-130067380D01*
X158419047Y-130067380D02*
X158514285Y-130019761D01*
X158514285Y-130019761D02*
X158561904Y-129972142D01*
X158561904Y-129972142D02*
X158609523Y-129876904D01*
X158609523Y-129876904D02*
X158609523Y-129591190D01*
X158609523Y-129591190D02*
X158561904Y-129495952D01*
X158561904Y-129495952D02*
X158514285Y-129448333D01*
X158514285Y-129448333D02*
X158419047Y-129400714D01*
X158419047Y-129400714D02*
X158228571Y-129400714D01*
X158228571Y-129400714D02*
X158133333Y-129448333D01*
X157704761Y-129400714D02*
X157704761Y-130257857D01*
X157704761Y-130257857D02*
X157752380Y-130353095D01*
X157752380Y-130353095D02*
X157847618Y-130400714D01*
X157847618Y-130400714D02*
X157895237Y-130400714D01*
X157704761Y-129067380D02*
X157752380Y-129115000D01*
X157752380Y-129115000D02*
X157704761Y-129162619D01*
X157704761Y-129162619D02*
X157657142Y-129115000D01*
X157657142Y-129115000D02*
X157704761Y-129067380D01*
X157704761Y-129067380D02*
X157704761Y-129162619D01*
X157085714Y-130067380D02*
X157180952Y-130019761D01*
X157180952Y-130019761D02*
X157228571Y-129924523D01*
X157228571Y-129924523D02*
X157228571Y-129067380D01*
X156276190Y-130019761D02*
X156371428Y-130067380D01*
X156371428Y-130067380D02*
X156561904Y-130067380D01*
X156561904Y-130067380D02*
X156657142Y-130019761D01*
X156657142Y-130019761D02*
X156704761Y-129972142D01*
X156704761Y-129972142D02*
X156752380Y-129876904D01*
X156752380Y-129876904D02*
X156752380Y-129591190D01*
X156752380Y-129591190D02*
X156704761Y-129495952D01*
X156704761Y-129495952D02*
X156657142Y-129448333D01*
X156657142Y-129448333D02*
X156561904Y-129400714D01*
X156561904Y-129400714D02*
X156371428Y-129400714D01*
X156371428Y-129400714D02*
X156276190Y-129448333D01*
X160714285Y-113200714D02*
X160476190Y-113867380D01*
X160476190Y-113867380D02*
X160238095Y-113200714D01*
X159952380Y-112867380D02*
X159333333Y-112867380D01*
X159333333Y-112867380D02*
X159666666Y-113248333D01*
X159666666Y-113248333D02*
X159523809Y-113248333D01*
X159523809Y-113248333D02*
X159428571Y-113295952D01*
X159428571Y-113295952D02*
X159380952Y-113343571D01*
X159380952Y-113343571D02*
X159333333Y-113438809D01*
X159333333Y-113438809D02*
X159333333Y-113676904D01*
X159333333Y-113676904D02*
X159380952Y-113772142D01*
X159380952Y-113772142D02*
X159428571Y-113819761D01*
X159428571Y-113819761D02*
X159523809Y-113867380D01*
X159523809Y-113867380D02*
X159809523Y-113867380D01*
X159809523Y-113867380D02*
X159904761Y-113819761D01*
X159904761Y-113819761D02*
X159952380Y-113772142D01*
D11*
X156170000Y-127870000D02*
X163910000Y-127870000D01*
X156170000Y-125270000D02*
X156170000Y-127870000D01*
X158770000Y-125270000D02*
X156170000Y-125270000D01*
X156170000Y-122670000D02*
X156170000Y-124000000D01*
X157500000Y-122670000D02*
X156170000Y-122670000D01*
X158770000Y-122670000D02*
X158770000Y-125270000D01*
X158770000Y-122670000D02*
X163910000Y-122670000D01*
X163910000Y-122670000D02*
X163910000Y-127870000D01*
X156590000Y-114527064D02*
X156590000Y-113072936D01*
X158410000Y-114527064D02*
X158410000Y-113072936D01*
%LPC*%
D12*
X180195934Y-85116326D03*
D13*
X182169886Y-83517853D03*
D14*
X162579999Y-126539999D03*
X162579999Y-123999999D03*
X160039999Y-126539999D03*
X160039999Y-123999999D03*
X157499999Y-126539999D03*
D15*
X157499999Y-123999999D03*
D16*
X157500000Y-115350000D03*
X157500000Y-112250000D03*
M02*
