G04 #@! TF.GenerationSoftware,KiCad,Pcbnew,(6.99.0-2452-gdb4f2d9dd8)*
G04 #@! TF.CreationDate,2022-08-01T20:43:05-05:00*
G04 #@! TF.ProjectId,HAS,4841532e-6b69-4636-9164-5f7063625858,rev?*
G04 #@! TF.SameCoordinates,Original*
G04 #@! TF.FileFunction,Copper,L2,Bot*
G04 #@! TF.FilePolarity,Positive*
%FSLAX46Y46*%
G04 Gerber Fmt 4.6, Leading zero omitted, Abs format (unit mm)*
G04 Created by KiCad (PCBNEW (6.99.0-2452-gdb4f2d9dd8)) date 2022-08-01 20:43:05*
%MOMM*%
%LPD*%
G01*
G04 APERTURE LIST*
G04 Aperture macros list*
%AMRoundRect*
0 Rectangle with rounded corners*
0 $1 Rounding radius*
0 $2 $3 $4 $5 $6 $7 $8 $9 X,Y pos of 4 corners*
0 Add a 4 corners polygon primitive as box body*
4,1,4,$2,$3,$4,$5,$6,$7,$8,$9,$2,$3,0*
0 Add four circle primitives for the rounded corners*
1,1,$1+$1,$2,$3*
1,1,$1+$1,$4,$5*
1,1,$1+$1,$6,$7*
1,1,$1+$1,$8,$9*
0 Add four rect primitives between the rounded corners*
20,1,$1+$1,$2,$3,$4,$5,0*
20,1,$1+$1,$4,$5,$6,$7,0*
20,1,$1+$1,$6,$7,$8,$9,0*
20,1,$1+$1,$8,$9,$2,$3,0*%
%AMRotRect*
0 Rectangle, with rotation*
0 The origin of the aperture is its center*
0 $1 length*
0 $2 width*
0 $3 Rotation angle, in degrees counterclockwise*
0 Add horizontal line*
21,1,$1,$2,0,0,$3*%
G04 Aperture macros list end*
G04 #@! TA.AperFunction,ComponentPad*
%ADD10RotRect,1.800000X1.800000X39.000000*%
G04 #@! TD*
G04 #@! TA.AperFunction,ComponentPad*
%ADD11C,1.800000*%
G04 #@! TD*
G04 #@! TA.AperFunction,ComponentPad*
%ADD12O,1.700000X1.700000*%
G04 #@! TD*
G04 #@! TA.AperFunction,ComponentPad*
%ADD13R,1.700000X1.700000*%
G04 #@! TD*
G04 #@! TA.AperFunction,SMDPad,CuDef*
%ADD14RoundRect,0.250000X0.625000X-0.400000X0.625000X0.400000X-0.625000X0.400000X-0.625000X-0.400000X0*%
G04 #@! TD*
G04 #@! TA.AperFunction,Conductor*
%ADD15C,0.200000*%
G04 #@! TD*
G04 APERTURE END LIST*
D10*
X180195934Y-85116326D03*
D11*
X182169886Y-83517853D03*
D12*
X162579999Y-126539999D03*
X162579999Y-123999999D03*
X160039999Y-126539999D03*
X160039999Y-123999999D03*
X157499999Y-126539999D03*
D13*
X157499999Y-123999999D03*
D14*
X157500000Y-115350000D03*
X157500000Y-112250000D03*
D15*
X180195935Y-85116327D02*
X180195935Y-114704065D01*
X180195935Y-114704065D02*
X164300000Y-130600000D01*
X159600000Y-130600000D02*
X157500000Y-128500000D01*
X164300000Y-130600000D02*
X159600000Y-130600000D01*
X157500000Y-128500000D02*
X157500000Y-126540000D01*
X157500000Y-100700000D02*
X176100000Y-82100000D01*
X157500000Y-112250000D02*
X157500000Y-100700000D01*
X176100000Y-82100000D02*
X180752033Y-82100000D01*
X180752033Y-82100000D02*
X182169886Y-83517853D01*
X157500000Y-124000000D02*
X157500000Y-115350000D01*
G04 #@! TA.AperFunction,NonConductor*
G36*
X161393226Y-124675670D02*
G01*
X161415483Y-124701357D01*
X161504278Y-124837268D01*
X161507803Y-124841097D01*
X161507806Y-124841101D01*
X161572511Y-124911388D01*
X161656760Y-125002906D01*
X161660879Y-125006112D01*
X161794149Y-125109841D01*
X161834424Y-125141189D01*
X161839005Y-125143668D01*
X161867680Y-125159186D01*
X161918071Y-125209199D01*
X161933423Y-125278516D01*
X161908863Y-125345129D01*
X161867681Y-125380813D01*
X161834424Y-125398811D01*
X161830313Y-125402010D01*
X161830311Y-125402012D01*
X161675861Y-125522227D01*
X161656760Y-125537094D01*
X161653228Y-125540931D01*
X161507806Y-125698899D01*
X161507803Y-125698903D01*
X161504278Y-125702732D01*
X161501427Y-125707096D01*
X161415483Y-125838643D01*
X161361479Y-125884732D01*
X161291132Y-125894307D01*
X161226774Y-125864330D01*
X161204517Y-125838643D01*
X161118573Y-125707096D01*
X161115722Y-125702732D01*
X161112197Y-125698903D01*
X161112194Y-125698899D01*
X160966772Y-125540931D01*
X160963240Y-125537094D01*
X160944139Y-125522227D01*
X160789689Y-125402012D01*
X160789687Y-125402010D01*
X160785576Y-125398811D01*
X160752320Y-125380814D01*
X160701929Y-125330801D01*
X160686577Y-125261484D01*
X160711137Y-125194871D01*
X160752320Y-125159186D01*
X160780995Y-125143668D01*
X160785576Y-125141189D01*
X160825852Y-125109841D01*
X160959121Y-125006112D01*
X160963240Y-125002906D01*
X161047489Y-124911388D01*
X161112194Y-124841101D01*
X161112197Y-124841097D01*
X161115722Y-124837268D01*
X161204517Y-124701357D01*
X161258521Y-124655268D01*
X161328868Y-124645693D01*
X161393226Y-124675670D01*
G37*
G04 #@! TD.AperFunction*
G04 #@! TA.AperFunction,NonConductor*
G36*
X159023439Y-124911388D02*
G01*
X159055755Y-124936638D01*
X159076526Y-124959201D01*
X159116760Y-125002906D01*
X159120879Y-125006112D01*
X159254149Y-125109841D01*
X159294424Y-125141189D01*
X159299005Y-125143668D01*
X159327680Y-125159186D01*
X159378071Y-125209199D01*
X159393423Y-125278516D01*
X159368863Y-125345129D01*
X159327681Y-125380813D01*
X159294424Y-125398811D01*
X159290313Y-125402010D01*
X159290311Y-125402012D01*
X159135861Y-125522227D01*
X159116760Y-125537094D01*
X159113228Y-125540931D01*
X158967806Y-125698899D01*
X158967803Y-125698903D01*
X158964278Y-125702732D01*
X158961427Y-125707096D01*
X158875483Y-125838643D01*
X158821479Y-125884732D01*
X158751132Y-125894307D01*
X158686774Y-125864330D01*
X158664517Y-125838643D01*
X158578573Y-125707096D01*
X158575722Y-125702732D01*
X158572197Y-125698903D01*
X158572194Y-125698899D01*
X158432525Y-125547180D01*
X158401104Y-125483515D01*
X158409091Y-125412969D01*
X158453949Y-125357940D01*
X158481191Y-125343787D01*
X158596204Y-125300889D01*
X158608536Y-125291658D01*
X158706050Y-125218659D01*
X158713261Y-125213261D01*
X158769610Y-125137988D01*
X158795489Y-125103418D01*
X158795490Y-125103416D01*
X158800889Y-125096204D01*
X158844998Y-124977944D01*
X158887545Y-124921108D01*
X158954065Y-124896297D01*
X159023439Y-124911388D01*
G37*
G04 #@! TD.AperFunction*
G04 #@! TA.AperFunction,NonConductor*
G36*
X160963686Y-68019572D02*
G01*
X161273076Y-68030498D01*
X161277418Y-68030727D01*
X163191602Y-68164579D01*
X163196131Y-68164978D01*
X163380241Y-68184547D01*
X163503195Y-68197617D01*
X163507386Y-68198133D01*
X165408799Y-68465360D01*
X165413324Y-68466081D01*
X165715753Y-68520019D01*
X165719733Y-68520797D01*
X167599851Y-68920428D01*
X167604426Y-68921492D01*
X167896750Y-68995229D01*
X167899862Y-68996014D01*
X167903775Y-68997068D01*
X169754019Y-69527617D01*
X169758617Y-69529031D01*
X170045039Y-69623214D01*
X170048662Y-69624469D01*
X171782097Y-70255389D01*
X171860821Y-70284042D01*
X171865388Y-70285806D01*
X172140580Y-70398374D01*
X172143991Y-70399831D01*
X173909856Y-71186044D01*
X173914366Y-71188162D01*
X174089781Y-71274827D01*
X174176342Y-71317594D01*
X174179683Y-71319308D01*
X175890970Y-72229215D01*
X175895458Y-72231719D01*
X176142501Y-72376294D01*
X176145630Y-72378187D01*
X177794589Y-73408571D01*
X177798972Y-73411439D01*
X178029425Y-73569128D01*
X178032333Y-73571178D01*
X179611232Y-74718315D01*
X179615471Y-74721534D01*
X179828040Y-74890177D01*
X179830698Y-74892346D01*
X181331980Y-76152071D01*
X181336068Y-76155655D01*
X181529577Y-76332800D01*
X181532025Y-76335101D01*
X182948373Y-77702851D01*
X182952268Y-77706782D01*
X183125889Y-77889847D01*
X183128103Y-77892243D01*
X184452464Y-79363095D01*
X184456139Y-79367364D01*
X184609213Y-79553467D01*
X184611191Y-79555935D01*
X185836852Y-81124709D01*
X185840219Y-81129225D01*
X185955273Y-81291162D01*
X185972517Y-81315434D01*
X185974261Y-81317953D01*
X187094659Y-82979012D01*
X187097797Y-82983905D01*
X187209345Y-83167021D01*
X187210775Y-83169432D01*
X187673969Y-83971707D01*
X188219695Y-84916933D01*
X188222538Y-84922137D01*
X188313768Y-85098867D01*
X188315054Y-85101428D01*
X189206434Y-86929026D01*
X189208946Y-86934506D01*
X189280770Y-87101613D01*
X189281786Y-87104049D01*
X190049988Y-89005417D01*
X190052145Y-89011152D01*
X190105755Y-89164983D01*
X190106606Y-89167512D01*
X190746185Y-91135937D01*
X190747962Y-91141903D01*
X190785139Y-91279033D01*
X190785769Y-91281457D01*
X191291565Y-93310099D01*
X191292941Y-93316271D01*
X191304745Y-93376304D01*
X191315907Y-93433073D01*
X191316348Y-93435437D01*
X191683432Y-95517275D01*
X191684386Y-95523628D01*
X191695909Y-95616426D01*
X191696179Y-95618782D01*
X191919824Y-97746620D01*
X191920337Y-97753122D01*
X191923795Y-97818365D01*
X191923895Y-97820637D01*
X191998951Y-99969968D01*
X191999008Y-99972139D01*
X191999461Y-99997774D01*
X191999461Y-100002226D01*
X191999008Y-100027861D01*
X191998951Y-100030032D01*
X191923895Y-102179363D01*
X191923795Y-102181635D01*
X191920337Y-102246878D01*
X191919824Y-102253380D01*
X191696179Y-104381218D01*
X191695909Y-104383574D01*
X191684386Y-104476372D01*
X191683432Y-104482725D01*
X191316348Y-106564563D01*
X191315907Y-106566927D01*
X191304745Y-106623696D01*
X191292941Y-106683729D01*
X191291565Y-106689901D01*
X190785769Y-108718543D01*
X190785139Y-108720967D01*
X190753193Y-108838804D01*
X190747962Y-108858097D01*
X190746185Y-108864063D01*
X190106606Y-110832488D01*
X190105755Y-110835017D01*
X190052145Y-110988848D01*
X190049991Y-110994574D01*
X189281786Y-112895951D01*
X189280770Y-112898387D01*
X189246130Y-112978981D01*
X189208946Y-113065494D01*
X189206434Y-113070974D01*
X188315054Y-114898572D01*
X188313768Y-114901133D01*
X188222538Y-115077863D01*
X188219695Y-115083067D01*
X188206374Y-115106140D01*
X187210775Y-116830568D01*
X187209345Y-116832979D01*
X187097806Y-117016081D01*
X187094659Y-117020988D01*
X185974261Y-118682047D01*
X185972517Y-118684566D01*
X185840219Y-118870775D01*
X185836852Y-118875291D01*
X184819231Y-120177786D01*
X184611191Y-120444065D01*
X184609213Y-120446533D01*
X184456139Y-120632636D01*
X184452464Y-120636905D01*
X183128103Y-122107757D01*
X183125889Y-122110153D01*
X182952268Y-122293218D01*
X182948373Y-122297149D01*
X181532025Y-123664899D01*
X181529577Y-123667200D01*
X181336068Y-123844345D01*
X181331980Y-123847929D01*
X179830698Y-125107654D01*
X179828040Y-125109823D01*
X179653442Y-125248342D01*
X179615482Y-125278458D01*
X179611232Y-125281685D01*
X178032333Y-126428822D01*
X178029425Y-126430872D01*
X177798972Y-126588561D01*
X177794589Y-126591429D01*
X176145630Y-127621813D01*
X176142501Y-127623706D01*
X175895458Y-127768281D01*
X175890970Y-127770785D01*
X174179683Y-128680692D01*
X174176342Y-128682406D01*
X174089781Y-128725173D01*
X173914366Y-128811838D01*
X173909856Y-128813956D01*
X172143991Y-129600169D01*
X172140580Y-129601626D01*
X171865388Y-129714194D01*
X171860821Y-129715958D01*
X170048662Y-130375531D01*
X170045039Y-130376786D01*
X169758617Y-130470969D01*
X169754019Y-130472383D01*
X167997160Y-130976154D01*
X167903774Y-131002932D01*
X167899862Y-131003986D01*
X167604426Y-131078508D01*
X167599851Y-131079572D01*
X165719733Y-131479203D01*
X165715753Y-131479981D01*
X165413324Y-131533919D01*
X165408799Y-131534640D01*
X163507386Y-131801867D01*
X163503195Y-131802383D01*
X163380241Y-131815453D01*
X163196131Y-131835022D01*
X163191602Y-131835421D01*
X161277418Y-131969273D01*
X161273076Y-131969502D01*
X160963686Y-131980428D01*
X160959239Y-131980506D01*
X159040761Y-131980506D01*
X159036314Y-131980428D01*
X158726924Y-131969502D01*
X158722582Y-131969273D01*
X156808398Y-131835421D01*
X156803869Y-131835022D01*
X156619759Y-131815453D01*
X156496805Y-131802383D01*
X156492614Y-131801867D01*
X154591201Y-131534640D01*
X154586676Y-131533919D01*
X154284247Y-131479981D01*
X154280267Y-131479203D01*
X152400149Y-131079572D01*
X152395574Y-131078508D01*
X152100138Y-131003986D01*
X152096226Y-131002932D01*
X152002841Y-130976154D01*
X150245981Y-130472383D01*
X150241383Y-130470969D01*
X149954961Y-130376786D01*
X149951338Y-130375531D01*
X148139179Y-129715958D01*
X148134612Y-129714194D01*
X147859420Y-129601626D01*
X147856009Y-129600169D01*
X146090144Y-128813956D01*
X146085634Y-128811838D01*
X145910219Y-128725173D01*
X145823658Y-128682406D01*
X145820317Y-128680692D01*
X144109030Y-127770785D01*
X144104542Y-127768281D01*
X143857499Y-127623706D01*
X143854370Y-127621813D01*
X142205411Y-126591429D01*
X142201028Y-126588561D01*
X141970575Y-126430872D01*
X141967667Y-126428822D01*
X140388768Y-125281685D01*
X140384518Y-125278458D01*
X140346558Y-125248342D01*
X140171960Y-125109823D01*
X140169302Y-125107654D01*
X138668020Y-123847929D01*
X138663932Y-123844345D01*
X138470423Y-123667200D01*
X138467975Y-123664899D01*
X137051627Y-122297149D01*
X137047732Y-122293218D01*
X136874111Y-122110153D01*
X136871897Y-122107757D01*
X135547536Y-120636905D01*
X135543861Y-120632636D01*
X135390787Y-120446533D01*
X135388809Y-120444065D01*
X135180769Y-120177786D01*
X134163148Y-118875291D01*
X134159781Y-118870775D01*
X134027483Y-118684566D01*
X134025739Y-118682047D01*
X132905341Y-117020988D01*
X132902194Y-117016081D01*
X132790655Y-116832979D01*
X132789225Y-116830568D01*
X131793626Y-115106140D01*
X131780305Y-115083067D01*
X131777462Y-115077863D01*
X131686232Y-114901133D01*
X131685389Y-114899455D01*
X156116500Y-114899455D01*
X156116501Y-115800544D01*
X156127113Y-115904426D01*
X156182885Y-116072738D01*
X156275970Y-116223652D01*
X156401348Y-116349030D01*
X156552262Y-116442115D01*
X156615807Y-116463171D01*
X156714048Y-116495725D01*
X156714052Y-116495726D01*
X156720574Y-116497887D01*
X156727408Y-116498585D01*
X156727412Y-116498586D01*
X156761892Y-116502108D01*
X156778307Y-116503785D01*
X156844041Y-116530607D01*
X156884840Y-116588710D01*
X156891500Y-116629133D01*
X156891500Y-122515500D01*
X156871498Y-122583621D01*
X156817842Y-122630114D01*
X156765500Y-122641500D01*
X156601362Y-122641500D01*
X156598015Y-122641860D01*
X156598012Y-122641860D01*
X156577705Y-122644043D01*
X156540799Y-122648011D01*
X156403796Y-122699111D01*
X156286739Y-122786739D01*
X156199111Y-122903796D01*
X156148011Y-123040799D01*
X156141500Y-123101362D01*
X156141500Y-124898638D01*
X156148011Y-124959201D01*
X156199111Y-125096204D01*
X156204510Y-125103416D01*
X156204511Y-125103418D01*
X156230390Y-125137988D01*
X156286739Y-125213261D01*
X156293950Y-125218659D01*
X156391465Y-125291658D01*
X156403796Y-125300889D01*
X156518808Y-125343787D01*
X156575642Y-125386333D01*
X156600453Y-125452853D01*
X156585361Y-125522227D01*
X156567475Y-125547180D01*
X156427806Y-125698899D01*
X156427803Y-125698903D01*
X156424278Y-125702732D01*
X156421427Y-125707096D01*
X156305372Y-125884732D01*
X156301140Y-125891209D01*
X156210704Y-126097384D01*
X156155436Y-126315632D01*
X156155006Y-126320823D01*
X156155005Y-126320828D01*
X156145887Y-126430872D01*
X156136844Y-126540000D01*
X156137274Y-126545189D01*
X156152480Y-126728690D01*
X156155436Y-126764368D01*
X156210704Y-126982616D01*
X156301140Y-127188791D01*
X156303990Y-127193153D01*
X156303992Y-127193157D01*
X156318701Y-127215670D01*
X156424278Y-127377268D01*
X156427803Y-127381097D01*
X156427806Y-127381101D01*
X156529360Y-127491417D01*
X156576760Y-127542906D01*
X156580879Y-127546112D01*
X156680571Y-127623706D01*
X156754424Y-127681189D01*
X156759005Y-127683668D01*
X156759010Y-127683671D01*
X156825470Y-127719638D01*
X156875860Y-127769651D01*
X156891500Y-127830451D01*
X156891500Y-128451864D01*
X156890422Y-128468307D01*
X156886250Y-128500000D01*
X156891500Y-128539880D01*
X156891500Y-128539885D01*
X156904609Y-128639457D01*
X156907162Y-128658851D01*
X156968476Y-128806876D01*
X156973503Y-128813427D01*
X156973504Y-128813429D01*
X157041520Y-128902069D01*
X157041526Y-128902075D01*
X157066013Y-128933987D01*
X157072568Y-128939017D01*
X157091379Y-128953452D01*
X157103770Y-128964319D01*
X159135685Y-130996234D01*
X159146552Y-131008625D01*
X159166013Y-131033987D01*
X159172563Y-131039013D01*
X159197925Y-131058474D01*
X159197928Y-131058477D01*
X159267318Y-131111722D01*
X159286570Y-131126495D01*
X159286572Y-131126496D01*
X159293125Y-131131524D01*
X159441150Y-131192838D01*
X159560115Y-131208500D01*
X159560120Y-131208500D01*
X159560129Y-131208501D01*
X159591812Y-131212672D01*
X159600000Y-131213750D01*
X159631693Y-131209578D01*
X159648136Y-131208500D01*
X164251864Y-131208500D01*
X164268307Y-131209578D01*
X164300000Y-131213750D01*
X164308189Y-131212672D01*
X164339874Y-131208501D01*
X164339884Y-131208500D01*
X164339885Y-131208500D01*
X164339901Y-131208498D01*
X164439457Y-131195391D01*
X164450664Y-131193916D01*
X164450666Y-131193915D01*
X164458851Y-131192838D01*
X164606876Y-131131524D01*
X164632683Y-131111722D01*
X164702072Y-131058477D01*
X164702075Y-131058474D01*
X164727434Y-131039015D01*
X164733987Y-131033987D01*
X164739017Y-131027432D01*
X164753452Y-131008621D01*
X164764319Y-130996230D01*
X180592169Y-115168380D01*
X180604560Y-115157513D01*
X180623372Y-115143078D01*
X180629922Y-115138052D01*
X180654409Y-115106140D01*
X180654413Y-115106136D01*
X180727459Y-115010941D01*
X180788773Y-114862916D01*
X180794623Y-114818476D01*
X180804435Y-114743950D01*
X180804435Y-114743945D01*
X180809685Y-114704065D01*
X180805513Y-114672372D01*
X180804435Y-114655929D01*
X180804435Y-86496072D01*
X180824437Y-86427951D01*
X180851141Y-86398152D01*
X181816939Y-85616065D01*
X181816940Y-85616064D01*
X181819563Y-85613940D01*
X181862532Y-85570766D01*
X181866535Y-85563983D01*
X181866537Y-85563980D01*
X181932265Y-85452596D01*
X181936845Y-85444835D01*
X181972669Y-85303069D01*
X181967102Y-85156953D01*
X181945455Y-85092425D01*
X181942754Y-85021481D01*
X181978836Y-84960338D01*
X182042248Y-84928408D01*
X182064913Y-84926353D01*
X182286598Y-84926353D01*
X182291732Y-84925496D01*
X182291735Y-84925496D01*
X182511698Y-84888791D01*
X182511703Y-84888790D01*
X182516837Y-84887933D01*
X182737613Y-84812140D01*
X182782555Y-84787819D01*
X182938322Y-84703522D01*
X182942903Y-84701043D01*
X182947016Y-84697842D01*
X183122988Y-84560877D01*
X183122994Y-84560872D01*
X183127106Y-84557671D01*
X183174911Y-84505742D01*
X183281672Y-84389769D01*
X183281675Y-84389765D01*
X183285200Y-84385936D01*
X183412870Y-84190522D01*
X183506635Y-83976760D01*
X183541903Y-83837492D01*
X183562656Y-83755538D01*
X183562656Y-83755537D01*
X183563937Y-83750479D01*
X183583213Y-83517853D01*
X183577568Y-83449730D01*
X183564368Y-83290423D01*
X183564367Y-83290418D01*
X183563937Y-83285227D01*
X183506635Y-83058946D01*
X183412870Y-82845184D01*
X183285200Y-82649770D01*
X183281675Y-82645941D01*
X183281672Y-82645937D01*
X183130638Y-82481872D01*
X183127106Y-82478035D01*
X183122994Y-82474834D01*
X183122988Y-82474829D01*
X182947016Y-82337864D01*
X182947014Y-82337862D01*
X182942903Y-82334663D01*
X182737613Y-82223566D01*
X182516837Y-82147773D01*
X182511703Y-82146916D01*
X182511698Y-82146915D01*
X182291735Y-82110210D01*
X182291732Y-82110210D01*
X182286598Y-82109353D01*
X182053174Y-82109353D01*
X182048040Y-82110210D01*
X182048037Y-82110210D01*
X181828074Y-82146915D01*
X181828069Y-82146916D01*
X181822935Y-82147773D01*
X181818002Y-82149466D01*
X181818000Y-82149467D01*
X181776294Y-82163784D01*
X181705369Y-82166984D01*
X181646288Y-82133706D01*
X181216348Y-81703766D01*
X181205481Y-81691375D01*
X181191046Y-81672563D01*
X181186020Y-81666013D01*
X181154108Y-81641526D01*
X181154105Y-81641523D01*
X181154097Y-81641517D01*
X181065462Y-81573504D01*
X181065460Y-81573503D01*
X181058909Y-81568476D01*
X180910884Y-81507162D01*
X180902697Y-81506084D01*
X180902696Y-81506084D01*
X180891491Y-81504609D01*
X180860295Y-81500502D01*
X180791918Y-81491500D01*
X180791915Y-81491500D01*
X180791907Y-81491499D01*
X180760222Y-81487328D01*
X180752033Y-81486250D01*
X180720340Y-81490422D01*
X180703897Y-81491500D01*
X176148136Y-81491500D01*
X176131690Y-81490422D01*
X176108188Y-81487328D01*
X176100000Y-81486250D01*
X176091812Y-81487328D01*
X176060129Y-81491499D01*
X176060120Y-81491500D01*
X176060115Y-81491500D01*
X175941150Y-81507162D01*
X175793125Y-81568476D01*
X175793123Y-81568477D01*
X175793124Y-81568477D01*
X175697928Y-81641523D01*
X175697925Y-81641526D01*
X175666013Y-81666013D01*
X175660983Y-81672568D01*
X175646548Y-81691379D01*
X175635681Y-81703770D01*
X157103766Y-100235685D01*
X157091375Y-100246552D01*
X157066013Y-100266013D01*
X157041526Y-100297925D01*
X157041523Y-100297928D01*
X156968476Y-100393124D01*
X156968476Y-100393125D01*
X156907162Y-100541150D01*
X156891500Y-100660115D01*
X156891500Y-100660120D01*
X156886250Y-100700000D01*
X156887328Y-100708188D01*
X156890422Y-100731690D01*
X156891500Y-100748136D01*
X156891500Y-110970868D01*
X156871498Y-111038989D01*
X156817842Y-111085482D01*
X156778306Y-111096215D01*
X156755790Y-111098516D01*
X156727412Y-111101414D01*
X156727408Y-111101415D01*
X156720574Y-111102113D01*
X156552262Y-111157885D01*
X156401348Y-111250970D01*
X156275970Y-111376348D01*
X156182885Y-111527262D01*
X156127113Y-111695574D01*
X156116500Y-111799455D01*
X156116501Y-112700544D01*
X156127113Y-112804426D01*
X156182885Y-112972738D01*
X156275970Y-113123652D01*
X156401348Y-113249030D01*
X156552262Y-113342115D01*
X156615807Y-113363171D01*
X156714048Y-113395725D01*
X156714052Y-113395726D01*
X156720574Y-113397887D01*
X156727408Y-113398585D01*
X156727412Y-113398586D01*
X156821271Y-113408175D01*
X156821277Y-113408175D01*
X156824455Y-113408500D01*
X157499894Y-113408500D01*
X158175544Y-113408499D01*
X158178721Y-113408174D01*
X158178730Y-113408174D01*
X158227467Y-113403195D01*
X158279426Y-113397887D01*
X158447738Y-113342115D01*
X158598652Y-113249030D01*
X158724030Y-113123652D01*
X158817115Y-112972738D01*
X158872887Y-112804426D01*
X158883500Y-112700545D01*
X158883499Y-111799456D01*
X158872887Y-111695574D01*
X158817115Y-111527262D01*
X158724030Y-111376348D01*
X158598652Y-111250970D01*
X158447738Y-111157885D01*
X158384193Y-111136829D01*
X158285952Y-111104275D01*
X158285948Y-111104274D01*
X158279426Y-111102113D01*
X158272592Y-111101415D01*
X158272588Y-111101414D01*
X158238108Y-111097892D01*
X158221693Y-111096215D01*
X158155959Y-111069393D01*
X158115160Y-111011290D01*
X158108500Y-110970867D01*
X158108500Y-101004239D01*
X158128502Y-100936118D01*
X158145405Y-100915144D01*
X176315144Y-82745405D01*
X176377456Y-82711379D01*
X176404239Y-82708500D01*
X180447793Y-82708500D01*
X180515914Y-82728502D01*
X180536889Y-82745404D01*
X180786007Y-82994522D01*
X180820032Y-83056835D01*
X180819057Y-83114547D01*
X180775835Y-83285227D01*
X180774170Y-83305319D01*
X180773580Y-83312438D01*
X180748020Y-83378674D01*
X180690707Y-83420577D01*
X180619839Y-83424842D01*
X180583974Y-83410547D01*
X180559225Y-83395942D01*
X180524443Y-83375417D01*
X180382677Y-83339593D01*
X180373673Y-83339936D01*
X180373672Y-83339936D01*
X180292247Y-83343038D01*
X180236561Y-83345160D01*
X180097931Y-83391666D01*
X180046767Y-83424720D01*
X180044136Y-83426851D01*
X180044134Y-83426852D01*
X178652427Y-84553834D01*
X178572307Y-84618714D01*
X178529338Y-84661888D01*
X178525335Y-84668671D01*
X178525333Y-84668674D01*
X178508121Y-84697842D01*
X178455025Y-84787819D01*
X178419201Y-84929585D01*
X178424768Y-85075701D01*
X178471274Y-85214331D01*
X178504328Y-85265495D01*
X178506459Y-85268126D01*
X178506460Y-85268128D01*
X179559355Y-86568345D01*
X179586681Y-86633872D01*
X179587435Y-86647639D01*
X179587435Y-114399826D01*
X179567433Y-114467947D01*
X179550530Y-114488921D01*
X164084856Y-129954595D01*
X164022544Y-129988621D01*
X163995761Y-129991500D01*
X159904239Y-129991500D01*
X159836118Y-129971498D01*
X159815144Y-129954595D01*
X158145405Y-128284856D01*
X158111379Y-128222544D01*
X158108500Y-128195761D01*
X158108500Y-127830451D01*
X158128502Y-127762330D01*
X158174530Y-127719638D01*
X158240990Y-127683671D01*
X158240995Y-127683668D01*
X158245576Y-127681189D01*
X158319430Y-127623706D01*
X158419121Y-127546112D01*
X158423240Y-127542906D01*
X158470640Y-127491417D01*
X158572194Y-127381101D01*
X158572197Y-127381097D01*
X158575722Y-127377268D01*
X158664517Y-127241357D01*
X158718521Y-127195268D01*
X158788868Y-127185693D01*
X158853226Y-127215670D01*
X158875483Y-127241357D01*
X158964278Y-127377268D01*
X158967803Y-127381097D01*
X158967806Y-127381101D01*
X159069360Y-127491417D01*
X159116760Y-127542906D01*
X159120879Y-127546112D01*
X159220571Y-127623706D01*
X159294424Y-127681189D01*
X159352085Y-127712393D01*
X159431501Y-127755371D01*
X159492426Y-127788342D01*
X159705365Y-127861444D01*
X159710499Y-127862301D01*
X159710504Y-127862302D01*
X159922294Y-127897643D01*
X159922296Y-127897643D01*
X159927431Y-127898500D01*
X160152569Y-127898500D01*
X160157704Y-127897643D01*
X160157706Y-127897643D01*
X160369496Y-127862302D01*
X160369501Y-127862301D01*
X160374635Y-127861444D01*
X160587574Y-127788342D01*
X160648500Y-127755371D01*
X160727915Y-127712393D01*
X160785576Y-127681189D01*
X160859430Y-127623706D01*
X160959121Y-127546112D01*
X160963240Y-127542906D01*
X161010640Y-127491417D01*
X161112194Y-127381101D01*
X161112197Y-127381097D01*
X161115722Y-127377268D01*
X161204517Y-127241357D01*
X161258521Y-127195268D01*
X161328868Y-127185693D01*
X161393226Y-127215670D01*
X161415483Y-127241357D01*
X161504278Y-127377268D01*
X161507803Y-127381097D01*
X161507806Y-127381101D01*
X161609360Y-127491417D01*
X161656760Y-127542906D01*
X161660879Y-127546112D01*
X161760571Y-127623706D01*
X161834424Y-127681189D01*
X161892085Y-127712393D01*
X161971501Y-127755371D01*
X162032426Y-127788342D01*
X162245365Y-127861444D01*
X162250499Y-127862301D01*
X162250504Y-127862302D01*
X162462294Y-127897643D01*
X162462296Y-127897643D01*
X162467431Y-127898500D01*
X162692569Y-127898500D01*
X162697704Y-127897643D01*
X162697706Y-127897643D01*
X162909496Y-127862302D01*
X162909501Y-127862301D01*
X162914635Y-127861444D01*
X163127574Y-127788342D01*
X163188500Y-127755371D01*
X163267915Y-127712393D01*
X163325576Y-127681189D01*
X163399430Y-127623706D01*
X163499121Y-127546112D01*
X163503240Y-127542906D01*
X163550640Y-127491417D01*
X163652194Y-127381101D01*
X163652197Y-127381097D01*
X163655722Y-127377268D01*
X163761299Y-127215670D01*
X163776008Y-127193157D01*
X163776010Y-127193153D01*
X163778860Y-127188791D01*
X163869296Y-126982616D01*
X163924564Y-126764368D01*
X163927521Y-126728690D01*
X163942726Y-126545189D01*
X163943156Y-126540000D01*
X163934113Y-126430872D01*
X163924995Y-126320828D01*
X163924994Y-126320823D01*
X163924564Y-126315632D01*
X163869296Y-126097384D01*
X163778860Y-125891209D01*
X163774629Y-125884732D01*
X163658573Y-125707096D01*
X163655722Y-125702732D01*
X163652197Y-125698903D01*
X163652194Y-125698899D01*
X163506772Y-125540931D01*
X163503240Y-125537094D01*
X163484139Y-125522227D01*
X163329689Y-125402012D01*
X163329687Y-125402010D01*
X163325576Y-125398811D01*
X163292320Y-125380814D01*
X163241929Y-125330801D01*
X163226577Y-125261484D01*
X163251137Y-125194871D01*
X163292320Y-125159186D01*
X163320995Y-125143668D01*
X163325576Y-125141189D01*
X163365852Y-125109841D01*
X163499121Y-125006112D01*
X163503240Y-125002906D01*
X163587489Y-124911388D01*
X163652194Y-124841101D01*
X163652197Y-124841097D01*
X163655722Y-124837268D01*
X163733538Y-124718162D01*
X163776008Y-124653157D01*
X163776010Y-124653153D01*
X163778860Y-124648791D01*
X163869296Y-124442616D01*
X163924564Y-124224368D01*
X163943156Y-124000000D01*
X163924564Y-123775632D01*
X163869296Y-123557384D01*
X163778860Y-123351209D01*
X163774629Y-123344732D01*
X163658573Y-123167096D01*
X163655722Y-123162732D01*
X163652197Y-123158903D01*
X163652194Y-123158899D01*
X163506772Y-123000931D01*
X163503240Y-122997094D01*
X163325576Y-122858811D01*
X163127574Y-122751658D01*
X162914635Y-122678556D01*
X162909501Y-122677699D01*
X162909496Y-122677698D01*
X162697706Y-122642357D01*
X162697704Y-122642357D01*
X162692569Y-122641500D01*
X162467431Y-122641500D01*
X162462296Y-122642357D01*
X162462294Y-122642357D01*
X162250504Y-122677698D01*
X162250499Y-122677699D01*
X162245365Y-122678556D01*
X162032426Y-122751658D01*
X161834424Y-122858811D01*
X161656760Y-122997094D01*
X161653228Y-123000931D01*
X161507806Y-123158899D01*
X161507803Y-123158903D01*
X161504278Y-123162732D01*
X161501427Y-123167096D01*
X161415483Y-123298643D01*
X161361479Y-123344732D01*
X161291132Y-123354307D01*
X161226774Y-123324330D01*
X161204517Y-123298643D01*
X161118573Y-123167096D01*
X161115722Y-123162732D01*
X161112197Y-123158903D01*
X161112194Y-123158899D01*
X160966772Y-123000931D01*
X160963240Y-122997094D01*
X160785576Y-122858811D01*
X160587574Y-122751658D01*
X160374635Y-122678556D01*
X160369501Y-122677699D01*
X160369496Y-122677698D01*
X160157706Y-122642357D01*
X160157704Y-122642357D01*
X160152569Y-122641500D01*
X159927431Y-122641500D01*
X159922296Y-122642357D01*
X159922294Y-122642357D01*
X159710504Y-122677698D01*
X159710499Y-122677699D01*
X159705365Y-122678556D01*
X159492426Y-122751658D01*
X159294424Y-122858811D01*
X159116760Y-122997094D01*
X159113228Y-123000931D01*
X159055755Y-123063362D01*
X158994901Y-123099933D01*
X158923937Y-123097798D01*
X158865392Y-123057636D01*
X158844998Y-123022056D01*
X158804038Y-122912239D01*
X158804037Y-122912237D01*
X158800889Y-122903796D01*
X158713261Y-122786739D01*
X158596204Y-122699111D01*
X158459201Y-122648011D01*
X158422295Y-122644043D01*
X158401988Y-122641860D01*
X158401985Y-122641860D01*
X158398638Y-122641500D01*
X158234500Y-122641500D01*
X158166379Y-122621498D01*
X158119886Y-122567842D01*
X158108500Y-122515500D01*
X158108500Y-116629132D01*
X158128502Y-116561011D01*
X158182158Y-116514518D01*
X158221694Y-116503785D01*
X158244210Y-116501484D01*
X158272588Y-116498586D01*
X158272592Y-116498585D01*
X158279426Y-116497887D01*
X158447738Y-116442115D01*
X158598652Y-116349030D01*
X158724030Y-116223652D01*
X158817115Y-116072738D01*
X158872887Y-115904426D01*
X158883500Y-115800545D01*
X158883499Y-114899456D01*
X158872887Y-114795574D01*
X158817115Y-114627262D01*
X158724030Y-114476348D01*
X158598652Y-114350970D01*
X158447738Y-114257885D01*
X158384193Y-114236829D01*
X158285952Y-114204275D01*
X158285948Y-114204274D01*
X158279426Y-114202113D01*
X158272592Y-114201415D01*
X158272588Y-114201414D01*
X158178729Y-114191825D01*
X158178723Y-114191825D01*
X158175545Y-114191500D01*
X157500106Y-114191500D01*
X156824456Y-114191501D01*
X156821279Y-114191826D01*
X156821270Y-114191826D01*
X156772533Y-114196805D01*
X156720574Y-114202113D01*
X156552262Y-114257885D01*
X156401348Y-114350970D01*
X156275970Y-114476348D01*
X156182885Y-114627262D01*
X156127113Y-114795574D01*
X156126415Y-114802408D01*
X156126414Y-114802412D01*
X156116825Y-114896270D01*
X156116500Y-114899455D01*
X131685389Y-114899455D01*
X131684946Y-114898572D01*
X130793566Y-113070974D01*
X130791054Y-113065494D01*
X130753870Y-112978981D01*
X130719230Y-112898387D01*
X130718214Y-112895951D01*
X129950009Y-110994574D01*
X129947855Y-110988848D01*
X129894245Y-110835017D01*
X129893394Y-110832488D01*
X129253815Y-108864063D01*
X129252038Y-108858097D01*
X129246807Y-108838804D01*
X129214861Y-108720967D01*
X129214231Y-108718543D01*
X128708435Y-106689901D01*
X128707059Y-106683729D01*
X128695255Y-106623696D01*
X128684093Y-106566927D01*
X128683652Y-106564563D01*
X128316568Y-104482725D01*
X128315614Y-104476372D01*
X128304091Y-104383574D01*
X128303821Y-104381218D01*
X128080176Y-102253380D01*
X128079663Y-102246878D01*
X128076205Y-102181635D01*
X128076105Y-102179363D01*
X128001049Y-100030032D01*
X128000992Y-100027861D01*
X128000539Y-100002226D01*
X128000539Y-99997774D01*
X128000992Y-99972139D01*
X128001049Y-99969968D01*
X128076105Y-97820637D01*
X128076205Y-97818365D01*
X128079663Y-97753122D01*
X128080176Y-97746620D01*
X128303821Y-95618782D01*
X128304091Y-95616426D01*
X128315614Y-95523628D01*
X128316568Y-95517275D01*
X128683652Y-93435437D01*
X128684093Y-93433073D01*
X128695255Y-93376304D01*
X128707059Y-93316271D01*
X128708435Y-93310099D01*
X129214231Y-91281457D01*
X129214861Y-91279033D01*
X129252038Y-91141903D01*
X129253815Y-91135937D01*
X129893394Y-89167512D01*
X129894245Y-89164983D01*
X129947855Y-89011152D01*
X129950012Y-89005417D01*
X130718214Y-87104049D01*
X130719230Y-87101613D01*
X130791054Y-86934506D01*
X130793566Y-86929026D01*
X131684946Y-85101428D01*
X131686232Y-85098867D01*
X131777462Y-84922137D01*
X131780305Y-84916933D01*
X132326031Y-83971707D01*
X132789225Y-83169432D01*
X132790655Y-83167021D01*
X132902203Y-82983905D01*
X132905341Y-82979012D01*
X133700594Y-81800000D01*
X162599458Y-81800000D01*
X162599617Y-81800383D01*
X162600000Y-81800542D01*
X162600383Y-81800383D01*
X162600542Y-81800000D01*
X162600383Y-81799617D01*
X162600000Y-81799458D01*
X162599617Y-81799617D01*
X162599458Y-81800000D01*
X133700594Y-81800000D01*
X134025739Y-81317953D01*
X134027483Y-81315434D01*
X134044727Y-81291162D01*
X134159781Y-81129225D01*
X134163148Y-81124709D01*
X135388809Y-79555935D01*
X135390787Y-79553467D01*
X135543861Y-79367364D01*
X135547536Y-79363095D01*
X136871897Y-77892243D01*
X136874111Y-77889847D01*
X137047732Y-77706782D01*
X137051627Y-77702851D01*
X138467975Y-76335101D01*
X138470423Y-76332800D01*
X138663932Y-76155655D01*
X138668020Y-76152071D01*
X140169302Y-74892346D01*
X140171960Y-74890177D01*
X140384529Y-74721534D01*
X140388768Y-74718315D01*
X141967667Y-73571178D01*
X141970575Y-73569128D01*
X142201028Y-73411439D01*
X142205411Y-73408571D01*
X143854370Y-72378187D01*
X143857499Y-72376294D01*
X144104542Y-72231719D01*
X144109030Y-72229215D01*
X145820317Y-71319308D01*
X145823658Y-71317594D01*
X145910219Y-71274827D01*
X146085634Y-71188162D01*
X146090144Y-71186044D01*
X147856009Y-70399831D01*
X147859420Y-70398374D01*
X148134612Y-70285806D01*
X148139179Y-70284042D01*
X148217903Y-70255389D01*
X149951338Y-69624469D01*
X149954961Y-69623214D01*
X150241383Y-69529031D01*
X150245981Y-69527617D01*
X152096225Y-68997068D01*
X152100138Y-68996014D01*
X152103250Y-68995229D01*
X152395574Y-68921492D01*
X152400149Y-68920428D01*
X154280267Y-68520797D01*
X154284247Y-68520019D01*
X154586676Y-68466081D01*
X154591201Y-68465360D01*
X156492614Y-68198133D01*
X156496805Y-68197617D01*
X156619759Y-68184547D01*
X156803869Y-68164978D01*
X156808398Y-68164579D01*
X158722582Y-68030727D01*
X158726924Y-68030498D01*
X159036314Y-68019572D01*
X159040761Y-68019494D01*
X160959239Y-68019494D01*
X160963686Y-68019572D01*
G37*
G04 #@! TD.AperFunction*
M02*
