G04 #@! TF.GenerationSoftware,KiCad,Pcbnew,(6.99.0-2452-gdb4f2d9dd8)*
G04 #@! TF.CreationDate,2022-08-02T13:39:31-05:00*
G04 #@! TF.ProjectId,RB,52422e6b-6963-4616-945f-706362585858,rev?*
G04 #@! TF.SameCoordinates,Original*
G04 #@! TF.FileFunction,Copper,L1,Top*
G04 #@! TF.FilePolarity,Positive*
%FSLAX46Y46*%
G04 Gerber Fmt 4.6, Leading zero omitted, Abs format (unit mm)*
G04 Created by KiCad (PCBNEW (6.99.0-2452-gdb4f2d9dd8)) date 2022-08-02 13:39:31*
%MOMM*%
%LPD*%
G01*
G04 APERTURE LIST*
G04 #@! TA.AperFunction,ComponentPad*
%ADD10R,1.800000X1.800000*%
G04 #@! TD*
G04 #@! TA.AperFunction,ComponentPad*
%ADD11C,1.800000*%
G04 #@! TD*
G04 #@! TA.AperFunction,ComponentPad*
%ADD12R,1.700000X1.700000*%
G04 #@! TD*
G04 #@! TA.AperFunction,ComponentPad*
%ADD13O,1.700000X1.700000*%
G04 #@! TD*
G04 APERTURE END LIST*
D10*
X207199999Y-110239999D03*
D11*
X207200000Y-107700000D03*
D12*
X196859999Y-106129999D03*
D13*
X196859999Y-108669999D03*
X199399999Y-106129999D03*
X199399999Y-108669999D03*
X201939999Y-106129999D03*
X201939999Y-108669999D03*
G04 #@! TA.AperFunction,NonConductor*
G36*
X198383439Y-107041388D02*
G01*
X198415755Y-107066638D01*
X198436526Y-107089201D01*
X198476760Y-107132906D01*
X198654424Y-107271189D01*
X198659005Y-107273668D01*
X198687680Y-107289186D01*
X198738071Y-107339199D01*
X198753423Y-107408516D01*
X198728863Y-107475129D01*
X198687681Y-107510813D01*
X198654424Y-107528811D01*
X198650313Y-107532010D01*
X198650311Y-107532012D01*
X198495861Y-107652227D01*
X198476760Y-107667094D01*
X198446468Y-107700000D01*
X198327806Y-107828899D01*
X198327803Y-107828903D01*
X198324278Y-107832732D01*
X198321427Y-107837096D01*
X198235483Y-107968643D01*
X198181479Y-108014732D01*
X198111132Y-108024307D01*
X198046774Y-107994330D01*
X198024517Y-107968643D01*
X197938573Y-107837096D01*
X197935722Y-107832732D01*
X197932197Y-107828903D01*
X197932194Y-107828899D01*
X197792525Y-107677180D01*
X197761104Y-107613515D01*
X197769091Y-107542969D01*
X197813949Y-107487940D01*
X197841191Y-107473787D01*
X197956204Y-107430889D01*
X197968536Y-107421658D01*
X198066050Y-107348659D01*
X198073261Y-107343261D01*
X198145961Y-107246146D01*
X198155489Y-107233418D01*
X198155490Y-107233416D01*
X198160889Y-107226204D01*
X198204998Y-107107944D01*
X198247545Y-107051108D01*
X198314065Y-107026297D01*
X198383439Y-107041388D01*
G37*
G04 #@! TD.AperFunction*
G04 #@! TA.AperFunction,NonConductor*
G36*
X200753226Y-106805670D02*
G01*
X200775483Y-106831357D01*
X200864278Y-106967268D01*
X200867803Y-106971097D01*
X200867806Y-106971101D01*
X200923967Y-107032107D01*
X201016760Y-107132906D01*
X201194424Y-107271189D01*
X201199005Y-107273668D01*
X201227680Y-107289186D01*
X201278071Y-107339199D01*
X201293423Y-107408516D01*
X201268863Y-107475129D01*
X201227681Y-107510813D01*
X201194424Y-107528811D01*
X201190313Y-107532010D01*
X201190311Y-107532012D01*
X201035861Y-107652227D01*
X201016760Y-107667094D01*
X200986468Y-107700000D01*
X200867806Y-107828899D01*
X200867803Y-107828903D01*
X200864278Y-107832732D01*
X200861427Y-107837096D01*
X200775483Y-107968643D01*
X200721479Y-108014732D01*
X200651132Y-108024307D01*
X200586774Y-107994330D01*
X200564517Y-107968643D01*
X200478573Y-107837096D01*
X200475722Y-107832732D01*
X200472197Y-107828903D01*
X200472194Y-107828899D01*
X200353532Y-107700000D01*
X200323240Y-107667094D01*
X200304139Y-107652227D01*
X200149689Y-107532012D01*
X200149687Y-107532010D01*
X200145576Y-107528811D01*
X200112320Y-107510814D01*
X200061929Y-107460801D01*
X200046577Y-107391484D01*
X200071137Y-107324871D01*
X200112320Y-107289186D01*
X200140995Y-107273668D01*
X200145576Y-107271189D01*
X200323240Y-107132906D01*
X200416033Y-107032107D01*
X200472194Y-106971101D01*
X200472197Y-106971097D01*
X200475722Y-106967268D01*
X200564517Y-106831357D01*
X200618521Y-106785268D01*
X200688868Y-106775693D01*
X200753226Y-106805670D01*
G37*
G04 #@! TD.AperFunction*
G04 #@! TA.AperFunction,NonConductor*
G36*
X207636119Y-56408672D02*
G01*
X207960523Y-56415378D01*
X207965717Y-56415593D01*
X208922025Y-56474964D01*
X208927177Y-56475390D01*
X209644171Y-56549752D01*
X209880209Y-56574232D01*
X209885377Y-56574876D01*
X210294646Y-56634505D01*
X210833522Y-56713016D01*
X210838644Y-56713872D01*
X211780227Y-56891069D01*
X211785303Y-56892133D01*
X212718801Y-57108100D01*
X212723837Y-57109375D01*
X213647608Y-57363733D01*
X213652561Y-57365207D01*
X214108803Y-57511367D01*
X214565025Y-57657520D01*
X214569951Y-57659211D01*
X215469546Y-57988979D01*
X215474398Y-57990872D01*
X215903635Y-58168667D01*
X216359607Y-58357537D01*
X216364336Y-58359611D01*
X217233681Y-58762567D01*
X217238325Y-58764838D01*
X218090189Y-59203329D01*
X218094770Y-59205807D01*
X218927813Y-59679142D01*
X218932281Y-59681804D01*
X219745072Y-60189172D01*
X219749429Y-60192019D01*
X220540556Y-60732542D01*
X220544766Y-60735548D01*
X221073462Y-61129777D01*
X221312866Y-61308291D01*
X221316976Y-61311490D01*
X222060780Y-61915509D01*
X222064705Y-61918833D01*
X222782925Y-62553086D01*
X222786729Y-62556588D01*
X223478090Y-63219947D01*
X223481773Y-63223630D01*
X224145134Y-63914993D01*
X224148661Y-63918825D01*
X224782856Y-64636979D01*
X224786222Y-64640953D01*
X225390221Y-65384732D01*
X225393420Y-65388842D01*
X225966151Y-66156924D01*
X225969177Y-66161162D01*
X226509687Y-66952271D01*
X226512536Y-66956631D01*
X227019901Y-67769416D01*
X227022564Y-67773884D01*
X227495913Y-68606950D01*
X227498391Y-68611531D01*
X227936874Y-69463377D01*
X227939153Y-69468038D01*
X228342109Y-70337384D01*
X228344183Y-70342113D01*
X228533053Y-70798085D01*
X228710848Y-71227322D01*
X228712741Y-71232174D01*
X229042509Y-72131769D01*
X229044200Y-72136695D01*
X229336509Y-73049146D01*
X229337989Y-73054118D01*
X229592344Y-73977881D01*
X229593623Y-73982930D01*
X229809585Y-74916406D01*
X229810653Y-74921503D01*
X229987847Y-75863069D01*
X229988705Y-75868206D01*
X230126842Y-76816319D01*
X230127486Y-76821487D01*
X230151792Y-77055847D01*
X230226328Y-77774523D01*
X230226328Y-77774525D01*
X230226756Y-77779697D01*
X230226758Y-77779714D01*
X230226758Y-77779716D01*
X230286127Y-78735998D01*
X230286342Y-78741201D01*
X230306144Y-79699116D01*
X230306144Y-79704324D01*
X230286342Y-80662239D01*
X230286127Y-80667442D01*
X230226758Y-81623722D01*
X230226328Y-81628913D01*
X230127486Y-82581953D01*
X230126842Y-82587121D01*
X229988705Y-83535234D01*
X229987847Y-83540371D01*
X229810653Y-84481937D01*
X229809585Y-84487034D01*
X229593623Y-85420510D01*
X229592346Y-85425552D01*
X229592343Y-85425564D01*
X229337995Y-86349303D01*
X229336509Y-86354294D01*
X229044200Y-87266745D01*
X229042509Y-87271671D01*
X228712741Y-88171266D01*
X228710848Y-88176118D01*
X228344183Y-89061327D01*
X228342109Y-89066056D01*
X227939162Y-89935384D01*
X227939162Y-89935385D01*
X227936874Y-89940063D01*
X227498391Y-90791909D01*
X227495914Y-90796488D01*
X227022577Y-91629533D01*
X227022567Y-91629550D01*
X227019901Y-91634024D01*
X226512536Y-92446809D01*
X226509687Y-92451169D01*
X225969177Y-93242278D01*
X225966151Y-93246516D01*
X225393420Y-94014598D01*
X225390221Y-94018708D01*
X224786222Y-94762487D01*
X224782856Y-94766461D01*
X224148661Y-95484615D01*
X224145134Y-95488447D01*
X223481773Y-96179810D01*
X223478090Y-96183493D01*
X222786729Y-96846852D01*
X222782925Y-96850354D01*
X222064705Y-97484607D01*
X222060780Y-97487931D01*
X221718258Y-97766082D01*
X221322468Y-98087490D01*
X221322467Y-98087491D01*
X221315085Y-98093486D01*
X221315046Y-98093487D01*
X221314928Y-98093613D01*
X221314878Y-98093654D01*
X221314861Y-98093685D01*
X221314837Y-98093711D01*
X221314815Y-98093770D01*
X221314731Y-98093924D01*
X221314743Y-98093963D01*
X220899534Y-99199819D01*
X220899500Y-99199901D01*
X220899500Y-99199909D01*
X220899497Y-99199917D01*
X220899500Y-99200009D01*
X220899500Y-111573500D01*
X220879498Y-111641621D01*
X220825842Y-111688114D01*
X220773500Y-111699500D01*
X208568074Y-111699500D01*
X208499953Y-111679498D01*
X208453460Y-111625842D01*
X208443356Y-111555568D01*
X208467206Y-111497991D01*
X208545489Y-111393417D01*
X208550889Y-111386204D01*
X208601989Y-111249201D01*
X208608500Y-111188638D01*
X208608500Y-109291362D01*
X208601989Y-109230799D01*
X208550889Y-109093796D01*
X208463261Y-108976739D01*
X208346204Y-108889111D01*
X208337762Y-108885962D01*
X208337758Y-108885960D01*
X208278826Y-108863979D01*
X208221991Y-108821433D01*
X208197180Y-108754912D01*
X208212272Y-108685538D01*
X208230156Y-108660589D01*
X208271651Y-108615513D01*
X208311786Y-108571916D01*
X208311789Y-108571912D01*
X208315314Y-108568083D01*
X208346824Y-108519853D01*
X208440132Y-108377035D01*
X208440134Y-108377031D01*
X208442984Y-108372669D01*
X208508808Y-108222606D01*
X208534656Y-108163679D01*
X208534657Y-108163677D01*
X208536749Y-108158907D01*
X208570835Y-108024307D01*
X208592770Y-107937685D01*
X208592770Y-107937684D01*
X208594051Y-107932626D01*
X208602329Y-107832732D01*
X208612897Y-107705189D01*
X208613327Y-107700000D01*
X208599142Y-107528811D01*
X208594482Y-107472570D01*
X208594481Y-107472565D01*
X208594051Y-107467374D01*
X208592770Y-107462315D01*
X208538029Y-107246146D01*
X208538027Y-107246141D01*
X208536749Y-107241093D01*
X208533383Y-107233418D01*
X208445079Y-107032107D01*
X208442984Y-107027331D01*
X208315314Y-106831917D01*
X208311789Y-106828088D01*
X208311786Y-106828084D01*
X208160752Y-106664019D01*
X208157220Y-106660182D01*
X208153108Y-106656981D01*
X208153102Y-106656976D01*
X207977130Y-106520011D01*
X207977128Y-106520009D01*
X207973017Y-106516810D01*
X207767727Y-106405713D01*
X207546951Y-106329920D01*
X207541817Y-106329063D01*
X207541812Y-106329062D01*
X207321849Y-106292357D01*
X207321846Y-106292357D01*
X207316712Y-106291500D01*
X207083288Y-106291500D01*
X207078154Y-106292357D01*
X207078151Y-106292357D01*
X206858188Y-106329062D01*
X206858183Y-106329063D01*
X206853049Y-106329920D01*
X206632273Y-106405713D01*
X206426983Y-106516810D01*
X206422872Y-106520009D01*
X206422870Y-106520011D01*
X206246898Y-106656976D01*
X206246892Y-106656981D01*
X206242780Y-106660182D01*
X206239248Y-106664019D01*
X206088214Y-106828084D01*
X206088211Y-106828088D01*
X206084686Y-106831917D01*
X205957016Y-107027331D01*
X205954921Y-107032107D01*
X205866618Y-107233418D01*
X205863251Y-107241093D01*
X205861973Y-107246141D01*
X205861971Y-107246146D01*
X205807230Y-107462315D01*
X205805949Y-107467374D01*
X205805519Y-107472565D01*
X205805518Y-107472570D01*
X205800858Y-107528811D01*
X205786673Y-107700000D01*
X205787103Y-107705189D01*
X205797672Y-107832732D01*
X205805949Y-107932626D01*
X205807230Y-107937684D01*
X205807230Y-107937685D01*
X205829166Y-108024307D01*
X205863251Y-108158907D01*
X205865343Y-108163677D01*
X205865344Y-108163679D01*
X205891192Y-108222606D01*
X205957016Y-108372669D01*
X205959866Y-108377031D01*
X205959868Y-108377035D01*
X206053176Y-108519853D01*
X206084686Y-108568083D01*
X206088211Y-108571912D01*
X206088214Y-108571916D01*
X206128349Y-108615513D01*
X206169843Y-108660587D01*
X206201263Y-108724251D01*
X206193276Y-108794797D01*
X206148418Y-108849826D01*
X206121174Y-108863979D01*
X206062242Y-108885960D01*
X206062238Y-108885962D01*
X206053796Y-108889111D01*
X205936739Y-108976739D01*
X205849111Y-109093796D01*
X205798011Y-109230799D01*
X205791500Y-109291362D01*
X205791500Y-111188638D01*
X205798011Y-111249201D01*
X205849111Y-111386204D01*
X205854511Y-111393417D01*
X205932794Y-111497991D01*
X205957605Y-111564511D01*
X205942514Y-111633885D01*
X205892312Y-111684087D01*
X205831926Y-111699500D01*
X193926500Y-111699500D01*
X193858379Y-111679498D01*
X193811886Y-111625842D01*
X193800500Y-111573500D01*
X193800500Y-108670000D01*
X195496844Y-108670000D01*
X195497274Y-108675189D01*
X195512918Y-108863979D01*
X195515436Y-108894368D01*
X195570704Y-109112616D01*
X195572800Y-109117394D01*
X195649109Y-109291362D01*
X195661140Y-109318791D01*
X195663990Y-109323153D01*
X195663992Y-109323157D01*
X195678701Y-109345670D01*
X195784278Y-109507268D01*
X195787803Y-109511097D01*
X195787806Y-109511101D01*
X195889360Y-109621417D01*
X195936760Y-109672906D01*
X196114424Y-109811189D01*
X196312426Y-109918342D01*
X196525365Y-109991444D01*
X196530499Y-109992301D01*
X196530504Y-109992302D01*
X196742294Y-110027643D01*
X196742296Y-110027643D01*
X196747431Y-110028500D01*
X196972569Y-110028500D01*
X196977704Y-110027643D01*
X196977706Y-110027643D01*
X197189496Y-109992302D01*
X197189501Y-109992301D01*
X197194635Y-109991444D01*
X197407574Y-109918342D01*
X197605576Y-109811189D01*
X197783240Y-109672906D01*
X197830640Y-109621417D01*
X197932194Y-109511101D01*
X197932197Y-109511097D01*
X197935722Y-109507268D01*
X198024517Y-109371357D01*
X198078521Y-109325268D01*
X198148868Y-109315693D01*
X198213226Y-109345670D01*
X198235483Y-109371357D01*
X198324278Y-109507268D01*
X198327803Y-109511097D01*
X198327806Y-109511101D01*
X198429360Y-109621417D01*
X198476760Y-109672906D01*
X198654424Y-109811189D01*
X198852426Y-109918342D01*
X199065365Y-109991444D01*
X199070499Y-109992301D01*
X199070504Y-109992302D01*
X199282294Y-110027643D01*
X199282296Y-110027643D01*
X199287431Y-110028500D01*
X199512569Y-110028500D01*
X199517704Y-110027643D01*
X199517706Y-110027643D01*
X199729496Y-109992302D01*
X199729501Y-109992301D01*
X199734635Y-109991444D01*
X199947574Y-109918342D01*
X200145576Y-109811189D01*
X200323240Y-109672906D01*
X200370640Y-109621417D01*
X200472194Y-109511101D01*
X200472197Y-109511097D01*
X200475722Y-109507268D01*
X200564517Y-109371357D01*
X200618521Y-109325268D01*
X200688868Y-109315693D01*
X200753226Y-109345670D01*
X200775483Y-109371357D01*
X200864278Y-109507268D01*
X200867803Y-109511097D01*
X200867806Y-109511101D01*
X200969360Y-109621417D01*
X201016760Y-109672906D01*
X201194424Y-109811189D01*
X201392426Y-109918342D01*
X201605365Y-109991444D01*
X201610499Y-109992301D01*
X201610504Y-109992302D01*
X201822294Y-110027643D01*
X201822296Y-110027643D01*
X201827431Y-110028500D01*
X202052569Y-110028500D01*
X202057704Y-110027643D01*
X202057706Y-110027643D01*
X202269496Y-109992302D01*
X202269501Y-109992301D01*
X202274635Y-109991444D01*
X202487574Y-109918342D01*
X202685576Y-109811189D01*
X202863240Y-109672906D01*
X202910640Y-109621417D01*
X203012194Y-109511101D01*
X203012197Y-109511097D01*
X203015722Y-109507268D01*
X203121299Y-109345670D01*
X203136008Y-109323157D01*
X203136010Y-109323153D01*
X203138860Y-109318791D01*
X203150892Y-109291362D01*
X203227200Y-109117394D01*
X203229296Y-109112616D01*
X203284564Y-108894368D01*
X203287083Y-108863979D01*
X203302726Y-108675189D01*
X203303156Y-108670000D01*
X203301976Y-108655763D01*
X203284995Y-108450828D01*
X203284994Y-108450823D01*
X203284564Y-108445632D01*
X203229296Y-108227384D01*
X203138860Y-108021209D01*
X203134629Y-108014732D01*
X203018573Y-107837096D01*
X203015722Y-107832732D01*
X203012197Y-107828903D01*
X203012194Y-107828899D01*
X202893532Y-107700000D01*
X202863240Y-107667094D01*
X202844139Y-107652227D01*
X202689689Y-107532012D01*
X202689687Y-107532010D01*
X202685576Y-107528811D01*
X202652320Y-107510814D01*
X202601929Y-107460801D01*
X202586577Y-107391484D01*
X202611137Y-107324871D01*
X202652320Y-107289186D01*
X202680995Y-107273668D01*
X202685576Y-107271189D01*
X202863240Y-107132906D01*
X202956033Y-107032107D01*
X203012194Y-106971101D01*
X203012197Y-106971097D01*
X203015722Y-106967268D01*
X203104517Y-106831357D01*
X203136008Y-106783157D01*
X203136010Y-106783153D01*
X203138860Y-106778791D01*
X203229296Y-106572616D01*
X203242618Y-106520011D01*
X203283283Y-106359427D01*
X203283283Y-106359426D01*
X203284564Y-106354368D01*
X203289703Y-106292357D01*
X203302726Y-106135189D01*
X203303156Y-106130000D01*
X203284564Y-105905632D01*
X203229296Y-105687384D01*
X203138860Y-105481209D01*
X203134629Y-105474732D01*
X203018573Y-105297096D01*
X203015722Y-105292732D01*
X203012197Y-105288903D01*
X203012194Y-105288899D01*
X202866772Y-105130931D01*
X202863240Y-105127094D01*
X202685576Y-104988811D01*
X202487574Y-104881658D01*
X202274635Y-104808556D01*
X202269501Y-104807699D01*
X202269496Y-104807698D01*
X202057706Y-104772357D01*
X202057704Y-104772357D01*
X202052569Y-104771500D01*
X201827431Y-104771500D01*
X201822296Y-104772357D01*
X201822294Y-104772357D01*
X201610504Y-104807698D01*
X201610499Y-104807699D01*
X201605365Y-104808556D01*
X201392426Y-104881658D01*
X201194424Y-104988811D01*
X201016760Y-105127094D01*
X201013228Y-105130931D01*
X200867806Y-105288899D01*
X200867803Y-105288903D01*
X200864278Y-105292732D01*
X200861427Y-105297096D01*
X200775483Y-105428643D01*
X200721479Y-105474732D01*
X200651132Y-105484307D01*
X200586774Y-105454330D01*
X200564517Y-105428643D01*
X200478573Y-105297096D01*
X200475722Y-105292732D01*
X200472197Y-105288903D01*
X200472194Y-105288899D01*
X200326772Y-105130931D01*
X200323240Y-105127094D01*
X200145576Y-104988811D01*
X199947574Y-104881658D01*
X199734635Y-104808556D01*
X199729501Y-104807699D01*
X199729496Y-104807698D01*
X199517706Y-104772357D01*
X199517704Y-104772357D01*
X199512569Y-104771500D01*
X199287431Y-104771500D01*
X199282296Y-104772357D01*
X199282294Y-104772357D01*
X199070504Y-104807698D01*
X199070499Y-104807699D01*
X199065365Y-104808556D01*
X198852426Y-104881658D01*
X198654424Y-104988811D01*
X198476760Y-105127094D01*
X198473228Y-105130931D01*
X198415755Y-105193362D01*
X198354901Y-105229933D01*
X198283937Y-105227798D01*
X198225392Y-105187636D01*
X198204998Y-105152056D01*
X198164038Y-105042239D01*
X198164037Y-105042237D01*
X198160889Y-105033796D01*
X198073261Y-104916739D01*
X197956204Y-104829111D01*
X197819201Y-104778011D01*
X197782295Y-104774043D01*
X197761988Y-104771860D01*
X197761985Y-104771860D01*
X197758638Y-104771500D01*
X195961362Y-104771500D01*
X195958015Y-104771860D01*
X195958012Y-104771860D01*
X195937705Y-104774043D01*
X195900799Y-104778011D01*
X195763796Y-104829111D01*
X195646739Y-104916739D01*
X195559111Y-105033796D01*
X195508011Y-105170799D01*
X195501500Y-105231362D01*
X195501500Y-107028638D01*
X195508011Y-107089201D01*
X195559111Y-107226204D01*
X195564510Y-107233416D01*
X195564511Y-107233418D01*
X195574039Y-107246146D01*
X195646739Y-107343261D01*
X195653950Y-107348659D01*
X195751465Y-107421658D01*
X195763796Y-107430889D01*
X195878808Y-107473787D01*
X195935642Y-107516333D01*
X195960453Y-107582853D01*
X195945361Y-107652227D01*
X195927475Y-107677180D01*
X195787806Y-107828899D01*
X195787803Y-107828903D01*
X195784278Y-107832732D01*
X195781427Y-107837096D01*
X195665372Y-108014732D01*
X195661140Y-108021209D01*
X195570704Y-108227384D01*
X195515436Y-108445632D01*
X195515006Y-108450823D01*
X195515005Y-108450828D01*
X195498024Y-108655763D01*
X195496844Y-108670000D01*
X193800500Y-108670000D01*
X193800500Y-99200157D01*
X193800530Y-99200114D01*
X193800500Y-99199952D01*
X193800500Y-99199901D01*
X193800483Y-99199859D01*
X193800474Y-99199812D01*
X193800445Y-99199767D01*
X193800383Y-99199617D01*
X193800335Y-99199597D01*
X193793957Y-99189738D01*
X193793956Y-99189736D01*
X193466104Y-98682970D01*
X193466103Y-98682969D01*
X193457434Y-98669569D01*
X193457396Y-98669505D01*
X193457390Y-98669501D01*
X193457384Y-98669491D01*
X193457285Y-98669423D01*
X193174150Y-98458300D01*
X192687122Y-98095140D01*
X192683012Y-98091941D01*
X192460413Y-97911176D01*
X191939221Y-97487931D01*
X191935259Y-97484576D01*
X191217105Y-96850381D01*
X191213273Y-96846854D01*
X190521910Y-96183493D01*
X190518227Y-96179810D01*
X189854868Y-95488449D01*
X189851366Y-95484645D01*
X189217113Y-94766425D01*
X189213778Y-94762487D01*
X188609770Y-94018696D01*
X188606571Y-94014586D01*
X188033838Y-93246500D01*
X188030812Y-93242262D01*
X187490301Y-92451152D01*
X187487452Y-92446792D01*
X186980088Y-91634007D01*
X186977422Y-91629533D01*
X186504087Y-90796490D01*
X186501609Y-90791909D01*
X186063126Y-89940062D01*
X186060847Y-89935401D01*
X185657891Y-89066056D01*
X185655817Y-89061327D01*
X185289152Y-88176118D01*
X185287259Y-88171266D01*
X184957491Y-87271671D01*
X184955800Y-87266745D01*
X184663493Y-86354300D01*
X184663492Y-86354294D01*
X184663487Y-86354281D01*
X184662007Y-86349309D01*
X184662006Y-86349303D01*
X184407655Y-85425557D01*
X184406378Y-85420515D01*
X184190415Y-84487034D01*
X184189347Y-84481937D01*
X184012153Y-83540371D01*
X184011295Y-83535234D01*
X183873156Y-82587097D01*
X183872512Y-82581929D01*
X183773672Y-81628913D01*
X183773242Y-81623722D01*
X183713873Y-80667442D01*
X183713658Y-80662239D01*
X183693856Y-79704324D01*
X183693856Y-79699116D01*
X183713658Y-78741201D01*
X183713873Y-78735998D01*
X183773242Y-77779714D01*
X183773672Y-77774523D01*
X183872512Y-76821511D01*
X183873156Y-76816343D01*
X184011295Y-75868206D01*
X184012153Y-75863069D01*
X184189347Y-74921503D01*
X184190415Y-74916406D01*
X184406378Y-73982925D01*
X184407657Y-73977876D01*
X184662013Y-73054112D01*
X184663487Y-73049159D01*
X184955800Y-72136695D01*
X184957491Y-72131769D01*
X185287259Y-71232174D01*
X185289152Y-71227322D01*
X185466947Y-70798085D01*
X185655817Y-70342113D01*
X185657891Y-70337384D01*
X186060847Y-69468039D01*
X186063126Y-69463378D01*
X186501609Y-68611531D01*
X186504087Y-68606950D01*
X186977422Y-67773907D01*
X186980088Y-67769433D01*
X187487452Y-66956648D01*
X187490301Y-66952288D01*
X188030812Y-66161178D01*
X188033838Y-66156940D01*
X188606571Y-65388854D01*
X188609770Y-65384744D01*
X189213778Y-64640953D01*
X189217113Y-64637015D01*
X189851366Y-63918795D01*
X189854868Y-63914991D01*
X190518227Y-63223630D01*
X190521910Y-63219947D01*
X191213273Y-62556586D01*
X191217105Y-62553059D01*
X191935259Y-61918864D01*
X191939221Y-61915509D01*
X192683012Y-61311499D01*
X192687122Y-61308300D01*
X192927734Y-61128885D01*
X193455219Y-60735558D01*
X193459428Y-60732553D01*
X194250569Y-60192021D01*
X194254911Y-60189184D01*
X195067696Y-59681819D01*
X195072170Y-59679153D01*
X195072190Y-59679142D01*
X195905232Y-59205806D01*
X195909811Y-59203329D01*
X196761674Y-58764838D01*
X196766318Y-58762567D01*
X197635664Y-58359611D01*
X197640393Y-58357537D01*
X198096365Y-58168667D01*
X198525602Y-57990872D01*
X198530454Y-57988979D01*
X199430049Y-57659211D01*
X199434975Y-57657520D01*
X199891201Y-57511365D01*
X200347446Y-57365205D01*
X200352398Y-57363731D01*
X201276168Y-57109374D01*
X201281206Y-57108098D01*
X202214697Y-56892133D01*
X202219773Y-56891069D01*
X203161356Y-56713872D01*
X203166478Y-56713016D01*
X203707224Y-56634231D01*
X204114599Y-56574878D01*
X204119767Y-56574234D01*
X204354127Y-56549928D01*
X205072824Y-56475390D01*
X205077977Y-56474964D01*
X206034283Y-56415593D01*
X206039477Y-56415378D01*
X206363881Y-56408672D01*
X206997396Y-56395576D01*
X207002604Y-56395576D01*
X207636119Y-56408672D01*
G37*
G04 #@! TD.AperFunction*
M02*
