%TF.GenerationSoftware,KiCad,Pcbnew,(6.99.0-2452-gdb4f2d9dd8)*%
%TF.CreationDate,2022-08-02T13:39:33-05:00*%
%TF.ProjectId,RB,52422e6b-6963-4616-945f-706362585858,rev?*%
%TF.SameCoordinates,Original*%
%TF.FileFunction,Drillmap*%
%TF.FilePolarity,Positive*%
%FSLAX45Y45*%
G04 Gerber Fmt 4.5, Leading zero omitted, Abs format (unit mm)*
G04 Created by KiCad (PCBNEW (6.99.0-2452-gdb4f2d9dd8)) date 2022-08-02 13:39:33*
%MOMM*%
%LPD*%
G01*
G04 APERTURE LIST*
%ADD10C,0.200000*%
G04 APERTURE END LIST*
D10*
X20796315Y-5641493D02*
X20892465Y-5647463D01*
X20988287Y-5657400D01*
X21083616Y-5671289D01*
X21178289Y-5689106D01*
X21272146Y-5710820D01*
X21365025Y-5736394D01*
X21456767Y-5765784D01*
X21547217Y-5798941D01*
X21636219Y-5835807D01*
X21723622Y-5876319D01*
X21809276Y-5920409D01*
X21893035Y-5968001D01*
X21974756Y-6019013D01*
X22054298Y-6073359D01*
X22131527Y-6130946D01*
X22206310Y-6191675D01*
X22278520Y-6255442D01*
X22348032Y-6322140D01*
X22414729Y-6391652D01*
X22478497Y-6463862D01*
X22539226Y-6538645D01*
X22596813Y-6615874D01*
X22651159Y-6695416D01*
X22702171Y-6777137D01*
X22749763Y-6860896D01*
X22793853Y-6946550D01*
X22834365Y-7033953D01*
X22871231Y-7122955D01*
X22904388Y-7213405D01*
X22933778Y-7305147D01*
X22959352Y-7398026D01*
X22981066Y-7491883D01*
X22998882Y-7586556D01*
X23012772Y-7681885D01*
X23022709Y-7777707D01*
X23028679Y-7873857D01*
X23030670Y-7970172D01*
X23028679Y-8066487D01*
X23022709Y-8162637D01*
X23012772Y-8258459D01*
X22998882Y-8353788D01*
X22981066Y-8448461D01*
X22959352Y-8542318D01*
X22933778Y-8635197D01*
X22904388Y-8726939D01*
X22871231Y-8817389D01*
X22834365Y-8906391D01*
X22793853Y-8993794D01*
X22749763Y-9079448D01*
X22702171Y-9163207D01*
X22651159Y-9244928D01*
X22596813Y-9324470D01*
X22539226Y-9401699D01*
X22478497Y-9476482D01*
X22414729Y-9548692D01*
X22348032Y-9618204D01*
X22278520Y-9684902D01*
X22206310Y-9748669D01*
X22131527Y-9809398D01*
X22090000Y-9920000D01*
X22090000Y-11170000D01*
X19380000Y-11170000D01*
X19380000Y-9920000D01*
X19345702Y-9866985D01*
X19268473Y-9809398D01*
X19193690Y-9748669D01*
X19121480Y-9684902D01*
X19051968Y-9618204D01*
X18985271Y-9548692D01*
X18921503Y-9476482D01*
X18860774Y-9401699D01*
X18803187Y-9324470D01*
X18748841Y-9244928D01*
X18697829Y-9163207D01*
X18650237Y-9079448D01*
X18606147Y-8993794D01*
X18565635Y-8906391D01*
X18528769Y-8817389D01*
X18495612Y-8726939D01*
X18466222Y-8635197D01*
X18440648Y-8542318D01*
X18418934Y-8448461D01*
X18401118Y-8353788D01*
X18387228Y-8258459D01*
X18377291Y-8162637D01*
X18371321Y-8066487D01*
X18369330Y-7970172D01*
X18371321Y-7873857D01*
X18377291Y-7777707D01*
X18387228Y-7681885D01*
X18401118Y-7586556D01*
X18418934Y-7491883D01*
X18440648Y-7398026D01*
X18466222Y-7305147D01*
X18495612Y-7213405D01*
X18528769Y-7122955D01*
X18565635Y-7033953D01*
X18606147Y-6946550D01*
X18650237Y-6860896D01*
X18697829Y-6777137D01*
X18748841Y-6695416D01*
X18803187Y-6615874D01*
X18860774Y-6538645D01*
X18921503Y-6463862D01*
X18985271Y-6391652D01*
X19051968Y-6322140D01*
X19121480Y-6255442D01*
X19193690Y-6191675D01*
X19268473Y-6130946D01*
X19345702Y-6073359D01*
X19425244Y-6019013D01*
X19506965Y-5968001D01*
X19590724Y-5920409D01*
X19676378Y-5876319D01*
X19763781Y-5835807D01*
X19852783Y-5798941D01*
X19943233Y-5765784D01*
X20034976Y-5736394D01*
X20127854Y-5710820D01*
X20221711Y-5689106D01*
X20316384Y-5671289D01*
X20411713Y-5657400D01*
X20507535Y-5647463D01*
X20603685Y-5641493D01*
X20700000Y-5639502D01*
X20796315Y-5641493D01*
X18606949Y-11473476D02*
X18606949Y-11273476D01*
X18606949Y-11273476D02*
X18654568Y-11273476D01*
X18654568Y-11273476D02*
X18683140Y-11283000D01*
X18683140Y-11283000D02*
X18702187Y-11302048D01*
X18702187Y-11302048D02*
X18711711Y-11321095D01*
X18711711Y-11321095D02*
X18721235Y-11359190D01*
X18721235Y-11359190D02*
X18721235Y-11387762D01*
X18721235Y-11387762D02*
X18711711Y-11425857D01*
X18711711Y-11425857D02*
X18702187Y-11444905D01*
X18702187Y-11444905D02*
X18683140Y-11463952D01*
X18683140Y-11463952D02*
X18654568Y-11473476D01*
X18654568Y-11473476D02*
X18606949Y-11473476D01*
X18806949Y-11473476D02*
X18806949Y-11340143D01*
X18806949Y-11378238D02*
X18816473Y-11359190D01*
X18816473Y-11359190D02*
X18825997Y-11349667D01*
X18825997Y-11349667D02*
X18845044Y-11340143D01*
X18845044Y-11340143D02*
X18864092Y-11340143D01*
X18930759Y-11473476D02*
X18930759Y-11340143D01*
X18930759Y-11273476D02*
X18921235Y-11283000D01*
X18921235Y-11283000D02*
X18930759Y-11292524D01*
X18930759Y-11292524D02*
X18940283Y-11283000D01*
X18940283Y-11283000D02*
X18930759Y-11273476D01*
X18930759Y-11273476D02*
X18930759Y-11292524D01*
X19054568Y-11473476D02*
X19035521Y-11463952D01*
X19035521Y-11463952D02*
X19025997Y-11444905D01*
X19025997Y-11444905D02*
X19025997Y-11273476D01*
X19159330Y-11473476D02*
X19140283Y-11463952D01*
X19140283Y-11463952D02*
X19130759Y-11444905D01*
X19130759Y-11444905D02*
X19130759Y-11273476D01*
X19355521Y-11473476D02*
X19355521Y-11273476D01*
X19355521Y-11273476D02*
X19422187Y-11416333D01*
X19422187Y-11416333D02*
X19488854Y-11273476D01*
X19488854Y-11273476D02*
X19488854Y-11473476D01*
X19669806Y-11473476D02*
X19669806Y-11368714D01*
X19669806Y-11368714D02*
X19660283Y-11349667D01*
X19660283Y-11349667D02*
X19641235Y-11340143D01*
X19641235Y-11340143D02*
X19603140Y-11340143D01*
X19603140Y-11340143D02*
X19584092Y-11349667D01*
X19669806Y-11463952D02*
X19650759Y-11473476D01*
X19650759Y-11473476D02*
X19603140Y-11473476D01*
X19603140Y-11473476D02*
X19584092Y-11463952D01*
X19584092Y-11463952D02*
X19574568Y-11444905D01*
X19574568Y-11444905D02*
X19574568Y-11425857D01*
X19574568Y-11425857D02*
X19584092Y-11406809D01*
X19584092Y-11406809D02*
X19603140Y-11397286D01*
X19603140Y-11397286D02*
X19650759Y-11397286D01*
X19650759Y-11397286D02*
X19669806Y-11387762D01*
X19765044Y-11340143D02*
X19765044Y-11540143D01*
X19765044Y-11349667D02*
X19784092Y-11340143D01*
X19784092Y-11340143D02*
X19822187Y-11340143D01*
X19822187Y-11340143D02*
X19841235Y-11349667D01*
X19841235Y-11349667D02*
X19850759Y-11359190D01*
X19850759Y-11359190D02*
X19860283Y-11378238D01*
X19860283Y-11378238D02*
X19860283Y-11435381D01*
X19860283Y-11435381D02*
X19850759Y-11454428D01*
X19850759Y-11454428D02*
X19841235Y-11463952D01*
X19841235Y-11463952D02*
X19822187Y-11473476D01*
X19822187Y-11473476D02*
X19784092Y-11473476D01*
X19784092Y-11473476D02*
X19765044Y-11463952D01*
X19945997Y-11454428D02*
X19955521Y-11463952D01*
X19955521Y-11463952D02*
X19945997Y-11473476D01*
X19945997Y-11473476D02*
X19936473Y-11463952D01*
X19936473Y-11463952D02*
X19945997Y-11454428D01*
X19945997Y-11454428D02*
X19945997Y-11473476D01*
X19945997Y-11349667D02*
X19955521Y-11359190D01*
X19955521Y-11359190D02*
X19945997Y-11368714D01*
X19945997Y-11368714D02*
X19936473Y-11359190D01*
X19936473Y-11359190D02*
X19945997Y-11349667D01*
X19945997Y-11349667D02*
X19945997Y-11368714D01*
M02*
