G04 #@! TF.GenerationSoftware,KiCad,Pcbnew,(6.99.0-2452-gdb4f2d9dd8)*
G04 #@! TF.CreationDate,2022-08-02T13:55:58-05:00*
G04 #@! TF.ProjectId,United,556e6974-6564-42e6-9b69-6361645f7063,rev?*
G04 #@! TF.SameCoordinates,Original*
G04 #@! TF.FileFunction,Copper,L2,Bot*
G04 #@! TF.FilePolarity,Positive*
%FSLAX46Y46*%
G04 Gerber Fmt 4.6, Leading zero omitted, Abs format (unit mm)*
G04 Created by KiCad (PCBNEW (6.99.0-2452-gdb4f2d9dd8)) date 2022-08-02 13:55:58*
%MOMM*%
%LPD*%
G01*
G04 APERTURE LIST*
G04 Aperture macros list*
%AMRoundRect*
0 Rectangle with rounded corners*
0 $1 Rounding radius*
0 $2 $3 $4 $5 $6 $7 $8 $9 X,Y pos of 4 corners*
0 Add a 4 corners polygon primitive as box body*
4,1,4,$2,$3,$4,$5,$6,$7,$8,$9,$2,$3,0*
0 Add four circle primitives for the rounded corners*
1,1,$1+$1,$2,$3*
1,1,$1+$1,$4,$5*
1,1,$1+$1,$6,$7*
1,1,$1+$1,$8,$9*
0 Add four rect primitives between the rounded corners*
20,1,$1+$1,$2,$3,$4,$5,0*
20,1,$1+$1,$4,$5,$6,$7,0*
20,1,$1+$1,$6,$7,$8,$9,0*
20,1,$1+$1,$8,$9,$2,$3,0*%
G04 Aperture macros list end*
%ADD10C,0.300000*%
G04 #@! TA.AperFunction,NonConductor*
%ADD11C,0.300000*%
G04 #@! TD*
G04 #@! TA.AperFunction,ComponentPad*
%ADD12R,1.800000X1.800000*%
G04 #@! TD*
G04 #@! TA.AperFunction,ComponentPad*
%ADD13C,1.800000*%
G04 #@! TD*
G04 #@! TA.AperFunction,ComponentPad*
%ADD14R,1.700000X1.700000*%
G04 #@! TD*
G04 #@! TA.AperFunction,ComponentPad*
%ADD15O,1.700000X1.700000*%
G04 #@! TD*
G04 #@! TA.AperFunction,SMDPad,CuDef*
%ADD16RoundRect,0.250000X-0.625000X0.400000X-0.625000X-0.400000X0.625000X-0.400000X0.625000X0.400000X0*%
G04 #@! TD*
G04 #@! TA.AperFunction,Conductor*
%ADD17C,0.250000*%
G04 #@! TD*
G04 APERTURE END LIST*
D10*
D11*
X172914285Y-51529285D02*
X172985714Y-51457857D01*
X172985714Y-51457857D02*
X173128571Y-51386428D01*
X173128571Y-51386428D02*
X173271428Y-51386428D01*
X173271428Y-51386428D02*
X173414285Y-51457857D01*
X173414285Y-51457857D02*
X173485714Y-51529285D01*
X173485714Y-51529285D02*
X173557142Y-51672142D01*
X173557142Y-51672142D02*
X173557142Y-51815000D01*
X173557142Y-51815000D02*
X173485714Y-51957857D01*
X173485714Y-51957857D02*
X173414285Y-52029285D01*
X173414285Y-52029285D02*
X173271428Y-52100714D01*
X173271428Y-52100714D02*
X173128571Y-52100714D01*
X173128571Y-52100714D02*
X172985714Y-52029285D01*
X172985714Y-52029285D02*
X172914285Y-51957857D01*
X172914285Y-51386428D02*
X172914285Y-51957857D01*
X172914285Y-51957857D02*
X172842857Y-52029285D01*
X172842857Y-52029285D02*
X172771428Y-52029285D01*
X172771428Y-52029285D02*
X172628571Y-51957857D01*
X172628571Y-51957857D02*
X172557142Y-51815000D01*
X172557142Y-51815000D02*
X172557142Y-51457857D01*
X172557142Y-51457857D02*
X172700000Y-51243571D01*
X172700000Y-51243571D02*
X172914285Y-51100714D01*
X172914285Y-51100714D02*
X173200000Y-51029285D01*
X173200000Y-51029285D02*
X173485714Y-51100714D01*
X173485714Y-51100714D02*
X173700000Y-51243571D01*
X173700000Y-51243571D02*
X173842857Y-51457857D01*
X173842857Y-51457857D02*
X173914285Y-51743571D01*
X173914285Y-51743571D02*
X173842857Y-52029285D01*
X173842857Y-52029285D02*
X173700000Y-52243571D01*
X173700000Y-52243571D02*
X173485714Y-52386428D01*
X173485714Y-52386428D02*
X173200000Y-52457857D01*
X173200000Y-52457857D02*
X172914285Y-52386428D01*
X172914285Y-52386428D02*
X172700000Y-52243571D01*
X171271429Y-52243571D02*
X171271429Y-51457857D01*
X171271429Y-51457857D02*
X171342857Y-51315000D01*
X171342857Y-51315000D02*
X171485714Y-51243571D01*
X171485714Y-51243571D02*
X171771429Y-51243571D01*
X171771429Y-51243571D02*
X171914286Y-51315000D01*
X171271429Y-52172142D02*
X171414286Y-52243571D01*
X171414286Y-52243571D02*
X171771429Y-52243571D01*
X171771429Y-52243571D02*
X171914286Y-52172142D01*
X171914286Y-52172142D02*
X171985714Y-52029285D01*
X171985714Y-52029285D02*
X171985714Y-51886428D01*
X171985714Y-51886428D02*
X171914286Y-51743571D01*
X171914286Y-51743571D02*
X171771429Y-51672142D01*
X171771429Y-51672142D02*
X171414286Y-51672142D01*
X171414286Y-51672142D02*
X171271429Y-51600714D01*
X170700000Y-51243571D02*
X170342857Y-52243571D01*
X170342857Y-52243571D02*
X169985714Y-51243571D01*
X169771429Y-52386428D02*
X168628571Y-52386428D01*
X168271429Y-51243571D02*
X168271429Y-52743571D01*
X168271429Y-51315000D02*
X168128572Y-51243571D01*
X168128572Y-51243571D02*
X167842857Y-51243571D01*
X167842857Y-51243571D02*
X167700000Y-51315000D01*
X167700000Y-51315000D02*
X167628572Y-51386428D01*
X167628572Y-51386428D02*
X167557143Y-51529285D01*
X167557143Y-51529285D02*
X167557143Y-51957857D01*
X167557143Y-51957857D02*
X167628572Y-52100714D01*
X167628572Y-52100714D02*
X167700000Y-52172142D01*
X167700000Y-52172142D02*
X167842857Y-52243571D01*
X167842857Y-52243571D02*
X168128572Y-52243571D01*
X168128572Y-52243571D02*
X168271429Y-52172142D01*
X166271429Y-51243571D02*
X166271429Y-52243571D01*
X166914286Y-51243571D02*
X166914286Y-52029285D01*
X166914286Y-52029285D02*
X166842857Y-52172142D01*
X166842857Y-52172142D02*
X166700000Y-52243571D01*
X166700000Y-52243571D02*
X166485714Y-52243571D01*
X166485714Y-52243571D02*
X166342857Y-52172142D01*
X166342857Y-52172142D02*
X166271429Y-52100714D01*
X165557143Y-52243571D02*
X165557143Y-50743571D01*
X165557143Y-51315000D02*
X165414286Y-51243571D01*
X165414286Y-51243571D02*
X165128571Y-51243571D01*
X165128571Y-51243571D02*
X164985714Y-51315000D01*
X164985714Y-51315000D02*
X164914286Y-51386428D01*
X164914286Y-51386428D02*
X164842857Y-51529285D01*
X164842857Y-51529285D02*
X164842857Y-51957857D01*
X164842857Y-51957857D02*
X164914286Y-52100714D01*
X164914286Y-52100714D02*
X164985714Y-52172142D01*
X164985714Y-52172142D02*
X165128571Y-52243571D01*
X165128571Y-52243571D02*
X165414286Y-52243571D01*
X165414286Y-52243571D02*
X165557143Y-52172142D01*
X164271428Y-52172142D02*
X164128571Y-52243571D01*
X164128571Y-52243571D02*
X163842857Y-52243571D01*
X163842857Y-52243571D02*
X163700000Y-52172142D01*
X163700000Y-52172142D02*
X163628571Y-52029285D01*
X163628571Y-52029285D02*
X163628571Y-51957857D01*
X163628571Y-51957857D02*
X163700000Y-51815000D01*
X163700000Y-51815000D02*
X163842857Y-51743571D01*
X163842857Y-51743571D02*
X164057143Y-51743571D01*
X164057143Y-51743571D02*
X164200000Y-51672142D01*
X164200000Y-51672142D02*
X164271428Y-51529285D01*
X164271428Y-51529285D02*
X164271428Y-51457857D01*
X164271428Y-51457857D02*
X164200000Y-51315000D01*
X164200000Y-51315000D02*
X164057143Y-51243571D01*
X164057143Y-51243571D02*
X163842857Y-51243571D01*
X163842857Y-51243571D02*
X163700000Y-51315000D01*
X173985714Y-53673571D02*
X173628571Y-54673571D01*
X173628571Y-54673571D02*
X173271428Y-53673571D01*
X171914285Y-54673571D02*
X172771428Y-54673571D01*
X172342857Y-54673571D02*
X172342857Y-53173571D01*
X172342857Y-53173571D02*
X172485714Y-53387857D01*
X172485714Y-53387857D02*
X172628571Y-53530714D01*
X172628571Y-53530714D02*
X172771428Y-53602142D01*
D12*
X108899999Y-62599999D03*
D13*
X106360000Y-62600000D03*
D14*
X103159999Y-69329999D03*
D15*
X103159999Y-71869999D03*
X105699999Y-69329999D03*
X105699999Y-71869999D03*
X108239999Y-69329999D03*
X108239999Y-71869999D03*
D16*
X101700000Y-60950000D03*
X101700000Y-64050000D03*
D17*
X112700000Y-72800000D02*
X111100000Y-74400000D01*
X111100000Y-74400000D02*
X105690000Y-74400000D01*
X110800000Y-62600000D02*
X112700000Y-64500000D01*
X108900000Y-62600000D02*
X110800000Y-62600000D01*
X112700000Y-64500000D02*
X112700000Y-72800000D01*
X105690000Y-74400000D02*
X103160000Y-71870000D01*
X104710000Y-60950000D02*
X106360000Y-62600000D01*
X101700000Y-60950000D02*
X104710000Y-60950000D01*
X103160000Y-69330000D02*
X103160000Y-65510000D01*
X103160000Y-65510000D02*
X101700000Y-64050000D01*
G04 #@! TA.AperFunction,NonConductor*
G36*
X104683439Y-70241388D02*
G01*
X104715755Y-70266638D01*
X104736526Y-70289201D01*
X104776760Y-70332906D01*
X104954424Y-70471189D01*
X104959005Y-70473668D01*
X104987680Y-70489186D01*
X105038071Y-70539199D01*
X105053423Y-70608516D01*
X105028863Y-70675129D01*
X104987681Y-70710813D01*
X104954424Y-70728811D01*
X104950313Y-70732010D01*
X104950311Y-70732012D01*
X104795861Y-70852227D01*
X104776760Y-70867094D01*
X104773228Y-70870931D01*
X104627806Y-71028899D01*
X104627803Y-71028903D01*
X104624278Y-71032732D01*
X104621427Y-71037096D01*
X104535483Y-71168643D01*
X104481479Y-71214732D01*
X104411132Y-71224307D01*
X104346774Y-71194330D01*
X104324517Y-71168643D01*
X104238573Y-71037096D01*
X104235722Y-71032732D01*
X104232197Y-71028903D01*
X104232194Y-71028899D01*
X104092525Y-70877180D01*
X104061104Y-70813515D01*
X104069091Y-70742969D01*
X104113949Y-70687940D01*
X104141191Y-70673787D01*
X104256204Y-70630889D01*
X104268536Y-70621658D01*
X104366050Y-70548659D01*
X104373261Y-70543261D01*
X104460889Y-70426204D01*
X104504998Y-70307944D01*
X104547545Y-70251108D01*
X104614065Y-70226297D01*
X104683439Y-70241388D01*
G37*
G04 #@! TD.AperFunction*
G04 #@! TA.AperFunction,NonConductor*
G36*
X107053226Y-70005670D02*
G01*
X107075483Y-70031357D01*
X107164278Y-70167268D01*
X107167803Y-70171097D01*
X107167806Y-70171101D01*
X107232511Y-70241388D01*
X107316760Y-70332906D01*
X107494424Y-70471189D01*
X107499005Y-70473668D01*
X107527680Y-70489186D01*
X107578071Y-70539199D01*
X107593423Y-70608516D01*
X107568863Y-70675129D01*
X107527681Y-70710813D01*
X107494424Y-70728811D01*
X107490313Y-70732010D01*
X107490311Y-70732012D01*
X107335861Y-70852227D01*
X107316760Y-70867094D01*
X107313228Y-70870931D01*
X107167806Y-71028899D01*
X107167803Y-71028903D01*
X107164278Y-71032732D01*
X107161427Y-71037096D01*
X107075483Y-71168643D01*
X107021479Y-71214732D01*
X106951132Y-71224307D01*
X106886774Y-71194330D01*
X106864517Y-71168643D01*
X106778573Y-71037096D01*
X106775722Y-71032732D01*
X106772197Y-71028903D01*
X106772194Y-71028899D01*
X106626772Y-70870931D01*
X106623240Y-70867094D01*
X106604139Y-70852227D01*
X106449689Y-70732012D01*
X106449687Y-70732010D01*
X106445576Y-70728811D01*
X106412320Y-70710814D01*
X106361929Y-70660801D01*
X106346577Y-70591484D01*
X106371137Y-70524871D01*
X106412320Y-70489186D01*
X106440995Y-70473668D01*
X106445576Y-70471189D01*
X106623240Y-70332906D01*
X106707489Y-70241388D01*
X106772194Y-70171101D01*
X106772197Y-70171097D01*
X106775722Y-70167268D01*
X106864517Y-70031357D01*
X106918521Y-69985268D01*
X106988868Y-69975693D01*
X107053226Y-70005670D01*
G37*
G04 #@! TD.AperFunction*
G04 #@! TA.AperFunction,NonConductor*
G36*
X162251478Y-50020502D02*
G01*
X162297971Y-50074158D01*
X162309357Y-50126500D01*
X162309357Y-55883500D01*
X174873500Y-55883500D01*
X174941621Y-55903502D01*
X174988114Y-55957158D01*
X174999500Y-56009500D01*
X174999500Y-74873500D01*
X174979498Y-74941621D01*
X174925842Y-74988114D01*
X174873500Y-74999500D01*
X111700594Y-74999500D01*
X111632473Y-74979498D01*
X111585980Y-74925842D01*
X111575876Y-74855568D01*
X111605370Y-74790988D01*
X111611499Y-74784405D01*
X113092247Y-73303657D01*
X113100537Y-73296113D01*
X113107018Y-73292000D01*
X113153659Y-73242332D01*
X113156413Y-73239491D01*
X113176135Y-73219769D01*
X113178619Y-73216567D01*
X113186317Y-73207555D01*
X113211161Y-73181098D01*
X113216586Y-73175321D01*
X113226347Y-73157566D01*
X113237198Y-73141047D01*
X113249614Y-73125041D01*
X113267174Y-73084463D01*
X113272391Y-73073813D01*
X113293695Y-73035060D01*
X113298733Y-73015437D01*
X113305137Y-72996734D01*
X113310033Y-72985420D01*
X113310033Y-72985419D01*
X113313181Y-72978145D01*
X113314420Y-72970322D01*
X113314423Y-72970312D01*
X113320099Y-72934476D01*
X113322505Y-72922856D01*
X113331528Y-72887711D01*
X113331528Y-72887710D01*
X113333500Y-72880030D01*
X113333500Y-72859776D01*
X113335051Y-72840065D01*
X113336980Y-72827886D01*
X113338220Y-72820057D01*
X113334059Y-72776038D01*
X113333500Y-72764181D01*
X113333500Y-64578768D01*
X113334027Y-64567585D01*
X113335702Y-64560092D01*
X113333562Y-64492001D01*
X113333500Y-64488044D01*
X113333500Y-64460144D01*
X113332996Y-64456153D01*
X113332063Y-64444311D01*
X113330923Y-64408036D01*
X113330674Y-64400111D01*
X113328462Y-64392497D01*
X113328461Y-64392492D01*
X113325023Y-64380659D01*
X113321012Y-64361295D01*
X113319467Y-64349064D01*
X113318474Y-64341203D01*
X113315557Y-64333836D01*
X113315556Y-64333831D01*
X113302198Y-64300092D01*
X113298354Y-64288865D01*
X113288230Y-64254022D01*
X113286018Y-64246407D01*
X113275707Y-64228972D01*
X113267012Y-64211224D01*
X113259552Y-64192383D01*
X113233564Y-64156613D01*
X113227048Y-64146693D01*
X113208580Y-64115465D01*
X113208578Y-64115462D01*
X113204542Y-64108638D01*
X113190221Y-64094317D01*
X113177380Y-64079283D01*
X113170131Y-64069306D01*
X113165472Y-64062893D01*
X113131395Y-64034702D01*
X113122616Y-64026712D01*
X111303652Y-62207747D01*
X111296112Y-62199461D01*
X111292000Y-62192982D01*
X111242348Y-62146356D01*
X111239507Y-62143602D01*
X111219770Y-62123865D01*
X111216573Y-62121385D01*
X111207551Y-62113680D01*
X111198180Y-62104880D01*
X111175321Y-62083414D01*
X111168375Y-62079595D01*
X111168372Y-62079593D01*
X111157566Y-62073652D01*
X111141047Y-62062801D01*
X111140583Y-62062441D01*
X111125041Y-62050386D01*
X111117772Y-62047241D01*
X111117768Y-62047238D01*
X111084463Y-62032826D01*
X111073813Y-62027609D01*
X111035060Y-62006305D01*
X111015437Y-62001267D01*
X110996734Y-61994863D01*
X110985420Y-61989967D01*
X110985419Y-61989967D01*
X110978145Y-61986819D01*
X110970322Y-61985580D01*
X110970312Y-61985577D01*
X110934476Y-61979901D01*
X110922856Y-61977495D01*
X110887711Y-61968472D01*
X110887710Y-61968472D01*
X110880030Y-61966500D01*
X110859776Y-61966500D01*
X110840065Y-61964949D01*
X110827886Y-61963020D01*
X110820057Y-61961780D01*
X110812165Y-61962526D01*
X110776039Y-61965941D01*
X110764181Y-61966500D01*
X110434500Y-61966500D01*
X110366379Y-61946498D01*
X110319886Y-61892842D01*
X110308500Y-61840500D01*
X110308500Y-61651362D01*
X110301989Y-61590799D01*
X110250889Y-61453796D01*
X110163261Y-61336739D01*
X110119554Y-61304020D01*
X110053418Y-61254511D01*
X110053416Y-61254510D01*
X110046204Y-61249111D01*
X109909201Y-61198011D01*
X109872295Y-61194043D01*
X109851988Y-61191860D01*
X109851985Y-61191860D01*
X109848638Y-61191500D01*
X107951362Y-61191500D01*
X107948015Y-61191860D01*
X107948012Y-61191860D01*
X107927705Y-61194043D01*
X107890799Y-61198011D01*
X107753796Y-61249111D01*
X107746584Y-61254510D01*
X107746582Y-61254511D01*
X107680446Y-61304020D01*
X107636739Y-61336739D01*
X107549111Y-61453796D01*
X107545963Y-61462237D01*
X107545961Y-61462241D01*
X107525638Y-61516726D01*
X107483091Y-61573561D01*
X107416571Y-61598371D01*
X107347197Y-61583279D01*
X107322248Y-61565395D01*
X107320747Y-61564014D01*
X107317220Y-61560182D01*
X107133017Y-61416810D01*
X106998383Y-61343950D01*
X106932312Y-61308194D01*
X106932309Y-61308193D01*
X106927727Y-61305713D01*
X106706951Y-61229920D01*
X106701817Y-61229063D01*
X106701812Y-61229062D01*
X106481849Y-61192357D01*
X106481846Y-61192357D01*
X106476712Y-61191500D01*
X106243288Y-61191500D01*
X106238154Y-61192357D01*
X106238151Y-61192357D01*
X106018188Y-61229062D01*
X106018183Y-61229063D01*
X106013049Y-61229920D01*
X105992731Y-61236895D01*
X105921808Y-61240097D01*
X105862723Y-61206818D01*
X105213652Y-60557747D01*
X105206112Y-60549461D01*
X105202000Y-60542982D01*
X105152348Y-60496356D01*
X105149507Y-60493602D01*
X105129770Y-60473865D01*
X105126573Y-60471385D01*
X105117551Y-60463680D01*
X105091100Y-60438841D01*
X105085321Y-60433414D01*
X105078375Y-60429595D01*
X105078372Y-60429593D01*
X105067566Y-60423652D01*
X105051047Y-60412801D01*
X105050583Y-60412441D01*
X105035041Y-60400386D01*
X105027772Y-60397241D01*
X105027768Y-60397238D01*
X104994463Y-60382826D01*
X104983813Y-60377609D01*
X104945060Y-60356305D01*
X104925437Y-60351267D01*
X104906734Y-60344863D01*
X104895420Y-60339967D01*
X104895419Y-60339967D01*
X104888145Y-60336819D01*
X104880322Y-60335580D01*
X104880312Y-60335577D01*
X104844476Y-60329901D01*
X104832856Y-60327495D01*
X104797711Y-60318472D01*
X104797710Y-60318472D01*
X104790030Y-60316500D01*
X104769776Y-60316500D01*
X104750065Y-60314949D01*
X104737886Y-60313020D01*
X104730057Y-60311780D01*
X104722165Y-60312526D01*
X104686039Y-60315941D01*
X104674181Y-60316500D01*
X103137671Y-60316500D01*
X103069550Y-60296498D01*
X103023057Y-60242842D01*
X103021012Y-60237635D01*
X103019422Y-60234225D01*
X103017115Y-60227262D01*
X102924030Y-60076348D01*
X102798652Y-59950970D01*
X102647738Y-59857885D01*
X102584193Y-59836829D01*
X102485952Y-59804275D01*
X102485948Y-59804274D01*
X102479426Y-59802113D01*
X102472592Y-59801415D01*
X102472588Y-59801414D01*
X102378729Y-59791825D01*
X102378723Y-59791825D01*
X102375545Y-59791500D01*
X101700106Y-59791500D01*
X101024456Y-59791501D01*
X101021279Y-59791826D01*
X101021270Y-59791826D01*
X100972533Y-59796805D01*
X100920574Y-59802113D01*
X100752262Y-59857885D01*
X100601348Y-59950970D01*
X100475970Y-60076348D01*
X100382885Y-60227262D01*
X100361829Y-60290807D01*
X100332119Y-60380467D01*
X100327113Y-60395574D01*
X100326415Y-60402408D01*
X100326414Y-60402412D01*
X100316825Y-60496271D01*
X100316500Y-60499455D01*
X100316501Y-61400544D01*
X100316826Y-61403721D01*
X100316826Y-61403730D01*
X100321204Y-61446582D01*
X100327113Y-61504426D01*
X100382885Y-61672738D01*
X100475970Y-61823652D01*
X100601348Y-61949030D01*
X100607595Y-61952883D01*
X100607596Y-61952884D01*
X100628765Y-61965941D01*
X100752262Y-62042115D01*
X100814689Y-62062801D01*
X100914048Y-62095725D01*
X100914052Y-62095726D01*
X100920574Y-62097887D01*
X100927408Y-62098585D01*
X100927412Y-62098586D01*
X101021271Y-62108175D01*
X101021277Y-62108175D01*
X101024455Y-62108500D01*
X101699894Y-62108500D01*
X102375544Y-62108499D01*
X102378721Y-62108174D01*
X102378730Y-62108174D01*
X102427467Y-62103195D01*
X102479426Y-62097887D01*
X102647738Y-62042115D01*
X102771235Y-61965941D01*
X102792404Y-61952884D01*
X102792405Y-61952883D01*
X102798652Y-61949030D01*
X102924030Y-61823652D01*
X103017115Y-61672738D01*
X103019423Y-61665774D01*
X103022525Y-61659121D01*
X103024779Y-61660172D01*
X103058480Y-61611496D01*
X103124036Y-61584240D01*
X103137671Y-61583500D01*
X104395406Y-61583500D01*
X104463527Y-61603502D01*
X104484501Y-61620405D01*
X104968976Y-62104880D01*
X105003002Y-62167192D01*
X105002026Y-62224906D01*
X104965949Y-62367374D01*
X104946673Y-62600000D01*
X104965949Y-62832626D01*
X104967230Y-62837684D01*
X104967230Y-62837685D01*
X104997085Y-62955578D01*
X105023251Y-63058907D01*
X105025343Y-63063677D01*
X105025344Y-63063679D01*
X105114921Y-63267893D01*
X105117016Y-63272669D01*
X105119866Y-63277031D01*
X105119868Y-63277035D01*
X105152683Y-63327262D01*
X105244686Y-63468083D01*
X105248211Y-63471912D01*
X105248214Y-63471916D01*
X105269993Y-63495574D01*
X105402780Y-63639818D01*
X105406891Y-63643018D01*
X105406898Y-63643024D01*
X105548732Y-63753418D01*
X105586983Y-63783190D01*
X105591564Y-63785669D01*
X105734942Y-63863261D01*
X105792273Y-63894287D01*
X106013049Y-63970080D01*
X106018183Y-63970937D01*
X106018188Y-63970938D01*
X106238151Y-64007643D01*
X106238154Y-64007643D01*
X106243288Y-64008500D01*
X106476712Y-64008500D01*
X106481846Y-64007643D01*
X106481849Y-64007643D01*
X106701812Y-63970938D01*
X106701817Y-63970937D01*
X106706951Y-63970080D01*
X106927727Y-63894287D01*
X106985059Y-63863261D01*
X107128436Y-63785669D01*
X107133017Y-63783190D01*
X107317220Y-63639818D01*
X107320747Y-63635986D01*
X107322248Y-63634605D01*
X107385914Y-63603185D01*
X107456459Y-63611174D01*
X107511487Y-63656034D01*
X107525638Y-63683274D01*
X107545961Y-63737759D01*
X107549111Y-63746204D01*
X107636739Y-63863261D01*
X107753796Y-63950889D01*
X107890799Y-64001989D01*
X107927705Y-64005957D01*
X107948012Y-64008140D01*
X107948015Y-64008140D01*
X107951362Y-64008500D01*
X109848638Y-64008500D01*
X109851985Y-64008140D01*
X109851988Y-64008140D01*
X109872295Y-64005957D01*
X109909201Y-64001989D01*
X110046204Y-63950889D01*
X110163261Y-63863261D01*
X110250889Y-63746204D01*
X110301989Y-63609201D01*
X110308500Y-63548638D01*
X110308500Y-63359500D01*
X110328502Y-63291379D01*
X110382158Y-63244886D01*
X110434500Y-63233500D01*
X110485406Y-63233500D01*
X110553527Y-63253502D01*
X110574501Y-63270405D01*
X112029595Y-64725500D01*
X112063621Y-64787812D01*
X112066500Y-64814595D01*
X112066500Y-72485406D01*
X112046498Y-72553527D01*
X112029595Y-72574501D01*
X110874500Y-73729595D01*
X110812188Y-73763621D01*
X110785405Y-73766500D01*
X106004595Y-73766500D01*
X105936474Y-73746498D01*
X105915500Y-73729595D01*
X105629500Y-73443595D01*
X105595474Y-73381283D01*
X105600539Y-73310468D01*
X105643086Y-73253632D01*
X105709606Y-73228821D01*
X105718595Y-73228500D01*
X105812569Y-73228500D01*
X105817704Y-73227643D01*
X105817706Y-73227643D01*
X106029496Y-73192302D01*
X106029501Y-73192301D01*
X106034635Y-73191444D01*
X106247574Y-73118342D01*
X106445576Y-73011189D01*
X106488031Y-72978145D01*
X106619121Y-72876112D01*
X106623240Y-72872906D01*
X106712413Y-72776039D01*
X106772194Y-72711101D01*
X106772197Y-72711097D01*
X106775722Y-72707268D01*
X106864517Y-72571357D01*
X106918521Y-72525268D01*
X106988868Y-72515693D01*
X107053226Y-72545670D01*
X107075483Y-72571357D01*
X107164278Y-72707268D01*
X107167803Y-72711097D01*
X107167806Y-72711101D01*
X107227587Y-72776039D01*
X107316760Y-72872906D01*
X107320879Y-72876112D01*
X107451970Y-72978145D01*
X107494424Y-73011189D01*
X107692426Y-73118342D01*
X107905365Y-73191444D01*
X107910499Y-73192301D01*
X107910504Y-73192302D01*
X108122294Y-73227643D01*
X108122296Y-73227643D01*
X108127431Y-73228500D01*
X108352569Y-73228500D01*
X108357704Y-73227643D01*
X108357706Y-73227643D01*
X108569496Y-73192302D01*
X108569501Y-73192301D01*
X108574635Y-73191444D01*
X108787574Y-73118342D01*
X108985576Y-73011189D01*
X109028031Y-72978145D01*
X109159121Y-72876112D01*
X109163240Y-72872906D01*
X109252413Y-72776039D01*
X109312194Y-72711101D01*
X109312197Y-72711097D01*
X109315722Y-72707268D01*
X109426574Y-72537596D01*
X109436008Y-72523157D01*
X109436010Y-72523153D01*
X109438860Y-72518791D01*
X109529296Y-72312616D01*
X109584564Y-72094368D01*
X109603156Y-71870000D01*
X109584564Y-71645632D01*
X109529296Y-71427384D01*
X109438860Y-71221209D01*
X109434629Y-71214732D01*
X109318573Y-71037096D01*
X109315722Y-71032732D01*
X109312197Y-71028903D01*
X109312194Y-71028899D01*
X109166772Y-70870931D01*
X109163240Y-70867094D01*
X109144139Y-70852227D01*
X108989689Y-70732012D01*
X108989687Y-70732010D01*
X108985576Y-70728811D01*
X108952320Y-70710814D01*
X108901929Y-70660801D01*
X108886577Y-70591484D01*
X108911137Y-70524871D01*
X108952320Y-70489186D01*
X108980995Y-70473668D01*
X108985576Y-70471189D01*
X109163240Y-70332906D01*
X109247489Y-70241388D01*
X109312194Y-70171101D01*
X109312197Y-70171097D01*
X109315722Y-70167268D01*
X109421299Y-70005670D01*
X109436008Y-69983157D01*
X109436010Y-69983153D01*
X109438860Y-69978791D01*
X109529296Y-69772616D01*
X109584564Y-69554368D01*
X109603156Y-69330000D01*
X109584564Y-69105632D01*
X109529296Y-68887384D01*
X109438860Y-68681209D01*
X109434629Y-68674732D01*
X109318573Y-68497096D01*
X109315722Y-68492732D01*
X109312197Y-68488903D01*
X109312194Y-68488899D01*
X109166772Y-68330931D01*
X109163240Y-68327094D01*
X108985576Y-68188811D01*
X108787574Y-68081658D01*
X108574635Y-68008556D01*
X108569501Y-68007699D01*
X108569496Y-68007698D01*
X108357706Y-67972357D01*
X108357704Y-67972357D01*
X108352569Y-67971500D01*
X108127431Y-67971500D01*
X108122296Y-67972357D01*
X108122294Y-67972357D01*
X107910504Y-68007698D01*
X107910499Y-68007699D01*
X107905365Y-68008556D01*
X107692426Y-68081658D01*
X107494424Y-68188811D01*
X107316760Y-68327094D01*
X107313228Y-68330931D01*
X107167806Y-68488899D01*
X107167803Y-68488903D01*
X107164278Y-68492732D01*
X107161427Y-68497096D01*
X107075483Y-68628643D01*
X107021479Y-68674732D01*
X106951132Y-68684307D01*
X106886774Y-68654330D01*
X106864517Y-68628643D01*
X106778573Y-68497096D01*
X106775722Y-68492732D01*
X106772197Y-68488903D01*
X106772194Y-68488899D01*
X106626772Y-68330931D01*
X106623240Y-68327094D01*
X106445576Y-68188811D01*
X106247574Y-68081658D01*
X106034635Y-68008556D01*
X106029501Y-68007699D01*
X106029496Y-68007698D01*
X105817706Y-67972357D01*
X105817704Y-67972357D01*
X105812569Y-67971500D01*
X105587431Y-67971500D01*
X105582296Y-67972357D01*
X105582294Y-67972357D01*
X105370504Y-68007698D01*
X105370499Y-68007699D01*
X105365365Y-68008556D01*
X105152426Y-68081658D01*
X104954424Y-68188811D01*
X104776760Y-68327094D01*
X104773228Y-68330931D01*
X104715755Y-68393362D01*
X104654901Y-68429933D01*
X104583937Y-68427798D01*
X104525392Y-68387636D01*
X104504998Y-68352056D01*
X104464038Y-68242239D01*
X104464037Y-68242237D01*
X104460889Y-68233796D01*
X104373261Y-68116739D01*
X104256204Y-68029111D01*
X104119201Y-67978011D01*
X104082295Y-67974043D01*
X104061988Y-67971860D01*
X104061985Y-67971860D01*
X104058638Y-67971500D01*
X103919500Y-67971500D01*
X103851379Y-67951498D01*
X103804886Y-67897842D01*
X103793500Y-67845500D01*
X103793500Y-65588767D01*
X103794027Y-65577584D01*
X103795702Y-65570091D01*
X103793562Y-65502000D01*
X103793500Y-65498043D01*
X103793500Y-65470144D01*
X103792996Y-65466153D01*
X103792063Y-65454311D01*
X103790923Y-65418036D01*
X103790674Y-65410111D01*
X103788462Y-65402497D01*
X103788461Y-65402492D01*
X103785023Y-65390659D01*
X103781012Y-65371295D01*
X103779467Y-65359064D01*
X103778474Y-65351203D01*
X103775557Y-65343836D01*
X103775556Y-65343831D01*
X103762198Y-65310092D01*
X103758354Y-65298865D01*
X103748230Y-65264022D01*
X103746018Y-65256407D01*
X103735707Y-65238972D01*
X103727012Y-65221224D01*
X103719552Y-65202383D01*
X103693564Y-65166613D01*
X103687048Y-65156693D01*
X103668580Y-65125465D01*
X103668578Y-65125462D01*
X103664542Y-65118638D01*
X103650221Y-65104317D01*
X103637380Y-65089283D01*
X103630131Y-65079306D01*
X103625472Y-65072893D01*
X103619368Y-65067843D01*
X103619363Y-65067838D01*
X103591402Y-65044707D01*
X103582621Y-65036717D01*
X103120404Y-64574499D01*
X103086379Y-64512187D01*
X103083500Y-64485404D01*
X103083499Y-63602662D01*
X103083499Y-63599456D01*
X103072887Y-63495574D01*
X103017115Y-63327262D01*
X102924030Y-63176348D01*
X102798652Y-63050970D01*
X102647738Y-62957885D01*
X102584193Y-62936829D01*
X102485952Y-62904275D01*
X102485948Y-62904274D01*
X102479426Y-62902113D01*
X102472592Y-62901415D01*
X102472588Y-62901414D01*
X102378729Y-62891825D01*
X102378723Y-62891825D01*
X102375545Y-62891500D01*
X101700106Y-62891500D01*
X101024456Y-62891501D01*
X101021279Y-62891826D01*
X101021270Y-62891826D01*
X100972533Y-62896805D01*
X100920574Y-62902113D01*
X100752262Y-62957885D01*
X100601348Y-63050970D01*
X100475970Y-63176348D01*
X100382885Y-63327262D01*
X100327113Y-63495574D01*
X100326415Y-63502408D01*
X100326414Y-63502412D01*
X100321349Y-63551988D01*
X100316500Y-63599455D01*
X100316501Y-64500544D01*
X100327113Y-64604426D01*
X100382885Y-64772738D01*
X100475970Y-64923652D01*
X100601348Y-65049030D01*
X100752262Y-65142115D01*
X100811693Y-65161808D01*
X100914048Y-65195725D01*
X100914052Y-65195726D01*
X100920574Y-65197887D01*
X100927408Y-65198585D01*
X100927412Y-65198586D01*
X101021271Y-65208175D01*
X101021277Y-65208175D01*
X101024455Y-65208500D01*
X101078732Y-65208500D01*
X101910404Y-65208499D01*
X101978525Y-65228501D01*
X101999500Y-65245404D01*
X102489596Y-65735501D01*
X102523621Y-65797813D01*
X102526500Y-65824596D01*
X102526500Y-67845500D01*
X102506498Y-67913621D01*
X102452842Y-67960114D01*
X102400500Y-67971500D01*
X102261362Y-67971500D01*
X102258015Y-67971860D01*
X102258012Y-67971860D01*
X102237705Y-67974043D01*
X102200799Y-67978011D01*
X102063796Y-68029111D01*
X101946739Y-68116739D01*
X101859111Y-68233796D01*
X101808011Y-68370799D01*
X101801500Y-68431362D01*
X101801500Y-70228638D01*
X101808011Y-70289201D01*
X101859111Y-70426204D01*
X101946739Y-70543261D01*
X101953950Y-70548659D01*
X102051465Y-70621658D01*
X102063796Y-70630889D01*
X102178808Y-70673787D01*
X102235642Y-70716333D01*
X102260453Y-70782853D01*
X102245361Y-70852227D01*
X102227475Y-70877180D01*
X102087806Y-71028899D01*
X102087803Y-71028903D01*
X102084278Y-71032732D01*
X102081427Y-71037096D01*
X101965372Y-71214732D01*
X101961140Y-71221209D01*
X101870704Y-71427384D01*
X101815436Y-71645632D01*
X101796844Y-71870000D01*
X101815436Y-72094368D01*
X101870704Y-72312616D01*
X101961140Y-72518791D01*
X101963990Y-72523153D01*
X101963992Y-72523157D01*
X101973426Y-72537596D01*
X102084278Y-72707268D01*
X102087803Y-72711097D01*
X102087806Y-72711101D01*
X102147587Y-72776039D01*
X102236760Y-72872906D01*
X102240879Y-72876112D01*
X102371970Y-72978145D01*
X102414424Y-73011189D01*
X102612426Y-73118342D01*
X102825365Y-73191444D01*
X102830499Y-73192301D01*
X102830504Y-73192302D01*
X103042294Y-73227643D01*
X103042296Y-73227643D01*
X103047431Y-73228500D01*
X103272569Y-73228500D01*
X103277704Y-73227643D01*
X103277706Y-73227643D01*
X103489501Y-73192301D01*
X103489504Y-73192300D01*
X103494635Y-73191444D01*
X103497924Y-73190315D01*
X103568364Y-73192965D01*
X103617442Y-73223346D01*
X105178501Y-74784405D01*
X105212527Y-74846717D01*
X105207462Y-74917532D01*
X105164915Y-74974368D01*
X105098395Y-74999179D01*
X105089406Y-74999500D01*
X100126500Y-74999500D01*
X100058379Y-74979498D01*
X100011886Y-74925842D01*
X100000500Y-74873500D01*
X100000500Y-50126500D01*
X100020502Y-50058379D01*
X100074158Y-50011886D01*
X100126500Y-50000500D01*
X162183357Y-50000500D01*
X162251478Y-50020502D01*
G37*
G04 #@! TD.AperFunction*
M02*
