<?xml version="1.0" encoding="UTF-8" standalone="no"?>
<!-- Created with Inkscape (http://www.inkscape.org/) -->

<svg
   width="51.300995mm"
   height="50.337402mm"
   viewBox="0 0 51.300994 50.337403"
   version="1.1"
   id="svg5"
   xml:space="preserve"
   inkscape:version="1.2 (dc2aeda, 2022-05-15)"
   sodipodi:docname="taster of gins2.svg"
   xmlns:inkscape="http://www.inkscape.org/namespaces/inkscape"
   xmlns:sodipodi="http://sodipodi.sourceforge.net/DTD/sodipodi-0.dtd"
   xmlns="http://www.w3.org/2000/svg"
   xmlns:svg="http://www.w3.org/2000/svg"><sodipodi:namedview
     id="namedview7"
     pagecolor="#ffffff"
     bordercolor="#000000"
     borderopacity="0.25"
     inkscape:showpageshadow="2"
     inkscape:pageopacity="0.0"
     inkscape:pagecheckerboard="0"
     inkscape:deskcolor="#d1d1d1"
     inkscape:document-units="mm"
     showgrid="false"
     inkscape:zoom="0.57700918"
     inkscape:cx="-250.42929"
     inkscape:cy="-118.71562"
     inkscape:window-width="1800"
     inkscape:window-height="1097"
     inkscape:window-x="0"
     inkscape:window-y="44"
     inkscape:window-maximized="0"
     inkscape:current-layer="layer1" /><defs
     id="defs2" /><g
     inkscape:label="Layer 1"
     inkscape:groupmode="layer"
     id="layer1"
     transform="translate(-60.151877,-92.650877)"><path
       style="fill:#000000;stroke-width:0.352778"
       d="m 88.528021,142.20421 c -0.62418,-0.89113 -0.73051,-3.50962 -0.18399,-4.5308 0.47488,-0.88731 1.62375,-0.87465 2.10426,0.0232 0.38448,0.71841 -0.10253,1.04309 -0.52917,0.35278 -0.11991,-0.19403 -0.36741,-0.35278 -0.54998,-0.35278 -0.43046,0 -0.43474,3.77539 -0.005,4.04124 0.43033,0.26596 0.80872,-0.95866 0.52482,-1.69849 -0.15341,-0.39978 -0.0324,-0.57886 0.39094,-0.57886 0.50653,0 0.57736,0.22003 0.40759,1.2662 -0.2067,1.27376 -0.78376,2.26158 -1.32114,2.26158 -0.15927,0 -0.53671,-0.35283 -0.83875,-0.78406 z m -8.58176,-0.3527 c -0.81197,-0.97837 -0.81355,-2.20836 -0.005,-3.7845 0.92768,-1.80804 1.36807,-2.05049 2.20473,-1.21383 0.70063,0.70064 0.50251,2.49906 -0.45899,4.16649 -0.69824,1.21089 -1.21957,1.45999 -1.74089,0.83184 z m 1.68917,-2.41846 c 0.70327,-2.93156 -0.54328,-3.20359 -1.33747,-0.29187 -0.34951,1.28138 0.0158,2.63628 0.61156,2.2681 0.16261,-0.1005 0.48927,-0.9898 0.72591,-1.97623 z m 1.55065,0.46841 c 0.27317,-2.67082 0.55067,-3.15415 1.49557,-2.60492 0.63028,0.36635 0.62988,0.37895 -0.0122,0.38933 -0.5601,0.009 -0.63229,0.20319 -0.46315,1.24545 0.1102,0.6791 0.0516,1.23472 -0.13023,1.23472 -0.18183,0 -0.3306,0.47625 -0.3306,1.05834 0,0.58208 -0.18067,1.05833 -0.40149,1.05833 -0.28455,0 -0.33055,-0.69364 -0.15794,-2.38125 z m 8.54103,0.92604 c -0.3334,-1.66699 -0.26441,-3.48368 0.13229,-3.48368 0.199,0 0.35278,0.99954 0.35278,2.29306 0,2.51789 -0.1473,2.87945 -0.48507,1.19062 z m 1.73654,-0.0441 c -0.0756,-0.24253 -0.20989,-1.19503 -0.29837,-2.11666 -0.18072,-1.88241 0.14583,-2.09196 1.4097,-0.90463 0.82077,0.77108 0.82077,0.77108 0.596,-0.35277 -0.13763,-0.68813 -0.0822,-1.12385 0.14287,-1.12385 0.2022,0 0.53955,0.80156 0.74965,1.78125 0.67546,3.14957 0.47166,3.48455 -1.0275,1.68879 -0.93174,-1.11606 -0.93174,-1.11606 -0.78085,0.17639 0.0958,0.82097 0.004,1.29245 -0.25156,1.29245 -0.22134,0 -0.46432,-0.19843 -0.53994,-0.44097 z m 3.51103,-1.32291 c -0.11992,-0.19403 0.0295,-0.35278 0.33196,-0.35278 0.77297,0 0.68443,-0.95013 -0.15557,-1.66936 -0.83951,-0.71881 -0.9227,-1.79724 -0.16117,-2.08946 0.74827,-0.28714 1.14293,0.19055 0.50373,0.6097 -0.45263,0.29681 -0.44741,0.3958 0.0408,0.77457 0.93288,0.72377 1.3583,1.79644 0.98032,2.47185 -0.37501,0.67011 -1.19929,0.80684 -1.54006,0.25548 z m 8.857569,-20.01142 c -0.12588,-0.12587 0.35669,-0.82853 1.07237,-1.56145 1.30124,-1.33259 1.30124,-1.33259 -0.081,-1.1748 -1.01101,0.11541 -0.63814,-0.0909 1.3883,-0.76801 2.30257,-0.76942 2.82261,-0.84289 3.07875,-0.43492 0.36534,0.5819 0.0908,1.69698 -0.59551,2.41855 -0.43066,0.4528 -0.56463,0.44324 -1.08538,-0.0775 -0.55691,-0.55691 -0.68648,-0.51835 -2.07136,0.61646 -0.81252,0.6658 -1.58029,1.10755 -1.70616,0.98168 z m 4.60264,-3.51124 c -0.10126,-0.10126 -0.36112,-0.0747 -0.57748,0.059 -0.28236,0.17451 -0.2641,0.3991 0.0647,0.79582 0.41273,0.49795 0.46993,0.4921 0.57749,-0.059 0.0657,-0.33645 0.0365,-0.69457 -0.0647,-0.79582 z m -48.256729,1.36919 c -1.28913,-0.67223 -1.92831,-1.23451 -2.0051,-1.76389 -0.14249,-0.98219 0.39182,-0.99274 2.89244,-0.0571 1.98798,0.7438 3.74668,1.90823 3.74668,2.48066 0,0.69828 -2.79216,0.30084 -4.63402,-0.65962 z m 1.98818,-0.58083 c -2.38232,-1.08625 -3.35139,-1.3669 -3.35139,-0.97056 0,0.46884 3.17521,1.8131 4.23334,1.79222 0.69841,-0.0138 0.51488,-0.18476 -0.88195,-0.82166 z m -0.84158,-1.77683 c -2.95302,-0.95594 -3.57031,-1.38059 -2.93314,-2.01776 0.32926,-0.32926 0.42333,-0.29629 0.42333,0.14835 0,0.68496 2.18713,1.29833 2.39593,0.67193 0.0728,-0.21832 0.29482,-0.39695 0.49344,-0.39695 0.19862,0 0.26907,0.23989 0.15656,0.53308 -0.15197,0.39603 0.20112,0.64159 1.37337,0.95511 0.86786,0.23212 1.57793,0.54786 1.57793,0.70164 0,0.43169 -0.66583,0.31801 -3.48742,-0.5954 z m 41.970249,0.0813 c -0.16499,-0.43656 -0.24067,-0.89536 -0.16816,-1.01956 0.24476,-0.41927 4.76515,-2.08359 5.0989,-1.87732 0.44273,0.27362 0.42463,1.57397 -0.0219,1.57397 -0.19403,0 -0.35278,-0.23472 -0.35278,-0.52161 0,-0.42835 -0.15768,-0.44976 -0.88194,-0.11976 -0.48507,0.22101 -0.88195,0.54207 -0.88195,0.71346 0,0.17139 -0.19844,0.28585 -0.44097,0.25435 -1.37892,-0.17906 -1.75602,0.0364 -1.58935,0.90828 0.20985,1.09775 -0.35556,1.1632 -0.76185,0.0882 z m -40.599499,-1.89325 c -1.26118,-0.48749 -2.57087,-0.97398 -2.91042,-1.08109 -0.67592,-0.21323 -0.87552,-2.02794 -0.26458,-2.40552 0.20042,-0.12386 0.35278,0.17564 0.35278,0.69347 0,1.06246 1.51948,1.88882 2.29287,1.24696 0.32433,-0.26917 0.488,-0.19637 0.61034,0.27146 0.0963,0.36816 0.7878,0.84409 1.63059,1.12224 0.80488,0.26563 1.46342,0.61631 1.46342,0.77928 0,0.46631 -0.70929,0.32629 -3.175,-0.6268 z m 40.064619,-1.58571 c 0.13331,-0.2157 1.11035,-0.77603 2.17122,-1.24519 1.36954,-0.60568 1.87112,-1.00343 1.7298,-1.37173 -0.44221,-1.15238 0.51365,-0.42594 1.01343,0.77019 0.59068,1.41369 0.42952,2.01422 -0.2801,1.04376 -0.42117,-0.57598 -0.54792,-0.55808 -2.02482,0.28609 -1.63486,0.93445 -3.03956,1.21268 -2.60953,0.51688 z m -40.327319,-1.6654 c -1.21163,-0.51758 -2.20382,-1.07081 -2.20486,-1.22941 -0.002,-0.37636 1.09443,-0.0252 3.70228,1.1854 2.7046,1.25547 1.42651,1.29303 -1.49742,0.044 z m 38.786039,-0.12966 c -0.50367,-0.50368 -0.56072,-1.34056 -0.0914,-1.34056 0.18258,0 0.43007,0.15875 0.54999,0.35278 0.38567,0.62402 0.7348,0.38342 1.55103,-1.06887 0.86456,-1.53828 2.25247,-2.65719 2.84318,-2.29211 0.20256,0.12519 0.36324,0.65481 0.35707,1.17694 -0.0108,0.9109 -0.0322,0.92161 -0.52917,0.26453 -0.51271,-0.67787 -0.52318,-0.67787 -1.03589,0 -0.28487,0.37663 -0.523,0.79167 -0.52917,0.9223 -0.0221,0.46844 -1.84663,2.40832 -2.26508,2.40832 -0.23499,0 -0.61775,-0.1905 -0.85058,-0.42333 z m -37.703319,-0.98322 c -2.50998,-1.43955 -3.00679,-3.20712 -0.88739,-3.1572 0.94373,0.0222 0.94447,0.0243 0.12602,0.35234 -1.18755,0.47597 -0.8164,1.08011 1.34015,2.18146 2.06175,1.05293 2.60522,1.02424 1.60177,-0.0846 -0.35226,-0.38924 -0.48479,-0.70772 -0.29452,-0.70772 0.47317,0 1.88006,1.53497 1.88006,2.05121 0,0.75366 -1.90418,0.43232 -3.76609,-0.63554 z m 1.82581,-2.32233 c -2.7989,-1.81019 -3.49758,-2.717 -1.18482,-1.53777 2.39266,1.21997 4.18344,2.41925 4.18344,2.80163 0,0.57986 -0.42456,0.40091 -2.99862,-1.26386 z m 34.395839,1.14939 c 0,-0.25456 0.48066,-0.8182 1.06814,-1.25254 1.30408,-0.96415 1.08335,-1.55805 -0.38839,-1.045 -1.8772,0.6544 -1.56341,-0.0194 0.43515,-0.93433 2.17329,-0.99496 4.17848,-1.48683 4.17335,-1.02371 -0.004,0.32552 -4.73871,4.7184 -5.08599,4.7184 -0.11124,0 -0.20226,-0.20827 -0.20226,-0.46282 z m -33.700189,-2.74829 c -1.28318,-1.23217 -2.15552,-2.29948 -1.93855,-2.37181 0.4915,-0.16383 6.35818,2.45105 6.35818,2.83395 0,0.40774 -0.46021,0.34604 -1.89719,-0.25437 -1.46219,-0.61094 -1.60731,-0.39148 -0.51206,0.77436 0.42116,0.4483 0.66605,0.91479 0.5442,1.03663 -0.12185,0.12185 -1.27141,-0.78659 -2.55458,-2.01876 z m 3.88136,-0.40755 c -1.42388,-0.78477 -4.44878,-3.15354 -4.26356,-3.33876 0.10553,-0.10553 1.24654,0.46938 2.53556,1.2776 1.53089,0.95986 2.57494,1.39607 3.01053,1.25782 0.84433,-0.26798 0.87622,0.40458 0.0404,0.8519 -0.40896,0.21887 -0.86827,0.20201 -1.32291,-0.0486 z m 27.70216,-0.57217 c 0,-0.23959 1.760889,-1.80321 3.496219,-3.10456 0.0797,-0.0597 -0.14338,-0.42708 -0.49565,-0.81633 -1.07786,-1.191023 -0.19679,-0.788864 1.6389,0.74807 1.78744,1.49652 2.0897,2.27995 0.47026,1.21885 -0.89424,-0.58593 -0.9382,-0.57192 -2.61761,0.83416 -1.65433,1.38508 -2.492119,1.76153 -2.492119,1.11981 z m -25.34861,-2.6837 c -1.85587,-2.113719 -2.21736,-5.472686 -0.58896,-5.472686 0.74632,0 0.94881,0.570647 0.37227,1.04913 -0.63395,0.526133 -0.37447,2.189208 0.59313,3.801566 0.8166,1.36073 1.43996,1.50692 1.12815,0.26458 -0.27551,-1.097719 0.12377,-1.163985 0.53143,-0.0882 0.29085,0.76755 -0.0793,1.6757 -0.68295,1.6757 -0.15017,0 -0.75905,-0.55354 -1.35307,-1.23009 z m 21.22636,-0.0476 c -0.33282,-0.86732 1.34138,-5.425079 1.9928,-5.425079 0.70724,0 1.4239,1.184544 1.4239,2.353533 0,0.945285 -0.2886,1.533401 -1.19945,2.444246 -1.32717,1.32717 -1.88782,1.48579 -2.21725,0.6273 z m 2.70574,-3.295087 c -0.003,-0.298369 -0.14132,-0.756988 -0.30746,-1.019147 -0.2886,-0.455433 -0.44399,-0.138476 -1.61721,3.298874 -0.15775,0.46216 0.13363,0.28421 0.84462,-0.515839 0.597,-0.671766 1.08302,-1.465516 1.08005,-1.763888 z m -20.66162,2.761127 c -0.94377,-1.527044 -2.26354,-4.250104 -2.26354,-4.670322 0,-0.518326 1.01707,-1.085211 1.34989,-0.752387 0.10482,0.104814 0.015,0.366148 -0.1996,0.580747 -0.53597,0.535975 0.17292,2.079099 0.8379,1.823924 0.31856,-0.122244 0.4213,-0.01065 0.29447,0.31986 -0.32844,0.855895 0.47378,2.493908 1.10312,2.252408 0.34991,-0.13428 0.49966,-0.0501 0.40683,0.22872 -0.20302,0.60974 -1.199,0.75112 -1.52907,0.21705 z m 14.84438,-0.30793 c -0.3373,-0.545756 0.93177,-5.329314 1.46849,-5.535272 0.26048,-0.09996 0.75141,-0.05745 1.09096,0.09446 0.54971,0.245936 0.53448,0.290879 -0.13902,0.410161 -0.77739,0.137682 -1.3711,1.701235 -0.78381,2.064198 0.16801,0.103836 0.30547,0.347539 0.30547,0.541566 0,0.194028 -0.14212,0.264947 -0.31582,0.157597 -0.17369,-0.10735 -0.41182,0.05502 -0.52916,0.36081 -0.39081,1.018424 -0.22063,1.556622 0.4922,1.556622 0.38805,0 0.70555,0.158748 0.70555,0.352778 0,0.46137 -2.00949,0.45881 -2.29486,-0.003 z m -13.40327,-2.714676 c -1.39314,-3.015263 -1.37582,-3.735945 0.0857,-3.567832 0.80974,0.09314 0.9568,0.263539 0.88031,1.019993 -0.0701,0.693702 0.24393,1.177995 1.32997,2.050757 1.70323,1.36876 1.52733,2.247635 -0.188,0.939289 -1.26237,-0.962858 -1.88387,-1.178652 -1.32091,-0.458636 0.56212,0.718929 1.14606,2.734025 0.79227,2.734025 -0.17806,0 -0.88876,-1.222919 -1.57935,-2.717596 z m 0.3523,-2.574068 c 0.11992,-0.194028 -0.0295,-0.352778 -0.33196,-0.352778 -0.30249,0 -0.54998,0.15875 -0.54998,0.352778 0,0.194028 0.14938,0.352778 0.33195,0.352778 0.18258,0 0.43007,-0.15875 0.54999,-0.352778 z m 11.11862,4.497917 c 0.0157,-1.131761 1.08654,-5.376429 1.44057,-5.710368 0.46719,-0.440676 0.15754,3.117521 -0.43555,5.004812 -0.35147,1.118411 -1.01724,1.585813 -1.00502,0.705556 z m -2.36602,-3.436091 c 0.0668,-2.818726 0.0668,-2.818726 1.56615,-2.822222 0.82462,-0.0018 1.49931,0.155257 1.49931,0.349285 0,0.194028 -0.48842,0.352778 -1.08537,0.352778 -1.02227,0 -1.07927,0.07067 -0.98061,1.215799 0.0576,0.66869 -0.01,1.330148 -0.14936,1.469908 -0.13976,0.13976 -0.25411,0.703898 -0.25411,1.253646 0,0.549744 -0.14914,0.999535 -0.33143,0.999535 -0.18465,0 -0.30183,-1.248353 -0.26458,-2.818729 z m -4.46047,1.877987 c -0.12935,-0.129349 -0.23735,-0.804036 -0.24,-1.499305 -0.008,-2.225671 -0.32021,-2.872027 -1.27017,-2.633603 -0.48197,0.120964 -0.84168,0.05483 -0.84168,-0.15476 0,-0.201305 0.88571,-0.549885 1.96825,-0.774618 2.09028,-0.433942 2.96112,-0.241364 1.4708,0.325254 -0.8583,0.326323 -0.88508,0.427034 -0.70618,2.655704 0.17986,2.240643 0.11772,2.580072 -0.38102,2.081328 z m 2.11667,-0.352777 c -0.35334,-0.353342 -0.28311,-4.350925 0.0764,-4.350925 0.42657,0 0.73611,1.2879 0.74189,3.086806 0.005,1.402288 -0.26455,1.817906 -0.81833,1.264119 z"
       id="path353853"
       sodipodi:nodetypes="csssscssssccccssccsssscscssssccssssssssssscsssssssssssssssssssssssscssssssssssssssssssssssssssssssssssssssssssssssssscsssssssscssssssssssssssssssssssscssssssssssssssssssssssssssssssssssssscssscssssssssscsssssssssccsscsssssssssssssssccssscsscscsssssscsccc" /><path
       style="fill:#000000;stroke-width:0.352778"
       d="m 84.549329,136.66737 c -4.21962,-0.53914 -9.37545,-3.52109 -12.01177,-6.94718 -1.68679,-2.19212 -3.76977,-6.17062 -3.72584,-7.11639 0.0135,-0.29104 0.23248,0.0351 0.48657,0.72485 1.48525,4.03154 4.08458,7.57186 6.97786,9.50392 1.16371,0.77709 2.26622,1.4129 2.45003,1.4129 0.18771,0 0.25113,-0.65717 0.14468,-1.49931 -0.50276,-3.97743 -0.98626,-14.41163 -0.78758,-16.99639 0.2961,-3.85218 0.72534,-4.98013 2.69936,-7.09345 1.9824,-2.1223 2.51605,-4.19032 1.57042,-6.08586 -0.31095,-0.62333 -0.6728,-1.13109 -0.80412,-1.12836 -0.59179,0.0123 -5.59385,2.96757 -6.86609,4.05656 -0.77698,0.66506 -2.02462,2.0236 -2.77253,3.01898 -0.74792,0.99538 -1.35984,1.69605 -1.35984,1.55704 0,-0.53441 2.58519,-3.74008 4.04156,-5.01159 0.83968,-0.73309 2.81137,-1.9679 4.38152,-2.74401 1.81343,-0.89636 2.85683,-1.6207 2.86032,-1.98567 0.008,-0.86385 1.75561,-1.417362 4.09389,-1.296821 1.83971,0.09484 2.0982,0.198787 2.19554,0.882946 0.0896,0.629895 0.42072,0.820925 1.76389,1.017675 5.14031,0.75297 8.34753,2.77379 11.315231,7.12955 2.4114,3.53927 3.30617,6.07299 3.49304,9.89128 0.15043,3.07359 0.0823,3.50474 -1.02875,6.50592 -0.93273,2.51961 -1.58459,3.64214 -3.01656,5.19467 -1.447851,1.56973 -1.850261,2.26813 -1.940281,3.36737 -0.0991,1.21013 -0.29658,1.48753 -1.54964,2.17667 -2.83582,1.5596 -7.56719,2.10913 -12.61091,1.4647 z m 8.75531,-0.73256 c 1.16417,-0.20395 2.73094,-0.68039 3.48172,-1.05874 1.35307,-0.6819 1.36357,-0.70321 1.19756,-2.43091 -0.0921,-0.95864 -0.23162,-1.80712 -0.31001,-1.88552 -0.0784,-0.0784 -1.09355,0.20261 -2.2559,0.62445 -1.90724,0.69218 -2.80755,0.76706 -9.23073,0.76766 -7.11737,7e-4 -7.11737,7e-4 -6.93684,1.059 0.30965,1.81522 0.38911,1.89639 2.44013,2.49264 2.04548,0.59464 8.0145,1.23025 8.96824,0.95498 0.29104,-0.084 1.48167,-0.3196 2.64583,-0.52356 z m -8.74462,-6.27545 c 0.45744,-0.90875 0.64304,-7.56447 0.24021,-8.6142 -0.28311,-0.73778 -2.25531,-0.76301 -2.25531,-0.0288 0,0.29398 0.31358,0.52916 0.70556,0.52916 0.66444,0 0.70555,0.23519 0.70555,4.03613 0,2.25343 -0.1526,4.13043 -0.34548,4.24964 -0.60304,0.3727 -1.68311,-0.46999 -2.08686,-1.62818 -0.77613,-2.22643 -0.30218,-10.18537 0.60654,-10.18537 0.14174,0 0.61052,0.24713 1.04175,0.54917 0.70105,0.49104 0.78405,0.4919 0.78405,0.008 0,-0.29757 -0.40094,-0.80374 -0.89098,-1.12483 -0.83415,-0.54656 -0.93529,-0.5437 -1.58552,0.0447 -1.00468,0.90922 -1.39985,2.72519 -1.40209,6.44314 -0.002,3.36629 0.42492,5.03946 1.58088,6.19542 0.86402,0.86402 2.35036,0.62116 2.9017,-0.47412 z m 16.032071,-0.64623 c 1.70572,-1.89785 3.4903,-5.96805 3.7382,-8.526 0.48736,-5.02857 -1.78363,-10.97076 -5.719311,-14.965 -1.24122,-1.25969 -2.8318,-2.53061 -3.53462,-2.82427 -1.01562,-0.42435 -5.93166,-1.6135 -6.67035,-1.6135 -0.0912,0 -0.27573,0.87925 -0.41,1.9539 -0.29358,2.34977 0.15318,3.01735 2.57055,3.84103 3.44409,1.17352 4.66948,2.96424 5.2079,7.61062 0.12367,1.06716 0.52589,3.60716 0.89383,5.64445 0.36795,2.03729 0.84116,5.12124 1.05158,6.85323 0.54482,4.48431 0.61676,4.53505 2.872221,2.02554 z m -12.755501,0.37239 c 0,-0.34464 -0.14752,-1.89245 -0.32781,-3.43958 -0.18029,-1.54714 -0.43196,-4.04328 -0.55926,-5.547 -0.25125,-2.96782 -0.87682,-3.75098 -0.87682,-1.0977 0,1.71999 0.68942,9.51334 0.9085,10.26992 0.19403,0.67007 0.85539,0.52654 0.85539,-0.18564 z m 2.2712,-1.04908 c -0.13281,-0.92163 -0.43282,-2.90601 -0.66668,-4.40972 -0.23387,-1.50372 -0.3631,-2.73403 -0.28719,-2.73403 0.0759,0 0.62162,1.06655 1.21269,2.37011 1.31786,2.90649 3.32571,6.09656 3.83721,6.09656 0.23982,0 0.31006,-0.55005 0.19147,-1.49931 -0.10302,-0.82462 -0.28601,-3.49779 -0.40664,-5.94038 -0.21818,-4.41793 -0.5237,-5.76858 -1.1493,-5.08097 -0.18966,0.20846 -0.14946,2.13179 0.0995,4.75955 0.22975,2.42534 0.38208,4.46015 0.33849,4.5218 -0.0436,0.0617 -1.08713,-1.88236 -2.31901,-4.32001 -1.23187,-2.43765 -2.35883,-4.43277 -2.50435,-4.43361 -0.36649,-0.002 -0.33077,2.64651 0.0771,5.71671 0.18794,1.41463 0.43749,3.48486 0.55456,4.60052 0.15384,1.46616 0.3585,2.02847 0.73825,2.02847 0.42549,0 0.47948,-0.31862 0.28392,-1.67569 z m 3.81422,-12.40619 c 1.17451,-0.36859 1.32291,-0.54463 1.32291,-1.56928 0,-1.78113 -0.95799,-4.59357 -1.84571,-5.41859 -0.44007,-0.40898 -1.75262,-1.15909 -2.91679,-1.66691 -2.29976,-1.00317 -2.99861,-1.67111 -2.99861,-2.86601 0,-0.92862 -0.85215,-1.21627 -2.82085,-0.95221 -1.38116,0.18525 -1.41248,0.22075 -1.41248,1.60067 0,1.63625 -0.99857,3.44575 -2.48604,4.50492 -0.69082,0.4919 -1.20046,1.32023 -1.56263,2.53978 -0.78398,2.63996 -0.71218,3.74767 0.25631,3.95434 0.43656,0.0932 1.11125,0.24453 1.4993,0.3364 1.34424,0.31822 11.64767,-0.0498 12.96459,-0.46311 z m -14.3169,-0.26441 c -0.12936,-0.12935 -0.23519,-0.55657 -0.23519,-0.94937 0,-0.70371 0.008,-0.70415 0.51795,-0.0294 0.46865,0.61962 0.51901,0.62603 0.52917,0.0674 0.0128,-0.70447 0.71677,-0.86039 0.71677,-0.15875 0,0.85259 -1.02718,1.57161 -1.5287,1.07009 z m 6.83278,-0.79996 c -0.53571,-1.00098 -0.42424,-1.36564 0.17519,-0.57312 0.50193,0.6636 0.51795,0.65869 0.51795,-0.15875 0,-0.54332 0.12145,-0.7221 0.34123,-0.50232 0.38528,0.38528 0.0897,1.91656 -0.36996,1.91656 -0.16457,0 -0.46356,-0.30707 -0.66441,-0.68237 z m 6.32729,-0.21199 c -0.24366,-0.29359 -0.34103,-0.6358 -0.21636,-0.76046 0.12466,-0.12467 0.22666,-0.0414 0.22666,0.18491 0,0.73985 0.6526,0.43169 0.80937,-0.38218 0.1339,-0.6952 0.15884,-0.67589 0.20092,0.15557 0.0583,1.1522 -0.41884,1.52723 -1.02059,0.80216 z m -5.28137,-13.03764 c 0,-1.232 0,-1.232 -2.46944,-1.15757 -2.46945,0.0744 -2.46945,0.0744 -2.46945,1.232 0,1.15757 0,1.15757 2.46945,1.15757 2.46944,0 2.46944,0 2.46944,-1.232 z m -0.35278,-1.943003 c 0.66121,-0.427306 -0.481,-0.434594 -2.82222,-0.01799 -1.5875,0.282473 -1.5875,0.282473 0.35278,0.321226 1.06715,0.02131 2.1784,-0.115133 2.46944,-0.30322 z m -18.61538,20.813883 c 0,-0.67909 0.0726,-0.9569 0.16134,-0.61736 0.0887,0.33955 0.0887,0.89518 0,1.23473 -0.0887,0.33954 -0.16134,0.0617 -0.16134,-0.61737 z m -0.39945,-2.67523 c 0.0193,-0.56591 0.17005,-1.42581 0.33491,-1.91088 0.20214,-0.59477 0.23341,-0.30759 0.096,0.88195 -0.22919,1.98443 -0.48442,2.59381 -0.43093,1.02893 z m 1.03397,-4.55671 c 0,-0.19403 0.15388,-0.5909 0.34197,-0.88194 0.18809,-0.29105 0.34197,-0.37042 0.34197,-0.17639 0,0.19403 -0.15388,0.5909 -0.34197,0.88194 -0.18809,0.29104 -0.34197,0.37042 -0.34197,0.17639 z m 0.69475,-1.91946 c 0,-0.18257 0.15693,-0.42895 0.34874,-0.54749 0.19997,-0.12359 0.25911,0.018 0.13864,0.33196 -0.23452,0.61116 -0.48738,0.72298 -0.48738,0.21553 z"
       id="path101299" /></g></svg>
