%FSLAX45Y45*%
G04 Gerber Fmt 4.5, Leading zero omitted, Abs format (unit mm)*
G04 Created by KiCad (PCBNEW (6.99.0-2103-gdc6c27b686)) date 2022-07-02 12:13:24*
%MOMM*%
%LPD*%
G01*
G04 APERTURE LIST*
%TA.AperFunction,Profile*%
%ADD10C,0.100000*%
%TD*%
%ADD11C,0.200000*%
G04 APERTURE END LIST*
D10*
X13980000Y-4750000D02*
X13840000Y-5080000D01*
X12640000Y-5350000D01*
X9680000Y-5470000D01*
X9470000Y-6000000D01*
X7420000Y-6020000D01*
X6320000Y-5910000D01*
X6260000Y-4890000D01*
X5940000Y-4520000D01*
X6150000Y-4190000D01*
X6330000Y-3210000D01*
X12200000Y-4050000D01*
X12230000Y-2990000D01*
X13150000Y-2990000D01*
X13980000Y-4750000D01*
D11*
X6182619Y-6318476D02*
X6182619Y-6118476D01*
X6182619Y-6118476D02*
X6230238Y-6118476D01*
X6230238Y-6118476D02*
X6258809Y-6128000D01*
X6258809Y-6128000D02*
X6277857Y-6147048D01*
X6277857Y-6147048D02*
X6287381Y-6166095D01*
X6287381Y-6166095D02*
X6296905Y-6204190D01*
X6296905Y-6204190D02*
X6296905Y-6232762D01*
X6296905Y-6232762D02*
X6287381Y-6270857D01*
X6287381Y-6270857D02*
X6277857Y-6289905D01*
X6277857Y-6289905D02*
X6258809Y-6308952D01*
X6258809Y-6308952D02*
X6230238Y-6318476D01*
X6230238Y-6318476D02*
X6182619Y-6318476D01*
X6382619Y-6318476D02*
X6382619Y-6185143D01*
X6382619Y-6223238D02*
X6392143Y-6204190D01*
X6392143Y-6204190D02*
X6401667Y-6194667D01*
X6401667Y-6194667D02*
X6420714Y-6185143D01*
X6420714Y-6185143D02*
X6439762Y-6185143D01*
X6506428Y-6318476D02*
X6506428Y-6185143D01*
X6506428Y-6118476D02*
X6496905Y-6128000D01*
X6496905Y-6128000D02*
X6506428Y-6137524D01*
X6506428Y-6137524D02*
X6515952Y-6128000D01*
X6515952Y-6128000D02*
X6506428Y-6118476D01*
X6506428Y-6118476D02*
X6506428Y-6137524D01*
X6630238Y-6318476D02*
X6611190Y-6308952D01*
X6611190Y-6308952D02*
X6601667Y-6289905D01*
X6601667Y-6289905D02*
X6601667Y-6118476D01*
X6735000Y-6318476D02*
X6715952Y-6308952D01*
X6715952Y-6308952D02*
X6706428Y-6289905D01*
X6706428Y-6289905D02*
X6706428Y-6118476D01*
X6931190Y-6318476D02*
X6931190Y-6118476D01*
X6931190Y-6118476D02*
X6997857Y-6261333D01*
X6997857Y-6261333D02*
X7064524Y-6118476D01*
X7064524Y-6118476D02*
X7064524Y-6318476D01*
X7245476Y-6318476D02*
X7245476Y-6213714D01*
X7245476Y-6213714D02*
X7235952Y-6194667D01*
X7235952Y-6194667D02*
X7216905Y-6185143D01*
X7216905Y-6185143D02*
X7178809Y-6185143D01*
X7178809Y-6185143D02*
X7159762Y-6194667D01*
X7245476Y-6308952D02*
X7226428Y-6318476D01*
X7226428Y-6318476D02*
X7178809Y-6318476D01*
X7178809Y-6318476D02*
X7159762Y-6308952D01*
X7159762Y-6308952D02*
X7150238Y-6289905D01*
X7150238Y-6289905D02*
X7150238Y-6270857D01*
X7150238Y-6270857D02*
X7159762Y-6251809D01*
X7159762Y-6251809D02*
X7178809Y-6242286D01*
X7178809Y-6242286D02*
X7226428Y-6242286D01*
X7226428Y-6242286D02*
X7245476Y-6232762D01*
X7340714Y-6185143D02*
X7340714Y-6385143D01*
X7340714Y-6194667D02*
X7359762Y-6185143D01*
X7359762Y-6185143D02*
X7397857Y-6185143D01*
X7397857Y-6185143D02*
X7416905Y-6194667D01*
X7416905Y-6194667D02*
X7426428Y-6204190D01*
X7426428Y-6204190D02*
X7435952Y-6223238D01*
X7435952Y-6223238D02*
X7435952Y-6280381D01*
X7435952Y-6280381D02*
X7426428Y-6299428D01*
X7426428Y-6299428D02*
X7416905Y-6308952D01*
X7416905Y-6308952D02*
X7397857Y-6318476D01*
X7397857Y-6318476D02*
X7359762Y-6318476D01*
X7359762Y-6318476D02*
X7340714Y-6308952D01*
X7521667Y-6299428D02*
X7531190Y-6308952D01*
X7531190Y-6308952D02*
X7521667Y-6318476D01*
X7521667Y-6318476D02*
X7512143Y-6308952D01*
X7512143Y-6308952D02*
X7521667Y-6299428D01*
X7521667Y-6299428D02*
X7521667Y-6318476D01*
X7521667Y-6194667D02*
X7531190Y-6204190D01*
X7531190Y-6204190D02*
X7521667Y-6213714D01*
X7521667Y-6213714D02*
X7512143Y-6204190D01*
X7512143Y-6204190D02*
X7521667Y-6194667D01*
X7521667Y-6194667D02*
X7521667Y-6213714D01*
M02*
