%TF.GenerationSoftware,KiCad,Pcbnew,(6.99.0-2452-gdb4f2d9dd8)*%
%TF.CreationDate,2022-07-19T11:49:01+04:00*%
%TF.ProjectId,Mooney,4d6f6f6e-6579-42e6-9b69-6361645f7063,rev?*%
%TF.SameCoordinates,Original*%
%TF.FileFunction,Copper,L1,Top*%
%TF.FilePolarity,Positive*%
%FSLAX46Y46*%
G04 Gerber Fmt 4.6, Leading zero omitted, Abs format (unit mm)*
G04 Created by KiCad (PCBNEW (6.99.0-2452-gdb4f2d9dd8)) date 2022-07-19 11:49:01*
%MOMM*%
%LPD*%
G01*
G04 APERTURE LIST*
%TA.AperFunction,ComponentPad*%
%ADD10R,1.700000X1.700000*%
%TD*%
%TA.AperFunction,ComponentPad*%
%ADD11O,1.700000X1.700000*%
%TD*%
G04 APERTURE END LIST*
D10*
X68974999Y-37024999D03*
D11*
X68974999Y-39564999D03*
X71514999Y-37024999D03*
X71514999Y-39564999D03*
X74054999Y-37024999D03*
X74054999Y-39564999D03*
%TA.AperFunction,NonConductor*%
G36*
X72868226Y-37700670D02*
G01*
X72890483Y-37726357D01*
X72979278Y-37862268D01*
X72982803Y-37866097D01*
X72982806Y-37866101D01*
X73047511Y-37936388D01*
X73131760Y-38027906D01*
X73309424Y-38166189D01*
X73314005Y-38168668D01*
X73342680Y-38184186D01*
X73393071Y-38234199D01*
X73408423Y-38303516D01*
X73383863Y-38370129D01*
X73342681Y-38405813D01*
X73309424Y-38423811D01*
X73305313Y-38427010D01*
X73305311Y-38427012D01*
X73150861Y-38547227D01*
X73131760Y-38562094D01*
X73128228Y-38565931D01*
X72982806Y-38723899D01*
X72982803Y-38723903D01*
X72979278Y-38727732D01*
X72976427Y-38732096D01*
X72890483Y-38863643D01*
X72836479Y-38909732D01*
X72766132Y-38919307D01*
X72701774Y-38889330D01*
X72679517Y-38863643D01*
X72593573Y-38732096D01*
X72590722Y-38727732D01*
X72587197Y-38723903D01*
X72587194Y-38723899D01*
X72441772Y-38565931D01*
X72438240Y-38562094D01*
X72419139Y-38547227D01*
X72264689Y-38427012D01*
X72264687Y-38427010D01*
X72260576Y-38423811D01*
X72227320Y-38405814D01*
X72176929Y-38355801D01*
X72161577Y-38286484D01*
X72186137Y-38219871D01*
X72227320Y-38184186D01*
X72255995Y-38168668D01*
X72260576Y-38166189D01*
X72438240Y-38027906D01*
X72522489Y-37936388D01*
X72587194Y-37866101D01*
X72587197Y-37866097D01*
X72590722Y-37862268D01*
X72679517Y-37726357D01*
X72733521Y-37680268D01*
X72803868Y-37670693D01*
X72868226Y-37700670D01*
G37*
%TD.AperFunction*%
%TA.AperFunction,NonConductor*%
G36*
X70498439Y-37936388D02*
G01*
X70530755Y-37961638D01*
X70551526Y-37984201D01*
X70591760Y-38027906D01*
X70769424Y-38166189D01*
X70774005Y-38168668D01*
X70802680Y-38184186D01*
X70853071Y-38234199D01*
X70868423Y-38303516D01*
X70843863Y-38370129D01*
X70802681Y-38405813D01*
X70769424Y-38423811D01*
X70765313Y-38427010D01*
X70765311Y-38427012D01*
X70610861Y-38547227D01*
X70591760Y-38562094D01*
X70588228Y-38565931D01*
X70442806Y-38723899D01*
X70442803Y-38723903D01*
X70439278Y-38727732D01*
X70436427Y-38732096D01*
X70350483Y-38863643D01*
X70296479Y-38909732D01*
X70226132Y-38919307D01*
X70161774Y-38889330D01*
X70139517Y-38863643D01*
X70053573Y-38732096D01*
X70050722Y-38727732D01*
X70047197Y-38723903D01*
X70047194Y-38723899D01*
X69907525Y-38572180D01*
X69876104Y-38508515D01*
X69884091Y-38437969D01*
X69928949Y-38382940D01*
X69956191Y-38368787D01*
X70071204Y-38325889D01*
X70083536Y-38316658D01*
X70181050Y-38243659D01*
X70188261Y-38238261D01*
X70275889Y-38121204D01*
X70319998Y-38002944D01*
X70362545Y-37946108D01*
X70429065Y-37921297D01*
X70498439Y-37936388D01*
G37*
%TD.AperFunction*%
%TA.AperFunction,NonConductor*%
G36*
X131487916Y-29920502D02*
G01*
X131533758Y-29972756D01*
X134339170Y-35921582D01*
X139775391Y-47448991D01*
X139786356Y-47519134D01*
X139777421Y-47551942D01*
X138424893Y-50740043D01*
X138379875Y-50794942D01*
X138336559Y-50813761D01*
X133983305Y-51793244D01*
X126411078Y-53496996D01*
X126388531Y-53499964D01*
X106456099Y-54308036D01*
X96819529Y-54698707D01*
X96819528Y-54698707D01*
X96799973Y-54699500D01*
X96799785Y-54699503D01*
X96799706Y-54699585D01*
X96799602Y-54699633D01*
X96799524Y-54699845D01*
X96795686Y-54709530D01*
X96795686Y-54709531D01*
X94730863Y-59920749D01*
X94687174Y-59976711D01*
X94614952Y-60000329D01*
X83528862Y-60108487D01*
X74206922Y-60199433D01*
X74193167Y-60198814D01*
X63307407Y-59110238D01*
X63241616Y-59083558D01*
X63200693Y-59025542D01*
X63194163Y-58992263D01*
X62942238Y-54709531D01*
X62600507Y-48900105D01*
X62600540Y-48900039D01*
X62600495Y-48899904D01*
X62600493Y-48899872D01*
X62600465Y-48899813D01*
X62600443Y-48899748D01*
X62600422Y-48899723D01*
X62600360Y-48899595D01*
X62600290Y-48899571D01*
X59461976Y-45270895D01*
X59432544Y-45206287D01*
X59442713Y-45136022D01*
X59450977Y-45120826D01*
X61493752Y-41910750D01*
X61500397Y-41900308D01*
X61500474Y-41900188D01*
X61929386Y-39565000D01*
X67611844Y-39565000D01*
X67630436Y-39789368D01*
X67685704Y-40007616D01*
X67776140Y-40213791D01*
X67778990Y-40218153D01*
X67778992Y-40218157D01*
X67793701Y-40240670D01*
X67899278Y-40402268D01*
X67902803Y-40406097D01*
X67902806Y-40406101D01*
X68004360Y-40516417D01*
X68051760Y-40567906D01*
X68229424Y-40706189D01*
X68427426Y-40813342D01*
X68640365Y-40886444D01*
X68645499Y-40887301D01*
X68645504Y-40887302D01*
X68857294Y-40922643D01*
X68857296Y-40922643D01*
X68862431Y-40923500D01*
X69087569Y-40923500D01*
X69092704Y-40922643D01*
X69092706Y-40922643D01*
X69304496Y-40887302D01*
X69304501Y-40887301D01*
X69309635Y-40886444D01*
X69522574Y-40813342D01*
X69720576Y-40706189D01*
X69898240Y-40567906D01*
X69945640Y-40516417D01*
X70047194Y-40406101D01*
X70047197Y-40406097D01*
X70050722Y-40402268D01*
X70139517Y-40266357D01*
X70193521Y-40220268D01*
X70263868Y-40210693D01*
X70328226Y-40240670D01*
X70350483Y-40266357D01*
X70439278Y-40402268D01*
X70442803Y-40406097D01*
X70442806Y-40406101D01*
X70544360Y-40516417D01*
X70591760Y-40567906D01*
X70769424Y-40706189D01*
X70967426Y-40813342D01*
X71180365Y-40886444D01*
X71185499Y-40887301D01*
X71185504Y-40887302D01*
X71397294Y-40922643D01*
X71397296Y-40922643D01*
X71402431Y-40923500D01*
X71627569Y-40923500D01*
X71632704Y-40922643D01*
X71632706Y-40922643D01*
X71844496Y-40887302D01*
X71844501Y-40887301D01*
X71849635Y-40886444D01*
X72062574Y-40813342D01*
X72260576Y-40706189D01*
X72438240Y-40567906D01*
X72485640Y-40516417D01*
X72587194Y-40406101D01*
X72587197Y-40406097D01*
X72590722Y-40402268D01*
X72679517Y-40266357D01*
X72733521Y-40220268D01*
X72803868Y-40210693D01*
X72868226Y-40240670D01*
X72890483Y-40266357D01*
X72979278Y-40402268D01*
X72982803Y-40406097D01*
X72982806Y-40406101D01*
X73084360Y-40516417D01*
X73131760Y-40567906D01*
X73309424Y-40706189D01*
X73507426Y-40813342D01*
X73720365Y-40886444D01*
X73725499Y-40887301D01*
X73725504Y-40887302D01*
X73937294Y-40922643D01*
X73937296Y-40922643D01*
X73942431Y-40923500D01*
X74167569Y-40923500D01*
X74172704Y-40922643D01*
X74172706Y-40922643D01*
X74384496Y-40887302D01*
X74384501Y-40887301D01*
X74389635Y-40886444D01*
X74602574Y-40813342D01*
X74800576Y-40706189D01*
X74978240Y-40567906D01*
X75025640Y-40516417D01*
X75127194Y-40406101D01*
X75127197Y-40406097D01*
X75130722Y-40402268D01*
X75236299Y-40240670D01*
X75251008Y-40218157D01*
X75251010Y-40218153D01*
X75253860Y-40213791D01*
X75344296Y-40007616D01*
X75399564Y-39789368D01*
X75418156Y-39565000D01*
X75399564Y-39340632D01*
X75344296Y-39122384D01*
X75253860Y-38916209D01*
X75249629Y-38909732D01*
X75133573Y-38732096D01*
X75130722Y-38727732D01*
X75127197Y-38723903D01*
X75127194Y-38723899D01*
X74981772Y-38565931D01*
X74978240Y-38562094D01*
X74959139Y-38547227D01*
X74804689Y-38427012D01*
X74804687Y-38427010D01*
X74800576Y-38423811D01*
X74767320Y-38405814D01*
X74716929Y-38355801D01*
X74701577Y-38286484D01*
X74726137Y-38219871D01*
X74767320Y-38184186D01*
X74795995Y-38168668D01*
X74800576Y-38166189D01*
X74978240Y-38027906D01*
X75062489Y-37936388D01*
X75127194Y-37866101D01*
X75127197Y-37866097D01*
X75130722Y-37862268D01*
X75236299Y-37700670D01*
X75251008Y-37678157D01*
X75251010Y-37678153D01*
X75253860Y-37673791D01*
X75344296Y-37467616D01*
X75399564Y-37249368D01*
X75418156Y-37025000D01*
X75399564Y-36800632D01*
X75344296Y-36582384D01*
X75253860Y-36376209D01*
X75249629Y-36369732D01*
X75133573Y-36192096D01*
X75130722Y-36187732D01*
X75127197Y-36183903D01*
X75127194Y-36183899D01*
X74981772Y-36025931D01*
X74978240Y-36022094D01*
X74800576Y-35883811D01*
X74602574Y-35776658D01*
X74389635Y-35703556D01*
X74384501Y-35702699D01*
X74384496Y-35702698D01*
X74172706Y-35667357D01*
X74172704Y-35667357D01*
X74167569Y-35666500D01*
X73942431Y-35666500D01*
X73937296Y-35667357D01*
X73937294Y-35667357D01*
X73725504Y-35702698D01*
X73725499Y-35702699D01*
X73720365Y-35703556D01*
X73507426Y-35776658D01*
X73309424Y-35883811D01*
X73131760Y-36022094D01*
X73128228Y-36025931D01*
X72982806Y-36183899D01*
X72982803Y-36183903D01*
X72979278Y-36187732D01*
X72976427Y-36192096D01*
X72890483Y-36323643D01*
X72836479Y-36369732D01*
X72766132Y-36379307D01*
X72701774Y-36349330D01*
X72679517Y-36323643D01*
X72593573Y-36192096D01*
X72590722Y-36187732D01*
X72587197Y-36183903D01*
X72587194Y-36183899D01*
X72441772Y-36025931D01*
X72438240Y-36022094D01*
X72260576Y-35883811D01*
X72062574Y-35776658D01*
X71849635Y-35703556D01*
X71844501Y-35702699D01*
X71844496Y-35702698D01*
X71632706Y-35667357D01*
X71632704Y-35667357D01*
X71627569Y-35666500D01*
X71402431Y-35666500D01*
X71397296Y-35667357D01*
X71397294Y-35667357D01*
X71185504Y-35702698D01*
X71185499Y-35702699D01*
X71180365Y-35703556D01*
X70967426Y-35776658D01*
X70769424Y-35883811D01*
X70591760Y-36022094D01*
X70588228Y-36025931D01*
X70530755Y-36088362D01*
X70469901Y-36124933D01*
X70398937Y-36122798D01*
X70340392Y-36082636D01*
X70319998Y-36047056D01*
X70279038Y-35937239D01*
X70279037Y-35937237D01*
X70275889Y-35928796D01*
X70188261Y-35811739D01*
X70071204Y-35724111D01*
X69934201Y-35673011D01*
X69897295Y-35669043D01*
X69876988Y-35666860D01*
X69876985Y-35666860D01*
X69873638Y-35666500D01*
X68076362Y-35666500D01*
X68073015Y-35666860D01*
X68073012Y-35666860D01*
X68052705Y-35669043D01*
X68015799Y-35673011D01*
X67878796Y-35724111D01*
X67761739Y-35811739D01*
X67674111Y-35928796D01*
X67623011Y-36065799D01*
X67616500Y-36126362D01*
X67616500Y-37923638D01*
X67623011Y-37984201D01*
X67674111Y-38121204D01*
X67761739Y-38238261D01*
X67768950Y-38243659D01*
X67866465Y-38316658D01*
X67878796Y-38325889D01*
X67993808Y-38368787D01*
X68050642Y-38411333D01*
X68075453Y-38477853D01*
X68060361Y-38547227D01*
X68042475Y-38572180D01*
X67902806Y-38723899D01*
X67902803Y-38723903D01*
X67899278Y-38727732D01*
X67896427Y-38732096D01*
X67780372Y-38909732D01*
X67776140Y-38916209D01*
X67685704Y-39122384D01*
X67630436Y-39340632D01*
X67611844Y-39565000D01*
X61929386Y-39565000D01*
X63278525Y-32219687D01*
X63310504Y-32156300D01*
X63371676Y-32120265D01*
X63420300Y-32117720D01*
X89738102Y-35883811D01*
X121976189Y-40497098D01*
X121976190Y-40497098D01*
X121999859Y-40500485D01*
X121999985Y-40500541D01*
X122000156Y-40500476D01*
X122000325Y-40500433D01*
X122000341Y-40500406D01*
X122000372Y-40500394D01*
X122000446Y-40500229D01*
X122000535Y-40500077D01*
X122000502Y-40499946D01*
X122003267Y-40402268D01*
X122297021Y-30022935D01*
X122318943Y-29955408D01*
X122373892Y-29910451D01*
X122422971Y-29900500D01*
X131419795Y-29900500D01*
X131487916Y-29920502D01*
G37*
%TD.AperFunction*%
M02*
