%FSLAX45Y45*%
G04 Gerber Fmt 4.5, Leading zero omitted, Abs format (unit mm)*
G04 Created by KiCad (PCBNEW (6.99.0-2103-gdc6c27b686)) date 2022-07-02 12:13:24*
%MOMM*%
%LPD*%
G01*
G04 APERTURE LIST*
%TA.AperFunction,Profile*%
%ADD10C,0.100000*%
%TD*%
%ADD11C,0.200000*%
%ADD12C,0.100000*%
G04 APERTURE END LIST*
D10*
X13980000Y-4750000D02*
X13840000Y-5080000D01*
X12640000Y-5350000D01*
X9680000Y-5470000D01*
X9470000Y-6000000D01*
X7420000Y-6020000D01*
X6320000Y-5910000D01*
X6260000Y-4890000D01*
X5940000Y-4520000D01*
X6150000Y-4190000D01*
X6330000Y-3210000D01*
X12200000Y-4050000D01*
X12230000Y-2990000D01*
X13150000Y-2990000D01*
X13980000Y-4750000D01*
D11*
D12*
X6847500Y-3652500D02*
X6947500Y-3752500D01*
X6947500Y-3652500D02*
X6847500Y-3752500D01*
X6847500Y-3906500D02*
X6947500Y-4006500D01*
X6947500Y-3906500D02*
X6847500Y-4006500D01*
X7101500Y-3652500D02*
X7201500Y-3752500D01*
X7201500Y-3652500D02*
X7101500Y-3752500D01*
X7101500Y-3906500D02*
X7201500Y-4006500D01*
X7201500Y-3906500D02*
X7101500Y-4006500D01*
X7355500Y-3652500D02*
X7455500Y-3752500D01*
X7455500Y-3652500D02*
X7355500Y-3752500D01*
X7355500Y-3906500D02*
X7455500Y-4006500D01*
X7455500Y-3906500D02*
X7355500Y-4006500D01*
D11*
X6182619Y-6318476D02*
X6182619Y-6118476D01*
X6182619Y-6118476D02*
X6230238Y-6118476D01*
X6230238Y-6118476D02*
X6258809Y-6128000D01*
X6258809Y-6128000D02*
X6277857Y-6147048D01*
X6277857Y-6147048D02*
X6287381Y-6166095D01*
X6287381Y-6166095D02*
X6296905Y-6204190D01*
X6296905Y-6204190D02*
X6296905Y-6232762D01*
X6296905Y-6232762D02*
X6287381Y-6270857D01*
X6287381Y-6270857D02*
X6277857Y-6289905D01*
X6277857Y-6289905D02*
X6258809Y-6308952D01*
X6258809Y-6308952D02*
X6230238Y-6318476D01*
X6230238Y-6318476D02*
X6182619Y-6318476D01*
X6382619Y-6318476D02*
X6382619Y-6185143D01*
X6382619Y-6223238D02*
X6392143Y-6204190D01*
X6392143Y-6204190D02*
X6401667Y-6194667D01*
X6401667Y-6194667D02*
X6420714Y-6185143D01*
X6420714Y-6185143D02*
X6439762Y-6185143D01*
X6506428Y-6318476D02*
X6506428Y-6185143D01*
X6506428Y-6118476D02*
X6496905Y-6128000D01*
X6496905Y-6128000D02*
X6506428Y-6137524D01*
X6506428Y-6137524D02*
X6515952Y-6128000D01*
X6515952Y-6128000D02*
X6506428Y-6118476D01*
X6506428Y-6118476D02*
X6506428Y-6137524D01*
X6630238Y-6318476D02*
X6611190Y-6308952D01*
X6611190Y-6308952D02*
X6601667Y-6289905D01*
X6601667Y-6289905D02*
X6601667Y-6118476D01*
X6735000Y-6318476D02*
X6715952Y-6308952D01*
X6715952Y-6308952D02*
X6706428Y-6289905D01*
X6706428Y-6289905D02*
X6706428Y-6118476D01*
X6931190Y-6318476D02*
X6931190Y-6118476D01*
X6931190Y-6118476D02*
X6997857Y-6261333D01*
X6997857Y-6261333D02*
X7064524Y-6118476D01*
X7064524Y-6118476D02*
X7064524Y-6318476D01*
X7245476Y-6318476D02*
X7245476Y-6213714D01*
X7245476Y-6213714D02*
X7235952Y-6194667D01*
X7235952Y-6194667D02*
X7216905Y-6185143D01*
X7216905Y-6185143D02*
X7178809Y-6185143D01*
X7178809Y-6185143D02*
X7159762Y-6194667D01*
X7245476Y-6308952D02*
X7226428Y-6318476D01*
X7226428Y-6318476D02*
X7178809Y-6318476D01*
X7178809Y-6318476D02*
X7159762Y-6308952D01*
X7159762Y-6308952D02*
X7150238Y-6289905D01*
X7150238Y-6289905D02*
X7150238Y-6270857D01*
X7150238Y-6270857D02*
X7159762Y-6251809D01*
X7159762Y-6251809D02*
X7178809Y-6242286D01*
X7178809Y-6242286D02*
X7226428Y-6242286D01*
X7226428Y-6242286D02*
X7245476Y-6232762D01*
X7340714Y-6185143D02*
X7340714Y-6385143D01*
X7340714Y-6194667D02*
X7359762Y-6185143D01*
X7359762Y-6185143D02*
X7397857Y-6185143D01*
X7397857Y-6185143D02*
X7416905Y-6194667D01*
X7416905Y-6194667D02*
X7426428Y-6204190D01*
X7426428Y-6204190D02*
X7435952Y-6223238D01*
X7435952Y-6223238D02*
X7435952Y-6280381D01*
X7435952Y-6280381D02*
X7426428Y-6299428D01*
X7426428Y-6299428D02*
X7416905Y-6308952D01*
X7416905Y-6308952D02*
X7397857Y-6318476D01*
X7397857Y-6318476D02*
X7359762Y-6318476D01*
X7359762Y-6318476D02*
X7340714Y-6308952D01*
X7521667Y-6299428D02*
X7531190Y-6308952D01*
X7531190Y-6308952D02*
X7521667Y-6318476D01*
X7521667Y-6318476D02*
X7512143Y-6308952D01*
X7512143Y-6308952D02*
X7521667Y-6299428D01*
X7521667Y-6299428D02*
X7521667Y-6318476D01*
X7521667Y-6194667D02*
X7531190Y-6204190D01*
X7531190Y-6204190D02*
X7521667Y-6213714D01*
X7521667Y-6213714D02*
X7512143Y-6204190D01*
X7512143Y-6204190D02*
X7521667Y-6194667D01*
X7521667Y-6194667D02*
X7521667Y-6213714D01*
D12*
X5835000Y-6615000D02*
X5935000Y-6715000D01*
X5935000Y-6615000D02*
X5835000Y-6715000D01*
D11*
X6287381Y-6738476D02*
X6173095Y-6738476D01*
X6230238Y-6738476D02*
X6230238Y-6538476D01*
X6230238Y-6538476D02*
X6211190Y-6567048D01*
X6211190Y-6567048D02*
X6192143Y-6586095D01*
X6192143Y-6586095D02*
X6173095Y-6595619D01*
X6373095Y-6719428D02*
X6382619Y-6728952D01*
X6382619Y-6728952D02*
X6373095Y-6738476D01*
X6373095Y-6738476D02*
X6363571Y-6728952D01*
X6363571Y-6728952D02*
X6373095Y-6719428D01*
X6373095Y-6719428D02*
X6373095Y-6738476D01*
X6506428Y-6538476D02*
X6525476Y-6538476D01*
X6525476Y-6538476D02*
X6544524Y-6548000D01*
X6544524Y-6548000D02*
X6554048Y-6557524D01*
X6554048Y-6557524D02*
X6563571Y-6576571D01*
X6563571Y-6576571D02*
X6573095Y-6614667D01*
X6573095Y-6614667D02*
X6573095Y-6662286D01*
X6573095Y-6662286D02*
X6563571Y-6700381D01*
X6563571Y-6700381D02*
X6554048Y-6719428D01*
X6554048Y-6719428D02*
X6544524Y-6728952D01*
X6544524Y-6728952D02*
X6525476Y-6738476D01*
X6525476Y-6738476D02*
X6506428Y-6738476D01*
X6506428Y-6738476D02*
X6487381Y-6728952D01*
X6487381Y-6728952D02*
X6477857Y-6719428D01*
X6477857Y-6719428D02*
X6468333Y-6700381D01*
X6468333Y-6700381D02*
X6458809Y-6662286D01*
X6458809Y-6662286D02*
X6458809Y-6614667D01*
X6458809Y-6614667D02*
X6468333Y-6576571D01*
X6468333Y-6576571D02*
X6477857Y-6557524D01*
X6477857Y-6557524D02*
X6487381Y-6548000D01*
X6487381Y-6548000D02*
X6506428Y-6538476D01*
X6696905Y-6538476D02*
X6715952Y-6538476D01*
X6715952Y-6538476D02*
X6735000Y-6548000D01*
X6735000Y-6548000D02*
X6744524Y-6557524D01*
X6744524Y-6557524D02*
X6754048Y-6576571D01*
X6754048Y-6576571D02*
X6763571Y-6614667D01*
X6763571Y-6614667D02*
X6763571Y-6662286D01*
X6763571Y-6662286D02*
X6754048Y-6700381D01*
X6754048Y-6700381D02*
X6744524Y-6719428D01*
X6744524Y-6719428D02*
X6735000Y-6728952D01*
X6735000Y-6728952D02*
X6715952Y-6738476D01*
X6715952Y-6738476D02*
X6696905Y-6738476D01*
X6696905Y-6738476D02*
X6677857Y-6728952D01*
X6677857Y-6728952D02*
X6668333Y-6719428D01*
X6668333Y-6719428D02*
X6658809Y-6700381D01*
X6658809Y-6700381D02*
X6649286Y-6662286D01*
X6649286Y-6662286D02*
X6649286Y-6614667D01*
X6649286Y-6614667D02*
X6658809Y-6576571D01*
X6658809Y-6576571D02*
X6668333Y-6557524D01*
X6668333Y-6557524D02*
X6677857Y-6548000D01*
X6677857Y-6548000D02*
X6696905Y-6538476D01*
X6887381Y-6538476D02*
X6906429Y-6538476D01*
X6906429Y-6538476D02*
X6925476Y-6548000D01*
X6925476Y-6548000D02*
X6935000Y-6557524D01*
X6935000Y-6557524D02*
X6944524Y-6576571D01*
X6944524Y-6576571D02*
X6954048Y-6614667D01*
X6954048Y-6614667D02*
X6954048Y-6662286D01*
X6954048Y-6662286D02*
X6944524Y-6700381D01*
X6944524Y-6700381D02*
X6935000Y-6719428D01*
X6935000Y-6719428D02*
X6925476Y-6728952D01*
X6925476Y-6728952D02*
X6906429Y-6738476D01*
X6906429Y-6738476D02*
X6887381Y-6738476D01*
X6887381Y-6738476D02*
X6868333Y-6728952D01*
X6868333Y-6728952D02*
X6858809Y-6719428D01*
X6858809Y-6719428D02*
X6849286Y-6700381D01*
X6849286Y-6700381D02*
X6839762Y-6662286D01*
X6839762Y-6662286D02*
X6839762Y-6614667D01*
X6839762Y-6614667D02*
X6849286Y-6576571D01*
X6849286Y-6576571D02*
X6858809Y-6557524D01*
X6858809Y-6557524D02*
X6868333Y-6548000D01*
X6868333Y-6548000D02*
X6887381Y-6538476D01*
X7039762Y-6738476D02*
X7039762Y-6605143D01*
X7039762Y-6624190D02*
X7049286Y-6614667D01*
X7049286Y-6614667D02*
X7068333Y-6605143D01*
X7068333Y-6605143D02*
X7096905Y-6605143D01*
X7096905Y-6605143D02*
X7115952Y-6614667D01*
X7115952Y-6614667D02*
X7125476Y-6633714D01*
X7125476Y-6633714D02*
X7125476Y-6738476D01*
X7125476Y-6633714D02*
X7135000Y-6614667D01*
X7135000Y-6614667D02*
X7154048Y-6605143D01*
X7154048Y-6605143D02*
X7182619Y-6605143D01*
X7182619Y-6605143D02*
X7201667Y-6614667D01*
X7201667Y-6614667D02*
X7211190Y-6633714D01*
X7211190Y-6633714D02*
X7211190Y-6738476D01*
X7306429Y-6738476D02*
X7306429Y-6605143D01*
X7306429Y-6624190D02*
X7315952Y-6614667D01*
X7315952Y-6614667D02*
X7335000Y-6605143D01*
X7335000Y-6605143D02*
X7363571Y-6605143D01*
X7363571Y-6605143D02*
X7382619Y-6614667D01*
X7382619Y-6614667D02*
X7392143Y-6633714D01*
X7392143Y-6633714D02*
X7392143Y-6738476D01*
X7392143Y-6633714D02*
X7401667Y-6614667D01*
X7401667Y-6614667D02*
X7420714Y-6605143D01*
X7420714Y-6605143D02*
X7449286Y-6605143D01*
X7449286Y-6605143D02*
X7468333Y-6614667D01*
X7468333Y-6614667D02*
X7477857Y-6633714D01*
X7477857Y-6633714D02*
X7477857Y-6738476D01*
X7835952Y-6528952D02*
X7664524Y-6786095D01*
X8060714Y-6538476D02*
X8079762Y-6538476D01*
X8079762Y-6538476D02*
X8098810Y-6548000D01*
X8098810Y-6548000D02*
X8108333Y-6557524D01*
X8108333Y-6557524D02*
X8117857Y-6576571D01*
X8117857Y-6576571D02*
X8127381Y-6614667D01*
X8127381Y-6614667D02*
X8127381Y-6662286D01*
X8127381Y-6662286D02*
X8117857Y-6700381D01*
X8117857Y-6700381D02*
X8108333Y-6719428D01*
X8108333Y-6719428D02*
X8098810Y-6728952D01*
X8098810Y-6728952D02*
X8079762Y-6738476D01*
X8079762Y-6738476D02*
X8060714Y-6738476D01*
X8060714Y-6738476D02*
X8041667Y-6728952D01*
X8041667Y-6728952D02*
X8032143Y-6719428D01*
X8032143Y-6719428D02*
X8022619Y-6700381D01*
X8022619Y-6700381D02*
X8013095Y-6662286D01*
X8013095Y-6662286D02*
X8013095Y-6614667D01*
X8013095Y-6614667D02*
X8022619Y-6576571D01*
X8022619Y-6576571D02*
X8032143Y-6557524D01*
X8032143Y-6557524D02*
X8041667Y-6548000D01*
X8041667Y-6548000D02*
X8060714Y-6538476D01*
X8213095Y-6719428D02*
X8222619Y-6728952D01*
X8222619Y-6728952D02*
X8213095Y-6738476D01*
X8213095Y-6738476D02*
X8203571Y-6728952D01*
X8203571Y-6728952D02*
X8213095Y-6719428D01*
X8213095Y-6719428D02*
X8213095Y-6738476D01*
X8346429Y-6538476D02*
X8365476Y-6538476D01*
X8365476Y-6538476D02*
X8384524Y-6548000D01*
X8384524Y-6548000D02*
X8394048Y-6557524D01*
X8394048Y-6557524D02*
X8403572Y-6576571D01*
X8403572Y-6576571D02*
X8413095Y-6614667D01*
X8413095Y-6614667D02*
X8413095Y-6662286D01*
X8413095Y-6662286D02*
X8403572Y-6700381D01*
X8403572Y-6700381D02*
X8394048Y-6719428D01*
X8394048Y-6719428D02*
X8384524Y-6728952D01*
X8384524Y-6728952D02*
X8365476Y-6738476D01*
X8365476Y-6738476D02*
X8346429Y-6738476D01*
X8346429Y-6738476D02*
X8327381Y-6728952D01*
X8327381Y-6728952D02*
X8317857Y-6719428D01*
X8317857Y-6719428D02*
X8308333Y-6700381D01*
X8308333Y-6700381D02*
X8298810Y-6662286D01*
X8298810Y-6662286D02*
X8298810Y-6614667D01*
X8298810Y-6614667D02*
X8308333Y-6576571D01*
X8308333Y-6576571D02*
X8317857Y-6557524D01*
X8317857Y-6557524D02*
X8327381Y-6548000D01*
X8327381Y-6548000D02*
X8346429Y-6538476D01*
X8479762Y-6538476D02*
X8603572Y-6538476D01*
X8603572Y-6538476D02*
X8536905Y-6614667D01*
X8536905Y-6614667D02*
X8565476Y-6614667D01*
X8565476Y-6614667D02*
X8584524Y-6624190D01*
X8584524Y-6624190D02*
X8594048Y-6633714D01*
X8594048Y-6633714D02*
X8603572Y-6652762D01*
X8603572Y-6652762D02*
X8603572Y-6700381D01*
X8603572Y-6700381D02*
X8594048Y-6719428D01*
X8594048Y-6719428D02*
X8584524Y-6728952D01*
X8584524Y-6728952D02*
X8565476Y-6738476D01*
X8565476Y-6738476D02*
X8508333Y-6738476D01*
X8508333Y-6738476D02*
X8489286Y-6728952D01*
X8489286Y-6728952D02*
X8479762Y-6719428D01*
X8698810Y-6738476D02*
X8736905Y-6738476D01*
X8736905Y-6738476D02*
X8755953Y-6728952D01*
X8755953Y-6728952D02*
X8765476Y-6719428D01*
X8765476Y-6719428D02*
X8784524Y-6690857D01*
X8784524Y-6690857D02*
X8794048Y-6652762D01*
X8794048Y-6652762D02*
X8794048Y-6576571D01*
X8794048Y-6576571D02*
X8784524Y-6557524D01*
X8784524Y-6557524D02*
X8775000Y-6548000D01*
X8775000Y-6548000D02*
X8755953Y-6538476D01*
X8755953Y-6538476D02*
X8717857Y-6538476D01*
X8717857Y-6538476D02*
X8698810Y-6548000D01*
X8698810Y-6548000D02*
X8689286Y-6557524D01*
X8689286Y-6557524D02*
X8679762Y-6576571D01*
X8679762Y-6576571D02*
X8679762Y-6624190D01*
X8679762Y-6624190D02*
X8689286Y-6643238D01*
X8689286Y-6643238D02*
X8698810Y-6652762D01*
X8698810Y-6652762D02*
X8717857Y-6662286D01*
X8717857Y-6662286D02*
X8755953Y-6662286D01*
X8755953Y-6662286D02*
X8775000Y-6652762D01*
X8775000Y-6652762D02*
X8784524Y-6643238D01*
X8784524Y-6643238D02*
X8794048Y-6624190D01*
X8965476Y-6605143D02*
X8965476Y-6738476D01*
X8917857Y-6528952D02*
X8870238Y-6671809D01*
X8870238Y-6671809D02*
X8994048Y-6671809D01*
X9060714Y-6538476D02*
X9060714Y-6576571D01*
X9136905Y-6538476D02*
X9136905Y-6576571D01*
X9399762Y-6814667D02*
X9390238Y-6805143D01*
X9390238Y-6805143D02*
X9371191Y-6776571D01*
X9371191Y-6776571D02*
X9361667Y-6757524D01*
X9361667Y-6757524D02*
X9352143Y-6728952D01*
X9352143Y-6728952D02*
X9342619Y-6681333D01*
X9342619Y-6681333D02*
X9342619Y-6643238D01*
X9342619Y-6643238D02*
X9352143Y-6595619D01*
X9352143Y-6595619D02*
X9361667Y-6567048D01*
X9361667Y-6567048D02*
X9371191Y-6548000D01*
X9371191Y-6548000D02*
X9390238Y-6519428D01*
X9390238Y-6519428D02*
X9399762Y-6509905D01*
X9561667Y-6538476D02*
X9523572Y-6538476D01*
X9523572Y-6538476D02*
X9504524Y-6548000D01*
X9504524Y-6548000D02*
X9495000Y-6557524D01*
X9495000Y-6557524D02*
X9475953Y-6586095D01*
X9475953Y-6586095D02*
X9466429Y-6624190D01*
X9466429Y-6624190D02*
X9466429Y-6700381D01*
X9466429Y-6700381D02*
X9475953Y-6719428D01*
X9475953Y-6719428D02*
X9485476Y-6728952D01*
X9485476Y-6728952D02*
X9504524Y-6738476D01*
X9504524Y-6738476D02*
X9542619Y-6738476D01*
X9542619Y-6738476D02*
X9561667Y-6728952D01*
X9561667Y-6728952D02*
X9571191Y-6719428D01*
X9571191Y-6719428D02*
X9580714Y-6700381D01*
X9580714Y-6700381D02*
X9580714Y-6652762D01*
X9580714Y-6652762D02*
X9571191Y-6633714D01*
X9571191Y-6633714D02*
X9561667Y-6624190D01*
X9561667Y-6624190D02*
X9542619Y-6614667D01*
X9542619Y-6614667D02*
X9504524Y-6614667D01*
X9504524Y-6614667D02*
X9485476Y-6624190D01*
X9485476Y-6624190D02*
X9475953Y-6633714D01*
X9475953Y-6633714D02*
X9466429Y-6652762D01*
X9786429Y-6738476D02*
X9786429Y-6538476D01*
X9872143Y-6738476D02*
X9872143Y-6633714D01*
X9872143Y-6633714D02*
X9862619Y-6614667D01*
X9862619Y-6614667D02*
X9843572Y-6605143D01*
X9843572Y-6605143D02*
X9815000Y-6605143D01*
X9815000Y-6605143D02*
X9795953Y-6614667D01*
X9795953Y-6614667D02*
X9786429Y-6624190D01*
X9995953Y-6738476D02*
X9976905Y-6728952D01*
X9976905Y-6728952D02*
X9967381Y-6719428D01*
X9967381Y-6719428D02*
X9957857Y-6700381D01*
X9957857Y-6700381D02*
X9957857Y-6643238D01*
X9957857Y-6643238D02*
X9967381Y-6624190D01*
X9967381Y-6624190D02*
X9976905Y-6614667D01*
X9976905Y-6614667D02*
X9995953Y-6605143D01*
X9995953Y-6605143D02*
X10024524Y-6605143D01*
X10024524Y-6605143D02*
X10043572Y-6614667D01*
X10043572Y-6614667D02*
X10053095Y-6624190D01*
X10053095Y-6624190D02*
X10062619Y-6643238D01*
X10062619Y-6643238D02*
X10062619Y-6700381D01*
X10062619Y-6700381D02*
X10053095Y-6719428D01*
X10053095Y-6719428D02*
X10043572Y-6728952D01*
X10043572Y-6728952D02*
X10024524Y-6738476D01*
X10024524Y-6738476D02*
X9995953Y-6738476D01*
X10176905Y-6738476D02*
X10157857Y-6728952D01*
X10157857Y-6728952D02*
X10148334Y-6709905D01*
X10148334Y-6709905D02*
X10148334Y-6538476D01*
X10329286Y-6728952D02*
X10310238Y-6738476D01*
X10310238Y-6738476D02*
X10272143Y-6738476D01*
X10272143Y-6738476D02*
X10253095Y-6728952D01*
X10253095Y-6728952D02*
X10243572Y-6709905D01*
X10243572Y-6709905D02*
X10243572Y-6633714D01*
X10243572Y-6633714D02*
X10253095Y-6614667D01*
X10253095Y-6614667D02*
X10272143Y-6605143D01*
X10272143Y-6605143D02*
X10310238Y-6605143D01*
X10310238Y-6605143D02*
X10329286Y-6614667D01*
X10329286Y-6614667D02*
X10338810Y-6633714D01*
X10338810Y-6633714D02*
X10338810Y-6652762D01*
X10338810Y-6652762D02*
X10243572Y-6671809D01*
X10415000Y-6728952D02*
X10434048Y-6738476D01*
X10434048Y-6738476D02*
X10472143Y-6738476D01*
X10472143Y-6738476D02*
X10491191Y-6728952D01*
X10491191Y-6728952D02*
X10500715Y-6709905D01*
X10500715Y-6709905D02*
X10500715Y-6700381D01*
X10500715Y-6700381D02*
X10491191Y-6681333D01*
X10491191Y-6681333D02*
X10472143Y-6671809D01*
X10472143Y-6671809D02*
X10443572Y-6671809D01*
X10443572Y-6671809D02*
X10424524Y-6662286D01*
X10424524Y-6662286D02*
X10415000Y-6643238D01*
X10415000Y-6643238D02*
X10415000Y-6633714D01*
X10415000Y-6633714D02*
X10424524Y-6614667D01*
X10424524Y-6614667D02*
X10443572Y-6605143D01*
X10443572Y-6605143D02*
X10472143Y-6605143D01*
X10472143Y-6605143D02*
X10491191Y-6614667D01*
X10567381Y-6814667D02*
X10576905Y-6805143D01*
X10576905Y-6805143D02*
X10595953Y-6776571D01*
X10595953Y-6776571D02*
X10605476Y-6757524D01*
X10605476Y-6757524D02*
X10615000Y-6728952D01*
X10615000Y-6728952D02*
X10624524Y-6681333D01*
X10624524Y-6681333D02*
X10624524Y-6643238D01*
X10624524Y-6643238D02*
X10615000Y-6595619D01*
X10615000Y-6595619D02*
X10605476Y-6567048D01*
X10605476Y-6567048D02*
X10595953Y-6548000D01*
X10595953Y-6548000D02*
X10576905Y-6519428D01*
X10576905Y-6519428D02*
X10567381Y-6509905D01*
M02*
