<?xml version="1.0" encoding="UTF-8" standalone="no"?>
<!-- Created with Inkscape (http://www.inkscape.org/) -->

<svg
   width="86.425285mm"
   height="51.569851mm"
   viewBox="0 0 86.425285 51.569851"
   version="1.1"
   id="svg5"
   xml:space="preserve"
   inkscape:version="1.2 (dc2aeda, 2022-05-15)"
   sodipodi:docname="aws logo.svg"
   xmlns:inkscape="http://www.inkscape.org/namespaces/inkscape"
   xmlns:sodipodi="http://sodipodi.sourceforge.net/DTD/sodipodi-0.dtd"
   xmlns="http://www.w3.org/2000/svg"
   xmlns:svg="http://www.w3.org/2000/svg"><sodipodi:namedview
     id="namedview7"
     pagecolor="#ffffff"
     bordercolor="#000000"
     borderopacity="0.25"
     inkscape:showpageshadow="2"
     inkscape:pageopacity="0.0"
     inkscape:pagecheckerboard="0"
     inkscape:deskcolor="#d1d1d1"
     inkscape:document-units="mm"
     showgrid="false"
     inkscape:zoom="0.65695301"
     inkscape:cx="-321.17975"
     inkscape:cy="324.98519"
     inkscape:window-width="1800"
     inkscape:window-height="1097"
     inkscape:window-x="0"
     inkscape:window-y="44"
     inkscape:window-maximized="0"
     inkscape:current-layer="layer1" /><defs
     id="defs2" /><g
     inkscape:label="Layer 1"
     inkscape:groupmode="layer"
     id="layer1"
     transform="translate(-44.272967,-125.09179)"><path
       style="fill:#000000;stroke-width:0.538136"
       d="m 76.386686,175.93009 c -8.527961,-1.43376 -16.379086,-4.47871 -23.618134,-9.15998 -7.113102,-4.59982 -9.591773,-7.06163 -8.061955,-8.00711 0.254132,-0.15706 2.857363,0.90662 5.784958,2.36374 20.276353,10.0919 44.112048,11.67117 64.671975,4.28495 6.38386,-2.29343 7.40581,-2.45292 7.8789,-1.22964 1.15192,2.97855 -13.10098,9.65567 -24.958806,11.69257 -5.979909,1.0272 -15.768237,1.05223 -21.696938,0.0555 z m 46.963784,-3.12832 c 0,-0.39213 0.60541,-2.49291 1.34534,-4.66841 1.4969,-4.40105 1.67391,-6.19104 0.67339,-6.8094 -0.36957,-0.22841 -3.03334,-0.36163 -5.91949,-0.29606 -4.22971,0.0961 -5.24754,-0.029 -5.24754,-0.64474 0,-1.19496 4.22288,-2.93017 8.07203,-3.31686 4.11904,-0.4138 7.86257,0.41104 8.31349,1.83176 0.47687,1.50247 -0.65249,6.52211 -2.16573,9.62602 -1.73622,3.56127 -5.07149,6.37449 -5.07149,4.27769 z m -10.39285,-20.83599 c -3.77274,-0.63376 -5.21308,-1.74582 -5.21308,-4.02491 0,-2.13003 0.10704,-2.16529 3.22881,-1.06387 3.42362,1.20792 8.3462,1.07118 9.68645,-0.26907 2.42377,-2.42377 1.04818,-4.13389 -4.82089,-5.99326 -5.52061,-1.74897 -7.55623,-3.77741 -7.55623,-7.52957 0,-3.46574 1.23015,-5.56802 4.05963,-6.93775 2.73229,-1.32268 7.95308,-1.41725 10.99727,-0.19921 1.89961,0.76008 2.16344,1.07726 2.16344,2.60099 0,2.33631 -0.27982,2.49627 -2.807,1.60463 -3.96858,-1.4002 -8.63844,-0.70133 -9.30291,1.39223 -0.66715,2.10199 0.71132,3.17825 6.45948,5.0433 4.31102,1.39876 6.05162,2.71 6.76701,5.09778 1.44741,4.83102 -1.28535,9.13405 -6.51283,10.25514 -3.02114,0.64792 -3.42449,0.64925 -7.14915,0.0236 z m -61.785767,-0.88256 c -2.133306,-1.32397 -3.160365,-3.48423 -3.160365,-6.64734 0,-4.89382 2.704302,-7.66291 8.162258,-8.35778 1.282263,-0.16325 3.481651,-0.0715 4.887531,0.20381 l 2.556144,0.50063 -0.0073,-1.67946 c -0.01224,-2.79688 -0.592726,-4.10547 -2.186869,-4.92983 -1.946073,-1.00636 -4.600471,-0.99872 -7.492223,0.0216 -3.753832,1.32443 -4.397829,1.14076 -4.203036,-1.19869 0.152375,-1.83002 0.37933,-2.08695 2.588629,-2.93048 1.471113,-0.56168 4.005773,-0.93575 6.457627,-0.95302 5.201557,-0.0366 7.364763,0.98439 9.013772,4.25448 1.065539,2.11303 1.210805,3.21885 1.210805,9.21712 0,4.83714 0.234032,7.37613 0.806097,8.74528 0.763382,1.82703 0.743747,1.98734 -0.37054,3.02546 -1.613361,1.50308 -3.35064,1.3861 -4.455407,-0.29998 l -0.914818,-1.39619 -1.165082,1.09127 c -0.640794,0.6002 -1.846788,1.34957 -2.679986,1.66526 -2.300107,0.87148 -7.410113,0.68392 -9.047188,-0.33209 z m 10.651371,-5.26414 c 1.500251,-1.50025 1.831868,-2.21086 1.695127,-3.63242 l -0.169998,-1.76729 -3.53151,-0.15682 c -4.323092,-0.19197 -6.423999,1.04618 -6.423999,3.78592 0,2.47141 1.336458,3.63574 4.173235,3.63574 2.01174,0 2.688534,-0.29652 4.257145,-1.86513 z m 16.317794,4.27079 c -1.662579,-4.37292 -7.007671,-23.10805 -6.769643,-23.72835 0.361055,-0.94089 4.291304,-0.99427 5.022518,-0.0682 0.292126,0.36996 1.464132,4.4867 2.604458,9.1483 1.140327,4.6616 2.202312,8.47529 2.359967,8.47487 0.157655,-4.3e-4 1.10568,-3.5723 2.106722,-7.9375 2.488954,-10.85348 2.243095,-10.35834 5.143433,-10.35834 1.75933,0 2.546466,0.25596 2.896012,0.94173 0.264004,0.51796 1.275043,4.45308 2.246743,8.74471 0.971701,4.29163 1.936777,8.12831 2.144616,8.52595 0.21004,0.40187 1.431468,-3.42245 2.749943,-8.61017 l 2.372063,-9.33316 h 2.42161 c 2.01754,0 2.44429,0.17959 2.55753,1.07627 0.0748,0.59195 -1.50685,6.28274 -3.51471,12.64619 l -3.650632,11.56992 H 95.920824 93.01 l -2.21029,-9.14831 -2.210289,-9.1483 -1.74849,7.33353 c -2.941,12.33518 -2.400522,11.23214 -5.503649,11.23214 -2.370496,0 -2.738253,-0.15662 -3.196264,-1.36128 z"
       id="path355" /></g></svg>
