G04 #@! TF.GenerationSoftware,KiCad,Pcbnew,(6.99.0-2103-gdc6c27b686)*
G04 #@! TF.CreationDate,2022-07-02T11:01:06+09:00*
G04 #@! TF.ProjectId,B2,42322e6b-6963-4616-945f-706362585858,rev?*
G04 #@! TF.SameCoordinates,Original*
G04 #@! TF.FileFunction,Legend,Bot*
G04 #@! TF.FilePolarity,Positive*
%FSLAX46Y46*%
G04 Gerber Fmt 4.6, Leading zero omitted, Abs format (unit mm)*
G04 Created by KiCad (PCBNEW (6.99.0-2103-gdc6c27b686)) date 2022-07-02 11:01:06*
%MOMM*%
%LPD*%
G01*
G04 APERTURE LIST*
%ADD10C,0.300000*%
%ADD11C,0.120000*%
%ADD12R,1.000000X3.150000*%
G04 APERTURE END LIST*
D10*
X155114285Y-101851071D02*
X155114285Y-103136785D01*
X155114285Y-103136785D02*
X155185713Y-103279642D01*
X155185713Y-103279642D02*
X155328570Y-103351071D01*
X155328570Y-103351071D02*
X155399999Y-103351071D01*
X155114285Y-101351071D02*
X155185713Y-101422500D01*
X155185713Y-101422500D02*
X155114285Y-101493928D01*
X155114285Y-101493928D02*
X155042856Y-101422500D01*
X155042856Y-101422500D02*
X155114285Y-101351071D01*
X155114285Y-101351071D02*
X155114285Y-101493928D01*
X154185713Y-102851071D02*
X154328570Y-102779642D01*
X154328570Y-102779642D02*
X154399999Y-102636785D01*
X154399999Y-102636785D02*
X154399999Y-101351071D01*
X152971428Y-102779642D02*
X153114285Y-102851071D01*
X153114285Y-102851071D02*
X153399999Y-102851071D01*
X153399999Y-102851071D02*
X153542856Y-102779642D01*
X153542856Y-102779642D02*
X153614285Y-102708214D01*
X153614285Y-102708214D02*
X153685713Y-102565357D01*
X153685713Y-102565357D02*
X153685713Y-102136785D01*
X153685713Y-102136785D02*
X153614285Y-101993928D01*
X153614285Y-101993928D02*
X153542856Y-101922500D01*
X153542856Y-101922500D02*
X153399999Y-101851071D01*
X153399999Y-101851071D02*
X153114285Y-101851071D01*
X153114285Y-101851071D02*
X152971428Y-101922500D01*
X152328571Y-101851071D02*
X152328571Y-103136785D01*
X152328571Y-103136785D02*
X152399999Y-103279642D01*
X152399999Y-103279642D02*
X152542856Y-103351071D01*
X152542856Y-103351071D02*
X152614285Y-103351071D01*
X152328571Y-101351071D02*
X152399999Y-101422500D01*
X152399999Y-101422500D02*
X152328571Y-101493928D01*
X152328571Y-101493928D02*
X152257142Y-101422500D01*
X152257142Y-101422500D02*
X152328571Y-101351071D01*
X152328571Y-101351071D02*
X152328571Y-101493928D01*
X151399999Y-102851071D02*
X151542856Y-102779642D01*
X151542856Y-102779642D02*
X151614285Y-102636785D01*
X151614285Y-102636785D02*
X151614285Y-101351071D01*
X150185714Y-102779642D02*
X150328571Y-102851071D01*
X150328571Y-102851071D02*
X150614285Y-102851071D01*
X150614285Y-102851071D02*
X150757142Y-102779642D01*
X150757142Y-102779642D02*
X150828571Y-102708214D01*
X150828571Y-102708214D02*
X150899999Y-102565357D01*
X150899999Y-102565357D02*
X150899999Y-102136785D01*
X150899999Y-102136785D02*
X150828571Y-101993928D01*
X150828571Y-101993928D02*
X150757142Y-101922500D01*
X150757142Y-101922500D02*
X150614285Y-101851071D01*
X150614285Y-101851071D02*
X150328571Y-101851071D01*
X150328571Y-101851071D02*
X150185714Y-101922500D01*
X149542857Y-101851071D02*
X149542857Y-103136785D01*
X149542857Y-103136785D02*
X149614285Y-103279642D01*
X149614285Y-103279642D02*
X149757142Y-103351071D01*
X149757142Y-103351071D02*
X149828571Y-103351071D01*
X149542857Y-101351071D02*
X149614285Y-101422500D01*
X149614285Y-101422500D02*
X149542857Y-101493928D01*
X149542857Y-101493928D02*
X149471428Y-101422500D01*
X149471428Y-101422500D02*
X149542857Y-101351071D01*
X149542857Y-101351071D02*
X149542857Y-101493928D01*
X148614285Y-102851071D02*
X148757142Y-102779642D01*
X148757142Y-102779642D02*
X148828571Y-102636785D01*
X148828571Y-102636785D02*
X148828571Y-101351071D01*
X147400000Y-102779642D02*
X147542857Y-102851071D01*
X147542857Y-102851071D02*
X147828571Y-102851071D01*
X147828571Y-102851071D02*
X147971428Y-102779642D01*
X147971428Y-102779642D02*
X148042857Y-102708214D01*
X148042857Y-102708214D02*
X148114285Y-102565357D01*
X148114285Y-102565357D02*
X148114285Y-102136785D01*
X148114285Y-102136785D02*
X148042857Y-101993928D01*
X148042857Y-101993928D02*
X147971428Y-101922500D01*
X147971428Y-101922500D02*
X147828571Y-101851071D01*
X147828571Y-101851071D02*
X147542857Y-101851071D01*
X147542857Y-101851071D02*
X147400000Y-101922500D01*
X146757143Y-101851071D02*
X146757143Y-103136785D01*
X146757143Y-103136785D02*
X146828571Y-103279642D01*
X146828571Y-103279642D02*
X146971428Y-103351071D01*
X146971428Y-103351071D02*
X147042857Y-103351071D01*
X146757143Y-101351071D02*
X146828571Y-101422500D01*
X146828571Y-101422500D02*
X146757143Y-101493928D01*
X146757143Y-101493928D02*
X146685714Y-101422500D01*
X146685714Y-101422500D02*
X146757143Y-101351071D01*
X146757143Y-101351071D02*
X146757143Y-101493928D01*
X145828571Y-102851071D02*
X145971428Y-102779642D01*
X145971428Y-102779642D02*
X146042857Y-102636785D01*
X146042857Y-102636785D02*
X146042857Y-101351071D01*
X144614286Y-102779642D02*
X144757143Y-102851071D01*
X144757143Y-102851071D02*
X145042857Y-102851071D01*
X145042857Y-102851071D02*
X145185714Y-102779642D01*
X145185714Y-102779642D02*
X145257143Y-102708214D01*
X145257143Y-102708214D02*
X145328571Y-102565357D01*
X145328571Y-102565357D02*
X145328571Y-102136785D01*
X145328571Y-102136785D02*
X145257143Y-101993928D01*
X145257143Y-101993928D02*
X145185714Y-101922500D01*
X145185714Y-101922500D02*
X145042857Y-101851071D01*
X145042857Y-101851071D02*
X144757143Y-101851071D01*
X144757143Y-101851071D02*
X144614286Y-101922500D01*
X154642856Y-81936785D02*
X154714285Y-81865357D01*
X154714285Y-81865357D02*
X154857142Y-81793928D01*
X154857142Y-81793928D02*
X154999999Y-81793928D01*
X154999999Y-81793928D02*
X155142856Y-81865357D01*
X155142856Y-81865357D02*
X155214285Y-81936785D01*
X155214285Y-81936785D02*
X155285713Y-82079642D01*
X155285713Y-82079642D02*
X155285713Y-82222500D01*
X155285713Y-82222500D02*
X155214285Y-82365357D01*
X155214285Y-82365357D02*
X155142856Y-82436785D01*
X155142856Y-82436785D02*
X154999999Y-82508214D01*
X154999999Y-82508214D02*
X154857142Y-82508214D01*
X154857142Y-82508214D02*
X154714285Y-82436785D01*
X154714285Y-82436785D02*
X154642856Y-82365357D01*
X154642856Y-81793928D02*
X154642856Y-82365357D01*
X154642856Y-82365357D02*
X154571428Y-82436785D01*
X154571428Y-82436785D02*
X154499999Y-82436785D01*
X154499999Y-82436785D02*
X154357142Y-82365357D01*
X154357142Y-82365357D02*
X154285713Y-82222500D01*
X154285713Y-82222500D02*
X154285713Y-81865357D01*
X154285713Y-81865357D02*
X154428571Y-81651071D01*
X154428571Y-81651071D02*
X154642856Y-81508214D01*
X154642856Y-81508214D02*
X154928571Y-81436785D01*
X154928571Y-81436785D02*
X155214285Y-81508214D01*
X155214285Y-81508214D02*
X155428571Y-81651071D01*
X155428571Y-81651071D02*
X155571428Y-81865357D01*
X155571428Y-81865357D02*
X155642856Y-82151071D01*
X155642856Y-82151071D02*
X155571428Y-82436785D01*
X155571428Y-82436785D02*
X155428571Y-82651071D01*
X155428571Y-82651071D02*
X155214285Y-82793928D01*
X155214285Y-82793928D02*
X154928571Y-82865357D01*
X154928571Y-82865357D02*
X154642856Y-82793928D01*
X154642856Y-82793928D02*
X154428571Y-82651071D01*
X153000000Y-82651071D02*
X153000000Y-81865357D01*
X153000000Y-81865357D02*
X153071428Y-81722500D01*
X153071428Y-81722500D02*
X153214285Y-81651071D01*
X153214285Y-81651071D02*
X153500000Y-81651071D01*
X153500000Y-81651071D02*
X153642857Y-81722500D01*
X153000000Y-82579642D02*
X153142857Y-82651071D01*
X153142857Y-82651071D02*
X153500000Y-82651071D01*
X153500000Y-82651071D02*
X153642857Y-82579642D01*
X153642857Y-82579642D02*
X153714285Y-82436785D01*
X153714285Y-82436785D02*
X153714285Y-82293928D01*
X153714285Y-82293928D02*
X153642857Y-82151071D01*
X153642857Y-82151071D02*
X153500000Y-82079642D01*
X153500000Y-82079642D02*
X153142857Y-82079642D01*
X153142857Y-82079642D02*
X153000000Y-82008214D01*
X152428571Y-81651071D02*
X152071428Y-82651071D01*
X152071428Y-82651071D02*
X151714285Y-81651071D01*
X151500000Y-82793928D02*
X150357142Y-82793928D01*
X150000000Y-81651071D02*
X150000000Y-83151071D01*
X150000000Y-81722500D02*
X149857143Y-81651071D01*
X149857143Y-81651071D02*
X149571428Y-81651071D01*
X149571428Y-81651071D02*
X149428571Y-81722500D01*
X149428571Y-81722500D02*
X149357143Y-81793928D01*
X149357143Y-81793928D02*
X149285714Y-81936785D01*
X149285714Y-81936785D02*
X149285714Y-82365357D01*
X149285714Y-82365357D02*
X149357143Y-82508214D01*
X149357143Y-82508214D02*
X149428571Y-82579642D01*
X149428571Y-82579642D02*
X149571428Y-82651071D01*
X149571428Y-82651071D02*
X149857143Y-82651071D01*
X149857143Y-82651071D02*
X150000000Y-82579642D01*
X148000000Y-81651071D02*
X148000000Y-82651071D01*
X148642857Y-81651071D02*
X148642857Y-82436785D01*
X148642857Y-82436785D02*
X148571428Y-82579642D01*
X148571428Y-82579642D02*
X148428571Y-82651071D01*
X148428571Y-82651071D02*
X148214285Y-82651071D01*
X148214285Y-82651071D02*
X148071428Y-82579642D01*
X148071428Y-82579642D02*
X148000000Y-82508214D01*
X147285714Y-82651071D02*
X147285714Y-81151071D01*
X147285714Y-81722500D02*
X147142857Y-81651071D01*
X147142857Y-81651071D02*
X146857142Y-81651071D01*
X146857142Y-81651071D02*
X146714285Y-81722500D01*
X146714285Y-81722500D02*
X146642857Y-81793928D01*
X146642857Y-81793928D02*
X146571428Y-81936785D01*
X146571428Y-81936785D02*
X146571428Y-82365357D01*
X146571428Y-82365357D02*
X146642857Y-82508214D01*
X146642857Y-82508214D02*
X146714285Y-82579642D01*
X146714285Y-82579642D02*
X146857142Y-82651071D01*
X146857142Y-82651071D02*
X147142857Y-82651071D01*
X147142857Y-82651071D02*
X147285714Y-82579642D01*
X145999999Y-82579642D02*
X145857142Y-82651071D01*
X145857142Y-82651071D02*
X145571428Y-82651071D01*
X145571428Y-82651071D02*
X145428571Y-82579642D01*
X145428571Y-82579642D02*
X145357142Y-82436785D01*
X145357142Y-82436785D02*
X145357142Y-82365357D01*
X145357142Y-82365357D02*
X145428571Y-82222500D01*
X145428571Y-82222500D02*
X145571428Y-82151071D01*
X145571428Y-82151071D02*
X145785714Y-82151071D01*
X145785714Y-82151071D02*
X145928571Y-82079642D01*
X145928571Y-82079642D02*
X145999999Y-81936785D01*
X145999999Y-81936785D02*
X145999999Y-81865357D01*
X145999999Y-81865357D02*
X145928571Y-81722500D01*
X145928571Y-81722500D02*
X145785714Y-81651071D01*
X145785714Y-81651071D02*
X145571428Y-81651071D01*
X145571428Y-81651071D02*
X145428571Y-81722500D01*
X186214285Y-105351071D02*
X185857142Y-106351071D01*
X185857142Y-106351071D02*
X185499999Y-105351071D01*
X184142856Y-106351071D02*
X184999999Y-106351071D01*
X184571428Y-106351071D02*
X184571428Y-104851071D01*
X184571428Y-104851071D02*
X184714285Y-105065357D01*
X184714285Y-105065357D02*
X184857142Y-105208214D01*
X184857142Y-105208214D02*
X184999999Y-105279642D01*
X182857143Y-106279642D02*
X183000000Y-106351071D01*
X183000000Y-106351071D02*
X183285714Y-106351071D01*
X183285714Y-106351071D02*
X183428571Y-106279642D01*
X183428571Y-106279642D02*
X183500000Y-106208214D01*
X183500000Y-106208214D02*
X183571428Y-106065357D01*
X183571428Y-106065357D02*
X183571428Y-105636785D01*
X183571428Y-105636785D02*
X183500000Y-105493928D01*
X183500000Y-105493928D02*
X183428571Y-105422500D01*
X183428571Y-105422500D02*
X183285714Y-105351071D01*
X183285714Y-105351071D02*
X183000000Y-105351071D01*
X183000000Y-105351071D02*
X182857143Y-105422500D01*
D11*
X135900000Y-92600000D02*
X136470000Y-92600000D01*
X133360000Y-92600000D02*
X134380000Y-92600000D01*
X130820000Y-97800000D02*
X131840000Y-97800000D01*
X128730000Y-97800000D02*
X129300000Y-97800000D01*
X135900000Y-97800000D02*
X136470000Y-97800000D01*
X130820000Y-92600000D02*
X131840000Y-92600000D01*
X128730000Y-92600000D02*
X129300000Y-92600000D01*
X128730000Y-92600000D02*
X128730000Y-97800000D01*
X133360000Y-97800000D02*
X134380000Y-97800000D01*
X136470000Y-92600000D02*
X136470000Y-97800000D01*
X129300000Y-91160000D02*
X129300000Y-92600000D01*
%LPC*%
D12*
X130059999Y-92674999D03*
X130059999Y-97724999D03*
X132599999Y-92674999D03*
X132599999Y-97724999D03*
X135139999Y-92674999D03*
X135139999Y-97724999D03*
M02*
