%TF.GenerationSoftware,KiCad,Pcbnew,(6.99.0-2452-gdb4f2d9dd8)*%
%TF.CreationDate,2022-07-19T06:10:02+04:00*%
%TF.ProjectId,B2,42322e6b-6963-4616-945f-706362585858,rev?*%
%TF.SameCoordinates,Original*%
%TF.FileFunction,Drillmap*%
%TF.FilePolarity,Positive*%
%FSLAX45Y45*%
G04 Gerber Fmt 4.5, Leading zero omitted, Abs format (unit mm)*
G04 Created by KiCad (PCBNEW (6.99.0-2452-gdb4f2d9dd8)) date 2022-07-19 06:10:02*
%MOMM*%
%LPD*%
G01*
G04 APERTURE LIST*
%ADD10C,0.140000*%
%ADD11C,0.200000*%
G04 APERTURE END LIST*
D10*
X19140406Y-10501859D02*
X18471049Y-10996109D01*
X17078675Y-10007608D01*
X16070404Y-10716504D01*
X15593100Y-10428427D01*
X15008472Y-10840773D01*
X14395602Y-10391712D01*
X13918298Y-10708031D01*
X12949567Y-9996311D01*
X11545896Y-11004582D01*
X10859594Y-10504682D01*
X15042185Y-7535418D01*
X19140406Y-10501859D01*
D11*
X11100213Y-11305058D02*
X11100213Y-11105058D01*
X11100213Y-11105058D02*
X11147832Y-11105058D01*
X11147832Y-11105058D02*
X11176404Y-11114582D01*
X11176404Y-11114582D02*
X11195451Y-11133629D01*
X11195451Y-11133629D02*
X11204975Y-11152677D01*
X11204975Y-11152677D02*
X11214499Y-11190772D01*
X11214499Y-11190772D02*
X11214499Y-11219343D01*
X11214499Y-11219343D02*
X11204975Y-11257439D01*
X11204975Y-11257439D02*
X11195451Y-11276486D01*
X11195451Y-11276486D02*
X11176404Y-11295534D01*
X11176404Y-11295534D02*
X11147832Y-11305058D01*
X11147832Y-11305058D02*
X11100213Y-11305058D01*
X11300213Y-11305058D02*
X11300213Y-11171724D01*
X11300213Y-11209819D02*
X11309737Y-11190772D01*
X11309737Y-11190772D02*
X11319261Y-11181248D01*
X11319261Y-11181248D02*
X11338308Y-11171724D01*
X11338308Y-11171724D02*
X11357356Y-11171724D01*
X11424023Y-11305058D02*
X11424023Y-11171724D01*
X11424023Y-11105058D02*
X11414499Y-11114582D01*
X11414499Y-11114582D02*
X11424023Y-11124105D01*
X11424023Y-11124105D02*
X11433547Y-11114582D01*
X11433547Y-11114582D02*
X11424023Y-11105058D01*
X11424023Y-11105058D02*
X11424023Y-11124105D01*
X11547832Y-11305058D02*
X11528785Y-11295534D01*
X11528785Y-11295534D02*
X11519261Y-11276486D01*
X11519261Y-11276486D02*
X11519261Y-11105058D01*
X11652594Y-11305058D02*
X11633547Y-11295534D01*
X11633547Y-11295534D02*
X11624023Y-11276486D01*
X11624023Y-11276486D02*
X11624023Y-11105058D01*
X11848785Y-11305058D02*
X11848785Y-11105058D01*
X11848785Y-11105058D02*
X11915451Y-11247915D01*
X11915451Y-11247915D02*
X11982118Y-11105058D01*
X11982118Y-11105058D02*
X11982118Y-11305058D01*
X12163070Y-11305058D02*
X12163070Y-11200296D01*
X12163070Y-11200296D02*
X12153547Y-11181248D01*
X12153547Y-11181248D02*
X12134499Y-11171724D01*
X12134499Y-11171724D02*
X12096404Y-11171724D01*
X12096404Y-11171724D02*
X12077356Y-11181248D01*
X12163070Y-11295534D02*
X12144023Y-11305058D01*
X12144023Y-11305058D02*
X12096404Y-11305058D01*
X12096404Y-11305058D02*
X12077356Y-11295534D01*
X12077356Y-11295534D02*
X12067832Y-11276486D01*
X12067832Y-11276486D02*
X12067832Y-11257439D01*
X12067832Y-11257439D02*
X12077356Y-11238391D01*
X12077356Y-11238391D02*
X12096404Y-11228867D01*
X12096404Y-11228867D02*
X12144023Y-11228867D01*
X12144023Y-11228867D02*
X12163070Y-11219343D01*
X12258308Y-11171724D02*
X12258308Y-11371724D01*
X12258308Y-11181248D02*
X12277356Y-11171724D01*
X12277356Y-11171724D02*
X12315451Y-11171724D01*
X12315451Y-11171724D02*
X12334499Y-11181248D01*
X12334499Y-11181248D02*
X12344023Y-11190772D01*
X12344023Y-11190772D02*
X12353547Y-11209819D01*
X12353547Y-11209819D02*
X12353547Y-11266962D01*
X12353547Y-11266962D02*
X12344023Y-11286010D01*
X12344023Y-11286010D02*
X12334499Y-11295534D01*
X12334499Y-11295534D02*
X12315451Y-11305058D01*
X12315451Y-11305058D02*
X12277356Y-11305058D01*
X12277356Y-11305058D02*
X12258308Y-11295534D01*
X12439261Y-11286010D02*
X12448785Y-11295534D01*
X12448785Y-11295534D02*
X12439261Y-11305058D01*
X12439261Y-11305058D02*
X12429737Y-11295534D01*
X12429737Y-11295534D02*
X12439261Y-11286010D01*
X12439261Y-11286010D02*
X12439261Y-11305058D01*
X12439261Y-11181248D02*
X12448785Y-11190772D01*
X12448785Y-11190772D02*
X12439261Y-11200296D01*
X12439261Y-11200296D02*
X12429737Y-11190772D01*
X12429737Y-11190772D02*
X12439261Y-11181248D01*
X12439261Y-11181248D02*
X12439261Y-11200296D01*
M02*
