<?xml version="1.0" encoding="UTF-8" standalone="no"?>
<!-- Created with Inkscape (http://www.inkscape.org/) -->

<svg
   width="91.546982mm"
   height="108.29551mm"
   viewBox="0 0 91.546982 108.29551"
   version="1.1"
   id="svg1810"
   xml:space="preserve"
   inkscape:version="1.2 (dc2aeda, 2022-05-15)"
   sodipodi:docname="AIAA logo icon.svg"
   xmlns:inkscape="http://www.inkscape.org/namespaces/inkscape"
   xmlns:sodipodi="http://sodipodi.sourceforge.net/DTD/sodipodi-0.dtd"
   xmlns="http://www.w3.org/2000/svg"
   xmlns:svg="http://www.w3.org/2000/svg"><sodipodi:namedview
     id="namedview1812"
     pagecolor="#ffffff"
     bordercolor="#000000"
     borderopacity="0.25"
     inkscape:showpageshadow="2"
     inkscape:pageopacity="0.0"
     inkscape:pagecheckerboard="0"
     inkscape:deskcolor="#d1d1d1"
     inkscape:document-units="mm"
     showgrid="false"
     inkscape:zoom="0.2102413"
     inkscape:cx="-61.833711"
     inkscape:cy="401.91912"
     inkscape:window-width="1800"
     inkscape:window-height="1097"
     inkscape:window-x="0"
     inkscape:window-y="44"
     inkscape:window-maximized="0"
     inkscape:current-layer="layer1" /><defs
     id="defs1807" /><g
     inkscape:label="Layer 1"
     inkscape:groupmode="layer"
     id="layer1"
     transform="translate(28.139849,-42.800538)"><path
       style="fill:#000000;stroke-width:0.0846667"
       d="m 12.290815,151.04381 c -2.701038,-0.16028 -5.1896699,-0.538 -7.8378367,-1.1896 -10.3791622,-2.55384 -19.4982783,-9.02833 -25.4496473,-18.069 -4.087569,-6.20939 -6.466766,-13.18665 -7.057453,-20.69676 -0.11344,-1.44229 -0.114523,-5.23423 -0.0019,-6.56591 0.658801,-7.788099 3.266105,-14.89261 7.83016,-21.335998 3.116993,-4.400474 7.136453,-8.265557 11.6991139,-11.249784 5.1959612,-3.39844 11.0502489,-5.608399 17.1707014,-6.48184 1.3962647,-0.199259 3.2875507,-0.372041 3.6252267,-0.331191 0.2205,0.02667 -0.123965,0.405531 -4.6382007,5.101269 -2.6820148,2.789849 -4.8657332,5.098991 -4.8527081,5.131427 0.013025,0.03243 1.9198793,2.052504 4.2374532,4.489041 2.3175748,2.436538 4.1844746,4.455897 4.1486666,4.487463 -0.03581,0.03157 -0.350854,0.102253 -0.700104,0.157079 -2.6214133,0.411519 -6.1993817,1.799222 -8.6183482,3.3426 -4.8961785,3.123917 -8.5442747,7.958363 -10.1293447,13.423374 -0.5998405,2.06813 -0.873589,3.81331 -0.9506594,6.06056 -0.1991351,5.80644 1.7352992,11.62605 5.3610358,16.12828 3.74802907,4.6541 9.0848028,7.70922 15.1115435,8.65084 1.041266,0.16269 1.54909,0.1899 3.543773,0.1899 1.996312,0 2.502109,-0.0271 3.546956,-0.19036 6.474244,-1.01137 11.992854,-4.30502 15.887534,-9.48209 2.40249,-3.19355 3.908607,-6.8548 4.568458,-11.10557 0.19055,-1.22752 0.260598,-4.11029 0.13295,-5.47138 -0.793224,-8.457971 -5.721008,-15.568794 -13.425565,-19.373179 -1.021817,-0.504558 -3.421661,-1.486772 -3.632627,-1.486772 -0.02621,0 -0.05779,1.032752 -0.07018,2.295004 l -0.02253,2.295004 -6.053006,-6.337837 C 12.385153,79.942569 9.2868735,76.703352 8.8292409,76.23012 l -0.83206,-0.860423 6.8850651,-7.137511 6.885066,-7.137512 0.02255,2.261767 c 0.0124,1.243973 0.03145,2.262846 0.04233,2.264165 0.647762,0.07847 2.823821,0.508823 3.829784,0.757398 4.592737,1.134871 9.575787,3.408525 13.573019,6.193064 0.526728,0.366928 0.974403,0.667141 0.994834,0.667141 0.02043,0 0.03715,-3.733286 0.03715,-8.296192 v -8.296192 l -2.807035,-0.02231 -2.807035,-0.02231 7.13334,-6.900334 c 3.923337,-3.795183 7.18091,-6.900333 7.239051,-6.900333 0.05814,0 3.317838,3.10515 7.243771,6.900333 l 7.138062,6.900334 -2.785914,0.04233 -2.785906,0.04233 -0.01566,26.861986 c -0.01695,29.058729 8.47e-4,27.866419 -0.460713,30.923019 -1.368606,9.06409 -5.627801,17.48179 -12.140998,23.99499 -6.573315,6.57331 -15.1081,10.86414 -24.254959,12.19408 -2.499691,0.36345 -6.232117,0.52866 -8.672163,0.38386 z m 0.544163,-24.64428 c -1.051054,-0.11924 -2.639476,-0.48126 -3.6995054,-0.84316 -6.8391719,-2.33491 -11.652896,-8.3738 -12.3923984,-15.54646 -0.1384952,-1.3433 -0.05996,-3.66728 0.1682699,-4.97937 0.8813944,-5.067123 3.80408943,-9.4921 8.1343009,-12.315378 1.7167682,-1.119324 4.2069707,-2.147863 6.138333,-2.53534 1.398656,-0.280604 2.294691,-0.366072 3.852334,-0.367451 1.733606,-0.0015 2.999219,0.154803 4.610101,0.569473 7.162886,1.843857 12.565014,7.925379 13.55556,15.260366 0.159575,1.18166 0.181416,3.62747 0.04217,4.72233 -0.524838,4.12663 -2.357557,7.885 -5.260694,10.78814 -2.846975,2.84697 -6.59867,4.69612 -10.563069,5.20637 -1.122199,0.14444 -3.485238,0.1653 -4.5854,0.0405 z"
       id="path2341" /></g></svg>
