<?xml version="1.0" encoding="UTF-8" standalone="no"?>
<!-- Created with Inkscape (http://www.inkscape.org/) -->

<svg
   width="91.546951mm"
   height="108.29544mm"
   viewBox="0 0 91.546951 108.29544"
   version="1.1"
   id="svg5"
   xml:space="preserve"
   inkscape:version="1.2 (dc2aeda, 2022-05-15)"
   sodipodi:docname="AIAA logo icon outline.svg"
   xmlns:inkscape="http://www.inkscape.org/namespaces/inkscape"
   xmlns:sodipodi="http://sodipodi.sourceforge.net/DTD/sodipodi-0.dtd"
   xmlns="http://www.w3.org/2000/svg"
   xmlns:svg="http://www.w3.org/2000/svg"><sodipodi:namedview
     id="namedview7"
     pagecolor="#ffffff"
     bordercolor="#000000"
     borderopacity="0.25"
     inkscape:showpageshadow="2"
     inkscape:pageopacity="0.0"
     inkscape:pagecheckerboard="0"
     inkscape:deskcolor="#d1d1d1"
     inkscape:document-units="mm"
     showgrid="false"
     inkscape:zoom="5.0862631"
     inkscape:cx="157.48301"
     inkscape:cy="142.04928"
     inkscape:window-width="1800"
     inkscape:window-height="1097"
     inkscape:window-x="0"
     inkscape:window-y="44"
     inkscape:window-maximized="0"
     inkscape:current-layer="layer1" /><defs
     id="defs2" /><g
     inkscape:label="Layer 1"
     inkscape:groupmode="layer"
     id="layer1"
     transform="translate(90.434344,-94.398016)"><path
       style="fill:none;stroke:#000000;stroke-width:0.0846667;stroke-opacity:1"
       d="m -50.00368,202.64126 c -2.701038,-0.16028 -5.18967,-0.53799 -7.837837,-1.1896 -10.379162,-2.55384 -19.498278,-9.02832 -25.449647,-18.069 -4.087569,-6.20939 -6.466766,-13.18664 -7.057453,-20.69675 -0.11344,-1.4423 -0.114523,-5.23424 -0.0019,-6.56591 0.658801,-7.78811 3.266105,-14.89262 7.83016,-21.336 3.116993,-4.40048 7.136453,-8.26556 11.699114,-11.24979 5.195961,-3.39844 11.050249,-5.6084 17.170701,-6.48184 1.396265,-0.19926 3.625227,-0.33119 3.625227,-0.33119 0,0 1.719887,-0.15995 3.748391,0.0406 2.418775,0.23911 2.444208,-0.91392 5.749712,-4.06963 l 0.02255,2.26177 c 0.0124,1.24397 0.03145,2.26284 0.04233,2.26416 0.647762,0.0785 2.823821,0.50882 3.829784,0.7574 4.592737,1.13487 9.575787,3.40852 13.573019,6.19306 0.526728,0.36693 0.974403,0.66714 0.994834,0.66714 0.02043,0 0.03715,-3.73328 0.03715,-8.29619 v -8.29619 l -2.807035,-0.0223 -2.807035,-0.0223 7.13334,-6.90033 c 3.923337,-3.795184 7.18091,-6.900334 7.239051,-6.900334 0.05814,0 3.3178376,3.10515 7.2437708,6.900334 l 7.1380621,6.90033 -2.7859144,0.0423 -2.7859058,0.0423 -0.015663,26.86199 c -0.01695,29.05872 8.467e-4,27.86641 -0.4607136,30.92301 -1.3686054,9.06409 -5.6278011,17.48179 -12.1409981,23.995 -6.573315,6.57331 -15.1081,10.86414 -24.254959,12.19407 -2.499691,0.36345 -6.232117,0.52866 -8.672163,0.38386 z"
       id="path273"
       sodipodi:nodetypes="ccsscssscscsccssscccssscccscsscc" /></g></svg>
