<?xml version="1.0" encoding="UTF-8" standalone="no"?>
<!-- Created with Inkscape (http://www.inkscape.org/) -->

<svg
   width="110.8093mm"
   height="30.988001mm"
   viewBox="0 0 110.8093 30.988001"
   version="1.1"
   id="svg5"
   xml:space="preserve"
   inkscape:version="1.2 (dc2aeda, 2022-05-15)"
   sodipodi:docname="AIAA words.svg"
   xmlns:inkscape="http://www.inkscape.org/namespaces/inkscape"
   xmlns:sodipodi="http://sodipodi.sourceforge.net/DTD/sodipodi-0.dtd"
   xmlns="http://www.w3.org/2000/svg"
   xmlns:svg="http://www.w3.org/2000/svg"><sodipodi:namedview
     id="namedview7"
     pagecolor="#ffffff"
     bordercolor="#000000"
     borderopacity="0.25"
     inkscape:showpageshadow="2"
     inkscape:pageopacity="0.0"
     inkscape:pagecheckerboard="0"
     inkscape:deskcolor="#d1d1d1"
     inkscape:document-units="mm"
     showgrid="false"
     inkscape:zoom="1.2886499"
     inkscape:cx="164.51326"
     inkscape:cy="163.34925"
     inkscape:window-width="1800"
     inkscape:window-height="1097"
     inkscape:window-x="0"
     inkscape:window-y="44"
     inkscape:window-maximized="0"
     inkscape:current-layer="layer1" /><defs
     id="defs2" /><g
     inkscape:label="Layer 1"
     inkscape:groupmode="layer"
     id="layer1"
     transform="translate(70.675385,-167.27636)"><path
       style="fill:#000000;stroke-width:0.0846667"
       d="m -70.674919,198.16274 c 0.01866,-0.056 4.812914,-7.02662 10.653888,-15.49028 l 10.619954,-15.38847 4.231061,0.0174 4.231061,0.0174 2.29407,14.83657 c 1.261739,8.16012 2.310512,14.85279 2.330606,14.87259 0.02009,0.0198 1.825355,-6.62808 4.011692,-14.77308 l 3.975156,-14.80908 h 4.30101 c 2.365554,0 4.301009,0.0135 4.301009,0.03 0,0.0165 -1.809455,6.76686 -4.02101,15.00077 -2.211555,8.23392 -4.011569,14.98019 -4.00003,14.99173 0.01154,0.0115 4.710595,-6.76738 10.442351,-15.06427 l 10.4213686,-15.08524 4.2466596,-0.022 c 2.33566536,-0.0121 4.2451526,0.007 4.2433153,0.0423 -0.00186,0.0354 1.0351347,6.79284 2.3043811,15.01662 l 2.3077253,14.95234 2.6957612,-3.90334 c 1.4826659,-2.14683 6.1499239,-8.90396 10.3716829,-15.01584 l 7.675914,-11.1125 h 4.208212 4.208213 l 0.04742,0.23284 c 0.10039,0.49289 4.707365,30.42733 4.707365,30.58674 0,0.166 -0.06449,0.16842 -4.485716,0.16842 h -4.485724 l -0.04262,-0.1905 c -0.02344,-0.10477 -0.178207,-1.2192 -0.343916,-2.4765 -0.16571,-1.2573 -0.322953,-2.40982 -0.349411,-2.56116 l -0.04812,-0.27517 h -5.86036 -5.860356 l -1.852692,2.75167 -1.852693,2.75166 H 6.1224479 c -4.8564205,0 -8.828684,-0.0286 -8.8272446,-0.0635 0.00144,-0.0349 -0.1593935,-1.27343 -0.3574034,-2.75223 l -0.3600111,-2.68874 -5.8867715,0.0217 -5.8867633,0.0217 -1.820333,2.72716 -1.820333,2.72715 -13.186833,0.003 c -7.252758,0.002 -13.186833,-0.0207 -13.186833,-0.05 0,-0.11447 -0.682003,-5.07999 -0.722371,-5.25944 l -0.04285,-0.1905 -5.861554,0.003 -5.861553,0.003 -1.846003,2.7486 -1.846001,2.74859 h -4.65922 c -3.591394,0 -4.651443,-0.0233 -4.625285,-0.1018 z M -46.675,185.88151 c -0.02417,-0.10477 -0.262509,-2.00025 -0.52964,-4.21216 -0.267131,-2.21192 -0.508661,-4.04644 -0.536732,-4.07671 -0.03994,-0.0431 -2.973438,4.39062 -5.281259,7.98208 l -0.319553,0.49729 h 3.355565 3.355566 z m 42.523758,0.0847 c -0.00246,-0.0582 -0.2412068,-1.99779 -0.5305128,-4.31017 l -0.5260255,-4.20435 -1.1380893,1.74901 c -0.6259491,0.96196 -1.8907082,2.90154 -2.8105607,4.31018 l -1.6724797,2.56116 h 3.3410818 c 2.6188161,0 3.3401084,-0.0229 3.3365862,-0.10583 z m 33.786494,-0.0988 c 0,-0.2763 -0.999668,-8.27396 -1.039131,-8.31343 -0.0242,-0.0242 -5.254921,7.95474 -5.514746,8.41219 -0.04765,0.0839 0.62567,0.10583 3.246882,0.10583 h 3.306995 z"
       id="path614"
       sodipodi:nodetypes="cscccssscssssscssscsscccssscssscccccsssccccccsscccccsccsssscccssscsscsssssscs" /></g></svg>
