<?xml version="1.0" encoding="UTF-8" standalone="no"?>
<!-- Created with Inkscape (http://www.inkscape.org/) -->

<svg
   width="137.07533mm"
   height="35.72953mm"
   viewBox="0 0 137.07533 35.72953"
   version="1.1"
   id="svg237"
   xml:space="preserve"
   inkscape:version="1.2 (dc2aeda, 2022-05-15)"
   sodipodi:docname="AIAA logo inverted.svg"
   xmlns:inkscape="http://www.inkscape.org/namespaces/inkscape"
   xmlns:sodipodi="http://sodipodi.sourceforge.net/DTD/sodipodi-0.dtd"
   xmlns="http://www.w3.org/2000/svg"
   xmlns:svg="http://www.w3.org/2000/svg"><sodipodi:namedview
     id="namedview239"
     pagecolor="#ffffff"
     bordercolor="#000000"
     borderopacity="0.25"
     inkscape:showpageshadow="2"
     inkscape:pageopacity="0.0"
     inkscape:pagecheckerboard="0"
     inkscape:deskcolor="#d1d1d1"
     inkscape:document-units="mm"
     showgrid="false"
     inkscape:zoom="0.83942524"
     inkscape:cx="210.85856"
     inkscape:cy="149.50706"
     inkscape:window-width="1800"
     inkscape:window-height="1097"
     inkscape:window-x="0"
     inkscape:window-y="44"
     inkscape:window-maximized="0"
     inkscape:current-layer="layer1" /><defs
     id="defs234" /><g
     inkscape:label="Layer 1"
     inkscape:groupmode="layer"
     id="layer1"
     transform="translate(167.71756,-178.09561)"><path
       style="fill:#000000;stroke-width:0.0846667"
       d="m -167.71756,195.96028 v -17.86467 h 68.537665 68.537665 l -0.0098,17.7165 c -0.0054,9.74407 -0.02422,17.65935 -0.04182,17.5895 -0.01759,-0.0699 -1.081033,-6.92785 -2.363191,-15.24 -1.282149,-8.31215 -2.347993,-15.16063 -2.368524,-15.21883 -0.02918,-0.0827 -0.942357,-0.10584 -4.180696,-0.10584 h -4.143367 l -10.400791,15.06119 c -5.720436,8.28365 -10.410173,15.05289 -10.421637,15.04276 -0.01146,-0.0101 -1.050036,-6.68288 -2.307929,-14.82835 -1.257901,-8.14546 -2.308826,-14.91471 -2.335386,-15.04276 l -0.04829,-0.23284 h -4.12882 c -3.826603,0 -4.138261,0.0109 -4.257845,0.14817 -0.07097,0.0815 -4.806272,6.92179 -10.522898,15.20067 -5.716627,8.27887 -10.409211,15.03715 -10.427965,15.0184 -0.01875,-0.0188 1.755133,-6.69713 3.94197,-14.84083 2.186836,-8.14371 4.002098,-14.91187 4.033916,-15.04036 l 0.05785,-0.23362 -4.260545,0.022 -4.260544,0.022 -3.982668,14.83727 c -2.19047,8.1605 -4.00171,14.83735 -4.025,14.83745 -0.0233,1e-4 -1.06596,-6.63857 -2.31707,-14.75261 -1.2511,-8.11403 -2.29409,-14.85756 -2.31775,-14.98561 l -0.043,-0.23284 -4.15925,6.7e-4 -4.15925,6.6e-4 -10.70111,15.49334 -10.70112,15.49333 -5.51255,-0.0111 c -3.20872,-0.006 -5.27105,-0.0392 -4.9347,-0.0783 1.55093,-0.18025 3.36682,-0.71675 4.72271,-1.39531 3.95214,-1.97787 6.62587,-5.44808 7.63003,-9.90294 l 0.19085,-0.84667 0.0246,-9.41917 0.0246,-9.41916 0.95004,-0.003 0.95003,-0.003 -2.32833,-2.27932 c -1.28058,-1.25363 -2.37514,-2.28095 -2.43235,-2.28292 -0.0572,-0.002 -1.15662,1.01557 -2.44314,2.26123 l -2.33912,2.26483 0.9403,0.0239 0.94031,0.0239 v 2.70485 2.70485 l -0.65617,-0.43007 c -1.34704,-0.88291 -3.13472,-1.62441 -4.65847,-1.93226 l -0.73903,-0.1493 -0.0423,-0.73199 -0.0423,-0.73198 -2.20134,2.29891 c -1.21073,1.26441 -2.19649,2.34746 -2.19058,2.40679 0.006,0.0593 0.99651,1.13771 2.20133,2.39642 l 2.19059,2.28854 0.0246,-0.72447 0.0246,-0.72448 0.22942,0.0547 c 0.38087,0.0908 1.41502,0.60444 1.95477,0.97097 1.55587,1.05657 2.63586,2.537 3.1995,4.38581 0.20499,0.67238 0.22681,0.87316 0.22806,2.0982 0.002,1.56167 -0.13278,2.21106 -0.70525,3.40863 -0.43798,0.9162 -0.75339,1.36945 -1.47883,2.12511 -1.0757,1.12049 -2.34142,1.85834 -3.82592,2.23032 -1.07061,0.26826 -2.81731,0.2642 -3.84187,-0.009 -1.7558,-0.46809 -3.29526,-1.49522 -4.37358,-2.91805 -0.45752,-0.60368 -1.13362,-1.98898 -1.32771,-2.72041 -1.05147,-3.96241 1.02403,-8.05416 4.81225,-9.48713 0.32596,-0.1233 0.81333,-0.26971 1.08303,-0.32535 0.26971,-0.0557 0.4922,-0.1313 0.49444,-0.16811 0.002,-0.0368 -0.60801,-0.70703 -1.3561,-1.48935 l -1.36017,-1.4224 1.3666,-1.42783 c 0.75163,-0.7853 1.48227,-1.55187 1.62364,-1.70348 l 0.25705,-0.27565 -0.54625,0.0511 c -5.54722,0.51916 -10.29612,4.26512 -12.13206,9.56984 -0.5574,1.61054 -0.68998,2.47021 -0.69044,4.47701 -3.5e-4,1.50871 0.0284,1.91978 0.18952,2.71415 1.25532,6.18741 6.15423,10.75126 12.2984,11.45725 0.4027,0.0463 -1.78866,0.077 -5.99016,0.084 l -6.62517,0.011 z m 15.7799,9.57 c 1.66342,-0.42543 3.14342,-1.61749 3.89296,-3.13555 0.52209,-1.05741 0.67566,-1.79799 0.62322,-3.00545 -0.0973,-2.23908 -1.31107,-4.1294 -3.29452,-5.13064 -1.01339,-0.51155 -2.34857,-0.73584 -3.46802,-0.58257 -1.41092,0.19319 -2.73836,0.8694 -3.65926,1.86409 -3.12272,3.3729 -1.52956,8.83799 2.91039,9.98361 0.8691,0.22425 2.13312,0.227 2.99523,0.006 z m 21.54764,5.56416 1.83616,-2.7305 5.94515,-0.0217 c 3.26983,-0.0119 5.94515,0.008 5.94515,0.0438 0,0.0696 0.65435,4.92504 0.70732,5.2484 l 0.0312,0.1905 h -8.15057 -8.15057 z m 40.735125,2.69547 c 0,-0.0193 0.82107,-1.25751 1.824599,-2.75166 l 1.824601,-2.71664 h 5.918565 5.918564 l 0.04652,0.27517 c 0.02559,0.15134 0.179002,1.26576 0.34091,2.4765 0.161917,1.21073 0.315883,2.32515 0.342147,2.4765 l 0.04776,0.27516 h -8.131835 c -4.472509,0 -8.131835,-0.0158 -8.131835,-0.035 z m 35.61985,-2.71663 1.844209,-2.75167 h 5.927615 5.927623 l 0.322258,2.39183 c 0.17725,1.31551 0.343967,2.55376 0.370502,2.75167 l 0.04823,0.35983 h -8.142325 -8.142334 z m -70.163845,-9.38971 c 0,-0.03 5.56428,-8.58991 5.64206,-8.67957 0.0168,-0.0194 0.0461,-0.0194 0.0649,0 0.0428,0.044 1.06634,8.19963 1.06634,8.49683 v 0.21678 h -3.38667 c -1.86266,0 -3.38666,-0.0153 -3.38666,-0.034 z m 42.602289,-0.0814 c 0.04825,-0.20348 5.61428,-8.69119 5.643211,-8.60541 0.06021,0.17854 1.085045,8.5978 1.053812,8.65735 -0.01832,0.0349 -1.538809,0.0635 -3.378852,0.0635 -2.781867,0 -3.340938,-0.0195 -3.318171,-0.11544 z m 33.767038,0.0608 c 0,-0.13511 5.623391,-8.66344 5.673852,-8.60485 0.04449,0.0517 1.106001,8.341 1.100777,8.59604 -0.0016,0.0773 -6.774629,0.0861 -6.774629,0.009 z"
       id="path707" /></g></svg>
