<?xml version="1.0" encoding="UTF-8" standalone="no"?>
<!-- Created with Inkscape (http://www.inkscape.org/) -->

<svg
   width="91.546951mm"
   height="150mm"
   viewBox="0 0 91.546951 150"
   version="1.1"
   id="svg5"
   xml:space="preserve"
   inkscape:version="1.2 (dc2aeda, 2022-05-15)"
   sodipodi:docname="AIAA logo icon outline with base.svg"
   xmlns:inkscape="http://www.inkscape.org/namespaces/inkscape"
   xmlns:sodipodi="http://sodipodi.sourceforge.net/DTD/sodipodi-0.dtd"
   xmlns="http://www.w3.org/2000/svg"
   xmlns:svg="http://www.w3.org/2000/svg"><sodipodi:namedview
     id="namedview7"
     pagecolor="#ffffff"
     bordercolor="#000000"
     borderopacity="0.25"
     inkscape:showpageshadow="2"
     inkscape:pageopacity="0.0"
     inkscape:pagecheckerboard="0"
     inkscape:deskcolor="#d1d1d1"
     inkscape:document-units="mm"
     showgrid="false"
     inkscape:zoom="0.83403857"
     inkscape:cx="118.69955"
     inkscape:cy="374.68291"
     inkscape:window-width="1800"
     inkscape:window-height="1097"
     inkscape:window-x="0"
     inkscape:window-y="44"
     inkscape:window-maximized="0"
     inkscape:current-layer="layer1" /><defs
     id="defs2" /><g
     inkscape:label="Layer 1"
     inkscape:groupmode="layer"
     id="layer1"
     transform="translate(90.434344,-94.398016)"><path
       style="fill:none;stroke:#000000;stroke-width:0.0846667;stroke-opacity:1"
       d="m -90.434344,162.68591 c 0,0 -0.0288,-5.23424 0.08383,-6.56591 0.658801,-7.78811 3.266105,-14.89262 7.83016,-21.336 3.116993,-4.40048 7.136453,-8.26556 11.699114,-11.24979 5.195961,-3.39844 11.050249,-5.6084 17.170701,-6.48184 1.396265,-0.19926 3.625227,-0.33119 3.625227,-0.33119 0,0 1.719887,-0.15995 3.748391,0.0406 2.418775,0.23911 2.444208,-0.91392 5.749712,-4.06963 l 0.02255,2.26177 c 0.0124,1.24397 0.03145,2.26284 0.04233,2.26416 0.647762,0.0785 2.823821,0.50882 3.829784,0.7574 4.592737,1.13487 9.575787,3.40852 13.573019,6.19306 0.526728,0.36693 0.974403,0.66714 0.994834,0.66714 0.02043,0 0.03715,-3.73328 0.03715,-8.29619 v -8.29619 l -2.807035,-0.0223 -2.807035,-0.0223 7.13334,-6.90033 c 3.923337,-3.795184 7.18091,-6.900334 7.239051,-6.900334 0.05814,0 3.3178376,3.10515 7.2437708,6.900334 l 7.1380621,6.90033 -2.7859144,0.0423 -2.7859058,0.0423 -0.015663,26.86199 c -0.01695,29.05872 -4.697e-4,30.92301 -4.697e-4,30.92301 v 78.32972 h -85.959 z"
       id="path273"
       sodipodi:nodetypes="ccssscscsccssscccssscccscccc" /></g></svg>
