<?xml version="1.0" encoding="UTF-8" standalone="no"?>
<!-- Created with Inkscape (http://www.inkscape.org/) -->

<svg
   width="137.07533mm"
   height="35.72953mm"
   viewBox="0 0 137.07533 35.72953"
   version="1.1"
   id="svg237"
   xml:space="preserve"
   inkscape:version="1.2 (dc2aeda, 2022-05-15)"
   sodipodi:docname="AIAA words inverted.svg"
   xmlns:inkscape="http://www.inkscape.org/namespaces/inkscape"
   xmlns:sodipodi="http://sodipodi.sourceforge.net/DTD/sodipodi-0.dtd"
   xmlns="http://www.w3.org/2000/svg"
   xmlns:svg="http://www.w3.org/2000/svg"><sodipodi:namedview
     id="namedview239"
     pagecolor="#ffffff"
     bordercolor="#000000"
     borderopacity="0.25"
     inkscape:showpageshadow="2"
     inkscape:pageopacity="0.0"
     inkscape:pagecheckerboard="0"
     inkscape:deskcolor="#d1d1d1"
     inkscape:document-units="mm"
     showgrid="false"
     inkscape:zoom="1.69641"
     inkscape:cx="282.95047"
     inkscape:cy="72.800797"
     inkscape:window-width="1800"
     inkscape:window-height="1097"
     inkscape:window-x="0"
     inkscape:window-y="44"
     inkscape:window-maximized="0"
     inkscape:current-layer="layer1" /><defs
     id="defs234" /><g
     inkscape:label="Layer 1"
     inkscape:groupmode="layer"
     id="layer1"
     transform="translate(167.71756,-178.09561)"><path
       style="fill:#000000;stroke-width:0.0846667"
       d="m -167.71756,195.96028 v -17.86467 h 68.537665 68.537665 l -0.0098,17.7165 c -0.0054,9.74407 -0.02422,17.65935 -0.04182,17.5895 -0.01759,-0.0699 -1.081033,-6.92785 -2.363191,-15.24 -1.282149,-8.31215 -2.347993,-15.16063 -2.368524,-15.21883 -0.02918,-0.0827 -0.942357,-0.10584 -4.180696,-0.10584 h -4.143367 l -10.400791,15.06119 c -5.720436,8.28365 -10.410173,15.05289 -10.421637,15.04276 -0.01146,-0.0101 -1.050036,-6.68288 -2.307929,-14.82835 -1.257901,-8.14546 -2.308826,-14.91471 -2.335386,-15.04276 l -0.04829,-0.23284 h -4.12882 c -3.826603,0 -4.138261,0.0109 -4.257845,0.14817 -0.07097,0.0815 -4.806272,6.92179 -10.522898,15.20067 -5.716627,8.27887 -10.409211,15.03715 -10.427965,15.0184 -0.01875,-0.0188 1.755133,-6.69713 3.94197,-14.84083 2.186836,-8.14371 4.002098,-14.91187 4.033916,-15.04036 l 0.05785,-0.23362 -4.260545,0.022 -4.260544,0.022 -3.982668,14.83727 c -2.19047,8.1605 -4.00171,14.83735 -4.025,14.83745 -0.0233,1e-4 -1.06596,-6.63857 -2.31707,-14.75261 -1.2511,-8.11403 -2.29409,-14.85756 -2.31775,-14.98561 l -0.043,-0.23284 -4.15925,6.7e-4 -4.15925,6.6e-4 -10.70111,15.49334 -10.70112,15.49333 -26.22262,1.1e-4 z m 37.32754,15.13416 1.83616,-2.7305 5.94515,-0.0217 c 3.26983,-0.0119 5.94515,0.008 5.94515,0.0438 0,0.0696 0.65435,4.92504 0.70732,5.2484 l 0.0312,0.1905 h -8.15057 -8.15057 z m 40.735125,2.69547 c 0,-0.0193 0.82107,-1.25751 1.824599,-2.75166 l 1.824601,-2.71664 h 5.918565 5.918564 l 0.04652,0.27517 c 0.02559,0.15134 0.179002,1.26576 0.34091,2.4765 0.161917,1.21073 0.315883,2.32515 0.342147,2.4765 l 0.04776,0.27516 h -8.131835 c -4.472509,0 -8.131835,-0.0158 -8.131835,-0.035 z m 35.61985,-2.71663 1.844209,-2.75167 h 5.927615 5.927623 l 0.322258,2.39183 c 0.17725,1.31551 0.343967,2.55376 0.370502,2.75167 l 0.04823,0.35983 h -8.142325 -8.142334 z m -70.163845,-9.38971 c 0,-0.03 5.56428,-8.58991 5.64206,-8.67957 0.0168,-0.0194 0.0461,-0.0194 0.0649,0 0.0428,0.044 1.06634,8.19963 1.06634,8.49683 v 0.21678 h -3.38667 c -1.86266,0 -3.38666,-0.0153 -3.38666,-0.034 z m 42.602289,-0.0814 c 0.04825,-0.20348 5.61428,-8.69119 5.643211,-8.60541 0.06021,0.17854 1.085045,8.5978 1.053812,8.65735 -0.01832,0.0349 -1.538809,0.0635 -3.378852,0.0635 -2.781867,0 -3.340938,-0.0195 -3.318171,-0.11544 z m 33.767038,0.0608 c 0,-0.13511 5.623391,-8.66344 5.673852,-8.60485 0.04449,0.0517 1.106001,8.341 1.100777,8.59604 -0.0016,0.0773 -6.774629,0.0861 -6.774629,0.009 z"
       id="path707"
       sodipodi:nodetypes="ccccssssscsssscscscsscccssscccccccccccssccccsscccssscsssccccsscccccccscscccssscscsss" /></g></svg>
