%TF.GenerationSoftware,KiCad,Pcbnew,(6.99.0-2452-gdb4f2d9dd8)*%
%TF.CreationDate,2022-08-01T23:18:10-05:00*%
%TF.ProjectId,DDS,4444532e-6b69-4636-9164-5f7063625858,rev?*%
%TF.SameCoordinates,Original*%
%TF.FileFunction,Drillmap*%
%TF.FilePolarity,Positive*%
%FSLAX45Y45*%
G04 Gerber Fmt 4.5, Leading zero omitted, Abs format (unit mm)*
G04 Created by KiCad (PCBNEW (6.99.0-2452-gdb4f2d9dd8)) date 2022-08-01 23:18:10*
%MOMM*%
%LPD*%
G01*
G04 APERTURE LIST*
%ADD10C,0.240000*%
%ADD11C,0.200000*%
G04 APERTURE END LIST*
D10*
X15312848Y-9748300D02*
X15510523Y-9750080D01*
X15559004Y-9753362D01*
X15575298Y-9758353D01*
X15591121Y-9764381D01*
X15606432Y-9771404D01*
X15621192Y-9779384D01*
X15635361Y-9788281D01*
X15648901Y-9798057D01*
X15661771Y-9808670D01*
X15673932Y-9820081D01*
X15685344Y-9832252D01*
X15695968Y-9845143D01*
X15705764Y-9858713D01*
X15714693Y-9872923D01*
X15722716Y-9887735D01*
X15729792Y-9903107D01*
X15735882Y-9919002D01*
X15740947Y-9935378D01*
X15741956Y-9940112D01*
X15742846Y-9947578D01*
X15743625Y-9959438D01*
X15744299Y-9977355D01*
X15744875Y-10002990D01*
X15745363Y-10038005D01*
X15746099Y-10142825D01*
X15746567Y-10305110D01*
X15746827Y-10538158D01*
X15746963Y-11269726D01*
X15746099Y-12396628D01*
X15744299Y-12562098D01*
X15740947Y-12604074D01*
X15735945Y-12620290D01*
X15729953Y-12636015D01*
X15723005Y-12651218D01*
X15715134Y-12665865D01*
X15706372Y-12679922D01*
X15696753Y-12693355D01*
X15686311Y-12706132D01*
X15675077Y-12718220D01*
X15663085Y-12729584D01*
X15650368Y-12740191D01*
X15636960Y-12750008D01*
X15622892Y-12759002D01*
X15608200Y-12767139D01*
X15592914Y-12774385D01*
X15577069Y-12780708D01*
X15560697Y-12786074D01*
X15556016Y-12787073D01*
X15547889Y-12787955D01*
X15534366Y-12788729D01*
X15513494Y-12789402D01*
X15483320Y-12789983D01*
X15441892Y-12790480D01*
X15317464Y-12791252D01*
X15124593Y-12791783D01*
X14847658Y-12792139D01*
X13979124Y-12792578D01*
X12712259Y-12792174D01*
X12395371Y-12788630D01*
X12395372Y-12788623D01*
X12386215Y-12786626D01*
X12377239Y-12784330D01*
X12368436Y-12781730D01*
X12359802Y-12778824D01*
X12351332Y-12775609D01*
X12343019Y-12772083D01*
X12334859Y-12768241D01*
X12326846Y-12764082D01*
X12318975Y-12759601D01*
X12311239Y-12754797D01*
X12303635Y-12749666D01*
X12296156Y-12744205D01*
X12288797Y-12738411D01*
X12281552Y-12732282D01*
X12274417Y-12725814D01*
X12267385Y-12719004D01*
X12262419Y-12713945D01*
X12257704Y-12708948D01*
X12253227Y-12703991D01*
X12248975Y-12699057D01*
X12244935Y-12694125D01*
X12241093Y-12689175D01*
X12237436Y-12684189D01*
X12233951Y-12679146D01*
X12230626Y-12674027D01*
X12227446Y-12668812D01*
X12224399Y-12663482D01*
X12221472Y-12658017D01*
X12218652Y-12652397D01*
X12215925Y-12646603D01*
X12213278Y-12640616D01*
X12210699Y-12634415D01*
X12204379Y-12619642D01*
X12203069Y-12615681D01*
X12201860Y-12611011D01*
X12200749Y-12605333D01*
X12199730Y-12598348D01*
X12198801Y-12589754D01*
X12197957Y-12579251D01*
X12197195Y-12566541D01*
X12196512Y-12551321D01*
X12195364Y-12512155D01*
X12194484Y-12459353D01*
X12193841Y-12390513D01*
X12193406Y-12303235D01*
X12193147Y-12195116D01*
X12193036Y-12063755D01*
X12193464Y-11257877D01*
X12195089Y-10138309D01*
X12197003Y-9974473D01*
X12200385Y-9933690D01*
X12205683Y-9917566D01*
X12211823Y-9902016D01*
X12218786Y-9887058D01*
X12226553Y-9872713D01*
X12235104Y-9858999D01*
X12244422Y-9845936D01*
X12254486Y-9833542D01*
X12265278Y-9821839D01*
X12276779Y-9810844D01*
X12288970Y-9800578D01*
X12301832Y-9791059D01*
X12315345Y-9782307D01*
X12329492Y-9774341D01*
X12344252Y-9767181D01*
X12359607Y-9760845D01*
X12375538Y-9755354D01*
X12400938Y-9747422D01*
X13968964Y-9747422D01*
X15312848Y-9748300D01*
D11*
X12428655Y-13098054D02*
X12428655Y-12898054D01*
X12428655Y-12898054D02*
X12476274Y-12898054D01*
X12476274Y-12898054D02*
X12504846Y-12907578D01*
X12504846Y-12907578D02*
X12523894Y-12926625D01*
X12523894Y-12926625D02*
X12533417Y-12945673D01*
X12533417Y-12945673D02*
X12542941Y-12983768D01*
X12542941Y-12983768D02*
X12542941Y-13012340D01*
X12542941Y-13012340D02*
X12533417Y-13050435D01*
X12533417Y-13050435D02*
X12523894Y-13069482D01*
X12523894Y-13069482D02*
X12504846Y-13088530D01*
X12504846Y-13088530D02*
X12476274Y-13098054D01*
X12476274Y-13098054D02*
X12428655Y-13098054D01*
X12628655Y-13098054D02*
X12628655Y-12964721D01*
X12628655Y-13002816D02*
X12638179Y-12983768D01*
X12638179Y-12983768D02*
X12647703Y-12974244D01*
X12647703Y-12974244D02*
X12666751Y-12964721D01*
X12666751Y-12964721D02*
X12685798Y-12964721D01*
X12752465Y-13098054D02*
X12752465Y-12964721D01*
X12752465Y-12898054D02*
X12742941Y-12907578D01*
X12742941Y-12907578D02*
X12752465Y-12917102D01*
X12752465Y-12917102D02*
X12761989Y-12907578D01*
X12761989Y-12907578D02*
X12752465Y-12898054D01*
X12752465Y-12898054D02*
X12752465Y-12917102D01*
X12876274Y-13098054D02*
X12857227Y-13088530D01*
X12857227Y-13088530D02*
X12847703Y-13069482D01*
X12847703Y-13069482D02*
X12847703Y-12898054D01*
X12981036Y-13098054D02*
X12961989Y-13088530D01*
X12961989Y-13088530D02*
X12952465Y-13069482D01*
X12952465Y-13069482D02*
X12952465Y-12898054D01*
X13177227Y-13098054D02*
X13177227Y-12898054D01*
X13177227Y-12898054D02*
X13243894Y-13040911D01*
X13243894Y-13040911D02*
X13310560Y-12898054D01*
X13310560Y-12898054D02*
X13310560Y-13098054D01*
X13491513Y-13098054D02*
X13491513Y-12993292D01*
X13491513Y-12993292D02*
X13481989Y-12974244D01*
X13481989Y-12974244D02*
X13462941Y-12964721D01*
X13462941Y-12964721D02*
X13424846Y-12964721D01*
X13424846Y-12964721D02*
X13405798Y-12974244D01*
X13491513Y-13088530D02*
X13472465Y-13098054D01*
X13472465Y-13098054D02*
X13424846Y-13098054D01*
X13424846Y-13098054D02*
X13405798Y-13088530D01*
X13405798Y-13088530D02*
X13396274Y-13069482D01*
X13396274Y-13069482D02*
X13396274Y-13050435D01*
X13396274Y-13050435D02*
X13405798Y-13031387D01*
X13405798Y-13031387D02*
X13424846Y-13021863D01*
X13424846Y-13021863D02*
X13472465Y-13021863D01*
X13472465Y-13021863D02*
X13491513Y-13012340D01*
X13586751Y-12964721D02*
X13586751Y-13164721D01*
X13586751Y-12974244D02*
X13605798Y-12964721D01*
X13605798Y-12964721D02*
X13643894Y-12964721D01*
X13643894Y-12964721D02*
X13662941Y-12974244D01*
X13662941Y-12974244D02*
X13672465Y-12983768D01*
X13672465Y-12983768D02*
X13681989Y-13002816D01*
X13681989Y-13002816D02*
X13681989Y-13059959D01*
X13681989Y-13059959D02*
X13672465Y-13079006D01*
X13672465Y-13079006D02*
X13662941Y-13088530D01*
X13662941Y-13088530D02*
X13643894Y-13098054D01*
X13643894Y-13098054D02*
X13605798Y-13098054D01*
X13605798Y-13098054D02*
X13586751Y-13088530D01*
X13767703Y-13079006D02*
X13777227Y-13088530D01*
X13777227Y-13088530D02*
X13767703Y-13098054D01*
X13767703Y-13098054D02*
X13758179Y-13088530D01*
X13758179Y-13088530D02*
X13767703Y-13079006D01*
X13767703Y-13079006D02*
X13767703Y-13098054D01*
X13767703Y-12974244D02*
X13777227Y-12983768D01*
X13777227Y-12983768D02*
X13767703Y-12993292D01*
X13767703Y-12993292D02*
X13758179Y-12983768D01*
X13758179Y-12983768D02*
X13767703Y-12974244D01*
X13767703Y-12974244D02*
X13767703Y-12993292D01*
M02*
