G04 #@! TF.GenerationSoftware,KiCad,Pcbnew,(6.99.0-2452-gdb4f2d9dd8)*
G04 #@! TF.CreationDate,2022-08-02T00:34:45-05:00*
G04 #@! TF.ProjectId,DDS,4444532e-6b69-4636-9164-5f7063625858,rev?*
G04 #@! TF.SameCoordinates,Original*
G04 #@! TF.FileFunction,Copper,L1,Top*
G04 #@! TF.FilePolarity,Positive*
%FSLAX46Y46*%
G04 Gerber Fmt 4.6, Leading zero omitted, Abs format (unit mm)*
G04 Created by KiCad (PCBNEW (6.99.0-2452-gdb4f2d9dd8)) date 2022-08-02 00:34:45*
%MOMM*%
%LPD*%
G01*
G04 APERTURE LIST*
G04 #@! TA.AperFunction,ComponentPad*
%ADD10R,1.800000X1.800000*%
G04 #@! TD*
G04 #@! TA.AperFunction,ComponentPad*
%ADD11C,1.800000*%
G04 #@! TD*
G04 #@! TA.AperFunction,ComponentPad*
%ADD12R,1.700000X1.700000*%
G04 #@! TD*
G04 #@! TA.AperFunction,ComponentPad*
%ADD13O,1.700000X1.700000*%
G04 #@! TD*
G04 APERTURE END LIST*
D10*
X139707052Y-114040003D03*
D11*
X139707053Y-111500004D03*
D12*
X137167052Y-99700003D03*
D13*
X137167052Y-102240003D03*
X139707052Y-99700003D03*
X139707052Y-102240003D03*
X142247052Y-99700003D03*
X142247052Y-102240003D03*
G04 #@! TA.AperFunction,NonConductor*
G36*
X138690492Y-100611392D02*
G01*
X138722808Y-100636642D01*
X138743579Y-100659205D01*
X138783813Y-100702910D01*
X138961477Y-100841193D01*
X138966058Y-100843672D01*
X138994733Y-100859190D01*
X139045124Y-100909203D01*
X139060476Y-100978520D01*
X139035916Y-101045133D01*
X138994734Y-101080817D01*
X138961477Y-101098815D01*
X138957366Y-101102014D01*
X138957364Y-101102016D01*
X138802914Y-101222231D01*
X138783813Y-101237098D01*
X138780281Y-101240935D01*
X138634859Y-101398903D01*
X138634856Y-101398907D01*
X138631331Y-101402736D01*
X138614729Y-101428147D01*
X138542536Y-101538647D01*
X138488532Y-101584736D01*
X138418185Y-101594311D01*
X138353827Y-101564334D01*
X138331570Y-101538647D01*
X138259377Y-101428147D01*
X138242775Y-101402736D01*
X138239250Y-101398907D01*
X138239247Y-101398903D01*
X138099578Y-101247184D01*
X138068157Y-101183519D01*
X138076144Y-101112973D01*
X138121002Y-101057944D01*
X138148244Y-101043791D01*
X138263257Y-101000893D01*
X138275589Y-100991662D01*
X138373103Y-100918663D01*
X138380314Y-100913265D01*
X138467942Y-100796208D01*
X138512051Y-100677948D01*
X138554598Y-100621112D01*
X138621118Y-100596301D01*
X138690492Y-100611392D01*
G37*
G04 #@! TD.AperFunction*
G04 #@! TA.AperFunction,NonConductor*
G36*
X141060279Y-100375674D02*
G01*
X141082536Y-100401361D01*
X141171331Y-100537272D01*
X141174856Y-100541101D01*
X141174859Y-100541105D01*
X141239564Y-100611392D01*
X141323813Y-100702910D01*
X141501477Y-100841193D01*
X141506058Y-100843672D01*
X141534733Y-100859190D01*
X141585124Y-100909203D01*
X141600476Y-100978520D01*
X141575916Y-101045133D01*
X141534734Y-101080817D01*
X141501477Y-101098815D01*
X141497366Y-101102014D01*
X141497364Y-101102016D01*
X141342914Y-101222231D01*
X141323813Y-101237098D01*
X141320281Y-101240935D01*
X141174859Y-101398903D01*
X141174856Y-101398907D01*
X141171331Y-101402736D01*
X141154729Y-101428147D01*
X141082536Y-101538647D01*
X141028532Y-101584736D01*
X140958185Y-101594311D01*
X140893827Y-101564334D01*
X140871570Y-101538647D01*
X140799377Y-101428147D01*
X140782775Y-101402736D01*
X140779250Y-101398907D01*
X140779247Y-101398903D01*
X140633825Y-101240935D01*
X140630293Y-101237098D01*
X140611192Y-101222231D01*
X140456742Y-101102016D01*
X140456740Y-101102014D01*
X140452629Y-101098815D01*
X140419373Y-101080818D01*
X140368982Y-101030805D01*
X140353630Y-100961488D01*
X140378190Y-100894875D01*
X140419373Y-100859190D01*
X140448048Y-100843672D01*
X140452629Y-100841193D01*
X140630293Y-100702910D01*
X140714542Y-100611392D01*
X140779247Y-100541105D01*
X140779250Y-100541101D01*
X140782775Y-100537272D01*
X140871570Y-100401361D01*
X140925574Y-100355272D01*
X140995921Y-100345697D01*
X141060279Y-100375674D01*
G37*
G04 #@! TD.AperFunction*
G04 #@! TA.AperFunction,NonConductor*
G36*
X153127945Y-97483500D02*
G01*
X153128998Y-97483505D01*
X155101531Y-97501270D01*
X155108906Y-97501553D01*
X155278964Y-97513065D01*
X155575454Y-97533136D01*
X155603841Y-97538371D01*
X155748817Y-97582780D01*
X155756750Y-97585503D01*
X155907140Y-97642791D01*
X155914822Y-97646012D01*
X156060333Y-97712761D01*
X156067723Y-97716448D01*
X156208067Y-97792326D01*
X156215120Y-97796441D01*
X156349916Y-97881082D01*
X156356630Y-97885608D01*
X156485419Y-97978589D01*
X156491829Y-97983537D01*
X156614266Y-98084505D01*
X156620322Y-98089834D01*
X156736041Y-98198424D01*
X156741725Y-98204110D01*
X156850318Y-98319923D01*
X156855610Y-98325941D01*
X156869143Y-98342361D01*
X156956732Y-98448635D01*
X156961656Y-98455014D01*
X157054866Y-98584130D01*
X157059376Y-98590821D01*
X157141838Y-98722060D01*
X157144341Y-98726044D01*
X157148441Y-98733063D01*
X157187261Y-98804735D01*
X157224758Y-98873963D01*
X157228423Y-98881288D01*
X157295735Y-99027526D01*
X157298936Y-99035125D01*
X157356867Y-99186316D01*
X157359571Y-99194139D01*
X157377655Y-99252610D01*
X157407306Y-99348482D01*
X157410161Y-99359430D01*
X157417867Y-99395563D01*
X157419752Y-99406927D01*
X157427571Y-99472508D01*
X157428187Y-99479174D01*
X157435635Y-99592664D01*
X157435815Y-99596162D01*
X157441405Y-99744789D01*
X157442452Y-99772634D01*
X157442509Y-99774535D01*
X157448243Y-100029406D01*
X157448263Y-100030487D01*
X157453121Y-100379648D01*
X157453130Y-100380516D01*
X157458049Y-101080818D01*
X157460489Y-101428147D01*
X157461554Y-101797388D01*
X157464703Y-102888795D01*
X157465171Y-103051199D01*
X157467773Y-105381481D01*
X157469135Y-112697164D01*
X157460537Y-123904481D01*
X157460490Y-123965581D01*
X157460483Y-123966765D01*
X157447928Y-125120727D01*
X157442533Y-125616622D01*
X157442140Y-125625280D01*
X157410079Y-126026805D01*
X157404880Y-126053917D01*
X157360177Y-126198831D01*
X157357519Y-126206551D01*
X157300524Y-126356143D01*
X157297380Y-126363656D01*
X157231293Y-126508262D01*
X157227686Y-126515527D01*
X157222983Y-126524277D01*
X157152828Y-126654820D01*
X157148770Y-126661823D01*
X157065440Y-126795516D01*
X157060956Y-126802221D01*
X156969472Y-126929988D01*
X156964586Y-126936371D01*
X156865262Y-127057896D01*
X156860003Y-127063929D01*
X156753119Y-127178932D01*
X156747507Y-127184597D01*
X156633414Y-127292717D01*
X156627452Y-127298019D01*
X156506428Y-127398966D01*
X156500156Y-127403870D01*
X156372530Y-127497314D01*
X156365965Y-127501809D01*
X156232022Y-127587443D01*
X156225195Y-127591511D01*
X156085249Y-127669013D01*
X156078183Y-127672640D01*
X155975491Y-127721324D01*
X155932529Y-127741691D01*
X155925256Y-127744862D01*
X155896117Y-127756490D01*
X155774206Y-127805139D01*
X155766749Y-127807846D01*
X155736367Y-127817804D01*
X155613226Y-127858164D01*
X155600285Y-127861654D01*
X155566377Y-127868890D01*
X155553687Y-127870927D01*
X155525950Y-127873939D01*
X155482049Y-127878706D01*
X155475646Y-127879236D01*
X155428359Y-127881942D01*
X155345195Y-127886700D01*
X155342111Y-127886839D01*
X155137800Y-127893429D01*
X155135712Y-127893496D01*
X155134075Y-127893538D01*
X154833579Y-127899323D01*
X154832680Y-127899337D01*
X154419312Y-127904292D01*
X154418686Y-127904298D01*
X153174674Y-127912019D01*
X151245829Y-127917334D01*
X151245644Y-127917334D01*
X148476483Y-127920886D01*
X148476385Y-127920886D01*
X142308687Y-127924005D01*
X139791220Y-127925278D01*
X138691096Y-127924928D01*
X127123285Y-127921243D01*
X127121916Y-127921235D01*
X123966993Y-127885949D01*
X123941561Y-127883065D01*
X123864435Y-127866248D01*
X123860096Y-127865219D01*
X123774741Y-127843382D01*
X123770282Y-127842154D01*
X123686741Y-127817481D01*
X123682240Y-127816059D01*
X123600484Y-127788544D01*
X123595964Y-127786927D01*
X123515770Y-127756490D01*
X123511270Y-127754682D01*
X123432658Y-127721331D01*
X123428200Y-127719337D01*
X123351010Y-127682998D01*
X123346626Y-127680829D01*
X123270859Y-127641498D01*
X123266592Y-127639178D01*
X123192054Y-127596749D01*
X123187942Y-127594302D01*
X123181813Y-127590495D01*
X123169680Y-127582960D01*
X123114682Y-127548801D01*
X123110684Y-127546212D01*
X123043007Y-127500546D01*
X123038568Y-127497550D01*
X123034752Y-127494871D01*
X122963686Y-127442982D01*
X122960093Y-127440258D01*
X122890015Y-127385086D01*
X122886594Y-127382293D01*
X122817504Y-127323840D01*
X122814264Y-127321003D01*
X122746049Y-127259169D01*
X122743016Y-127256327D01*
X122675324Y-127190772D01*
X122673061Y-127188524D01*
X122663632Y-127178918D01*
X122625412Y-127139982D01*
X122623741Y-127138245D01*
X122578320Y-127090098D01*
X122576525Y-127088154D01*
X122533630Y-127040666D01*
X122531693Y-127038470D01*
X122491167Y-126991442D01*
X122489150Y-126989043D01*
X122450754Y-126942177D01*
X122448739Y-126939648D01*
X122412396Y-126892830D01*
X122410321Y-126890081D01*
X122375806Y-126843016D01*
X122373752Y-126840131D01*
X122340939Y-126792644D01*
X122338944Y-126789667D01*
X122307662Y-126741514D01*
X122305742Y-126738464D01*
X122275820Y-126689387D01*
X122274010Y-126686322D01*
X122260007Y-126661823D01*
X122245294Y-126636083D01*
X122243633Y-126633083D01*
X122215957Y-126581408D01*
X122214423Y-126578449D01*
X122187678Y-126525163D01*
X122186321Y-126522374D01*
X122160321Y-126467134D01*
X122159113Y-126464485D01*
X122133803Y-126407227D01*
X122132747Y-126404766D01*
X122107488Y-126344047D01*
X122107488Y-126344045D01*
X122107454Y-126343964D01*
X122107413Y-126343867D01*
X122111484Y-126342146D01*
X122111478Y-126342126D01*
X122107412Y-126343865D01*
X122046362Y-126201167D01*
X122042570Y-126191146D01*
X122032478Y-126160611D01*
X122030134Y-126152650D01*
X122020039Y-126113656D01*
X122018367Y-126106293D01*
X122008567Y-126056252D01*
X122007537Y-126050218D01*
X121998135Y-125985746D01*
X121997546Y-125981109D01*
X121988690Y-125899202D01*
X121988365Y-125895746D01*
X121980174Y-125793778D01*
X121979995Y-125791227D01*
X121972508Y-125666297D01*
X121972409Y-125664412D01*
X121965664Y-125514212D01*
X121965591Y-125512250D01*
X121954164Y-125122318D01*
X121954128Y-125120727D01*
X121945349Y-124594177D01*
X121945336Y-124593254D01*
X121938909Y-123905030D01*
X121938906Y-123904481D01*
X121934558Y-123032771D01*
X121934556Y-123032444D01*
X121931974Y-121951057D01*
X121931974Y-121950862D01*
X121930865Y-120637628D01*
X121930865Y-120637455D01*
X121935136Y-112578792D01*
X121935136Y-112578676D01*
X121936703Y-111500004D01*
X138293726Y-111500004D01*
X138313002Y-111732630D01*
X138370304Y-111958911D01*
X138464069Y-112172673D01*
X138591739Y-112368087D01*
X138595264Y-112371916D01*
X138595267Y-112371920D01*
X138635402Y-112415517D01*
X138676896Y-112460591D01*
X138708316Y-112524255D01*
X138700329Y-112594801D01*
X138655471Y-112649830D01*
X138628227Y-112663983D01*
X138569295Y-112685964D01*
X138569291Y-112685966D01*
X138560849Y-112689115D01*
X138553637Y-112694514D01*
X138553635Y-112694515D01*
X138550095Y-112697165D01*
X138443792Y-112776743D01*
X138356164Y-112893800D01*
X138305064Y-113030803D01*
X138298553Y-113091366D01*
X138298553Y-114988642D01*
X138305064Y-115049205D01*
X138356164Y-115186208D01*
X138443792Y-115303265D01*
X138560849Y-115390893D01*
X138697852Y-115441993D01*
X138734758Y-115445961D01*
X138755065Y-115448144D01*
X138755068Y-115448144D01*
X138758415Y-115448504D01*
X140655691Y-115448504D01*
X140659038Y-115448144D01*
X140659041Y-115448144D01*
X140679348Y-115445961D01*
X140716254Y-115441993D01*
X140853257Y-115390893D01*
X140970314Y-115303265D01*
X141057942Y-115186208D01*
X141109042Y-115049205D01*
X141115553Y-114988642D01*
X141115553Y-113091366D01*
X141109042Y-113030803D01*
X141057942Y-112893800D01*
X140970314Y-112776743D01*
X140864011Y-112697165D01*
X140860471Y-112694515D01*
X140860469Y-112694514D01*
X140853257Y-112689115D01*
X140844815Y-112685966D01*
X140844811Y-112685964D01*
X140785879Y-112663983D01*
X140729044Y-112621437D01*
X140704233Y-112554916D01*
X140719325Y-112485542D01*
X140737209Y-112460593D01*
X140778704Y-112415517D01*
X140818839Y-112371920D01*
X140818842Y-112371916D01*
X140822367Y-112368087D01*
X140950037Y-112172673D01*
X141043802Y-111958911D01*
X141101104Y-111732630D01*
X141120380Y-111500004D01*
X141101104Y-111267378D01*
X141043802Y-111041097D01*
X140950037Y-110827335D01*
X140822367Y-110631921D01*
X140818842Y-110628092D01*
X140818839Y-110628088D01*
X140667805Y-110464023D01*
X140664273Y-110460186D01*
X140660161Y-110456985D01*
X140660155Y-110456980D01*
X140484183Y-110320015D01*
X140484181Y-110320013D01*
X140480070Y-110316814D01*
X140274780Y-110205717D01*
X140054004Y-110129924D01*
X140048870Y-110129067D01*
X140048865Y-110129066D01*
X139828902Y-110092361D01*
X139828899Y-110092361D01*
X139823765Y-110091504D01*
X139590341Y-110091504D01*
X139585207Y-110092361D01*
X139585204Y-110092361D01*
X139365241Y-110129066D01*
X139365236Y-110129067D01*
X139360102Y-110129924D01*
X139139326Y-110205717D01*
X138934036Y-110316814D01*
X138929925Y-110320013D01*
X138929923Y-110320015D01*
X138753951Y-110456980D01*
X138753945Y-110456985D01*
X138749833Y-110460186D01*
X138746301Y-110464023D01*
X138595267Y-110628088D01*
X138595264Y-110628092D01*
X138591739Y-110631921D01*
X138464069Y-110827335D01*
X138370304Y-111041097D01*
X138313002Y-111267378D01*
X138293726Y-111500004D01*
X121936703Y-111500004D01*
X121937369Y-111041097D01*
X121950148Y-102240004D01*
X135803897Y-102240004D01*
X135822489Y-102464372D01*
X135877757Y-102682620D01*
X135968193Y-102888795D01*
X135971043Y-102893157D01*
X135971045Y-102893161D01*
X135985754Y-102915674D01*
X136091331Y-103077272D01*
X136094856Y-103081101D01*
X136094859Y-103081105D01*
X136196413Y-103191421D01*
X136243813Y-103242910D01*
X136421477Y-103381193D01*
X136619479Y-103488346D01*
X136832418Y-103561448D01*
X136837552Y-103562305D01*
X136837557Y-103562306D01*
X137049347Y-103597647D01*
X137049349Y-103597647D01*
X137054484Y-103598504D01*
X137279622Y-103598504D01*
X137284757Y-103597647D01*
X137284759Y-103597647D01*
X137496549Y-103562306D01*
X137496554Y-103562305D01*
X137501688Y-103561448D01*
X137714627Y-103488346D01*
X137912629Y-103381193D01*
X138090293Y-103242910D01*
X138137693Y-103191421D01*
X138239247Y-103081105D01*
X138239250Y-103081101D01*
X138242775Y-103077272D01*
X138331570Y-102941361D01*
X138385574Y-102895272D01*
X138455921Y-102885697D01*
X138520279Y-102915674D01*
X138542536Y-102941361D01*
X138631331Y-103077272D01*
X138634856Y-103081101D01*
X138634859Y-103081105D01*
X138736413Y-103191421D01*
X138783813Y-103242910D01*
X138961477Y-103381193D01*
X139159479Y-103488346D01*
X139372418Y-103561448D01*
X139377552Y-103562305D01*
X139377557Y-103562306D01*
X139589347Y-103597647D01*
X139589349Y-103597647D01*
X139594484Y-103598504D01*
X139819622Y-103598504D01*
X139824757Y-103597647D01*
X139824759Y-103597647D01*
X140036549Y-103562306D01*
X140036554Y-103562305D01*
X140041688Y-103561448D01*
X140254627Y-103488346D01*
X140452629Y-103381193D01*
X140630293Y-103242910D01*
X140677693Y-103191421D01*
X140779247Y-103081105D01*
X140779250Y-103081101D01*
X140782775Y-103077272D01*
X140871570Y-102941361D01*
X140925574Y-102895272D01*
X140995921Y-102885697D01*
X141060279Y-102915674D01*
X141082536Y-102941361D01*
X141171331Y-103077272D01*
X141174856Y-103081101D01*
X141174859Y-103081105D01*
X141276413Y-103191421D01*
X141323813Y-103242910D01*
X141501477Y-103381193D01*
X141699479Y-103488346D01*
X141912418Y-103561448D01*
X141917552Y-103562305D01*
X141917557Y-103562306D01*
X142129347Y-103597647D01*
X142129349Y-103597647D01*
X142134484Y-103598504D01*
X142359622Y-103598504D01*
X142364757Y-103597647D01*
X142364759Y-103597647D01*
X142576549Y-103562306D01*
X142576554Y-103562305D01*
X142581688Y-103561448D01*
X142794627Y-103488346D01*
X142992629Y-103381193D01*
X143170293Y-103242910D01*
X143217693Y-103191421D01*
X143319247Y-103081105D01*
X143319250Y-103081101D01*
X143322775Y-103077272D01*
X143428352Y-102915674D01*
X143443061Y-102893161D01*
X143443063Y-102893157D01*
X143445913Y-102888795D01*
X143536349Y-102682620D01*
X143591617Y-102464372D01*
X143610209Y-102240004D01*
X143591617Y-102015636D01*
X143536349Y-101797388D01*
X143445913Y-101591213D01*
X143441682Y-101584736D01*
X143339377Y-101428147D01*
X143322775Y-101402736D01*
X143319250Y-101398907D01*
X143319247Y-101398903D01*
X143173825Y-101240935D01*
X143170293Y-101237098D01*
X143151192Y-101222231D01*
X142996742Y-101102016D01*
X142996740Y-101102014D01*
X142992629Y-101098815D01*
X142959373Y-101080818D01*
X142908982Y-101030805D01*
X142893630Y-100961488D01*
X142918190Y-100894875D01*
X142959373Y-100859190D01*
X142988048Y-100843672D01*
X142992629Y-100841193D01*
X143170293Y-100702910D01*
X143254542Y-100611392D01*
X143319247Y-100541105D01*
X143319250Y-100541101D01*
X143322775Y-100537272D01*
X143425433Y-100380142D01*
X143443061Y-100353161D01*
X143443063Y-100353157D01*
X143445913Y-100348795D01*
X143536349Y-100142620D01*
X143564922Y-100029790D01*
X143590336Y-99929431D01*
X143590336Y-99929430D01*
X143591617Y-99924372D01*
X143604125Y-99773433D01*
X143609779Y-99705193D01*
X143610209Y-99700004D01*
X143601463Y-99594455D01*
X143592048Y-99480832D01*
X143592047Y-99480827D01*
X143591617Y-99475636D01*
X143590336Y-99470577D01*
X143537631Y-99262450D01*
X143537631Y-99262449D01*
X143536349Y-99257388D01*
X143445913Y-99051213D01*
X143441682Y-99044736D01*
X143325626Y-98867100D01*
X143322775Y-98862736D01*
X143319250Y-98858907D01*
X143319247Y-98858903D01*
X143199648Y-98728986D01*
X143170293Y-98697098D01*
X143037296Y-98593581D01*
X142996742Y-98562016D01*
X142996740Y-98562014D01*
X142992629Y-98558815D01*
X142809408Y-98459661D01*
X142799212Y-98454143D01*
X142799209Y-98454142D01*
X142794627Y-98451662D01*
X142581688Y-98378560D01*
X142576554Y-98377703D01*
X142576549Y-98377702D01*
X142364759Y-98342361D01*
X142364757Y-98342361D01*
X142359622Y-98341504D01*
X142134484Y-98341504D01*
X142129349Y-98342361D01*
X142129347Y-98342361D01*
X141917557Y-98377702D01*
X141917552Y-98377703D01*
X141912418Y-98378560D01*
X141699479Y-98451662D01*
X141694897Y-98454142D01*
X141694894Y-98454143D01*
X141684698Y-98459661D01*
X141501477Y-98558815D01*
X141497366Y-98562014D01*
X141497364Y-98562016D01*
X141456810Y-98593581D01*
X141323813Y-98697098D01*
X141294458Y-98728986D01*
X141174859Y-98858903D01*
X141174856Y-98858907D01*
X141171331Y-98862736D01*
X141099559Y-98972592D01*
X141082536Y-98998647D01*
X141028532Y-99044736D01*
X140958185Y-99054311D01*
X140893827Y-99024334D01*
X140871570Y-98998647D01*
X140854547Y-98972592D01*
X140782775Y-98862736D01*
X140779250Y-98858907D01*
X140779247Y-98858903D01*
X140659648Y-98728986D01*
X140630293Y-98697098D01*
X140497296Y-98593581D01*
X140456742Y-98562016D01*
X140456740Y-98562014D01*
X140452629Y-98558815D01*
X140269408Y-98459661D01*
X140259212Y-98454143D01*
X140259209Y-98454142D01*
X140254627Y-98451662D01*
X140041688Y-98378560D01*
X140036554Y-98377703D01*
X140036549Y-98377702D01*
X139824759Y-98342361D01*
X139824757Y-98342361D01*
X139819622Y-98341504D01*
X139594484Y-98341504D01*
X139589349Y-98342361D01*
X139589347Y-98342361D01*
X139377557Y-98377702D01*
X139377552Y-98377703D01*
X139372418Y-98378560D01*
X139159479Y-98451662D01*
X139154897Y-98454142D01*
X139154894Y-98454143D01*
X139144698Y-98459661D01*
X138961477Y-98558815D01*
X138957366Y-98562014D01*
X138957364Y-98562016D01*
X138916810Y-98593581D01*
X138783813Y-98697098D01*
X138780281Y-98700935D01*
X138722808Y-98763366D01*
X138661954Y-98799937D01*
X138590990Y-98797802D01*
X138532445Y-98757640D01*
X138512051Y-98722060D01*
X138471091Y-98612243D01*
X138471090Y-98612241D01*
X138467942Y-98603800D01*
X138457457Y-98589793D01*
X138385712Y-98493954D01*
X138380314Y-98486743D01*
X138263257Y-98399115D01*
X138126254Y-98348015D01*
X138089348Y-98344047D01*
X138069041Y-98341864D01*
X138069038Y-98341864D01*
X138065691Y-98341504D01*
X136268415Y-98341504D01*
X136265068Y-98341864D01*
X136265065Y-98341864D01*
X136244758Y-98344047D01*
X136207852Y-98348015D01*
X136070849Y-98399115D01*
X135953792Y-98486743D01*
X135948394Y-98493954D01*
X135876650Y-98589793D01*
X135866164Y-98603800D01*
X135815064Y-98740803D01*
X135808553Y-98801366D01*
X135808553Y-100598642D01*
X135815064Y-100659205D01*
X135866164Y-100796208D01*
X135953792Y-100913265D01*
X135961003Y-100918663D01*
X136058518Y-100991662D01*
X136070849Y-101000893D01*
X136185861Y-101043791D01*
X136242695Y-101086337D01*
X136267506Y-101152857D01*
X136252414Y-101222231D01*
X136234528Y-101247184D01*
X136094859Y-101398903D01*
X136094856Y-101398907D01*
X136091331Y-101402736D01*
X136074729Y-101428147D01*
X135972425Y-101584736D01*
X135968193Y-101591213D01*
X135877757Y-101797388D01*
X135822489Y-102015636D01*
X135803897Y-102240004D01*
X121950148Y-102240004D01*
X121951391Y-101383692D01*
X121951400Y-101382428D01*
X121953098Y-101237098D01*
X121961227Y-100541105D01*
X121970476Y-99749240D01*
X121970898Y-99740299D01*
X122002483Y-99359430D01*
X122003115Y-99351805D01*
X122008981Y-99322885D01*
X122052670Y-99189930D01*
X122056152Y-99179334D01*
X122058657Y-99172402D01*
X122114500Y-99030973D01*
X122117307Y-99023863D01*
X122120269Y-99016969D01*
X122128798Y-98998647D01*
X122186708Y-98874246D01*
X122190119Y-98867465D01*
X122264122Y-98730776D01*
X122267991Y-98724123D01*
X122349398Y-98593572D01*
X122353729Y-98587085D01*
X122442322Y-98462876D01*
X122447092Y-98456612D01*
X122542755Y-98338813D01*
X122547915Y-98332851D01*
X122650455Y-98221650D01*
X122656002Y-98216003D01*
X122765260Y-98111555D01*
X122771164Y-98106257D01*
X122886994Y-98008710D01*
X122893201Y-98003807D01*
X122924075Y-97980957D01*
X123015456Y-97913326D01*
X123021899Y-97908862D01*
X123150459Y-97825601D01*
X123157108Y-97821581D01*
X123291779Y-97745747D01*
X123298607Y-97742172D01*
X123355676Y-97714488D01*
X123439322Y-97673912D01*
X123446253Y-97670805D01*
X123512740Y-97643373D01*
X123592778Y-97610350D01*
X123599760Y-97607709D01*
X123753817Y-97554609D01*
X123757270Y-97553476D01*
X123991111Y-97480450D01*
X124028670Y-97474722D01*
X139689542Y-97474722D01*
X153127945Y-97483500D01*
G37*
G04 #@! TD.AperFunction*
M02*
