G04 #@! TF.GenerationSoftware,KiCad,Pcbnew,(6.99.0-2452-gdb4f2d9dd8)*
G04 #@! TF.CreationDate,2022-08-02T16:49:25-05:00*
G04 #@! TF.ProjectId,CalPoly,43616c50-6f6c-4792-9e6b-696361645f70,rev?*
G04 #@! TF.SameCoordinates,Original*
G04 #@! TF.FileFunction,Legend,Bot*
G04 #@! TF.FilePolarity,Positive*
%FSLAX46Y46*%
G04 Gerber Fmt 4.6, Leading zero omitted, Abs format (unit mm)*
G04 Created by KiCad (PCBNEW (6.99.0-2452-gdb4f2d9dd8)) date 2022-08-02 16:49:25*
%MOMM*%
%LPD*%
G01*
G04 APERTURE LIST*
G04 Aperture macros list*
%AMRoundRect*
0 Rectangle with rounded corners*
0 $1 Rounding radius*
0 $2 $3 $4 $5 $6 $7 $8 $9 X,Y pos of 4 corners*
0 Add a 4 corners polygon primitive as box body*
4,1,4,$2,$3,$4,$5,$6,$7,$8,$9,$2,$3,0*
0 Add four circle primitives for the rounded corners*
1,1,$1+$1,$2,$3*
1,1,$1+$1,$4,$5*
1,1,$1+$1,$6,$7*
1,1,$1+$1,$8,$9*
0 Add four rect primitives between the rounded corners*
20,1,$1+$1,$2,$3,$4,$5,0*
20,1,$1+$1,$4,$5,$6,$7,0*
20,1,$1+$1,$6,$7,$8,$9,0*
20,1,$1+$1,$8,$9,$2,$3,0*%
G04 Aperture macros list end*
%ADD10C,0.150000*%
%ADD11C,0.120000*%
%ADD12R,1.800000X1.800000*%
%ADD13C,1.800000*%
%ADD14R,1.700000X1.700000*%
%ADD15O,1.700000X1.700000*%
%ADD16RoundRect,0.250000X0.400000X0.625000X-0.400000X0.625000X-0.400000X-0.625000X0.400000X-0.625000X0*%
G04 APERTURE END LIST*
D10*
X92300714Y-61823809D02*
X93157857Y-61823809D01*
X93157857Y-61823809D02*
X93253095Y-61776190D01*
X93253095Y-61776190D02*
X93300714Y-61680952D01*
X93300714Y-61680952D02*
X93300714Y-61633333D01*
X91967380Y-61823809D02*
X92015000Y-61776190D01*
X92015000Y-61776190D02*
X92062619Y-61823809D01*
X92062619Y-61823809D02*
X92015000Y-61871428D01*
X92015000Y-61871428D02*
X91967380Y-61823809D01*
X91967380Y-61823809D02*
X92062619Y-61823809D01*
X92967380Y-62442856D02*
X92919761Y-62347618D01*
X92919761Y-62347618D02*
X92824523Y-62299999D01*
X92824523Y-62299999D02*
X91967380Y-62299999D01*
X92919761Y-63252380D02*
X92967380Y-63157142D01*
X92967380Y-63157142D02*
X92967380Y-62966666D01*
X92967380Y-62966666D02*
X92919761Y-62871428D01*
X92919761Y-62871428D02*
X92872142Y-62823809D01*
X92872142Y-62823809D02*
X92776904Y-62776190D01*
X92776904Y-62776190D02*
X92491190Y-62776190D01*
X92491190Y-62776190D02*
X92395952Y-62823809D01*
X92395952Y-62823809D02*
X92348333Y-62871428D01*
X92348333Y-62871428D02*
X92300714Y-62966666D01*
X92300714Y-62966666D02*
X92300714Y-63157142D01*
X92300714Y-63157142D02*
X92348333Y-63252380D01*
X92300714Y-63680952D02*
X93157857Y-63680952D01*
X93157857Y-63680952D02*
X93253095Y-63633333D01*
X93253095Y-63633333D02*
X93300714Y-63538095D01*
X93300714Y-63538095D02*
X93300714Y-63490476D01*
X91967380Y-63680952D02*
X92015000Y-63633333D01*
X92015000Y-63633333D02*
X92062619Y-63680952D01*
X92062619Y-63680952D02*
X92015000Y-63728571D01*
X92015000Y-63728571D02*
X91967380Y-63680952D01*
X91967380Y-63680952D02*
X92062619Y-63680952D01*
X92967380Y-64299999D02*
X92919761Y-64204761D01*
X92919761Y-64204761D02*
X92824523Y-64157142D01*
X92824523Y-64157142D02*
X91967380Y-64157142D01*
X92919761Y-65109523D02*
X92967380Y-65014285D01*
X92967380Y-65014285D02*
X92967380Y-64823809D01*
X92967380Y-64823809D02*
X92919761Y-64728571D01*
X92919761Y-64728571D02*
X92872142Y-64680952D01*
X92872142Y-64680952D02*
X92776904Y-64633333D01*
X92776904Y-64633333D02*
X92491190Y-64633333D01*
X92491190Y-64633333D02*
X92395952Y-64680952D01*
X92395952Y-64680952D02*
X92348333Y-64728571D01*
X92348333Y-64728571D02*
X92300714Y-64823809D01*
X92300714Y-64823809D02*
X92300714Y-65014285D01*
X92300714Y-65014285D02*
X92348333Y-65109523D01*
X92300714Y-65538095D02*
X93157857Y-65538095D01*
X93157857Y-65538095D02*
X93253095Y-65490476D01*
X93253095Y-65490476D02*
X93300714Y-65395238D01*
X93300714Y-65395238D02*
X93300714Y-65347619D01*
X91967380Y-65538095D02*
X92015000Y-65490476D01*
X92015000Y-65490476D02*
X92062619Y-65538095D01*
X92062619Y-65538095D02*
X92015000Y-65585714D01*
X92015000Y-65585714D02*
X91967380Y-65538095D01*
X91967380Y-65538095D02*
X92062619Y-65538095D01*
X92967380Y-66157142D02*
X92919761Y-66061904D01*
X92919761Y-66061904D02*
X92824523Y-66014285D01*
X92824523Y-66014285D02*
X91967380Y-66014285D01*
X92919761Y-66966666D02*
X92967380Y-66871428D01*
X92967380Y-66871428D02*
X92967380Y-66680952D01*
X92967380Y-66680952D02*
X92919761Y-66585714D01*
X92919761Y-66585714D02*
X92872142Y-66538095D01*
X92872142Y-66538095D02*
X92776904Y-66490476D01*
X92776904Y-66490476D02*
X92491190Y-66490476D01*
X92491190Y-66490476D02*
X92395952Y-66538095D01*
X92395952Y-66538095D02*
X92348333Y-66585714D01*
X92348333Y-66585714D02*
X92300714Y-66680952D01*
X92300714Y-66680952D02*
X92300714Y-66871428D01*
X92300714Y-66871428D02*
X92348333Y-66966666D01*
X92300714Y-67395238D02*
X93157857Y-67395238D01*
X93157857Y-67395238D02*
X93253095Y-67347619D01*
X93253095Y-67347619D02*
X93300714Y-67252381D01*
X93300714Y-67252381D02*
X93300714Y-67204762D01*
X91967380Y-67395238D02*
X92015000Y-67347619D01*
X92015000Y-67347619D02*
X92062619Y-67395238D01*
X92062619Y-67395238D02*
X92015000Y-67442857D01*
X92015000Y-67442857D02*
X91967380Y-67395238D01*
X91967380Y-67395238D02*
X92062619Y-67395238D01*
X92967380Y-68014285D02*
X92919761Y-67919047D01*
X92919761Y-67919047D02*
X92824523Y-67871428D01*
X92824523Y-67871428D02*
X91967380Y-67871428D01*
X92919761Y-68823809D02*
X92967380Y-68728571D01*
X92967380Y-68728571D02*
X92967380Y-68538095D01*
X92967380Y-68538095D02*
X92919761Y-68442857D01*
X92919761Y-68442857D02*
X92872142Y-68395238D01*
X92872142Y-68395238D02*
X92776904Y-68347619D01*
X92776904Y-68347619D02*
X92491190Y-68347619D01*
X92491190Y-68347619D02*
X92395952Y-68395238D01*
X92395952Y-68395238D02*
X92348333Y-68442857D01*
X92348333Y-68442857D02*
X92300714Y-68538095D01*
X92300714Y-68538095D02*
X92300714Y-68728571D01*
X92300714Y-68728571D02*
X92348333Y-68823809D01*
D11*
X53470000Y-110500000D02*
X53470000Y-115700000D01*
X48330000Y-110500000D02*
X53470000Y-110500000D01*
X48330000Y-110500000D02*
X48330000Y-113100000D01*
X47060000Y-110500000D02*
X45730000Y-110500000D01*
X45730000Y-110500000D02*
X45730000Y-111830000D01*
X48330000Y-113100000D02*
X45730000Y-113100000D01*
X45730000Y-113100000D02*
X45730000Y-115700000D01*
X45730000Y-115700000D02*
X53470000Y-115700000D01*
X59227064Y-108410000D02*
X57772936Y-108410000D01*
X59227064Y-106590000D02*
X57772936Y-106590000D01*
%LPC*%
D12*
X62499999Y-114469999D03*
D13*
X62500000Y-111930000D03*
D14*
X47059999Y-111829999D03*
D15*
X47059999Y-114369999D03*
X49599999Y-111829999D03*
X49599999Y-114369999D03*
X52139999Y-111829999D03*
X52139999Y-114369999D03*
D16*
X60050000Y-107500000D03*
X56950000Y-107500000D03*
M02*
