G04 #@! TF.GenerationSoftware,KiCad,Pcbnew,(6.99.0-2452-gdb4f2d9dd8)*
G04 #@! TF.CreationDate,2022-08-02T16:49:25-05:00*
G04 #@! TF.ProjectId,CalPoly,43616c50-6f6c-4792-9e6b-696361645f70,rev?*
G04 #@! TF.SameCoordinates,Original*
G04 #@! TF.FileFunction,Copper,L1,Top*
G04 #@! TF.FilePolarity,Positive*
%FSLAX46Y46*%
G04 Gerber Fmt 4.6, Leading zero omitted, Abs format (unit mm)*
G04 Created by KiCad (PCBNEW (6.99.0-2452-gdb4f2d9dd8)) date 2022-08-02 16:49:25*
%MOMM*%
%LPD*%
G01*
G04 APERTURE LIST*
G04 #@! TA.AperFunction,ComponentPad*
%ADD10R,1.800000X1.800000*%
G04 #@! TD*
G04 #@! TA.AperFunction,ComponentPad*
%ADD11C,1.800000*%
G04 #@! TD*
G04 #@! TA.AperFunction,ComponentPad*
%ADD12R,1.700000X1.700000*%
G04 #@! TD*
G04 #@! TA.AperFunction,ComponentPad*
%ADD13O,1.700000X1.700000*%
G04 #@! TD*
G04 APERTURE END LIST*
D10*
X62499999Y-114469999D03*
D11*
X62500000Y-111930000D03*
D12*
X47059999Y-111829999D03*
D13*
X47059999Y-114369999D03*
X49599999Y-111829999D03*
X49599999Y-114369999D03*
X52139999Y-111829999D03*
X52139999Y-114369999D03*
G04 #@! TA.AperFunction,NonConductor*
G36*
X50953226Y-112505670D02*
G01*
X50975483Y-112531357D01*
X51064278Y-112667268D01*
X51067803Y-112671097D01*
X51067806Y-112671101D01*
X51132511Y-112741388D01*
X51216760Y-112832906D01*
X51394424Y-112971189D01*
X51399005Y-112973668D01*
X51427680Y-112989186D01*
X51478071Y-113039199D01*
X51493423Y-113108516D01*
X51468863Y-113175129D01*
X51427681Y-113210813D01*
X51394424Y-113228811D01*
X51390313Y-113232010D01*
X51390311Y-113232012D01*
X51281657Y-113316582D01*
X51216760Y-113367094D01*
X51213228Y-113370931D01*
X51067806Y-113528899D01*
X51067803Y-113528903D01*
X51064278Y-113532732D01*
X51061427Y-113537096D01*
X50975483Y-113668643D01*
X50921479Y-113714732D01*
X50851132Y-113724307D01*
X50786774Y-113694330D01*
X50764517Y-113668643D01*
X50678573Y-113537096D01*
X50675722Y-113532732D01*
X50672197Y-113528903D01*
X50672194Y-113528899D01*
X50526772Y-113370931D01*
X50523240Y-113367094D01*
X50458343Y-113316582D01*
X50349689Y-113232012D01*
X50349687Y-113232010D01*
X50345576Y-113228811D01*
X50312320Y-113210814D01*
X50261929Y-113160801D01*
X50246577Y-113091484D01*
X50271137Y-113024871D01*
X50312320Y-112989186D01*
X50340995Y-112973668D01*
X50345576Y-112971189D01*
X50523240Y-112832906D01*
X50607489Y-112741388D01*
X50672194Y-112671101D01*
X50672197Y-112671097D01*
X50675722Y-112667268D01*
X50764517Y-112531357D01*
X50818521Y-112485268D01*
X50888868Y-112475693D01*
X50953226Y-112505670D01*
G37*
G04 #@! TD.AperFunction*
G04 #@! TA.AperFunction,NonConductor*
G36*
X48583439Y-112741388D02*
G01*
X48615755Y-112766638D01*
X48636526Y-112789201D01*
X48676760Y-112832906D01*
X48854424Y-112971189D01*
X48859005Y-112973668D01*
X48887680Y-112989186D01*
X48938071Y-113039199D01*
X48953423Y-113108516D01*
X48928863Y-113175129D01*
X48887681Y-113210813D01*
X48854424Y-113228811D01*
X48850313Y-113232010D01*
X48850311Y-113232012D01*
X48741657Y-113316582D01*
X48676760Y-113367094D01*
X48673228Y-113370931D01*
X48527806Y-113528899D01*
X48527803Y-113528903D01*
X48524278Y-113532732D01*
X48521427Y-113537096D01*
X48435483Y-113668643D01*
X48381479Y-113714732D01*
X48311132Y-113724307D01*
X48246774Y-113694330D01*
X48224517Y-113668643D01*
X48138573Y-113537096D01*
X48135722Y-113532732D01*
X48132197Y-113528903D01*
X48132194Y-113528899D01*
X47992525Y-113377180D01*
X47961104Y-113313515D01*
X47969091Y-113242969D01*
X48013949Y-113187940D01*
X48041191Y-113173787D01*
X48156204Y-113130889D01*
X48168536Y-113121658D01*
X48248897Y-113061500D01*
X48273261Y-113043261D01*
X48360889Y-112926204D01*
X48404998Y-112807944D01*
X48447545Y-112751108D01*
X48514065Y-112726297D01*
X48583439Y-112741388D01*
G37*
G04 #@! TD.AperFunction*
G04 #@! TA.AperFunction,NonConductor*
G36*
X72229839Y-32002997D02*
G01*
X74218668Y-32027306D01*
X74220622Y-32027346D01*
X75820196Y-32073049D01*
X75823072Y-32073165D01*
X77444555Y-32157188D01*
X80461090Y-32313501D01*
X80463271Y-32313633D01*
X85261228Y-32645756D01*
X85263340Y-32645920D01*
X87323224Y-32823351D01*
X89858501Y-33041730D01*
X89861028Y-33041975D01*
X93276774Y-33407614D01*
X93891746Y-33473444D01*
X93892539Y-33473534D01*
X93892546Y-33473537D01*
X93892563Y-33473537D01*
X93893504Y-33473644D01*
X94026023Y-33489715D01*
X94760246Y-33578756D01*
X94825462Y-33606813D01*
X94865157Y-33665676D01*
X94871076Y-33703866D01*
X94869904Y-39161298D01*
X94869863Y-39161397D01*
X94869904Y-39161496D01*
X94869904Y-39183650D01*
X94871098Y-119871013D01*
X94851097Y-119939134D01*
X94797442Y-119985628D01*
X94745098Y-119997015D01*
X43055015Y-119997015D01*
X42986894Y-119977013D01*
X42940401Y-119923357D01*
X42929015Y-119870901D01*
X42932678Y-115820889D01*
X42933990Y-114370000D01*
X45696844Y-114370000D01*
X45715436Y-114594368D01*
X45770704Y-114812616D01*
X45861140Y-115018791D01*
X45863990Y-115023153D01*
X45863992Y-115023157D01*
X45878701Y-115045670D01*
X45984278Y-115207268D01*
X45987803Y-115211097D01*
X45987806Y-115211101D01*
X46089360Y-115321417D01*
X46136760Y-115372906D01*
X46314424Y-115511189D01*
X46319005Y-115513668D01*
X46492878Y-115607763D01*
X46512426Y-115618342D01*
X46725365Y-115691444D01*
X46730499Y-115692301D01*
X46730504Y-115692302D01*
X46942294Y-115727643D01*
X46942296Y-115727643D01*
X46947431Y-115728500D01*
X47172569Y-115728500D01*
X47177704Y-115727643D01*
X47177706Y-115727643D01*
X47389496Y-115692302D01*
X47389501Y-115692301D01*
X47394635Y-115691444D01*
X47607574Y-115618342D01*
X47627123Y-115607763D01*
X47800995Y-115513668D01*
X47805576Y-115511189D01*
X47983240Y-115372906D01*
X48030640Y-115321417D01*
X48132194Y-115211101D01*
X48132197Y-115211097D01*
X48135722Y-115207268D01*
X48224517Y-115071357D01*
X48278521Y-115025268D01*
X48348868Y-115015693D01*
X48413226Y-115045670D01*
X48435483Y-115071357D01*
X48524278Y-115207268D01*
X48527803Y-115211097D01*
X48527806Y-115211101D01*
X48629360Y-115321417D01*
X48676760Y-115372906D01*
X48854424Y-115511189D01*
X48859005Y-115513668D01*
X49032878Y-115607763D01*
X49052426Y-115618342D01*
X49265365Y-115691444D01*
X49270499Y-115692301D01*
X49270504Y-115692302D01*
X49482294Y-115727643D01*
X49482296Y-115727643D01*
X49487431Y-115728500D01*
X49712569Y-115728500D01*
X49717704Y-115727643D01*
X49717706Y-115727643D01*
X49929496Y-115692302D01*
X49929501Y-115692301D01*
X49934635Y-115691444D01*
X50147574Y-115618342D01*
X50167123Y-115607763D01*
X50340995Y-115513668D01*
X50345576Y-115511189D01*
X50523240Y-115372906D01*
X50570640Y-115321417D01*
X50672194Y-115211101D01*
X50672197Y-115211097D01*
X50675722Y-115207268D01*
X50764517Y-115071357D01*
X50818521Y-115025268D01*
X50888868Y-115015693D01*
X50953226Y-115045670D01*
X50975483Y-115071357D01*
X51064278Y-115207268D01*
X51067803Y-115211097D01*
X51067806Y-115211101D01*
X51169360Y-115321417D01*
X51216760Y-115372906D01*
X51394424Y-115511189D01*
X51399005Y-115513668D01*
X51572878Y-115607763D01*
X51592426Y-115618342D01*
X51805365Y-115691444D01*
X51810499Y-115692301D01*
X51810504Y-115692302D01*
X52022294Y-115727643D01*
X52022296Y-115727643D01*
X52027431Y-115728500D01*
X52252569Y-115728500D01*
X52257704Y-115727643D01*
X52257706Y-115727643D01*
X52469496Y-115692302D01*
X52469501Y-115692301D01*
X52474635Y-115691444D01*
X52687574Y-115618342D01*
X52707123Y-115607763D01*
X52880995Y-115513668D01*
X52885576Y-115511189D01*
X53063240Y-115372906D01*
X53110640Y-115321417D01*
X53212194Y-115211101D01*
X53212197Y-115211097D01*
X53215722Y-115207268D01*
X53321299Y-115045670D01*
X53336008Y-115023157D01*
X53336010Y-115023153D01*
X53338860Y-115018791D01*
X53429296Y-114812616D01*
X53484564Y-114594368D01*
X53503156Y-114370000D01*
X53484564Y-114145632D01*
X53429296Y-113927384D01*
X53338860Y-113721209D01*
X53334629Y-113714732D01*
X53218573Y-113537096D01*
X53215722Y-113532732D01*
X53212197Y-113528903D01*
X53212194Y-113528899D01*
X53066772Y-113370931D01*
X53063240Y-113367094D01*
X52998343Y-113316582D01*
X52889689Y-113232012D01*
X52889687Y-113232010D01*
X52885576Y-113228811D01*
X52852320Y-113210814D01*
X52801929Y-113160801D01*
X52786577Y-113091484D01*
X52811137Y-113024871D01*
X52852320Y-112989186D01*
X52880995Y-112973668D01*
X52885576Y-112971189D01*
X53063240Y-112832906D01*
X53147489Y-112741388D01*
X53212194Y-112671101D01*
X53212197Y-112671097D01*
X53215722Y-112667268D01*
X53321299Y-112505670D01*
X53336008Y-112483157D01*
X53336010Y-112483153D01*
X53338860Y-112478791D01*
X53378287Y-112388907D01*
X53427200Y-112277394D01*
X53429296Y-112272616D01*
X53484564Y-112054368D01*
X53494870Y-111930000D01*
X61086673Y-111930000D01*
X61087103Y-111935189D01*
X61097398Y-112059427D01*
X61105949Y-112162626D01*
X61163251Y-112388907D01*
X61165343Y-112393677D01*
X61165344Y-112393679D01*
X61254921Y-112597893D01*
X61257016Y-112602669D01*
X61259866Y-112607031D01*
X61259868Y-112607035D01*
X61337114Y-112725269D01*
X61384686Y-112798083D01*
X61388211Y-112801912D01*
X61388214Y-112801916D01*
X61413211Y-112829069D01*
X61469843Y-112890587D01*
X61501263Y-112954251D01*
X61493276Y-113024797D01*
X61448418Y-113079826D01*
X61421174Y-113093979D01*
X61362242Y-113115960D01*
X61362238Y-113115962D01*
X61353796Y-113119111D01*
X61236739Y-113206739D01*
X61231341Y-113213950D01*
X61179761Y-113282853D01*
X61149111Y-113323796D01*
X61098011Y-113460799D01*
X61091500Y-113521362D01*
X61091500Y-115418638D01*
X61098011Y-115479201D01*
X61149111Y-115616204D01*
X61236739Y-115733261D01*
X61353796Y-115820889D01*
X61490799Y-115871989D01*
X61527705Y-115875957D01*
X61548012Y-115878140D01*
X61548015Y-115878140D01*
X61551362Y-115878500D01*
X63448638Y-115878500D01*
X63451985Y-115878140D01*
X63451988Y-115878140D01*
X63472295Y-115875957D01*
X63509201Y-115871989D01*
X63646204Y-115820889D01*
X63763261Y-115733261D01*
X63850889Y-115616204D01*
X63901989Y-115479201D01*
X63908500Y-115418638D01*
X63908500Y-113521362D01*
X63901989Y-113460799D01*
X63850889Y-113323796D01*
X63820240Y-113282853D01*
X63768659Y-113213950D01*
X63763261Y-113206739D01*
X63646204Y-113119111D01*
X63637762Y-113115962D01*
X63637758Y-113115960D01*
X63578826Y-113093979D01*
X63521991Y-113051433D01*
X63497180Y-112984912D01*
X63512272Y-112915538D01*
X63530156Y-112890589D01*
X63586789Y-112829069D01*
X63611786Y-112801916D01*
X63611789Y-112801912D01*
X63615314Y-112798083D01*
X63662886Y-112725269D01*
X63740132Y-112607035D01*
X63740134Y-112607031D01*
X63742984Y-112602669D01*
X63745079Y-112597893D01*
X63834656Y-112393679D01*
X63834657Y-112393677D01*
X63836749Y-112388907D01*
X63894051Y-112162626D01*
X63902603Y-112059427D01*
X63912897Y-111935189D01*
X63913327Y-111930000D01*
X63894051Y-111697374D01*
X63836749Y-111471093D01*
X63780735Y-111343393D01*
X63745079Y-111262107D01*
X63742984Y-111257331D01*
X63696370Y-111185982D01*
X63618165Y-111066281D01*
X63615314Y-111061917D01*
X63611789Y-111058088D01*
X63611786Y-111058084D01*
X63460752Y-110894019D01*
X63457220Y-110890182D01*
X63453108Y-110886981D01*
X63453102Y-110886976D01*
X63277130Y-110750011D01*
X63277128Y-110750009D01*
X63273017Y-110746810D01*
X63067727Y-110635713D01*
X62846951Y-110559920D01*
X62841817Y-110559063D01*
X62841812Y-110559062D01*
X62621849Y-110522357D01*
X62621846Y-110522357D01*
X62616712Y-110521500D01*
X62383288Y-110521500D01*
X62378154Y-110522357D01*
X62378151Y-110522357D01*
X62158188Y-110559062D01*
X62158183Y-110559063D01*
X62153049Y-110559920D01*
X61932273Y-110635713D01*
X61726983Y-110746810D01*
X61722872Y-110750009D01*
X61722870Y-110750011D01*
X61546898Y-110886976D01*
X61546892Y-110886981D01*
X61542780Y-110890182D01*
X61539248Y-110894019D01*
X61388214Y-111058084D01*
X61388211Y-111058088D01*
X61384686Y-111061917D01*
X61381835Y-111066281D01*
X61303631Y-111185982D01*
X61257016Y-111257331D01*
X61254921Y-111262107D01*
X61219266Y-111343393D01*
X61163251Y-111471093D01*
X61105949Y-111697374D01*
X61086673Y-111930000D01*
X53494870Y-111930000D01*
X53503156Y-111830000D01*
X53484564Y-111605632D01*
X53429296Y-111387384D01*
X53338860Y-111181209D01*
X53334629Y-111174732D01*
X53218573Y-110997096D01*
X53215722Y-110992732D01*
X53212197Y-110988903D01*
X53212194Y-110988899D01*
X53066772Y-110830931D01*
X53063240Y-110827094D01*
X52964205Y-110750011D01*
X52889689Y-110692012D01*
X52889687Y-110692010D01*
X52885576Y-110688811D01*
X52687574Y-110581658D01*
X52474635Y-110508556D01*
X52469501Y-110507699D01*
X52469496Y-110507698D01*
X52257706Y-110472357D01*
X52257704Y-110472357D01*
X52252569Y-110471500D01*
X52027431Y-110471500D01*
X52022296Y-110472357D01*
X52022294Y-110472357D01*
X51810504Y-110507698D01*
X51810499Y-110507699D01*
X51805365Y-110508556D01*
X51592426Y-110581658D01*
X51394424Y-110688811D01*
X51390313Y-110692010D01*
X51390311Y-110692012D01*
X51315795Y-110750011D01*
X51216760Y-110827094D01*
X51213228Y-110830931D01*
X51067806Y-110988899D01*
X51067803Y-110988903D01*
X51064278Y-110992732D01*
X51019077Y-111061917D01*
X50975483Y-111128643D01*
X50921479Y-111174732D01*
X50851132Y-111184307D01*
X50786774Y-111154330D01*
X50764517Y-111128643D01*
X50720923Y-111061917D01*
X50675722Y-110992732D01*
X50672197Y-110988903D01*
X50672194Y-110988899D01*
X50526772Y-110830931D01*
X50523240Y-110827094D01*
X50424205Y-110750011D01*
X50349689Y-110692012D01*
X50349687Y-110692010D01*
X50345576Y-110688811D01*
X50147574Y-110581658D01*
X49934635Y-110508556D01*
X49929501Y-110507699D01*
X49929496Y-110507698D01*
X49717706Y-110472357D01*
X49717704Y-110472357D01*
X49712569Y-110471500D01*
X49487431Y-110471500D01*
X49482296Y-110472357D01*
X49482294Y-110472357D01*
X49270504Y-110507698D01*
X49270499Y-110507699D01*
X49265365Y-110508556D01*
X49052426Y-110581658D01*
X48854424Y-110688811D01*
X48850313Y-110692010D01*
X48850311Y-110692012D01*
X48775795Y-110750011D01*
X48676760Y-110827094D01*
X48673228Y-110830931D01*
X48615755Y-110893362D01*
X48554901Y-110929933D01*
X48483937Y-110927798D01*
X48425392Y-110887636D01*
X48404998Y-110852056D01*
X48364038Y-110742239D01*
X48364037Y-110742237D01*
X48360889Y-110733796D01*
X48273261Y-110616739D01*
X48224137Y-110579965D01*
X48163418Y-110534511D01*
X48163416Y-110534510D01*
X48156204Y-110529111D01*
X48019201Y-110478011D01*
X47982295Y-110474043D01*
X47961988Y-110471860D01*
X47961985Y-110471860D01*
X47958638Y-110471500D01*
X46161362Y-110471500D01*
X46158015Y-110471860D01*
X46158012Y-110471860D01*
X46137705Y-110474043D01*
X46100799Y-110478011D01*
X45963796Y-110529111D01*
X45956584Y-110534510D01*
X45956582Y-110534511D01*
X45895863Y-110579965D01*
X45846739Y-110616739D01*
X45759111Y-110733796D01*
X45708011Y-110870799D01*
X45701500Y-110931362D01*
X45701500Y-112728638D01*
X45708011Y-112789201D01*
X45759111Y-112926204D01*
X45846739Y-113043261D01*
X45871103Y-113061500D01*
X45951465Y-113121658D01*
X45963796Y-113130889D01*
X46078808Y-113173787D01*
X46135642Y-113216333D01*
X46160453Y-113282853D01*
X46145361Y-113352227D01*
X46127475Y-113377180D01*
X45987806Y-113528899D01*
X45987803Y-113528903D01*
X45984278Y-113532732D01*
X45981427Y-113537096D01*
X45865372Y-113714732D01*
X45861140Y-113721209D01*
X45770704Y-113927384D01*
X45715436Y-114145632D01*
X45696844Y-114370000D01*
X42933990Y-114370000D01*
X42998187Y-43380037D01*
X43000974Y-43380040D01*
X43000972Y-43380013D01*
X42998188Y-43380034D01*
X42998187Y-43379900D01*
X42998187Y-43379841D01*
X43000961Y-43379841D01*
X43000959Y-43379818D01*
X42998186Y-43379840D01*
X42960074Y-38550668D01*
X42960071Y-38550176D01*
X42946783Y-35217899D01*
X42946783Y-35216849D01*
X42951585Y-34111924D01*
X42951672Y-34107757D01*
X42964671Y-33760613D01*
X42987208Y-33693289D01*
X43047834Y-33646801D01*
X43093469Y-33630342D01*
X43112620Y-33625098D01*
X43208526Y-33606813D01*
X43410505Y-33568305D01*
X43417545Y-33567168D01*
X43421582Y-33566633D01*
X43521105Y-33553442D01*
X44513313Y-33421929D01*
X44516630Y-33421534D01*
X46171369Y-33246704D01*
X46173005Y-33246542D01*
X46971419Y-33172702D01*
X48286988Y-33051033D01*
X48287901Y-33050953D01*
X50762079Y-32843493D01*
X50762714Y-32843442D01*
X52529618Y-32707330D01*
X53498722Y-32632676D01*
X53499495Y-32632619D01*
X56398943Y-32427188D01*
X56399727Y-32427135D01*
X58255918Y-32307254D01*
X59363566Y-32235718D01*
X59365586Y-32235604D01*
X60970361Y-32158235D01*
X60972328Y-32158157D01*
X62964618Y-32094522D01*
X62966402Y-32094477D01*
X64986028Y-32059184D01*
X67597652Y-32013546D01*
X67599567Y-32013527D01*
X70582183Y-32006736D01*
X72228038Y-32002988D01*
X72229839Y-32002997D01*
G37*
G04 #@! TD.AperFunction*
M02*
