G04 #@! TF.GenerationSoftware,KiCad,Pcbnew,(6.99.0-2452-gdb4f2d9dd8)*
G04 #@! TF.CreationDate,2022-08-02T16:49:25-05:00*
G04 #@! TF.ProjectId,CalPoly,43616c50-6f6c-4792-9e6b-696361645f70,rev?*
G04 #@! TF.SameCoordinates,Original*
G04 #@! TF.FileFunction,Copper,L2,Bot*
G04 #@! TF.FilePolarity,Positive*
%FSLAX46Y46*%
G04 Gerber Fmt 4.6, Leading zero omitted, Abs format (unit mm)*
G04 Created by KiCad (PCBNEW (6.99.0-2452-gdb4f2d9dd8)) date 2022-08-02 16:49:25*
%MOMM*%
%LPD*%
G01*
G04 APERTURE LIST*
G04 Aperture macros list*
%AMRoundRect*
0 Rectangle with rounded corners*
0 $1 Rounding radius*
0 $2 $3 $4 $5 $6 $7 $8 $9 X,Y pos of 4 corners*
0 Add a 4 corners polygon primitive as box body*
4,1,4,$2,$3,$4,$5,$6,$7,$8,$9,$2,$3,0*
0 Add four circle primitives for the rounded corners*
1,1,$1+$1,$2,$3*
1,1,$1+$1,$4,$5*
1,1,$1+$1,$6,$7*
1,1,$1+$1,$8,$9*
0 Add four rect primitives between the rounded corners*
20,1,$1+$1,$2,$3,$4,$5,0*
20,1,$1+$1,$4,$5,$6,$7,0*
20,1,$1+$1,$6,$7,$8,$9,0*
20,1,$1+$1,$8,$9,$2,$3,0*%
G04 Aperture macros list end*
%ADD10C,0.300000*%
G04 #@! TA.AperFunction,NonConductor*
%ADD11C,0.300000*%
G04 #@! TD*
G04 #@! TA.AperFunction,ComponentPad*
%ADD12R,1.800000X1.800000*%
G04 #@! TD*
G04 #@! TA.AperFunction,ComponentPad*
%ADD13C,1.800000*%
G04 #@! TD*
G04 #@! TA.AperFunction,ComponentPad*
%ADD14R,1.700000X1.700000*%
G04 #@! TD*
G04 #@! TA.AperFunction,ComponentPad*
%ADD15O,1.700000X1.700000*%
G04 #@! TD*
G04 #@! TA.AperFunction,SMDPad,CuDef*
%ADD16RoundRect,0.250000X0.400000X0.625000X-0.400000X0.625000X-0.400000X-0.625000X0.400000X-0.625000X0*%
G04 #@! TD*
G04 #@! TA.AperFunction,Conductor*
%ADD17C,0.250000*%
G04 #@! TD*
G04 APERTURE END LIST*
D10*
D11*
X91514285Y-36529285D02*
X91585714Y-36457857D01*
X91585714Y-36457857D02*
X91728571Y-36386428D01*
X91728571Y-36386428D02*
X91871428Y-36386428D01*
X91871428Y-36386428D02*
X92014285Y-36457857D01*
X92014285Y-36457857D02*
X92085714Y-36529285D01*
X92085714Y-36529285D02*
X92157142Y-36672142D01*
X92157142Y-36672142D02*
X92157142Y-36815000D01*
X92157142Y-36815000D02*
X92085714Y-36957857D01*
X92085714Y-36957857D02*
X92014285Y-37029285D01*
X92014285Y-37029285D02*
X91871428Y-37100714D01*
X91871428Y-37100714D02*
X91728571Y-37100714D01*
X91728571Y-37100714D02*
X91585714Y-37029285D01*
X91585714Y-37029285D02*
X91514285Y-36957857D01*
X91514285Y-36386428D02*
X91514285Y-36957857D01*
X91514285Y-36957857D02*
X91442857Y-37029285D01*
X91442857Y-37029285D02*
X91371428Y-37029285D01*
X91371428Y-37029285D02*
X91228571Y-36957857D01*
X91228571Y-36957857D02*
X91157142Y-36815000D01*
X91157142Y-36815000D02*
X91157142Y-36457857D01*
X91157142Y-36457857D02*
X91300000Y-36243571D01*
X91300000Y-36243571D02*
X91514285Y-36100714D01*
X91514285Y-36100714D02*
X91800000Y-36029285D01*
X91800000Y-36029285D02*
X92085714Y-36100714D01*
X92085714Y-36100714D02*
X92300000Y-36243571D01*
X92300000Y-36243571D02*
X92442857Y-36457857D01*
X92442857Y-36457857D02*
X92514285Y-36743571D01*
X92514285Y-36743571D02*
X92442857Y-37029285D01*
X92442857Y-37029285D02*
X92300000Y-37243571D01*
X92300000Y-37243571D02*
X92085714Y-37386428D01*
X92085714Y-37386428D02*
X91800000Y-37457857D01*
X91800000Y-37457857D02*
X91514285Y-37386428D01*
X91514285Y-37386428D02*
X91300000Y-37243571D01*
X89871429Y-37243571D02*
X89871429Y-36457857D01*
X89871429Y-36457857D02*
X89942857Y-36315000D01*
X89942857Y-36315000D02*
X90085714Y-36243571D01*
X90085714Y-36243571D02*
X90371429Y-36243571D01*
X90371429Y-36243571D02*
X90514286Y-36315000D01*
X89871429Y-37172142D02*
X90014286Y-37243571D01*
X90014286Y-37243571D02*
X90371429Y-37243571D01*
X90371429Y-37243571D02*
X90514286Y-37172142D01*
X90514286Y-37172142D02*
X90585714Y-37029285D01*
X90585714Y-37029285D02*
X90585714Y-36886428D01*
X90585714Y-36886428D02*
X90514286Y-36743571D01*
X90514286Y-36743571D02*
X90371429Y-36672142D01*
X90371429Y-36672142D02*
X90014286Y-36672142D01*
X90014286Y-36672142D02*
X89871429Y-36600714D01*
X89300000Y-36243571D02*
X88942857Y-37243571D01*
X88942857Y-37243571D02*
X88585714Y-36243571D01*
X88371429Y-37386428D02*
X87228571Y-37386428D01*
X86871429Y-36243571D02*
X86871429Y-37743571D01*
X86871429Y-36315000D02*
X86728572Y-36243571D01*
X86728572Y-36243571D02*
X86442857Y-36243571D01*
X86442857Y-36243571D02*
X86300000Y-36315000D01*
X86300000Y-36315000D02*
X86228572Y-36386428D01*
X86228572Y-36386428D02*
X86157143Y-36529285D01*
X86157143Y-36529285D02*
X86157143Y-36957857D01*
X86157143Y-36957857D02*
X86228572Y-37100714D01*
X86228572Y-37100714D02*
X86300000Y-37172142D01*
X86300000Y-37172142D02*
X86442857Y-37243571D01*
X86442857Y-37243571D02*
X86728572Y-37243571D01*
X86728572Y-37243571D02*
X86871429Y-37172142D01*
X84871429Y-36243571D02*
X84871429Y-37243571D01*
X85514286Y-36243571D02*
X85514286Y-37029285D01*
X85514286Y-37029285D02*
X85442857Y-37172142D01*
X85442857Y-37172142D02*
X85300000Y-37243571D01*
X85300000Y-37243571D02*
X85085714Y-37243571D01*
X85085714Y-37243571D02*
X84942857Y-37172142D01*
X84942857Y-37172142D02*
X84871429Y-37100714D01*
X84157143Y-37243571D02*
X84157143Y-35743571D01*
X84157143Y-36315000D02*
X84014286Y-36243571D01*
X84014286Y-36243571D02*
X83728571Y-36243571D01*
X83728571Y-36243571D02*
X83585714Y-36315000D01*
X83585714Y-36315000D02*
X83514286Y-36386428D01*
X83514286Y-36386428D02*
X83442857Y-36529285D01*
X83442857Y-36529285D02*
X83442857Y-36957857D01*
X83442857Y-36957857D02*
X83514286Y-37100714D01*
X83514286Y-37100714D02*
X83585714Y-37172142D01*
X83585714Y-37172142D02*
X83728571Y-37243571D01*
X83728571Y-37243571D02*
X84014286Y-37243571D01*
X84014286Y-37243571D02*
X84157143Y-37172142D01*
X82871428Y-37172142D02*
X82728571Y-37243571D01*
X82728571Y-37243571D02*
X82442857Y-37243571D01*
X82442857Y-37243571D02*
X82300000Y-37172142D01*
X82300000Y-37172142D02*
X82228571Y-37029285D01*
X82228571Y-37029285D02*
X82228571Y-36957857D01*
X82228571Y-36957857D02*
X82300000Y-36815000D01*
X82300000Y-36815000D02*
X82442857Y-36743571D01*
X82442857Y-36743571D02*
X82657143Y-36743571D01*
X82657143Y-36743571D02*
X82800000Y-36672142D01*
X82800000Y-36672142D02*
X82871428Y-36529285D01*
X82871428Y-36529285D02*
X82871428Y-36457857D01*
X82871428Y-36457857D02*
X82800000Y-36315000D01*
X82800000Y-36315000D02*
X82657143Y-36243571D01*
X82657143Y-36243571D02*
X82442857Y-36243571D01*
X82442857Y-36243571D02*
X82300000Y-36315000D01*
X92585714Y-38673571D02*
X92228571Y-39673571D01*
X92228571Y-39673571D02*
X91871428Y-38673571D01*
X90514285Y-39673571D02*
X91371428Y-39673571D01*
X90942857Y-39673571D02*
X90942857Y-38173571D01*
X90942857Y-38173571D02*
X91085714Y-38387857D01*
X91085714Y-38387857D02*
X91228571Y-38530714D01*
X91228571Y-38530714D02*
X91371428Y-38602142D01*
D12*
X62499999Y-114469999D03*
D13*
X62500000Y-111930000D03*
D14*
X47059999Y-111829999D03*
D15*
X47059999Y-114369999D03*
X49599999Y-111829999D03*
X49599999Y-114369999D03*
X52139999Y-111829999D03*
X52139999Y-114369999D03*
D16*
X60050000Y-107500000D03*
X56950000Y-107500000D03*
D17*
X62500000Y-116700000D02*
X60800000Y-118400000D01*
X62500000Y-114470000D02*
X62500000Y-116700000D01*
X60800000Y-118400000D02*
X51090000Y-118400000D01*
X51090000Y-118400000D02*
X47060000Y-114370000D01*
X60050000Y-107500000D02*
X60050000Y-109480000D01*
X60050000Y-109480000D02*
X62500000Y-111930000D01*
X47060000Y-111830000D02*
X51390000Y-107500000D01*
X51390000Y-107500000D02*
X56950000Y-107500000D01*
G04 #@! TA.AperFunction,NonConductor*
G36*
X48583439Y-112741388D02*
G01*
X48615755Y-112766638D01*
X48636526Y-112789201D01*
X48676760Y-112832906D01*
X48854424Y-112971189D01*
X48859005Y-112973668D01*
X48887680Y-112989186D01*
X48938071Y-113039199D01*
X48953423Y-113108516D01*
X48928863Y-113175129D01*
X48887681Y-113210813D01*
X48854424Y-113228811D01*
X48850313Y-113232010D01*
X48850311Y-113232012D01*
X48741657Y-113316582D01*
X48676760Y-113367094D01*
X48673228Y-113370931D01*
X48527806Y-113528899D01*
X48527803Y-113528903D01*
X48524278Y-113532732D01*
X48521427Y-113537096D01*
X48435483Y-113668643D01*
X48381479Y-113714732D01*
X48311132Y-113724307D01*
X48246774Y-113694330D01*
X48224517Y-113668643D01*
X48138573Y-113537096D01*
X48135722Y-113532732D01*
X48132197Y-113528903D01*
X48132194Y-113528899D01*
X47992525Y-113377180D01*
X47961104Y-113313515D01*
X47969091Y-113242969D01*
X48013949Y-113187940D01*
X48041191Y-113173787D01*
X48156204Y-113130889D01*
X48168536Y-113121658D01*
X48248897Y-113061500D01*
X48273261Y-113043261D01*
X48360889Y-112926204D01*
X48404998Y-112807944D01*
X48447545Y-112751108D01*
X48514065Y-112726297D01*
X48583439Y-112741388D01*
G37*
G04 #@! TD.AperFunction*
G04 #@! TA.AperFunction,NonConductor*
G36*
X50953226Y-112505670D02*
G01*
X50975483Y-112531357D01*
X51064278Y-112667268D01*
X51067803Y-112671097D01*
X51067806Y-112671101D01*
X51132511Y-112741388D01*
X51216760Y-112832906D01*
X51394424Y-112971189D01*
X51399005Y-112973668D01*
X51427680Y-112989186D01*
X51478071Y-113039199D01*
X51493423Y-113108516D01*
X51468863Y-113175129D01*
X51427681Y-113210813D01*
X51394424Y-113228811D01*
X51390313Y-113232010D01*
X51390311Y-113232012D01*
X51281657Y-113316582D01*
X51216760Y-113367094D01*
X51213228Y-113370931D01*
X51067806Y-113528899D01*
X51067803Y-113528903D01*
X51064278Y-113532732D01*
X51061427Y-113537096D01*
X50975483Y-113668643D01*
X50921479Y-113714732D01*
X50851132Y-113724307D01*
X50786774Y-113694330D01*
X50764517Y-113668643D01*
X50678573Y-113537096D01*
X50675722Y-113532732D01*
X50672197Y-113528903D01*
X50672194Y-113528899D01*
X50526772Y-113370931D01*
X50523240Y-113367094D01*
X50458343Y-113316582D01*
X50349689Y-113232012D01*
X50349687Y-113232010D01*
X50345576Y-113228811D01*
X50312320Y-113210814D01*
X50261929Y-113160801D01*
X50246577Y-113091484D01*
X50271137Y-113024871D01*
X50312320Y-112989186D01*
X50340995Y-112973668D01*
X50345576Y-112971189D01*
X50523240Y-112832906D01*
X50607489Y-112741388D01*
X50672194Y-112671101D01*
X50672197Y-112671097D01*
X50675722Y-112667268D01*
X50764517Y-112531357D01*
X50818521Y-112485268D01*
X50888868Y-112475693D01*
X50953226Y-112505670D01*
G37*
G04 #@! TD.AperFunction*
G04 #@! TA.AperFunction,NonConductor*
G36*
X72229839Y-32002997D02*
G01*
X74218668Y-32027306D01*
X74220622Y-32027346D01*
X75820196Y-32073049D01*
X75823072Y-32073165D01*
X77444555Y-32157188D01*
X80461090Y-32313501D01*
X80463271Y-32313633D01*
X85261228Y-32645756D01*
X85263340Y-32645920D01*
X87323224Y-32823351D01*
X89858501Y-33041730D01*
X89861028Y-33041975D01*
X93276774Y-33407614D01*
X93891746Y-33473444D01*
X93892539Y-33473534D01*
X93892546Y-33473537D01*
X93892563Y-33473537D01*
X93893504Y-33473644D01*
X94026023Y-33489715D01*
X94760246Y-33578756D01*
X94825462Y-33606813D01*
X94865157Y-33665676D01*
X94871076Y-33703866D01*
X94869904Y-39161298D01*
X94869863Y-39161397D01*
X94869904Y-39161496D01*
X94869904Y-39183650D01*
X94871098Y-119871013D01*
X94851097Y-119939134D01*
X94797442Y-119985628D01*
X94745098Y-119997015D01*
X43055015Y-119997015D01*
X42986894Y-119977013D01*
X42940401Y-119923357D01*
X42929015Y-119870901D01*
X42929794Y-119010033D01*
X42933990Y-114370000D01*
X45696844Y-114370000D01*
X45715436Y-114594368D01*
X45770704Y-114812616D01*
X45861140Y-115018791D01*
X45863990Y-115023153D01*
X45863992Y-115023157D01*
X45878701Y-115045670D01*
X45984278Y-115207268D01*
X45987803Y-115211097D01*
X45987806Y-115211101D01*
X46089360Y-115321417D01*
X46136760Y-115372906D01*
X46314424Y-115511189D01*
X46319005Y-115513668D01*
X46492878Y-115607763D01*
X46512426Y-115618342D01*
X46725365Y-115691444D01*
X46730499Y-115692301D01*
X46730504Y-115692302D01*
X46942294Y-115727643D01*
X46942296Y-115727643D01*
X46947431Y-115728500D01*
X47172569Y-115728500D01*
X47177704Y-115727643D01*
X47177706Y-115727643D01*
X47389501Y-115692301D01*
X47389504Y-115692300D01*
X47394635Y-115691444D01*
X47397924Y-115690315D01*
X47468364Y-115692965D01*
X47517442Y-115723346D01*
X50586343Y-118792247D01*
X50593887Y-118800537D01*
X50598000Y-118807018D01*
X50603777Y-118812443D01*
X50647667Y-118853658D01*
X50650509Y-118856413D01*
X50670231Y-118876135D01*
X50673355Y-118878558D01*
X50673359Y-118878562D01*
X50673424Y-118878612D01*
X50682445Y-118886317D01*
X50714679Y-118916586D01*
X50721627Y-118920405D01*
X50721629Y-118920407D01*
X50732432Y-118926346D01*
X50748959Y-118937202D01*
X50758698Y-118944757D01*
X50758700Y-118944758D01*
X50764960Y-118949614D01*
X50805540Y-118967174D01*
X50816188Y-118972391D01*
X50840976Y-118986018D01*
X50854940Y-118993695D01*
X50862616Y-118995666D01*
X50862619Y-118995667D01*
X50874562Y-118998733D01*
X50893267Y-119005137D01*
X50911855Y-119013181D01*
X50919678Y-119014420D01*
X50919688Y-119014423D01*
X50955524Y-119020099D01*
X50967144Y-119022505D01*
X50998959Y-119030673D01*
X51009970Y-119033500D01*
X51030224Y-119033500D01*
X51049934Y-119035051D01*
X51069943Y-119038220D01*
X51077835Y-119037474D01*
X51096580Y-119035702D01*
X51113962Y-119034059D01*
X51125819Y-119033500D01*
X60721233Y-119033500D01*
X60732416Y-119034027D01*
X60739909Y-119035702D01*
X60747835Y-119035453D01*
X60747836Y-119035453D01*
X60807986Y-119033562D01*
X60811945Y-119033500D01*
X60839856Y-119033500D01*
X60843791Y-119033003D01*
X60843856Y-119032995D01*
X60855693Y-119032062D01*
X60887951Y-119031048D01*
X60891970Y-119030922D01*
X60899889Y-119030673D01*
X60919343Y-119025021D01*
X60938700Y-119021013D01*
X60950930Y-119019468D01*
X60950931Y-119019468D01*
X60958797Y-119018474D01*
X60966168Y-119015555D01*
X60966170Y-119015555D01*
X60999912Y-119002196D01*
X61011142Y-118998351D01*
X61045983Y-118988229D01*
X61045984Y-118988229D01*
X61053593Y-118986018D01*
X61060412Y-118981985D01*
X61060417Y-118981983D01*
X61071028Y-118975707D01*
X61088776Y-118967012D01*
X61107617Y-118959552D01*
X61143387Y-118933564D01*
X61153307Y-118927048D01*
X61184535Y-118908580D01*
X61184538Y-118908578D01*
X61191362Y-118904542D01*
X61205683Y-118890221D01*
X61220717Y-118877380D01*
X61222431Y-118876135D01*
X61237107Y-118865472D01*
X61265298Y-118831395D01*
X61273288Y-118822616D01*
X62892253Y-117203652D01*
X62900539Y-117196112D01*
X62907018Y-117192000D01*
X62953644Y-117142348D01*
X62956398Y-117139507D01*
X62976135Y-117119770D01*
X62978615Y-117116573D01*
X62986320Y-117107551D01*
X63011159Y-117081100D01*
X63016586Y-117075321D01*
X63020405Y-117068375D01*
X63020407Y-117068372D01*
X63026348Y-117057566D01*
X63037199Y-117041047D01*
X63044758Y-117031301D01*
X63049614Y-117025041D01*
X63052759Y-117017772D01*
X63052762Y-117017768D01*
X63067174Y-116984463D01*
X63072391Y-116973813D01*
X63093695Y-116935060D01*
X63098733Y-116915437D01*
X63105137Y-116896734D01*
X63110033Y-116885420D01*
X63110033Y-116885419D01*
X63113181Y-116878145D01*
X63114420Y-116870322D01*
X63114423Y-116870312D01*
X63120099Y-116834476D01*
X63122505Y-116822856D01*
X63131528Y-116787711D01*
X63131528Y-116787710D01*
X63133500Y-116780030D01*
X63133500Y-116759776D01*
X63135051Y-116740065D01*
X63136980Y-116727886D01*
X63138220Y-116720057D01*
X63134059Y-116676038D01*
X63133500Y-116664181D01*
X63133500Y-116004500D01*
X63153502Y-115936379D01*
X63207158Y-115889886D01*
X63259500Y-115878500D01*
X63448638Y-115878500D01*
X63451985Y-115878140D01*
X63451988Y-115878140D01*
X63472295Y-115875957D01*
X63509201Y-115871989D01*
X63646204Y-115820889D01*
X63660127Y-115810467D01*
X63756050Y-115738659D01*
X63763261Y-115733261D01*
X63850889Y-115616204D01*
X63901989Y-115479201D01*
X63908500Y-115418638D01*
X63908500Y-113521362D01*
X63901989Y-113460799D01*
X63850889Y-113323796D01*
X63820240Y-113282853D01*
X63768659Y-113213950D01*
X63763261Y-113206739D01*
X63646204Y-113119111D01*
X63637762Y-113115962D01*
X63637758Y-113115960D01*
X63578826Y-113093979D01*
X63521991Y-113051433D01*
X63497180Y-112984912D01*
X63512272Y-112915538D01*
X63530156Y-112890589D01*
X63586789Y-112829069D01*
X63611786Y-112801916D01*
X63611789Y-112801912D01*
X63615314Y-112798083D01*
X63662886Y-112725269D01*
X63740132Y-112607035D01*
X63740134Y-112607031D01*
X63742984Y-112602669D01*
X63745079Y-112597893D01*
X63834656Y-112393679D01*
X63834657Y-112393677D01*
X63836749Y-112388907D01*
X63894051Y-112162626D01*
X63902603Y-112059427D01*
X63912897Y-111935189D01*
X63913327Y-111930000D01*
X63894051Y-111697374D01*
X63869538Y-111600573D01*
X63838029Y-111476146D01*
X63838027Y-111476141D01*
X63836749Y-111471093D01*
X63820865Y-111434880D01*
X63745079Y-111262107D01*
X63742984Y-111257331D01*
X63696370Y-111185982D01*
X63618165Y-111066281D01*
X63615314Y-111061917D01*
X63611789Y-111058088D01*
X63611786Y-111058084D01*
X63460752Y-110894019D01*
X63457220Y-110890182D01*
X63453108Y-110886981D01*
X63453102Y-110886976D01*
X63277130Y-110750011D01*
X63277128Y-110750009D01*
X63273017Y-110746810D01*
X63067727Y-110635713D01*
X62846951Y-110559920D01*
X62841817Y-110559063D01*
X62841812Y-110559062D01*
X62621849Y-110522357D01*
X62621846Y-110522357D01*
X62616712Y-110521500D01*
X62383288Y-110521500D01*
X62378154Y-110522357D01*
X62378151Y-110522357D01*
X62158188Y-110559062D01*
X62158183Y-110559063D01*
X62153049Y-110559920D01*
X62132731Y-110566895D01*
X62061808Y-110570097D01*
X62002723Y-110536818D01*
X60720405Y-109254500D01*
X60686379Y-109192188D01*
X60683500Y-109165405D01*
X60683500Y-108937671D01*
X60703502Y-108869550D01*
X60757158Y-108823057D01*
X60762365Y-108821012D01*
X60765772Y-108819423D01*
X60772738Y-108817115D01*
X60923652Y-108724030D01*
X61049030Y-108598652D01*
X61142115Y-108447738D01*
X61197887Y-108279426D01*
X61205271Y-108207158D01*
X61208175Y-108178729D01*
X61208175Y-108178723D01*
X61208500Y-108175545D01*
X61208499Y-106824456D01*
X61197887Y-106720574D01*
X61142115Y-106552262D01*
X61049030Y-106401348D01*
X60923652Y-106275970D01*
X60772738Y-106182885D01*
X60709193Y-106161829D01*
X60610952Y-106129275D01*
X60610948Y-106129274D01*
X60604426Y-106127113D01*
X60597592Y-106126415D01*
X60597588Y-106126414D01*
X60503729Y-106116825D01*
X60503723Y-106116825D01*
X60500545Y-106116500D01*
X60050071Y-106116500D01*
X59599456Y-106116501D01*
X59596279Y-106116826D01*
X59596270Y-106116826D01*
X59547533Y-106121805D01*
X59495574Y-106127113D01*
X59327262Y-106182885D01*
X59176348Y-106275970D01*
X59050970Y-106401348D01*
X58957885Y-106552262D01*
X58902113Y-106720574D01*
X58891500Y-106824455D01*
X58891501Y-108175544D01*
X58891826Y-108178721D01*
X58891826Y-108178730D01*
X58896805Y-108227467D01*
X58902113Y-108279426D01*
X58957885Y-108447738D01*
X59050970Y-108598652D01*
X59176348Y-108724030D01*
X59327262Y-108817115D01*
X59334226Y-108819423D01*
X59340879Y-108822525D01*
X59339828Y-108824779D01*
X59388504Y-108858480D01*
X59415760Y-108924036D01*
X59416500Y-108937671D01*
X59416500Y-109401233D01*
X59415973Y-109412416D01*
X59414298Y-109419909D01*
X59414547Y-109427835D01*
X59414547Y-109427836D01*
X59416438Y-109487986D01*
X59416500Y-109491945D01*
X59416500Y-109519856D01*
X59416997Y-109523790D01*
X59416997Y-109523791D01*
X59417005Y-109523856D01*
X59417938Y-109535693D01*
X59419327Y-109579889D01*
X59424978Y-109599339D01*
X59428987Y-109618700D01*
X59431526Y-109638797D01*
X59434445Y-109646168D01*
X59434445Y-109646170D01*
X59447804Y-109679912D01*
X59451649Y-109691142D01*
X59463982Y-109733593D01*
X59468015Y-109740412D01*
X59468017Y-109740417D01*
X59474293Y-109751028D01*
X59482988Y-109768776D01*
X59490448Y-109787617D01*
X59495110Y-109794033D01*
X59495110Y-109794034D01*
X59516436Y-109823387D01*
X59522952Y-109833307D01*
X59545458Y-109871362D01*
X59559779Y-109885683D01*
X59572619Y-109900716D01*
X59584528Y-109917107D01*
X59590634Y-109922158D01*
X59618605Y-109945298D01*
X59627384Y-109953288D01*
X61108976Y-111434880D01*
X61143002Y-111497192D01*
X61142026Y-111554906D01*
X61105949Y-111697374D01*
X61086673Y-111930000D01*
X61087103Y-111935189D01*
X61097398Y-112059427D01*
X61105949Y-112162626D01*
X61163251Y-112388907D01*
X61165343Y-112393677D01*
X61165344Y-112393679D01*
X61254921Y-112597893D01*
X61257016Y-112602669D01*
X61259866Y-112607031D01*
X61259868Y-112607035D01*
X61337114Y-112725269D01*
X61384686Y-112798083D01*
X61388211Y-112801912D01*
X61388214Y-112801916D01*
X61413211Y-112829069D01*
X61469843Y-112890587D01*
X61501263Y-112954251D01*
X61493276Y-113024797D01*
X61448418Y-113079826D01*
X61421174Y-113093979D01*
X61362242Y-113115960D01*
X61362238Y-113115962D01*
X61353796Y-113119111D01*
X61236739Y-113206739D01*
X61231341Y-113213950D01*
X61179761Y-113282853D01*
X61149111Y-113323796D01*
X61098011Y-113460799D01*
X61091500Y-113521362D01*
X61091500Y-115418638D01*
X61098011Y-115479201D01*
X61149111Y-115616204D01*
X61236739Y-115733261D01*
X61243950Y-115738659D01*
X61339874Y-115810467D01*
X61353796Y-115820889D01*
X61490799Y-115871989D01*
X61527705Y-115875957D01*
X61548012Y-115878140D01*
X61548015Y-115878140D01*
X61551362Y-115878500D01*
X61740500Y-115878500D01*
X61808621Y-115898502D01*
X61855114Y-115952158D01*
X61866500Y-116004500D01*
X61866500Y-116385406D01*
X61846498Y-116453527D01*
X61829595Y-116474501D01*
X60574500Y-117729595D01*
X60512188Y-117763621D01*
X60485405Y-117766500D01*
X51404594Y-117766500D01*
X51336473Y-117746498D01*
X51315499Y-117729595D01*
X49529500Y-115943595D01*
X49495474Y-115881283D01*
X49500539Y-115810467D01*
X49543086Y-115753632D01*
X49609606Y-115728821D01*
X49618595Y-115728500D01*
X49712569Y-115728500D01*
X49717704Y-115727643D01*
X49717706Y-115727643D01*
X49929496Y-115692302D01*
X49929501Y-115692301D01*
X49934635Y-115691444D01*
X50147574Y-115618342D01*
X50167123Y-115607763D01*
X50340995Y-115513668D01*
X50345576Y-115511189D01*
X50523240Y-115372906D01*
X50570640Y-115321417D01*
X50672194Y-115211101D01*
X50672197Y-115211097D01*
X50675722Y-115207268D01*
X50764517Y-115071357D01*
X50818521Y-115025268D01*
X50888868Y-115015693D01*
X50953226Y-115045670D01*
X50975483Y-115071357D01*
X51064278Y-115207268D01*
X51067803Y-115211097D01*
X51067806Y-115211101D01*
X51169360Y-115321417D01*
X51216760Y-115372906D01*
X51394424Y-115511189D01*
X51399005Y-115513668D01*
X51572878Y-115607763D01*
X51592426Y-115618342D01*
X51805365Y-115691444D01*
X51810499Y-115692301D01*
X51810504Y-115692302D01*
X52022294Y-115727643D01*
X52022296Y-115727643D01*
X52027431Y-115728500D01*
X52252569Y-115728500D01*
X52257704Y-115727643D01*
X52257706Y-115727643D01*
X52469496Y-115692302D01*
X52469501Y-115692301D01*
X52474635Y-115691444D01*
X52687574Y-115618342D01*
X52707123Y-115607763D01*
X52880995Y-115513668D01*
X52885576Y-115511189D01*
X53063240Y-115372906D01*
X53110640Y-115321417D01*
X53212194Y-115211101D01*
X53212197Y-115211097D01*
X53215722Y-115207268D01*
X53321299Y-115045670D01*
X53336008Y-115023157D01*
X53336010Y-115023153D01*
X53338860Y-115018791D01*
X53429296Y-114812616D01*
X53484564Y-114594368D01*
X53503156Y-114370000D01*
X53484564Y-114145632D01*
X53429296Y-113927384D01*
X53338860Y-113721209D01*
X53334629Y-113714732D01*
X53218573Y-113537096D01*
X53215722Y-113532732D01*
X53212197Y-113528903D01*
X53212194Y-113528899D01*
X53066772Y-113370931D01*
X53063240Y-113367094D01*
X52998343Y-113316582D01*
X52889689Y-113232012D01*
X52889687Y-113232010D01*
X52885576Y-113228811D01*
X52852320Y-113210814D01*
X52801929Y-113160801D01*
X52786577Y-113091484D01*
X52811137Y-113024871D01*
X52852320Y-112989186D01*
X52880995Y-112973668D01*
X52885576Y-112971189D01*
X53063240Y-112832906D01*
X53147489Y-112741388D01*
X53212194Y-112671101D01*
X53212197Y-112671097D01*
X53215722Y-112667268D01*
X53321299Y-112505670D01*
X53336008Y-112483157D01*
X53336010Y-112483153D01*
X53338860Y-112478791D01*
X53378287Y-112388907D01*
X53427200Y-112277394D01*
X53429296Y-112272616D01*
X53484564Y-112054368D01*
X53503156Y-111830000D01*
X53492597Y-111702570D01*
X53484995Y-111610828D01*
X53484994Y-111610823D01*
X53484564Y-111605632D01*
X53483283Y-111600573D01*
X53430578Y-111392446D01*
X53430578Y-111392445D01*
X53429296Y-111387384D01*
X53338860Y-111181209D01*
X53334629Y-111174732D01*
X53218573Y-110997096D01*
X53215722Y-110992732D01*
X53212197Y-110988903D01*
X53212194Y-110988899D01*
X53066772Y-110830931D01*
X53063240Y-110827094D01*
X52964205Y-110750011D01*
X52889689Y-110692012D01*
X52889687Y-110692010D01*
X52885576Y-110688811D01*
X52742424Y-110611341D01*
X52692159Y-110584139D01*
X52692156Y-110584138D01*
X52687574Y-110581658D01*
X52474635Y-110508556D01*
X52469501Y-110507699D01*
X52469496Y-110507698D01*
X52257706Y-110472357D01*
X52257704Y-110472357D01*
X52252569Y-110471500D01*
X52027431Y-110471500D01*
X52022296Y-110472357D01*
X52022294Y-110472357D01*
X51810504Y-110507698D01*
X51810499Y-110507699D01*
X51805365Y-110508556D01*
X51592426Y-110581658D01*
X51587844Y-110584138D01*
X51587841Y-110584139D01*
X51537576Y-110611341D01*
X51394424Y-110688811D01*
X51390313Y-110692010D01*
X51390311Y-110692012D01*
X51315795Y-110750011D01*
X51216760Y-110827094D01*
X51213228Y-110830931D01*
X51067806Y-110988899D01*
X51067803Y-110988903D01*
X51064278Y-110992732D01*
X51019077Y-111061917D01*
X50975483Y-111128643D01*
X50921479Y-111174732D01*
X50851132Y-111184307D01*
X50786774Y-111154330D01*
X50764517Y-111128643D01*
X50720923Y-111061917D01*
X50675722Y-110992732D01*
X50672197Y-110988903D01*
X50672194Y-110988899D01*
X50526772Y-110830931D01*
X50523240Y-110827094D01*
X50424205Y-110750011D01*
X50349689Y-110692012D01*
X50349687Y-110692010D01*
X50345576Y-110688811D01*
X50202424Y-110611341D01*
X50152159Y-110584139D01*
X50152156Y-110584138D01*
X50147574Y-110581658D01*
X49934635Y-110508556D01*
X49929501Y-110507699D01*
X49929496Y-110507698D01*
X49717706Y-110472357D01*
X49717704Y-110472357D01*
X49712569Y-110471500D01*
X49618595Y-110471500D01*
X49550474Y-110451498D01*
X49503981Y-110397842D01*
X49493877Y-110327568D01*
X49523371Y-110262988D01*
X49529500Y-110256405D01*
X51615500Y-108170405D01*
X51677812Y-108136379D01*
X51704595Y-108133500D01*
X55673421Y-108133500D01*
X55741542Y-108153502D01*
X55788035Y-108207158D01*
X55798769Y-108246694D01*
X55802113Y-108279426D01*
X55857885Y-108447738D01*
X55950970Y-108598652D01*
X56076348Y-108724030D01*
X56227262Y-108817115D01*
X56250391Y-108824779D01*
X56389048Y-108870725D01*
X56389052Y-108870726D01*
X56395574Y-108872887D01*
X56402408Y-108873585D01*
X56402412Y-108873586D01*
X56496271Y-108883175D01*
X56496277Y-108883175D01*
X56499455Y-108883500D01*
X56949929Y-108883500D01*
X57400544Y-108883499D01*
X57403721Y-108883174D01*
X57403730Y-108883174D01*
X57452467Y-108878195D01*
X57504426Y-108872887D01*
X57672738Y-108817115D01*
X57823652Y-108724030D01*
X57949030Y-108598652D01*
X58042115Y-108447738D01*
X58097887Y-108279426D01*
X58105271Y-108207158D01*
X58108175Y-108178729D01*
X58108175Y-108178723D01*
X58108500Y-108175545D01*
X58108499Y-106824456D01*
X58097887Y-106720574D01*
X58042115Y-106552262D01*
X57949030Y-106401348D01*
X57823652Y-106275970D01*
X57672738Y-106182885D01*
X57609193Y-106161829D01*
X57510952Y-106129275D01*
X57510948Y-106129274D01*
X57504426Y-106127113D01*
X57497592Y-106126415D01*
X57497588Y-106126414D01*
X57403729Y-106116825D01*
X57403723Y-106116825D01*
X57400545Y-106116500D01*
X56950071Y-106116500D01*
X56499456Y-106116501D01*
X56496279Y-106116826D01*
X56496270Y-106116826D01*
X56447533Y-106121805D01*
X56395574Y-106127113D01*
X56227262Y-106182885D01*
X56076348Y-106275970D01*
X55950970Y-106401348D01*
X55857885Y-106552262D01*
X55802113Y-106720574D01*
X55801415Y-106727408D01*
X55801414Y-106727412D01*
X55798769Y-106753306D01*
X55771947Y-106819041D01*
X55713844Y-106859840D01*
X55673421Y-106866500D01*
X51468768Y-106866500D01*
X51457585Y-106865973D01*
X51450092Y-106864298D01*
X51442166Y-106864547D01*
X51442165Y-106864547D01*
X51382002Y-106866438D01*
X51378044Y-106866500D01*
X51350144Y-106866500D01*
X51346154Y-106867004D01*
X51334320Y-106867936D01*
X51290111Y-106869326D01*
X51282497Y-106871538D01*
X51282492Y-106871539D01*
X51270659Y-106874977D01*
X51251296Y-106878988D01*
X51231203Y-106881526D01*
X51223836Y-106884443D01*
X51223831Y-106884444D01*
X51190092Y-106897802D01*
X51178865Y-106901646D01*
X51136407Y-106913982D01*
X51129581Y-106918019D01*
X51118972Y-106924293D01*
X51101224Y-106932988D01*
X51082383Y-106940448D01*
X51075967Y-106945110D01*
X51075966Y-106945110D01*
X51046613Y-106966436D01*
X51036693Y-106972952D01*
X51005465Y-106991420D01*
X51005462Y-106991422D01*
X50998638Y-106995458D01*
X50984317Y-107009779D01*
X50969284Y-107022619D01*
X50952893Y-107034528D01*
X50947842Y-107040634D01*
X50924702Y-107068605D01*
X50916712Y-107077384D01*
X47559500Y-110434595D01*
X47497188Y-110468621D01*
X47470405Y-110471500D01*
X46161362Y-110471500D01*
X46158015Y-110471860D01*
X46158012Y-110471860D01*
X46137705Y-110474043D01*
X46100799Y-110478011D01*
X45963796Y-110529111D01*
X45956584Y-110534510D01*
X45956582Y-110534511D01*
X45909045Y-110570097D01*
X45846739Y-110616739D01*
X45759111Y-110733796D01*
X45708011Y-110870799D01*
X45701500Y-110931362D01*
X45701500Y-112728638D01*
X45708011Y-112789201D01*
X45759111Y-112926204D01*
X45846739Y-113043261D01*
X45871103Y-113061500D01*
X45951465Y-113121658D01*
X45963796Y-113130889D01*
X46078808Y-113173787D01*
X46135642Y-113216333D01*
X46160453Y-113282853D01*
X46145361Y-113352227D01*
X46127475Y-113377180D01*
X45987806Y-113528899D01*
X45987803Y-113528903D01*
X45984278Y-113532732D01*
X45981427Y-113537096D01*
X45865372Y-113714732D01*
X45861140Y-113721209D01*
X45770704Y-113927384D01*
X45715436Y-114145632D01*
X45696844Y-114370000D01*
X42933990Y-114370000D01*
X42998187Y-43380037D01*
X43000974Y-43380040D01*
X43000972Y-43380013D01*
X42998188Y-43380034D01*
X42998187Y-43379900D01*
X42998187Y-43379841D01*
X43000961Y-43379841D01*
X43000959Y-43379818D01*
X42998186Y-43379840D01*
X42978485Y-40883500D01*
X80909357Y-40883500D01*
X93683500Y-40883500D01*
X93683500Y-34736500D01*
X80909357Y-34736500D01*
X80909357Y-40883500D01*
X42978485Y-40883500D01*
X42978462Y-40880624D01*
X42960072Y-38550402D01*
X42946783Y-35217899D01*
X42946783Y-35216849D01*
X42948864Y-34738171D01*
X42951585Y-34111924D01*
X42951672Y-34107757D01*
X42964671Y-33760613D01*
X42987208Y-33693289D01*
X43047834Y-33646801D01*
X43093469Y-33630342D01*
X43112620Y-33625098D01*
X43208526Y-33606813D01*
X43410505Y-33568305D01*
X43417545Y-33567168D01*
X43421582Y-33566633D01*
X43521105Y-33553442D01*
X44513313Y-33421929D01*
X44516630Y-33421534D01*
X46171369Y-33246704D01*
X46173005Y-33246542D01*
X46971419Y-33172702D01*
X48286988Y-33051033D01*
X48287901Y-33050953D01*
X50762079Y-32843493D01*
X50762714Y-32843442D01*
X52529618Y-32707330D01*
X53498722Y-32632676D01*
X53499495Y-32632619D01*
X56398943Y-32427188D01*
X56399727Y-32427135D01*
X58255918Y-32307254D01*
X59363566Y-32235718D01*
X59365586Y-32235604D01*
X60970361Y-32158235D01*
X60972328Y-32158157D01*
X62964618Y-32094522D01*
X62966402Y-32094477D01*
X64986028Y-32059184D01*
X67597652Y-32013546D01*
X67599567Y-32013527D01*
X70582183Y-32006736D01*
X72228038Y-32002988D01*
X72229839Y-32002997D01*
G37*
G04 #@! TD.AperFunction*
M02*
