%TF.GenerationSoftware,KiCad,Pcbnew,(6.99.0-2452-gdb4f2d9dd8)*%
%TF.CreationDate,2022-08-02T16:49:28-05:00*%
%TF.ProjectId,CalPoly,43616c50-6f6c-4792-9e6b-696361645f70,rev?*%
%TF.SameCoordinates,Original*%
%TF.FileFunction,Drillmap*%
%TF.FilePolarity,Positive*%
%FSLAX45Y45*%
G04 Gerber Fmt 4.5, Leading zero omitted, Abs format (unit mm)*
G04 Created by KiCad (PCBNEW (6.99.0-2452-gdb4f2d9dd8)) date 2022-08-02 16:49:28*
%MOMM*%
%LPD*%
G01*
G04 APERTURE LIST*
%ADD10C,0.080000*%
%ADD11C,0.200000*%
%ADD12C,0.090000*%
%ADD13C,0.100000*%
G04 APERTURE END LIST*
D10*
X4292840Y-11999751D02*
X4299769Y-4337994D01*
X4292840Y-11999751D02*
X4292840Y-11999751D01*
X9487160Y-11999751D02*
X4292840Y-11999751D01*
X9487160Y-11999751D02*
X9487160Y-11999751D01*
X9487040Y-3916140D02*
X9487160Y-11999751D01*
X9487040Y-3916140D02*
X9487040Y-3916140D01*
X9487160Y-3359176D02*
X9487040Y-3916140D01*
X9487160Y-3359176D02*
X9487160Y-3359176D01*
X9389265Y-3347304D02*
X9487160Y-3359176D01*
X9389265Y-3347304D02*
X9389265Y-3347304D01*
X8985981Y-3304134D02*
X9389265Y-3347304D01*
X8526233Y-3264533D02*
X8985981Y-3304134D01*
X8046224Y-3231306D02*
X8526233Y-3264533D01*
X7582160Y-3207259D02*
X8046224Y-3231306D01*
X7582160Y-3207259D02*
X7582160Y-3207259D01*
X7421967Y-3202682D02*
X7582160Y-3207259D01*
X7222895Y-3200249D02*
X7421967Y-3202682D01*
X6759861Y-3201303D02*
X7222895Y-3200249D01*
X6296549Y-3209399D02*
X6759861Y-3201303D01*
X6097131Y-3215769D02*
X6296549Y-3209399D01*
X5936452Y-3223515D02*
X6097131Y-3215769D01*
X5936452Y-3223515D02*
X5936452Y-3223515D01*
X5639919Y-3242667D02*
X5936452Y-3223515D01*
X5349908Y-3263215D02*
X5639919Y-3242667D01*
X5076240Y-3284296D02*
X5349908Y-3263215D01*
X4828735Y-3305050D02*
X5076240Y-3284296D01*
X4617212Y-3324612D02*
X4828735Y-3305050D01*
X4451491Y-3342121D02*
X4617212Y-3324612D01*
X4341393Y-3356714D02*
X4451491Y-3342121D01*
X4310271Y-3362648D02*
X4341393Y-3356714D01*
X4296737Y-3367529D02*
X4310271Y-3362648D01*
X4296737Y-3367529D02*
X4296737Y-3367529D01*
X4295110Y-3410981D02*
X4296737Y-3367529D01*
X4294628Y-3521739D02*
X4295110Y-3410981D01*
X4295957Y-3855050D02*
X4294628Y-3521739D01*
X4299769Y-4337994D02*
X4295957Y-3855050D01*
D11*
D12*
X6205000Y-11148000D02*
X6295000Y-11238000D01*
X6295000Y-11148000D02*
X6205000Y-11238000D01*
X6205000Y-11402000D02*
X6295000Y-11492000D01*
X6295000Y-11402000D02*
X6205000Y-11492000D01*
D13*
X4756000Y-11183000D02*
G75*
G03*
X4756000Y-11183000I-50000J0D01*
G01*
X4756000Y-11437000D02*
G75*
G03*
X4756000Y-11437000I-50000J0D01*
G01*
X5010000Y-11183000D02*
G75*
G03*
X5010000Y-11183000I-50000J0D01*
G01*
X5010000Y-11437000D02*
G75*
G03*
X5010000Y-11437000I-50000J0D01*
G01*
X5264000Y-11183000D02*
G75*
G03*
X5264000Y-11183000I-50000J0D01*
G01*
X5264000Y-11437000D02*
G75*
G03*
X5264000Y-11437000I-50000J0D01*
G01*
D11*
X4536459Y-12297228D02*
X4536459Y-12097228D01*
X4536459Y-12097228D02*
X4584078Y-12097228D01*
X4584078Y-12097228D02*
X4612650Y-12106751D01*
X4612650Y-12106751D02*
X4631697Y-12125799D01*
X4631697Y-12125799D02*
X4641221Y-12144847D01*
X4641221Y-12144847D02*
X4650745Y-12182942D01*
X4650745Y-12182942D02*
X4650745Y-12211513D01*
X4650745Y-12211513D02*
X4641221Y-12249609D01*
X4641221Y-12249609D02*
X4631697Y-12268656D01*
X4631697Y-12268656D02*
X4612650Y-12287704D01*
X4612650Y-12287704D02*
X4584078Y-12297228D01*
X4584078Y-12297228D02*
X4536459Y-12297228D01*
X4736459Y-12297228D02*
X4736459Y-12163894D01*
X4736459Y-12201989D02*
X4745983Y-12182942D01*
X4745983Y-12182942D02*
X4755507Y-12173418D01*
X4755507Y-12173418D02*
X4774554Y-12163894D01*
X4774554Y-12163894D02*
X4793602Y-12163894D01*
X4860269Y-12297228D02*
X4860269Y-12163894D01*
X4860269Y-12097228D02*
X4850745Y-12106751D01*
X4850745Y-12106751D02*
X4860269Y-12116275D01*
X4860269Y-12116275D02*
X4869792Y-12106751D01*
X4869792Y-12106751D02*
X4860269Y-12097228D01*
X4860269Y-12097228D02*
X4860269Y-12116275D01*
X4984078Y-12297228D02*
X4965030Y-12287704D01*
X4965030Y-12287704D02*
X4955507Y-12268656D01*
X4955507Y-12268656D02*
X4955507Y-12097228D01*
X5088840Y-12297228D02*
X5069792Y-12287704D01*
X5069792Y-12287704D02*
X5060269Y-12268656D01*
X5060269Y-12268656D02*
X5060269Y-12097228D01*
X5285030Y-12297228D02*
X5285030Y-12097228D01*
X5285030Y-12097228D02*
X5351697Y-12240085D01*
X5351697Y-12240085D02*
X5418364Y-12097228D01*
X5418364Y-12097228D02*
X5418364Y-12297228D01*
X5599316Y-12297228D02*
X5599316Y-12192466D01*
X5599316Y-12192466D02*
X5589792Y-12173418D01*
X5589792Y-12173418D02*
X5570745Y-12163894D01*
X5570745Y-12163894D02*
X5532649Y-12163894D01*
X5532649Y-12163894D02*
X5513602Y-12173418D01*
X5599316Y-12287704D02*
X5580269Y-12297228D01*
X5580269Y-12297228D02*
X5532649Y-12297228D01*
X5532649Y-12297228D02*
X5513602Y-12287704D01*
X5513602Y-12287704D02*
X5504078Y-12268656D01*
X5504078Y-12268656D02*
X5504078Y-12249609D01*
X5504078Y-12249609D02*
X5513602Y-12230561D01*
X5513602Y-12230561D02*
X5532649Y-12221037D01*
X5532649Y-12221037D02*
X5580269Y-12221037D01*
X5580269Y-12221037D02*
X5599316Y-12211513D01*
X5694554Y-12163894D02*
X5694554Y-12363894D01*
X5694554Y-12173418D02*
X5713602Y-12163894D01*
X5713602Y-12163894D02*
X5751697Y-12163894D01*
X5751697Y-12163894D02*
X5770745Y-12173418D01*
X5770745Y-12173418D02*
X5780268Y-12182942D01*
X5780268Y-12182942D02*
X5789792Y-12201989D01*
X5789792Y-12201989D02*
X5789792Y-12259132D01*
X5789792Y-12259132D02*
X5780268Y-12278180D01*
X5780268Y-12278180D02*
X5770745Y-12287704D01*
X5770745Y-12287704D02*
X5751697Y-12297228D01*
X5751697Y-12297228D02*
X5713602Y-12297228D01*
X5713602Y-12297228D02*
X5694554Y-12287704D01*
X5875507Y-12278180D02*
X5885030Y-12287704D01*
X5885030Y-12287704D02*
X5875507Y-12297228D01*
X5875507Y-12297228D02*
X5865983Y-12287704D01*
X5865983Y-12287704D02*
X5875507Y-12278180D01*
X5875507Y-12278180D02*
X5875507Y-12297228D01*
X5875507Y-12173418D02*
X5885030Y-12182942D01*
X5885030Y-12182942D02*
X5875507Y-12192466D01*
X5875507Y-12192466D02*
X5865983Y-12182942D01*
X5865983Y-12182942D02*
X5875507Y-12173418D01*
X5875507Y-12173418D02*
X5875507Y-12192466D01*
D12*
X4198840Y-12598751D02*
X4288840Y-12688751D01*
X4288840Y-12598751D02*
X4198840Y-12688751D01*
D11*
X4574554Y-12517228D02*
X4593602Y-12517228D01*
X4593602Y-12517228D02*
X4612650Y-12526751D01*
X4612650Y-12526751D02*
X4622173Y-12536275D01*
X4622173Y-12536275D02*
X4631697Y-12555323D01*
X4631697Y-12555323D02*
X4641221Y-12593418D01*
X4641221Y-12593418D02*
X4641221Y-12641037D01*
X4641221Y-12641037D02*
X4631697Y-12679132D01*
X4631697Y-12679132D02*
X4622173Y-12698180D01*
X4622173Y-12698180D02*
X4612650Y-12707704D01*
X4612650Y-12707704D02*
X4593602Y-12717228D01*
X4593602Y-12717228D02*
X4574554Y-12717228D01*
X4574554Y-12717228D02*
X4555507Y-12707704D01*
X4555507Y-12707704D02*
X4545983Y-12698180D01*
X4545983Y-12698180D02*
X4536459Y-12679132D01*
X4536459Y-12679132D02*
X4526935Y-12641037D01*
X4526935Y-12641037D02*
X4526935Y-12593418D01*
X4526935Y-12593418D02*
X4536459Y-12555323D01*
X4536459Y-12555323D02*
X4545983Y-12536275D01*
X4545983Y-12536275D02*
X4555507Y-12526751D01*
X4555507Y-12526751D02*
X4574554Y-12517228D01*
X4726935Y-12698180D02*
X4736459Y-12707704D01*
X4736459Y-12707704D02*
X4726935Y-12717228D01*
X4726935Y-12717228D02*
X4717411Y-12707704D01*
X4717411Y-12707704D02*
X4726935Y-12698180D01*
X4726935Y-12698180D02*
X4726935Y-12717228D01*
X4831697Y-12717228D02*
X4869792Y-12717228D01*
X4869792Y-12717228D02*
X4888840Y-12707704D01*
X4888840Y-12707704D02*
X4898364Y-12698180D01*
X4898364Y-12698180D02*
X4917411Y-12669609D01*
X4917411Y-12669609D02*
X4926935Y-12631513D01*
X4926935Y-12631513D02*
X4926935Y-12555323D01*
X4926935Y-12555323D02*
X4917411Y-12536275D01*
X4917411Y-12536275D02*
X4907888Y-12526751D01*
X4907888Y-12526751D02*
X4888840Y-12517228D01*
X4888840Y-12517228D02*
X4850745Y-12517228D01*
X4850745Y-12517228D02*
X4831697Y-12526751D01*
X4831697Y-12526751D02*
X4822173Y-12536275D01*
X4822173Y-12536275D02*
X4812650Y-12555323D01*
X4812650Y-12555323D02*
X4812650Y-12602942D01*
X4812650Y-12602942D02*
X4822173Y-12621989D01*
X4822173Y-12621989D02*
X4831697Y-12631513D01*
X4831697Y-12631513D02*
X4850745Y-12641037D01*
X4850745Y-12641037D02*
X4888840Y-12641037D01*
X4888840Y-12641037D02*
X4907888Y-12631513D01*
X4907888Y-12631513D02*
X4917411Y-12621989D01*
X4917411Y-12621989D02*
X4926935Y-12602942D01*
X5050745Y-12517228D02*
X5069792Y-12517228D01*
X5069792Y-12517228D02*
X5088840Y-12526751D01*
X5088840Y-12526751D02*
X5098364Y-12536275D01*
X5098364Y-12536275D02*
X5107888Y-12555323D01*
X5107888Y-12555323D02*
X5117411Y-12593418D01*
X5117411Y-12593418D02*
X5117411Y-12641037D01*
X5117411Y-12641037D02*
X5107888Y-12679132D01*
X5107888Y-12679132D02*
X5098364Y-12698180D01*
X5098364Y-12698180D02*
X5088840Y-12707704D01*
X5088840Y-12707704D02*
X5069792Y-12717228D01*
X5069792Y-12717228D02*
X5050745Y-12717228D01*
X5050745Y-12717228D02*
X5031697Y-12707704D01*
X5031697Y-12707704D02*
X5022173Y-12698180D01*
X5022173Y-12698180D02*
X5012650Y-12679132D01*
X5012650Y-12679132D02*
X5003126Y-12641037D01*
X5003126Y-12641037D02*
X5003126Y-12593418D01*
X5003126Y-12593418D02*
X5012650Y-12555323D01*
X5012650Y-12555323D02*
X5022173Y-12536275D01*
X5022173Y-12536275D02*
X5031697Y-12526751D01*
X5031697Y-12526751D02*
X5050745Y-12517228D01*
X5241221Y-12517228D02*
X5260269Y-12517228D01*
X5260269Y-12517228D02*
X5279316Y-12526751D01*
X5279316Y-12526751D02*
X5288840Y-12536275D01*
X5288840Y-12536275D02*
X5298364Y-12555323D01*
X5298364Y-12555323D02*
X5307888Y-12593418D01*
X5307888Y-12593418D02*
X5307888Y-12641037D01*
X5307888Y-12641037D02*
X5298364Y-12679132D01*
X5298364Y-12679132D02*
X5288840Y-12698180D01*
X5288840Y-12698180D02*
X5279316Y-12707704D01*
X5279316Y-12707704D02*
X5260269Y-12717228D01*
X5260269Y-12717228D02*
X5241221Y-12717228D01*
X5241221Y-12717228D02*
X5222173Y-12707704D01*
X5222173Y-12707704D02*
X5212650Y-12698180D01*
X5212650Y-12698180D02*
X5203126Y-12679132D01*
X5203126Y-12679132D02*
X5193602Y-12641037D01*
X5193602Y-12641037D02*
X5193602Y-12593418D01*
X5193602Y-12593418D02*
X5203126Y-12555323D01*
X5203126Y-12555323D02*
X5212650Y-12536275D01*
X5212650Y-12536275D02*
X5222173Y-12526751D01*
X5222173Y-12526751D02*
X5241221Y-12517228D01*
X5393602Y-12717228D02*
X5393602Y-12583894D01*
X5393602Y-12602942D02*
X5403126Y-12593418D01*
X5403126Y-12593418D02*
X5422173Y-12583894D01*
X5422173Y-12583894D02*
X5450745Y-12583894D01*
X5450745Y-12583894D02*
X5469792Y-12593418D01*
X5469792Y-12593418D02*
X5479316Y-12612466D01*
X5479316Y-12612466D02*
X5479316Y-12717228D01*
X5479316Y-12612466D02*
X5488840Y-12593418D01*
X5488840Y-12593418D02*
X5507888Y-12583894D01*
X5507888Y-12583894D02*
X5536459Y-12583894D01*
X5536459Y-12583894D02*
X5555507Y-12593418D01*
X5555507Y-12593418D02*
X5565031Y-12612466D01*
X5565031Y-12612466D02*
X5565031Y-12717228D01*
X5660269Y-12717228D02*
X5660269Y-12583894D01*
X5660269Y-12602942D02*
X5669792Y-12593418D01*
X5669792Y-12593418D02*
X5688840Y-12583894D01*
X5688840Y-12583894D02*
X5717411Y-12583894D01*
X5717411Y-12583894D02*
X5736459Y-12593418D01*
X5736459Y-12593418D02*
X5745983Y-12612466D01*
X5745983Y-12612466D02*
X5745983Y-12717228D01*
X5745983Y-12612466D02*
X5755507Y-12593418D01*
X5755507Y-12593418D02*
X5774554Y-12583894D01*
X5774554Y-12583894D02*
X5803126Y-12583894D01*
X5803126Y-12583894D02*
X5822173Y-12593418D01*
X5822173Y-12593418D02*
X5831697Y-12612466D01*
X5831697Y-12612466D02*
X5831697Y-12717228D01*
X6189792Y-12507704D02*
X6018364Y-12764847D01*
X6414554Y-12517228D02*
X6433602Y-12517228D01*
X6433602Y-12517228D02*
X6452650Y-12526751D01*
X6452650Y-12526751D02*
X6462173Y-12536275D01*
X6462173Y-12536275D02*
X6471697Y-12555323D01*
X6471697Y-12555323D02*
X6481221Y-12593418D01*
X6481221Y-12593418D02*
X6481221Y-12641037D01*
X6481221Y-12641037D02*
X6471697Y-12679132D01*
X6471697Y-12679132D02*
X6462173Y-12698180D01*
X6462173Y-12698180D02*
X6452650Y-12707704D01*
X6452650Y-12707704D02*
X6433602Y-12717228D01*
X6433602Y-12717228D02*
X6414554Y-12717228D01*
X6414554Y-12717228D02*
X6395507Y-12707704D01*
X6395507Y-12707704D02*
X6385983Y-12698180D01*
X6385983Y-12698180D02*
X6376459Y-12679132D01*
X6376459Y-12679132D02*
X6366935Y-12641037D01*
X6366935Y-12641037D02*
X6366935Y-12593418D01*
X6366935Y-12593418D02*
X6376459Y-12555323D01*
X6376459Y-12555323D02*
X6385983Y-12536275D01*
X6385983Y-12536275D02*
X6395507Y-12526751D01*
X6395507Y-12526751D02*
X6414554Y-12517228D01*
X6566935Y-12698180D02*
X6576459Y-12707704D01*
X6576459Y-12707704D02*
X6566935Y-12717228D01*
X6566935Y-12717228D02*
X6557411Y-12707704D01*
X6557411Y-12707704D02*
X6566935Y-12698180D01*
X6566935Y-12698180D02*
X6566935Y-12717228D01*
X6700269Y-12517228D02*
X6719316Y-12517228D01*
X6719316Y-12517228D02*
X6738364Y-12526751D01*
X6738364Y-12526751D02*
X6747888Y-12536275D01*
X6747888Y-12536275D02*
X6757411Y-12555323D01*
X6757411Y-12555323D02*
X6766935Y-12593418D01*
X6766935Y-12593418D02*
X6766935Y-12641037D01*
X6766935Y-12641037D02*
X6757411Y-12679132D01*
X6757411Y-12679132D02*
X6747888Y-12698180D01*
X6747888Y-12698180D02*
X6738364Y-12707704D01*
X6738364Y-12707704D02*
X6719316Y-12717228D01*
X6719316Y-12717228D02*
X6700269Y-12717228D01*
X6700269Y-12717228D02*
X6681221Y-12707704D01*
X6681221Y-12707704D02*
X6671697Y-12698180D01*
X6671697Y-12698180D02*
X6662173Y-12679132D01*
X6662173Y-12679132D02*
X6652650Y-12641037D01*
X6652650Y-12641037D02*
X6652650Y-12593418D01*
X6652650Y-12593418D02*
X6662173Y-12555323D01*
X6662173Y-12555323D02*
X6671697Y-12536275D01*
X6671697Y-12536275D02*
X6681221Y-12526751D01*
X6681221Y-12526751D02*
X6700269Y-12517228D01*
X6833602Y-12517228D02*
X6957411Y-12517228D01*
X6957411Y-12517228D02*
X6890745Y-12593418D01*
X6890745Y-12593418D02*
X6919316Y-12593418D01*
X6919316Y-12593418D02*
X6938364Y-12602942D01*
X6938364Y-12602942D02*
X6947888Y-12612466D01*
X6947888Y-12612466D02*
X6957411Y-12631513D01*
X6957411Y-12631513D02*
X6957411Y-12679132D01*
X6957411Y-12679132D02*
X6947888Y-12698180D01*
X6947888Y-12698180D02*
X6938364Y-12707704D01*
X6938364Y-12707704D02*
X6919316Y-12717228D01*
X6919316Y-12717228D02*
X6862173Y-12717228D01*
X6862173Y-12717228D02*
X6843126Y-12707704D01*
X6843126Y-12707704D02*
X6833602Y-12698180D01*
X7138364Y-12517228D02*
X7043126Y-12517228D01*
X7043126Y-12517228D02*
X7033602Y-12612466D01*
X7033602Y-12612466D02*
X7043126Y-12602942D01*
X7043126Y-12602942D02*
X7062173Y-12593418D01*
X7062173Y-12593418D02*
X7109792Y-12593418D01*
X7109792Y-12593418D02*
X7128840Y-12602942D01*
X7128840Y-12602942D02*
X7138364Y-12612466D01*
X7138364Y-12612466D02*
X7147888Y-12631513D01*
X7147888Y-12631513D02*
X7147888Y-12679132D01*
X7147888Y-12679132D02*
X7138364Y-12698180D01*
X7138364Y-12698180D02*
X7128840Y-12707704D01*
X7128840Y-12707704D02*
X7109792Y-12717228D01*
X7109792Y-12717228D02*
X7062173Y-12717228D01*
X7062173Y-12717228D02*
X7043126Y-12707704D01*
X7043126Y-12707704D02*
X7033602Y-12698180D01*
X7319316Y-12583894D02*
X7319316Y-12717228D01*
X7271697Y-12507704D02*
X7224078Y-12650561D01*
X7224078Y-12650561D02*
X7347888Y-12650561D01*
X7414554Y-12517228D02*
X7414554Y-12555323D01*
X7490745Y-12517228D02*
X7490745Y-12555323D01*
X7753602Y-12793418D02*
X7744078Y-12783894D01*
X7744078Y-12783894D02*
X7725031Y-12755323D01*
X7725031Y-12755323D02*
X7715507Y-12736275D01*
X7715507Y-12736275D02*
X7705983Y-12707704D01*
X7705983Y-12707704D02*
X7696459Y-12660085D01*
X7696459Y-12660085D02*
X7696459Y-12621989D01*
X7696459Y-12621989D02*
X7705983Y-12574370D01*
X7705983Y-12574370D02*
X7715507Y-12545799D01*
X7715507Y-12545799D02*
X7725031Y-12526751D01*
X7725031Y-12526751D02*
X7744078Y-12498180D01*
X7744078Y-12498180D02*
X7753602Y-12488656D01*
X7820269Y-12536275D02*
X7829792Y-12526751D01*
X7829792Y-12526751D02*
X7848840Y-12517228D01*
X7848840Y-12517228D02*
X7896459Y-12517228D01*
X7896459Y-12517228D02*
X7915507Y-12526751D01*
X7915507Y-12526751D02*
X7925031Y-12536275D01*
X7925031Y-12536275D02*
X7934554Y-12555323D01*
X7934554Y-12555323D02*
X7934554Y-12574370D01*
X7934554Y-12574370D02*
X7925031Y-12602942D01*
X7925031Y-12602942D02*
X7810745Y-12717228D01*
X7810745Y-12717228D02*
X7934554Y-12717228D01*
X8140269Y-12717228D02*
X8140269Y-12517228D01*
X8225983Y-12717228D02*
X8225983Y-12612466D01*
X8225983Y-12612466D02*
X8216459Y-12593418D01*
X8216459Y-12593418D02*
X8197412Y-12583894D01*
X8197412Y-12583894D02*
X8168840Y-12583894D01*
X8168840Y-12583894D02*
X8149792Y-12593418D01*
X8149792Y-12593418D02*
X8140269Y-12602942D01*
X8349792Y-12717228D02*
X8330745Y-12707704D01*
X8330745Y-12707704D02*
X8321221Y-12698180D01*
X8321221Y-12698180D02*
X8311697Y-12679132D01*
X8311697Y-12679132D02*
X8311697Y-12621989D01*
X8311697Y-12621989D02*
X8321221Y-12602942D01*
X8321221Y-12602942D02*
X8330745Y-12593418D01*
X8330745Y-12593418D02*
X8349792Y-12583894D01*
X8349792Y-12583894D02*
X8378364Y-12583894D01*
X8378364Y-12583894D02*
X8397412Y-12593418D01*
X8397412Y-12593418D02*
X8406935Y-12602942D01*
X8406935Y-12602942D02*
X8416459Y-12621989D01*
X8416459Y-12621989D02*
X8416459Y-12679132D01*
X8416459Y-12679132D02*
X8406935Y-12698180D01*
X8406935Y-12698180D02*
X8397412Y-12707704D01*
X8397412Y-12707704D02*
X8378364Y-12717228D01*
X8378364Y-12717228D02*
X8349792Y-12717228D01*
X8530745Y-12717228D02*
X8511697Y-12707704D01*
X8511697Y-12707704D02*
X8502174Y-12688656D01*
X8502174Y-12688656D02*
X8502174Y-12517228D01*
X8683126Y-12707704D02*
X8664078Y-12717228D01*
X8664078Y-12717228D02*
X8625983Y-12717228D01*
X8625983Y-12717228D02*
X8606935Y-12707704D01*
X8606935Y-12707704D02*
X8597412Y-12688656D01*
X8597412Y-12688656D02*
X8597412Y-12612466D01*
X8597412Y-12612466D02*
X8606935Y-12593418D01*
X8606935Y-12593418D02*
X8625983Y-12583894D01*
X8625983Y-12583894D02*
X8664078Y-12583894D01*
X8664078Y-12583894D02*
X8683126Y-12593418D01*
X8683126Y-12593418D02*
X8692650Y-12612466D01*
X8692650Y-12612466D02*
X8692650Y-12631513D01*
X8692650Y-12631513D02*
X8597412Y-12650561D01*
X8768840Y-12707704D02*
X8787888Y-12717228D01*
X8787888Y-12717228D02*
X8825983Y-12717228D01*
X8825983Y-12717228D02*
X8845031Y-12707704D01*
X8845031Y-12707704D02*
X8854555Y-12688656D01*
X8854555Y-12688656D02*
X8854555Y-12679132D01*
X8854555Y-12679132D02*
X8845031Y-12660085D01*
X8845031Y-12660085D02*
X8825983Y-12650561D01*
X8825983Y-12650561D02*
X8797412Y-12650561D01*
X8797412Y-12650561D02*
X8778364Y-12641037D01*
X8778364Y-12641037D02*
X8768840Y-12621989D01*
X8768840Y-12621989D02*
X8768840Y-12612466D01*
X8768840Y-12612466D02*
X8778364Y-12593418D01*
X8778364Y-12593418D02*
X8797412Y-12583894D01*
X8797412Y-12583894D02*
X8825983Y-12583894D01*
X8825983Y-12583894D02*
X8845031Y-12593418D01*
X8921221Y-12793418D02*
X8930745Y-12783894D01*
X8930745Y-12783894D02*
X8949793Y-12755323D01*
X8949793Y-12755323D02*
X8959316Y-12736275D01*
X8959316Y-12736275D02*
X8968840Y-12707704D01*
X8968840Y-12707704D02*
X8978364Y-12660085D01*
X8978364Y-12660085D02*
X8978364Y-12621989D01*
X8978364Y-12621989D02*
X8968840Y-12574370D01*
X8968840Y-12574370D02*
X8959316Y-12545799D01*
X8959316Y-12545799D02*
X8949793Y-12526751D01*
X8949793Y-12526751D02*
X8930745Y-12498180D01*
X8930745Y-12498180D02*
X8921221Y-12488656D01*
D13*
X4288840Y-12907751D02*
G75*
G03*
X4288840Y-12907751I-50000J0D01*
G01*
D11*
X4641221Y-12981228D02*
X4526935Y-12981228D01*
X4584078Y-12981228D02*
X4584078Y-12781228D01*
X4584078Y-12781228D02*
X4565030Y-12809799D01*
X4565030Y-12809799D02*
X4545983Y-12828847D01*
X4545983Y-12828847D02*
X4526935Y-12838370D01*
X4726935Y-12962180D02*
X4736459Y-12971704D01*
X4736459Y-12971704D02*
X4726935Y-12981228D01*
X4726935Y-12981228D02*
X4717411Y-12971704D01*
X4717411Y-12971704D02*
X4726935Y-12962180D01*
X4726935Y-12962180D02*
X4726935Y-12981228D01*
X4860269Y-12781228D02*
X4879316Y-12781228D01*
X4879316Y-12781228D02*
X4898364Y-12790751D01*
X4898364Y-12790751D02*
X4907888Y-12800275D01*
X4907888Y-12800275D02*
X4917411Y-12819323D01*
X4917411Y-12819323D02*
X4926935Y-12857418D01*
X4926935Y-12857418D02*
X4926935Y-12905037D01*
X4926935Y-12905037D02*
X4917411Y-12943132D01*
X4917411Y-12943132D02*
X4907888Y-12962180D01*
X4907888Y-12962180D02*
X4898364Y-12971704D01*
X4898364Y-12971704D02*
X4879316Y-12981228D01*
X4879316Y-12981228D02*
X4860269Y-12981228D01*
X4860269Y-12981228D02*
X4841221Y-12971704D01*
X4841221Y-12971704D02*
X4831697Y-12962180D01*
X4831697Y-12962180D02*
X4822173Y-12943132D01*
X4822173Y-12943132D02*
X4812650Y-12905037D01*
X4812650Y-12905037D02*
X4812650Y-12857418D01*
X4812650Y-12857418D02*
X4822173Y-12819323D01*
X4822173Y-12819323D02*
X4831697Y-12800275D01*
X4831697Y-12800275D02*
X4841221Y-12790751D01*
X4841221Y-12790751D02*
X4860269Y-12781228D01*
X5050745Y-12781228D02*
X5069792Y-12781228D01*
X5069792Y-12781228D02*
X5088840Y-12790751D01*
X5088840Y-12790751D02*
X5098364Y-12800275D01*
X5098364Y-12800275D02*
X5107888Y-12819323D01*
X5107888Y-12819323D02*
X5117411Y-12857418D01*
X5117411Y-12857418D02*
X5117411Y-12905037D01*
X5117411Y-12905037D02*
X5107888Y-12943132D01*
X5107888Y-12943132D02*
X5098364Y-12962180D01*
X5098364Y-12962180D02*
X5088840Y-12971704D01*
X5088840Y-12971704D02*
X5069792Y-12981228D01*
X5069792Y-12981228D02*
X5050745Y-12981228D01*
X5050745Y-12981228D02*
X5031697Y-12971704D01*
X5031697Y-12971704D02*
X5022173Y-12962180D01*
X5022173Y-12962180D02*
X5012650Y-12943132D01*
X5012650Y-12943132D02*
X5003126Y-12905037D01*
X5003126Y-12905037D02*
X5003126Y-12857418D01*
X5003126Y-12857418D02*
X5012650Y-12819323D01*
X5012650Y-12819323D02*
X5022173Y-12800275D01*
X5022173Y-12800275D02*
X5031697Y-12790751D01*
X5031697Y-12790751D02*
X5050745Y-12781228D01*
X5241221Y-12781228D02*
X5260269Y-12781228D01*
X5260269Y-12781228D02*
X5279316Y-12790751D01*
X5279316Y-12790751D02*
X5288840Y-12800275D01*
X5288840Y-12800275D02*
X5298364Y-12819323D01*
X5298364Y-12819323D02*
X5307888Y-12857418D01*
X5307888Y-12857418D02*
X5307888Y-12905037D01*
X5307888Y-12905037D02*
X5298364Y-12943132D01*
X5298364Y-12943132D02*
X5288840Y-12962180D01*
X5288840Y-12962180D02*
X5279316Y-12971704D01*
X5279316Y-12971704D02*
X5260269Y-12981228D01*
X5260269Y-12981228D02*
X5241221Y-12981228D01*
X5241221Y-12981228D02*
X5222173Y-12971704D01*
X5222173Y-12971704D02*
X5212650Y-12962180D01*
X5212650Y-12962180D02*
X5203126Y-12943132D01*
X5203126Y-12943132D02*
X5193602Y-12905037D01*
X5193602Y-12905037D02*
X5193602Y-12857418D01*
X5193602Y-12857418D02*
X5203126Y-12819323D01*
X5203126Y-12819323D02*
X5212650Y-12800275D01*
X5212650Y-12800275D02*
X5222173Y-12790751D01*
X5222173Y-12790751D02*
X5241221Y-12781228D01*
X5393602Y-12981228D02*
X5393602Y-12847894D01*
X5393602Y-12866942D02*
X5403126Y-12857418D01*
X5403126Y-12857418D02*
X5422173Y-12847894D01*
X5422173Y-12847894D02*
X5450745Y-12847894D01*
X5450745Y-12847894D02*
X5469792Y-12857418D01*
X5469792Y-12857418D02*
X5479316Y-12876466D01*
X5479316Y-12876466D02*
X5479316Y-12981228D01*
X5479316Y-12876466D02*
X5488840Y-12857418D01*
X5488840Y-12857418D02*
X5507888Y-12847894D01*
X5507888Y-12847894D02*
X5536459Y-12847894D01*
X5536459Y-12847894D02*
X5555507Y-12857418D01*
X5555507Y-12857418D02*
X5565031Y-12876466D01*
X5565031Y-12876466D02*
X5565031Y-12981228D01*
X5660269Y-12981228D02*
X5660269Y-12847894D01*
X5660269Y-12866942D02*
X5669792Y-12857418D01*
X5669792Y-12857418D02*
X5688840Y-12847894D01*
X5688840Y-12847894D02*
X5717411Y-12847894D01*
X5717411Y-12847894D02*
X5736459Y-12857418D01*
X5736459Y-12857418D02*
X5745983Y-12876466D01*
X5745983Y-12876466D02*
X5745983Y-12981228D01*
X5745983Y-12876466D02*
X5755507Y-12857418D01*
X5755507Y-12857418D02*
X5774554Y-12847894D01*
X5774554Y-12847894D02*
X5803126Y-12847894D01*
X5803126Y-12847894D02*
X5822173Y-12857418D01*
X5822173Y-12857418D02*
X5831697Y-12876466D01*
X5831697Y-12876466D02*
X5831697Y-12981228D01*
X6189792Y-12771704D02*
X6018364Y-13028847D01*
X6414554Y-12781228D02*
X6433602Y-12781228D01*
X6433602Y-12781228D02*
X6452650Y-12790751D01*
X6452650Y-12790751D02*
X6462173Y-12800275D01*
X6462173Y-12800275D02*
X6471697Y-12819323D01*
X6471697Y-12819323D02*
X6481221Y-12857418D01*
X6481221Y-12857418D02*
X6481221Y-12905037D01*
X6481221Y-12905037D02*
X6471697Y-12943132D01*
X6471697Y-12943132D02*
X6462173Y-12962180D01*
X6462173Y-12962180D02*
X6452650Y-12971704D01*
X6452650Y-12971704D02*
X6433602Y-12981228D01*
X6433602Y-12981228D02*
X6414554Y-12981228D01*
X6414554Y-12981228D02*
X6395507Y-12971704D01*
X6395507Y-12971704D02*
X6385983Y-12962180D01*
X6385983Y-12962180D02*
X6376459Y-12943132D01*
X6376459Y-12943132D02*
X6366935Y-12905037D01*
X6366935Y-12905037D02*
X6366935Y-12857418D01*
X6366935Y-12857418D02*
X6376459Y-12819323D01*
X6376459Y-12819323D02*
X6385983Y-12800275D01*
X6385983Y-12800275D02*
X6395507Y-12790751D01*
X6395507Y-12790751D02*
X6414554Y-12781228D01*
X6566935Y-12962180D02*
X6576459Y-12971704D01*
X6576459Y-12971704D02*
X6566935Y-12981228D01*
X6566935Y-12981228D02*
X6557411Y-12971704D01*
X6557411Y-12971704D02*
X6566935Y-12962180D01*
X6566935Y-12962180D02*
X6566935Y-12981228D01*
X6700269Y-12781228D02*
X6719316Y-12781228D01*
X6719316Y-12781228D02*
X6738364Y-12790751D01*
X6738364Y-12790751D02*
X6747888Y-12800275D01*
X6747888Y-12800275D02*
X6757411Y-12819323D01*
X6757411Y-12819323D02*
X6766935Y-12857418D01*
X6766935Y-12857418D02*
X6766935Y-12905037D01*
X6766935Y-12905037D02*
X6757411Y-12943132D01*
X6757411Y-12943132D02*
X6747888Y-12962180D01*
X6747888Y-12962180D02*
X6738364Y-12971704D01*
X6738364Y-12971704D02*
X6719316Y-12981228D01*
X6719316Y-12981228D02*
X6700269Y-12981228D01*
X6700269Y-12981228D02*
X6681221Y-12971704D01*
X6681221Y-12971704D02*
X6671697Y-12962180D01*
X6671697Y-12962180D02*
X6662173Y-12943132D01*
X6662173Y-12943132D02*
X6652650Y-12905037D01*
X6652650Y-12905037D02*
X6652650Y-12857418D01*
X6652650Y-12857418D02*
X6662173Y-12819323D01*
X6662173Y-12819323D02*
X6671697Y-12800275D01*
X6671697Y-12800275D02*
X6681221Y-12790751D01*
X6681221Y-12790751D02*
X6700269Y-12781228D01*
X6833602Y-12781228D02*
X6957411Y-12781228D01*
X6957411Y-12781228D02*
X6890745Y-12857418D01*
X6890745Y-12857418D02*
X6919316Y-12857418D01*
X6919316Y-12857418D02*
X6938364Y-12866942D01*
X6938364Y-12866942D02*
X6947888Y-12876466D01*
X6947888Y-12876466D02*
X6957411Y-12895513D01*
X6957411Y-12895513D02*
X6957411Y-12943132D01*
X6957411Y-12943132D02*
X6947888Y-12962180D01*
X6947888Y-12962180D02*
X6938364Y-12971704D01*
X6938364Y-12971704D02*
X6919316Y-12981228D01*
X6919316Y-12981228D02*
X6862173Y-12981228D01*
X6862173Y-12981228D02*
X6843126Y-12971704D01*
X6843126Y-12971704D02*
X6833602Y-12962180D01*
X7052650Y-12981228D02*
X7090745Y-12981228D01*
X7090745Y-12981228D02*
X7109792Y-12971704D01*
X7109792Y-12971704D02*
X7119316Y-12962180D01*
X7119316Y-12962180D02*
X7138364Y-12933609D01*
X7138364Y-12933609D02*
X7147888Y-12895513D01*
X7147888Y-12895513D02*
X7147888Y-12819323D01*
X7147888Y-12819323D02*
X7138364Y-12800275D01*
X7138364Y-12800275D02*
X7128840Y-12790751D01*
X7128840Y-12790751D02*
X7109792Y-12781228D01*
X7109792Y-12781228D02*
X7071697Y-12781228D01*
X7071697Y-12781228D02*
X7052650Y-12790751D01*
X7052650Y-12790751D02*
X7043126Y-12800275D01*
X7043126Y-12800275D02*
X7033602Y-12819323D01*
X7033602Y-12819323D02*
X7033602Y-12866942D01*
X7033602Y-12866942D02*
X7043126Y-12885989D01*
X7043126Y-12885989D02*
X7052650Y-12895513D01*
X7052650Y-12895513D02*
X7071697Y-12905037D01*
X7071697Y-12905037D02*
X7109792Y-12905037D01*
X7109792Y-12905037D02*
X7128840Y-12895513D01*
X7128840Y-12895513D02*
X7138364Y-12885989D01*
X7138364Y-12885989D02*
X7147888Y-12866942D01*
X7319316Y-12847894D02*
X7319316Y-12981228D01*
X7271697Y-12771704D02*
X7224078Y-12914561D01*
X7224078Y-12914561D02*
X7347888Y-12914561D01*
X7414554Y-12781228D02*
X7414554Y-12819323D01*
X7490745Y-12781228D02*
X7490745Y-12819323D01*
X7753602Y-13057418D02*
X7744078Y-13047894D01*
X7744078Y-13047894D02*
X7725031Y-13019323D01*
X7725031Y-13019323D02*
X7715507Y-13000275D01*
X7715507Y-13000275D02*
X7705983Y-12971704D01*
X7705983Y-12971704D02*
X7696459Y-12924085D01*
X7696459Y-12924085D02*
X7696459Y-12885989D01*
X7696459Y-12885989D02*
X7705983Y-12838370D01*
X7705983Y-12838370D02*
X7715507Y-12809799D01*
X7715507Y-12809799D02*
X7725031Y-12790751D01*
X7725031Y-12790751D02*
X7744078Y-12762180D01*
X7744078Y-12762180D02*
X7753602Y-12752656D01*
X7915507Y-12781228D02*
X7877411Y-12781228D01*
X7877411Y-12781228D02*
X7858364Y-12790751D01*
X7858364Y-12790751D02*
X7848840Y-12800275D01*
X7848840Y-12800275D02*
X7829792Y-12828847D01*
X7829792Y-12828847D02*
X7820269Y-12866942D01*
X7820269Y-12866942D02*
X7820269Y-12943132D01*
X7820269Y-12943132D02*
X7829792Y-12962180D01*
X7829792Y-12962180D02*
X7839316Y-12971704D01*
X7839316Y-12971704D02*
X7858364Y-12981228D01*
X7858364Y-12981228D02*
X7896459Y-12981228D01*
X7896459Y-12981228D02*
X7915507Y-12971704D01*
X7915507Y-12971704D02*
X7925031Y-12962180D01*
X7925031Y-12962180D02*
X7934554Y-12943132D01*
X7934554Y-12943132D02*
X7934554Y-12895513D01*
X7934554Y-12895513D02*
X7925031Y-12876466D01*
X7925031Y-12876466D02*
X7915507Y-12866942D01*
X7915507Y-12866942D02*
X7896459Y-12857418D01*
X7896459Y-12857418D02*
X7858364Y-12857418D01*
X7858364Y-12857418D02*
X7839316Y-12866942D01*
X7839316Y-12866942D02*
X7829792Y-12876466D01*
X7829792Y-12876466D02*
X7820269Y-12895513D01*
X8140269Y-12981228D02*
X8140269Y-12781228D01*
X8225983Y-12981228D02*
X8225983Y-12876466D01*
X8225983Y-12876466D02*
X8216459Y-12857418D01*
X8216459Y-12857418D02*
X8197412Y-12847894D01*
X8197412Y-12847894D02*
X8168840Y-12847894D01*
X8168840Y-12847894D02*
X8149792Y-12857418D01*
X8149792Y-12857418D02*
X8140269Y-12866942D01*
X8349792Y-12981228D02*
X8330745Y-12971704D01*
X8330745Y-12971704D02*
X8321221Y-12962180D01*
X8321221Y-12962180D02*
X8311697Y-12943132D01*
X8311697Y-12943132D02*
X8311697Y-12885989D01*
X8311697Y-12885989D02*
X8321221Y-12866942D01*
X8321221Y-12866942D02*
X8330745Y-12857418D01*
X8330745Y-12857418D02*
X8349792Y-12847894D01*
X8349792Y-12847894D02*
X8378364Y-12847894D01*
X8378364Y-12847894D02*
X8397412Y-12857418D01*
X8397412Y-12857418D02*
X8406935Y-12866942D01*
X8406935Y-12866942D02*
X8416459Y-12885989D01*
X8416459Y-12885989D02*
X8416459Y-12943132D01*
X8416459Y-12943132D02*
X8406935Y-12962180D01*
X8406935Y-12962180D02*
X8397412Y-12971704D01*
X8397412Y-12971704D02*
X8378364Y-12981228D01*
X8378364Y-12981228D02*
X8349792Y-12981228D01*
X8530745Y-12981228D02*
X8511697Y-12971704D01*
X8511697Y-12971704D02*
X8502174Y-12952656D01*
X8502174Y-12952656D02*
X8502174Y-12781228D01*
X8683126Y-12971704D02*
X8664078Y-12981228D01*
X8664078Y-12981228D02*
X8625983Y-12981228D01*
X8625983Y-12981228D02*
X8606935Y-12971704D01*
X8606935Y-12971704D02*
X8597412Y-12952656D01*
X8597412Y-12952656D02*
X8597412Y-12876466D01*
X8597412Y-12876466D02*
X8606935Y-12857418D01*
X8606935Y-12857418D02*
X8625983Y-12847894D01*
X8625983Y-12847894D02*
X8664078Y-12847894D01*
X8664078Y-12847894D02*
X8683126Y-12857418D01*
X8683126Y-12857418D02*
X8692650Y-12876466D01*
X8692650Y-12876466D02*
X8692650Y-12895513D01*
X8692650Y-12895513D02*
X8597412Y-12914561D01*
X8768840Y-12971704D02*
X8787888Y-12981228D01*
X8787888Y-12981228D02*
X8825983Y-12981228D01*
X8825983Y-12981228D02*
X8845031Y-12971704D01*
X8845031Y-12971704D02*
X8854555Y-12952656D01*
X8854555Y-12952656D02*
X8854555Y-12943132D01*
X8854555Y-12943132D02*
X8845031Y-12924085D01*
X8845031Y-12924085D02*
X8825983Y-12914561D01*
X8825983Y-12914561D02*
X8797412Y-12914561D01*
X8797412Y-12914561D02*
X8778364Y-12905037D01*
X8778364Y-12905037D02*
X8768840Y-12885989D01*
X8768840Y-12885989D02*
X8768840Y-12876466D01*
X8768840Y-12876466D02*
X8778364Y-12857418D01*
X8778364Y-12857418D02*
X8797412Y-12847894D01*
X8797412Y-12847894D02*
X8825983Y-12847894D01*
X8825983Y-12847894D02*
X8845031Y-12857418D01*
X8921221Y-13057418D02*
X8930745Y-13047894D01*
X8930745Y-13047894D02*
X8949793Y-13019323D01*
X8949793Y-13019323D02*
X8959316Y-13000275D01*
X8959316Y-13000275D02*
X8968840Y-12971704D01*
X8968840Y-12971704D02*
X8978364Y-12924085D01*
X8978364Y-12924085D02*
X8978364Y-12885989D01*
X8978364Y-12885989D02*
X8968840Y-12838370D01*
X8968840Y-12838370D02*
X8959316Y-12809799D01*
X8959316Y-12809799D02*
X8949793Y-12790751D01*
X8949793Y-12790751D02*
X8930745Y-12762180D01*
X8930745Y-12762180D02*
X8921221Y-12752656D01*
M02*
