G04 #@! TF.GenerationSoftware,KiCad,Pcbnew,(6.99.0-2452-gdb4f2d9dd8)*
G04 #@! TF.CreationDate,2022-08-02T16:49:26-05:00*
G04 #@! TF.ProjectId,CalPoly,43616c50-6f6c-4792-9e6b-696361645f70,rev?*
G04 #@! TF.SameCoordinates,Original*
G04 #@! TF.FileFunction,Profile,NP*
%FSLAX46Y46*%
G04 Gerber Fmt 4.6, Leading zero omitted, Abs format (unit mm)*
G04 Created by KiCad (PCBNEW (6.99.0-2452-gdb4f2d9dd8)) date 2022-08-02 16:49:26*
%MOMM*%
%LPD*%
G01*
G04 APERTURE LIST*
G04 #@! TA.AperFunction,Profile*
%ADD10C,0.080000*%
G04 #@! TD*
G04 APERTURE END LIST*
D10*
X42928400Y-119997515D02*
X42997687Y-43379939D01*
X42928400Y-119997515D02*
X42928400Y-119997515D01*
X94871600Y-119997515D02*
X42928400Y-119997515D01*
X94871600Y-119997515D02*
X94871600Y-119997515D01*
X94870404Y-39161397D02*
X94871600Y-119997515D01*
X94870404Y-39161397D02*
X94870404Y-39161397D01*
X94871600Y-33591756D02*
X94870404Y-39161397D01*
X94871600Y-33591756D02*
X94871600Y-33591756D01*
X93892645Y-33473037D02*
X94871600Y-33591756D01*
X93892645Y-33473037D02*
X93892645Y-33473037D01*
X89859814Y-33041341D02*
X93892645Y-33473037D01*
X85262326Y-32645330D02*
X89859814Y-33041341D01*
X80462237Y-32313060D02*
X85262326Y-32645330D01*
X75821600Y-32072588D02*
X80462237Y-32313060D01*
X75821600Y-32072588D02*
X75821600Y-32072588D01*
X74219667Y-32026818D02*
X75821600Y-32072588D01*
X72228948Y-32002486D02*
X74219667Y-32026818D01*
X67598609Y-32013029D02*
X72228948Y-32002486D01*
X62965495Y-32093993D02*
X67598609Y-32013029D01*
X60971309Y-32157689D02*
X62965495Y-32093993D01*
X59364520Y-32235155D02*
X60971309Y-32157689D01*
X59364520Y-32235155D02*
X59364520Y-32235155D01*
X56399187Y-32426669D02*
X59364520Y-32235155D01*
X53499080Y-32632147D02*
X56399187Y-32426669D01*
X50762400Y-32842965D02*
X53499080Y-32632147D01*
X48287346Y-33050498D02*
X50762400Y-32842965D01*
X46172116Y-33246122D02*
X48287346Y-33050498D01*
X44514910Y-33421212D02*
X46172116Y-33246122D01*
X43413927Y-33567143D02*
X44514910Y-33421212D01*
X43102705Y-33626479D02*
X43413927Y-33567143D01*
X42967365Y-33675292D02*
X43102705Y-33626479D01*
X42967365Y-33675292D02*
X42967365Y-33675292D01*
X42951095Y-34109813D02*
X42967365Y-33675292D01*
X42946281Y-35217393D02*
X42951095Y-34109813D01*
X42959573Y-38550505D02*
X42946281Y-35217393D01*
X42997687Y-43379939D02*
X42959573Y-38550505D01*
M02*
