<?xml version="1.0" encoding="UTF-8" standalone="no"?>
<!-- Created with Inkscape (http://www.inkscape.org/) -->

<svg
   width="1501.511mm"
   height="278.89511mm"
   viewBox="0 0 1501.511 278.89511"
   version="1.1"
   id="svg5"
   xml:space="preserve"
   inkscape:version="1.2 (dc2aeda, 2022-05-15)"
   sodipodi:docname="united inverted logo.svg"
   xmlns:inkscape="http://www.inkscape.org/namespaces/inkscape"
   xmlns:sodipodi="http://sodipodi.sourceforge.net/DTD/sodipodi-0.dtd"
   xmlns="http://www.w3.org/2000/svg"
   xmlns:svg="http://www.w3.org/2000/svg"><sodipodi:namedview
     id="namedview7"
     pagecolor="#ffffff"
     bordercolor="#000000"
     borderopacity="0.25"
     inkscape:showpageshadow="2"
     inkscape:pageopacity="0.0"
     inkscape:pagecheckerboard="0"
     inkscape:deskcolor="#d1d1d1"
     inkscape:document-units="mm"
     showgrid="false"
     inkscape:zoom="0.17550653"
     inkscape:cx="2769.1278"
     inkscape:cy="584.02386"
     inkscape:window-width="1800"
     inkscape:window-height="1097"
     inkscape:window-x="0"
     inkscape:window-y="44"
     inkscape:window-maximized="0"
     inkscape:current-layer="layer1" /><defs
     id="defs2" /><g
     inkscape:label="Layer 1"
     inkscape:groupmode="layer"
     id="layer1"
     transform="translate(514.42784,-54.726863)"><path
       id="path373"
       style="fill:#000000;stroke-width:0.264583"
       d="M -514.42784,54.726863 V 333.62198 H 987.08309 V 54.726863 Z M 705.89302,61.334211 H 811.85864 917.82427 V 167.29984 273.26546 h -16.93334 c -9.31332,0 -16.93333,-0.0629 -16.93333,-0.14004 v -5.2e-4 c 0,-0.0771 0.54543,-1.89281 1.21181,-4.03489 9.44357,-30.35665 8.28906,-63.18252 -3.25406,-92.52976 -7.05918,-17.94727 -17.27519,-33.48284 -31.15366,-47.37592 -5.94872,-5.955 -9.45379,-9.0352 -15.09055,-13.26172 -18.59363,-13.94175 -40.72294,-23.108093 -63.36771,-26.24801 -7.30675,-1.013159 -10.55838,-1.214201 -19.57916,-1.208711 -9.52697,0.006 -14.10784,0.342231 -21.82813,1.603519 -8.15516,1.332339 -19.39163,4.227554 -24.5401,6.322612 -0.43823,0.17832 -0.46302,-0.755322 -0.46302,-17.434595 z m -140.75834,20.872628 22.68803,0.09819 c 24.62469,0.10645 24.59548,0.104904 30.81413,1.670183 5.16221,1.299368 10.35501,3.641101 13.74697,6.200138 7.59721,5.731664 11.59339,14.86742 11.59619,26.50949 0.003,10.25786 -3.03775,18.45679 -8.91367,24.03832 -5.31488,5.04863 -12.28175,8.06999 -22.35832,9.69554 -2.34717,0.37865 -5.84368,0.45356 -25.14989,0.53846 l -22.42344,0.0982 V 116.6311 Z m -480.483329,0.02946 h 9.910506 9.909993 l 0.0915,21.232811 c 0.0999,23.19474 0.0335,22.18246 1.66864,25.52454 1.45091,2.96557 4.96831,5.53357 8.97878,6.55567 4.75595,1.2121 11.8309,1.19786 16.66875,-0.0336 3.91523,-0.99657 7.03439,-3.3587 8.57363,-6.49314 1.59904,-3.25622 1.60312,-3.32403 1.60817,-26.08265 l 0.005,-20.703641 h 9.92188 9.92187 l -10e-4,21.497391 c -0.001,22.89784 -0.0334,23.58035 -1.33067,28.22618 -3.14142,11.2505 -12.4822,18.03159 -27.50788,19.96933 -3.86991,0.49907 -11.17508,0.70806 -14.98307,0.4284 h -5.1e-4 c -7.02948,-0.51625 -13.134,-1.99838 -17.99167,-4.3677 -8.77812,-4.28151 -13.412347,-10.63681 -15.051795,-20.64215 -0.32091,-1.95845 -0.390311,-6.1746 -0.391191,-23.74635 z m 112.712499,0 8.40052,0.01602 8.40052,0.01654 19.87062,19.496491 c 10.92881,10.72314 20.37958,20.06254 21.00182,20.75377 0.62222,0.69122 1.23519,1.25677 1.36219,1.25677 0.12949,0 0.231,-9.12055 0.231,-20.76979 V 82.236295 h 8.99583 8.99583 v 34.395835 34.39583 l -6.54843,-0.003 -6.54844,-0.003 -19.84375,-18.80195 c -10.91406,-10.34112 -21.21442,-20.16277 -22.89008,-21.82554 -1.67568,-1.66279 -3.10444,-3.02306 -3.175,-3.02308 -0.0706,-2e-5 -0.0967,9.82265 -0.0579,21.82813 l 0.0708,21.82812 h -9.13277 -9.13278 v -34.39531 z m 115.62292,0 h 10.18646 10.18645 v 34.395831 34.39583 h -10.18645 -10.18646 v -34.39583 z m 51.64594,0 h 35.7973 35.79781 l 0.15245,3.770312 c 0.0838,2.073668 0.21896,5.705084 0.30024,8.069792 l 0.14779,4.299479 h -13.23743 -13.23744 v 26.326038 26.32604 H 400.29927 390.2451 V 124.70192 98.375878 h -13.12891 -13.12943 l 0.17156,-6.548437 c 0.0944,-3.601637 0.23969,-7.233043 0.32298,-8.069792 z m 101.54781,0 H 498.3 530.41949 l 0.16381,3.770312 c 0.0902,2.073668 0.19232,5.586328 0.22635,7.805725 l 0.0615,4.034896 H 508.58 l -22.29115,-5.17e-4 v 5.688535 5.68854 h 18.78542 18.78541 v 6.74688 6.74687 h -18.78541 -18.78542 v 6.35 6.35 h 23.15104 23.15104 v 4.58836 c 0,2.52376 -0.0774,6.03611 -0.1726,7.8052 l -0.17311,3.21686 h -33.03209 -33.03261 v -34.39583 z m 285.00276,10.903727 c 11.77542,-0.426454 21.52691,2.164991 30.10669,7.903904 4.23031,2.82961 9.37239,8.17106 12.2685,12.74393 8.48038,13.39029 9.04055,32.44125 1.54667,52.58645 -11.21829,30.15729 -38.76909,61.64926 -70.95949,81.1103 -3.48363,2.10607 -17.5803,9.63191 -18.05419,9.63868 -0.10914,0.003 -0.19356,-9.01588 -0.18811,-20.03908 l -5.1e-4,-5.2e-4 0.0103,-20.04219 2.01176,-1.37149 2.01229,-1.37149 3.468,5.62033 c 7.81004,12.65677 10.62398,17.09097 10.8474,17.09456 0.66424,0.0106 11.81246,-7.75592 16.29048,-11.34918 1.37655,-1.10455 2.61393,-2.08575 2.75022,-2.18023 0.13629,-0.0945 -3.77678,-4.79742 -8.69611,-10.45104 -4.91932,-5.65358 -9.12434,-10.48912 -9.34413,-10.74611 -0.36883,-0.43119 -0.0735,-0.79844 3.82664,-4.7625 2.32425,-2.36238 5.27989,-5.48597 6.56807,-6.94118 1.28817,-1.45521 2.45878,-2.61071 2.60139,-2.5678 0.40918,0.12317 12.85793,9.98593 18.06557,14.31282 l 4.72012,3.92172 1.3348,-1.45831 c 3.34746,-3.65669 11.78585,-14.33615 11.78585,-14.91588 0,-0.10946 -0.68461,-0.66371 -1.52136,-1.23145 -1.89329,-1.28466 -14.60429,-8.90141 -20.37705,-12.21062 l -4.30361,-2.46704 0.45889,-0.68781 c 1.62225,-2.43208 6.50442,-11.49724 7.01197,-13.01988 0.0757,-0.22717 2.08052,0.45913 6.44405,2.20607 7.28086,2.91486 17.16965,7.06928 20.57549,8.64392 l 2.33474,1.07952 1.28881,-2.73214 c 1.54233,-3.26974 2.61767,-5.91725 3.99149,-9.82937 l 1.02164,-2.91042 -1.11259,-0.47697 c -3.48054,-1.49213 -14.008,-4.67 -23.88226,-7.20886 -3.20146,-0.82316 -5.85205,-1.52586 -5.8906,-1.56166 -0.0385,-0.0358 0.22132,-1.30374 0.57774,-2.8174 0.35642,-1.51368 0.83719,-4.11397 1.06815,-5.77846 0.23095,-1.66448 0.44682,-3.05151 0.48008,-3.0825 0.1302,-0.12131 9.80768,1.19628 13.6865,1.86345 4.58372,0.78841 11.47227,2.19784 15.47709,3.16673 1.45463,0.35192 2.66963,0.61545 2.69958,0.5855 0.03,-0.0299 0.13003,-1.59791 0.22221,-3.48455 0.15746,-3.22263 -0.13761,-8.40842 -0.49868,-8.76949 -0.22688,-0.22687 -5.0361,-1.02638 -9.95546,-1.65519 -4.76187,-0.60869 -12.44055,-1.24205 -18.03611,-1.48725 l -3.87367,-0.1695 -0.41858,-2.28926 c -0.2304,-1.25897 -0.70833,-3.13952 -1.06195,-4.17908 l -0.64337,-1.8898 1.62832,-0.15452 c 6.04602,-0.57358 20.13056,-0.37908 26.68933,0.36897 1.18745,0.13543 2.20672,0.19883 2.26498,0.14056 0.18881,-0.1888 -2.08302,-3.925 -3.74602,-6.16086 l -1.61954,-2.17713 -7.42126,-0.005 c -7.62473,-0.006 -12.07396,0.23263 -17.83973,0.95447 l -3.30109,0.41289 -1.05524,-1.28157 c -0.58047,-0.70498 -1.65523,-1.89505 -2.38797,-2.64429 l -1.33221,-1.36219 1.32291,-0.29197 c 4.72776,-1.04459 13.3222,-2.04736 20.24063,-2.3611 l 4.10104,-0.18551 -1.45883,-0.95705 c -0.80242,-0.52623 -2.56093,-1.5208 -3.90777,-2.210199 l -2.44843,-1.253671 -3.85558,0.311609 c -4.75884,0.38403 -10.84329,1.322845 -15.55305,2.399851 l -3.56774,0.81545 -1.40509,-0.71572 c -0.77284,-0.39369 -2.05586,-0.982 -2.85098,-1.307405 l -1.44591,-0.591696 1.84278,-0.546736 c 2.91097,-0.863939 8.23673,-2.121405 10.48257,-2.474785 4.81405,-0.757489 -1.38403,-1.016031 -7.91477,-0.330212 -2.13933,0.22466 -5.36085,0.696338 -7.15925,1.047998 -3.17079,0.620029 -3.35161,0.627536 -5.95881,0.244946 -1.47876,-0.216999 -2.79286,-0.426064 -2.92023,-0.464054 -0.34629,-0.10329 5.2914,-1.389321 9.35963,-2.13527 4.40653,-0.807984 8.55679,-1.285669 12.48193,-1.42782 z m 29.18995,3.386873 c 0.69948,7.9e-4 9.89557,2.528783 13.57643,3.732071 5.89625,1.92751 9.61691,3.41577 14.4694,5.78776 7.32696,3.58155 11.99703,7.14547 15.55874,11.87369 5.78,7.67302 9.32002,16.86108 10.81846,28.08046 0.50819,3.80489 0.42878,14.40104 -0.14159,18.91771 -4.67069,36.9872 -30.04684,76.3647 -68.51933,106.32477 l -2.59675,2.0221 h -28.82253 -28.82304 v -3.14658 -3.14606 l 1.12448,-0.4408 c 3.80594,-1.49153 18.20961,-9.68496 23.80113,-13.53922 1.55789,-1.07389 2.92711,-1.94749 3.04271,-1.94149 0.11557,0.006 3.4245,4.60253 7.35355,10.21437 3.92906,5.6118 7.28292,10.25911 7.45278,10.32753 0.56684,0.22833 11.93722,-7.67268 19.06188,-13.2457 2.06825,-1.61779 3.76489,-3.02311 3.77032,-3.12281 0.006,-0.0997 -3.91789,-4.6241 -8.71885,-10.05416 -4.80094,-5.4301 -8.73,-9.93519 -8.73125,-10.01128 0,-0.0761 1.7391,-1.74297 3.86746,-3.70417 3.55854,-3.27903 9.51936,-9.39841 13.06535,-13.41313 l 1.45315,-1.64538 8.73125,7.80986 c 4.80218,4.29562 9.40431,8.40163 10.22676,9.12399 l 1.49552,1.3131 2.09186,-2.45101 c 4.44953,-5.21348 8.43522,-10.37588 11.68404,-15.13345 l 2.12804,-3.11609 -1.24541,-0.97875 c -3.93757,-3.09517 -12.27644,-9.21761 -18.04644,-13.24983 -1.52797,-1.06777 -2.81815,-1.97185 -2.86701,-2.00918 -0.0489,-0.0373 1.03292,-1.95286 2.40399,-4.25659 2.86489,-4.81372 6.14746,-10.84455 7.21196,-13.25036 0.40243,-0.9095 0.8492,-1.65364 0.99271,-1.65364 0.58156,0 14.04936,7.86495 20.5543,12.0034 1.51985,0.96692 2.85823,1.66294 2.97449,1.54668 0.69586,-0.69585 4.4284,-10.83834 5.89112,-16.00833 l 0.88263,-3.11919 -1.36116,-0.7922 c -2.2736,-1.3227 -14.05246,-7.17844 -18.63452,-9.26403 -4.12577,-1.87792 -4.30173,-1.98923 -4.1429,-2.62258 1.02457,-4.08568 2.23397,-11.94204 2.23397,-14.51126 0,-1.1473 0.0121,-1.16269 0.77412,-1.01028 2.27488,0.45498 13.08659,4.72401 19.92953,7.86929 l 3.9026,1.79369 v -3.09025 c -2.4e-4,-3.25274 -0.35618,-7.8147 -0.82113,-10.52287 l -0.27699,-1.61179 -3.48558,-1.47433 c -5.04308,-2.13306 -11.06326,-4.18607 -17.68315,-6.03012 l -3.08457,-0.85886 -0.18242,-1.21802 c -0.24548,-1.64128 -1.79357,-6.92818 -2.60346,-8.89041 -0.36036,-0.87313 -0.63036,-1.61319 -0.59996,-1.64434 0.0992,-0.10166 6.83895,1.45927 9.95391,2.30528 3.46297,0.94053 10.66608,3.26813 12.35842,3.99356 0.62341,0.26722 1.13327,0.42693 1.13327,0.3545 0,-0.6222 -3.03193,-5.70683 -4.68705,-7.85999 -1.37938,-1.79439 -2.72475,-2.5542 -7.33961,-4.14548 -3.23692,-1.11614 -12.13616,-3.42252 -15.42696,-3.99821 -1.80311,-0.31543 -1.98252,-0.4108 -2.91042,-1.54461 -0.54387,-0.66456 -1.85623,-2.07569 -2.9161,-3.13624 l -1.92702,-1.92856 1.13327,0.17466 c 0.6233,0.0961 3.33593,0.61723 6.02805,1.15755 2.69214,0.54033 4.93729,0.94661 4.98936,0.90331 0.36113,-0.3003 -8.17681,-3.59092 -13.92731,-5.367628 -2.84316,-0.878449 -4.88705,-1.684554 -6.07405,-2.396753 -0.98393,-0.59034 -1.66997,-1.0735 -1.52445,-1.07332 z m -195.13021,1.848983 v 18.286218 18.28674 l 10.91406,-0.13178 c 8.29047,-0.0999 11.48648,-0.23229 13.29531,-0.55035 4.36345,-0.76727 6.86863,-1.8751 9.14053,-4.04213 2.95058,-2.81438 3.9444,-5.75649 4.14445,-12.26954 0.28768,-9.36607 -1.81924,-14.28989 -7.2962,-17.04805 -4.02695,-2.027934 -8.2263,-2.530798 -21.13617,-2.531108 z m 138.76155,1.058333 c 16.23609,0 27.37534,6.970995 31.61513,19.784835 2.13548,6.45396 2.17475,15.05896 0.10749,23.60683 -5.09842,21.08138 -21.90606,44.1751 -44.45259,61.07844 -2.06769,1.55017 -4.1242,3.03355 -4.57026,3.29644 l -0.81132,0.47801 v -4.60799 -4.60747 l 1.52135,-1.00201 c 0.83674,-0.55113 3.03718,-2.13207 4.88963,-3.51296 l 3.36827,-2.51096 -1.02992,-1.2206 c -0.56626,-0.67154 -2.76582,-3.24517 -4.88807,-5.71903 l -3.85868,-4.49791 v -7.76956 -7.76955 l 0.72761,0.47284 c 1.39355,0.90559 13.98248,9.74064 17.61081,12.35945 l 3.65352,2.63705 0.67696,-0.62683 c 1.93006,-1.78626 8.55193,-9.88493 8.55193,-10.45931 0,-0.43098 -14.24939,-7.27549 -23.61457,-11.34298 l -2.29651,-0.99735 0.67387,-1.08418 c 0.37055,-0.59624 1.29589,-2.35075 2.0562,-3.89898 l 1.38235,-2.81533 10.30428,2.58433 c 5.66723,1.4213 12.23991,3.13438 14.60634,3.80701 2.36644,0.67263 4.40699,1.22318 4.53409,1.22318 0.45604,0 4.82676,-10.39286 4.49585,-10.69031 -0.15251,-0.13706 -8.85723,-1.42365 -12.67106,-1.87275 -4.11073,-0.48406 -11.50067,-1.11074 -15.88275,-1.34669 l -3.31505,-0.17828 0.33177,-1.88567 c 0.18238,-1.03714 0.40138,-2.45074 0.48679,-3.14141 0.12538,-1.01392 0.26662,-1.27918 0.73432,-1.3777 1.23553,-0.26027 16.59363,-0.74767 24.46001,-0.77618 7.10906,-0.0258 8.28614,-0.0857 8.38036,-0.42685 0.25543,-0.92476 0.44999,-5.66303 0.28267,-6.87968 l -0.1819,-1.32188 -2.2903,0.14831 c -5.16519,0.33454 -11.56153,0.97222 -16.04863,1.59939 -4.65775,0.65101 -14.19648,2.31448 -14.96705,2.61017 -0.3007,0.11539 -0.50952,-0.36496 -0.92655,-2.13113 l -0.53796,-2.27997 0.58395,-0.22221 c 1.3349,-0.50752 11.09945,-3.21485 14.65698,-4.06383 4.07299,-0.97198 12.17596,-2.57728 15.81403,-3.13263 l 2.18849,-0.33383 -1.20871,-2.41794 c -1.84224,-3.68565 -1.41487,-3.54241 -6.66626,-2.23397 -8.35982,2.08295 -16.69031,4.71602 -23.42699,7.40472 -1.85777,0.74147 -3.41807,1.34823 -3.46749,1.34823 -0.0494,0 -0.58562,-0.66256 -1.19114,-1.47226 l -1.10071,-1.47226 3.51245,-1.6769 c 7.21682,-3.44562 17.24081,-7.43073 22.69008,-9.02064 1.38244,-0.40334 2.61109,-0.81726 2.73007,-0.91932 0.20463,-0.17551 -2.13269,-1.78113 -3.9734,-2.72955 -0.82196,-0.42353 -0.91877,-0.40993 -3.30729,0.46044 -5.72789,2.08727 -14.48369,6.23664 -20.67626,9.79837 -3.42087,1.96752 -3.3141,1.95519 -5.03535,0.56275 l -0.76119,-0.61546 2.34869,-1.57355 c 4.86335,-3.25791 12.49248,-7.46823 18.05264,-9.96322 1.21541,-0.54539 2.15757,-1.0438 2.09393,-1.10742 -0.0636,-0.0636 -1.32396,-0.29645 -2.80086,-0.51728 l -2.68511,-0.40153 -2.18746,1.09502 c -4.33189,2.16918 -9.58943,5.48753 -14.68903,9.27024 -1.34646,0.99876 -2.50732,1.81591 -2.57968,1.81591 -0.0724,0 -0.13178,-0.76218 -0.13178,-1.69344 v -1.69292 l 2.31511,-1.70894 c 2.57994,-1.90443 6.22345,-4.348 8.73125,-5.85545 0.90949,-0.54671 1.65364,-1.03322 1.65364,-1.08159 0,-0.24766 -7.6509,0.8937 -8.33437,1.24333 -0.29104,0.14889 -1.39237,0.91372 -2.4474,1.69964 l -1.91823,1.42885 v -2.2164 -2.21692 l 1.91823,-0.56275 c 5.18457,-1.52164 9.97164,-2.160075 16.19074,-2.160075 z m 103.84379,17.403065 1.79473,1.26814 c 6.11271,4.31784 11.78369,9.15455 17.71726,15.11123 3.55494,3.56877 4.97937,5.21498 6.53914,7.55716 4.70219,7.06084 7.64223,15.65008 8.94364,26.12915 0.57592,4.63727 0.42917,16.16296 -0.27285,21.43125 -3.67059,27.54617 -17.01481,55.3281 -38.98264,81.16094 l -3.206,3.77031 h -16.33699 -16.33699 l -2.41019,-2.61431 c -1.3257,-1.43785 -2.4107,-2.69268 -2.4107,-2.78846 0,-0.0958 2.36583,-2.52099 5.25704,-5.38933 5.53014,-5.48642 9.14897,-9.39541 13.25707,-14.32058 l 2.4784,-2.97191 7.9804,7.97729 7.9809,7.97729 2.81379,-3.39411 c 5.13121,-6.18817 11.68451,-15.00403 13.65704,-18.37252 l 0.56018,-0.95601 -2.18798,-2.11615 c -2.74367,-2.65438 -8.64495,-8.06435 -12.26024,-11.23911 l -2.75642,-2.42052 0.56379,-0.94568 c 3.18757,-5.34194 7.67821,-14.19183 9.91102,-19.53266 0.56274,-1.34607 1.10274,-2.4474 1.19993,-2.4474 0.48463,0 9.8739,7.6142 14.7004,11.92124 1.79823,1.60473 3.37687,2.8518 3.50779,2.77089 0.69673,-0.43061 4.3981,-11.16007 6.0942,-17.66559 l 0.8785,-3.37033 -1.27744,-1.12758 c -3.97374,-3.50729 -10.14252,-8.30814 -15.01924,-11.6887 -1.87858,-1.30224 -2.55374,-1.91455 -2.46031,-2.23138 0.76761,-2.60374 1.98333,-11.18093 2.19005,-15.45177 0.0898,-1.8554 0.24673,-3.37344 0.34881,-3.37344 0.71803,0 12.50978,8.36398 16.51992,11.71763 1.15676,0.9674 2.1518,1.71048 2.21072,1.65158 0.19315,-0.19314 -0.47996,-9.74191 -0.85834,-12.17859 -0.75997,-4.89387 -0.4349,-4.26249 -3.4153,-6.64559 -4.34401,-3.47341 -9.44273,-6.9221 -13.99708,-9.46764 -1.34617,-0.7524 -1.78592,-1.13887 -1.78645,-1.57044 0,-0.95541 -1.5368,-6.73434 -2.64429,-9.95185 -0.57345,-1.66599 -1.00774,-3.06384 -0.96531,-3.10627 0.12325,-0.12324 6.68024,3.87671 9.4232,5.74849 3.40814,2.32568 3.28018,2.25426 2.96726,1.67018 -0.88355,-1.64927 -8.76657,-9.24138 -13.79813,-13.2886 -2.15876,-1.73643 -2.97563,-2.60969 -4.38268,-4.68498 z m -121.69179,2.74919 c 0.57052,0.19106 2.58984,1.97341 3.45405,3.04839 3.04493,3.78746 4.19839,9.97806 3.0179,16.20108 -0.51729,2.7269 -1.96406,6.89731 -3.34553,9.64489 -1.06222,2.11267 -3.07344,5.45755 -3.28145,5.45755 -0.0597,0 -0.10852,-7.74917 -0.10852,-17.22014 0,-11.3094 0.0906,-17.18969 0.26355,-17.13177 z m 157.95263,33.9819 c 0.76099,0.77858 4.95266,8.17958 7.25279,12.80542 5.16048,10.37841 7.11845,16.54888 8.52092,26.85521 0.5874,4.31679 0.67424,15.308 0.15348,19.44688 -2.52694,20.08482 -9.89149,39.8125 -21.65501,58.00989 l -1.66759,2.57969 h -3.8685 c -3.26618,0 -3.84619,-0.0594 -3.72226,-0.3824 0.0808,-0.21042 1.3211,-2.1452 2.75643,-4.29948 1.43531,-2.15429 3.05978,-4.66511 3.61011,-5.57951 0.98917,-1.64368 0.99527,-1.67077 0.53537,-2.38125 -0.57899,-0.89456 -2.73064,-3.56754 -6.83524,-8.49095 l -3.17139,-3.8039 0.4837,-0.82631 c 4.12244,-7.04804 8.75852,-16.09761 10.90372,-21.28294 l 1.01958,-2.46393 0.87436,1.00872 c 1.86397,2.15088 7.13293,8.75612 8.13077,10.19318 0.57717,0.83121 1.12949,1.51582 1.22784,1.52135 0.58152,0.0326 4.23844,-11.2294 5.7769,-17.79168 l 0.85473,-3.6468 -1.00149,-1.51257 c -1.38109,-2.08622 -4.5369,-6.23655 -6.9143,-9.09299 l -1.98593,-2.3859 0.55087,-2.95434 c 0.93353,-5.00583 1.32702,-8.06041 1.66243,-12.90154 l 0.32246,-4.65553 1.09399,1.34824 c 0.60156,0.74158 2.36338,3.05116 3.91553,5.1325 3.21534,4.31167 3.18461,4.32215 2.30373,-0.78134 -1.04645,-6.06269 -2.98101,-11.67562 -6.25285,-18.13946 -1.51605,-2.99514 -2.04452,-4.367 -2.59829,-6.74688 -0.38232,-1.643 -1.10321,-4.34468 -1.60197,-6.00325 -0.49877,-1.65857 -0.80253,-2.90873 -0.67489,-2.77813 z m -249.23285,30.75575 c 5.97775,0.003 11.17843,0.43782 16.42897,1.37666 2.98074,0.53298 10.15511,2.27218 10.71563,2.59777 0.20097,0.11676 -0.0677,2.4251 -0.88109,7.57525 -0.64342,4.07393 -1.21265,7.44998 -1.26503,7.50239 -0.0524,0.0524 -1.62079,-0.26896 -3.48506,-0.71417 -12.59551,-3.00797 -24.02008,-3.69622 -30.8405,-1.85777 -3.26382,0.87977 -5.2218,2.66327 -5.22397,4.75837 -0.003,2.42157 2.81803,3.81756 10.05313,4.9754 1.96453,0.31438 5.41735,0.86912 7.67292,1.233 7.86929,1.26944 14.73702,3.30033 18.33066,5.42086 2.45073,1.44613 5.8942,4.89078 6.99079,6.99337 1.32146,2.53373 1.76703,4.59632 1.7725,8.20209 0.004,2.51134 -0.12039,3.61743 -0.59479,5.29166 -2.46647,8.70449 -10.779,14.77489 -23.41149,17.09663 -2.3685,0.43531 -4.3213,0.56058 -9.83454,0.63252 -3.78354,0.0494 -7.8912,-0.0212 -9.12813,-0.15658 -6.77432,-0.74213 -14.71728,-2.73739 -20.19877,-5.07411 -1.14027,-0.48609 -1.26721,-0.62172 -1.15186,-1.23093 0.0713,-0.37647 0.58629,-3.93544 1.14411,-7.90908 0.85061,-6.05922 1.07886,-7.20414 1.41594,-7.09569 0.22108,0.0711 1.83079,0.72386 3.57704,1.45004 6.64995,2.76534 13.26849,4.34824 20.28455,4.8519 7.4044,0.53153 13.12196,-0.2238 16.12718,-2.13061 1.82647,-1.1589 2.70506,-2.44833 2.728,-4.00493 0.0429,-2.90573 -2.56417,-4.04179 -13.34286,-5.8136 -16.045,-2.63746 -23.0301,-5.23783 -27.47894,-10.22935 -2.76362,-3.1007 -3.99872,-6.52189 -3.99872,-11.07787 0,-8.92748 4.93088,-15.69527 14.19086,-19.47788 5.72087,-2.3369 10.90427,-3.18799 19.40347,-3.18534 z m -166.15885,1.09296 v 34.39893 34.39945 h -6.57117 -6.5717 l -19.02674,-18.01544 c -10.46495,-9.90859 -20.78344,-19.75974 -22.92987,-21.89117 l -3.9026,-3.87521 v 21.89065 21.89117 h -8.99584 -8.99583 v -34.39583 h 5.2e-4 v -34.39584 h 8.16177 8.16126 l 8.04447,7.85741 c 4.42434,4.32161 14.00015,13.71277 21.27984,20.86901 l 13.23589,13.01109 -0.007,-20.80235 -0.007,-20.80286 9.06198,-0.0698 z m -115.35782,5.1e-4 v 34.39894 34.39893 H 323.17219 312.9847 l 0.0672,-34.32969 0.0672,-34.32968 10.12031,-0.0693 z m -342.4679808,5.2e-4 17.4221924,33.27394 c 9.5822604,18.30079 17.7117644,33.78046 18.0655644,34.39893 l 0.643371,1.12448 H 15.663831 4.304834 l -1.3926799,-3.10885 c -0.7661092,-1.70987 -2.04965305,-4.56737 -2.85202225,-6.35 L -1.3986938,241.51546 H -20.516907 -39.63512 l -2.87786,6.3407 -2.878377,6.3407 -10.64948,0.009 c -5.857214,0.005 -10.647938,-0.08 -10.646378,-0.18914 0.002,-0.10914 7.949311,-15.55751 17.661971,-34.32968 l 17.659387,-34.13125 11.12852,-0.0693 z m 65.7138188,0.006 h 10.054166 10.054167 v 34.39584 34.39583 H 66.659684 56.605518 v -34.39583 z m 58.472912,0 19.11615,0.003 c 19.83004,0.003 24.49681,0.1694 29.469,1.05419 11.45397,2.03824 18.68678,7.66593 20.6468,16.06517 0.64128,2.74807 0.64881,7.74849 0.015,10.13013 -0.63103,2.37101 -2.29047,5.64515 -3.81889,7.53443 -2.40197,2.96905 -6.44826,5.63964 -10.07018,6.64662 -0.90607,0.25191 -1.64703,0.52758 -1.64693,0.61288 9e-5,0.0853 5.10263,6.10817 11.33936,13.3842 l 11.33987,13.22917 -11.80289,0.0692 c -6.49149,0.038 -11.93221,0.0192 -12.09022,-0.0413 -0.15801,-0.0606 -3.90666,-5.1813 -8.33076,-11.37967 l -8.04395,-11.27011 h -8.13904 -8.13956 v 11.37708 11.37709 h -9.92187 -9.92188 v -34.39635 z m 104.775,0 h 9.92188 9.92187 v 26.32605 26.32604 h 20.94395 20.94394 l -0.17312,4.96094 c -0.0954,2.7285 -0.17373,6.35992 -0.17415,8.06979 v 3.10885 h -30.69167 -30.69166 v -34.39583 h -0.001 z m 265.90625,0 h 32.10502 32.1045 l 0.17467,5.59863 c 0.0959,3.0794 0.17415,6.65128 0.17415,7.9375 v 2.33887 h -22.225 -22.225 v 5.68855 5.68854 h 18.78541 18.78542 v 6.61458 6.61458 h -18.78542 -18.78541 v 6.4823 6.48229 h 23.19341 23.1929 l -0.17415,5.59862 c -0.0959,3.07941 -0.17466,6.53222 -0.17466,7.67292 v 2.07429 H 518.8326 485.75968 v -34.39583 z m -505.979964,13.57437 c -0.12596,0.0396 -0.85549,1.55591 -1.62109,3.3693 -0.765609,1.8134 -3.609433,8.10033 -6.319511,13.97124 -2.710067,5.87089 -4.927347,10.72269 -4.927347,10.78177 0,0.059 5.716674,0.10749 12.703617,0.10749 h 12.7036173 l -0.3658691,-0.85989 c -0.2011598,-0.47294 -2.5078282,-5.68194 -5.1257852,-11.57553 -2.617958,-5.89359 -5.223111,-11.8747 -5.789311,-13.29117 -0.566189,-1.4165 -1.132361,-2.54287 -1.258321,-2.50321 z m 155.142464,0.97772 v 9.12812 9.12813 h 9.63404 c 7.28898,0 10.11885,-0.0925 11.62617,-0.38086 v -5.1e-4 c 4.73076,-0.90514 6.93189,-3.00022 7.58713,-7.22334 0.59472,-3.83306 -0.63345,-7.18041 -3.20704,-8.74055 -2.74417,-1.66357 -4.76134,-1.89934 -16.31373,-1.90582 z m 749.65864,9.07076 c 0.10639,0.14005 0.30445,1.45912 0.61185,4.0318 0.6798,5.68951 0.68019,22.33618 0,28.04015 -1.18073,9.91133 -3.00009,18.32921 -5.83272,26.9875 l -1.64435,5.02708 -6.80113,0.0708 c -3.74009,0.0388 -6.79983,-0.008 -6.80062,-0.10542 0,-0.0967 1.59537,-3.40291 3.545,-7.34684 2.8412,-5.74738 5.81548,-12.38369 8.076,-18.01854 0.16142,-0.4024 0.51763,0.42162 1.48621,3.43958 0.70059,2.18281 1.35783,4.06744 1.46038,4.18838 0.41008,0.48369 3.35332,-12.87524 4.33307,-19.6665 0.78766,-5.45997 0.8034,-6.33923 0.14882,-8.54418 l -0.59841,-2.01487 0.57309,-3.65042 c 0.7143,-4.55023 1.34368,-9.89276 1.34669,-11.43289 0.002,-0.74897 0.0323,-1.08966 0.0961,-1.00563 z m 49.62281,46.56512 c 2.94598,0.16988 5.94287,2.06331 7.38043,4.79299 0.62744,1.19137 0.7117,1.64897 0.71262,3.86488 0,2.9954 -0.50894,4.36088 -2.29909,6.15104 -1.70571,1.70569 -3.33089,2.39761 -5.8906,2.50786 -1.80299,0.0777 -2.36637,-0.009 -3.69331,-0.56792 -1.92992,-0.81306 -3.657,-2.4664 -4.58318,-4.38682 -0.57388,-1.18995 -0.70478,-1.84178 -0.71624,-3.57652 -0.0124,-1.87695 0.086,-2.32453 0.85163,-3.88038 1.37535,-2.79495 3.81733,-4.49791 6.98304,-4.86999 0.41408,-0.0487 0.83384,-0.0594 1.2547,-0.0351 z m -0.37207,1.41283 c -3.01615,-0.003 -5.3929,1.44753 -6.79545,4.1429 -0.88908,1.70857 -0.83924,4.63414 0.10955,6.4456 1.8446,3.52176 6.13441,5.05989 9.59632,3.44062 1.63417,-0.76439 3.33528,-2.57557 3.96306,-4.21938 0.67278,-1.76159 0.45718,-4.4871 -0.48162,-6.08903 -1.41385,-2.41255 -3.65874,-3.71939 -6.39186,-3.72071 z m -3.30729,2.48254 h 2.60656 c 3.97486,0 4.80177,0.45254 4.80177,2.62826 0,1.2522 -0.65686,2.06715 -1.86035,2.30787 -0.43204,0.0864 -0.78548,0.26659 -0.78548,0.40049 0,0.13388 0.59913,1.13104 1.33118,2.21589 l 1.33067,1.97249 -0.86765,-0.0129 c -0.79642,-0.0119 -0.9848,-0.1973 -2.28254,-2.24896 -1.24423,-1.9671 -1.50673,-2.23604 -2.18282,-2.23604 h -0.76843 v 2.24896 c 0,2.2225 -0.008,2.24896 -0.66145,2.24896 h -0.66146 v -4.7625 z m 1.32291,1.32291 v 1.19063 1.19062 h 2.06396 c 1.25236,0 2.18858,-0.12514 2.38125,-0.31781 0.48607,-0.48606 0.37778,-1.4834 -0.1943,-1.78955 -0.28146,-0.15066 -1.35303,-0.27389 -2.38125,-0.27389 z" /></g></svg>
