<?xml version="1.0" encoding="UTF-8" standalone="no"?>
<!-- Created with Inkscape (http://www.inkscape.org/) -->

<svg
   width="414.86667mm"
   height="102.65833mm"
   viewBox="0 0 414.86667 102.65833"
   version="1.1"
   id="svg5"
   xml:space="preserve"
   sodipodi:docname="boeing logo1.svg"
   inkscape:version="1.2 (dc2aeda, 2022-05-15)"
   xmlns:inkscape="http://www.inkscape.org/namespaces/inkscape"
   xmlns:sodipodi="http://sodipodi.sourceforge.net/DTD/sodipodi-0.dtd"
   xmlns="http://www.w3.org/2000/svg"
   xmlns:svg="http://www.w3.org/2000/svg"><sodipodi:namedview
     id="namedview7"
     pagecolor="#ffffff"
     bordercolor="#000000"
     borderopacity="0.25"
     inkscape:showpageshadow="2"
     inkscape:pageopacity="0.0"
     inkscape:pagecheckerboard="0"
     inkscape:deskcolor="#d1d1d1"
     inkscape:document-units="mm"
     showgrid="false"
     inkscape:zoom="0.53754294"
     inkscape:cx="828.771"
     inkscape:cy="51.158704"
     inkscape:window-width="1692"
     inkscape:window-height="825"
     inkscape:window-x="0"
     inkscape:window-y="44"
     inkscape:window-maximized="0"
     inkscape:current-layer="layer1" /><defs
     id="defs2" /><g
     inkscape:label="Layer 1"
     inkscape:groupmode="layer"
     id="layer1"
     transform="translate(342.09012,194.79527)"><path
       style="fill:#000000;stroke-width:0.176;stroke-dasharray:none"
       d="m -342.09012,-143.4661 c 0,-34.21945 0,-17.10972 0,0 z m 15.69861,44.777458 c 3.87569,-0.699589 9.05022,-3.820018 13.5498,-8.171018 2.00656,-1.94031 4.61826,-4.97402 4.61826,-5.36451 0,-0.11471 0.11906,-0.25425 0.26458,-0.31009 0.14552,-0.0558 0.26458,-0.179 0.26458,-0.27369 0,-0.15499 -2.83503,1.92811 -3.26319,2.39769 -0.097,0.1064 -0.47037,0.34289 -0.82968,0.52552 -0.35931,0.18263 -0.8124,0.48029 -1.00686,0.66146 -0.19446,0.18117 -0.39313,0.3294 -0.44148,0.3294 -0.0483,0 -0.94464,0.47232 -1.99175,1.04961 -6.55981,3.61652 -11.24276,3.16894 -12.51163,-1.19583 -0.40043,-1.37744 -0.34689,-4.4101 0.11888,-6.73295 0.54259,-2.70599 1.77706,-6.39447 2.15887,-6.45051 0.16739,-0.0246 0.30434,0.0293 0.30434,0.11968 0,0.0904 0.53578,0.50008 1.19063,0.91043 1.80281,1.12972 2.14587,1.32313 3.48368,1.96408 7.74028,3.70837 16.45429,4.19774 24.60625,1.38185 2.48888,-0.85972 7.15186,-3.25137 7.37893,-3.78467 0.0323,-0.0759 0.13632,-0.13808 0.23107,-0.13808 0.23395,0 1.5026,-0.98187 3.00625,-2.32667 0.68441,-0.6121 1.31034,-1.1381 1.39095,-1.16887 0.0806,-0.0308 0.39194,0.4301 0.69183,1.02417 l 0.54525,1.08013 1.18307,-0.0988 c 4.31996,-0.36076 20.98262,-1.11051 33.63862,-1.51361 3.20146,-0.10197 7.83913,-0.26161 10.30594,-0.35476 2.46681,-0.0932 5.64181,-0.17876 7.05556,-0.19024 2.70718,-0.022 3.93081,-0.16365 3.276,-0.37929 -1.06216,-0.34979 -3.59852,-0.58851 -14.46389,-1.36132 -4.20374,-0.299 -12.23463,-1.37484 -16.94003,-2.26934 -5.86731,-1.11539 -10.9907,-2.44175 -15.51552,-4.01672 -3.44193,-1.19805 -3.38632,-1.1431 -2.66687,-2.63507 0.44166,-0.9159 1.35279,-3.7851 1.67687,-5.28058 1.12859,-5.20794 0.93784,-10.95987 -0.52939,-15.9632 -0.58349,-1.98971 -1.20111,-3.57973 -1.42741,-3.67477 -0.077,-0.0323 -0.14001,-0.20616 -0.14001,-0.38628 0,-0.38457 -1.23417,-2.81089 -2.19735,-4.31989 -0.90591,-1.41928 -2.63535,-3.6406 -3.08398,-3.96112 -0.19971,-0.14269 -0.36311,-0.36565 -0.36311,-0.49548 0,-0.12983 -0.0794,-0.187 -0.17639,-0.12704 -0.097,0.06 -0.17639,0.0223 -0.17639,-0.0837 0,-0.30743 -2.44193,-2.5283 -4.36563,-3.97042 -0.60633,-0.45454 -1.10243,-0.88789 -1.10243,-0.96298 0,-0.32577 8.3559,-8.33396 12.28954,-11.77814 1.08393,-0.94906 1.9769,-1.82478 1.98437,-1.94605 0.007,-0.12127 0.13266,-0.22049 0.27818,-0.22049 0.14552,0 0.26458,-0.0885 0.26458,-0.19667 0,-0.20301 -0.50145,0.0711 -1.53163,0.83738 -0.30883,0.22969 -0.60874,0.41763 -0.66649,0.41763 -0.0577,0 -1.18213,0.73422 -2.49864,1.63159 -1.3165,0.89738 -2.58409,1.75743 -2.81686,1.91121 -0.23277,0.15379 -0.36384,0.34511 -0.29126,0.42516 0.0726,0.08 0.0356,0.0902 -0.0821,0.0226 -0.11773,-0.0676 -0.3757,0.0387 -0.57326,0.23631 -0.19757,0.19756 -0.35921,0.31595 -0.35921,0.26309 0,-0.13564 -2.82906,2.01738 -3.29887,2.51056 -0.21365,0.22428 -0.43654,0.40778 -0.4953,0.40778 -0.17088,0 -3.09273,2.27441 -4.01468,3.12507 -0.77623,0.71622 -1.40625,0.92374 -1.71615,0.56528 -0.31127,-0.36003 -3.84114,-1.79525 -4.069,-1.65443 -0.0904,0.0559 -0.16434,0.024 -0.16434,-0.0708 0,-0.16969 -0.921,-0.42938 -3.88055,-1.09417 -1.81062,-0.40672 -5.67411,-0.69718 -7.84931,-0.59012 -3.23485,0.15921 -7.26216,1.03447 -10.23055,2.22341 -1.11806,0.44782 -3.85214,1.76292 -3.96875,1.90898 -0.0485,0.0608 -0.22686,0.16162 -0.39633,0.22414 -0.549,0.20254 -3.00818,1.91772 -4.3833,3.05718 -1.56031,1.2929 -4.33757,4.16257 -4.61249,4.76595 -0.10423,0.22876 -0.24515,0.41593 -0.31316,0.41593 -0.068,0 -0.63614,0.77391 -1.26252,1.71979 -5.80586,8.76738 -6.99742,19.33452 -3.30955,29.35034 0.73867,2.00613 2.85961,6.01766 3.38456,6.40151 0.14094,0.10306 0.26465,0.26676 0.27489,0.36377 0.0171,0.16242 0.52225,0.86293 1.60952,2.23221 0.3662,0.46118 0.40019,0.60726 0.23402,1.00575 -2.15693,5.17253 -2.90901,7.1805 -3.61003,9.63843 -1.4668,5.14285 -1.8659,9.39725 -1.1831,12.61181 0.44075,2.07501 1.86768,4.21115 3.46572,5.188228 0.41038,0.250919 0.93028,0.456214 1.15534,0.456214 0.22506,0 0.48461,0.07372 0.57677,0.163813 0.3612,0.353099 2.31802,0.347318 4.31271,-0.01274 z m 16.4496,-21.234698 c -4.01222,-0.57209 -6.55964,-1.37759 -9.92321,-3.13775 -0.92163,-0.48229 -1.85367,-0.96462 -2.07119,-1.07186 -0.21753,-0.10723 -0.39612,-0.24207 -0.39688,-0.29965 -7e-4,-0.0576 -0.3981,-0.37507 -0.88298,-0.70555 -0.48488,-0.33048 -0.88175,-0.72356 -0.88194,-0.87351 -1.8e-4,-0.14995 0.76891,-1.81682 1.70911,-3.70416 0.94019,-1.88735 1.69425,-3.49107 1.67569,-3.56383 -0.0186,-0.0728 0.0258,-0.13257 0.0985,-0.13291 0.0728,-3.5e-4 0.37041,-0.45674 0.66146,-1.01423 0.29104,-0.55749 0.57563,-1.05331 0.63242,-1.10182 0.0568,-0.0485 0.34212,-0.52702 0.63406,-1.06337 0.44295,-0.81377 1.19412,-2.08794 2.08747,-3.54086 0.49168,-0.79966 1.9126,-2.9533 3.21986,-4.88022 0.86469,-1.27456 1.41705,-2.2535 1.34362,-2.38125 -0.0686,-0.11931 -0.0634,-0.1618 0.0114,-0.0944 0.17948,0.16157 0.9788,-0.79603 0.9788,-1.17262 0,-0.1615 0.0794,-0.24457 0.17639,-0.18462 0.097,0.06 0.17639,0.0411 0.17639,-0.0418 0,-0.11805 1.24313,-1.84667 2.25321,-3.13317 0.0762,-0.097 0.41316,-0.57326 0.74887,-1.05833 0.33572,-0.48507 0.84931,-1.17307 1.14131,-1.52889 0.29201,-0.35582 1.08654,-1.3697 1.76564,-2.25306 1.25247,-1.6292 2.82261,-3.57895 3.91467,-4.8611 0.33053,-0.38806 0.66854,-0.79307 0.75114,-0.90003 0.14917,-0.19316 2.50307,-2.93005 3.24612,-3.77428 0.21346,-0.24253 1.5246,-1.68572 2.91364,-3.20709 2.67859,-2.93375 2.64473,-2.91309 3.58322,-2.18685 1.06806,0.82651 2.151,1.60202 2.24647,1.60872 0.14893,0.0105 3.00191,3.02132 3.83745,4.0498 1.89917,2.33774 3.75905,5.73224 4.78499,8.73321 0.923,2.69985 1.27425,4.70584 1.38953,7.93554 0.11712,3.28128 -0.0991,5.70236 -0.73127,8.18942 -0.41476,1.63168 -1.57598,4.82495 -1.85751,5.10807 -0.0904,0.0909 -0.97364,-0.26154 -2.10698,-0.84074 -1.07323,-0.54849 -1.95374,-0.93642 -1.9567,-0.86207 -0.003,0.0744 -0.0863,-0.004 -0.18515,-0.1735 -0.0989,-0.16977 -0.25124,-0.30868 -0.33857,-0.30868 -0.0873,0 -0.51162,-0.23812 -0.94286,-0.52916 -0.43124,-0.29105 -0.82517,-0.52917 -0.87539,-0.52917 -0.0964,0 -1.84928,-1.1134 -2.15058,-1.36597 -0.097,-0.0813 -0.65264,-0.49827 -1.23472,-0.92655 -0.58208,-0.42827 -1.47888,-1.12894 -1.99287,-1.55703 -0.514,-0.4281 -0.97553,-0.73737 -1.02563,-0.68728 -0.0501,0.0501 0.16241,0.5556 0.47223,1.12333 0.30982,0.56774 0.86051,1.62933 1.22375,2.35911 0.36324,0.72977 0.78956,1.43402 0.94738,1.565 0.15782,0.13098 0.28694,0.372 0.28694,0.5356 0,0.1636 0.2597,0.72935 0.5771,1.25722 0.3174,0.52787 0.7164,1.25405 0.88666,1.61373 0.17027,0.35968 0.38683,0.70171 0.48124,0.76006 0.0944,0.0584 0.17167,0.24786 0.17167,0.42113 0,0.17327 0.15875,0.45869 0.35278,0.63429 0.19403,0.17559 0.35278,0.43872 0.35278,0.58474 0,0.31892 1.75314,3.62356 1.9668,3.70739 0.0824,0.0323 0.14986,0.19752 0.14986,0.36706 0,0.34551 -2.10543,2.42815 -3.40648,3.36962 -0.46687,0.33783 -1.07364,0.79284 -1.34838,1.01112 -0.27474,0.21828 -0.58729,0.39687 -0.69456,0.39687 -0.10726,0 -0.19502,0.0794 -0.19502,0.17639 0,0.097 -0.0854,0.17639 -0.18971,0.17639 -0.10434,0 -0.75919,0.3353 -1.45521,0.7451 -0.69602,0.4098 -1.62268,0.88001 -2.05925,1.04491 -2.54813,0.96248 -4.93181,1.73715 -5.64444,1.83439 -0.24254,0.0331 -0.9966,0.14042 -1.6757,0.2385 -2.28214,0.3296 -5.70518,0.37479 -7.62748,0.1007 z m -19.90602,-11.9011 c -0.34849,-0.48507 -0.70554,-0.88194 -0.79346,-0.88194 -0.0879,0 -0.15984,-0.11557 -0.15984,-0.25682 0,-0.14126 -0.22222,-0.63735 -0.49383,-1.10243 -0.63851,-1.09338 -1.62284,-3.15086 -1.62284,-3.39214 0,-0.10313 -0.0841,-0.1875 -0.1868,-0.1875 -0.10274,0 -0.14284,-0.0711 -0.0891,-0.15803 0.0537,-0.0869 -0.0205,-0.38458 -0.16489,-0.66146 -0.14441,-0.27689 -0.26305,-0.61721 -0.26365,-0.75627 -6e-4,-0.13906 -0.15324,-0.69468 -0.33922,-1.23472 -1.01399,-2.94443 -1.32648,-9.05219 -0.65488,-12.79994 0.3056,-1.70534 1.09054,-4.57776 1.34965,-4.93889 0.0696,-0.097 0.2211,-0.47001 0.33666,-0.82889 0.22446,-0.6971 1.70401,-3.64529 1.96966,-3.92479 0.0876,-0.0922 0.15927,-0.31044 0.15927,-0.48507 0,-0.17462 0.063,-0.3175 0.13995,-0.3175 0.077,0 0.59062,-0.61615 1.14143,-1.36923 1.32845,-1.81627 3.55802,-4.08087 5.51068,-5.59724 0.87252,-0.67757 1.61287,-1.29231 1.64521,-1.36607 0.0323,-0.0738 0.13537,-0.13412 0.22896,-0.13412 0.0936,0 0.58403,-0.26475 1.08986,-0.58833 1.92227,-1.22966 5.81862,-2.7636 8.32377,-3.27694 4.03354,-0.82655 7.43712,-0.88367 11.41874,-0.19165 1.91599,0.333 6.03599,1.61512 6.43961,2.00396 0.17306,0.16672 -0.0869,0.48995 -1.22983,1.52906 -1.98506,1.80476 -5.79594,5.48744 -7.09272,6.85413 -0.58802,0.61972 -1.62476,1.69559 -2.30386,2.39083 -1.30267,1.33365 -3.40456,3.64724 -4.25583,4.68449 -0.27867,0.33955 -0.5662,0.64382 -0.63896,0.67616 -0.0728,0.0323 -0.13229,0.17373 -0.13229,0.31422 0,0.14048 -0.11371,0.29905 -0.25269,0.35238 -0.25634,0.0984 -2.39314,2.59311 -2.39314,2.79403 0,0.0601 -0.35719,0.48213 -0.79375,0.93772 -0.43656,0.4556 -0.79375,0.87511 -0.79375,0.93226 0,0.0571 -0.43656,0.65174 -0.97014,1.32133 -0.53358,0.66958 -0.97014,1.33197 -0.97014,1.47198 0,0.14 -0.0524,0.20214 -0.11647,0.13808 -0.12955,-0.12955 -0.69927,0.59845 -0.63181,0.80733 0.0235,0.0728 -0.0298,0.13229 -0.1184,0.13229 -0.25591,0 -1.24967,1.44532 -1.12853,1.64133 0.0602,0.0974 0.0363,0.13185 -0.0531,0.0766 -0.15857,-0.098 -2.59563,3.22752 -2.83507,3.86863 -0.0662,0.17736 -0.26457,0.4262 -0.44073,0.55296 -0.17616,0.12677 -0.32029,0.37625 -0.32029,0.5544 0,0.17814 -0.11907,0.36959 -0.26459,0.42543 -0.14552,0.0558 -0.26458,0.21647 -0.26458,0.35695 0,0.14048 -0.0646,0.28188 -0.14352,0.31422 -0.22219,0.091 -2.80918,4.33765 -4.52203,7.42303 -0.84825,1.52797 -1.57439,2.77813 -1.61365,2.77813 -0.0393,0 -0.35651,-0.39688 -0.705,-0.88195 z m 128.01218,-6.38831 c 2.74119,-0.67408 5.38974,-2.12975 7.40203,-4.06825 1.18609,-1.1426 5.13879,-6.34384 5.52688,-7.27266 0.48935,-1.17119 0.25005,-2.52764 -0.61254,-3.47205 -0.28582,-0.31293 -0.461,-0.61966 -0.3893,-0.68163 0.0717,-0.062 0.71596,-0.29655 1.43168,-0.52131 1.4767,-0.46374 3.81553,-1.8201 5.16576,-2.99579 0.50137,-0.43656 1.37378,-1.38906 1.93868,-2.11666 0.5649,-0.72761 1.1084,-1.41991 1.20777,-1.53844 0.84252,-1.00493 1.91599,-2.59096 1.8385,-2.71634 -0.0527,-0.0852 0.03,-0.15495 0.1836,-0.15495 0.15365,0 0.35187,-0.19072 0.4405,-0.42383 0.0886,-0.23311 0.23408,-0.46892 0.32321,-0.52401 0.0891,-0.0551 0.26144,-0.56837 0.38288,-1.14062 0.30672,-1.44535 -0.0745,-2.76564 -1.10788,-3.8367 -0.40602,-0.42084 -0.85728,-0.78781 -1.00281,-0.81548 -0.14552,-0.0277 -0.30838,-0.10893 -0.36191,-0.18055 -0.3156,-0.42229 -3.01507,-0.48714 -20.27873,-0.48714 h -18.29943 l -0.44928,0.57326 c -0.2471,0.3153 -0.6534,0.80389 -0.90288,1.08577 -0.24948,0.28188 -0.4536,0.60811 -0.4536,0.72495 0,0.11684 -0.19844,0.36146 -0.44097,0.5436 -0.24254,0.18213 -0.44097,0.39736 -0.44097,0.47827 0,0.0809 -0.0992,0.25166 -0.22049,0.37943 -0.32902,0.34665 -0.66057,0.76858 -1.59949,2.03555 -0.46732,0.63059 -1.06259,1.41828 -1.32283,1.75042 -0.26024,0.33214 -1.71954,2.27683 -3.24288,4.32153 -1.52335,2.0447 -2.83349,3.79701 -2.91142,3.89403 -1.11431,1.38715 -1.99178,2.58347 -1.99178,2.71554 0,0.091 -0.0683,0.19193 -0.15177,0.22427 -0.12216,0.0473 -3.6569,4.65808 -5.02274,6.55171 -0.1781,0.24692 -0.95959,1.26828 -1.73664,2.26968 -0.77706,1.00141 -1.45986,1.9398 -1.51734,2.08532 -0.0575,0.14552 -0.19457,0.34396 -0.30463,0.44097 -0.30298,0.26705 -1.94595,2.43014 -2.18482,2.87647 l -0.20984,0.39208 20.07188,-0.0542 c 17.85523,-0.0482 20.20127,-0.086 21.2436,-0.34229 z m -14.25641,-6.44377 -3.91246,-0.051 0.21539,-0.41516 c 0.11846,-0.22834 0.43447,-0.68324 0.70224,-1.01089 1.08874,-1.33222 2.05659,-2.60673 2.05659,-2.70821 0,-0.0593 0.1861,-0.30849 0.41356,-0.55379 0.22745,-0.2453 0.60448,-0.75564 0.83784,-1.13408 l 0.4243,-0.68809 3.52778,-0.0243 c 4.23021,-0.0291 4.30361,-0.0246 4.80659,0.29776 0.66566,0.42656 0.50817,1.08886 -0.64936,2.73084 -0.57543,0.81625 -1.21043,1.64564 -1.41111,1.84308 -0.20068,0.19744 -0.36487,0.46009 -0.36487,0.58368 0,0.12358 -0.0739,0.17902 -0.1642,0.12321 -0.0903,-0.0558 -0.21954,-0.0119 -0.28717,0.0975 -0.13644,0.22076 -1.95438,1.06502 -2.1554,1.00098 -0.07,-0.0223 -1.88787,-0.0635 -4.03972,-0.0915 z m 6.29371,-13.55127 c 0,-0.15826 1.7778,-2.66233 2.51354,-3.54038 0.3638,-0.43416 0.66146,-0.90831 0.66146,-1.05366 0,-0.14534 0.0648,-0.22421 0.14402,-0.17525 0.14841,0.0917 0.84748,-0.94377 0.78231,-1.1588 -0.0201,-0.0663 1.82084,-0.12821 4.09093,-0.13766 4.09116,-0.017 4.12988,-0.0137 4.40578,0.3802 0.55075,0.7863 0.3289,1.44274 -1.09137,3.22932 -0.0771,0.097 -0.36408,0.47214 -0.63768,0.83361 -0.2736,0.36147 -0.88756,0.89725 -1.36435,1.19062 l -0.86689,0.53341 h -4.31887 c -2.37539,0 -4.31888,-0.0456 -4.31888,-0.10141 z m 64.11736,19.90416 c 1.77158,-0.46993 3.46631,-1.22623 4.8913,-2.18282 1.0605,-0.7119 4.01634,-3.57221 4.01634,-3.88653 0,-0.0833 0.12042,-0.29036 0.26762,-0.46014 0.89556,-1.03297 1.33727,-1.6321 1.20586,-1.63552 -0.0828,-0.002 0.0168,-0.14106 0.22109,-0.30868 0.56746,-0.46532 1.83321,-2.23961 1.83321,-2.56974 0,-0.16096 0.1056,-0.29266 0.23468,-0.29266 0.12907,0 0.50322,-0.37703 0.83143,-0.83784 0.32822,-0.46082 1.14864,-1.5482 1.82319,-2.4164 0.67455,-0.86821 1.22643,-1.67739 1.22643,-1.79819 0,-0.1208 0.0758,-0.2042 0.16849,-0.18534 0.0927,0.0189 0.34835,-0.29871 0.56818,-0.70572 0.21985,-0.40701 0.44644,-0.6933 0.50354,-0.63621 0.0571,0.0571 0.16111,-0.0465 0.23117,-0.23012 0.07,-0.18366 0.31004,-0.53155 0.53332,-0.7731 0.22327,-0.24154 0.40596,-0.53919 0.40596,-0.66145 0,-0.12226 0.0819,-0.22229 0.18192,-0.22229 0.10005,0 0.23065,-0.12699 0.29022,-0.2822 0.0595,-0.15521 0.27534,-0.46553 0.47953,-0.6896 0.56548,-0.62057 1.87055,-2.31779 1.87055,-2.43262 0,-0.0559 0.2286,-0.35187 0.50798,-0.65777 0.2794,-0.30589 0.61674,-0.76229 0.74965,-1.01421 0.13293,-0.25192 0.42454,-0.64221 0.64804,-0.8673 0.2235,-0.22509 0.35773,-0.48797 0.29827,-0.58417 -0.0594,-0.0962 -0.0302,-0.17491 0.065,-0.17491 0.52163,0 0.73607,-3.14346 0.22604,-3.31347 -0.11227,-0.0374 -0.15644,-0.14523 -0.0981,-0.23955 0.14966,-0.24219 -0.75989,-1.56226 -1.07645,-1.56226 -0.14415,0 -0.26208,-0.0838 -0.26208,-0.1863 0,-0.10247 -0.37703,-0.36044 -0.83785,-0.57327 l -0.83784,-0.38696 h -16.13959 -16.13958 l -1.5875,0.42474 c -0.87313,0.2336 -1.64581,0.51141 -1.71709,0.61736 -0.0713,0.10594 -0.13081,0.13749 -0.1323,0.0701 -0.004,-0.18724 -1.91591,0.71842 -2.95419,1.39947 -0.8645,0.56706 -2.98004,2.52509 -3.57716,3.31082 -0.14677,0.19312 -0.80161,1.03723 -1.45521,1.87579 -0.6536,0.83856 -1.18836,1.60585 -1.18836,1.70509 0,0.0992 -0.0753,0.2069 -0.16727,0.23924 -0.12883,0.0453 -6.38233,8.25342 -8.38759,11.00929 -0.19403,0.26665 -0.4333,0.57094 -0.53173,0.67619 -0.5464,0.58432 -3.89022,5.16444 -4.16757,5.70845 -0.4769,0.93542 -0.43634,2.53627 0.0926,3.65514 0.54145,1.14531 1.22834,1.7729 2.41317,2.20483 0.93368,0.34038 1.37948,0.34818 17.0102,0.29735 15.71217,-0.0511 16.08122,-0.0601 17.4625,-0.42651 z m -16.46125,-6.42048 c -0.62826,-0.23683 -0.96084,-0.81321 -0.84023,-1.45613 0.0631,-0.33637 0.17288,-0.6372 0.24395,-0.66851 0.0711,-0.0313 0.51047,-0.57288 0.97645,-1.20347 0.46599,-0.63059 1.06017,-1.41759 1.32042,-1.74889 0.26024,-0.33131 0.76843,-1.006 1.12934,-1.49931 0.3609,-0.49331 0.72064,-0.97631 0.79942,-1.07332 0.69543,-0.85632 4.98259,-6.62814 4.98259,-6.70809 0,-0.057 -0.0916,-0.0471 -0.20364,0.0222 -0.12717,0.0786 -0.15571,0.0483 -0.076,-0.0807 0.0702,-0.11358 0.19443,-0.16523 0.27608,-0.11477 0.0816,0.0505 0.3898,-0.24591 0.68481,-0.65858 0.295,-0.41268 0.64204,-0.86939 0.77121,-1.01491 0.12915,-0.14553 0.57242,-0.71217 0.98501,-1.25922 0.41261,-0.54704 1.07768,-1.22173 1.47794,-1.4993 l 0.72775,-0.50468 h 3.6119 3.61189 l 0.3513,0.46972 c 0.23082,0.3086 0.31422,0.6111 0.24317,0.88194 -0.0595,0.22673 -0.90327,1.46644 -1.87507,2.75492 -0.97179,1.28847 -1.7669,2.41295 -1.7669,2.49884 0,0.0859 -0.0646,0.18261 -0.14351,0.21495 -0.21315,0.0873 -2.00193,2.44005 -1.85517,2.44005 0.0692,0 -0.006,0.0992 -0.16704,0.22048 -0.55478,0.41766 -2.78247,3.55784 -2.69171,3.7943 0.05,0.13028 0.0199,0.19299 -0.0669,0.13935 -0.17708,-0.10944 -1.06634,0.93103 -2.47983,2.90142 -2.15352,3.00201 -2.27147,3.05963 -6.49944,3.175 -1.77763,0.0485 -3.36513,0.038 -3.52778,-0.0233 z m 68.328896,5.80002 c 0.441273,-0.60634 0.916588,-1.24134 1.056235,-1.41111 0.139647,-0.16978 0.195156,-0.3111 0.123349,-0.31405 -0.07181,-0.003 -0.0048,-0.0789 0.148854,-0.16877 0.15367,-0.0899 0.510858,-0.50419 0.79375,-0.92068 0.282875,-0.4165 0.692926,-0.95489 0.911207,-1.19644 0.218282,-0.24154 0.396875,-0.48736 0.396875,-0.54627 0,-0.0589 0.15711,-0.28825 0.349109,-0.50964 0.192017,-0.22139 0.308099,-0.46892 0.257951,-0.55007 -0.05015,-0.0811 -4.071461,-0.15156 -8.936249,-0.15648 -4.864787,-0.005 -8.875957,-0.0399 -8.913707,-0.0776 -0.0378,-0.0378 1.02847,-1.50957 2.36941,-3.27068 l 2.43807,-3.20202 9.148639,0.007 9.148657,0.007 2.448912,-3.25905 c 1.346906,-1.79247 2.448931,-3.33881 2.448931,-3.43631 0,-0.11644 -3.089346,-0.17726 -9.0043,-0.17726 h -9.004318 l 0.574534,-0.83785 c 0.63537,-0.92657 1.34276,-1.86953 2.23871,-2.9842 0.325032,-0.40438 0.563051,-0.78699 0.528937,-0.85025 -0.03411,-0.0633 0.07687,-0.19275 0.246645,-0.28776 0.169774,-0.095 0.308681,-0.24818 0.308681,-0.34037 0,-0.0922 0.15875,-0.32638 0.352777,-0.52041 0.343712,-0.34372 0.587957,-0.35277 9.512195,-0.35277 h 9.159416 l 0.366871,-0.48507 c 0.201772,-0.26679 0.530508,-0.699 0.730515,-0.96047 0.200007,-0.26146 0.359974,-0.51763 0.355494,-0.56925 -0.0044,-0.0516 0.168645,-0.28202 0.384722,-0.512 0.556419,-0.5922 1.210857,-1.48517 1.211298,-1.65277 0,-0.0781 0.113806,-0.20545 0.25243,-0.28303 0.138641,-0.0776 0.25206,-0.20645 0.25206,-0.28639 0,-0.0799 0.3175,-0.49267 0.705555,-0.9172 0.388056,-0.42452 0.705556,-0.87111 0.705556,-0.99243 0,-0.32336 -35.790307,-0.32343 -36.185087,-7e-5 -0.37477,0.30696 -1.56214,1.8143 -1.56214,1.98309 0,0.0763 -0.10853,0.2269 -0.24119,0.33461 -0.36542,0.2967 -4.02022,5.22292 -3.87493,5.22292 0.0696,0 -0.005,0.0992 -0.16586,0.22049 -0.52925,0.399 -6.6345,8.6644 -6.52766,8.83727 0.0574,0.0929 0.031,0.12361 -0.0587,0.0682 -0.12944,-0.08 -8.09571,10.26772 -9.71736,12.62226 -0.21403,0.31075 -0.90826,1.23968 -1.54275,2.0643 -0.63448,0.82462 -1.15391,1.55884 -1.15427,1.6316 0,0.0728 8.13545,0.13229 18.07958,0.13229 h 18.080216 z m 28.663918,0 c 0.421693,-0.60634 1.028736,-1.41993 1.34897,-1.80799 0.320234,-0.38805 0.597746,-0.78493 0.616673,-0.88194 0.01894,-0.097 0.168945,-0.29545 0.333357,-0.44097 0.164395,-0.14552 2.610626,-3.36021 5.436041,-7.14375 2.825415,-3.78355 5.241925,-6.99823 5.370019,-7.14375 0.445011,-0.50557 11.050182,-14.64097 11.050182,-14.72855 0,-0.0485 -4.037577,-0.0881 -8.972392,-0.0881 h -8.972391 l -0.464414,0.70177 c -0.255429,0.38598 -0.464415,0.78286 -0.464415,0.88195 0,0.0991 -0.07615,0.18017 -0.169209,0.18017 -0.09306,0 -1.12709,1.28984 -2.297836,2.86632 -1.170728,1.57647 -2.364581,3.15863 -2.653012,3.51591 -0.288414,0.35728 -0.524387,0.68788 -0.524387,0.73467 0,0.0468 -0.159173,0.27041 -0.353695,0.49693 -1.272716,1.48198 -2.459814,3.10395 -2.463818,3.36638 -0.0026,0.16977 -0.103928,0.31102 -0.225195,0.31389 -0.121268,0.003 -0.617361,0.56308 -1.102431,1.24492 -0.485069,0.68184 -0.965024,1.33434 -1.066571,1.45 -0.101547,0.11566 -0.597729,0.76591 -1.102642,1.44501 -0.504913,0.67909 -1.068758,1.43316 -1.252996,1.67569 -0.36763,0.48397 -1.490433,1.99431 -2.045847,2.75199 -0.194027,0.26469 -0.432152,0.56736 -0.529166,0.67262 -0.527844,0.57267 -1.146528,1.52621 -1.146528,1.76709 0,0.152 -0.119062,0.27636 -0.264583,0.27636 -0.145521,0 -0.264584,0.0763 -0.264584,0.16951 0,0.0932 -0.145326,0.31152 -0.32295,0.48507 -0.177624,0.17356 -1.295753,1.62524 -2.484755,3.22597 -1.189002,1.60073 -2.255485,3.02948 -2.369961,3.175 -0.928917,1.18077 -1.187133,1.59725 -1.088849,1.75627 0.0765,0.12377 2.989245,0.18401 8.897197,0.18401 h 8.783479 z m 23.970933,-0.29827 c 0.58644,-0.77038 1.066253,-1.52444 1.066253,-1.67569 0,-0.15125 0.09922,-0.27735 0.220486,-0.28021 0.121268,-0.003 0.617361,-0.56308 1.102431,-1.24492 0.485069,-0.68185 0.965024,-1.33434 1.066571,-1.45 0.101547,-0.11566 0.596282,-0.76591 1.099414,-1.44501 0.503149,-0.6791 0.976136,-1.3141 1.051101,-1.41111 0.07497,-0.097 0.552574,-0.71047 1.06135,-1.36323 0.508758,-0.65276 0.925036,-1.2339 0.925036,-1.29141 0,-0.0575 0.120403,-0.225 0.267582,-0.37217 0.147161,-0.14717 1.033233,-1.29243 1.969029,-2.54504 0.935796,-1.2526 1.751736,-2.27745 1.81319,-2.27745 0.06145,0 0.244281,0.57546 0.406294,1.27881 0.161996,0.70336 0.932515,4.05695 1.71226,7.45244 0.779727,3.39548 1.523136,6.57048 1.652023,7.05555 l 0.234315,0.88194 7.041056,0.0425 c 3.872583,0.0234 7.126253,-0.0163 7.230357,-0.0882 0.262785,-0.18146 2.1919499,-2.77601 2.1919499,-2.94796 0,-0.077 0.1455208,-0.26837 0.3233738,-0.42527 0.4300537,-0.37939 4.2627373,-5.46332 4.2627373,-5.65438 0,-0.0822 0.1190625,-0.19509 0.2645834,-0.25093 0.1455208,-0.0558 0.2645833,-0.18808 0.2645833,-0.29386 0,-0.10579 -0.091634,-0.1357 -0.203641,-0.0665 -0.1271763,0.0786 -0.1557161,0.0483 -0.076006,-0.0807 0.070203,-0.11359 0.1954565,-0.16461 0.2783416,-0.11338 0.1733021,0.10711 0.9152291,-0.86354 0.7898519,-1.03334 -0.04565,-0.0618 -0.034555,-0.0772 0.024641,-0.0342 0.1411816,0.10262 2.53820083,-3.09149 2.53820083,-3.38226 0,-0.12306 0.0795337,-0.22375 0.17674167,-0.22375 0.0972079,0 0.72696917,-0.73422 1.39946946,-1.6316 2.39379124,-3.1943 3.33886534,-4.45857 3.59305934,-4.80659 0.1417108,-0.19403 0.9415992,-1.24694 1.7775238,-2.33981 0.8359245,-1.09286 1.5198725,-2.10489 1.5198725,-2.24895 0,-0.14407 0.099219,-0.26559 0.2204861,-0.27005 0.247456,-0.009 5.3037311,-6.6862 5.3927901,-7.12148 0.05107,-0.24952 -0.544971,-0.27874 -5.685384,-0.27874 H 2.0509021 l -1.13915476,1.44714 c -0.62653334,0.79593 -1.23980223,1.64922 -1.36279821,1.89618 -0.12301361,0.24698 -0.35695819,0.5681 -0.51988861,0.71362 -0.44850402,0.4006 -5.80390002,7.53894 -5.80390002,7.73618 0,0.0946 -0.076323,0.19838 -0.1696156,0.23072 -0.093292,0.0323 -0.7639226,0.85255 -1.4903097,1.82269 -0.7263695,0.97014 -1.5430148,2.05758 -1.8147592,2.41655 -0.529432,0.69938 -0.8001,0.76915 -0.850495,0.21921 -0.04272,-0.46637 -3.211918,-14.14021 -3.434626,-14.81912 -0.09774,-0.29793 -0.177695,-0.69877 -0.177695,-0.89076 0,-0.76241 -0.09506,-0.77241 -7.342364,-0.77241 h -6.91903 l -2.159106,2.85098 c -1.187521,1.56804 -2.159123,2.95269 -2.159123,3.07701 0,0.12431 -0.0586,0.21059 -0.130193,0.19172 -0.131198,-0.0346 -2.666806,3.28717 -12.02459,15.75251 -2.803913,3.73504 -5.270888,7.01696 -5.482149,7.29317 -1.723072,2.25262 -2.941778,3.92536 -2.941778,4.03773 0,0.0739 2.615812,0.13438 5.812913,0.13438 h 5.812896 z m 80.705837,1.22881 c 1.660031,-0.25849 2.047858,-0.3472 3.127922,-0.71547 1.031734,-0.3518 3.059959,-1.38823 3.958043,-2.02258 0.725964,-0.51278 3.585563,-3.41546 3.585563,-3.63958 0,-0.10487 0.198438,-0.34677 0.440972,-0.53755 0.242535,-0.19078 0.440972,-0.45356 0.440972,-0.58395 0,-0.13039 0.06144,-0.26354 0.136525,-0.29588 0.192988,-0.0831 1.803753,-2.23723 1.803753,-2.41221 0,-0.34477 0.929393,-0.55034 2.798445,-0.61899 1.880588,-0.0691 2.03073,-0.10172 2.425348,-0.52729 0.231351,-0.24951 0.420652,-0.4959 0.420652,-0.54754 0,-0.0516 0.114159,-0.23368 0.253682,-0.40457 1.341279,-1.64273 1.830388,-2.31136 1.937403,-2.64855 0.06916,-0.21789 0.194098,-0.39617 0.277636,-0.39617 0.144533,0 1.764612,-2.02608 1.764612,-2.20683 0,-0.14082 -21.94336,-0.0925 -22.149717,0.0488 -0.104123,0.0713 -0.659324,0.7646 -1.233788,1.54071 -0.574481,0.77611 -1.086608,1.4508 -1.138096,1.4993 -0.05147,0.0485 -0.528144,0.68336 -1.059251,1.41078 -0.531124,0.72743 -1.098479,1.48149 -1.260792,1.6757 -0.365619,0.43745 -1.553122,2.03977 -1.909745,2.57682 -0.487433,0.73407 -1.283511,1.43131 -2.011874,1.7621 -0.619548,0.28136 -1.186515,0.32852 -3.990199,0.33184 -3.720042,0.004 -4.052094,-0.0888 -4.052094,-1.13726 0,-0.48746 0.451044,-1.19407 2.555064,-4.00284 1.40529,-1.87599 2.734821,-3.64006 2.954514,-3.92017 0.219692,-0.2801 0.4312,-0.5976 0.469988,-0.70555 0.03881,-0.10795 0.131498,-0.23661 0.205969,-0.28591 0.07449,-0.0493 0.970704,-1.20024 1.991607,-2.55764 1.020886,-1.3574 1.920381,-2.54738 1.998892,-2.6444 0.07849,-0.097 0.613481,-0.79593 1.188879,-1.55316 1.28591,-1.69229 2.008064,-2.34099 2.873675,-2.58137 0.366448,-0.10176 2.07518,-0.18547 3.797176,-0.18601 2.896447,-8.8e-4 3.157326,0.0254 3.483681,0.35179 0.600551,0.60056 0.448116,1.26112 -0.618049,2.6783 l -0.970809,1.29045 8.940994,0.0457 c 4.917546,0.0251 8.985814,-0.0231 9.040618,-0.10729 0.05479,-0.0842 0.313091,-0.42223 0.574005,-0.75128 0.260915,-0.32905 0.835431,-1.07453 1.276685,-1.65661 0.441272,-0.58208 0.930187,-1.21708 1.086468,-1.41111 1.074226,-1.33353 1.303408,-3.29505 0.556507,-4.76273 -0.523152,-1.02797 -0.977442,-1.47815 -2.071141,-2.05243 l -0.79375,-0.41679 H 46.670994 c -16.157892,0 -17.349629,0.0411 -18.833377,0.65016 -0.264671,0.10864 -0.62902,0.22593 -0.80966,0.26066 -0.180658,0.0347 -1.014095,0.41764 -1.852083,0.85091 -1.821745,0.94189 -3.632447,2.49152 -5.162886,4.4185 -1.559454,1.96353 -8.854581,11.63559 -10.012256,13.27455 -0.5233461,0.74089 -1.0598329,1.45538 -1.1922128,1.58777 -0.7889875,0.78897 -4.2880139,5.73034 -4.554026,6.43123 -0.8643056,2.27725 0.6759751,5.00343 3.1699729,5.61059 0.7907162,0.1925 30.8637169,0.18599 32.1027779,-0.007 z"
       id="path348"
       sodipodi:nodetypes="cccsscsssssssscsccsssscscsscsssssssscsssscsssscsscscscccssssscsssscccsscsscsscsssscccsscssscsscsssccscscsssssscscssssssccssssssssssssscssscsssssssssscccsscssccscssscsscscsccsscscscscsssssccssscsscscsscccsssssssscsssssssscssssscssscscssssscsccccssssscccssssssccssssscsssscssssssccsssssssscssscssssscsscssscccsscsssssscsssssssssssssscscsssscccsssscscsssssscsssssssscsscccssscssssssscsscscsssssssscsssscsccsssssssscsssssscscsssssssssssssscscscsssssssssssscsssssssssssssssssscsscssssssssssscsssscssccsssssssssssssssssssssscsssssssssssscsssscsscsssssssssss" /></g></svg>
