%TF.GenerationSoftware,KiCad,Pcbnew,(6.99.0-2452-gdb4f2d9dd8)*%
%TF.CreationDate,2022-08-02T19:29:55-05:00*%
%TF.ProjectId,captech,63617074-6563-4682-9e6b-696361645f70,rev?*%
%TF.SameCoordinates,Original*%
%TF.FileFunction,Drillmap*%
%TF.FilePolarity,Positive*%
%FSLAX45Y45*%
G04 Gerber Fmt 4.5, Leading zero omitted, Abs format (unit mm)*
G04 Created by KiCad (PCBNEW (6.99.0-2452-gdb4f2d9dd8)) date 2022-08-02 19:29:55*
%MOMM*%
%LPD*%
G01*
G04 APERTURE LIST*
%ADD10C,0.042333*%
%ADD11C,0.200000*%
%ADD12C,0.090000*%
%ADD13C,0.100000*%
G04 APERTURE END LIST*
D10*
X9417937Y-9670000D02*
X6217687Y-9670000D01*
X7627387Y-3170001D02*
X8012637Y-3170001D01*
X7470754Y-3212334D02*
X7627387Y-3212351D01*
X6217687Y-3212334D02*
X6217687Y-3212334D01*
X9417937Y-9670000D02*
X9417937Y-9670000D01*
X7627387Y-3212351D02*
X7627387Y-3170001D01*
X8012637Y-3212351D02*
X8169247Y-3212334D01*
X8169247Y-3212334D02*
X8795780Y-3212334D01*
X8169247Y-3212334D02*
X8169247Y-3212334D01*
X9422270Y-4322526D02*
X9417915Y-5483517D01*
X6217687Y-9670000D02*
X6222232Y-5494101D01*
X9422313Y-3212334D02*
X9422313Y-3212334D01*
X8012637Y-3212351D02*
X8012637Y-3212351D01*
X6219970Y-5195455D02*
X6218414Y-4830404D01*
X6217687Y-9670000D02*
X6217687Y-9670000D01*
X6222232Y-5494101D02*
X6219970Y-5195455D01*
X8795780Y-3212334D02*
X8795780Y-3212334D01*
X7627387Y-3212351D02*
X7627387Y-3212351D01*
X6217701Y-4328875D02*
X6217701Y-4328875D01*
X6218414Y-4830404D02*
X6217701Y-4328875D01*
X9422270Y-4322526D02*
X9422270Y-4322526D01*
X9422313Y-3212334D02*
X9422270Y-4322526D01*
X8795780Y-3212334D02*
X9422313Y-3212334D01*
X6844220Y-3212334D02*
X7470754Y-3212334D01*
X9417915Y-5483517D02*
X9417937Y-9670000D01*
X9417915Y-5483517D02*
X9417915Y-5483517D01*
X8012637Y-3170001D02*
X8012637Y-3170001D01*
X6844220Y-3212334D02*
X6844220Y-3212334D01*
X6217701Y-4328875D02*
X6217687Y-3212334D01*
X8012637Y-3170001D02*
X8012637Y-3212351D01*
X7627387Y-3170001D02*
X7627387Y-3170001D01*
X6217687Y-3212334D02*
X6844220Y-3212334D01*
X7470754Y-3212334D02*
X7470754Y-3212334D01*
D11*
D12*
X7395000Y-9028000D02*
X7485000Y-9118000D01*
X7485000Y-9028000D02*
X7395000Y-9118000D01*
X7395000Y-9282000D02*
X7485000Y-9372000D01*
X7485000Y-9282000D02*
X7395000Y-9372000D01*
D13*
X6496000Y-9163000D02*
G75*
G03*
X6496000Y-9163000I-50000J0D01*
G01*
X6496000Y-9417000D02*
G75*
G03*
X6496000Y-9417000I-50000J0D01*
G01*
X6750000Y-9163000D02*
G75*
G03*
X6750000Y-9163000I-50000J0D01*
G01*
X6750000Y-9417000D02*
G75*
G03*
X6750000Y-9417000I-50000J0D01*
G01*
X7004000Y-9163000D02*
G75*
G03*
X7004000Y-9163000I-50000J0D01*
G01*
X7004000Y-9417000D02*
G75*
G03*
X7004000Y-9417000I-50000J0D01*
G01*
D11*
X6463189Y-9965592D02*
X6463189Y-9765592D01*
X6463189Y-9765592D02*
X6510808Y-9765592D01*
X6510808Y-9765592D02*
X6539380Y-9775116D01*
X6539380Y-9775116D02*
X6558427Y-9794164D01*
X6558427Y-9794164D02*
X6567951Y-9813211D01*
X6567951Y-9813211D02*
X6577475Y-9851307D01*
X6577475Y-9851307D02*
X6577475Y-9879878D01*
X6577475Y-9879878D02*
X6567951Y-9917973D01*
X6567951Y-9917973D02*
X6558427Y-9937021D01*
X6558427Y-9937021D02*
X6539380Y-9956068D01*
X6539380Y-9956068D02*
X6510808Y-9965592D01*
X6510808Y-9965592D02*
X6463189Y-9965592D01*
X6663189Y-9965592D02*
X6663189Y-9832259D01*
X6663189Y-9870354D02*
X6672713Y-9851307D01*
X6672713Y-9851307D02*
X6682237Y-9841783D01*
X6682237Y-9841783D02*
X6701284Y-9832259D01*
X6701284Y-9832259D02*
X6720332Y-9832259D01*
X6786999Y-9965592D02*
X6786999Y-9832259D01*
X6786999Y-9765592D02*
X6777475Y-9775116D01*
X6777475Y-9775116D02*
X6786999Y-9784640D01*
X6786999Y-9784640D02*
X6796522Y-9775116D01*
X6796522Y-9775116D02*
X6786999Y-9765592D01*
X6786999Y-9765592D02*
X6786999Y-9784640D01*
X6910808Y-9965592D02*
X6891761Y-9956068D01*
X6891761Y-9956068D02*
X6882237Y-9937021D01*
X6882237Y-9937021D02*
X6882237Y-9765592D01*
X7015570Y-9965592D02*
X6996522Y-9956068D01*
X6996522Y-9956068D02*
X6986999Y-9937021D01*
X6986999Y-9937021D02*
X6986999Y-9765592D01*
X7211761Y-9965592D02*
X7211761Y-9765592D01*
X7211761Y-9765592D02*
X7278427Y-9908449D01*
X7278427Y-9908449D02*
X7345094Y-9765592D01*
X7345094Y-9765592D02*
X7345094Y-9965592D01*
X7526046Y-9965592D02*
X7526046Y-9860830D01*
X7526046Y-9860830D02*
X7516522Y-9841783D01*
X7516522Y-9841783D02*
X7497475Y-9832259D01*
X7497475Y-9832259D02*
X7459380Y-9832259D01*
X7459380Y-9832259D02*
X7440332Y-9841783D01*
X7526046Y-9956068D02*
X7506999Y-9965592D01*
X7506999Y-9965592D02*
X7459380Y-9965592D01*
X7459380Y-9965592D02*
X7440332Y-9956068D01*
X7440332Y-9956068D02*
X7430808Y-9937021D01*
X7430808Y-9937021D02*
X7430808Y-9917973D01*
X7430808Y-9917973D02*
X7440332Y-9898926D01*
X7440332Y-9898926D02*
X7459380Y-9889402D01*
X7459380Y-9889402D02*
X7506999Y-9889402D01*
X7506999Y-9889402D02*
X7526046Y-9879878D01*
X7621284Y-9832259D02*
X7621284Y-10032259D01*
X7621284Y-9841783D02*
X7640332Y-9832259D01*
X7640332Y-9832259D02*
X7678427Y-9832259D01*
X7678427Y-9832259D02*
X7697475Y-9841783D01*
X7697475Y-9841783D02*
X7706999Y-9851307D01*
X7706999Y-9851307D02*
X7716522Y-9870354D01*
X7716522Y-9870354D02*
X7716522Y-9927497D01*
X7716522Y-9927497D02*
X7706999Y-9946545D01*
X7706999Y-9946545D02*
X7697475Y-9956068D01*
X7697475Y-9956068D02*
X7678427Y-9965592D01*
X7678427Y-9965592D02*
X7640332Y-9965592D01*
X7640332Y-9965592D02*
X7621284Y-9956068D01*
X7802237Y-9946545D02*
X7811761Y-9956068D01*
X7811761Y-9956068D02*
X7802237Y-9965592D01*
X7802237Y-9965592D02*
X7792713Y-9956068D01*
X7792713Y-9956068D02*
X7802237Y-9946545D01*
X7802237Y-9946545D02*
X7802237Y-9965592D01*
X7802237Y-9841783D02*
X7811761Y-9851307D01*
X7811761Y-9851307D02*
X7802237Y-9860830D01*
X7802237Y-9860830D02*
X7792713Y-9851307D01*
X7792713Y-9851307D02*
X7802237Y-9841783D01*
X7802237Y-9841783D02*
X7802237Y-9860830D01*
D12*
X6125570Y-10267116D02*
X6215570Y-10357116D01*
X6215570Y-10267116D02*
X6125570Y-10357116D01*
D11*
X6501284Y-10185592D02*
X6520332Y-10185592D01*
X6520332Y-10185592D02*
X6539380Y-10195116D01*
X6539380Y-10195116D02*
X6548903Y-10204640D01*
X6548903Y-10204640D02*
X6558427Y-10223688D01*
X6558427Y-10223688D02*
X6567951Y-10261783D01*
X6567951Y-10261783D02*
X6567951Y-10309402D01*
X6567951Y-10309402D02*
X6558427Y-10347497D01*
X6558427Y-10347497D02*
X6548903Y-10366545D01*
X6548903Y-10366545D02*
X6539380Y-10376068D01*
X6539380Y-10376068D02*
X6520332Y-10385592D01*
X6520332Y-10385592D02*
X6501284Y-10385592D01*
X6501284Y-10385592D02*
X6482237Y-10376068D01*
X6482237Y-10376068D02*
X6472713Y-10366545D01*
X6472713Y-10366545D02*
X6463189Y-10347497D01*
X6463189Y-10347497D02*
X6453665Y-10309402D01*
X6453665Y-10309402D02*
X6453665Y-10261783D01*
X6453665Y-10261783D02*
X6463189Y-10223688D01*
X6463189Y-10223688D02*
X6472713Y-10204640D01*
X6472713Y-10204640D02*
X6482237Y-10195116D01*
X6482237Y-10195116D02*
X6501284Y-10185592D01*
X6653665Y-10366545D02*
X6663189Y-10376068D01*
X6663189Y-10376068D02*
X6653665Y-10385592D01*
X6653665Y-10385592D02*
X6644142Y-10376068D01*
X6644142Y-10376068D02*
X6653665Y-10366545D01*
X6653665Y-10366545D02*
X6653665Y-10385592D01*
X6758427Y-10385592D02*
X6796522Y-10385592D01*
X6796522Y-10385592D02*
X6815570Y-10376068D01*
X6815570Y-10376068D02*
X6825094Y-10366545D01*
X6825094Y-10366545D02*
X6844142Y-10337973D01*
X6844142Y-10337973D02*
X6853665Y-10299878D01*
X6853665Y-10299878D02*
X6853665Y-10223688D01*
X6853665Y-10223688D02*
X6844142Y-10204640D01*
X6844142Y-10204640D02*
X6834618Y-10195116D01*
X6834618Y-10195116D02*
X6815570Y-10185592D01*
X6815570Y-10185592D02*
X6777475Y-10185592D01*
X6777475Y-10185592D02*
X6758427Y-10195116D01*
X6758427Y-10195116D02*
X6748903Y-10204640D01*
X6748903Y-10204640D02*
X6739380Y-10223688D01*
X6739380Y-10223688D02*
X6739380Y-10271307D01*
X6739380Y-10271307D02*
X6748903Y-10290354D01*
X6748903Y-10290354D02*
X6758427Y-10299878D01*
X6758427Y-10299878D02*
X6777475Y-10309402D01*
X6777475Y-10309402D02*
X6815570Y-10309402D01*
X6815570Y-10309402D02*
X6834618Y-10299878D01*
X6834618Y-10299878D02*
X6844142Y-10290354D01*
X6844142Y-10290354D02*
X6853665Y-10271307D01*
X6977475Y-10185592D02*
X6996523Y-10185592D01*
X6996523Y-10185592D02*
X7015570Y-10195116D01*
X7015570Y-10195116D02*
X7025094Y-10204640D01*
X7025094Y-10204640D02*
X7034618Y-10223688D01*
X7034618Y-10223688D02*
X7044142Y-10261783D01*
X7044142Y-10261783D02*
X7044142Y-10309402D01*
X7044142Y-10309402D02*
X7034618Y-10347497D01*
X7034618Y-10347497D02*
X7025094Y-10366545D01*
X7025094Y-10366545D02*
X7015570Y-10376068D01*
X7015570Y-10376068D02*
X6996523Y-10385592D01*
X6996523Y-10385592D02*
X6977475Y-10385592D01*
X6977475Y-10385592D02*
X6958427Y-10376068D01*
X6958427Y-10376068D02*
X6948903Y-10366545D01*
X6948903Y-10366545D02*
X6939380Y-10347497D01*
X6939380Y-10347497D02*
X6929856Y-10309402D01*
X6929856Y-10309402D02*
X6929856Y-10261783D01*
X6929856Y-10261783D02*
X6939380Y-10223688D01*
X6939380Y-10223688D02*
X6948903Y-10204640D01*
X6948903Y-10204640D02*
X6958427Y-10195116D01*
X6958427Y-10195116D02*
X6977475Y-10185592D01*
X7167951Y-10185592D02*
X7186999Y-10185592D01*
X7186999Y-10185592D02*
X7206046Y-10195116D01*
X7206046Y-10195116D02*
X7215570Y-10204640D01*
X7215570Y-10204640D02*
X7225094Y-10223688D01*
X7225094Y-10223688D02*
X7234618Y-10261783D01*
X7234618Y-10261783D02*
X7234618Y-10309402D01*
X7234618Y-10309402D02*
X7225094Y-10347497D01*
X7225094Y-10347497D02*
X7215570Y-10366545D01*
X7215570Y-10366545D02*
X7206046Y-10376068D01*
X7206046Y-10376068D02*
X7186999Y-10385592D01*
X7186999Y-10385592D02*
X7167951Y-10385592D01*
X7167951Y-10385592D02*
X7148903Y-10376068D01*
X7148903Y-10376068D02*
X7139380Y-10366545D01*
X7139380Y-10366545D02*
X7129856Y-10347497D01*
X7129856Y-10347497D02*
X7120332Y-10309402D01*
X7120332Y-10309402D02*
X7120332Y-10261783D01*
X7120332Y-10261783D02*
X7129856Y-10223688D01*
X7129856Y-10223688D02*
X7139380Y-10204640D01*
X7139380Y-10204640D02*
X7148903Y-10195116D01*
X7148903Y-10195116D02*
X7167951Y-10185592D01*
X7320332Y-10385592D02*
X7320332Y-10252259D01*
X7320332Y-10271307D02*
X7329856Y-10261783D01*
X7329856Y-10261783D02*
X7348903Y-10252259D01*
X7348903Y-10252259D02*
X7377475Y-10252259D01*
X7377475Y-10252259D02*
X7396523Y-10261783D01*
X7396523Y-10261783D02*
X7406046Y-10280830D01*
X7406046Y-10280830D02*
X7406046Y-10385592D01*
X7406046Y-10280830D02*
X7415570Y-10261783D01*
X7415570Y-10261783D02*
X7434618Y-10252259D01*
X7434618Y-10252259D02*
X7463189Y-10252259D01*
X7463189Y-10252259D02*
X7482237Y-10261783D01*
X7482237Y-10261783D02*
X7491761Y-10280830D01*
X7491761Y-10280830D02*
X7491761Y-10385592D01*
X7586999Y-10385592D02*
X7586999Y-10252259D01*
X7586999Y-10271307D02*
X7596523Y-10261783D01*
X7596523Y-10261783D02*
X7615570Y-10252259D01*
X7615570Y-10252259D02*
X7644142Y-10252259D01*
X7644142Y-10252259D02*
X7663189Y-10261783D01*
X7663189Y-10261783D02*
X7672713Y-10280830D01*
X7672713Y-10280830D02*
X7672713Y-10385592D01*
X7672713Y-10280830D02*
X7682237Y-10261783D01*
X7682237Y-10261783D02*
X7701284Y-10252259D01*
X7701284Y-10252259D02*
X7729856Y-10252259D01*
X7729856Y-10252259D02*
X7748904Y-10261783D01*
X7748904Y-10261783D02*
X7758427Y-10280830D01*
X7758427Y-10280830D02*
X7758427Y-10385592D01*
X8116523Y-10176068D02*
X7945094Y-10433211D01*
X8341284Y-10185592D02*
X8360332Y-10185592D01*
X8360332Y-10185592D02*
X8379380Y-10195116D01*
X8379380Y-10195116D02*
X8388904Y-10204640D01*
X8388904Y-10204640D02*
X8398427Y-10223688D01*
X8398427Y-10223688D02*
X8407951Y-10261783D01*
X8407951Y-10261783D02*
X8407951Y-10309402D01*
X8407951Y-10309402D02*
X8398427Y-10347497D01*
X8398427Y-10347497D02*
X8388904Y-10366545D01*
X8388904Y-10366545D02*
X8379380Y-10376068D01*
X8379380Y-10376068D02*
X8360332Y-10385592D01*
X8360332Y-10385592D02*
X8341284Y-10385592D01*
X8341284Y-10385592D02*
X8322237Y-10376068D01*
X8322237Y-10376068D02*
X8312713Y-10366545D01*
X8312713Y-10366545D02*
X8303189Y-10347497D01*
X8303189Y-10347497D02*
X8293665Y-10309402D01*
X8293665Y-10309402D02*
X8293665Y-10261783D01*
X8293665Y-10261783D02*
X8303189Y-10223688D01*
X8303189Y-10223688D02*
X8312713Y-10204640D01*
X8312713Y-10204640D02*
X8322237Y-10195116D01*
X8322237Y-10195116D02*
X8341284Y-10185592D01*
X8493666Y-10366545D02*
X8503189Y-10376068D01*
X8503189Y-10376068D02*
X8493666Y-10385592D01*
X8493666Y-10385592D02*
X8484142Y-10376068D01*
X8484142Y-10376068D02*
X8493666Y-10366545D01*
X8493666Y-10366545D02*
X8493666Y-10385592D01*
X8626999Y-10185592D02*
X8646047Y-10185592D01*
X8646047Y-10185592D02*
X8665094Y-10195116D01*
X8665094Y-10195116D02*
X8674618Y-10204640D01*
X8674618Y-10204640D02*
X8684142Y-10223688D01*
X8684142Y-10223688D02*
X8693666Y-10261783D01*
X8693666Y-10261783D02*
X8693666Y-10309402D01*
X8693666Y-10309402D02*
X8684142Y-10347497D01*
X8684142Y-10347497D02*
X8674618Y-10366545D01*
X8674618Y-10366545D02*
X8665094Y-10376068D01*
X8665094Y-10376068D02*
X8646047Y-10385592D01*
X8646047Y-10385592D02*
X8626999Y-10385592D01*
X8626999Y-10385592D02*
X8607951Y-10376068D01*
X8607951Y-10376068D02*
X8598427Y-10366545D01*
X8598427Y-10366545D02*
X8588904Y-10347497D01*
X8588904Y-10347497D02*
X8579380Y-10309402D01*
X8579380Y-10309402D02*
X8579380Y-10261783D01*
X8579380Y-10261783D02*
X8588904Y-10223688D01*
X8588904Y-10223688D02*
X8598427Y-10204640D01*
X8598427Y-10204640D02*
X8607951Y-10195116D01*
X8607951Y-10195116D02*
X8626999Y-10185592D01*
X8760332Y-10185592D02*
X8884142Y-10185592D01*
X8884142Y-10185592D02*
X8817475Y-10261783D01*
X8817475Y-10261783D02*
X8846047Y-10261783D01*
X8846047Y-10261783D02*
X8865094Y-10271307D01*
X8865094Y-10271307D02*
X8874618Y-10280830D01*
X8874618Y-10280830D02*
X8884142Y-10299878D01*
X8884142Y-10299878D02*
X8884142Y-10347497D01*
X8884142Y-10347497D02*
X8874618Y-10366545D01*
X8874618Y-10366545D02*
X8865094Y-10376068D01*
X8865094Y-10376068D02*
X8846047Y-10385592D01*
X8846047Y-10385592D02*
X8788904Y-10385592D01*
X8788904Y-10385592D02*
X8769856Y-10376068D01*
X8769856Y-10376068D02*
X8760332Y-10366545D01*
X9065094Y-10185592D02*
X8969856Y-10185592D01*
X8969856Y-10185592D02*
X8960332Y-10280830D01*
X8960332Y-10280830D02*
X8969856Y-10271307D01*
X8969856Y-10271307D02*
X8988904Y-10261783D01*
X8988904Y-10261783D02*
X9036523Y-10261783D01*
X9036523Y-10261783D02*
X9055570Y-10271307D01*
X9055570Y-10271307D02*
X9065094Y-10280830D01*
X9065094Y-10280830D02*
X9074618Y-10299878D01*
X9074618Y-10299878D02*
X9074618Y-10347497D01*
X9074618Y-10347497D02*
X9065094Y-10366545D01*
X9065094Y-10366545D02*
X9055570Y-10376068D01*
X9055570Y-10376068D02*
X9036523Y-10385592D01*
X9036523Y-10385592D02*
X8988904Y-10385592D01*
X8988904Y-10385592D02*
X8969856Y-10376068D01*
X8969856Y-10376068D02*
X8960332Y-10366545D01*
X9246047Y-10252259D02*
X9246047Y-10385592D01*
X9198427Y-10176068D02*
X9150808Y-10318926D01*
X9150808Y-10318926D02*
X9274618Y-10318926D01*
X9341285Y-10185592D02*
X9341285Y-10223688D01*
X9417475Y-10185592D02*
X9417475Y-10223688D01*
X9680332Y-10461783D02*
X9670808Y-10452259D01*
X9670808Y-10452259D02*
X9651761Y-10423688D01*
X9651761Y-10423688D02*
X9642237Y-10404640D01*
X9642237Y-10404640D02*
X9632713Y-10376068D01*
X9632713Y-10376068D02*
X9623189Y-10328449D01*
X9623189Y-10328449D02*
X9623189Y-10290354D01*
X9623189Y-10290354D02*
X9632713Y-10242735D01*
X9632713Y-10242735D02*
X9642237Y-10214164D01*
X9642237Y-10214164D02*
X9651761Y-10195116D01*
X9651761Y-10195116D02*
X9670808Y-10166545D01*
X9670808Y-10166545D02*
X9680332Y-10157021D01*
X9746999Y-10204640D02*
X9756523Y-10195116D01*
X9756523Y-10195116D02*
X9775570Y-10185592D01*
X9775570Y-10185592D02*
X9823189Y-10185592D01*
X9823189Y-10185592D02*
X9842237Y-10195116D01*
X9842237Y-10195116D02*
X9851761Y-10204640D01*
X9851761Y-10204640D02*
X9861285Y-10223688D01*
X9861285Y-10223688D02*
X9861285Y-10242735D01*
X9861285Y-10242735D02*
X9851761Y-10271307D01*
X9851761Y-10271307D02*
X9737475Y-10385592D01*
X9737475Y-10385592D02*
X9861285Y-10385592D01*
X10066999Y-10385592D02*
X10066999Y-10185592D01*
X10152713Y-10385592D02*
X10152713Y-10280830D01*
X10152713Y-10280830D02*
X10143189Y-10261783D01*
X10143189Y-10261783D02*
X10124142Y-10252259D01*
X10124142Y-10252259D02*
X10095570Y-10252259D01*
X10095570Y-10252259D02*
X10076523Y-10261783D01*
X10076523Y-10261783D02*
X10066999Y-10271307D01*
X10276523Y-10385592D02*
X10257475Y-10376068D01*
X10257475Y-10376068D02*
X10247951Y-10366545D01*
X10247951Y-10366545D02*
X10238428Y-10347497D01*
X10238428Y-10347497D02*
X10238428Y-10290354D01*
X10238428Y-10290354D02*
X10247951Y-10271307D01*
X10247951Y-10271307D02*
X10257475Y-10261783D01*
X10257475Y-10261783D02*
X10276523Y-10252259D01*
X10276523Y-10252259D02*
X10305094Y-10252259D01*
X10305094Y-10252259D02*
X10324142Y-10261783D01*
X10324142Y-10261783D02*
X10333666Y-10271307D01*
X10333666Y-10271307D02*
X10343189Y-10290354D01*
X10343189Y-10290354D02*
X10343189Y-10347497D01*
X10343189Y-10347497D02*
X10333666Y-10366545D01*
X10333666Y-10366545D02*
X10324142Y-10376068D01*
X10324142Y-10376068D02*
X10305094Y-10385592D01*
X10305094Y-10385592D02*
X10276523Y-10385592D01*
X10457475Y-10385592D02*
X10438428Y-10376068D01*
X10438428Y-10376068D02*
X10428904Y-10357021D01*
X10428904Y-10357021D02*
X10428904Y-10185592D01*
X10609856Y-10376068D02*
X10590809Y-10385592D01*
X10590809Y-10385592D02*
X10552713Y-10385592D01*
X10552713Y-10385592D02*
X10533666Y-10376068D01*
X10533666Y-10376068D02*
X10524142Y-10357021D01*
X10524142Y-10357021D02*
X10524142Y-10280830D01*
X10524142Y-10280830D02*
X10533666Y-10261783D01*
X10533666Y-10261783D02*
X10552713Y-10252259D01*
X10552713Y-10252259D02*
X10590809Y-10252259D01*
X10590809Y-10252259D02*
X10609856Y-10261783D01*
X10609856Y-10261783D02*
X10619380Y-10280830D01*
X10619380Y-10280830D02*
X10619380Y-10299878D01*
X10619380Y-10299878D02*
X10524142Y-10318926D01*
X10695570Y-10376068D02*
X10714618Y-10385592D01*
X10714618Y-10385592D02*
X10752713Y-10385592D01*
X10752713Y-10385592D02*
X10771761Y-10376068D01*
X10771761Y-10376068D02*
X10781285Y-10357021D01*
X10781285Y-10357021D02*
X10781285Y-10347497D01*
X10781285Y-10347497D02*
X10771761Y-10328449D01*
X10771761Y-10328449D02*
X10752713Y-10318926D01*
X10752713Y-10318926D02*
X10724142Y-10318926D01*
X10724142Y-10318926D02*
X10705094Y-10309402D01*
X10705094Y-10309402D02*
X10695570Y-10290354D01*
X10695570Y-10290354D02*
X10695570Y-10280830D01*
X10695570Y-10280830D02*
X10705094Y-10261783D01*
X10705094Y-10261783D02*
X10724142Y-10252259D01*
X10724142Y-10252259D02*
X10752713Y-10252259D01*
X10752713Y-10252259D02*
X10771761Y-10261783D01*
X10847951Y-10461783D02*
X10857475Y-10452259D01*
X10857475Y-10452259D02*
X10876523Y-10423688D01*
X10876523Y-10423688D02*
X10886047Y-10404640D01*
X10886047Y-10404640D02*
X10895570Y-10376068D01*
X10895570Y-10376068D02*
X10905094Y-10328449D01*
X10905094Y-10328449D02*
X10905094Y-10290354D01*
X10905094Y-10290354D02*
X10895570Y-10242735D01*
X10895570Y-10242735D02*
X10886047Y-10214164D01*
X10886047Y-10214164D02*
X10876523Y-10195116D01*
X10876523Y-10195116D02*
X10857475Y-10166545D01*
X10857475Y-10166545D02*
X10847951Y-10157021D01*
D13*
X6215570Y-10576116D02*
G75*
G03*
X6215570Y-10576116I-50000J0D01*
G01*
D11*
X6567951Y-10649592D02*
X6453665Y-10649592D01*
X6510808Y-10649592D02*
X6510808Y-10449592D01*
X6510808Y-10449592D02*
X6491761Y-10478164D01*
X6491761Y-10478164D02*
X6472713Y-10497211D01*
X6472713Y-10497211D02*
X6453665Y-10506735D01*
X6653665Y-10630545D02*
X6663189Y-10640068D01*
X6663189Y-10640068D02*
X6653665Y-10649592D01*
X6653665Y-10649592D02*
X6644142Y-10640068D01*
X6644142Y-10640068D02*
X6653665Y-10630545D01*
X6653665Y-10630545D02*
X6653665Y-10649592D01*
X6786999Y-10449592D02*
X6806046Y-10449592D01*
X6806046Y-10449592D02*
X6825094Y-10459116D01*
X6825094Y-10459116D02*
X6834618Y-10468640D01*
X6834618Y-10468640D02*
X6844142Y-10487688D01*
X6844142Y-10487688D02*
X6853665Y-10525783D01*
X6853665Y-10525783D02*
X6853665Y-10573402D01*
X6853665Y-10573402D02*
X6844142Y-10611497D01*
X6844142Y-10611497D02*
X6834618Y-10630545D01*
X6834618Y-10630545D02*
X6825094Y-10640068D01*
X6825094Y-10640068D02*
X6806046Y-10649592D01*
X6806046Y-10649592D02*
X6786999Y-10649592D01*
X6786999Y-10649592D02*
X6767951Y-10640068D01*
X6767951Y-10640068D02*
X6758427Y-10630545D01*
X6758427Y-10630545D02*
X6748903Y-10611497D01*
X6748903Y-10611497D02*
X6739380Y-10573402D01*
X6739380Y-10573402D02*
X6739380Y-10525783D01*
X6739380Y-10525783D02*
X6748903Y-10487688D01*
X6748903Y-10487688D02*
X6758427Y-10468640D01*
X6758427Y-10468640D02*
X6767951Y-10459116D01*
X6767951Y-10459116D02*
X6786999Y-10449592D01*
X6977475Y-10449592D02*
X6996523Y-10449592D01*
X6996523Y-10449592D02*
X7015570Y-10459116D01*
X7015570Y-10459116D02*
X7025094Y-10468640D01*
X7025094Y-10468640D02*
X7034618Y-10487688D01*
X7034618Y-10487688D02*
X7044142Y-10525783D01*
X7044142Y-10525783D02*
X7044142Y-10573402D01*
X7044142Y-10573402D02*
X7034618Y-10611497D01*
X7034618Y-10611497D02*
X7025094Y-10630545D01*
X7025094Y-10630545D02*
X7015570Y-10640068D01*
X7015570Y-10640068D02*
X6996523Y-10649592D01*
X6996523Y-10649592D02*
X6977475Y-10649592D01*
X6977475Y-10649592D02*
X6958427Y-10640068D01*
X6958427Y-10640068D02*
X6948903Y-10630545D01*
X6948903Y-10630545D02*
X6939380Y-10611497D01*
X6939380Y-10611497D02*
X6929856Y-10573402D01*
X6929856Y-10573402D02*
X6929856Y-10525783D01*
X6929856Y-10525783D02*
X6939380Y-10487688D01*
X6939380Y-10487688D02*
X6948903Y-10468640D01*
X6948903Y-10468640D02*
X6958427Y-10459116D01*
X6958427Y-10459116D02*
X6977475Y-10449592D01*
X7167951Y-10449592D02*
X7186999Y-10449592D01*
X7186999Y-10449592D02*
X7206046Y-10459116D01*
X7206046Y-10459116D02*
X7215570Y-10468640D01*
X7215570Y-10468640D02*
X7225094Y-10487688D01*
X7225094Y-10487688D02*
X7234618Y-10525783D01*
X7234618Y-10525783D02*
X7234618Y-10573402D01*
X7234618Y-10573402D02*
X7225094Y-10611497D01*
X7225094Y-10611497D02*
X7215570Y-10630545D01*
X7215570Y-10630545D02*
X7206046Y-10640068D01*
X7206046Y-10640068D02*
X7186999Y-10649592D01*
X7186999Y-10649592D02*
X7167951Y-10649592D01*
X7167951Y-10649592D02*
X7148903Y-10640068D01*
X7148903Y-10640068D02*
X7139380Y-10630545D01*
X7139380Y-10630545D02*
X7129856Y-10611497D01*
X7129856Y-10611497D02*
X7120332Y-10573402D01*
X7120332Y-10573402D02*
X7120332Y-10525783D01*
X7120332Y-10525783D02*
X7129856Y-10487688D01*
X7129856Y-10487688D02*
X7139380Y-10468640D01*
X7139380Y-10468640D02*
X7148903Y-10459116D01*
X7148903Y-10459116D02*
X7167951Y-10449592D01*
X7320332Y-10649592D02*
X7320332Y-10516259D01*
X7320332Y-10535307D02*
X7329856Y-10525783D01*
X7329856Y-10525783D02*
X7348903Y-10516259D01*
X7348903Y-10516259D02*
X7377475Y-10516259D01*
X7377475Y-10516259D02*
X7396523Y-10525783D01*
X7396523Y-10525783D02*
X7406046Y-10544830D01*
X7406046Y-10544830D02*
X7406046Y-10649592D01*
X7406046Y-10544830D02*
X7415570Y-10525783D01*
X7415570Y-10525783D02*
X7434618Y-10516259D01*
X7434618Y-10516259D02*
X7463189Y-10516259D01*
X7463189Y-10516259D02*
X7482237Y-10525783D01*
X7482237Y-10525783D02*
X7491761Y-10544830D01*
X7491761Y-10544830D02*
X7491761Y-10649592D01*
X7586999Y-10649592D02*
X7586999Y-10516259D01*
X7586999Y-10535307D02*
X7596523Y-10525783D01*
X7596523Y-10525783D02*
X7615570Y-10516259D01*
X7615570Y-10516259D02*
X7644142Y-10516259D01*
X7644142Y-10516259D02*
X7663189Y-10525783D01*
X7663189Y-10525783D02*
X7672713Y-10544830D01*
X7672713Y-10544830D02*
X7672713Y-10649592D01*
X7672713Y-10544830D02*
X7682237Y-10525783D01*
X7682237Y-10525783D02*
X7701284Y-10516259D01*
X7701284Y-10516259D02*
X7729856Y-10516259D01*
X7729856Y-10516259D02*
X7748904Y-10525783D01*
X7748904Y-10525783D02*
X7758427Y-10544830D01*
X7758427Y-10544830D02*
X7758427Y-10649592D01*
X8116523Y-10440068D02*
X7945094Y-10697211D01*
X8341284Y-10449592D02*
X8360332Y-10449592D01*
X8360332Y-10449592D02*
X8379380Y-10459116D01*
X8379380Y-10459116D02*
X8388904Y-10468640D01*
X8388904Y-10468640D02*
X8398427Y-10487688D01*
X8398427Y-10487688D02*
X8407951Y-10525783D01*
X8407951Y-10525783D02*
X8407951Y-10573402D01*
X8407951Y-10573402D02*
X8398427Y-10611497D01*
X8398427Y-10611497D02*
X8388904Y-10630545D01*
X8388904Y-10630545D02*
X8379380Y-10640068D01*
X8379380Y-10640068D02*
X8360332Y-10649592D01*
X8360332Y-10649592D02*
X8341284Y-10649592D01*
X8341284Y-10649592D02*
X8322237Y-10640068D01*
X8322237Y-10640068D02*
X8312713Y-10630545D01*
X8312713Y-10630545D02*
X8303189Y-10611497D01*
X8303189Y-10611497D02*
X8293665Y-10573402D01*
X8293665Y-10573402D02*
X8293665Y-10525783D01*
X8293665Y-10525783D02*
X8303189Y-10487688D01*
X8303189Y-10487688D02*
X8312713Y-10468640D01*
X8312713Y-10468640D02*
X8322237Y-10459116D01*
X8322237Y-10459116D02*
X8341284Y-10449592D01*
X8493666Y-10630545D02*
X8503189Y-10640068D01*
X8503189Y-10640068D02*
X8493666Y-10649592D01*
X8493666Y-10649592D02*
X8484142Y-10640068D01*
X8484142Y-10640068D02*
X8493666Y-10630545D01*
X8493666Y-10630545D02*
X8493666Y-10649592D01*
X8626999Y-10449592D02*
X8646047Y-10449592D01*
X8646047Y-10449592D02*
X8665094Y-10459116D01*
X8665094Y-10459116D02*
X8674618Y-10468640D01*
X8674618Y-10468640D02*
X8684142Y-10487688D01*
X8684142Y-10487688D02*
X8693666Y-10525783D01*
X8693666Y-10525783D02*
X8693666Y-10573402D01*
X8693666Y-10573402D02*
X8684142Y-10611497D01*
X8684142Y-10611497D02*
X8674618Y-10630545D01*
X8674618Y-10630545D02*
X8665094Y-10640068D01*
X8665094Y-10640068D02*
X8646047Y-10649592D01*
X8646047Y-10649592D02*
X8626999Y-10649592D01*
X8626999Y-10649592D02*
X8607951Y-10640068D01*
X8607951Y-10640068D02*
X8598427Y-10630545D01*
X8598427Y-10630545D02*
X8588904Y-10611497D01*
X8588904Y-10611497D02*
X8579380Y-10573402D01*
X8579380Y-10573402D02*
X8579380Y-10525783D01*
X8579380Y-10525783D02*
X8588904Y-10487688D01*
X8588904Y-10487688D02*
X8598427Y-10468640D01*
X8598427Y-10468640D02*
X8607951Y-10459116D01*
X8607951Y-10459116D02*
X8626999Y-10449592D01*
X8760332Y-10449592D02*
X8884142Y-10449592D01*
X8884142Y-10449592D02*
X8817475Y-10525783D01*
X8817475Y-10525783D02*
X8846047Y-10525783D01*
X8846047Y-10525783D02*
X8865094Y-10535307D01*
X8865094Y-10535307D02*
X8874618Y-10544830D01*
X8874618Y-10544830D02*
X8884142Y-10563878D01*
X8884142Y-10563878D02*
X8884142Y-10611497D01*
X8884142Y-10611497D02*
X8874618Y-10630545D01*
X8874618Y-10630545D02*
X8865094Y-10640068D01*
X8865094Y-10640068D02*
X8846047Y-10649592D01*
X8846047Y-10649592D02*
X8788904Y-10649592D01*
X8788904Y-10649592D02*
X8769856Y-10640068D01*
X8769856Y-10640068D02*
X8760332Y-10630545D01*
X8979380Y-10649592D02*
X9017475Y-10649592D01*
X9017475Y-10649592D02*
X9036523Y-10640068D01*
X9036523Y-10640068D02*
X9046047Y-10630545D01*
X9046047Y-10630545D02*
X9065094Y-10601973D01*
X9065094Y-10601973D02*
X9074618Y-10563878D01*
X9074618Y-10563878D02*
X9074618Y-10487688D01*
X9074618Y-10487688D02*
X9065094Y-10468640D01*
X9065094Y-10468640D02*
X9055570Y-10459116D01*
X9055570Y-10459116D02*
X9036523Y-10449592D01*
X9036523Y-10449592D02*
X8998427Y-10449592D01*
X8998427Y-10449592D02*
X8979380Y-10459116D01*
X8979380Y-10459116D02*
X8969856Y-10468640D01*
X8969856Y-10468640D02*
X8960332Y-10487688D01*
X8960332Y-10487688D02*
X8960332Y-10535307D01*
X8960332Y-10535307D02*
X8969856Y-10554354D01*
X8969856Y-10554354D02*
X8979380Y-10563878D01*
X8979380Y-10563878D02*
X8998427Y-10573402D01*
X8998427Y-10573402D02*
X9036523Y-10573402D01*
X9036523Y-10573402D02*
X9055570Y-10563878D01*
X9055570Y-10563878D02*
X9065094Y-10554354D01*
X9065094Y-10554354D02*
X9074618Y-10535307D01*
X9246047Y-10516259D02*
X9246047Y-10649592D01*
X9198427Y-10440068D02*
X9150808Y-10582926D01*
X9150808Y-10582926D02*
X9274618Y-10582926D01*
X9341285Y-10449592D02*
X9341285Y-10487688D01*
X9417475Y-10449592D02*
X9417475Y-10487688D01*
X9680332Y-10725783D02*
X9670808Y-10716259D01*
X9670808Y-10716259D02*
X9651761Y-10687688D01*
X9651761Y-10687688D02*
X9642237Y-10668640D01*
X9642237Y-10668640D02*
X9632713Y-10640068D01*
X9632713Y-10640068D02*
X9623189Y-10592449D01*
X9623189Y-10592449D02*
X9623189Y-10554354D01*
X9623189Y-10554354D02*
X9632713Y-10506735D01*
X9632713Y-10506735D02*
X9642237Y-10478164D01*
X9642237Y-10478164D02*
X9651761Y-10459116D01*
X9651761Y-10459116D02*
X9670808Y-10430545D01*
X9670808Y-10430545D02*
X9680332Y-10421021D01*
X9842237Y-10449592D02*
X9804142Y-10449592D01*
X9804142Y-10449592D02*
X9785094Y-10459116D01*
X9785094Y-10459116D02*
X9775570Y-10468640D01*
X9775570Y-10468640D02*
X9756523Y-10497211D01*
X9756523Y-10497211D02*
X9746999Y-10535307D01*
X9746999Y-10535307D02*
X9746999Y-10611497D01*
X9746999Y-10611497D02*
X9756523Y-10630545D01*
X9756523Y-10630545D02*
X9766047Y-10640068D01*
X9766047Y-10640068D02*
X9785094Y-10649592D01*
X9785094Y-10649592D02*
X9823189Y-10649592D01*
X9823189Y-10649592D02*
X9842237Y-10640068D01*
X9842237Y-10640068D02*
X9851761Y-10630545D01*
X9851761Y-10630545D02*
X9861285Y-10611497D01*
X9861285Y-10611497D02*
X9861285Y-10563878D01*
X9861285Y-10563878D02*
X9851761Y-10544830D01*
X9851761Y-10544830D02*
X9842237Y-10535307D01*
X9842237Y-10535307D02*
X9823189Y-10525783D01*
X9823189Y-10525783D02*
X9785094Y-10525783D01*
X9785094Y-10525783D02*
X9766047Y-10535307D01*
X9766047Y-10535307D02*
X9756523Y-10544830D01*
X9756523Y-10544830D02*
X9746999Y-10563878D01*
X10066999Y-10649592D02*
X10066999Y-10449592D01*
X10152713Y-10649592D02*
X10152713Y-10544830D01*
X10152713Y-10544830D02*
X10143189Y-10525783D01*
X10143189Y-10525783D02*
X10124142Y-10516259D01*
X10124142Y-10516259D02*
X10095570Y-10516259D01*
X10095570Y-10516259D02*
X10076523Y-10525783D01*
X10076523Y-10525783D02*
X10066999Y-10535307D01*
X10276523Y-10649592D02*
X10257475Y-10640068D01*
X10257475Y-10640068D02*
X10247951Y-10630545D01*
X10247951Y-10630545D02*
X10238428Y-10611497D01*
X10238428Y-10611497D02*
X10238428Y-10554354D01*
X10238428Y-10554354D02*
X10247951Y-10535307D01*
X10247951Y-10535307D02*
X10257475Y-10525783D01*
X10257475Y-10525783D02*
X10276523Y-10516259D01*
X10276523Y-10516259D02*
X10305094Y-10516259D01*
X10305094Y-10516259D02*
X10324142Y-10525783D01*
X10324142Y-10525783D02*
X10333666Y-10535307D01*
X10333666Y-10535307D02*
X10343189Y-10554354D01*
X10343189Y-10554354D02*
X10343189Y-10611497D01*
X10343189Y-10611497D02*
X10333666Y-10630545D01*
X10333666Y-10630545D02*
X10324142Y-10640068D01*
X10324142Y-10640068D02*
X10305094Y-10649592D01*
X10305094Y-10649592D02*
X10276523Y-10649592D01*
X10457475Y-10649592D02*
X10438428Y-10640068D01*
X10438428Y-10640068D02*
X10428904Y-10621021D01*
X10428904Y-10621021D02*
X10428904Y-10449592D01*
X10609856Y-10640068D02*
X10590809Y-10649592D01*
X10590809Y-10649592D02*
X10552713Y-10649592D01*
X10552713Y-10649592D02*
X10533666Y-10640068D01*
X10533666Y-10640068D02*
X10524142Y-10621021D01*
X10524142Y-10621021D02*
X10524142Y-10544830D01*
X10524142Y-10544830D02*
X10533666Y-10525783D01*
X10533666Y-10525783D02*
X10552713Y-10516259D01*
X10552713Y-10516259D02*
X10590809Y-10516259D01*
X10590809Y-10516259D02*
X10609856Y-10525783D01*
X10609856Y-10525783D02*
X10619380Y-10544830D01*
X10619380Y-10544830D02*
X10619380Y-10563878D01*
X10619380Y-10563878D02*
X10524142Y-10582926D01*
X10695570Y-10640068D02*
X10714618Y-10649592D01*
X10714618Y-10649592D02*
X10752713Y-10649592D01*
X10752713Y-10649592D02*
X10771761Y-10640068D01*
X10771761Y-10640068D02*
X10781285Y-10621021D01*
X10781285Y-10621021D02*
X10781285Y-10611497D01*
X10781285Y-10611497D02*
X10771761Y-10592449D01*
X10771761Y-10592449D02*
X10752713Y-10582926D01*
X10752713Y-10582926D02*
X10724142Y-10582926D01*
X10724142Y-10582926D02*
X10705094Y-10573402D01*
X10705094Y-10573402D02*
X10695570Y-10554354D01*
X10695570Y-10554354D02*
X10695570Y-10544830D01*
X10695570Y-10544830D02*
X10705094Y-10525783D01*
X10705094Y-10525783D02*
X10724142Y-10516259D01*
X10724142Y-10516259D02*
X10752713Y-10516259D01*
X10752713Y-10516259D02*
X10771761Y-10525783D01*
X10847951Y-10725783D02*
X10857475Y-10716259D01*
X10857475Y-10716259D02*
X10876523Y-10687688D01*
X10876523Y-10687688D02*
X10886047Y-10668640D01*
X10886047Y-10668640D02*
X10895570Y-10640068D01*
X10895570Y-10640068D02*
X10905094Y-10592449D01*
X10905094Y-10592449D02*
X10905094Y-10554354D01*
X10905094Y-10554354D02*
X10895570Y-10506735D01*
X10895570Y-10506735D02*
X10886047Y-10478164D01*
X10886047Y-10478164D02*
X10876523Y-10459116D01*
X10876523Y-10459116D02*
X10857475Y-10430545D01*
X10857475Y-10430545D02*
X10847951Y-10421021D01*
M02*
