G04 #@! TF.GenerationSoftware,KiCad,Pcbnew,(6.99.0-2452-gdb4f2d9dd8)*
G04 #@! TF.CreationDate,2022-08-02T19:29:52-05:00*
G04 #@! TF.ProjectId,captech,63617074-6563-4682-9e6b-696361645f70,rev?*
G04 #@! TF.SameCoordinates,Original*
G04 #@! TF.FileFunction,Copper,L1,Top*
G04 #@! TF.FilePolarity,Positive*
%FSLAX46Y46*%
G04 Gerber Fmt 4.6, Leading zero omitted, Abs format (unit mm)*
G04 Created by KiCad (PCBNEW (6.99.0-2452-gdb4f2d9dd8)) date 2022-08-02 19:29:52*
%MOMM*%
%LPD*%
G01*
G04 APERTURE LIST*
G04 #@! TA.AperFunction,ComponentPad*
%ADD10R,1.800000X1.800000*%
G04 #@! TD*
G04 #@! TA.AperFunction,ComponentPad*
%ADD11C,1.800000*%
G04 #@! TD*
G04 #@! TA.AperFunction,ComponentPad*
%ADD12R,1.700000X1.700000*%
G04 #@! TD*
G04 #@! TA.AperFunction,ComponentPad*
%ADD13O,1.700000X1.700000*%
G04 #@! TD*
G04 APERTURE END LIST*
D10*
X74399999Y-93269999D03*
D11*
X74400000Y-90730000D03*
D12*
X64459999Y-91629999D03*
D13*
X64459999Y-94169999D03*
X66999999Y-91629999D03*
X66999999Y-94169999D03*
X69539999Y-91629999D03*
X69539999Y-94169999D03*
G04 #@! TA.AperFunction,NonConductor*
G36*
X65983439Y-92541388D02*
G01*
X66015755Y-92566638D01*
X66036526Y-92589201D01*
X66076760Y-92632906D01*
X66254424Y-92771189D01*
X66259005Y-92773668D01*
X66287680Y-92789186D01*
X66338071Y-92839199D01*
X66353423Y-92908516D01*
X66328863Y-92975129D01*
X66287681Y-93010813D01*
X66254424Y-93028811D01*
X66250313Y-93032010D01*
X66250311Y-93032012D01*
X66095861Y-93152227D01*
X66076760Y-93167094D01*
X66073228Y-93170931D01*
X65927806Y-93328899D01*
X65927803Y-93328903D01*
X65924278Y-93332732D01*
X65921427Y-93337096D01*
X65835483Y-93468643D01*
X65781479Y-93514732D01*
X65711132Y-93524307D01*
X65646774Y-93494330D01*
X65624517Y-93468643D01*
X65538573Y-93337096D01*
X65535722Y-93332732D01*
X65532197Y-93328903D01*
X65532194Y-93328899D01*
X65392525Y-93177180D01*
X65361104Y-93113515D01*
X65369091Y-93042969D01*
X65413949Y-92987940D01*
X65441191Y-92973787D01*
X65556204Y-92930889D01*
X65568536Y-92921658D01*
X65666050Y-92848659D01*
X65673261Y-92843261D01*
X65760889Y-92726204D01*
X65804998Y-92607944D01*
X65847545Y-92551108D01*
X65914065Y-92526297D01*
X65983439Y-92541388D01*
G37*
G04 #@! TD.AperFunction*
G04 #@! TA.AperFunction,NonConductor*
G36*
X68353226Y-92305670D02*
G01*
X68375483Y-92331357D01*
X68464278Y-92467268D01*
X68467803Y-92471097D01*
X68467806Y-92471101D01*
X68532511Y-92541388D01*
X68616760Y-92632906D01*
X68794424Y-92771189D01*
X68799005Y-92773668D01*
X68827680Y-92789186D01*
X68878071Y-92839199D01*
X68893423Y-92908516D01*
X68868863Y-92975129D01*
X68827681Y-93010813D01*
X68794424Y-93028811D01*
X68790313Y-93032010D01*
X68790311Y-93032012D01*
X68635861Y-93152227D01*
X68616760Y-93167094D01*
X68613228Y-93170931D01*
X68467806Y-93328899D01*
X68467803Y-93328903D01*
X68464278Y-93332732D01*
X68461427Y-93337096D01*
X68375483Y-93468643D01*
X68321479Y-93514732D01*
X68251132Y-93524307D01*
X68186774Y-93494330D01*
X68164517Y-93468643D01*
X68078573Y-93337096D01*
X68075722Y-93332732D01*
X68072197Y-93328903D01*
X68072194Y-93328899D01*
X67926772Y-93170931D01*
X67923240Y-93167094D01*
X67904139Y-93152227D01*
X67749689Y-93032012D01*
X67749687Y-93032010D01*
X67745576Y-93028811D01*
X67712320Y-93010814D01*
X67661929Y-92960801D01*
X67646577Y-92891484D01*
X67671137Y-92824871D01*
X67712320Y-92789186D01*
X67740995Y-92773668D01*
X67745576Y-92771189D01*
X67923240Y-92632906D01*
X68007489Y-92541388D01*
X68072194Y-92471101D01*
X68072197Y-92471097D01*
X68075722Y-92467268D01*
X68164517Y-92331357D01*
X68218521Y-92285268D01*
X68288868Y-92275693D01*
X68353226Y-92305670D01*
G37*
G04 #@! TD.AperFunction*
G04 #@! TA.AperFunction,NonConductor*
G36*
X80067990Y-31720508D02*
G01*
X80114483Y-31774164D01*
X80125869Y-31826506D01*
X80125869Y-32123407D01*
X80125828Y-32123506D01*
X80125869Y-32123605D01*
X80125986Y-32123889D01*
X80126369Y-32124047D01*
X80126468Y-32124006D01*
X80148660Y-32124004D01*
X80148661Y-32124004D01*
X81692569Y-32123842D01*
X94096628Y-32123842D01*
X94164749Y-32143844D01*
X94211242Y-32197500D01*
X94222628Y-32249847D01*
X94222198Y-43224885D01*
X94222197Y-43225157D01*
X94222157Y-43225255D01*
X94222197Y-43225353D01*
X94189454Y-51954811D01*
X94178650Y-54835069D01*
X94178608Y-54835170D01*
X94178649Y-54835269D01*
X94178649Y-54857504D01*
X94178869Y-96573494D01*
X94158867Y-96641615D01*
X94105212Y-96688108D01*
X94052869Y-96699495D01*
X62303506Y-96699495D01*
X62235385Y-96679493D01*
X62188892Y-96625837D01*
X62177506Y-96573358D01*
X62178684Y-95491444D01*
X62180122Y-94170000D01*
X63096844Y-94170000D01*
X63097274Y-94175189D01*
X63105244Y-94271367D01*
X63115436Y-94394368D01*
X63116717Y-94399426D01*
X63116717Y-94399427D01*
X63151976Y-94538659D01*
X63170704Y-94612616D01*
X63261140Y-94818791D01*
X63263990Y-94823153D01*
X63263992Y-94823157D01*
X63278701Y-94845670D01*
X63384278Y-95007268D01*
X63387803Y-95011097D01*
X63387806Y-95011101D01*
X63489360Y-95121417D01*
X63536760Y-95172906D01*
X63714424Y-95311189D01*
X63912426Y-95418342D01*
X64125365Y-95491444D01*
X64130499Y-95492301D01*
X64130504Y-95492302D01*
X64342294Y-95527643D01*
X64342296Y-95527643D01*
X64347431Y-95528500D01*
X64572569Y-95528500D01*
X64577704Y-95527643D01*
X64577706Y-95527643D01*
X64789496Y-95492302D01*
X64789501Y-95492301D01*
X64794635Y-95491444D01*
X65007574Y-95418342D01*
X65205576Y-95311189D01*
X65383240Y-95172906D01*
X65430640Y-95121417D01*
X65532194Y-95011101D01*
X65532197Y-95011097D01*
X65535722Y-95007268D01*
X65624517Y-94871357D01*
X65678521Y-94825268D01*
X65748868Y-94815693D01*
X65813226Y-94845670D01*
X65835483Y-94871357D01*
X65924278Y-95007268D01*
X65927803Y-95011097D01*
X65927806Y-95011101D01*
X66029360Y-95121417D01*
X66076760Y-95172906D01*
X66254424Y-95311189D01*
X66452426Y-95418342D01*
X66665365Y-95491444D01*
X66670499Y-95492301D01*
X66670504Y-95492302D01*
X66882294Y-95527643D01*
X66882296Y-95527643D01*
X66887431Y-95528500D01*
X67112569Y-95528500D01*
X67117704Y-95527643D01*
X67117706Y-95527643D01*
X67329496Y-95492302D01*
X67329501Y-95492301D01*
X67334635Y-95491444D01*
X67547574Y-95418342D01*
X67745576Y-95311189D01*
X67923240Y-95172906D01*
X67970640Y-95121417D01*
X68072194Y-95011101D01*
X68072197Y-95011097D01*
X68075722Y-95007268D01*
X68164517Y-94871357D01*
X68218521Y-94825268D01*
X68288868Y-94815693D01*
X68353226Y-94845670D01*
X68375483Y-94871357D01*
X68464278Y-95007268D01*
X68467803Y-95011097D01*
X68467806Y-95011101D01*
X68569360Y-95121417D01*
X68616760Y-95172906D01*
X68794424Y-95311189D01*
X68992426Y-95418342D01*
X69205365Y-95491444D01*
X69210499Y-95492301D01*
X69210504Y-95492302D01*
X69422294Y-95527643D01*
X69422296Y-95527643D01*
X69427431Y-95528500D01*
X69652569Y-95528500D01*
X69657704Y-95527643D01*
X69657706Y-95527643D01*
X69869496Y-95492302D01*
X69869501Y-95492301D01*
X69874635Y-95491444D01*
X70087574Y-95418342D01*
X70285576Y-95311189D01*
X70463240Y-95172906D01*
X70510640Y-95121417D01*
X70612194Y-95011101D01*
X70612197Y-95011097D01*
X70615722Y-95007268D01*
X70721299Y-94845670D01*
X70736008Y-94823157D01*
X70736010Y-94823153D01*
X70738860Y-94818791D01*
X70829296Y-94612616D01*
X70848025Y-94538659D01*
X70883283Y-94399427D01*
X70883283Y-94399426D01*
X70884564Y-94394368D01*
X70894757Y-94271367D01*
X70902726Y-94175189D01*
X70903156Y-94170000D01*
X70884564Y-93945632D01*
X70829296Y-93727384D01*
X70738860Y-93521209D01*
X70734629Y-93514732D01*
X70618573Y-93337096D01*
X70615722Y-93332732D01*
X70612197Y-93328903D01*
X70612194Y-93328899D01*
X70466772Y-93170931D01*
X70463240Y-93167094D01*
X70444139Y-93152227D01*
X70289689Y-93032012D01*
X70289687Y-93032010D01*
X70285576Y-93028811D01*
X70252320Y-93010814D01*
X70201929Y-92960801D01*
X70186577Y-92891484D01*
X70211137Y-92824871D01*
X70252320Y-92789186D01*
X70280995Y-92773668D01*
X70285576Y-92771189D01*
X70463240Y-92632906D01*
X70547489Y-92541388D01*
X70612194Y-92471101D01*
X70612197Y-92471097D01*
X70615722Y-92467268D01*
X70721299Y-92305670D01*
X70736008Y-92283157D01*
X70736010Y-92283153D01*
X70738860Y-92278791D01*
X70829296Y-92072616D01*
X70884564Y-91854368D01*
X70887015Y-91824797D01*
X70902726Y-91635189D01*
X70903156Y-91630000D01*
X70884564Y-91405632D01*
X70829296Y-91187384D01*
X70738860Y-90981209D01*
X70734629Y-90974732D01*
X70618573Y-90797096D01*
X70615722Y-90792732D01*
X70612197Y-90788903D01*
X70612194Y-90788899D01*
X70557973Y-90730000D01*
X72986673Y-90730000D01*
X72987103Y-90735189D01*
X73005262Y-90954330D01*
X73005949Y-90962626D01*
X73007230Y-90967684D01*
X73007230Y-90967685D01*
X73011864Y-90985982D01*
X73063251Y-91188907D01*
X73157016Y-91402669D01*
X73159866Y-91407031D01*
X73159868Y-91407035D01*
X73253176Y-91549853D01*
X73284686Y-91598083D01*
X73288211Y-91601912D01*
X73288214Y-91601916D01*
X73309291Y-91624811D01*
X73369843Y-91690587D01*
X73401263Y-91754251D01*
X73393276Y-91824797D01*
X73348418Y-91879826D01*
X73321174Y-91893979D01*
X73262242Y-91915960D01*
X73262238Y-91915962D01*
X73253796Y-91919111D01*
X73136739Y-92006739D01*
X73049111Y-92123796D01*
X72998011Y-92260799D01*
X72991500Y-92321362D01*
X72991500Y-94218638D01*
X72998011Y-94279201D01*
X73049111Y-94416204D01*
X73136739Y-94533261D01*
X73143950Y-94538659D01*
X73242745Y-94612616D01*
X73253796Y-94620889D01*
X73390799Y-94671989D01*
X73427705Y-94675957D01*
X73448012Y-94678140D01*
X73448015Y-94678140D01*
X73451362Y-94678500D01*
X75348638Y-94678500D01*
X75351985Y-94678140D01*
X75351988Y-94678140D01*
X75372295Y-94675957D01*
X75409201Y-94671989D01*
X75546204Y-94620889D01*
X75557256Y-94612616D01*
X75656050Y-94538659D01*
X75663261Y-94533261D01*
X75750889Y-94416204D01*
X75801989Y-94279201D01*
X75808500Y-94218638D01*
X75808500Y-92321362D01*
X75801989Y-92260799D01*
X75750889Y-92123796D01*
X75663261Y-92006739D01*
X75546204Y-91919111D01*
X75537762Y-91915962D01*
X75537758Y-91915960D01*
X75478826Y-91893979D01*
X75421991Y-91851433D01*
X75397180Y-91784912D01*
X75412272Y-91715538D01*
X75430156Y-91690589D01*
X75490709Y-91624811D01*
X75511786Y-91601916D01*
X75511789Y-91601912D01*
X75515314Y-91598083D01*
X75546824Y-91549853D01*
X75640132Y-91407035D01*
X75640134Y-91407031D01*
X75642984Y-91402669D01*
X75736749Y-91188907D01*
X75788137Y-90985982D01*
X75792770Y-90967685D01*
X75792770Y-90967684D01*
X75794051Y-90962626D01*
X75794739Y-90954330D01*
X75812897Y-90735189D01*
X75813327Y-90730000D01*
X75809071Y-90678633D01*
X75794482Y-90502570D01*
X75794481Y-90502565D01*
X75794051Y-90497374D01*
X75775458Y-90423950D01*
X75738029Y-90276146D01*
X75738027Y-90276141D01*
X75736749Y-90271093D01*
X75642984Y-90057331D01*
X75515314Y-89861917D01*
X75511789Y-89858088D01*
X75511786Y-89858084D01*
X75360752Y-89694019D01*
X75357220Y-89690182D01*
X75353108Y-89686981D01*
X75353102Y-89686976D01*
X75177130Y-89550011D01*
X75177128Y-89550009D01*
X75173017Y-89546810D01*
X74967727Y-89435713D01*
X74746951Y-89359920D01*
X74741817Y-89359063D01*
X74741812Y-89359062D01*
X74521849Y-89322357D01*
X74521846Y-89322357D01*
X74516712Y-89321500D01*
X74283288Y-89321500D01*
X74278154Y-89322357D01*
X74278151Y-89322357D01*
X74058188Y-89359062D01*
X74058183Y-89359063D01*
X74053049Y-89359920D01*
X73832273Y-89435713D01*
X73626983Y-89546810D01*
X73622872Y-89550009D01*
X73622870Y-89550011D01*
X73446898Y-89686976D01*
X73446892Y-89686981D01*
X73442780Y-89690182D01*
X73439248Y-89694019D01*
X73288214Y-89858084D01*
X73288211Y-89858088D01*
X73284686Y-89861917D01*
X73157016Y-90057331D01*
X73063251Y-90271093D01*
X73061973Y-90276141D01*
X73061971Y-90276146D01*
X73024542Y-90423950D01*
X73005949Y-90497374D01*
X73005519Y-90502565D01*
X73005518Y-90502570D01*
X72990929Y-90678633D01*
X72986673Y-90730000D01*
X70557973Y-90730000D01*
X70466772Y-90630931D01*
X70463240Y-90627094D01*
X70334104Y-90526582D01*
X70289689Y-90492012D01*
X70289687Y-90492010D01*
X70285576Y-90488811D01*
X70087574Y-90381658D01*
X69874635Y-90308556D01*
X69869501Y-90307699D01*
X69869496Y-90307698D01*
X69657706Y-90272357D01*
X69657704Y-90272357D01*
X69652569Y-90271500D01*
X69427431Y-90271500D01*
X69422296Y-90272357D01*
X69422294Y-90272357D01*
X69210504Y-90307698D01*
X69210499Y-90307699D01*
X69205365Y-90308556D01*
X68992426Y-90381658D01*
X68794424Y-90488811D01*
X68790313Y-90492010D01*
X68790311Y-90492012D01*
X68745896Y-90526582D01*
X68616760Y-90627094D01*
X68613228Y-90630931D01*
X68467806Y-90788899D01*
X68467803Y-90788903D01*
X68464278Y-90792732D01*
X68461427Y-90797096D01*
X68375483Y-90928643D01*
X68321479Y-90974732D01*
X68251132Y-90984307D01*
X68186774Y-90954330D01*
X68164517Y-90928643D01*
X68078573Y-90797096D01*
X68075722Y-90792732D01*
X68072197Y-90788903D01*
X68072194Y-90788899D01*
X67926772Y-90630931D01*
X67923240Y-90627094D01*
X67794104Y-90526582D01*
X67749689Y-90492012D01*
X67749687Y-90492010D01*
X67745576Y-90488811D01*
X67547574Y-90381658D01*
X67334635Y-90308556D01*
X67329501Y-90307699D01*
X67329496Y-90307698D01*
X67117706Y-90272357D01*
X67117704Y-90272357D01*
X67112569Y-90271500D01*
X66887431Y-90271500D01*
X66882296Y-90272357D01*
X66882294Y-90272357D01*
X66670504Y-90307698D01*
X66670499Y-90307699D01*
X66665365Y-90308556D01*
X66452426Y-90381658D01*
X66254424Y-90488811D01*
X66250313Y-90492010D01*
X66250311Y-90492012D01*
X66205896Y-90526582D01*
X66076760Y-90627094D01*
X66073228Y-90630931D01*
X66015755Y-90693362D01*
X65954901Y-90729933D01*
X65883937Y-90727798D01*
X65825392Y-90687636D01*
X65804998Y-90652056D01*
X65764038Y-90542239D01*
X65764037Y-90542237D01*
X65760889Y-90533796D01*
X65737514Y-90502570D01*
X65678659Y-90423950D01*
X65673261Y-90416739D01*
X65556204Y-90329111D01*
X65419201Y-90278011D01*
X65382295Y-90274043D01*
X65361988Y-90271860D01*
X65361985Y-90271860D01*
X65358638Y-90271500D01*
X63561362Y-90271500D01*
X63558015Y-90271860D01*
X63558012Y-90271860D01*
X63537705Y-90274043D01*
X63500799Y-90278011D01*
X63363796Y-90329111D01*
X63246739Y-90416739D01*
X63241341Y-90423950D01*
X63182487Y-90502570D01*
X63159111Y-90533796D01*
X63108011Y-90670799D01*
X63101500Y-90731362D01*
X63101500Y-92528638D01*
X63108011Y-92589201D01*
X63159111Y-92726204D01*
X63246739Y-92843261D01*
X63253950Y-92848659D01*
X63351465Y-92921658D01*
X63363796Y-92930889D01*
X63478808Y-92973787D01*
X63535642Y-93016333D01*
X63560453Y-93082853D01*
X63545361Y-93152227D01*
X63527475Y-93177180D01*
X63387806Y-93328899D01*
X63387803Y-93328903D01*
X63384278Y-93332732D01*
X63381427Y-93337096D01*
X63265372Y-93514732D01*
X63261140Y-93521209D01*
X63170704Y-93727384D01*
X63115436Y-93945632D01*
X63096844Y-94170000D01*
X62180122Y-94170000D01*
X62222816Y-54941104D01*
X62226857Y-54941108D01*
X62226851Y-54941070D01*
X62222817Y-54941101D01*
X62200207Y-51954811D01*
X62200204Y-51954394D01*
X62184637Y-48303941D01*
X62184636Y-48303583D01*
X62177526Y-43297685D01*
X62177526Y-43297682D01*
X62177513Y-43288853D01*
X62177554Y-43288754D01*
X62177513Y-43288654D01*
X62177370Y-32249844D01*
X62197371Y-32181723D01*
X62251026Y-32135229D01*
X62303370Y-32123842D01*
X74707439Y-32123842D01*
X76273769Y-32124006D01*
X76273868Y-32124047D01*
X76273967Y-32124006D01*
X76274251Y-32123889D01*
X76274409Y-32123506D01*
X76274368Y-32123407D01*
X76274368Y-31826506D01*
X76294370Y-31758385D01*
X76348026Y-31711892D01*
X76400368Y-31700506D01*
X79999869Y-31700506D01*
X80067990Y-31720508D01*
G37*
G04 #@! TD.AperFunction*
M02*
