%TF.GenerationSoftware,KiCad,Pcbnew,(6.99.0-2452-gdb4f2d9dd8)*%
%TF.CreationDate,2022-07-19T11:46:45+04:00*%
%TF.ProjectId,787,3738372e-6b69-4636-9164-5f7063625858,rev?*%
%TF.SameCoordinates,Original*%
%TF.FileFunction,Legend,Bot*%
%TF.FilePolarity,Positive*%
%FSLAX46Y46*%
G04 Gerber Fmt 4.6, Leading zero omitted, Abs format (unit mm)*
G04 Created by KiCad (PCBNEW (6.99.0-2452-gdb4f2d9dd8)) date 2022-07-19 11:46:45*
%MOMM*%
%LPD*%
G01*
G04 APERTURE LIST*
%ADD10C,0.150000*%
%ADD11C,0.120000*%
%ADD12R,1.700000X1.700000*%
%ADD13O,1.700000X1.700000*%
G04 APERTURE END LIST*
D10*
X127266190Y-93538094D02*
X127218571Y-93490475D01*
X127218571Y-93490475D02*
X127170952Y-93395237D01*
X127170952Y-93395237D02*
X127170952Y-93299999D01*
X127170952Y-93299999D02*
X127218571Y-93204761D01*
X127218571Y-93204761D02*
X127266190Y-93157142D01*
X127266190Y-93157142D02*
X127361428Y-93109523D01*
X127361428Y-93109523D02*
X127456666Y-93109523D01*
X127456666Y-93109523D02*
X127551904Y-93157142D01*
X127551904Y-93157142D02*
X127599523Y-93204761D01*
X127599523Y-93204761D02*
X127647142Y-93299999D01*
X127647142Y-93299999D02*
X127647142Y-93395237D01*
X127647142Y-93395237D02*
X127599523Y-93490475D01*
X127599523Y-93490475D02*
X127551904Y-93538094D01*
X127170952Y-93538094D02*
X127551904Y-93538094D01*
X127551904Y-93538094D02*
X127599523Y-93585713D01*
X127599523Y-93585713D02*
X127599523Y-93633332D01*
X127599523Y-93633332D02*
X127551904Y-93728571D01*
X127551904Y-93728571D02*
X127456666Y-93776190D01*
X127456666Y-93776190D02*
X127218571Y-93776190D01*
X127218571Y-93776190D02*
X127075714Y-93680952D01*
X127075714Y-93680952D02*
X126980476Y-93538094D01*
X126980476Y-93538094D02*
X126932857Y-93347618D01*
X126932857Y-93347618D02*
X126980476Y-93157142D01*
X126980476Y-93157142D02*
X127075714Y-93014285D01*
X127075714Y-93014285D02*
X127218571Y-92919047D01*
X127218571Y-92919047D02*
X127409047Y-92871428D01*
X127409047Y-92871428D02*
X127599523Y-92919047D01*
X127599523Y-92919047D02*
X127742380Y-93014285D01*
X127742380Y-93014285D02*
X127837619Y-93157142D01*
X127837619Y-93157142D02*
X127885238Y-93347618D01*
X127885238Y-93347618D02*
X127837619Y-93538094D01*
X127837619Y-93538094D02*
X127742380Y-93680952D01*
X127742380Y-94633332D02*
X127218571Y-94633332D01*
X127218571Y-94633332D02*
X127123333Y-94585713D01*
X127123333Y-94585713D02*
X127075714Y-94490475D01*
X127075714Y-94490475D02*
X127075714Y-94299999D01*
X127075714Y-94299999D02*
X127123333Y-94204761D01*
X127694761Y-94633332D02*
X127742380Y-94538094D01*
X127742380Y-94538094D02*
X127742380Y-94299999D01*
X127742380Y-94299999D02*
X127694761Y-94204761D01*
X127694761Y-94204761D02*
X127599523Y-94157142D01*
X127599523Y-94157142D02*
X127504285Y-94157142D01*
X127504285Y-94157142D02*
X127409047Y-94204761D01*
X127409047Y-94204761D02*
X127361428Y-94299999D01*
X127361428Y-94299999D02*
X127361428Y-94538094D01*
X127361428Y-94538094D02*
X127313809Y-94633332D01*
X127075714Y-95014285D02*
X127742380Y-95252380D01*
X127742380Y-95252380D02*
X127075714Y-95490475D01*
X127837619Y-95633333D02*
X127837619Y-96395237D01*
X127075714Y-96633333D02*
X128075714Y-96633333D01*
X127123333Y-96633333D02*
X127075714Y-96728571D01*
X127075714Y-96728571D02*
X127075714Y-96919047D01*
X127075714Y-96919047D02*
X127123333Y-97014285D01*
X127123333Y-97014285D02*
X127170952Y-97061904D01*
X127170952Y-97061904D02*
X127266190Y-97109523D01*
X127266190Y-97109523D02*
X127551904Y-97109523D01*
X127551904Y-97109523D02*
X127647142Y-97061904D01*
X127647142Y-97061904D02*
X127694761Y-97014285D01*
X127694761Y-97014285D02*
X127742380Y-96919047D01*
X127742380Y-96919047D02*
X127742380Y-96728571D01*
X127742380Y-96728571D02*
X127694761Y-96633333D01*
X127075714Y-97966666D02*
X127742380Y-97966666D01*
X127075714Y-97538095D02*
X127599523Y-97538095D01*
X127599523Y-97538095D02*
X127694761Y-97585714D01*
X127694761Y-97585714D02*
X127742380Y-97680952D01*
X127742380Y-97680952D02*
X127742380Y-97823809D01*
X127742380Y-97823809D02*
X127694761Y-97919047D01*
X127694761Y-97919047D02*
X127647142Y-97966666D01*
X127742380Y-98442857D02*
X126742380Y-98442857D01*
X127123333Y-98442857D02*
X127075714Y-98538095D01*
X127075714Y-98538095D02*
X127075714Y-98728571D01*
X127075714Y-98728571D02*
X127123333Y-98823809D01*
X127123333Y-98823809D02*
X127170952Y-98871428D01*
X127170952Y-98871428D02*
X127266190Y-98919047D01*
X127266190Y-98919047D02*
X127551904Y-98919047D01*
X127551904Y-98919047D02*
X127647142Y-98871428D01*
X127647142Y-98871428D02*
X127694761Y-98823809D01*
X127694761Y-98823809D02*
X127742380Y-98728571D01*
X127742380Y-98728571D02*
X127742380Y-98538095D01*
X127742380Y-98538095D02*
X127694761Y-98442857D01*
X127694761Y-99300000D02*
X127742380Y-99395238D01*
X127742380Y-99395238D02*
X127742380Y-99585714D01*
X127742380Y-99585714D02*
X127694761Y-99680952D01*
X127694761Y-99680952D02*
X127599523Y-99728571D01*
X127599523Y-99728571D02*
X127551904Y-99728571D01*
X127551904Y-99728571D02*
X127456666Y-99680952D01*
X127456666Y-99680952D02*
X127409047Y-99585714D01*
X127409047Y-99585714D02*
X127409047Y-99442857D01*
X127409047Y-99442857D02*
X127361428Y-99347619D01*
X127361428Y-99347619D02*
X127266190Y-99300000D01*
X127266190Y-99300000D02*
X127218571Y-99300000D01*
X127218571Y-99300000D02*
X127123333Y-99347619D01*
X127123333Y-99347619D02*
X127075714Y-99442857D01*
X127075714Y-99442857D02*
X127075714Y-99585714D01*
X127075714Y-99585714D02*
X127123333Y-99680952D01*
X128362380Y-95014286D02*
X128362380Y-95680952D01*
X128362380Y-95680952D02*
X129362380Y-95252381D01*
X128790952Y-96204762D02*
X128743333Y-96109524D01*
X128743333Y-96109524D02*
X128695714Y-96061905D01*
X128695714Y-96061905D02*
X128600476Y-96014286D01*
X128600476Y-96014286D02*
X128552857Y-96014286D01*
X128552857Y-96014286D02*
X128457619Y-96061905D01*
X128457619Y-96061905D02*
X128410000Y-96109524D01*
X128410000Y-96109524D02*
X128362380Y-96204762D01*
X128362380Y-96204762D02*
X128362380Y-96395238D01*
X128362380Y-96395238D02*
X128410000Y-96490476D01*
X128410000Y-96490476D02*
X128457619Y-96538095D01*
X128457619Y-96538095D02*
X128552857Y-96585714D01*
X128552857Y-96585714D02*
X128600476Y-96585714D01*
X128600476Y-96585714D02*
X128695714Y-96538095D01*
X128695714Y-96538095D02*
X128743333Y-96490476D01*
X128743333Y-96490476D02*
X128790952Y-96395238D01*
X128790952Y-96395238D02*
X128790952Y-96204762D01*
X128790952Y-96204762D02*
X128838571Y-96109524D01*
X128838571Y-96109524D02*
X128886190Y-96061905D01*
X128886190Y-96061905D02*
X128981428Y-96014286D01*
X128981428Y-96014286D02*
X129171904Y-96014286D01*
X129171904Y-96014286D02*
X129267142Y-96061905D01*
X129267142Y-96061905D02*
X129314761Y-96109524D01*
X129314761Y-96109524D02*
X129362380Y-96204762D01*
X129362380Y-96204762D02*
X129362380Y-96395238D01*
X129362380Y-96395238D02*
X129314761Y-96490476D01*
X129314761Y-96490476D02*
X129267142Y-96538095D01*
X129267142Y-96538095D02*
X129171904Y-96585714D01*
X129171904Y-96585714D02*
X128981428Y-96585714D01*
X128981428Y-96585714D02*
X128886190Y-96538095D01*
X128886190Y-96538095D02*
X128838571Y-96490476D01*
X128838571Y-96490476D02*
X128790952Y-96395238D01*
X128362380Y-96919048D02*
X128362380Y-97585714D01*
X128362380Y-97585714D02*
X129362380Y-97157143D01*
X130315714Y-95585714D02*
X130982380Y-95823809D01*
X130982380Y-95823809D02*
X130315714Y-96061904D01*
X130982380Y-96966666D02*
X130982380Y-96395238D01*
X130982380Y-96680952D02*
X129982380Y-96680952D01*
X129982380Y-96680952D02*
X130125238Y-96585714D01*
X130125238Y-96585714D02*
X130220476Y-96490476D01*
X130220476Y-96490476D02*
X130268095Y-96395238D01*
X158461904Y-95715714D02*
X158461904Y-96572857D01*
X158461904Y-96572857D02*
X158509523Y-96668095D01*
X158509523Y-96668095D02*
X158604761Y-96715714D01*
X158604761Y-96715714D02*
X158652380Y-96715714D01*
X158461904Y-95382380D02*
X158509523Y-95430000D01*
X158509523Y-95430000D02*
X158461904Y-95477619D01*
X158461904Y-95477619D02*
X158414285Y-95430000D01*
X158414285Y-95430000D02*
X158461904Y-95382380D01*
X158461904Y-95382380D02*
X158461904Y-95477619D01*
X157842857Y-96382380D02*
X157938095Y-96334761D01*
X157938095Y-96334761D02*
X157985714Y-96239523D01*
X157985714Y-96239523D02*
X157985714Y-95382380D01*
X157033333Y-96334761D02*
X157128571Y-96382380D01*
X157128571Y-96382380D02*
X157319047Y-96382380D01*
X157319047Y-96382380D02*
X157414285Y-96334761D01*
X157414285Y-96334761D02*
X157461904Y-96287142D01*
X157461904Y-96287142D02*
X157509523Y-96191904D01*
X157509523Y-96191904D02*
X157509523Y-95906190D01*
X157509523Y-95906190D02*
X157461904Y-95810952D01*
X157461904Y-95810952D02*
X157414285Y-95763333D01*
X157414285Y-95763333D02*
X157319047Y-95715714D01*
X157319047Y-95715714D02*
X157128571Y-95715714D01*
X157128571Y-95715714D02*
X157033333Y-95763333D01*
X156604761Y-95715714D02*
X156604761Y-96572857D01*
X156604761Y-96572857D02*
X156652380Y-96668095D01*
X156652380Y-96668095D02*
X156747618Y-96715714D01*
X156747618Y-96715714D02*
X156795237Y-96715714D01*
X156604761Y-95382380D02*
X156652380Y-95430000D01*
X156652380Y-95430000D02*
X156604761Y-95477619D01*
X156604761Y-95477619D02*
X156557142Y-95430000D01*
X156557142Y-95430000D02*
X156604761Y-95382380D01*
X156604761Y-95382380D02*
X156604761Y-95477619D01*
X155985714Y-96382380D02*
X156080952Y-96334761D01*
X156080952Y-96334761D02*
X156128571Y-96239523D01*
X156128571Y-96239523D02*
X156128571Y-95382380D01*
X155176190Y-96334761D02*
X155271428Y-96382380D01*
X155271428Y-96382380D02*
X155461904Y-96382380D01*
X155461904Y-96382380D02*
X155557142Y-96334761D01*
X155557142Y-96334761D02*
X155604761Y-96287142D01*
X155604761Y-96287142D02*
X155652380Y-96191904D01*
X155652380Y-96191904D02*
X155652380Y-95906190D01*
X155652380Y-95906190D02*
X155604761Y-95810952D01*
X155604761Y-95810952D02*
X155557142Y-95763333D01*
X155557142Y-95763333D02*
X155461904Y-95715714D01*
X155461904Y-95715714D02*
X155271428Y-95715714D01*
X155271428Y-95715714D02*
X155176190Y-95763333D01*
X154747618Y-95715714D02*
X154747618Y-96572857D01*
X154747618Y-96572857D02*
X154795237Y-96668095D01*
X154795237Y-96668095D02*
X154890475Y-96715714D01*
X154890475Y-96715714D02*
X154938094Y-96715714D01*
X154747618Y-95382380D02*
X154795237Y-95430000D01*
X154795237Y-95430000D02*
X154747618Y-95477619D01*
X154747618Y-95477619D02*
X154699999Y-95430000D01*
X154699999Y-95430000D02*
X154747618Y-95382380D01*
X154747618Y-95382380D02*
X154747618Y-95477619D01*
X154128571Y-96382380D02*
X154223809Y-96334761D01*
X154223809Y-96334761D02*
X154271428Y-96239523D01*
X154271428Y-96239523D02*
X154271428Y-95382380D01*
X153319047Y-96334761D02*
X153414285Y-96382380D01*
X153414285Y-96382380D02*
X153604761Y-96382380D01*
X153604761Y-96382380D02*
X153699999Y-96334761D01*
X153699999Y-96334761D02*
X153747618Y-96287142D01*
X153747618Y-96287142D02*
X153795237Y-96191904D01*
X153795237Y-96191904D02*
X153795237Y-95906190D01*
X153795237Y-95906190D02*
X153747618Y-95810952D01*
X153747618Y-95810952D02*
X153699999Y-95763333D01*
X153699999Y-95763333D02*
X153604761Y-95715714D01*
X153604761Y-95715714D02*
X153414285Y-95715714D01*
X153414285Y-95715714D02*
X153319047Y-95763333D01*
X152890475Y-95715714D02*
X152890475Y-96572857D01*
X152890475Y-96572857D02*
X152938094Y-96668095D01*
X152938094Y-96668095D02*
X153033332Y-96715714D01*
X153033332Y-96715714D02*
X153080951Y-96715714D01*
X152890475Y-95382380D02*
X152938094Y-95430000D01*
X152938094Y-95430000D02*
X152890475Y-95477619D01*
X152890475Y-95477619D02*
X152842856Y-95430000D01*
X152842856Y-95430000D02*
X152890475Y-95382380D01*
X152890475Y-95382380D02*
X152890475Y-95477619D01*
X152271428Y-96382380D02*
X152366666Y-96334761D01*
X152366666Y-96334761D02*
X152414285Y-96239523D01*
X152414285Y-96239523D02*
X152414285Y-95382380D01*
X151461904Y-96334761D02*
X151557142Y-96382380D01*
X151557142Y-96382380D02*
X151747618Y-96382380D01*
X151747618Y-96382380D02*
X151842856Y-96334761D01*
X151842856Y-96334761D02*
X151890475Y-96287142D01*
X151890475Y-96287142D02*
X151938094Y-96191904D01*
X151938094Y-96191904D02*
X151938094Y-95906190D01*
X151938094Y-95906190D02*
X151890475Y-95810952D01*
X151890475Y-95810952D02*
X151842856Y-95763333D01*
X151842856Y-95763333D02*
X151747618Y-95715714D01*
X151747618Y-95715714D02*
X151557142Y-95715714D01*
X151557142Y-95715714D02*
X151461904Y-95763333D01*
D11*
X146830000Y-93570000D02*
X146830000Y-98770000D01*
X141690000Y-93570000D02*
X146830000Y-93570000D01*
X141690000Y-93570000D02*
X141690000Y-96170000D01*
X140420000Y-93570000D02*
X139090000Y-93570000D01*
X139090000Y-93570000D02*
X139090000Y-94900000D01*
X141690000Y-96170000D02*
X139090000Y-96170000D01*
X139090000Y-96170000D02*
X139090000Y-98770000D01*
X139090000Y-98770000D02*
X146830000Y-98770000D01*
%LPC*%
D12*
X140419999Y-94899999D03*
D13*
X140419999Y-97439999D03*
X142959999Y-94899999D03*
X142959999Y-97439999D03*
X145499999Y-94899999D03*
X145499999Y-97439999D03*
M02*
