<?xml version="1.0" encoding="UTF-8" standalone="no"?>
<!-- Created with Inkscape (http://www.inkscape.org/) -->

<svg
   width="64.092522mm"
   height="91.52417mm"
   viewBox="0 0 64.092522 91.52417"
   version="1.1"
   id="svg5"
   xml:space="preserve"
   inkscape:version="1.2 (dc2aeda, 2022-05-15)"
   sodipodi:docname="captech board outline.svg"
   xmlns:inkscape="http://www.inkscape.org/namespaces/inkscape"
   xmlns:sodipodi="http://sodipodi.sourceforge.net/DTD/sodipodi-0.dtd"
   xmlns="http://www.w3.org/2000/svg"
   xmlns:svg="http://www.w3.org/2000/svg"><sodipodi:namedview
     id="namedview7"
     pagecolor="#ffffff"
     bordercolor="#000000"
     borderopacity="0.25"
     inkscape:showpageshadow="2"
     inkscape:pageopacity="0.0"
     inkscape:pagecheckerboard="0"
     inkscape:deskcolor="#d1d1d1"
     inkscape:document-units="mm"
     showgrid="false"
     inkscape:zoom="1.7219298"
     inkscape:cx="90.596027"
     inkscape:cy="194.83953"
     inkscape:window-width="1800"
     inkscape:window-height="1097"
     inkscape:window-x="0"
     inkscape:window-y="44"
     inkscape:window-maximized="0"
     inkscape:current-layer="layer1" /><defs
     id="defs2" /><g
     inkscape:label="Layer 1"
     inkscape:groupmode="layer"
     id="layer1"
     transform="translate(217.95541,-123.57469)"><path
       style="fill:none;stroke-width:0.0846667;stroke:#000000;stroke-opacity:1"
       d="m -187.8765,212.84256 c -9.35073,-11.33212 -24.40603,-29.64022 -24.92511,-30.31035 -2.91564,-3.76411 -4.65188,-8.04237 -5.06291,-12.47552 -0.0612,-0.66035 -0.0904,-8.15963 -0.0906,-23.3045 l -2.9e-4,-22.33083 h 12.53067 12.53067 l 3.13266,3.3e-4 v -0.847 h 7.705 v 0.847 l 3.1322,-3.3e-4 h 12.53066 12.53067 l -8.7e-4,22.20383 c -5.9e-4,14.34475 -0.0314,22.56345 -0.0871,23.21983 -0.38283,4.50981 -2.16422,8.98603 -5.01013,12.58931 -0.74828,0.94741 -26.62303,32.3985 -26.86265,32.6519 -0.0887,0.0937 -0.45167,-0.30301 -2.05302,-2.24367 z"
       id="path682"
       sodipodi:nodetypes="csssccccccccccccsccc" /></g></svg>
