<?xml version="1.0" encoding="UTF-8" standalone="no"?>
<!-- Created with Inkscape (http://www.inkscape.org/) -->

<svg
   width="64.092522mm"
   height="91.52417mm"
   viewBox="0 0 64.092522 91.52417"
   version="1.1"
   id="svg5"
   xml:space="preserve"
   inkscape:version="1.2 (dc2aeda, 2022-05-15)"
   sodipodi:docname="captech icon.svg"
   xmlns:inkscape="http://www.inkscape.org/namespaces/inkscape"
   xmlns:sodipodi="http://sodipodi.sourceforge.net/DTD/sodipodi-0.dtd"
   xmlns="http://www.w3.org/2000/svg"
   xmlns:svg="http://www.w3.org/2000/svg"><sodipodi:namedview
     id="namedview7"
     pagecolor="#ffffff"
     bordercolor="#000000"
     borderopacity="0.25"
     inkscape:showpageshadow="2"
     inkscape:pageopacity="0.0"
     inkscape:pagecheckerboard="0"
     inkscape:deskcolor="#d1d1d1"
     inkscape:document-units="mm"
     showgrid="false"
     inkscape:zoom="1.0952062"
     inkscape:cx="61.175696"
     inkscape:cy="286.24747"
     inkscape:window-width="1800"
     inkscape:window-height="1097"
     inkscape:window-x="0"
     inkscape:window-y="44"
     inkscape:window-maximized="0"
     inkscape:current-layer="layer1" /><defs
     id="defs2" /><g
     inkscape:label="Layer 1"
     inkscape:groupmode="layer"
     id="layer1"
     transform="translate(217.95541,-123.57469)"><path
       style="fill:#000000;stroke-width:0.0846667"
       d="m -187.8765,212.84256 c -9.35073,-11.33212 -24.40603,-29.64022 -24.92511,-30.31035 -2.91564,-3.76411 -4.65188,-8.04237 -5.06291,-12.47552 -0.0612,-0.66035 -0.0904,-8.15963 -0.0906,-23.3045 l -2.9e-4,-22.33083 h 12.53067 12.53067 v 2.286 2.286 h -10.41401 -10.414 l 2.9e-4,19.28283 c 2e-4,12.93717 0.0299,19.60325 0.0902,20.2565 0.37587,4.06977 1.9744,7.85925 4.80324,11.38654 0.44864,0.55942 5.78381,7.05029 11.85593,14.42416 9.08815,11.03647 11.05922,13.38681 11.14773,13.29266 0.0591,-0.0629 4.67121,-5.65791 10.24904,-12.43336 5.57783,-6.77545 10.58661,-12.85332 11.13063,-13.50638 2.31287,-2.77644 3.3063,-4.20723 4.23113,-6.09396 1.19748,-2.44296 1.81062,-4.66604 2.02914,-7.35715 0.0545,-0.67117 0.0866,-8.02433 0.0879,-20.15428 l 0.002,-19.09756 h -10.41469 -10.41468 v -2.286 -2.286 h 12.53066 12.53067 l -8.7e-4,22.20383 c -5.9e-4,14.34475 -0.0314,22.56345 -0.0871,23.21983 -0.38283,4.50981 -2.16422,8.98603 -5.01013,12.58931 -0.74828,0.94741 -26.62303,32.3985 -26.86265,32.6519 -0.0887,0.0937 -0.45167,-0.30301 -2.05302,-2.24367 z m 4.90925,-27.79568 0.0215,-9.32315 0.9835,-0.32957 c 4.91116,-1.64573 8.5014,-5.81135 9.57475,-11.10923 0.16809,-0.82965 0.19428,-1.21183 0.19338,-2.82226 -0.001,-2.44103 -0.22477,-3.6477 -1.06594,-5.75733 -1.59051,-3.98899 -5.20776,-7.28841 -9.19886,-8.39062 l -0.52916,-0.14614 v -5.65879 -5.65878 h 9.47034 9.47035 l 0.0562,9.16516 c 0.10627,17.32967 0.093,21.74356 -0.0684,22.7965 -0.34758,2.26719 -1.14353,4.40244 -2.3513,6.30767 -0.43375,0.68423 -4.93717,6.24082 -12.83183,15.83266 -1.97385,2.39819 -3.62421,4.37309 -3.66747,4.38868 -0.0482,0.0174 -0.0703,-3.58099 -0.0571,-9.2948 z m -7.26704,7.42496 c -0.69961,-0.84984 -3.87804,-4.70747 -7.06319,-8.5725 -3.18516,-3.86504 -6.09333,-7.40318 -6.4626,-7.86255 -1.89694,-2.35971 -3.04397,-4.72113 -3.62689,-7.46675 l -0.19674,-0.9267 -0.0229,-15.89617 -0.0229,-15.89616 h 9.40032 9.40032 l -0.0218,5.59632 -0.0218,5.59633 -0.762,0.1982 c -4.69855,1.22214 -8.55618,5.10635 -9.98341,10.05218 -0.42753,1.48153 -0.51224,2.17065 -0.51246,4.16863 -2.6e-4,2.10356 0.13042,3.00154 0.68148,4.68377 1.53221,4.67742 5.36523,8.36665 9.87789,9.50733 l 0.74084,0.18727 v 9.08798 c 0,4.99839 -0.0298,9.08798 -0.0661,9.08798 -0.0364,0 -0.63852,-0.69532 -1.33812,-1.54516 z m 7.24625,-30.66097 c 0,-7.30052 0.0218,-9.1953 0.10583,-9.19448 0.23867,0.002 1.45558,0.60091 2.11882,1.04222 4.37679,2.91221 5.58063,9.07299 2.65626,13.59362 -0.49883,0.77111 -1.53335,1.85649 -2.34843,2.46388 -0.62973,0.46927 -1.83864,1.11698 -2.29965,1.23212 l -0.23283,0.0582 z m -6.8945,8.7121 c -0.98055,-0.50034 -1.73334,-1.06743 -2.5548,-1.92458 -1.36615,-1.4255 -2.25328,-3.21004 -2.572,-5.17383 -0.10922,-0.67294 -0.10922,-2.5728 0,-3.24575 0.21673,-1.33539 0.77442,-2.77524 1.4967,-3.86419 0.50464,-0.76083 1.56849,-1.87813 2.31573,-2.43208 0.6252,-0.46348 1.97104,-1.18252 2.21336,-1.18252 0.14728,0 0.15351,0.3692 0.15351,9.10167 0,8.73246 -0.006,9.10166 -0.15351,9.10166 -0.0844,0 -0.48898,-0.17117 -0.89899,-0.38038 z m 0.12116,-42.92661 v -4.02167 h 3.85234 3.85233 v 4.02167 4.02166 h -3.85233 -3.85234 z"
       id="path682"
       sodipodi:nodetypes="cssscccccccscsssssssccccccccccscccccsscsscccccscssssccssscccccccssssscssccscsssscsssssssssssccccccccc" /></g></svg>
